<svg width="38" height="38" viewBox="0 0 38 38" fill="none" xmlns="http://www.w3.org/2000/svg">
<g id="reshot-icon-molecules-YBNSD562JC 1" clip-path="url(#clip0_19987_203)">
<path id="Vector" d="M7.10699 11.7847L13.9688 18.6465L16.6642 15.951L9.80247 9.08925L7.10699 11.7847Z" fill="#57555C"/>
<path id="Vector_2" d="M16.6642 15.9512L13.5924 12.8794C12.2266 13.1551 11.1731 14.2884 11.0146 15.6932L13.9683 18.6468L16.6642 15.9512Z" fill="#3C3A41"/>
<path id="Vector_3" d="M22.5199 20.7262L30.2741 18.6761L29.2873 14.9937L21.5332 17.0438L22.5199 20.7262Z" fill="#57555C"/>
<path id="Vector_4" d="M21.5332 17.0439L22.5199 20.7263L26.8932 19.5701C26.8978 19.4736 26.9005 19.3767 26.9005 19.279C26.9005 18.0265 26.5197 16.863 25.8676 15.8979L21.5332 17.0439Z" fill="#3C3A41"/>
<path id="Vector_5" d="M11.3394 32.249L17.1016 24.3613L14.0233 22.1126L8.26116 30.0002L11.3394 32.249Z" fill="#57555C"/>
<path id="Vector_6" d="M17.102 24.3615L14.5396 27.8693C13.1477 27.8071 11.9322 26.8494 11.5596 25.4858L14.0235 22.1128L17.102 24.3615Z" fill="#3C3A41"/>
<path id="Vector_7" d="M18.2994 26.0792C21.6387 26.0792 24.3458 23.3721 24.3458 20.0328C24.3458 16.6934 21.6387 13.9863 18.2994 13.9863C14.96 13.9863 12.2529 16.6934 12.2529 20.0328C12.2529 23.3721 14.96 26.0792 18.2994 26.0792Z" fill="#00D8DE"/>
<path id="Vector_8" d="M22.5749 22.1023C20.2136 24.4636 16.3853 24.4636 14.024 22.1023C13.1251 21.2034 12.5695 20.0918 12.3549 18.9297C12.0058 20.8205 12.5615 22.8455 14.024 24.3079C16.3853 26.6692 20.2137 26.6692 22.5749 24.3079C24.0373 22.8455 24.5929 20.8205 24.244 18.9297C24.0293 20.0919 23.4737 21.2034 22.5749 22.1023Z" fill="#00B6BE"/>
<path id="Vector_9" d="M6.20247 13.5612C9.30925 13.5612 11.8278 11.0427 11.8278 7.93587C11.8278 4.82909 9.30925 2.31055 6.20247 2.31055C3.09569 2.31055 0.577148 4.82909 0.577148 7.93587C0.577148 11.0427 3.09569 13.5612 6.20247 13.5612Z" fill="#FF0435"/>
<path id="Vector_10" d="M10.1798 9.86127C7.98311 12.058 4.42151 12.058 2.22479 9.86127C1.38857 9.02505 0.871633 7.99096 0.672059 6.90967C0.347352 8.66872 0.864359 10.5526 2.22479 11.9132C4.42151 14.1099 7.98311 14.1099 10.1798 11.9132C11.5404 10.5527 12.0573 8.6688 11.7326 6.90967C11.533 7.99088 11.0161 9.02505 10.1798 9.86127Z" fill="#E60020"/>
<path id="Vector_11" d="M8.72257 35.6976C10.4991 35.6976 11.9393 34.2574 11.9393 32.4809C11.9393 30.7043 10.4991 29.2642 8.72257 29.2642C6.94603 29.2642 5.50586 30.7043 5.50586 32.4809C5.50586 34.2574 6.94603 35.6976 8.72257 35.6976Z" fill="#00D8DE"/>
<path id="Vector_12" d="M10.9876 33.0349C9.70818 34.2674 7.67184 34.2294 6.4393 32.9501C6.04527 32.5412 5.78172 32.0547 5.64649 31.542C5.31807 32.6217 5.56789 33.8422 6.40649 34.7126C7.63904 35.992 9.67537 36.0299 10.9548 34.7974C11.8251 33.9588 12.1203 32.7483 11.8323 31.6573C11.6779 32.1646 11.3965 32.6409 10.9876 33.0349Z" fill="#00B6BE"/>
<path id="Vector_13" d="M32.6374 20.9916C35.2773 20.9916 37.4174 18.8515 37.4174 16.2116C37.4174 13.5717 35.2773 11.4316 32.6374 11.4316C29.9975 11.4316 27.8574 13.5717 27.8574 16.2116C27.8574 18.8515 29.9975 20.9916 32.6374 20.9916Z" fill="#FF0435"/>
<path id="Vector_14" d="M36.0179 17.5603C34.1511 19.4271 31.1242 19.4271 29.2574 17.5603C28.584 16.8868 28.1548 16.0622 27.9672 15.1958C27.6348 16.7312 28.0639 18.3983 29.2574 19.5918C31.1242 21.4587 34.1511 21.4587 36.0179 19.5918C37.2113 18.3984 37.6405 16.7312 37.3081 15.1958C37.1204 16.0622 36.6913 16.8868 36.0179 17.5603Z" fill="#E60020"/>
<path id="Vector_15" d="M5.43356 23.9731C5.75477 23.9731 6.01528 23.7128 6.01528 23.3914V23.0861H6.32054C6.64176 23.0861 6.90227 22.8257 6.90227 22.5044C6.90227 22.1831 6.64183 21.9226 6.32054 21.9226H6.01528V21.6174C6.01528 21.2961 5.75485 21.0356 5.43356 21.0356C5.11234 21.0356 4.85183 21.296 4.85183 21.6174V21.9226H4.54657C4.22535 21.9226 3.96484 22.183 3.96484 22.5044C3.96484 22.8256 4.22528 23.0861 4.54657 23.0861H4.85183V23.3914C4.85183 23.7128 5.11234 23.9731 5.43356 23.9731Z" fill="black"/>
<path id="Vector_16" d="M26.7903 31.8523H26.485V31.5471C26.485 31.2258 26.2246 30.9653 25.9033 30.9653C25.582 30.9653 25.3216 31.2257 25.3216 31.5471V31.8523H25.0163C24.695 31.8523 24.4346 32.1127 24.4346 32.434C24.4346 32.7554 24.6949 33.0158 25.0163 33.0158H25.3216V33.321C25.3216 33.6423 25.5819 33.9028 25.9033 33.9028C26.2246 33.9028 26.485 33.6424 26.485 33.321V33.0158H26.7903C27.1116 33.0158 27.372 32.7554 27.372 32.434C27.372 32.1127 27.1116 31.8523 26.7903 31.8523Z" fill="black"/>
<path id="Vector_17" d="M20.4362 8.28823H20.7415V8.59349C20.7415 8.91478 21.0018 9.17522 21.3232 9.17522C21.6445 9.17522 21.9049 8.91486 21.9049 8.59349V8.28823H22.2102C22.5315 8.28823 22.7919 8.02787 22.7919 7.70651C22.7919 7.38521 22.5316 7.12478 22.2102 7.12478H21.9049V6.81952C21.9049 6.49823 21.6446 6.23779 21.3232 6.23779C21.0019 6.23779 20.7415 6.49815 20.7415 6.81952V7.12478H20.4362C20.1149 7.12478 19.8545 7.38514 19.8545 7.70651C19.8545 8.02787 20.1148 8.28823 20.4362 8.28823Z" fill="black"/>
<path id="Vector_18" d="M27.2321 11.3877C27.3809 11.3877 27.5299 11.331 27.6435 11.2174C28.019 10.8419 28.435 10.5094 28.88 10.2293C29.1518 10.0582 29.2335 9.69903 29.0623 9.4271C28.8911 9.15523 28.532 9.07367 28.2601 9.24474C27.7418 9.57101 27.2576 9.95791 26.8208 10.3946C26.5936 10.6219 26.5936 10.9901 26.8208 11.2172C26.9344 11.3309 27.0833 11.3877 27.2321 11.3877Z" fill="black"/>
<path id="Vector_19" d="M6.20431 16.7041C6.64568 16.7029 7.091 16.6699 7.5277 16.606C7.8455 16.5594 8.06549 16.264 8.01895 15.9461C7.97242 15.6283 7.67703 15.4088 7.35907 15.4548C6.977 15.5109 6.5875 15.5397 6.20134 15.5406C5.88012 15.5415 5.62028 15.8026 5.6211 16.1238C5.62191 16.4446 5.88212 16.704 6.20282 16.704C6.20319 16.7041 6.20371 16.7041 6.20431 16.7041Z" fill="black"/>
<path id="Vector_20" d="M25.0483 26.4815C26.1172 25.3617 26.8976 23.9836 27.3053 22.4964C27.3902 22.1865 27.2078 21.8665 26.898 21.7816C26.5879 21.6967 26.2681 21.8791 26.1832 22.1888C25.8264 23.4907 25.143 24.6973 24.2068 25.6783C23.985 25.9106 23.9935 26.2788 24.226 26.5007C24.3386 26.6082 24.4831 26.6615 24.6275 26.6615C24.7809 26.6617 24.934 26.6013 25.0483 26.4815Z" fill="black"/>
<path id="Vector_21" d="M36.4294 12.4202C34.3387 10.3297 30.937 10.3296 28.8462 12.4203C28.1421 13.1245 27.6762 13.9776 27.4463 14.8789L23.5019 15.9218C23.168 15.5008 22.7804 15.1178 22.3438 14.7816C22.0892 14.5854 21.7239 14.6331 21.5281 14.8874C21.332 15.1419 21.3794 15.5071 21.6339 15.7032C22.7881 16.5921 23.528 17.8772 23.7175 19.3215C24.1097 22.3091 21.998 25.0588 19.0104 25.4509C16.0231 25.8437 13.2732 23.7315 12.881 20.7438C12.6911 19.2965 13.0761 17.862 13.9651 16.7042C14.8542 15.5465 16.1409 14.8043 17.5881 14.6144C18.2058 14.5332 18.8248 14.5568 19.4281 14.6841C19.7424 14.7499 20.0511 14.5494 20.1174 14.235C20.1836 13.9206 19.9827 13.612 19.6683 13.5456C18.9358 13.391 18.1851 13.3626 17.4367 13.4608C16.7712 13.5481 16.1338 13.7323 15.5399 14.0032L11.9093 10.3726C12.8718 8.11037 12.4336 5.38922 10.5914 3.54704C8.6677 1.6233 5.75425 1.17264 3.34185 2.42604C3.05678 2.57411 2.94575 2.92531 3.09381 3.21031C3.24195 3.49553 3.59315 3.60649 3.87815 3.45835C5.83819 2.44015 8.20539 2.80634 9.76874 4.36976C11.7352 6.33618 11.7352 9.53567 9.76874 11.5021C7.80231 13.4685 4.60275 13.4685 2.63633 11.5021C0.949637 9.8154 0.677625 7.14872 1.98981 5.16144C2.16682 4.89329 2.09297 4.53252 1.8249 4.35543C1.55682 4.17857 1.19597 4.25227 1.01896 4.52034C-0.596263 6.96681 -0.261908 10.2491 1.81399 12.3249C3.02397 13.5349 4.61344 14.1398 6.20283 14.1398C6.90716 14.1398 7.61128 14.0205 8.28266 13.7828L12.1232 17.6234C11.7204 18.6516 11.5802 19.77 11.7279 20.8952C11.8384 21.7375 12.1039 22.522 12.4911 23.2247L8.49752 28.6921C7.62486 28.7435 6.76555 29.0929 6.08809 29.7455C4.57982 31.1987 4.53491 33.608 5.98797 35.1164V35.1164C6.73238 35.8891 7.72743 36.2777 8.72404 36.2777C9.67292 36.2777 10.6231 35.9252 11.3587 35.2165C12.3276 34.283 12.6915 32.9552 12.4436 31.7248L16.3569 26.3678C16.9742 26.5581 17.6255 26.6613 18.295 26.6613C18.5812 26.6613 18.8709 26.6427 19.1622 26.6045C22.2673 26.1969 24.592 23.6896 24.8945 20.7004L28.5881 19.7238C28.6707 19.819 28.7559 19.9129 28.8464 20.0034C29.6762 20.833 30.7273 21.3579 31.8862 21.5212C31.9137 21.5251 31.9411 21.5269 31.9682 21.5269C32.2535 21.5269 32.5025 21.3169 32.5435 21.0263C32.5883 20.7081 32.3667 20.414 32.0486 20.3691C31.1418 20.2414 30.3188 19.8304 29.6691 19.1806C28.0321 17.5436 28.0321 14.8799 29.6691 13.2428C31.3062 11.6057 33.9699 11.6058 35.607 13.2428C36.4001 14.0358 36.8368 15.0902 36.8368 16.2117C36.8368 17.3332 36.4001 18.3876 35.607 19.1806C35.2429 19.5447 34.8225 19.8351 34.3574 20.0436C34.0643 20.175 33.9332 20.5192 34.0646 20.8124C34.1961 21.1055 34.5404 21.2365 34.8334 21.1052C35.4281 20.8385 35.9652 20.4677 36.4296 20.0032C37.4425 18.9904 38.0002 17.6439 38.0002 16.2116C38.0002 14.7794 37.4421 13.4331 36.4294 12.4202ZM9.40024 13.2554C9.82485 13.0002 10.2257 12.6906 10.5914 12.3249C10.8691 12.0472 11.1134 11.7489 11.3273 11.4359L14.4944 14.603C13.9495 14.9858 13.4596 15.4524 13.0424 15.9956C12.9099 16.1681 12.7868 16.346 12.6729 16.5281L9.40024 13.2554ZM10.5514 34.3786C9.50511 35.3867 7.83363 35.3556 6.82552 34.3092C5.81749 33.2628 5.84858 31.5914 6.89492 30.5834C7.94125 29.5754 9.61265 29.6065 10.6207 30.6528C11.6289 31.6991 11.5977 33.3706 10.5514 34.3786ZM11.9336 30.4503C11.7987 30.237 11.6404 30.0342 11.4585 29.8456C10.992 29.3614 10.4267 29.0288 9.82455 28.8474L13.186 24.2453C13.7549 24.9338 14.4576 25.5011 15.2484 25.9127L11.9336 30.4503ZM24.9055 19.494C24.8966 19.3864 24.8853 19.2784 24.8711 19.1702C24.7676 18.3816 24.5278 17.6328 24.1688 16.9488L27.2802 16.1262C27.2662 17.0123 27.4685 17.9012 27.8899 18.7049L24.9055 19.494Z" fill="black"/>
</g>
<defs>
<clipPath id="clip0_19987_203">
<rect width="38" height="38" fill="white"/>
</clipPath>
</defs>
</svg>
