<svg width="67" height="48" viewBox="0 0 67 48" fill="none" xmlns="http://www.w3.org/2000/svg">
<g id="reshot-icon-student-boy-L9ESXQZ3WU" clip-path="url(#clip0_19967_19114)">
<path id="Vector" d="M22.6236 21.6565L23.647 22.2977C24.6748 22.941 25.5698 23.7765 26.2835 24.7588C27.5179 26.4595 29.4538 29.5049 31.2076 33.8777C31.6043 34.8664 31.7879 35.9282 31.7465 36.9933C31.705 38.0584 31.4394 39.1025 30.9671 40.0572C30.9671 40.0572 28.7913 42.6151 26.9034 41.4194C25.0155 40.2236 25.7785 37.8592 25.7785 37.8592C26.0428 37.3573 26.1704 36.7943 26.1483 36.227C26.1262 35.6597 25.9553 35.1084 25.6527 34.6288C24.8091 33.2916 23.5747 31.5829 22.2842 30.6456L22.6236 21.6565Z" fill="#797996"/>
<path id="Vector_2" d="M2.53988 40.8475C2.53988 40.8475 1.88644 41.7228 1.82387 44.4108C1.8168 44.7126 1.86989 45.0128 1.98 45.2937C2.09012 45.5746 2.25505 45.8306 2.46509 46.0466C2.67514 46.2626 2.92607 46.4342 3.20313 46.5515C3.4802 46.6688 3.77781 46.7292 4.07848 46.7294H8.50448L9.40188 39.2483L2.53988 40.8475Z" fill="#B45F6D"/>
<path id="Vector_3" d="M22.5434 43.4924H8.50488V46.7299H22.5434V43.4924Z" fill="#464659"/>
<path id="Vector_4" d="M22.6243 21.6564L21.9388 21.2268C21.6064 21.1342 21.3078 20.947 21.079 20.6878L19.7572 19.8591H11.3872L9.97039 20.7086C9.73631 20.9634 9.43384 21.1448 9.09943 21.2309L8.27655 21.7251C6.62775 22.7138 5.35876 24.2313 4.67428 26.0329C3.58774 28.8912 1.93482 33.5638 0.765183 38.3479C-0.100723 41.8914 1.93425 43.581 5.21157 42.0053C6.26365 41.4995 7.06445 40.7326 7.77005 39.8785L7.86764 42.4371L10.5157 44.5445H19.1205L23.2762 42.4365L22.6243 21.6564Z" fill="#797996"/>
<path id="Vector_5" d="M15.5718 19.4839L12.3486 23.1504C12.8319 24.3781 13.3991 25.5708 14.0461 26.72H17.0975C17.7446 25.5708 18.3117 24.3781 18.795 23.1504L15.5718 19.4839Z" fill="#CBD5EA"/>
<path id="Vector_6" d="M14.274 24.2378L14.0459 26.7197C14.5122 27.5631 15.0214 28.382 15.5713 29.1731C16.1212 28.382 16.6303 27.5631 17.0967 26.7197L16.8034 23.5281C16.8034 23.5281 16.0753 23.0416 15.4435 23.15C14.8117 23.2585 14.274 24.2378 14.274 24.2378Z" fill="#FF6D8D"/>
<path id="Vector_7" d="M16.8038 23.5283L16.4323 19.4839H14.7112L14.2744 24.2379C15.0431 23.7877 15.9141 23.5434 16.8038 23.5283Z" fill="#E5486E"/>
<path id="Vector_8" d="M17.7037 18.3704H13.4397L11.3867 19.8589C11.6047 20.9837 11.9269 22.0855 12.3491 23.15L15.5714 20.8213L18.7937 23.15C19.216 22.0855 19.5382 20.9837 19.7561 19.8589L17.7037 18.3704Z" fill="white"/>
<path id="Vector_9" d="M13.4395 17.3999V18.3705L15.5715 20.8215L17.7035 18.3705V17.5902L13.4395 17.3999Z" fill="#FFD4CA"/>
<path id="Vector_10" d="M8.07099 25.9058C8.07099 25.9058 8.02613 23.8541 7.37354 22.3481C6.60812 22.9534 5.95154 23.6858 5.43221 24.5135C5.69122 24.9133 6.24778 25.9592 6.24778 27.5691V31.7727C6.24914 31.9935 6.20443 32.2121 6.11651 32.4145C6.0286 32.6169 5.89944 32.7986 5.73735 32.9478C5.10867 33.4982 4.70101 34.2595 4.59049 35.0896L2.99747 37.3246C2.95893 37.3786 2.93928 37.4439 2.94159 37.5104C2.9439 37.5768 2.96803 37.6406 3.01023 37.6918C3.05243 37.743 3.11033 37.7788 3.17489 37.7935C3.23945 37.8082 3.30704 37.8011 3.36714 37.7732L5.12117 36.9599C5.12117 36.9599 4.82588 39.7105 6.00437 41.5449C6.66869 41.0759 7.26333 40.5147 7.7705 39.8779L7.77176 39.9119L8.07099 39.4155V25.9058Z" fill="#595975"/>
<path id="Vector_11" d="M7.80664 40.8434L7.86739 42.4366C7.86739 42.4366 7.86739 43.7677 9.57712 44.3833C9.81729 44.4686 10.0681 44.5201 10.3224 44.5362C11.6665 43.2514 11.5428 40.099 11.5428 40.099V38.1177L11.636 38.0641C11.8536 37.9391 12.0344 37.7586 12.1602 37.5409C12.2859 37.3231 12.3522 37.0759 12.3522 36.8242V35.7795L10.6639 35.9084L7.80664 40.8434Z" fill="#595975"/>
<path id="Vector_12" d="M17.7035 15.9197H13.4395V17.3999C13.4395 17.3999 14.1674 18.221 15.7827 18.221C15.7827 18.221 16.9506 18.1395 17.7035 17.5902V15.9197Z" fill="#F99C9C"/>
<path id="Vector_13" d="M6.18776 22.3654C6.07743 22.5021 6.01498 22.6714 6.01008 22.8473C6.00517 23.0232 6.05808 23.1957 6.16063 23.3384C6.59231 23.9558 7.28456 25.1802 7.28456 26.6827V30.9039C7.28456 30.9039 7.95445 32.5924 9.4946 32.0025V26.6823C9.4946 26.6823 9.37832 23.5996 7.96387 21.8582C7.83383 21.7011 7.64894 21.5999 7.44702 21.5752C7.2451 21.5505 7.04141 21.6042 6.87762 21.7253C6.62272 21.9099 6.39107 22.1248 6.18776 22.3654Z" fill="#E0898D"/>
<path id="Vector_14" d="M21.0792 20.6877C20.3927 22.8195 18.4544 28.1935 15.5169 31.2252C12.894 28.5165 10.8527 23.7171 9.97058 20.7085L9.09961 21.2308C10.005 24.2029 12.1369 29.4036 15.1795 32.2785C15.2708 32.3648 15.3915 32.4129 15.517 32.4129C15.6424 32.4129 15.7632 32.3648 15.8545 32.2785C19.0385 29.2696 21.14 23.6558 21.9393 21.2269L21.0792 20.6877Z" fill="white"/>
<path id="Vector_15" d="M11.7122 13.7224C11.7122 13.7224 10.4995 14.0824 9.85382 13.1341C9.67878 12.867 9.58789 12.5531 9.59298 12.2334V9.83667H11.7122V13.7224Z" fill="#F99C9C"/>
<path id="Vector_16" d="M19.8662 13.7224C19.8662 13.7224 21.0789 14.0824 21.7246 13.1341C21.8996 12.867 21.9904 12.5531 21.9853 12.2334V9.83667H19.8662V13.7224Z" fill="#F99C9C"/>
<path id="Vector_17" d="M11.4838 10.5888H10.4309C10.1292 10.589 9.83072 10.5277 9.55342 10.4085C9.27613 10.2894 9.02585 10.1149 8.81776 9.89564C8.60968 9.67641 8.44813 9.41702 8.34293 9.13321C8.23773 8.84939 8.19107 8.54708 8.20577 8.24461C8.31362 6.08263 9.29441 2.99694 13.663 1.55355C13.663 1.55355 17.0216 0.45082 18.219 2.62127C18.219 2.62127 23.7007 2.62127 22.8514 8.28004C22.0021 13.9388 15.7828 10.1787 15.7828 10.1787C15.7828 10.1787 14.2459 12.3941 11.4838 10.5888Z" fill="#FFC676"/>
<path id="Vector_18" d="M17.2777 4.77173C17.2777 4.77173 17.142 10.0829 11.7797 10.7328L11.4844 11.5092V12.8323C11.4844 13.9771 11.9373 15.0749 12.7435 15.8843C13.5497 16.6938 14.6432 17.1485 15.7834 17.1485C16.9236 17.1485 18.017 16.6938 18.8233 15.8843C19.6295 15.0749 20.0824 13.9771 20.0824 12.8323V9.62975C20.0824 9.62975 20.0204 6.78321 17.2777 4.77173Z" fill="#FFD4CA"/>
<path id="Vector_19" d="M15.729 15.5366C14.7133 15.5366 14.2088 15.0923 13.9986 14.8273C13.9572 14.7767 13.9262 14.7183 13.9075 14.6556C13.8887 14.5928 13.8826 14.527 13.8894 14.4618C13.8963 14.3967 13.9159 14.3336 13.9473 14.2761C13.9787 14.2187 14.0211 14.1681 14.0721 14.1273C14.1231 14.0865 14.1817 14.0562 14.2444 14.0383C14.3072 14.0204 14.3729 14.0152 14.4376 14.0231C14.5024 14.0309 14.565 14.0516 14.6217 14.0839C14.6785 14.1162 14.7282 14.1595 14.7682 14.2113C14.8681 14.3371 15.1259 14.5483 15.729 14.5483C16.3617 14.5483 16.6936 14.3109 16.8353 14.1693C16.9282 14.0783 17.053 14.0278 17.1827 14.0288C17.3124 14.0297 17.4365 14.0821 17.5279 14.1744C17.6194 14.2667 17.6709 14.3915 17.6712 14.5217C17.6715 14.652 17.6206 14.777 17.5295 14.8698C17.2251 15.174 16.6656 15.5366 15.729 15.5366Z" fill="#F99C9C"/>
<path id="Vector_20" d="M14.4687 12.607C14.3382 12.607 14.213 12.5549 14.1207 12.4622C14.0284 12.3696 13.9766 12.2439 13.9766 12.1129V11.654C13.9766 11.523 14.0284 11.3973 14.1207 11.3046C14.213 11.212 14.3382 11.1599 14.4687 11.1599C14.5992 11.1599 14.7244 11.212 14.8167 11.3046C14.909 11.3973 14.9609 11.523 14.9609 11.654V12.1129C14.9609 12.2439 14.909 12.3696 14.8167 12.4622C14.7244 12.5549 14.5992 12.607 14.4687 12.607Z" fill="#F99C9C"/>
<path id="Vector_21" d="M17.1103 12.607C16.9798 12.607 16.8546 12.5549 16.7623 12.4622C16.67 12.3696 16.6182 12.2439 16.6182 12.1129V11.654C16.6182 11.523 16.67 11.3973 16.7623 11.3046C16.8546 11.212 16.9798 11.1599 17.1103 11.1599C17.2408 11.1599 17.366 11.212 17.4583 11.3046C17.5506 11.3973 17.6025 11.523 17.6025 11.654V12.1129C17.6025 12.2439 17.5506 12.3696 17.4583 12.4622C17.366 12.5549 17.2408 12.607 17.1103 12.607Z" fill="#F99C9C"/>
<path id="Vector_22" d="M11.4834 10.5889V11.7094C17.9922 11.058 17.2767 4.77197 17.2767 4.77197C17.2767 4.77197 16.8457 9.93875 11.4834 10.5889Z" fill="#F99C9C"/>
<path id="Vector_23" d="M30.9671 40.0565C30.1368 40.6056 29.1702 40.9783 28.1909 40.7783C26.2676 40.3855 25.8567 38.7359 25.7767 37.8579C25.6667 38.0679 25.5336 38.2649 25.3801 38.4452C24.6162 39.3382 23.7653 40.1522 22.8398 40.8749L24.8111 45.7172C26.7638 44.6845 28.5041 43.29 29.9401 41.6074C30.3456 41.1355 30.6906 40.6145 30.9671 40.0565Z" fill="#595975"/>
<path id="Vector_24" d="M19.1201 41.774V44.5439H20.6929C20.9929 44.5439 21.2903 44.4888 21.5705 44.3811L21.8149 40.0281H20.8587C20.6303 40.0281 20.4042 40.0733 20.1933 40.161C19.9823 40.2488 19.7907 40.3774 19.6292 40.5395C19.4678 40.7016 19.3397 40.8941 19.2524 41.1059C19.165 41.3177 19.1201 41.5448 19.1201 41.774Z" fill="#595975"/>
<path id="Vector_25" d="M23.7228 46.7293H21.8655C21.7011 46.7294 21.5382 46.697 21.3863 46.6339C21.2344 46.5708 21.0964 46.4782 20.9801 46.3615C20.8638 46.2449 20.7715 46.1063 20.7086 45.9538C20.6457 45.8013 20.6133 45.6379 20.6133 45.4728V41.235C20.6133 40.9149 20.74 40.6079 20.9655 40.3816C21.1909 40.1552 21.4967 40.0281 21.8155 40.0281H23.7228C24.1325 40.0281 24.5255 40.1915 24.8152 40.4823C25.1049 40.7732 25.2676 41.1677 25.2676 41.579V45.179C25.2674 45.5903 25.1046 45.9846 24.8149 46.2753C24.5252 46.566 24.1324 46.7293 23.7228 46.7293Z" fill="#FFD4CA"/>
<path id="Vector_26" d="M9.49422 32.0022C8.20057 31.9439 7.55824 31.2998 7.28418 30.9036V34.8068H9.49422V32.0022Z" fill="#B45F6D"/>
<path id="Vector_27" d="M9.96094 34.1697H11.1763C11.3307 34.1697 11.4837 34.2002 11.6264 34.2596C11.7691 34.3189 11.8988 34.4059 12.008 34.5156C12.1172 34.6252 12.2039 34.7554 12.263 34.8987C12.3221 35.042 12.3525 35.1955 12.3525 35.3506V35.7791C12.3525 35.9342 12.3221 36.0877 12.263 36.231C12.2039 36.3743 12.1172 36.5044 12.008 36.6141C11.8988 36.7237 11.7691 36.8107 11.6264 36.87C11.4837 36.9294 11.3307 36.9599 11.1763 36.9599H9.96094V34.1697Z" fill="#F99C9C"/>
<path id="Vector_28" d="M7.55498 40.099H9.41236C9.57684 40.0991 9.73972 40.0666 9.89169 40.0035C10.0437 39.9403 10.1817 39.8477 10.298 39.7309C10.4143 39.6142 10.5066 39.4755 10.5695 39.3229C10.6323 39.1704 10.6646 39.0068 10.6645 38.8417V34.6043C10.6645 34.2841 10.5379 33.9771 10.3124 33.7508C10.0869 33.5244 9.78114 33.3972 9.46228 33.3972H7.55498C7.35208 33.3972 7.15115 33.4373 6.96367 33.5152C6.7762 33.5931 6.60586 33.7074 6.46237 33.8514C6.31888 33.9955 6.20505 34.1665 6.12739 34.3547C6.04974 34.5429 6.00977 34.7446 6.00977 34.9483V38.5483C6.00988 38.9597 6.17274 39.3541 6.46252 39.6449C6.7523 39.9358 7.14526 40.0991 7.55498 40.099Z" fill="#FFD4CA"/>
<path id="Vector_29" d="M1.13251 42.4862C1.23797 42.5712 1.34992 42.6477 1.46732 42.7152C1.38813 43.2733 1.34282 43.8357 1.33162 44.3994C1.32302 44.767 1.3877 45.1327 1.52185 45.4749C1.656 45.817 1.85692 46.1289 2.11281 46.392C2.3687 46.6551 2.67438 46.8642 3.0119 47.007C3.34943 47.1498 3.71198 47.2235 4.07825 47.2236H23.7221C24.1518 47.223 24.5703 47.0862 24.9179 46.8326C25.2655 46.5791 25.5245 46.2219 25.658 45.8119C27.4162 44.7906 28.9898 43.4782 30.3123 41.9304C31.2723 40.8159 31.9066 39.4567 32.1453 38.0029C32.3839 36.5492 32.2176 35.0575 31.6646 33.6927C29.9164 29.3333 27.9899 26.2698 26.6818 24.4674C25.9318 23.4334 24.9902 22.5543 23.9085 21.8785C21.8504 20.8784 19.9303 19.6143 18.1963 18.118V16.9855C19.2225 16.3822 19.99 15.419 20.3509 14.2814C20.3664 14.2814 20.381 14.2824 20.3969 14.2824C20.7355 14.2951 21.0718 14.2221 21.3749 14.07C21.678 13.9178 21.938 13.6915 22.1309 13.4119C22.3625 13.0629 22.4834 12.6516 22.4776 12.2323V10.615C22.8734 10.0904 23.1861 9.36122 23.3373 8.3535C23.6158 6.49788 23.2822 5.0031 22.3457 3.91054C21.1132 2.47266 19.2166 2.19383 18.5011 2.1399C17.03 -0.0402841 13.6576 1.03534 13.509 1.08405C8.69717 2.67383 7.81298 6.23699 7.71399 8.21981C7.69432 8.58887 7.75032 8.95806 7.87851 9.30451C8.0067 9.65097 8.20436 9.96731 8.45925 10.234C8.64716 10.4327 8.86367 10.6021 9.10158 10.7364V12.2329C9.09585 12.6519 9.21648 13.0629 9.44763 13.4119C9.63984 13.6902 9.89844 13.9158 10.1998 14.068C10.5012 14.2202 10.8358 14.2942 11.173 14.2832C11.187 14.2832 11.2011 14.2819 11.2143 14.2816C11.5226 15.2532 12.1292 16.1019 12.9473 16.7062V18.118C11.4604 19.3833 9.81458 20.4474 8.05203 21.283C7.83215 21.1402 7.57418 21.0679 7.3124 21.0758C7.05063 21.0837 6.79746 21.1715 6.58654 21.3273C6.29952 21.535 6.03881 21.7771 5.81021 22.0482C5.65881 22.2327 5.56161 22.4559 5.5295 22.6928C5.49739 22.9297 5.53163 23.1709 5.62839 23.3894C5.03023 24.1316 4.55284 24.9643 4.21395 25.8564C3.06091 28.8906 1.44299 33.5003 0.287136 38.2297C-0.181533 40.1472 0.11868 41.6589 1.13251 42.4862ZM8.01209 46.2358H4.07825C3.84314 46.2357 3.61043 46.1883 3.3938 46.0966C3.17716 46.0049 2.98097 45.8706 2.81676 45.7017C2.65255 45.5328 2.52363 45.3326 2.43757 45.1129C2.35152 44.8932 2.31006 44.6585 2.31565 44.4225C2.32504 43.9635 2.3579 43.5052 2.41408 43.0495C2.59655 43.0792 2.78112 43.0942 2.96599 43.0941C3.7007 43.0941 4.53244 42.8795 5.42464 42.4506C6.12784 42.1068 6.76973 41.6489 7.32449 41.0953L7.37623 42.4523C7.41483 43.0067 7.63913 43.5317 8.01266 43.9418L8.01209 46.2358ZM6.50189 38.548V34.948C6.50237 34.6679 6.61345 34.3993 6.81078 34.2012C7.00811 34.0031 7.27561 33.8915 7.55467 33.8911H9.46197C9.65025 33.8912 9.83076 33.9664 9.96389 34.1001C10.097 34.2337 10.1719 34.415 10.1721 34.604V38.8416C10.1716 39.0437 10.0914 39.2375 9.94894 39.3804C9.80648 39.5233 9.61343 39.6036 9.41206 39.6039H7.55496C7.27603 39.6035 7.00863 39.4922 6.81127 39.2943C6.61391 39.0964 6.50267 38.8281 6.50189 38.548ZM8.9964 46.2358V44.6728C9.13134 44.7389 9.26977 44.7974 9.41107 44.8483C9.76557 44.9752 10.1393 45.0394 10.5156 45.0384H20.1207V45.473C20.1211 45.7373 20.1815 45.9981 20.2975 46.2354L8.9964 46.2358ZM24.7751 45.179C24.7748 45.4592 24.6638 45.7278 24.4664 45.9259C24.2691 46.1241 24.0015 46.2355 23.7224 46.2358H21.865C21.6637 46.2355 21.4706 46.1552 21.3282 46.0123C21.1857 45.8694 21.1055 45.6756 21.105 45.4735V41.2352C21.1052 41.0462 21.1801 40.865 21.3133 40.7314C21.4464 40.5977 21.6269 40.5226 21.8151 40.5224H23.7224C24.0015 40.5227 24.2691 40.6341 24.4664 40.8323C24.6638 41.0304 24.7748 41.299 24.7751 41.5793V45.179ZM23.4543 32.4409C24.1068 33.2139 24.7025 34.0335 25.2367 34.8931C25.545 35.3864 25.6888 35.9653 25.6473 36.5462C25.6059 37.127 25.3814 37.6794 25.0062 38.1235C24.5884 38.6094 24.1443 39.0719 23.6759 39.5088L23.4543 32.4409ZM19.2123 20.0738C19.0465 20.8534 18.8279 21.6208 18.5581 22.3705L16.2978 20.7375L17.7789 19.0349L19.2123 20.0738ZM18.1943 23.3253C17.9685 23.8806 17.7154 24.444 17.435 25.0157L17.2145 22.6168L18.1943 23.3253ZM15.5714 21.4307L16.1552 21.8527L16.5926 26.6119C16.1935 27.3177 15.8306 27.8966 15.5714 28.2938C15.3124 27.8968 14.9493 27.3176 14.5503 26.6119L14.9876 21.8527L15.5714 21.4307ZM13.9316 18.1856V17.2688C14.9725 17.7066 16.1339 17.7616 17.2113 17.4241V18.1852L15.5714 20.0703L13.9316 18.1856ZM21.4933 12.2333C21.4985 12.4533 21.4375 12.6698 21.3183 12.8545C21.2313 12.98 21.1172 13.0841 20.9845 13.1591C20.8517 13.2341 20.7038 13.2779 20.5518 13.2875C20.5659 13.1374 20.5739 12.9856 20.5739 12.832V11.8104C20.8952 11.7444 21.2051 11.631 21.4934 11.4741L21.4933 12.2333ZM10.2602 12.8545C10.141 12.6698 10.0801 12.4533 10.0853 12.2333V11.0592C10.1991 11.0733 10.9914 11.0832 10.9914 11.0832V12.8322C10.9914 12.9856 10.9995 13.1373 11.0135 13.2872C10.8636 13.2767 10.718 13.2323 10.5876 13.1574C10.4572 13.0825 10.3453 12.9789 10.2602 12.8545ZM10.4307 10.0948C10.1957 10.095 9.96315 10.0472 9.74713 9.95445C9.53111 9.86167 9.33611 9.72578 9.174 9.55502C9.01188 9.38427 8.88602 9.18222 8.80405 8.96114C8.72208 8.74006 8.68572 8.50456 8.69717 8.26894C8.80249 6.15637 9.77611 3.35755 13.8155 2.02315C13.8452 2.01341 16.8039 1.07572 17.7879 2.86033C17.8306 2.93715 17.8929 3.00117 17.9684 3.04583C18.0439 3.09049 18.1299 3.11417 18.2175 3.11445C18.2392 3.11445 20.3924 3.13972 21.6042 4.55939C22.342 5.42367 22.5976 6.65035 22.3642 8.20541C22.148 9.64682 21.5599 10.497 20.5741 10.7905V9.61873C20.5712 9.49266 20.4738 6.50367 17.5679 4.37289C17.4974 4.32118 17.4144 4.28923 17.3276 4.28031C17.2407 4.27139 17.1531 4.28583 17.0736 4.32214C16.9942 4.35845 16.9258 4.41533 16.8754 4.48694C16.8251 4.55855 16.7946 4.64232 16.7872 4.72965C16.7701 4.92405 16.3132 9.49012 11.4487 10.0944L10.4307 10.0948ZM11.9757 12.832V11.0162C15.9404 10.3345 17.2132 7.21859 17.604 5.67976C19.5038 7.4391 19.5867 9.54405 19.5896 9.63002V12.8322C19.5835 13.8419 19.1797 14.8081 18.4664 15.5199C17.7532 16.2317 16.7884 16.6312 15.7827 16.6312C14.777 16.6312 13.8122 16.2317 13.0989 15.5199C12.3856 14.8081 11.9819 13.8417 11.9757 12.832ZM13.3639 19.0348L14.845 20.7374L12.5847 22.3711C12.3149 21.6213 12.0963 20.854 11.9305 20.0744L13.3639 19.0348ZM13.9287 22.6173L13.7084 25.0166C13.4284 24.4459 13.1753 23.8824 12.9491 23.3261L13.9287 22.6173ZM9.83685 21.3639L11.048 20.6377C11.2644 21.5505 11.5448 22.4469 11.8872 23.32C11.8883 23.3234 11.8886 23.3268 11.89 23.3302C12.381 24.5796 12.958 25.7932 13.6167 26.9623C13.6181 26.9645 13.6197 26.9665 13.6211 26.9688C14.0952 27.8264 14.613 28.6588 15.1726 29.4628C15.2182 29.5262 15.2782 29.5779 15.3476 29.6136C15.417 29.6492 15.4938 29.6678 15.5718 29.6678C15.6497 29.6678 15.7265 29.6492 15.7959 29.6136C15.8653 29.5779 15.9253 29.5262 15.9709 29.4628C16.5304 28.6588 17.0482 27.8263 17.5223 26.9688C17.5237 26.9665 17.5254 26.9645 17.5267 26.9623C18.1854 25.7932 18.7624 24.5796 19.2534 23.3302C19.2548 23.3268 19.2551 23.3234 19.2564 23.32C19.5968 22.4514 19.8761 21.5598 20.0922 20.6518L21.1926 21.3415L23.3862 22.7165C24.3611 23.3254 25.2098 24.1175 25.8856 25.0493C27.161 26.8065 29.0403 29.7965 30.7509 34.0617C31.236 35.2583 31.3821 36.5662 31.1731 37.8409C30.9641 39.1155 30.4081 40.3074 29.5665 41.2846C28.4668 42.5711 27.1839 43.6875 25.7594 44.5977V41.5793C25.759 41.2257 25.6673 40.8783 25.4933 40.571C25.3192 40.2637 25.0687 40.007 24.7662 39.826C25.1142 39.4797 25.4457 39.1257 25.7526 38.7672C26.2709 38.1654 26.5816 37.4116 26.6384 36.6181C26.6952 35.8247 26.4951 35.034 26.0679 34.364C25.1578 32.9223 24.2632 31.7758 23.4073 30.9529L23.3203 28.173C23.3182 28.1081 23.3035 28.0442 23.2769 27.9851C23.2503 27.9259 23.2123 27.8726 23.1652 27.8281C23.118 27.7837 23.0627 27.749 23.0022 27.7261C22.9417 27.7031 22.8773 27.6924 22.8126 27.6944C22.748 27.6964 22.6844 27.7112 22.6255 27.738C22.5666 27.7647 22.5134 27.8028 22.4692 27.8501C22.4249 27.8974 22.3904 27.953 22.3675 28.0138C22.3447 28.0745 22.3339 28.1392 22.336 28.204L22.691 39.534H21.8143C21.3651 39.5345 20.9344 39.7139 20.6167 40.0328C20.2991 40.3517 20.1204 40.784 20.1199 41.2351V44.05H10.5156C10.2526 44.051 9.99137 44.0064 9.74348 43.9181C8.40455 43.436 8.36096 42.4704 8.35969 42.4358C8.35969 42.4294 8.35969 42.4232 8.35969 42.4168L8.28939 40.5923H9.41163C9.87398 40.5918 10.3172 40.4072 10.6442 40.079C10.9712 39.7508 11.1553 39.3059 11.156 38.8417V37.4542H11.1758C11.6181 37.4537 12.0422 37.2771 12.3549 36.9631C12.6677 36.6491 12.8437 36.2234 12.8442 35.7793V35.3507C12.8437 34.9066 12.6677 34.4808 12.3549 34.1668C12.0422 33.8528 11.6181 33.6761 11.1758 33.6756H10.8795C10.6682 33.3511 10.3531 33.1084 9.98619 32.9875V26.6824C9.98619 26.6762 9.98619 26.67 9.98619 26.6638C9.98155 26.5425 9.86765 23.9085 8.69956 22.0452L9.83685 21.3639ZM11.1564 36.466V34.664H11.1762C11.3576 34.6642 11.5315 34.7366 11.6597 34.8654C11.788 34.9941 11.8601 35.1687 11.8603 35.3508V35.7793C11.8601 35.9614 11.7879 36.1359 11.6597 36.2647C11.5314 36.3934 11.3576 36.4658 11.1762 36.466H11.1564ZM6.56489 22.6828C6.74264 22.4727 6.94526 22.2853 7.16826 22.1246C7.23036 22.0784 7.30755 22.0575 7.38434 22.0661C7.46112 22.0748 7.53182 22.1122 7.58223 22.171C8.84074 23.7203 8.99429 26.5249 9.00244 26.6937V32.9031H7.7767V26.6824C7.7767 25.0358 7.01654 23.7025 6.56348 23.0542C6.52316 23.0007 6.50147 22.9354 6.50172 22.8683C6.50198 22.8012 6.52417 22.736 6.56489 22.6828ZM1.24304 38.4652C2.38694 33.785 3.99009 29.2168 5.13357 26.2088C5.39178 25.5292 5.74033 24.8878 6.16976 24.3019C6.56469 25.0337 6.77821 25.8503 6.79226 26.6824V33.0528C6.52538 33.1618 6.28447 33.3262 6.0853 33.5353C5.88613 33.7443 5.73321 33.9932 5.63655 34.2657L3.16173 36.3707C3.11189 36.4123 3.07081 36.4634 3.0409 36.5211C3.01098 36.5789 2.99283 36.642 2.9875 36.7068C2.98217 36.7717 2.98978 36.8369 3.00986 36.8988C3.02995 36.9607 3.06212 37.0179 3.1045 37.0671C3.31542 37.3046 3.70562 37.2033 3.79815 37.1247L5.51759 35.6627V38.548C5.51818 38.9282 5.62426 39.3006 5.82393 39.6236C6.0236 39.9466 6.30896 40.2073 6.64799 40.3766C6.16702 40.8593 5.60984 41.2589 4.999 41.5591C3.6228 42.2208 2.43981 42.2791 1.75333 41.719C1.0615 41.1547 0.87575 39.9687 1.24304 38.4652Z" fill="#3C3C4F"/>
<g id="Layer 5">
<path id="Vector_30" d="M36.0821 33.3348L40.5664 30.2498C40.5664 30.2498 43.7876 31.8182 43.7876 36.2393C43.7876 40.6605 39.3335 40.6605 39.3335 40.6605C37.9308 38.9054 36.7003 37.0184 35.659 35.0258C35.5123 34.7405 35.4744 34.4113 35.5523 34.1C35.6302 33.7886 35.8186 33.5165 36.0821 33.3348Z" fill="#FCACD8"/>
<path id="Vector_31" d="M40.566 30.2497C40.4392 31.8937 40.9121 33.5279 41.8967 34.8476C42.1542 35.2037 42.3091 35.624 42.3444 36.0625C42.4492 37.3476 42.2431 39.8193 39.334 40.6601C40.4913 42.1392 41.7543 43.5317 43.1131 44.8266L46.5606 41.9101L43.5991 28.1628L40.566 30.2497Z" fill="#EA7DAA"/>
<path id="Vector_32" d="M59.4231 27.094C59.4231 27.094 62.3487 28.8656 63.3077 34.4611C63.484 35.5059 63.9236 36.4881 64.5846 37.3142C65.1869 38.0698 65.6494 38.9277 65.9501 39.8471C64.845 42.326 60.3991 42.073 55.6592 41.5787L59.4231 27.094Z" fill="#81A2EA"/>
<path id="Vector_33" d="M66.4219 42.3722C66.3766 41.5133 66.2175 40.6643 65.9488 39.8477C61.2044 41.0498 58.3233 38.7646 56.8607 36.9546L55.6592 41.5791L56.8121 46.5887H62.411C62.9544 46.5909 63.4926 46.4818 63.9927 46.2683C64.4928 46.0547 64.9443 45.741 65.3196 45.3464C65.6949 44.9519 65.9863 44.4846 66.1758 43.9733C66.3653 43.4619 66.449 42.9171 66.4219 42.3722Z" fill="#81A2EA"/>
<path id="Vector_34" d="M40.0145 41.9569L41.008 41.2455C41.3726 40.9843 41.8192 40.8649 42.2649 40.9096C42.7106 40.9542 43.125 41.1597 43.4311 41.4881L44.8966 43.0595C45.0714 43.2459 45.2057 43.4668 45.2912 43.708C45.3767 43.9493 45.4114 44.2057 45.3932 44.4611C45.3749 44.7165 45.3041 44.9653 45.1853 45.1918C45.0664 45.4184 44.9021 45.6177 44.7026 45.7773C44.5336 45.9113 44.3578 46.0367 44.1761 46.1528C43.9323 46.3059 43.6505 46.3872 43.363 46.3874C43.0754 46.3875 42.7936 46.3065 42.5496 46.1536C41.4889 45.4904 40.5512 44.6471 39.7782 43.6613C39.6786 43.5353 39.6054 43.3903 39.5632 43.2351C39.5211 43.0799 39.5107 42.9177 39.5328 42.7583C39.5549 42.5989 39.609 42.4457 39.6918 42.308C39.7746 42.1702 39.8844 42.0508 40.0145 41.9569Z" fill="#FFD1C0"/>
<path id="Vector_35" d="M45.2432 44.3265V46.5888H56.8119L56.7738 44.3265C52.9367 44.0116 49.0803 44.0116 45.2432 44.3265Z" fill="#464659"/>
<path id="Vector_36" d="M45.4448 14.8564C45.4448 14.8564 46.4696 16.4487 43.8523 18.6147C43.8523 18.6147 41.1816 20.7249 41.1816 23.8695C41.1816 27.3842 45.1131 27.5233 45.1131 27.5233L48.5297 21.1899V16.3181L45.4448 14.8564Z" fill="#595975"/>
<path id="Vector_37" d="M44.6891 12.6137C44.6891 12.6137 42.1479 12.4195 41.9406 9.36345C41.9406 9.36345 41.3495 4.02272 45.9601 3.72592C45.9601 3.72592 46.9353 1.85672 49.8316 1.85672C49.8316 1.85672 56.0967 1.45746 57.1606 7.23523C57.4448 8.75024 57.5785 10.2899 57.5597 11.8314C57.5424 13.1697 57.9453 14.4796 58.7112 15.5751C60.4615 18.0951 62.8732 22.9655 58.3137 26.1869H50.8051L50.2153 16.7812L44.6891 12.6137Z" fill="#595975"/>
<path id="Vector_38" d="M45.7529 23.4882C45.7529 23.4882 40.9993 28.5955 43.8329 33.7092C44.382 34.678 44.7098 35.7572 44.7925 36.8689C44.9033 38.5375 44.899 40.2119 44.7796 41.8799C44.7614 42.1339 44.6758 42.3784 44.5317 42.588C44.3839 42.7793 44.3012 43.0131 44.2958 43.2552C44.2903 43.4972 44.3624 43.7346 44.5013 43.9324C44.5832 44.0541 44.6936 44.1537 44.8229 44.2225C44.9521 44.2912 45.0963 44.3269 45.2425 44.3264H55.6228L59.2882 40.3026C59.2882 40.3026 62.115 39.7425 61.4734 35.679C61.4734 35.679 61.6117 27.5794 57.62 23.4875L54.2847 21.4812L45.7529 23.4882Z" fill="#797996"/>
<path id="Vector_39" d="M58.1861 39.5887L46.5618 35.1138L46.4477 36.324C46.4106 36.7155 46.4587 37.1104 46.5887 37.4814C46.7188 37.8523 46.9277 38.1904 47.2009 38.4722C49.6244 40.9287 52.4799 42.9136 55.623 44.3266H56.7734C56.9381 44.3294 57.1016 44.2989 57.2542 44.2368C57.4069 44.1748 57.5455 44.0825 57.6618 43.9655C57.9579 43.6557 58.1768 43.1176 57.7222 42.2453L58.3969 41.4086L58.1861 39.5887Z" fill="#595975"/>
<path id="Vector_40" d="M56.0495 22.241L50.0293 33.0286L57.0881 34.8267C57.1486 34.842 57.2125 34.8361 57.2692 34.8099C57.3259 34.7838 57.372 34.7391 57.4 34.6831C57.4279 34.6271 57.436 34.5632 57.4229 34.502C57.4098 34.4407 57.3763 34.3858 57.3279 34.3463C56.1599 33.4088 54.9076 32.5824 53.5872 31.8778C54.7327 28.503 57.1018 24.352 57.6196 23.4884C57.1523 23.006 56.6245 22.5867 56.0495 22.241Z" fill="#595975"/>
<path id="Vector_41" d="M51.9447 20.2087L53.5869 22.9721L49.6504 31.9806H48.446C47.5336 30.0072 46.7993 27.9557 46.252 25.8506L47.5182 20.8629L51.9447 20.2087Z" fill="#CBD5EA"/>
<path id="Vector_42" d="M48.0488 25.1707C47.9523 26.4523 47.8384 28.1552 47.7227 30.3081C48.0412 31.103 48.2954 31.6601 48.3971 31.8776L49.7696 31.7075L50.582 29.6457L50.3467 25.9872C49.7764 25.0632 48.9767 24.9032 48.0488 25.1707Z" fill="#FF6D8D"/>
<path id="Vector_43" d="M48.0488 25.1708C48.5538 25.1615 49.5504 25.251 50.3472 25.9874L50.098 22.114L48.3149 22.1329C48.3149 22.1329 48.2046 23.1061 48.0488 25.1708Z" fill="#E5486E"/>
<path id="Vector_44" d="M52.2543 26.0217L54.2845 21.3756L51.9448 20.2087L49.1279 22.7867L52.2543 26.0217Z" fill="white"/>
<path id="Vector_45" d="M45.7529 23.4882C45.8838 24.2946 46.057 25.0893 46.2518 25.8504L49.1274 22.7868L48.4414 20.7261L47.5178 20.8626L45.7529 23.4882Z" fill="white"/>
<path id="Vector_46" d="M49.2305 29.5122C50.5879 26.6733 52.1761 23.9515 53.9788 21.3744C54.1169 21.1772 54.3186 21.034 54.5498 20.9691C54.781 20.9041 55.0274 20.9214 55.2474 21.0181C55.5881 21.172 55.9049 21.3744 56.1881 21.6191C56.3771 21.7831 56.5012 22.0097 56.5378 22.2577C56.5745 22.5058 56.5212 22.7588 56.3876 22.9707C55.6698 24.1127 54.152 26.572 52.7103 29.1915C52.7108 29.191 50.5116 30.9643 49.2305 29.5122Z" fill="#A1D3FF"/>
<path id="Vector_47" d="M47.5186 19.0155V20.8628C47.5186 20.8628 47.9784 21.7477 49.1282 22.7866C49.1282 22.7866 50.4505 22.1132 51.9451 20.2087V18.1511L47.5186 19.0155Z" fill="#FFD1C0"/>
<path id="Vector_48" d="M52.9583 10.9351H53.6588C54.0304 10.9351 54.3867 11.0833 54.6494 11.3471C54.9121 11.6108 55.0597 11.9686 55.0598 12.3416V12.8854C55.0597 13.2584 54.9121 13.6161 54.6494 13.8799C54.3867 14.1436 54.0304 14.2918 53.6588 14.2918H52.5381L52.9583 10.9351Z" fill="#F99C9C"/>
<path id="Vector_49" d="M47.5186 19.0155C47.9139 19.0992 48.3168 19.1415 48.7208 19.1417C49.8707 19.1471 50.9951 18.8016 51.9451 18.1511V15.8413L47.5186 17.2072V19.0155Z" fill="#F99C9C"/>
<path id="Vector_50" d="M45.1125 10.9351H43.9918C43.6202 10.9351 43.2639 11.0833 43.0012 11.3471C42.7385 11.6108 42.5909 11.9686 42.5908 12.3416V12.8854C42.5909 13.2584 42.7385 13.6161 43.0012 13.8799C43.2639 14.1436 43.6202 14.2918 43.9918 14.2918H45.1125V10.9351Z" fill="#F99C9C"/>
<path id="Vector_51" d="M46.5028 5.92822C46.5028 5.92822 46.3379 10.8215 52.9583 11.2127V13.8072C52.9583 14.9355 52.5119 16.0176 51.7172 16.8155C50.9225 17.6133 49.8447 18.0616 48.7209 18.0616C47.5971 18.0616 46.5193 17.6133 45.7246 16.8155C44.9299 16.0176 44.4834 14.9355 44.4834 13.8072V11.4274C44.4834 11.4274 44.7281 7.83263 46.5028 5.92822Z" fill="#FFD1C0"/>
<path id="Vector_52" d="M47.2021 36.3824C47.2021 36.3824 52.9725 41.4196 59.159 44.0756C59.5027 44.2278 59.8892 44.2521 60.2492 44.1441C60.6092 44.036 60.919 43.8027 61.1231 43.486C61.131 43.4736 61.1387 43.461 61.1462 43.4483C61.2575 43.2574 61.3281 43.0455 61.3535 42.8258C61.3788 42.6061 61.3583 42.3835 61.2933 42.1722C61.2284 41.9609 61.1203 41.7655 60.976 41.5984C60.8318 41.4313 60.6544 41.2961 60.4553 41.2015C60.1051 41.0333 59.7666 40.5347 59.2891 40.302C56.8692 39.123 52.936 37.4955 49.7321 35.6841L47.2021 36.3824Z" fill="#81A2EA"/>
<path id="Vector_53" d="M52.3162 33.0286L60.0179 35.7532L59.2888 40.3026L50.2871 37.3465L52.3162 33.0286Z" fill="#797996"/>
<path id="Vector_54" d="M47.5665 13.4969C47.3519 13.3915 47.1173 13.3334 46.8785 13.3266C46.7468 13.3393 46.6154 13.2989 46.5134 13.2143C46.4113 13.1298 46.3469 13.008 46.3343 12.8757C46.3217 12.7435 46.3619 12.6116 46.4462 12.5091C46.5304 12.4067 46.6517 12.342 46.7834 12.3293C47.2312 12.3007 47.6774 12.4052 48.0662 12.6299C48.123 12.6628 48.1727 12.7066 48.2125 12.7588C48.2524 12.811 48.2816 12.8706 48.2986 12.9341C48.3155 12.9977 48.3198 13.0639 48.3112 13.1291C48.3026 13.1943 48.2813 13.2572 48.2485 13.3142C48.1778 13.4243 48.0688 13.504 47.9427 13.5378C47.8166 13.5716 47.6825 13.557 47.5665 13.4969Z" fill="#F99C9C"/>
<path id="Vector_55" d="M49.403 13.3141C49.3684 13.2576 49.3457 13.1946 49.3361 13.129C49.3266 13.0634 49.3305 12.9965 49.3475 12.9325C49.3646 12.8684 49.3944 12.8085 49.4353 12.7564C49.4761 12.7043 49.5271 12.6611 49.5851 12.6294C49.974 12.4047 50.4202 12.3002 50.8679 12.3289C50.9996 12.3416 51.1209 12.4063 51.2051 12.5088C51.2892 12.6113 51.3294 12.7432 51.3168 12.8754C51.3041 13.0076 51.2396 13.1294 51.1375 13.2139C51.0355 13.2984 50.9041 13.3387 50.7724 13.326C50.532 13.3189 50.2942 13.3778 50.0847 13.4964C49.9668 13.5446 49.8364 13.5528 49.7134 13.5199C49.5904 13.487 49.4814 13.4148 49.403 13.3141Z" fill="#F99C9C"/>
<path id="Vector_56" d="M48.9013 16.4413C48.5351 16.4482 48.1714 16.3789 47.8331 16.2378C47.713 16.1838 47.619 16.0844 47.5716 15.9611C47.5242 15.8378 47.5272 15.7007 47.58 15.5796C47.6329 15.4586 47.7312 15.3634 47.8537 15.3149C47.9761 15.2663 48.1127 15.2683 48.2336 15.3204C48.4456 15.4058 48.6729 15.4464 48.9013 15.4396C49.1548 15.4445 49.4067 15.3988 49.6424 15.305C49.7644 15.2535 49.9018 15.2528 50.0243 15.303C50.1468 15.3533 50.2444 15.4503 50.2956 15.5728C50.3468 15.6952 50.3475 15.8331 50.2975 15.9561C50.2475 16.0791 50.1508 16.1771 50.0289 16.2285C49.6708 16.3738 49.2875 16.4461 48.9013 16.4413Z" fill="#F99C9C"/>
<path id="Vector_57" d="M52.958 12.1817V10.9351C46.7159 10.5218 46.5023 5.92822 46.5023 5.92822C46.5023 5.92822 45.6943 12.1297 52.958 12.1817Z" fill="#F99C9C"/>
<path id="Vector_58" d="M50.8056 32.9037C51.3615 31.7125 52.0279 30.4339 52.7117 29.1912C52.1861 29.4858 51.6049 29.6666 51.0055 29.722C50.406 29.7773 49.8017 29.7059 49.2314 29.5124C48.4406 31.1581 48.0254 32.2171 48.0254 32.2171L50.8056 32.9037Z" fill="#81A2EA"/>
<path id="Vector_59" d="M49.0903 31.6996L52.3156 33.0286C52.3156 33.0286 52.5151 36.0011 50.2865 37.3466L47.5902 36.5625C47.2809 36.4733 47.0109 36.2815 46.8241 36.0184C46.6373 35.7553 46.5448 35.4365 46.5615 35.1139C46.6078 34.1544 46.8542 33.2154 47.2847 32.3575C47.4494 32.0412 47.7261 31.7983 48.0603 31.6765C48.3945 31.5548 48.7619 31.563 49.0903 31.6996Z" fill="#FFD1C0"/>
<path id="Vector_60" d="M39.5377 41.7078C39.2678 41.966 39.0925 42.3079 39.0402 42.6785C39.0083 42.9062 39.0224 43.138 39.0817 43.3601C39.1411 43.5821 39.2444 43.7899 39.3856 43.971C40.1945 45.0031 41.1763 45.8859 42.287 46.5797C42.6114 46.7807 42.985 46.887 43.3661 46.8867C43.7472 46.8877 44.1207 46.7799 44.4431 46.5759C44.5439 46.5118 44.6444 46.4432 44.7441 46.3718V46.5888C44.7441 46.7216 44.7967 46.849 44.8903 46.9429C44.9838 47.0368 45.1107 47.0896 45.243 47.0896H62.4106C63.0282 47.0885 63.6392 46.9614 64.2064 46.7158C64.7736 46.4702 65.2851 46.1114 65.7098 45.6612C66.1279 45.2214 66.4512 44.6998 66.6594 44.1289C66.8677 43.5581 66.9563 42.9502 66.9199 42.3433C66.7698 39.7389 65.7781 37.9996 64.9726 36.9995C64.3652 36.2396 63.9611 35.3366 63.7988 34.376C63.1306 30.4766 61.5041 28.3513 60.5944 27.4315C60.5847 27.4217 60.5735 27.4146 60.5632 27.4057C60.3333 26.79 60.0634 26.19 59.7553 25.6098C63.049 22.1779 60.7816 17.6808 59.1195 15.2887C58.4116 14.2803 58.0398 13.0727 58.0576 11.8392C58.0765 10.2645 57.9401 8.69192 57.6505 7.14426C56.551 1.1693 50.2278 1.33859 49.82 1.3559C47.2838 1.35991 46.0735 2.68447 45.6735 3.24772C44.4073 3.38109 43.3972 3.89025 42.6677 4.76318C41.1841 6.53851 41.4205 9.18304 41.4436 9.40728C41.4775 10.2253 41.7434 11.0166 42.2102 11.6879C42.1329 11.8971 42.0932 12.1185 42.0927 12.3416V12.8854C42.0933 13.3911 42.2937 13.8759 42.6499 14.2334C43.006 14.591 43.4889 14.7921 43.9926 14.7927H44.0875C44.2271 15.4531 44.5058 16.0759 44.9049 16.6192C44.6469 17.147 44.189 17.6863 43.544 18.2204C43.427 18.3127 40.6829 20.5195 40.6829 23.8687C40.6829 25.8996 41.8433 26.9319 42.9029 27.4511C42.8231 27.6941 42.7537 27.9359 42.6948 28.1766L35.7997 32.9213C35.4366 33.1726 35.177 33.548 35.0694 33.9774C34.9619 34.4069 35.0138 34.8609 35.2154 35.2547C36.4194 37.5564 37.8687 39.7201 39.5377 41.7078ZM44.7441 44.9613C44.6581 45.1255 44.5386 45.2697 44.3934 45.3844C44.2377 45.5077 44.076 45.6231 43.9088 45.73C43.7438 45.8325 43.5537 45.8867 43.3597 45.8863C43.1657 45.8859 42.9757 45.831 42.8112 45.7279C41.8 45.096 40.9062 44.2922 40.1698 43.3523C40.1112 43.2783 40.0683 43.1929 40.0438 43.1015C40.0192 43.0101 40.0136 42.9147 40.0273 42.821C40.04 42.73 40.071 42.6426 40.1186 42.5641C40.1662 42.4856 40.2293 42.4178 40.3039 42.3647L41.2974 41.6534C41.5639 41.4638 41.8897 41.3773 42.2147 41.4098C42.5398 41.4423 42.8421 41.5917 43.0661 41.8305L43.8988 42.7231C43.8049 42.9672 43.7728 43.2309 43.8054 43.4904C43.8381 43.75 43.9344 43.9974 44.0858 44.2104C44.2452 44.4499 44.4752 44.6335 44.7436 44.7354L44.7441 44.9613ZM45.7419 46.0879V44.8275H56.2831L56.3044 46.088L45.7419 46.0879ZM56.7812 43.825H45.236C45.173 43.8248 45.1109 43.8092 45.0552 43.7795C44.9994 43.7498 44.9517 43.707 44.9162 43.6547C44.611 43.1955 44.9589 42.8226 45.0683 42.7224C45.1654 42.6377 45.2262 42.5185 45.2379 42.3898C45.4585 39.8552 45.4098 37.3042 45.0926 34.7799C45.08 34.6922 45.0443 34.6094 44.9892 34.5401C43.3154 32.4302 42.9841 30.0037 44.0047 27.3289C44.3758 26.3792 44.866 25.4809 45.4634 24.6557C45.5527 25.0865 45.6544 25.5253 45.7685 25.9723V25.9754C46.2478 27.807 46.8633 29.5998 47.6099 31.3389C47.2814 31.5195 47.0139 31.7942 46.8414 32.128C46.38 33.0491 46.115 34.0568 46.0633 35.0866C46.0447 35.4178 46.112 35.7481 46.2585 36.0453C46.4051 36.3426 46.626 36.5966 46.8995 36.7825C47.2812 37.1116 51.9071 41.0526 57.1904 43.7087C57.0675 43.785 56.9257 43.8252 56.7812 43.8249V43.825ZM50.2074 36.8021L47.7294 36.0815C47.5278 36.0245 47.3517 35.9003 47.2299 35.7293C47.1081 35.5584 47.048 35.3508 47.0594 35.141C47.1031 34.2522 47.3308 33.3823 47.7281 32.5867C47.8366 32.3829 48.0166 32.2267 48.2332 32.1484C48.4498 32.0701 48.6876 32.0753 48.9007 32.1629L51.8178 33.3649C51.7944 34.0714 51.5906 35.8375 50.2074 36.802V36.8021ZM57.1425 40.125L57.6957 40.3999C58.6823 40.8904 59.6142 41.3536 60.2392 41.6539C60.3777 41.7206 60.5008 41.8155 60.6007 41.9326C60.7006 42.0497 60.7752 42.1863 60.8198 42.3339C60.8636 42.4758 60.8772 42.6254 60.8596 42.7729C60.8421 42.9204 60.7937 43.0626 60.7177 43.1901L60.6993 43.2206C60.5577 43.4353 60.3449 43.5928 60.0987 43.665C59.8525 43.7373 59.5887 43.7196 59.3542 43.6151C55.5157 41.9668 51.8037 39.3604 49.5925 37.6662L50.1393 37.8252L57.1425 40.125ZM47.4603 28.1549C47.2349 27.4889 47.0097 26.7592 46.8053 25.9911L47.9429 24.7791C47.7908 25.6916 47.6242 26.8164 47.4607 28.1549H47.4603ZM49.1771 23.5571L49.7275 24.1267L49.9161 27.0541C49.2225 28.3576 48.6742 29.5012 48.2827 30.3598C48.2827 28.3169 48.9155 24.901 49.1775 23.5571H49.1771ZM49.1343 22.1029C48.7096 21.6905 48.3346 21.2294 48.017 20.7291V18.511C49.2221 18.6931 50.4507 18.4004 51.4458 17.6941V19.9889L49.1343 22.1029ZM49.28 31.2361C49.1956 31.2021 49.1089 31.1742 49.0206 31.1526C50.5057 27.8267 52.3021 24.6498 54.3854 21.6649C54.4563 21.5619 54.5605 21.4868 54.6803 21.4522C54.8001 21.4175 54.9282 21.4256 55.0427 21.475C55.3397 21.6089 55.6158 21.7852 55.8626 21.9983C55.9605 22.0842 56.0247 22.2023 56.0437 22.3315C56.0626 22.4606 56.035 22.5924 55.9659 22.7029C54.9639 24.2972 52.4952 28.3104 50.7586 31.8455L49.28 31.2361ZM51.4027 24.421L49.9145 22.8812C50.7221 22.2968 51.4501 21.6088 52.08 20.8349L53.3154 21.4511C52.6187 22.4552 51.9804 23.4565 51.4027 24.421ZM48.7207 17.5607C47.7295 17.5596 46.7792 17.1637 46.0784 16.46C45.3775 15.7563 44.9833 14.8023 44.9822 13.8071V11.4459C44.9994 11.2313 45.2139 8.8396 46.257 7.09403C46.7534 8.55725 48.2115 10.9578 52.4593 11.3957V13.8071C52.4582 14.8023 52.0639 15.7564 51.363 16.46C50.6622 17.1637 49.7119 17.5596 48.7207 17.5607ZM48.4236 22.8067L46.5214 24.8334C46.4277 24.4134 46.3465 24.0022 46.2779 23.6028L47.5144 21.7639C47.7916 22.1334 48.0955 22.482 48.4236 22.8067ZM62.8161 34.5458C63.0072 35.6749 63.4824 36.7362 64.1966 37.6291C64.9102 38.5151 65.789 40.0619 65.9237 42.401C65.9518 42.8716 65.8828 43.3429 65.7212 43.7856C65.5595 44.2282 65.3087 44.6326 64.9843 44.9734C64.653 45.3247 64.254 45.6046 63.8115 45.7962C63.3691 45.9878 62.8924 46.087 62.4106 46.0878H57.3022L57.2797 44.7549C57.5615 44.6754 57.8175 44.5226 58.0218 44.3121C58.0648 44.2667 58.1053 44.2189 58.1431 44.169C58.4153 44.2955 58.6884 44.4178 58.9624 44.5357C59.2245 44.6483 59.5067 44.7062 59.7918 44.7061C60.1411 44.7086 60.4854 44.6221 60.7924 44.4547C61.0993 44.2873 61.359 44.0444 61.5471 43.7489L61.574 43.7045C61.7204 43.457 61.8139 43.1816 61.8486 42.8958C61.8832 42.61 61.8583 42.3201 61.7753 42.0445C61.6906 41.7636 61.5487 41.5035 61.3584 41.2807C61.1682 41.0578 60.9338 40.8772 60.6702 40.7503C60.5119 40.6742 60.3327 40.587 60.138 40.4917C61.0591 39.9856 62.4416 38.7021 61.9733 35.6433C61.9651 33.814 61.7659 31.9907 61.3791 30.2031C62.0913 31.5621 62.5767 33.0291 62.8161 34.5458ZM57.307 34.5584C56.9972 32.0075 56.6269 30.6946 56.6112 30.6401C56.5735 30.5139 56.4878 30.4076 56.3726 30.3444C56.2575 30.2812 56.1221 30.2661 55.9959 30.3023C55.8698 30.3386 55.7629 30.4234 55.6985 30.5382C55.6342 30.6531 55.6175 30.7888 55.6521 30.9159C55.8977 31.8902 56.0844 32.8785 56.2111 33.8754L51.6835 32.2267C53.3587 28.8282 55.7119 24.988 56.7396 23.3489C61.0639 27.0266 60.9758 35.5817 60.9744 35.67C60.9739 35.6991 60.976 35.7282 60.9805 35.7569C61.471 38.8634 59.7643 39.6307 59.3019 39.7798L51.3329 37.1627C52.4362 36.0776 52.7279 34.6045 52.7985 33.73L56.6455 35.091C56.7254 35.1151 56.81 35.1193 56.8918 35.1033C56.9737 35.0873 57.0505 35.0515 57.1156 34.9991C57.1807 34.9467 57.2321 34.8792 57.2654 34.8025C57.2988 34.7257 57.313 34.6419 57.307 34.5584ZM43.9844 13.7912C43.7468 13.7889 43.5196 13.6925 43.3522 13.5231C43.1848 13.3536 43.0908 13.1247 43.0905 12.8861V12.3423C43.0908 12.1037 43.1848 11.8748 43.3522 11.7053C43.5196 11.5358 43.7467 11.4394 43.9844 11.437V13.7912ZM44.1037 10.4343C44.1037 10.4343 43.3225 10.4212 42.8429 10.8267C42.6 10.3636 42.4619 9.85242 42.4385 9.32958C42.4385 9.32242 42.4374 9.31527 42.4365 9.30811C42.434 9.28421 42.1861 6.89798 43.4321 5.40699C44.0276 4.6942 44.8888 4.2968 45.9919 4.22583C46.0765 4.21973 46.1583 4.19235 46.2296 4.14621C46.3009 4.10007 46.3596 4.03665 46.4001 3.9618C46.4356 3.8964 47.2988 2.35762 49.8314 2.35762C49.8414 2.35762 49.8524 2.35762 49.8624 2.35662C50.0998 2.34231 55.7007 2.06297 56.67 7.32629C56.9475 8.80884 57.0782 10.3153 57.0603 11.8237C57.039 13.2675 57.4735 14.681 58.3015 15.8616C59.7508 17.9484 61.7365 21.8074 59.2245 24.7082C58.6402 23.7882 57.9018 22.9765 57.0419 22.3091C57.029 22.1045 56.9756 21.9045 56.8849 21.7208C56.7942 21.537 56.668 21.3733 56.5137 21.239C56.1942 20.963 55.8367 20.7347 55.4522 20.5614C55.2201 20.4581 54.9659 20.4145 54.7127 20.4345C54.4596 20.4545 54.2153 20.5374 54.0021 20.6759L52.4438 19.8987L52.4113 16.7834C52.8767 16.2038 53.1996 15.5224 53.3539 14.7942H53.6586C54.1623 14.7937 54.6451 14.5925 55.0013 14.235C55.3575 13.8774 55.5578 13.3926 55.5584 12.887V12.3432C55.5584 10.3377 52.9786 10.4359 52.9786 10.4359C47.2965 10.052 47.0101 6.07342 47.0007 5.90356C46.9958 5.80538 46.9621 5.71083 46.904 5.63171C46.8459 5.55259 46.7659 5.49238 46.6739 5.4586C46.582 5.42482 46.4821 5.41896 46.3869 5.44174C46.2916 5.46453 46.2052 5.51495 46.1383 5.58673C44.8314 6.98842 44.306 9.18175 44.1037 10.4343ZM53.4571 13.7917V11.436C53.4571 11.436 54.5607 11.436 54.5607 12.3416V12.8854C54.5604 13.1255 54.4652 13.3557 54.2961 13.5254C54.127 13.6952 53.8977 13.7907 53.6586 13.7909L53.4571 13.7917ZM41.6807 23.8694C41.6807 21.0145 44.1368 19.0275 44.1697 19.0012C44.7375 18.5498 45.2267 18.0069 45.6174 17.3947C46.0322 17.7571 46.5067 18.0444 47.0195 18.2436V20.8349C47.0195 20.8349 44.2699 24.0025 43.2605 26.5103C42.2125 25.9665 41.6807 25.08 41.6807 23.8694ZM36.3642 33.7479L42.4665 29.5491C42.297 31.5341 42.8531 33.4024 44.1233 35.0535C44.3832 37.2525 44.4404 39.4709 44.2943 41.6805L43.7954 41.1459C43.406 40.7305 42.8801 40.4706 42.3147 40.414C41.7493 40.3574 41.1826 40.5079 40.7191 40.8379L40.3401 41.1098C38.7032 39.1666 37.2823 37.0499 36.1026 34.7972C36.0116 34.6204 35.9879 34.4163 36.036 34.2231C36.0841 34.03 36.2006 33.861 36.3638 33.7479H36.3642Z" fill="#3C3C4F"/>
</g>
</g>
<defs>
<clipPath id="clip0_19967_19114">
<rect width="67" height="48" fill="white"/>
</clipPath>
</defs>
</svg>
