<svg width="447" height="196" viewBox="0 0 447 196" fill="none" xmlns="http://www.w3.org/2000/svg">
<path d="M146.661 181.773C145.701 183.89 144.098 184.887 141.74 184.754C140.19 184.667 138.63 184.787 137.079 184.719C136.15 184.678 135.774 184.891 135.826 185.917C135.917 187.711 135.856 189.515 135.85 191.315C135.843 193.319 134.448 195.147 132.656 195.514C130.683 195.918 128.82 194.879 127.98 192.94C127.818 192.566 127.797 192.196 127.797 191.808C127.798 189.726 127.775 187.643 127.811 185.562C127.822 184.905 127.598 184.715 126.959 184.726C124.981 184.759 123.003 184.729 121.025 184.741C118.502 184.754 116.797 182.866 116.811 180.669C116.826 178.059 119.181 176.572 120.985 176.668C122.957 176.773 124.94 176.663 126.917 176.706C127.618 176.721 127.825 176.493 127.811 175.804C127.772 173.757 127.794 171.71 127.798 169.662C127.802 167.928 129.129 166.261 130.767 165.918C132.792 165.496 134.756 166.466 135.465 168.237C135.729 168.896 135.873 169.565 135.861 170.286C135.831 172.086 135.887 173.888 135.835 175.685C135.812 176.458 136.007 176.742 136.827 176.71C138.449 176.646 140.082 176.783 141.699 176.67C144.102 176.499 145.761 177.407 146.661 179.655V181.773Z" fill="#3CAB96"/>
<path d="M105.12 150C105.75 150.367 106.511 150.32 107.147 150.769C108.31 151.592 108.902 152.669 108.926 154.049C108.96 156.06 108.967 158.073 108.919 160.084C108.9 160.84 109.152 161.042 109.882 161.026C111.93 160.982 113.979 161.005 116.028 161.013C117.738 161.02 119.449 162.433 119.731 164.054C120.087 166.108 119.158 167.954 117.435 168.66C116.707 168.957 115.965 169.08 115.176 169.066C113.375 169.038 111.573 169.081 109.773 169.045C109.131 169.033 108.91 169.226 108.922 169.884C108.958 171.894 108.941 173.906 108.933 175.917C108.925 178.142 107.146 179.863 104.874 179.857C102.664 179.851 100.895 178.123 100.883 175.938C100.872 173.962 100.852 171.985 100.896 170.01C100.911 169.289 100.723 169.021 99.9578 169.041C98.0522 169.092 96.1438 169.062 94.2365 169.057C92.2611 169.05 90.3633 167.629 90.0825 165.96C89.7065 163.724 90.6247 162.046 92.6575 161.197C93.0313 161.041 93.4001 161.009 93.7892 161.009C95.8381 161.013 97.887 160.982 99.9349 161.026C100.667 161.042 100.918 160.837 100.897 160.083C100.847 158.213 100.964 156.337 100.858 154.473C100.75 152.568 102.118 150.292 104.443 150.176C104.53 150.172 104.612 150.061 104.696 150H105.12Z" fill="#3CAB96"/>
<path d="M322.188 123C324.308 123.845 325.845 125.152 325.77 127.667C325.74 128.687 325.408 129.612 324.646 130.345C322.397 132.513 320.328 134.868 317.857 136.889C319.7 139.233 321.794 141.328 323.938 143.366C325.381 144.737 325.858 146.408 325.394 148.222C324.941 149.997 323.546 150.946 321.756 151.294C320.624 151.514 319.524 151.321 318.718 150.558C315.01 147.054 311.512 143.34 308.051 139.594C307.519 139.018 307.341 138.113 307 137.36V136.532C307.411 134.782 308.617 133.596 309.86 132.419C312.216 130.188 314.577 127.96 316.872 125.665C317.962 124.575 319.065 123.552 320.532 123H322.188Z" fill="#3CAB96"/>
<path d="M346.201 146.346C342.813 142.73 339.441 139.097 335.964 135.569C334.317 133.898 331.401 134.05 329.82 135.666C328.156 137.366 328.139 139.796 329.667 141.689C331.491 143.951 333.656 145.878 335.693 147.929C336.307 148.545 336.292 148.874 335.673 149.443C333.68 151.278 331.74 153.169 329.777 155.035C328.804 155.962 328.232 157.155 328.312 158.434C328.425 160.263 329.413 161.71 331.161 162.402C332.925 163.102 334.521 162.68 335.904 161.348C339.112 158.26 342.353 155.209 345.562 152.122C346.472 151.247 346.96 150.143 347.069 148.842C346.958 147.965 346.841 147.03 346.201 146.346Z" fill="#3CAB96"/>
<path d="M52.3032 25.426C52.3625 21.1047 48.9767 17.5595 44.7258 17.3675C40.1384 17.1622 36.4416 20.8261 36.4104 25.246C36.3801 29.5125 39.7358 33.0525 43.9821 33.2471C48.5407 33.4551 52.2402 29.8365 52.3032 25.426ZM44.9075 41.1589H44.1222C43.881 41.1602 43.6419 41.1283 43.4023 41.1149C42.4638 41.0629 41.5389 40.9242 40.6264 40.7002C38.1447 40.0949 35.9385 38.951 34.0052 37.283C32.8011 36.2444 31.7777 35.0484 30.9324 33.7004C30.0709 32.3271 29.4351 30.8565 29.0267 29.2872C28.7366 28.1726 28.5751 27.0379 28.5324 25.886C28.4918 24.7847 28.5642 23.6913 28.7518 22.606C29.0699 20.7608 29.6991 19.0275 30.636 17.4062C31.5818 15.7702 32.7823 14.3462 34.2334 13.1369C35.6115 11.989 37.1401 11.0983 38.8202 10.4677C40.3576 9.89035 41.9482 9.56638 43.5873 9.48771C44.1643 9.45971 44.7435 9.46503 45.3216 9.49969C45.9377 9.53569 46.5492 9.60771 47.156 9.7157C48.6955 9.99303 50.1626 10.4863 51.5543 11.201C53.3121 12.105 54.8526 13.2916 56.1667 14.7689C58.0844 16.9248 59.329 19.4181 59.8967 22.2501C60.0801 23.162 60.1666 24.086 60.1869 25.0153V25.5726C60.1989 25.7126 60.1681 25.85 60.1671 25.9886C60.1639 26.366 60.1311 26.7393 60.0895 27.1126C59.9806 28.0899 59.7795 29.0472 59.4879 29.9845C58.7901 32.2298 57.6453 34.2204 56.0662 35.9604C55.1104 37.0137 54.0297 37.9217 52.8282 38.6843C51.3683 39.611 49.8002 40.2816 48.1205 40.6936C47.2002 40.9189 46.2669 41.0603 45.3206 41.1163C45.1831 41.1243 45.0419 41.1162 44.9075 41.1589Z" fill="#F03B28"/>
<path d="M421.216 109.944C423.335 110.789 424.872 112.094 424.798 114.609C424.767 115.629 424.436 116.554 423.675 117.288C421.424 119.456 419.356 121.812 416.886 123.833C418.727 126.177 420.823 128.27 422.967 130.309C424.408 131.681 424.886 133.35 424.422 135.165C423.968 136.939 422.574 137.888 420.783 138.236C419.652 138.456 418.552 138.263 417.746 137.502C414.038 133.998 410.539 130.282 407.079 126.537C406.546 125.961 406.369 125.055 406.027 124.303V123.474C406.439 121.726 407.645 120.54 408.889 119.361C411.245 117.13 413.604 114.902 415.899 112.609C416.991 111.518 418.092 110.494 419.559 109.944H421.216Z" fill="#294494"/>
<path d="M445.228 133.29C441.842 129.674 438.468 126.042 434.991 122.513C433.346 120.842 430.43 120.995 428.849 122.61C427.185 124.31 427.166 126.739 428.694 128.634C430.519 130.897 432.683 132.823 434.722 134.872C435.334 135.49 435.32 135.818 434.7 136.388C432.708 138.222 430.767 140.112 428.806 141.98C427.833 142.906 427.261 144.099 427.339 145.378C427.454 147.207 428.442 148.653 430.188 149.347C431.954 150.047 433.548 149.624 434.931 148.293C438.139 145.206 441.38 142.152 444.589 139.066C445.499 138.191 445.988 137.087 446.096 135.787C445.987 134.908 445.869 133.974 445.228 133.29Z" fill="#294494"/>
<path d="M390.87 31.3325C389.911 33.4484 388.307 34.4471 385.948 34.3137C384.399 34.2257 382.839 34.3471 381.288 34.2777C380.359 34.2364 379.983 34.451 380.035 35.4764C380.126 37.271 380.066 39.0736 380.059 40.8736C380.052 42.8788 378.658 44.7068 376.866 45.0734C374.893 45.4761 373.03 44.4388 372.189 42.4988C372.027 42.1242 372.006 41.7549 372.006 41.3682C372.007 39.2856 371.983 37.203 372.019 35.1217C372.031 34.4631 371.807 34.2737 371.169 34.2844C369.19 34.3191 367.213 34.2884 365.234 34.299C362.712 34.3137 361.006 32.4258 361.02 30.2285C361.036 27.6179 363.39 26.1299 365.193 26.2259C367.166 26.3326 369.149 26.2232 371.126 26.2646C371.827 26.2792 372.034 26.0526 372.021 25.3619C371.982 23.3166 372.003 21.2687 372.007 19.2221C372.011 17.4875 373.338 15.8195 374.977 15.4782C377.001 15.0542 378.964 16.0248 379.675 17.7955C379.939 18.4554 380.083 19.1234 380.07 19.8461C380.04 21.6447 380.096 23.446 380.043 25.2446C380.02 26.0166 380.216 26.3019 381.036 26.2699C382.659 26.2059 384.291 26.3432 385.908 26.2286C388.311 26.0592 389.971 26.9672 390.87 29.2152V31.3325Z" fill="#F177B5"/>
<path d="M204.622 142.45C206.954 141.327 207.654 138.302 205.945 136.358C203.224 133.263 200.212 130.446 197.426 127.413C196.466 126.368 195.296 125.924 193.867 125.997C192.037 126.092 190.401 127.913 190.287 129.658C190.197 131.031 190.76 132.114 191.652 133.045C194.407 135.919 197.186 138.77 199.966 141.619C200.744 142.415 201.666 142.918 202.774 142.803C203.452 142.804 204.025 142.738 204.622 142.45ZM223.719 142.455C225.812 141.503 226.951 138.458 225.054 136.327C224.58 135.795 224.099 135.27 223.607 134.755C221.271 132.31 218.914 129.883 216.597 127.42C214.985 125.708 212.706 125.697 211.338 126.533C209.823 127.457 208.863 129.566 209.725 131.493C210.143 132.426 210.834 133.087 211.509 133.786C214.009 136.375 216.513 138.959 219.019 141.542C219.813 142.358 220.717 142.94 221.788 142.808C222.546 142.795 223.115 142.73 223.719 142.455ZM225.663 123.061C226.387 121.358 226.002 119.898 224.776 118.597C223.807 117.568 222.835 116.538 221.856 115.517C220.051 113.633 218.247 111.751 216.431 109.88C214.814 108.215 212.285 108.096 210.677 109.639C209.045 111.204 208.89 113.635 210.585 115.402C213.422 118.36 216.265 121.312 219.119 124.252C219.882 125.038 220.787 125.546 221.792 125.384C223.732 125.385 225.028 124.552 225.663 123.061ZM202.748 125.384C201.614 125.497 200.678 124.973 199.858 124.12C197.144 121.3 194.407 118.501 191.693 115.678C190.817 114.767 190.199 113.727 190.292 112.379C190.395 110.879 191.113 109.752 192.403 109.051C193.779 108.303 195.18 108.384 196.514 109.239C197.656 109.971 198.396 111.105 199.329 112.045C201.465 114.2 203.546 116.41 205.658 118.59C207.646 120.644 207.165 123.726 204.638 125.062C204.064 125.366 203.965 125.385 202.748 125.384Z" fill="#F177B5"/>
<path d="M15.1881 99.3441C17.3079 100.189 18.8454 101.496 18.7703 104.009C18.7402 105.031 18.4083 105.955 17.6469 106.689C15.3969 108.856 13.3283 111.212 10.858 113.233C12.7001 115.577 14.7949 117.67 16.9386 119.709C18.3812 121.081 18.8583 122.75 18.3948 124.566C17.9413 126.339 16.5465 127.289 14.7559 127.637C13.6242 127.858 12.5242 127.663 11.7185 126.902C8.01031 123.398 4.51186 119.682 1.05101 115.937C0.518734 115.361 0.341658 114.456 0 113.704V112.874C0.411443 111.126 1.61716 109.94 2.86086 108.763C5.21707 106.531 7.57741 104.303 9.87162 102.009C10.9627 100.919 12.0648 99.8961 13.5314 99.3441H15.1881Z" fill="#F89D0E"/>
<path d="M39.1993 122.677C35.8119 119.061 32.439 115.429 28.9621 111.9C27.3157 110.229 24.4002 110.383 22.8185 111.999C21.1549 113.697 21.1361 116.127 22.6642 118.021C24.4898 120.284 26.6537 122.21 28.6917 124.261C29.3047 124.877 29.2907 125.205 28.6714 125.776C26.6788 127.61 24.7382 129.501 22.7757 131.367C21.8022 132.293 21.2304 133.487 21.3101 134.765C21.4242 136.594 22.4117 138.041 24.159 138.734C25.9236 139.434 27.5188 139.011 28.9021 137.681C32.1093 134.593 35.351 131.539 38.5602 128.453C39.4695 127.578 39.9586 126.476 40.067 125.174C39.9571 124.296 39.8399 123.361 39.1993 122.677Z" fill="#F89D0E"/>
<path d="M267.22 36.1457C267.185 36.1803 267.192 36.2243 267.19 36.267C267.185 36.7523 267.048 37.207 266.853 37.6443C266.52 38.3976 266.004 39.0042 265.324 39.4656C264.808 39.8149 264.239 40.0389 263.621 40.1376C263.335 40.1829 263.048 40.2015 262.759 40.2015C259.665 40.2002 256.573 40.2002 253.48 40.2029C253.228 40.2029 252.975 40.1882 252.73 40.1522C252.42 40.1082 252.115 40.0162 251.82 39.8989C251.286 39.6842 250.808 39.3802 250.4 38.9803C249.967 38.5563 249.632 38.0616 249.406 37.4963C249.146 36.8483 249.054 36.1723 249.119 35.4817C249.2 34.619 249.519 33.8457 250.071 33.1711C250.606 32.5204 251.274 32.0657 252.071 31.8018C252.412 31.6898 252.763 31.6298 253.123 31.6031C253.424 31.5804 253.723 31.5831 254.021 31.5831C255.491 31.5804 256.959 31.5818 258.428 31.5818C258.637 31.5818 258.627 31.6018 258.627 31.3818V19.5154C258.627 19.2981 258.627 19.2967 258.407 19.2967C256.724 19.2967 255.04 19.2954 253.358 19.2967C252.431 19.2981 251.598 19.0141 250.856 18.4701C250.028 17.8621 249.49 17.0501 249.228 16.0555C249.1 15.5688 249.071 15.0702 249.12 14.5742C249.21 13.6715 249.555 12.8729 250.152 12.1823C250.508 11.7716 250.926 11.4423 251.403 11.1903C251.855 10.9503 252.339 10.8009 252.848 10.7343C253.051 10.7076 253.254 10.7036 253.456 10.7036C256.592 10.7036 259.728 10.705 262.863 10.7023C263.393 10.701 263.907 10.7783 264.404 10.9623C264.959 11.1676 265.449 11.4729 265.879 11.8809C266.412 12.3849 266.789 12.9849 267.016 13.6809C267.113 13.9755 267.188 14.2755 267.19 14.5902C267.19 14.6275 267.186 14.6662 267.22 14.6942V36.1457Z" fill="#F89D0E"/>
<path d="M243.074 -3.43323e-05C243.097 0.0279655 243.13 0.0266285 243.162 0.029295C243.861 0.0772934 244.498 0.309309 245.085 0.685301C245.76 1.11729 246.273 1.69727 246.625 2.41459C246.85 2.87457 246.985 3.36122 247.037 3.87321C247.11 4.58652 247.01 5.2705 246.741 5.93048C246.566 6.3598 246.326 6.75047 246.025 7.10513C245.622 7.57845 245.137 7.93977 244.578 8.20243C244.104 8.42509 243.605 8.55175 243.081 8.59308C242.77 8.61841 242.461 8.6131 242.15 8.6131C240.682 8.6171 239.213 8.61443 237.744 8.61577C237.528 8.61577 237.542 8.59576 237.542 8.81176V20.7101C237.542 20.7208 237.541 20.7328 237.542 20.7435C237.544 20.8995 237.544 20.9008 237.702 20.9008H242.56C242.709 20.9008 242.86 20.8968 243.009 20.9034C243.512 20.9248 243.993 21.0448 244.454 21.2408C245.072 21.5034 245.597 21.8954 246.032 22.4034C246.5 22.9501 246.813 23.5781 246.964 24.2834C247.04 24.6354 247.077 24.9914 247.06 25.3514C247.016 26.286 246.718 27.1313 246.13 27.8673C245.692 28.4166 245.154 28.8406 244.51 29.1272C244.122 29.3006 243.717 29.4112 243.294 29.4646C243.058 29.4939 242.824 29.4939 242.589 29.4939C239.501 29.4952 236.414 29.4926 233.327 29.4966C232.824 29.4979 232.336 29.4379 231.86 29.2739C231.103 29.0139 230.467 28.5793 229.948 27.9673C229.587 27.5406 229.323 27.0606 229.147 26.5326C229.02 26.15 228.947 25.7567 228.948 25.3514C228.948 25.2554 228.947 25.158 228.947 25.062C228.947 18.1848 228.947 11.309 228.945 4.43185C228.945 4.0292 228.965 3.63055 229.068 3.23856C229.245 2.56257 229.563 1.96526 230.028 1.44394C230.539 0.870621 231.157 0.463976 231.883 0.221315C232.197 0.115984 232.52 0.0372925 232.855 0.0279598C232.887 0.0266266 232.919 0.0266323 232.943 -3.43323e-05H243.074Z" fill="#F89D0E"/>
<path d="M131.747 35.4524C133.866 36.2977 135.403 37.6043 135.329 40.1176C135.298 41.1389 134.966 42.0628 134.205 42.7975C131.955 44.9641 129.886 47.32 127.417 49.3413C129.258 51.6853 131.354 53.7786 133.497 55.8172C134.939 57.1891 135.417 58.8584 134.953 60.6744C134.499 62.4477 133.105 63.397 131.314 63.745C130.183 63.965 129.083 63.7716 128.277 63.0103C124.569 59.5064 121.07 55.7905 117.61 52.0453C117.077 51.4693 116.9 50.564 116.559 49.812V48.9827C116.97 47.2347 118.176 46.0481 119.419 44.8708C121.775 42.6388 124.135 40.4109 126.43 38.1176C127.521 37.027 128.623 36.003 130.09 35.4524H131.747Z" fill="#294494"/>
<path d="M155.756 58.7984C152.369 55.1825 148.996 51.5506 145.519 48.0213C143.872 46.3507 140.957 46.504 139.375 48.12C137.712 49.8186 137.693 52.2479 139.221 54.1425C141.047 56.4051 143.211 58.3317 145.248 60.3824C145.861 60.9983 145.848 61.3263 145.228 61.897C143.236 63.7316 141.295 65.6222 139.332 67.4888C138.359 68.4141 137.787 69.6088 137.867 70.8861C137.981 72.7154 138.968 74.162 140.716 74.8553C142.48 75.5553 144.076 75.1326 145.459 73.802C148.667 70.7141 151.908 67.6608 155.117 64.5742C156.026 63.6996 156.516 62.5969 156.624 61.2956C156.514 60.417 156.397 59.4824 155.756 58.7984Z" fill="#294494"/>
</svg>
