<svg width="518" height="76" viewBox="0 0 518 76" fill="none" xmlns="http://www.w3.org/2000/svg">
<path d="M391.372 31.8325C390.413 33.9484 388.809 34.9471 386.45 34.8137C384.901 34.7257 383.341 34.8471 381.79 34.7777C380.861 34.7364 380.485 34.951 380.537 35.9764C380.628 37.771 380.568 39.5736 380.561 41.3736C380.554 43.3788 379.16 45.2068 377.368 45.5734C375.395 45.9761 373.532 44.9388 372.691 42.9988C372.529 42.6242 372.508 42.2549 372.508 41.8682C372.509 39.7856 372.485 37.703 372.521 35.6217C372.533 34.9631 372.309 34.7737 371.671 34.7844C369.692 34.8191 367.715 34.7884 365.736 34.799C363.214 34.8137 361.508 32.9258 361.522 30.7285C361.538 28.1179 363.892 26.6299 365.695 26.7259C367.668 26.8326 369.651 26.7232 371.628 26.7646C372.329 26.7792 372.536 26.5526 372.523 25.8619C372.484 23.8166 372.505 21.7687 372.509 19.7221C372.513 17.9875 373.84 16.3195 375.479 15.9782C377.502 15.5542 379.466 16.5248 380.177 18.2955C380.441 18.9554 380.585 19.6234 380.572 20.3461C380.542 22.1447 380.598 23.946 380.545 25.7446C380.522 26.5166 380.718 26.8019 381.538 26.7699C383.161 26.7059 384.793 26.8432 386.41 26.7286C388.813 26.5592 390.473 27.4672 391.372 29.7152V31.8325Z" fill="#F177B5"/>
<path d="M517.435 66.0182C517.4 66.0529 517.407 66.0969 517.405 66.1395C517.399 66.6249 517.261 67.0795 517.068 67.5168C516.735 68.2702 516.219 68.8768 515.539 69.3381C515.023 69.6874 514.453 69.9114 513.835 70.0101C513.549 70.0554 513.263 70.0741 512.972 70.0741C509.88 70.0728 506.788 70.0728 503.695 70.0754C503.443 70.0754 503.19 70.0608 502.944 70.0248C502.635 69.9808 502.33 69.8888 502.035 69.7714C501.5 69.5568 501.023 69.2528 500.614 68.8528C500.182 68.4288 499.847 67.9342 499.62 67.3688C499.359 66.7208 499.268 66.0449 499.334 65.3542C499.415 64.4916 499.734 63.7183 500.286 63.0436C500.819 62.393 501.488 61.9383 502.286 61.6743C502.627 61.5623 502.978 61.5023 503.338 61.4757C503.638 61.453 503.938 61.4556 504.236 61.4556C505.706 61.453 507.174 61.4543 508.643 61.4543C508.852 61.4543 508.842 61.4743 508.842 61.2543V49.388C508.842 49.1706 508.842 49.1693 508.622 49.1693C506.938 49.1693 505.255 49.168 503.572 49.1693C502.646 49.1706 501.812 48.8866 501.071 48.3426C500.243 47.7347 499.704 46.9227 499.443 45.928C499.315 45.4414 499.286 44.9427 499.335 44.4468C499.424 43.5441 499.77 42.7455 500.367 42.0548C500.723 41.6442 501.14 41.3148 501.616 41.0628C502.07 40.8228 502.552 40.6735 503.063 40.6068C503.266 40.5802 503.468 40.5762 503.671 40.5762C506.807 40.5762 509.942 40.5775 513.077 40.5748C513.608 40.5735 514.121 40.6508 514.619 40.8348C515.173 41.0402 515.663 41.3455 516.093 41.7535C516.625 42.2575 517.004 42.8575 517.231 43.5534C517.328 43.8481 517.403 44.1481 517.405 44.4627C517.405 44.5001 517.401 44.5387 517.435 44.5667V66.0182Z" fill="#049796"/>
<path d="M493.289 29.8725C493.312 29.9005 493.344 29.8992 493.377 29.9019C494.076 29.9499 494.713 30.1818 495.3 30.5578C495.974 30.9898 496.488 31.5698 496.84 32.2871C497.065 32.7471 497.2 33.2338 497.252 33.7458C497.325 34.4591 497.224 35.1431 496.956 35.803C496.781 36.2324 496.541 36.623 496.24 36.9777C495.837 37.451 495.352 37.8123 494.792 38.075C494.318 38.2976 493.82 38.4243 493.296 38.4656C492.985 38.491 492.676 38.4857 492.365 38.4857C490.896 38.4897 489.428 38.487 487.959 38.487C487.743 38.4883 487.756 38.4683 487.756 38.6843V50.5827V50.616C487.759 50.772 487.759 50.7733 487.917 50.7733H492.774C492.924 50.7733 493.074 50.7693 493.224 50.776C493.726 50.7973 494.208 50.9173 494.669 51.1133C495.285 51.376 495.812 51.768 496.246 52.276C496.714 52.8226 497.026 53.4506 497.178 54.1559C497.254 54.5079 497.292 54.8639 497.274 55.2225C497.23 56.1585 496.933 57.0038 496.345 57.7398C495.906 58.2891 495.368 58.7131 494.725 58.9998C494.337 59.1731 493.932 59.2838 493.509 59.3371C493.273 59.3665 493.038 59.3664 492.804 59.3664C489.716 59.3678 486.629 59.3651 483.541 59.3691C483.039 59.3705 482.551 59.3105 482.075 59.1465C481.317 58.8865 480.681 58.4518 480.163 57.8398C479.801 57.4132 479.536 56.9332 479.361 56.4052C479.235 56.0225 479.16 55.6292 479.163 55.2239C479.163 55.1279 479.161 55.0306 479.161 54.9346C479.161 48.0574 479.161 41.1816 479.16 34.3044C479.16 33.9018 479.18 33.5031 479.283 33.1111C479.46 32.4351 479.777 31.8378 480.243 31.3165C480.752 30.7432 481.372 30.3378 482.097 30.0938C482.412 29.9885 482.735 29.9099 483.069 29.9005C483.101 29.8992 483.133 29.8992 483.157 29.8725H493.289Z" fill="#049796"/>
<path d="M267.72 36.6457C267.685 36.6803 267.692 36.7243 267.69 36.767C267.685 37.2523 267.548 37.707 267.353 38.1443C267.02 38.8976 266.504 39.5042 265.824 39.9656C265.308 40.3149 264.739 40.5389 264.121 40.6376C263.835 40.6829 263.548 40.7015 263.259 40.7015C260.165 40.7002 257.073 40.7002 253.98 40.7029C253.728 40.7029 253.475 40.6882 253.23 40.6522C252.92 40.6082 252.615 40.5162 252.32 40.3989C251.786 40.1842 251.308 39.8802 250.9 39.4803C250.467 39.0563 250.132 38.5616 249.906 37.9963C249.646 37.3483 249.554 36.6723 249.619 35.9817C249.7 35.119 250.019 34.3457 250.571 33.6711C251.106 33.0204 251.774 32.5657 252.571 32.3018C252.912 32.1898 253.263 32.1298 253.623 32.1031C253.924 32.0804 254.223 32.0831 254.521 32.0831C255.991 32.0804 257.459 32.0818 258.928 32.0818C259.137 32.0818 259.127 32.1018 259.127 31.8818V20.0154C259.127 19.7981 259.127 19.7967 258.907 19.7967C257.224 19.7967 255.54 19.7954 253.858 19.7967C252.931 19.7981 252.098 19.5141 251.356 18.9701C250.528 18.3621 249.99 17.5501 249.728 16.5555C249.6 16.0688 249.571 15.5702 249.62 15.0742C249.71 14.1715 250.055 13.3729 250.652 12.6823C251.008 12.2716 251.426 11.9423 251.903 11.6903C252.355 11.4503 252.839 11.3009 253.348 11.2343C253.551 11.2076 253.754 11.2036 253.956 11.2036C257.092 11.2036 260.228 11.205 263.363 11.2023C263.893 11.201 264.407 11.2783 264.904 11.4623C265.459 11.6676 265.949 11.9729 266.379 12.3809C266.912 12.8849 267.289 13.4849 267.516 14.1809C267.613 14.4755 267.688 14.7755 267.69 15.0902C267.69 15.1275 267.686 15.1662 267.72 15.1942V36.6457Z" fill="#F89D0E"/>
<path d="M243.574 0.499966C243.597 0.527966 243.63 0.526628 243.662 0.529295C244.361 0.577293 244.998 0.809309 245.585 1.1853C246.26 1.61729 246.773 2.19727 247.125 2.91459C247.35 3.37457 247.485 3.86122 247.537 4.37321C247.61 5.08652 247.51 5.7705 247.241 6.43048C247.066 6.8598 246.826 7.25047 246.525 7.60513C246.122 8.07845 245.637 8.43977 245.078 8.70243C244.604 8.92509 244.105 9.05175 243.581 9.09308C243.27 9.11841 242.961 9.1131 242.65 9.1131C241.182 9.1171 239.713 9.11443 238.244 9.11577C238.028 9.11577 238.042 9.09576 238.042 9.31176V21.2101C238.042 21.2208 238.041 21.2328 238.042 21.2435C238.044 21.3995 238.044 21.4008 238.202 21.4008H243.06C243.209 21.4008 243.36 21.3968 243.509 21.4034C244.012 21.4248 244.493 21.5448 244.954 21.7408C245.572 22.0034 246.097 22.3954 246.532 22.9034C247 23.4501 247.313 24.0781 247.464 24.7834C247.54 25.1354 247.577 25.4914 247.56 25.8514C247.516 26.786 247.218 27.6313 246.63 28.3673C246.192 28.9166 245.654 29.3406 245.01 29.6272C244.622 29.8006 244.217 29.9112 243.794 29.9646C243.558 29.9939 243.324 29.9939 243.089 29.9939C240.001 29.9952 236.914 29.9926 233.827 29.9966C233.324 29.9979 232.836 29.9379 232.36 29.7739C231.603 29.5139 230.967 29.0793 230.448 28.4673C230.087 28.0406 229.823 27.5606 229.647 27.0326C229.52 26.65 229.447 26.2567 229.448 25.8514C229.448 25.7554 229.447 25.658 229.447 25.562C229.447 18.6848 229.447 11.809 229.445 4.93185C229.445 4.5292 229.465 4.13055 229.568 3.73856C229.745 3.06257 230.063 2.46526 230.528 1.94394C231.039 1.37062 231.657 0.963976 232.383 0.721315C232.697 0.615984 233.02 0.537292 233.355 0.52796C233.387 0.526627 233.419 0.526632 233.443 0.499966H243.574Z" fill="#F89D0E"/>
<path d="M132.247 35.9524C134.366 36.7977 135.903 38.1043 135.829 40.6176C135.798 41.6389 135.466 42.5628 134.705 43.2975C132.455 45.4641 130.386 47.82 127.917 49.8413C129.758 52.1853 131.854 54.2786 133.997 56.3172C135.439 57.6891 135.917 59.3584 135.453 61.1744C134.999 62.9477 133.605 63.897 131.814 64.245C130.683 64.465 129.583 64.2716 128.777 63.5103C125.069 60.0064 121.57 56.2905 118.11 52.5453C117.577 51.9693 117.4 51.064 117.059 50.312V49.4827C117.47 47.7347 118.676 46.5481 119.919 45.3708C122.275 43.1388 124.635 40.9109 126.93 38.6176C128.021 37.527 129.123 36.503 130.59 35.9524H132.247Z" fill="#294494"/>
<path d="M156.256 59.2984C152.869 55.6825 149.496 52.0506 146.019 48.5213C144.372 46.8507 141.457 47.004 139.875 48.62C138.212 50.3186 138.193 52.7479 139.721 54.6425C141.547 56.9051 143.711 58.8317 145.748 60.8824C146.361 61.4983 146.348 61.8263 145.728 62.397C143.736 64.2316 141.795 66.1222 139.832 67.9888C138.859 68.9141 138.287 70.1088 138.367 71.3861C138.481 73.2154 139.468 74.662 141.216 75.3553C142.98 76.0553 144.576 75.6326 145.959 74.302C149.167 71.2141 152.408 68.1608 155.617 65.0742C156.526 64.1996 157.016 63.0969 157.124 61.7956C157.014 60.917 156.897 59.9824 156.256 59.2984Z" fill="#294494"/>
<path d="M43.2817 48.4562C43.341 44.135 39.9552 40.5898 35.7043 40.3978C31.1169 40.1924 27.4201 43.8564 27.3889 48.2763C27.3586 52.5428 30.7143 56.0827 34.9606 56.2774C39.5193 56.4854 43.2188 52.8668 43.2817 48.4562ZM35.886 64.1892H35.1007C34.8595 64.1905 34.6204 64.1585 34.3809 64.1452C33.4423 64.0932 32.5174 63.9545 31.6049 63.7305C29.1233 63.1252 26.917 61.9812 24.9838 60.3133C23.7797 59.2746 22.7562 58.0787 21.9109 56.7307C21.0495 55.3574 20.4136 53.8868 20.0052 52.3175C19.7151 51.2029 19.5536 50.0682 19.511 48.9162C19.4703 47.8149 19.5427 46.7216 19.7303 45.6363C20.0484 43.791 20.6776 42.0577 21.6145 40.4364C22.5603 38.8005 23.7609 37.3765 25.2119 36.1672C26.59 35.0192 28.1186 34.1286 29.7987 33.4979C31.3361 32.9206 32.9268 32.5967 34.5658 32.518C35.1428 32.49 35.722 32.4953 36.3001 32.53C36.9163 32.566 37.5277 32.638 38.1345 32.746C39.6741 33.0233 41.1411 33.5166 42.5328 34.2313C44.2906 35.1352 45.8311 36.3219 47.1452 37.7992C49.0629 39.9551 50.3075 42.4484 50.8752 45.2803C51.0586 46.1923 51.1451 47.1163 51.1654 48.0456V48.6029C51.1774 48.7429 51.1466 48.8802 51.1456 49.0189C51.1424 49.3962 51.1096 49.7695 51.068 50.1429C50.9591 51.1202 50.758 52.0775 50.4664 53.0148C49.7686 55.2601 48.6238 57.2507 47.0447 58.9906C46.089 60.0439 45.0082 60.9519 43.8067 61.7146C42.3468 62.6412 40.7787 63.3119 39.099 63.7238C38.1788 63.9492 37.2454 64.0905 36.2991 64.1465C36.1616 64.1545 36.0204 64.1465 35.886 64.1892Z" fill="#F03B28"/>
</svg>
