<svg width="44" height="32" viewBox="0 0 44 32" fill="none" xmlns="http://www.w3.org/2000/svg">
<g id="reshot-icon-student-boy-L9ESXQZ3WU" clip-path="url(#clip0_19967_18185)">
<path id="Vector" d="M14.8577 14.4377L15.5298 14.8652C16.2047 15.2941 16.7925 15.8511 17.2612 16.506C18.0718 17.6397 19.3432 19.67 20.4949 22.5852C20.7554 23.2444 20.876 23.9522 20.8488 24.6623C20.8216 25.3723 20.6472 26.0684 20.337 26.7049C20.337 26.7049 18.9081 28.4102 17.6683 27.613C16.4285 26.8158 16.9295 25.2395 16.9295 25.2395C17.1031 24.905 17.1869 24.5296 17.1724 24.1514C17.1579 23.7732 17.0456 23.4057 16.847 23.0859C16.2929 22.1945 15.4823 21.0553 14.6348 20.4305L14.8577 14.4377Z" fill="#797996"/>
<path id="Vector_2" d="M1.66789 27.2317C1.66789 27.2317 1.23877 27.8152 1.19767 29.6072C1.19304 29.8084 1.2279 30.0085 1.30021 30.1958C1.37253 30.3831 1.48084 30.5537 1.61878 30.6977C1.75672 30.8417 1.92151 30.9562 2.10346 31.0343C2.28541 31.1125 2.48086 31.1528 2.67832 31.1529H5.58494L6.17428 26.1655L1.66789 27.2317Z" fill="#B45F6D"/>
<path id="Vector_3" d="M14.8053 28.9949H5.58594V31.1532H14.8053V28.9949Z" fill="#464659"/>
<path id="Vector_4" d="M14.8575 14.4377L14.4074 14.1513C14.1891 14.0895 13.993 13.9647 13.8427 13.792L12.9746 13.2395H7.47795L6.54749 13.8058C6.39376 13.9757 6.19512 14.0966 5.97551 14.154L5.43511 14.4835C4.35232 15.1426 3.51895 16.1543 3.06944 17.3554C2.3559 19.2609 1.27039 22.376 0.502275 25.5653C-0.0663798 27.9277 1.27002 29.0541 3.42229 28.0036C4.11321 27.6664 4.6391 27.1552 5.10249 26.5858L5.16657 28.2915L6.9056 29.6964H12.5565L15.2856 28.2911L14.8575 14.4377Z" fill="#797996"/>
<path id="Vector_5" d="M10.2261 12.9893L8.10938 15.4336C8.42676 16.2521 8.79924 17.0472 9.22415 17.8134H11.228C11.653 17.0472 12.0254 16.2521 12.3428 15.4336L10.2261 12.9893Z" fill="#CBD5EA"/>
<path id="Vector_6" d="M9.37439 16.1585L9.22461 17.8131C9.53087 18.3754 9.86522 18.9213 10.2264 19.4487C10.5875 18.9213 10.9218 18.3754 11.2281 17.8131L11.0355 15.6854C11.0355 15.6854 10.5573 15.3611 10.1424 15.4334C9.72751 15.5056 9.37439 16.1585 9.37439 16.1585Z" fill="#FF6D8D"/>
<path id="Vector_7" d="M11.0361 15.6855L10.7921 12.9893H9.66182L9.375 16.1586C9.8798 15.8585 10.4518 15.6956 11.0361 15.6855Z" fill="#E5486E"/>
<path id="Vector_8" d="M11.627 12.2471H8.82674L7.47852 13.2394C7.62164 13.9893 7.83323 14.7238 8.11052 15.4335L10.2267 13.881L12.3428 15.4335C12.6202 14.7238 12.8317 13.9893 12.9748 13.2394L11.627 12.2471Z" fill="white"/>
<path id="Vector_9" d="M8.82617 11.5999V12.2469L10.2263 13.8809L11.6264 12.2469V11.7267L8.82617 11.5999Z" fill="#FFD4CA"/>
<path id="Vector_10" d="M5.30032 17.2707C5.30032 17.2707 5.27086 15.9029 4.8423 14.8989C4.33963 15.3025 3.90844 15.7907 3.56739 16.3425C3.73749 16.609 4.10299 17.3063 4.10299 18.3796V21.1819C4.10388 21.3291 4.07452 21.4749 4.01679 21.6098C3.95905 21.7448 3.87423 21.8659 3.76778 21.9654C3.35492 22.3323 3.0872 22.8398 3.01462 23.3932L1.96846 24.8832C1.94315 24.9192 1.93024 24.9628 1.93176 25.0071C1.93328 25.0514 1.94913 25.0939 1.97684 25.128C2.00455 25.1622 2.04257 25.186 2.08497 25.1958C2.12737 25.2057 2.17176 25.2009 2.21123 25.1823L3.36313 24.6401C3.36313 24.6401 3.16921 26.4738 3.94314 27.6968C4.37941 27.3841 4.76992 27.0099 5.10298 26.5854L5.10381 26.6081L5.30032 26.2772V17.2707Z" fill="#595975"/>
<path id="Vector_11" d="M5.12695 27.2289L5.16685 28.2911C5.16685 28.2911 5.16685 29.1785 6.28966 29.5888C6.44738 29.6458 6.61209 29.6801 6.77908 29.6908C7.6618 28.8343 7.58053 26.7327 7.58053 26.7327V25.4118L7.64176 25.376C7.78465 25.2927 7.90341 25.1724 7.986 25.0272C8.06858 24.8821 8.11208 24.7173 8.11207 24.5495V23.853L7.00338 23.939L5.12695 27.2289Z" fill="#595975"/>
<path id="Vector_12" d="M11.6264 10.613H8.82617V11.5999C8.82617 11.5999 9.30424 12.1472 10.365 12.1472C10.365 12.1472 11.132 12.0929 11.6264 11.7267V10.613Z" fill="#F99C9C"/>
<path id="Vector_13" d="M4.06416 14.9104C3.9917 15.0015 3.95069 15.1144 3.94747 15.2316C3.94425 15.3489 3.97899 15.4639 4.04634 15.559C4.32983 15.9706 4.78444 16.7869 4.78444 17.7886V20.6027C4.78444 20.6027 5.22437 21.7283 6.23582 21.3351V17.7883C6.23582 17.7883 6.15945 15.7331 5.23056 14.5722C5.14516 14.4675 5.02374 14.4 4.89113 14.3836C4.75853 14.3671 4.62476 14.4029 4.5172 14.4836C4.3498 14.6067 4.19767 14.75 4.06416 14.9104Z" fill="#E0898D"/>
<path id="Vector_14" d="M13.8418 13.7917C13.3909 15.2129 12.1181 18.7956 10.1889 20.8167C8.46642 19.0109 7.12586 15.8113 6.54659 13.8056L5.97461 14.1538C6.56921 16.1352 7.96924 19.6023 9.96738 21.5189C10.0273 21.5765 10.1066 21.6085 10.189 21.6085C10.2714 21.6085 10.3507 21.5765 10.4106 21.5189C12.5017 19.513 13.8818 15.7705 14.4066 14.1512L13.8418 13.7917Z" fill="white"/>
<path id="Vector_15" d="M7.69263 9.14836C7.69263 9.14836 6.89626 9.38836 6.47221 8.75617C6.35726 8.57807 6.29757 8.36884 6.30091 8.1557V6.55786H7.69263V9.14836Z" fill="#F99C9C"/>
<path id="Vector_16" d="M13.0469 9.14836C13.0469 9.14836 13.8433 9.38836 14.2673 8.75617C14.3822 8.57807 14.4419 8.36883 14.4385 8.1557V6.55786H13.0469V9.14836Z" fill="#F99C9C"/>
<path id="Vector_17" d="M7.54118 7.05939H6.84971C6.65163 7.05952 6.45559 7.01862 6.27348 6.93918C6.09138 6.85974 5.92701 6.74341 5.79036 6.59726C5.65371 6.45111 5.54762 6.27818 5.47853 6.08897C5.40944 5.89976 5.3788 5.69821 5.38846 5.49657C5.45929 4.05525 6.10339 1.99812 8.97233 1.03586C8.97233 1.03586 11.178 0.300709 11.9643 1.74767C11.9643 1.74767 15.5642 1.74767 15.0065 5.52019C14.4487 9.29271 10.3644 6.78598 10.3644 6.78598C10.3644 6.78598 9.3551 8.26287 7.54118 7.05939Z" fill="#FFC676"/>
<path id="Vector_18" d="M11.3456 3.18115C11.3456 3.18115 11.2565 6.72195 7.73494 7.15518L7.54102 7.67282V8.55489C7.54102 9.31804 7.83846 10.0499 8.36792 10.5896C8.89738 11.1292 9.61548 11.4324 10.3643 11.4324C11.113 11.4324 11.8311 11.1292 12.3606 10.5896C12.89 10.0499 13.1875 9.31804 13.1875 8.55489V6.41983C13.1875 6.41983 13.1468 4.52214 11.3456 3.18115Z" fill="#FFD4CA"/>
<path id="Vector_19" d="M10.329 10.3578C9.66198 10.3578 9.33065 10.0616 9.19259 9.88494C9.1654 9.85119 9.14506 9.81228 9.13276 9.77045C9.12045 9.72863 9.11643 9.68473 9.12092 9.6413C9.12542 9.59788 9.13833 9.5558 9.15892 9.51751C9.17952 9.47922 9.20737 9.44549 9.24087 9.41827C9.27437 9.39105 9.31285 9.37089 9.35406 9.35896C9.39527 9.34704 9.4384 9.34358 9.48094 9.34879C9.52347 9.35401 9.56457 9.36779 9.60183 9.38933C9.63909 9.41088 9.67178 9.43976 9.69799 9.4743C9.76365 9.55816 9.93292 9.69896 10.329 9.69896C10.7445 9.69896 10.9625 9.54065 11.0555 9.44625C11.1165 9.38562 11.1985 9.35197 11.2837 9.3526C11.3688 9.35324 11.4503 9.38813 11.5104 9.44967C11.5705 9.51121 11.6043 9.59443 11.6045 9.68125C11.6047 9.76806 11.5712 9.85144 11.5114 9.91327C11.3115 10.1161 10.9441 10.3578 10.329 10.3578Z" fill="#F99C9C"/>
<path id="Vector_20" d="M9.50126 8.40465C9.41546 8.40465 9.33317 8.36994 9.27249 8.30816C9.21182 8.24639 9.17773 8.1626 9.17773 8.07524V7.76935C9.17773 7.68199 9.21182 7.5982 9.27249 7.53642C9.33317 7.47465 9.41546 7.43994 9.50126 7.43994C9.58707 7.43994 9.66936 7.47465 9.73003 7.53642C9.79071 7.5982 9.82479 7.68199 9.82479 7.76935V8.07524C9.82479 8.1626 9.79071 8.24639 9.73003 8.30816C9.66936 8.36994 9.58707 8.40465 9.50126 8.40465Z" fill="#F99C9C"/>
<path id="Vector_21" d="M11.2376 8.40465C11.1518 8.40465 11.0695 8.36994 11.0088 8.30816C10.9481 8.24639 10.9141 8.1626 10.9141 8.07524V7.76935C10.9141 7.68199 10.9481 7.5982 11.0088 7.53642C11.0695 7.47465 11.1518 7.43994 11.2376 7.43994C11.3234 7.43994 11.4057 7.47465 11.4664 7.53642C11.527 7.5982 11.5611 7.68199 11.5611 7.76935V8.07524C11.5611 8.1626 11.527 8.24639 11.4664 8.30816C11.4057 8.36994 11.3234 8.40465 11.2376 8.40465Z" fill="#F99C9C"/>
<path id="Vector_22" d="M7.54102 7.05933V7.80634C11.8154 7.37208 11.3456 3.1814 11.3456 3.1814C11.3456 3.1814 11.0626 6.62591 7.54102 7.05933Z" fill="#F99C9C"/>
<path id="Vector_23" d="M20.3373 26.7045C19.792 27.0706 19.1572 27.319 18.5142 27.1857C17.2511 26.9238 16.9812 25.8241 16.9287 25.2388C16.8564 25.3787 16.769 25.5101 16.6682 25.6303C16.1666 26.2256 15.6077 26.7683 15 27.2501L16.2946 30.4783C17.5769 29.7898 18.7198 28.8602 19.6628 27.7384C19.9291 27.4238 20.1557 27.0765 20.3373 26.7045Z" fill="#595975"/>
<path id="Vector_24" d="M12.5566 27.8495V29.6961H13.5895C13.7865 29.6961 13.9818 29.6593 14.1658 29.5876L14.3263 26.6855H13.6984C13.5484 26.6856 13.3999 26.7157 13.2614 26.7742C13.1229 26.8327 12.997 26.9184 12.891 27.0265C12.785 27.1346 12.7009 27.2629 12.6435 27.4041C12.5861 27.5453 12.5566 27.6967 12.5566 27.8495Z" fill="#595975"/>
<path id="Vector_25" d="M15.5792 31.153H14.3594C14.2515 31.1531 14.1445 31.1315 14.0448 31.0894C13.945 31.0473 13.8544 30.9856 13.778 30.9079C13.7016 30.8301 13.641 30.7377 13.5997 30.636C13.5584 30.5344 13.5371 30.4254 13.5371 30.3154V27.4902C13.5371 27.2768 13.6203 27.0721 13.7684 26.9212C13.9165 26.7703 14.1173 26.6855 14.3267 26.6855H15.5792C15.8483 26.6855 16.1063 26.7945 16.2966 26.9884C16.4868 27.1823 16.5937 27.4453 16.5937 27.7195V30.1195C16.5936 30.3937 16.4866 30.6565 16.2964 30.8504C16.1062 31.0442 15.8482 31.153 15.5792 31.153Z" fill="#FFD4CA"/>
<path id="Vector_26" d="M6.23458 21.3347C5.38501 21.2958 4.96318 20.8665 4.7832 20.6023V23.2045H6.23458V21.3347Z" fill="#B45F6D"/>
<path id="Vector_27" d="M6.54102 22.7798H7.33914C7.44059 22.7798 7.54103 22.8001 7.63475 22.8397C7.72847 22.8793 7.81363 22.9373 7.88535 23.0104C7.95708 23.0835 8.01398 23.1703 8.0528 23.2658C8.09162 23.3613 8.1116 23.4637 8.1116 23.5671V23.8527C8.1116 23.9561 8.09162 24.0585 8.0528 24.154C8.01398 24.2495 7.95708 24.3363 7.88535 24.4094C7.81362 24.4825 7.72846 24.5405 7.63475 24.58C7.54103 24.6196 7.44058 24.6399 7.33914 24.6399H6.54102V22.7798Z" fill="#F99C9C"/>
<path id="Vector_28" d="M4.96204 26.7325H6.18181C6.28982 26.7326 6.39679 26.7109 6.49659 26.6688C6.59639 26.6267 6.68707 26.565 6.76345 26.4871C6.83982 26.4093 6.90039 26.3169 6.94169 26.2151C6.98299 26.1134 7.0042 26.0044 7.00413 25.8943V23.0694C7.00413 22.8559 6.92095 22.6513 6.77288 22.5003C6.62481 22.3494 6.42399 22.2646 6.21459 22.2646H4.96204C4.82878 22.2646 4.69683 22.2914 4.57371 22.3433C4.4506 22.3953 4.33873 22.4714 4.2445 22.5675C4.15026 22.6635 4.07551 22.7775 4.02451 22.903C3.97352 23.0284 3.94727 23.1629 3.94727 23.2987V25.6987C3.94734 25.973 4.05429 26.2359 4.24459 26.4298C4.4349 26.6237 4.69297 26.7326 4.96204 26.7325Z" fill="#FFD4CA"/>
<path id="Vector_29" d="M0.743798 28.324C0.813056 28.3807 0.886573 28.4317 0.96367 28.4767C0.911667 28.8488 0.881908 29.2237 0.874557 29.5995C0.868909 29.8446 0.911383 30.0884 0.999482 30.3165C1.08758 30.5446 1.21953 30.7525 1.38758 30.9279C1.55562 31.1033 1.75637 31.2427 1.97803 31.3379C2.19968 31.4331 2.43778 31.4822 2.67831 31.4823H15.5788C15.8609 31.4819 16.1358 31.3907 16.364 31.2217C16.5923 31.0527 16.7624 30.8145 16.8501 30.5412C18.0047 29.8603 19.0381 28.9854 19.9067 27.9535C20.5371 27.2105 20.9537 26.3044 21.1104 25.3352C21.2671 24.366 21.1579 23.3716 20.7947 22.4617C19.6466 19.5555 18.3815 17.5131 17.5224 16.3115C17.0299 15.6222 16.4115 15.0361 15.7011 14.5856C14.3496 13.9188 13.0886 13.0761 11.9498 12.0786V11.3236C12.6238 10.9214 13.1278 10.2792 13.3648 9.52083C13.375 9.52083 13.3846 9.52149 13.395 9.52149C13.6174 9.53002 13.8383 9.48132 14.0373 9.3799C14.2363 9.27847 14.4071 9.12758 14.5338 8.94116C14.6859 8.7085 14.7653 8.43434 14.7614 8.1548V7.07659C15.0214 6.72685 15.2268 6.24073 15.326 5.56892C15.509 4.33184 15.2898 3.33532 14.6748 2.60695C13.8654 1.64836 12.6199 1.46247 12.15 1.42652C11.1839 -0.0269374 8.96926 0.690145 8.87165 0.722616C5.71163 1.78247 5.13097 4.15791 5.06596 5.47979C5.05305 5.72583 5.08982 5.97196 5.17401 6.20293C5.25819 6.4339 5.388 6.64479 5.55539 6.82257C5.67879 6.95507 5.82098 7.06798 5.97721 7.15753V8.15518C5.97345 8.43454 6.05267 8.70852 6.20447 8.94116C6.3307 9.12674 6.50053 9.27713 6.69846 9.3786C6.89638 9.48007 7.1161 9.52939 7.33753 9.52205C7.34677 9.52205 7.356 9.5212 7.36468 9.52102C7.56714 10.1687 7.9655 10.7345 8.50273 11.1374V12.0786C7.52626 12.9221 6.44546 13.6315 5.28796 14.1886C5.14356 14.0934 4.97414 14.0452 4.80223 14.0505C4.63032 14.0557 4.46406 14.1142 4.32555 14.2181C4.13706 14.3566 3.96585 14.518 3.81572 14.6987C3.71629 14.8217 3.65246 14.9706 3.63137 15.1285C3.61028 15.2864 3.63277 15.4472 3.69632 15.5928C3.30349 16.0877 2.98999 16.6428 2.76743 17.2375C2.01021 19.2603 0.947694 22.3334 0.188626 25.4864C-0.119157 26.7647 0.0779975 27.7725 0.743798 28.324ZM5.26173 30.8238H2.67831C2.52391 30.8237 2.37109 30.7921 2.22882 30.731C2.08655 30.6699 1.95771 30.5803 1.84987 30.4677C1.74203 30.3551 1.65737 30.2216 1.60085 30.0752C1.54434 29.9288 1.51711 29.7723 1.52078 29.6149C1.52695 29.3089 1.54853 29.0034 1.58542 28.6996C1.70525 28.7194 1.82647 28.7294 1.94787 28.7293C2.43037 28.7293 2.97659 28.5862 3.56251 28.3003C4.02431 28.0711 4.44585 27.7658 4.81017 27.3968L4.84415 28.3014C4.8695 28.671 5.0168 29.021 5.2621 29.2945L5.26173 30.8238ZM4.26996 25.6986V23.2986C4.27027 23.1118 4.34322 22.9328 4.47281 22.8007C4.6024 22.6686 4.77807 22.5943 4.96134 22.594H6.21389C6.33753 22.5941 6.45608 22.6442 6.54351 22.7333C6.63094 22.8224 6.68011 22.9432 6.68023 23.0693V25.8943C6.67994 26.0291 6.62724 26.1582 6.53369 26.2535C6.44014 26.3488 6.31335 26.4023 6.18111 26.4025H4.96152C4.77835 26.4022 4.60274 26.328 4.47313 26.1961C4.34352 26.0642 4.27047 25.8853 4.26996 25.6986ZM5.90814 30.8238V29.7818C5.99676 29.8258 6.08767 29.8649 6.18046 29.8988C6.41327 29.9834 6.65868 30.0262 6.90583 30.0255H13.2137V30.3153C13.2139 30.4915 13.2536 30.6653 13.3297 30.8235L5.90814 30.8238ZM16.2703 30.1192C16.2701 30.306 16.1972 30.4851 16.0676 30.6172C15.938 30.7493 15.7622 30.8236 15.579 30.8238H14.3592C14.2269 30.8236 14.1002 30.77 14.0066 30.6748C13.9131 30.5795 13.8604 30.4503 13.8601 30.3156V27.4901C13.8602 27.364 13.9094 27.2433 13.9968 27.1542C14.0843 27.0651 14.2028 27.015 14.3264 27.0149H15.579C15.7622 27.015 15.938 27.0893 16.0676 27.2214C16.1972 27.3535 16.2701 27.5326 16.2703 27.7194V30.1192ZM15.4029 21.6272C15.8314 22.1425 16.2226 22.6889 16.5734 23.262C16.7759 23.5908 16.8703 23.9768 16.8431 24.364C16.8159 24.7512 16.6684 25.1195 16.4221 25.4156C16.1477 25.7395 15.856 26.0478 15.5484 26.3391L15.4029 21.6272ZM12.6171 13.3825C12.5082 13.9022 12.3646 14.4138 12.1874 14.9136L10.7031 13.8249L11.6758 12.6899L12.6171 13.3825ZM11.9486 15.5501C11.8002 15.9203 11.634 16.2959 11.4499 16.6771L11.3051 15.0778L11.9486 15.5501ZM10.2261 14.287L10.6095 14.5684L10.8967 17.7412C10.6346 18.2117 10.3962 18.5976 10.2261 18.8625C10.056 18.5978 9.81753 18.2117 9.55546 17.7412L9.84265 14.5684L10.2261 14.287ZM9.14914 12.1237V11.5125C9.83274 11.8043 10.5955 11.841 11.303 11.616V12.1234L10.2261 13.3801L9.14914 12.1237ZM14.115 8.15546C14.1185 8.30213 14.0784 8.44646 14.0002 8.56958C13.943 8.65324 13.8681 8.72265 13.7809 8.77264C13.6937 8.82262 13.5966 8.85188 13.4968 8.85824C13.506 8.75819 13.5113 8.65701 13.5113 8.55462V7.87349C13.7223 7.82949 13.9258 7.75395 14.1151 7.6493L14.115 8.15546ZM6.73813 8.56958C6.65985 8.44646 6.61982 8.30213 6.62325 8.15546V7.37269C6.69796 7.3821 7.21832 7.38869 7.21832 7.38869V8.55471C7.21832 8.65701 7.22358 8.7581 7.23282 8.85805C7.13438 8.85102 7.03878 8.82144 6.95312 8.77151C6.86747 8.72158 6.79398 8.65249 6.73813 8.56958ZM6.85005 6.72977C6.69575 6.7299 6.54303 6.69808 6.40116 6.63622C6.25929 6.57437 6.13124 6.48377 6.02477 6.36993C5.91831 6.2561 5.83565 6.1214 5.78182 5.97401C5.72799 5.82662 5.70411 5.66963 5.71163 5.51255C5.7808 4.10417 6.42019 2.23829 9.07296 1.34869C9.09244 1.34219 11.0355 0.717063 11.6817 1.9068C11.7097 1.95802 11.7506 2.0007 11.8002 2.03047C11.8498 2.06025 11.9062 2.07603 11.9638 2.07622C11.978 2.07622 13.3921 2.09306 14.1879 3.03951C14.6724 3.6157 14.8403 4.43349 14.687 5.47019C14.545 6.43113 14.1588 6.99791 13.5114 7.19358V6.4124C13.5095 6.32836 13.4455 4.3357 11.5372 2.91518C11.4909 2.88071 11.4364 2.85941 11.3794 2.85346C11.3223 2.84751 11.2648 2.85714 11.2126 2.88135C11.1604 2.90555 11.1155 2.94347 11.0824 2.99121C11.0494 3.03895 11.0294 3.0948 11.0245 3.15302C11.0133 3.28262 10.7132 6.32666 7.51862 6.72949L6.85005 6.72977ZM7.86473 8.55462V7.34407C10.4684 6.88958 11.3043 4.81231 11.5609 3.78643C12.8086 4.95932 12.8629 6.36262 12.8649 6.41993V8.55471C12.8609 9.22782 12.5957 9.87197 12.1273 10.3465C11.6589 10.821 11.0252 11.0874 10.3648 11.0874C9.70436 11.0874 9.07075 10.821 8.60233 10.3465C8.13391 9.87197 7.86874 9.22773 7.86473 8.55462ZM8.77635 12.6898L9.74901 13.8248L8.26467 14.914C8.08748 14.4141 7.94393 13.9026 7.83499 13.3828L8.77635 12.6898ZM9.14729 15.0781L9.00259 16.6776C8.8187 16.2972 8.65248 15.9215 8.50393 15.5507L9.14729 15.0781ZM6.46008 14.2425L7.25544 13.7584C7.39758 14.3669 7.58174 14.9645 7.80655 15.5466C7.80729 15.5489 7.80747 15.5511 7.8084 15.5534C8.13087 16.3863 8.50978 17.1954 8.94238 17.9748C8.94331 17.9763 8.94432 17.9776 8.94525 17.9791C9.25658 18.5508 9.59667 19.1058 9.96417 19.6418C9.99412 19.6841 10.0335 19.7185 10.0791 19.7423C10.1246 19.7661 10.1751 19.7785 10.2263 19.7785C10.2775 19.7785 10.3279 19.7661 10.3735 19.7423C10.4191 19.7185 10.4585 19.6841 10.4884 19.6418C10.8559 19.1058 11.1959 18.5508 11.5072 17.9791C11.5082 17.9776 11.5093 17.9763 11.5101 17.9748C11.9427 17.1954 12.3216 16.3863 12.6441 15.5534C12.645 15.5511 12.6452 15.5489 12.646 15.5466C12.8696 14.9675 13.053 14.3731 13.1949 13.7678L13.9176 14.2276L15.3582 15.1443C15.9984 15.5502 16.5557 16.0783 16.9996 16.6995C17.8371 17.8709 19.0713 19.8643 20.1947 22.7077C20.5133 23.5054 20.6092 24.3774 20.472 25.2272C20.3347 26.0769 19.9695 26.8715 19.4169 27.523C18.6947 28.3806 17.8522 29.1249 16.9167 29.7317V27.7194C16.9164 27.4837 16.8562 27.2521 16.7419 27.0473C16.6276 26.8424 16.4631 26.6713 16.2644 26.5506C16.493 26.3197 16.7106 26.0837 16.9122 25.8447C17.2526 25.4435 17.4566 24.941 17.4939 24.412C17.5312 23.883 17.3998 23.3559 17.1193 22.9093C16.5216 21.9481 15.9341 21.1838 15.372 20.6352L15.3149 18.7819C15.3135 18.7387 15.3038 18.6961 15.2864 18.6566C15.2689 18.6172 15.244 18.5816 15.213 18.552C15.1821 18.5224 15.1457 18.4993 15.106 18.484C15.0662 18.4687 15.0239 18.4615 14.9815 18.4629C14.9391 18.4642 14.8973 18.4741 14.8586 18.4919C14.8199 18.5097 14.785 18.5351 14.7559 18.5667C14.7269 18.5982 14.7042 18.6353 14.6892 18.6758C14.6742 18.7163 14.6671 18.7594 14.6685 18.8026L14.9016 26.3559H14.3259C14.0309 26.3563 13.748 26.4758 13.5394 26.6884C13.3308 26.901 13.2135 27.1893 13.2131 27.49V29.3666H6.90583C6.7331 29.3673 6.56155 29.3375 6.39876 29.2787C5.51946 28.9573 5.49084 28.3135 5.49001 28.2904C5.49001 28.2862 5.49001 28.2821 5.49001 28.2778L5.44383 27.0614H6.18083C6.48446 27.0611 6.77556 26.938 6.9903 26.7193C7.20504 26.5005 7.3259 26.2038 7.32636 25.8944V24.9694H7.33938C7.62986 24.9691 7.90834 24.8513 8.11375 24.642C8.31915 24.4327 8.4347 24.1488 8.43504 23.8528V23.567C8.4347 23.271 8.31916 22.9871 8.11375 22.7778C7.90835 22.5684 7.62986 22.4507 7.33938 22.4503H7.14481C7.00604 22.234 6.79914 22.0722 6.55815 21.9916V17.7882C6.55815 17.7841 6.55815 17.7799 6.55815 17.7758C6.5551 17.6949 6.4803 15.9389 5.7132 14.6967L6.46008 14.2425ZM7.32664 24.3106V23.1093H7.33966C7.45877 23.1094 7.57297 23.1577 7.65719 23.2435C7.74142 23.3293 7.78879 23.4457 7.78891 23.5671V23.8528C7.78877 23.9742 7.74138 24.0905 7.65716 24.1764C7.57294 24.2622 7.45875 24.3104 7.33966 24.3106H7.32664ZM4.31133 15.1218C4.42806 14.9817 4.56113 14.8568 4.70758 14.7496C4.74835 14.7189 4.79905 14.7049 4.84947 14.7107C4.8999 14.7164 4.94633 14.7414 4.97944 14.7806C5.80592 15.8134 5.90676 17.6832 5.91211 17.7957V21.9353H5.10715V17.7882C5.10715 16.6904 4.60794 15.8016 4.3104 15.3694C4.28393 15.3337 4.26968 15.2902 4.26985 15.2454C4.27001 15.2007 4.28459 15.1572 4.31133 15.1218ZM0.816381 25.6434C1.5676 22.5233 2.62041 19.4778 3.37136 17.4725C3.54093 17.0194 3.76983 16.5918 4.05184 16.2012C4.3112 16.6891 4.45142 17.2334 4.46065 17.7882V22.0351C4.28539 22.1078 4.12717 22.2174 3.99638 22.3568C3.86558 22.4961 3.76515 22.6621 3.70167 22.8437L2.07642 24.247C2.04369 24.2748 2.01671 24.3089 1.99707 24.3473C1.97742 24.3858 1.9655 24.4279 1.962 24.4711C1.9585 24.5144 1.96349 24.5579 1.97669 24.5991C1.98988 24.6404 2.01101 24.6785 2.03883 24.7113C2.17735 24.8696 2.4336 24.8021 2.49436 24.7497L3.62355 23.775V25.6986C3.62394 25.952 3.69361 26.2003 3.82473 26.4157C3.95586 26.631 4.14326 26.8048 4.3659 26.9176C4.05004 27.2395 3.68413 27.5058 3.28298 27.706C2.37921 28.1471 1.60232 28.186 1.1515 27.8126C0.697165 27.4364 0.575178 26.6457 0.816381 25.6434Z" fill="#3C3C4F"/>
<g id="Layer 5">
<path id="Vector_30" d="M23.6943 22.2232L26.6392 20.1665C26.6392 20.1665 28.7546 21.2121 28.7546 24.1595C28.7546 27.107 25.8295 27.107 25.8295 27.107C24.9083 25.9369 24.1002 24.6789 23.4164 23.3505C23.32 23.1604 23.2951 22.9409 23.3463 22.7333C23.3975 22.5258 23.5212 22.3444 23.6943 22.2232Z" fill="#FCACD8"/>
<path id="Vector_31" d="M26.6392 20.1664C26.5559 21.2624 26.8665 22.3518 27.5131 23.2316C27.6821 23.469 27.7839 23.7492 27.8071 24.0416C27.8759 24.8983 27.7405 26.5461 25.8301 27.1067C26.5901 28.0927 27.4195 29.0211 28.3119 29.8843L30.5759 27.94L28.6311 18.7751L26.6392 20.1664Z" fill="#EA7DAA"/>
<path id="Vector_32" d="M39.0226 18.0625C39.0226 18.0625 40.9439 19.2436 41.5737 22.9739C41.6895 23.6704 41.9781 24.3252 42.4123 24.876C42.8078 25.3797 43.1115 25.9516 43.309 26.5646C42.5833 28.2171 39.6636 28.0485 36.5508 27.719L39.0226 18.0625Z" fill="#81A2EA"/>
<path id="Vector_33" d="M43.6188 28.2479C43.5891 27.6754 43.4846 27.1094 43.3081 26.565C40.1924 27.3663 38.3003 25.8429 37.3399 24.6362L36.5508 27.7192L37.3079 31.059H40.9848C41.3417 31.0604 41.6951 30.9877 42.0235 30.8453C42.352 30.703 42.6485 30.4938 42.8949 30.2308C43.1414 29.9677 43.3327 29.6563 43.4572 29.3153C43.5817 28.9744 43.6366 28.6112 43.6188 28.2479Z" fill="#81A2EA"/>
<path id="Vector_34" d="M26.2769 27.9714L26.9293 27.4972C27.1688 27.323 27.4621 27.2435 27.7548 27.2732C28.0475 27.3029 28.3196 27.44 28.5206 27.6589L29.483 28.7065C29.5978 28.8308 29.6861 28.978 29.7422 29.1388C29.7983 29.2997 29.8211 29.4706 29.8091 29.6409C29.7972 29.8111 29.7507 29.977 29.6726 30.1281C29.5946 30.2791 29.4866 30.412 29.3556 30.5183C29.2446 30.6077 29.1292 30.6913 29.0099 30.7687C28.8498 30.8708 28.6647 30.925 28.4759 30.9251C28.287 30.9252 28.102 30.8712 27.9418 30.7692C27.2452 30.3271 26.6293 29.7649 26.1217 29.1077C26.0563 29.0237 26.0083 28.927 25.9805 28.8236C25.9528 28.7201 25.946 28.6119 25.9606 28.5057C25.9751 28.3994 26.0106 28.2973 26.065 28.2055C26.1193 28.1136 26.1915 28.034 26.2769 27.9714Z" fill="#FFD1C0"/>
<path id="Vector_35" d="M29.7109 29.551V31.0592H37.3083L37.2833 29.551C34.7634 29.3411 32.2309 29.3411 29.7109 29.551Z" fill="#464659"/>
<path id="Vector_36" d="M29.8446 9.9043C29.8446 9.9043 30.5176 10.9658 28.7988 12.4098C28.7988 12.4098 27.0449 13.8166 27.0449 15.913C27.0449 18.2561 29.6268 18.3489 29.6268 18.3489L31.8705 14.1266V10.8787L29.8446 9.9043Z" fill="#595975"/>
<path id="Vector_37" d="M29.3485 8.40916C29.3485 8.40916 27.6796 8.2797 27.5435 6.2423C27.5435 6.2423 27.1553 2.68181 30.1831 2.48395C30.1831 2.48395 30.8236 1.23781 32.7256 1.23781C32.7256 1.23781 36.8401 0.97164 37.5387 4.82348C37.7254 5.8335 37.8132 6.8599 37.8008 7.8876C37.7894 8.77983 38.054 9.65306 38.557 10.3834C39.7065 12.0634 41.2903 15.3103 38.296 17.4579H33.3649L32.9776 11.1874L29.3485 8.40916Z" fill="#595975"/>
<path id="Vector_38" d="M30.0461 15.6588C30.0461 15.6588 26.9244 19.0637 28.7852 22.4728C29.1459 23.1187 29.3611 23.8382 29.4154 24.5792C29.4882 25.6917 29.4853 26.8079 29.4069 27.9199C29.395 28.0893 29.3388 28.2523 29.2441 28.392C29.1471 28.5195 29.0928 28.6754 29.0892 28.8368C29.0856 28.9981 29.1329 29.1564 29.2242 29.2883C29.2779 29.3694 29.3505 29.4358 29.4354 29.4816C29.5202 29.5274 29.6149 29.5512 29.711 29.5509H36.5278L38.935 26.8684C38.935 26.8684 40.7914 26.495 40.37 23.786C40.37 23.786 40.4609 18.3862 37.8394 15.6583L35.6491 14.3208L30.0461 15.6588Z" fill="#797996"/>
<path id="Vector_39" d="M38.2109 26.3925L30.577 23.4092L30.5021 24.216C30.4777 24.477 30.5093 24.7403 30.5947 24.9876C30.6801 25.2349 30.8173 25.4603 30.9967 25.6482C32.5883 27.2858 34.4636 28.6091 36.5277 29.551H37.2832C37.3913 29.5529 37.4987 29.5326 37.5989 29.4912C37.6992 29.4499 37.7902 29.3884 37.8666 29.3103C38.061 29.1038 38.2048 28.7451 37.9063 28.1635L38.3493 27.6057L38.2109 26.3925Z" fill="#595975"/>
<path id="Vector_40" d="M36.8071 14.8271L32.8535 22.0189L37.4892 23.2176C37.5289 23.2278 37.5708 23.2239 37.6081 23.2065C37.6453 23.1891 37.6756 23.1592 37.694 23.1219C37.7123 23.0846 37.7176 23.042 37.709 23.0011C37.7004 22.9603 37.6784 22.9237 37.6466 22.8974C36.8796 22.2724 36.0572 21.7214 35.1901 21.2517C35.9424 19.0018 37.4981 16.2345 37.8382 15.6588C37.5313 15.3372 37.1847 15.0576 36.8071 14.8271Z" fill="#595975"/>
<path id="Vector_41" d="M34.1116 13.4724L35.19 15.3146L32.6048 21.3203H31.8139C31.2147 20.0047 30.7325 18.637 30.373 17.2336L31.2046 13.9085L34.1116 13.4724Z" fill="#CBD5EA"/>
<path id="Vector_42" d="M31.554 16.7805C31.4906 17.6349 31.4159 18.7702 31.3398 20.2054C31.549 20.7353 31.7159 21.1067 31.7828 21.2518L32.6841 21.1383L33.2176 19.7638L33.0631 17.3248C32.6886 16.7088 32.1634 16.6022 31.554 16.7805Z" fill="#FF6D8D"/>
<path id="Vector_43" d="M31.5547 16.7806C31.8863 16.7744 32.5408 16.834 33.0641 17.3249L32.9004 14.7427L31.7294 14.7553C31.7294 14.7553 31.657 15.4041 31.5547 16.7806Z" fill="#E5486E"/>
<path id="Vector_44" d="M34.3148 17.3477L35.6481 14.2503L34.1116 13.4724L32.2617 15.1911L34.3148 17.3477Z" fill="white"/>
<path id="Vector_45" d="M30.0469 15.6588C30.1328 16.1964 30.2465 16.7262 30.3745 17.2336L32.2629 15.1912L31.8124 13.8174L31.2059 13.9084L30.0469 15.6588Z" fill="white"/>
<path id="Vector_46" d="M32.3301 19.6748C33.2216 17.7822 34.2645 15.9677 35.4484 14.2496C35.5391 14.1181 35.6715 14.0227 35.8234 13.9794C35.9752 13.9361 36.137 13.9476 36.2815 14.0121C36.5052 14.1147 36.7133 14.2496 36.8993 14.4127C37.0234 14.522 37.1049 14.6731 37.1289 14.8385C37.153 15.0039 37.118 15.1725 37.0303 15.3138C36.5589 16.0751 35.5621 17.7147 34.6153 19.461C34.6157 19.4606 33.1714 20.6429 32.3301 19.6748Z" fill="#A1D3FF"/>
<path id="Vector_47" d="M31.2051 12.6771V13.9086C31.2051 13.9086 31.507 14.4986 32.2621 15.1912C32.2621 15.1912 33.1305 14.7422 34.112 13.4725V12.1008L31.2051 12.6771Z" fill="#FFD1C0"/>
<path id="Vector_48" d="M34.7779 7.29004H35.238C35.482 7.29006 35.716 7.38887 35.8885 7.56471C36.061 7.74056 36.158 7.97906 36.158 8.22774V8.59027C36.158 8.83895 36.061 9.07743 35.8885 9.25326C35.716 9.4291 35.482 9.52788 35.238 9.52788H34.502L34.7779 7.29004Z" fill="#F99C9C"/>
<path id="Vector_49" d="M31.2051 12.6769C31.4647 12.7327 31.7293 12.7609 31.9946 12.761C32.7498 12.7646 33.4882 12.5343 34.112 12.1007V10.5608L31.2051 11.4714V12.6769Z" fill="#F99C9C"/>
<path id="Vector_50" d="M29.6248 7.29004H28.8888C28.6448 7.29006 28.4108 7.38887 28.2382 7.56471C28.0657 7.74056 27.9688 7.97906 27.9688 8.22774V8.59027C27.9688 8.83895 28.0657 9.07743 28.2383 9.25326C28.4108 9.4291 28.6448 9.52788 28.8888 9.52788H29.6248V7.29004Z" fill="#F99C9C"/>
<path id="Vector_51" d="M30.5391 3.95215C30.5391 3.95215 30.4308 7.21431 34.7785 7.47514V9.20478C34.7785 9.95699 34.4853 10.6784 33.9634 11.2103C33.4416 11.7422 32.7338 12.041 31.9957 12.0411C31.2577 12.041 30.5499 11.7422 30.028 11.2103C29.5061 10.6784 29.2129 9.957 29.2129 9.20478V7.61824C29.2129 7.61824 29.3736 5.22175 30.5391 3.95215Z" fill="#FFD1C0"/>
<path id="Vector_52" d="M30.998 24.2549C30.998 24.2549 34.7875 27.613 38.8503 29.3837C39.076 29.4851 39.3299 29.5013 39.5663 29.4293C39.8026 29.3573 40.0061 29.2017 40.1402 28.9906C40.1453 28.9823 40.1504 28.9739 40.1553 28.9654C40.2284 28.8382 40.2748 28.6969 40.2914 28.5504C40.3081 28.404 40.2946 28.2556 40.252 28.1147C40.2093 27.9739 40.1383 27.8436 40.0436 27.7322C39.9488 27.6208 39.8324 27.5307 39.7016 27.4676C39.4716 27.3554 39.2493 27.023 38.9358 26.8679C37.3465 26.0819 34.7635 24.9969 32.6595 23.7893L30.998 24.2549Z" fill="#81A2EA"/>
<path id="Vector_53" d="M34.356 22.019L39.4138 23.8355L38.935 26.8684L33.0234 24.8977L34.356 22.019Z" fill="#797996"/>
<path id="Vector_54" d="M31.2365 8.99803C31.0956 8.92774 30.9415 8.88902 30.7847 8.8845C30.6981 8.89294 30.6119 8.86601 30.5449 8.80963C30.4779 8.75325 30.4356 8.67205 30.4273 8.58389C30.419 8.49572 30.4454 8.40782 30.5007 8.33951C30.556 8.2712 30.6357 8.22808 30.7222 8.21964C31.0162 8.20055 31.3093 8.27024 31.5647 8.41999C31.6019 8.44193 31.6346 8.47113 31.6607 8.50594C31.6869 8.54074 31.7061 8.58046 31.7172 8.62282C31.7283 8.66518 31.7312 8.70936 31.7255 8.75284C31.7199 8.79631 31.7059 8.83823 31.6844 8.8762C31.6379 8.94962 31.5663 9.00277 31.4835 9.0253C31.4007 9.04782 31.3126 9.0381 31.2365 8.99803Z" fill="#F99C9C"/>
<path id="Vector_55" d="M32.4437 8.87601C32.421 8.83833 32.4061 8.79635 32.3998 8.7526C32.3936 8.70886 32.3961 8.66428 32.4073 8.62157C32.4185 8.57886 32.4381 8.53892 32.4649 8.50418C32.4918 8.46944 32.5252 8.44063 32.5633 8.41951C32.8187 8.26972 33.1117 8.20004 33.4058 8.21917C33.4923 8.22764 33.5719 8.27079 33.6272 8.33912C33.6825 8.40744 33.7088 8.49535 33.7005 8.5835C33.6922 8.67166 33.6499 8.75283 33.5828 8.80917C33.5158 8.86551 33.4295 8.8924 33.3431 8.88392C33.1852 8.87918 33.029 8.91847 32.8914 8.99755C32.814 9.02963 32.7284 9.03512 32.6476 9.01319C32.5668 8.99126 32.4952 8.9431 32.4437 8.87601Z" fill="#F99C9C"/>
<path id="Vector_56" d="M32.114 10.9609C31.8735 10.9655 31.6346 10.9193 31.4125 10.8252C31.3336 10.7892 31.2719 10.7229 31.2407 10.6407C31.2096 10.5585 31.2116 10.4671 31.2463 10.3864C31.281 10.3057 31.3456 10.2423 31.426 10.2099C31.5064 10.1775 31.5961 10.1789 31.6755 10.2136C31.8148 10.2706 31.964 10.2976 32.114 10.2931C32.2805 10.2964 32.4459 10.2658 32.6007 10.2033C32.6808 10.169 32.771 10.1685 32.8515 10.202C32.9319 10.2355 32.996 10.3002 33.0297 10.3818C33.0633 10.4635 33.0638 10.5554 33.0309 10.6374C32.9981 10.7194 32.9346 10.7847 32.8545 10.819C32.6193 10.9159 32.3676 10.9641 32.114 10.9609Z" fill="#F99C9C"/>
<path id="Vector_57" d="M34.7786 8.12111V7.29006C30.6793 7.01454 30.5391 3.95215 30.5391 3.95215C30.5391 3.95215 30.0084 8.08648 34.7786 8.12111Z" fill="#F99C9C"/>
<path id="Vector_58" d="M33.3649 21.9357C33.73 21.1416 34.1676 20.2892 34.6167 19.4607C34.2715 19.6571 33.8898 19.7777 33.4961 19.8146C33.1024 19.8514 32.7056 19.8039 32.331 19.6749C31.8117 20.772 31.5391 21.478 31.5391 21.478L33.3649 21.9357Z" fill="#81A2EA"/>
<path id="Vector_59" d="M32.2382 21.1331L34.3562 22.0191C34.3562 22.0191 34.4873 24.0008 33.0237 24.8977L31.253 24.375C31.0499 24.3155 30.8726 24.1876 30.7499 24.0123C30.6272 23.8369 30.5664 23.6244 30.5774 23.4093C30.6079 22.7696 30.7697 22.1436 31.0524 21.5716C31.1606 21.3608 31.3423 21.1988 31.5617 21.1177C31.7812 21.0365 32.0225 21.042 32.2382 21.1331Z" fill="#FFD1C0"/>
<path id="Vector_60" d="M25.9645 27.8052C25.7873 27.9773 25.6722 28.2053 25.6378 28.4523C25.6168 28.6041 25.6261 28.7587 25.6651 28.9067C25.704 29.0548 25.7719 29.1933 25.8646 29.314C26.3959 30.0021 27.0406 30.5906 27.77 31.0532C27.983 31.1871 28.2284 31.258 28.4787 31.2578C28.729 31.2585 28.9743 31.1866 29.186 31.0506C29.2521 31.0078 29.3181 30.9621 29.3837 30.9145V31.0592C29.3837 31.1477 29.4182 31.2327 29.4796 31.2953C29.5411 31.3579 29.6244 31.3931 29.7113 31.3931H40.9855C41.3911 31.3924 41.7924 31.3076 42.1648 31.1439C42.5373 30.9802 42.8732 30.7409 43.1521 30.4408C43.4267 30.1476 43.6391 29.7999 43.7758 29.4193C43.9125 29.0387 43.9708 28.6335 43.9468 28.2289C43.8483 26.4926 43.197 25.3331 42.668 24.6663C42.2691 24.1597 42.0038 23.5577 41.8972 22.9173C41.4584 20.3177 40.3902 18.9009 39.7928 18.2876C39.7864 18.2812 39.779 18.2764 39.7723 18.2705C39.6213 17.86 39.4441 17.46 39.2417 17.0732C41.4047 14.7853 39.9157 11.7872 38.8242 10.1924C38.3593 9.52018 38.1152 8.71515 38.1268 7.89278C38.1392 6.84303 38.0497 5.79461 37.8595 4.76284C37.1374 0.779533 32.9849 0.892393 32.7171 0.903936C31.0515 0.906608 30.2567 1.78965 29.994 2.16515C29.1625 2.25406 28.4991 2.5935 28.02 3.17545C27.0457 4.359 27.201 6.12203 27.2162 6.27152C27.2384 6.81686 27.4131 7.34437 27.7196 7.79194C27.6688 7.93143 27.6427 8.07897 27.6424 8.22773V8.59026C27.6428 8.92738 27.7744 9.25057 28.0083 9.48894C28.2422 9.72731 28.5593 9.86139 28.8901 9.86177H28.9524C29.0441 10.3021 29.2271 10.7172 29.4892 11.0795C29.3198 11.4313 29.0191 11.7909 28.5955 12.1469C28.5187 12.2085 26.7166 13.6797 26.7166 15.9124C26.7166 17.2664 27.4786 17.9546 28.1745 18.3007C28.1221 18.4627 28.0765 18.6239 28.0378 18.7844L23.5097 21.9475C23.2712 22.1151 23.1008 22.3653 23.0301 22.6516C22.9595 22.9379 22.9936 23.2406 23.126 23.5032C23.9167 25.0376 24.8684 26.4801 25.9645 27.8052ZM29.3837 29.9742C29.3272 30.0836 29.2487 30.1798 29.1533 30.2563C29.0511 30.3385 28.9449 30.4154 28.835 30.4867C28.7267 30.555 28.6018 30.5911 28.4745 30.5908C28.3471 30.5906 28.2223 30.554 28.1143 30.4852C27.4502 30.064 26.8632 29.5281 26.3796 28.9016C26.3411 28.8522 26.3129 28.7953 26.2968 28.7343C26.2807 28.6734 26.2771 28.6098 26.286 28.5473C26.2943 28.4867 26.3148 28.4284 26.346 28.3761C26.3772 28.3238 26.4187 28.2785 26.4677 28.2431L27.1201 27.769C27.2951 27.6425 27.5091 27.5848 27.7225 27.6065C27.936 27.6282 28.1346 27.7278 28.2817 27.887L28.8285 28.4821C28.7668 28.6448 28.7458 28.8206 28.7672 28.9936C28.7886 29.1667 28.8519 29.3316 28.9513 29.4736C29.056 29.6333 29.207 29.7557 29.3833 29.8236L29.3837 29.9742ZM30.0389 30.7253V29.885H36.9615L36.9755 30.7254L30.0389 30.7253ZM37.2886 29.2167H29.7067C29.6653 29.2165 29.6245 29.2061 29.5879 29.1863C29.5513 29.1666 29.52 29.138 29.4966 29.1031C29.2962 28.797 29.5247 28.5484 29.5965 28.4816C29.6603 28.4251 29.7002 28.3457 29.7079 28.2599C29.8528 26.5701 29.8208 24.8695 29.6125 23.1866C29.6042 23.1281 29.5808 23.0729 29.5446 23.0267C28.4454 21.6201 28.2278 20.0025 28.898 18.2192C29.1417 17.5861 29.4637 16.9873 29.856 16.4371C29.9146 16.7243 29.9814 17.0169 30.0564 17.3148V17.3169C30.3711 18.538 30.7754 19.7332 31.2657 20.8926C31.0499 21.013 30.8742 21.1961 30.7609 21.4186C30.4579 22.0328 30.2839 22.7045 30.25 23.3911C30.2377 23.6118 30.2819 23.8321 30.3782 24.0302C30.4744 24.2284 30.6195 24.3977 30.7991 24.5217C31.0498 24.7411 34.0877 27.3684 37.5573 29.1391C37.4766 29.19 37.3835 29.2168 37.2886 29.2166V29.2167ZM32.9715 24.5347L31.3441 24.0543C31.2118 24.0163 31.0961 23.9335 31.0161 23.8195C30.9361 23.7056 30.8966 23.5672 30.9042 23.4273C30.9328 22.8348 31.0824 22.2548 31.3433 21.7245C31.4145 21.5886 31.5327 21.4845 31.675 21.4323C31.8172 21.3801 31.9734 21.3835 32.1133 21.4419L34.029 22.2433C34.0137 22.7143 33.8798 23.8916 32.9715 24.5346V24.5347ZM37.5259 26.75L37.8892 26.9332C38.5371 27.2603 39.1491 27.5691 39.5595 27.7692C39.6504 27.8137 39.7313 27.877 39.7969 27.9551C39.8626 28.0331 39.9115 28.1242 39.9408 28.2226C39.9696 28.3172 39.9785 28.4169 39.967 28.5153C39.9554 28.6136 39.9237 28.7084 39.8738 28.7934L39.8617 28.8137C39.7687 28.9569 39.629 29.0619 39.4673 29.11C39.3055 29.1582 39.1323 29.1464 38.9783 29.0767C36.4575 27.9779 34.0198 26.2402 32.5677 25.1108L32.9268 25.2168L37.5259 26.75ZM31.1674 18.7699C31.0194 18.3259 30.8715 17.8395 30.7373 17.3274L31.4843 16.5194C31.3844 17.1278 31.275 17.8776 31.1677 18.7699H31.1674ZM32.2948 15.7047L32.6563 16.0844L32.7802 18.0361C32.3247 18.9051 31.9646 19.6674 31.7075 20.2399C31.7075 18.8779 32.1231 16.6007 32.2951 15.7047H32.2948ZM32.2668 14.7353C31.9878 14.4603 31.7416 14.1529 31.533 13.8194V12.3407C32.3244 12.4621 33.1312 12.2669 33.7847 11.796V13.3259L32.2668 14.7353ZM32.3624 20.8241C32.307 20.8014 32.2501 20.7828 32.1921 20.7684C33.1674 18.5511 34.3471 16.4332 35.7152 14.4432C35.7618 14.3746 35.8302 14.3245 35.9089 14.3014C35.9876 14.2784 36.0717 14.2837 36.1469 14.3167C36.3419 14.4059 36.5233 14.5234 36.6853 14.6655C36.7496 14.7228 36.7918 14.8016 36.8042 14.8877C36.8167 14.9738 36.7986 15.0616 36.7532 15.1353C36.0952 16.1982 34.4739 18.8736 33.3335 21.2303L32.3624 20.8241ZM33.7565 16.2807L32.7791 15.2542C33.3095 14.8645 33.7876 14.4059 34.2013 13.8899L35.0125 14.3007C34.555 14.9702 34.1358 15.6377 33.7565 16.2807ZM31.9951 11.7071C31.3442 11.7064 30.7201 11.4425 30.2599 10.9734C29.7996 10.5042 29.5407 9.86818 29.54 9.20474V7.63061C29.5513 7.48751 29.6922 5.89306 30.3772 4.72935C30.7032 5.70484 31.6608 7.3052 34.4503 7.59713V9.20474C34.4496 9.86818 34.1907 10.5042 33.7304 10.9734C33.2701 11.4425 32.6461 11.7064 31.9951 11.7071ZM31.8 15.2045L30.5508 16.5556C30.4893 16.2756 30.436 16.0014 30.3909 15.7352L31.2029 14.5093C31.385 14.7556 31.5845 14.988 31.8 15.2045ZM41.2518 23.0305C41.3773 23.7832 41.6894 24.4908 42.1584 25.0861C42.627 25.6767 43.2042 26.7079 43.2926 28.2673C43.3111 28.5811 43.2658 28.8953 43.1596 29.1904C43.0535 29.4854 42.8887 29.755 42.6757 29.9823C42.4581 30.2165 42.1961 30.4031 41.9055 30.5308C41.6149 30.6585 41.3019 30.7246 40.9855 30.7252H37.6307L37.6159 29.8366C37.801 29.7836 37.9691 29.6818 38.1033 29.5414C38.1316 29.5111 38.1582 29.4793 38.183 29.446C38.3617 29.5304 38.5411 29.6118 38.721 29.6904C38.8932 29.7655 39.0785 29.8042 39.2657 29.8041C39.4951 29.8057 39.7212 29.7481 39.9228 29.6365C40.1244 29.5249 40.2949 29.363 40.4184 29.1659L40.4361 29.1364C40.5323 28.9713 40.5937 28.7877 40.6164 28.5972C40.6392 28.4067 40.6228 28.2134 40.5683 28.0297C40.5127 27.8424 40.4195 27.669 40.2945 27.5204C40.1696 27.3719 40.0157 27.2515 39.8426 27.1669C39.7386 27.1161 39.6209 27.058 39.4931 26.9945C40.0979 26.6571 41.0059 25.8014 40.6983 23.7622C40.6929 22.5427 40.5621 21.3271 40.3081 20.1354C40.7758 21.0414 41.0946 22.0194 41.2518 23.0305ZM37.6339 23.0389C37.4304 21.3383 37.1872 20.4631 37.1769 20.4267C37.1522 20.3426 37.0959 20.2718 37.0203 20.2296C36.9447 20.1875 36.8558 20.1774 36.7729 20.2016C36.69 20.2257 36.6199 20.2822 36.5776 20.3588C36.5353 20.4354 36.5243 20.5258 36.5471 20.6106C36.7084 21.2601 36.831 21.919 36.9142 22.5836L33.9409 21.4845C35.041 19.2188 36.5864 16.6587 37.2613 15.5659C40.1011 18.0178 40.0433 23.7212 40.0423 23.78C40.042 23.7994 40.0434 23.8188 40.0464 23.8379C40.3685 25.9089 39.2476 26.4205 38.944 26.5199L33.7106 24.7752C34.4352 24.0517 34.6267 23.0697 34.6731 22.4867L37.1995 23.394C37.252 23.4101 37.3075 23.4129 37.3613 23.4022C37.415 23.3915 37.4654 23.3677 37.5082 23.3327C37.5509 23.2978 37.5847 23.2528 37.6066 23.2016C37.6285 23.1505 37.6379 23.0946 37.6339 23.0389ZM28.8847 9.19415C28.7287 9.1926 28.5795 9.12836 28.4696 9.01539C28.3596 8.90242 28.2979 8.74983 28.2977 8.59074V8.22821C28.2979 8.06911 28.3596 7.91651 28.4695 7.80352C28.5795 7.69054 28.7286 7.62628 28.8847 7.6247V9.19415ZM28.9631 6.95622C28.9631 6.95622 28.4501 6.94744 28.1351 7.21781C27.9756 6.90908 27.8849 6.56828 27.8695 6.21972C27.8695 6.21495 27.8688 6.21018 27.8682 6.20541C27.8665 6.18948 27.7037 4.59865 28.522 3.60466C28.9131 3.12947 29.4787 2.86454 30.2031 2.81722C30.2586 2.81315 30.3123 2.7949 30.3592 2.76414C30.406 2.73338 30.4445 2.6911 30.4711 2.6412C30.4945 2.5976 31.0613 1.57175 32.7246 1.57175C32.7311 1.57175 32.7383 1.57175 32.7449 1.57108C32.9008 1.56154 36.579 1.37532 37.2156 4.88419C37.3978 5.87256 37.4837 6.87688 37.4719 7.88247C37.4579 8.845 37.7432 9.78732 38.287 10.5744C39.2387 11.9656 40.5428 14.5383 38.8932 16.4722C38.5094 15.8588 38.0245 15.3177 37.4598 14.8727C37.4513 14.7363 37.4163 14.603 37.3567 14.4805C37.2971 14.358 37.2143 14.2488 37.1129 14.1593C36.9031 13.9753 36.6683 13.8232 36.4158 13.7076C36.2634 13.6387 36.0965 13.6097 35.9302 13.623C35.7639 13.6363 35.6036 13.6916 35.4635 13.7839L34.4401 13.2658L34.4188 11.1889C34.7245 10.8026 34.9365 10.3483 35.0378 9.86282H35.2379C35.5687 9.86244 35.8858 9.72836 36.1197 9.48999C36.3536 9.25162 36.4852 8.92843 36.4856 8.59131V8.22878C36.4856 6.89182 34.7913 6.95727 34.7913 6.95727C31.0598 6.70131 30.8718 4.04895 30.8656 3.93571C30.8623 3.87025 30.8402 3.80722 30.8021 3.75447C30.7639 3.70172 30.7114 3.66159 30.651 3.63907C30.5906 3.61655 30.525 3.61264 30.4625 3.62783C30.3999 3.64302 30.3431 3.67663 30.2992 3.72449C29.4409 4.65895 29.0959 6.12117 28.9631 6.95622ZM35.1056 9.19444V7.62403C35.1056 7.62403 35.8303 7.62403 35.8303 8.22773V8.59026C35.8301 8.75033 35.7677 8.90378 35.6566 9.01695C35.5455 9.13013 35.395 9.19378 35.2379 9.19396L35.1056 9.19444ZM27.3718 15.9129C27.3718 14.0096 28.9848 12.685 29.0064 12.6674C29.3793 12.3665 29.7006 12.0046 29.9572 11.5965C30.2296 11.8381 30.5412 12.0296 30.8779 12.1624V13.8899C30.8779 13.8899 29.0722 16.0016 28.4093 17.6735C27.7211 17.311 27.3718 16.72 27.3718 15.9129ZM23.8804 22.4986L27.8879 19.6994C27.7766 21.0227 28.1418 22.2683 28.9759 23.369C29.1466 24.835 29.1842 26.3139 29.0882 27.787L28.7606 27.4306C28.5049 27.1537 28.1595 26.9804 27.7882 26.9426C27.4169 26.9049 27.0447 27.0053 26.7404 27.2253L26.4915 27.4065C25.4165 26.111 24.4834 24.6999 23.7086 23.1982C23.6489 23.0802 23.6333 22.9442 23.6649 22.8154C23.6964 22.6866 23.773 22.574 23.8801 22.4986H23.8804Z" fill="#3C3C4F"/>
</g>
</g>
<defs>
<clipPath id="clip0_19967_18185">
<rect width="44" height="32" fill="white"/>
</clipPath>
</defs>
</svg>
