<svg width="32" height="32" viewBox="0 0 32 32" fill="none" xmlns="http://www.w3.org/2000/svg">
<g id="reshot-icon-student-DRC3YF56MU" clip-path="url(#clip0_20741_17363)">
<path id="Background_31_" d="M15.9961 32.0022C24.8326 32.0022 31.9961 24.8388 31.9961 16.0022C31.9961 7.16564 24.8326 0.00219727 15.9961 0.00219727C7.15954 0.00219727 -0.00390625 7.16564 -0.00390625 16.0022C-0.00390625 24.8388 7.15954 32.0022 15.9961 32.0022Z" fill="#9ACCB0"/>
<path id="Shadow" opacity="0.1" d="M31.5765 19.674L16.0053 4.10278L16.002 32.0001C23.5738 31.9996 29.9163 26.7393 31.5765 19.674Z" fill="black"/>
<g id="Student">
<path id="Vector" d="M19.498 19.2853C19.498 20.873 17.5858 22.1603 15.998 22.1603C14.4102 22.1603 12.498 20.873 12.498 19.2853L13.123 6.97974C13.123 5.39192 14.4102 4.10474 15.998 4.10474C17.5859 4.10474 18.873 5.39192 18.873 6.97974L19.498 19.2853Z" fill="#414042"/>
<path id="Vector_2" d="M15.974 6.84589C16.9596 6.84589 17.7586 6.53859 17.7586 6.15952C17.7586 5.78045 16.9596 5.47314 15.974 5.47314C14.9884 5.47314 14.1895 5.78045 14.1895 6.15952C14.1895 6.53859 14.9884 6.84589 15.974 6.84589Z" fill="#EFF0F0"/>
<path id="Vector_3" d="M17.0129 6.04761H14.9854C12.3193 6.04761 10.1581 8.83348 10.1581 11.2089C10.1581 11.2089 9.65064 18.9564 15.9991 18.9564C22.3477 18.9564 21.8403 11.2089 21.8403 11.2089C21.8402 8.83348 19.679 6.04761 17.0129 6.04761Z" fill="#414042"/>
<path id="Vector_4" opacity="0.1" d="M12.5695 17.8792L12.498 19.2853C12.498 20.8731 14.4102 22.1603 15.998 22.1603C17.5859 22.1603 19.498 20.8731 19.498 19.2853L19.4265 17.8792C18.5971 18.5308 17.4858 18.9563 15.998 18.9563C14.5102 18.9563 13.399 18.5308 12.5695 17.8792Z" fill="black"/>
<path id="Vector_5" d="M21.8527 22.5135C17.2001 22.5135 18.2381 20.2318 17.9224 17.9473H14.0666C13.751 20.2318 14.789 22.5135 10.1364 22.5135C7.163 22.5135 6.14844 23.8165 6.14844 26.6828V28.614C8.86344 30.7366 12.2811 32.002 15.9945 32.002C19.7079 32.002 23.1256 30.7366 25.8406 28.6141V26.6828C25.8406 23.8164 24.8261 22.5135 21.8527 22.5135Z" fill="#FFD0AE"/>
<path id="Vector_6" opacity="0.1" d="M18.0028 19.2723C17.9928 18.8807 17.9793 18.4766 17.9234 18.0723H14.0676C14.012 18.4747 13.9984 18.877 13.9883 19.2668C14.5462 19.6244 15.2095 19.8393 15.9998 19.8393C16.7862 19.8393 17.4467 19.6266 18.0028 19.2723Z" fill="black"/>
<path id="Vector_7" d="M21.8527 22.5137C21.2457 22.5137 20.7364 22.4745 20.3074 22.4019C20.3074 22.4019 21.2674 24.4344 15.9945 24.4344C10.7216 24.4344 11.6816 22.4019 11.6816 22.4019C11.2527 22.4745 10.7434 22.5137 10.1364 22.5137C7.163 22.5137 6.14844 23.8166 6.14844 26.683V28.6142C8.86344 30.7368 12.2811 32.0022 15.9945 32.0022C19.7079 32.0022 23.1256 30.7368 25.8406 28.6142V26.683C25.8406 23.8165 24.8261 22.5137 21.8527 22.5137Z" fill="#ECEFC5"/>
<path id="Vector_8" d="M11.3195 14.9838C11.7958 14.9838 12.1819 14.5286 12.1819 13.967C12.1819 13.4054 11.7958 12.9502 11.3195 12.9502C10.8432 12.9502 10.457 13.4054 10.457 13.967C10.457 14.5286 10.8432 14.9838 11.3195 14.9838Z" fill="#FFD0AE"/>
<path id="Vector_9" d="M20.6788 14.9838C21.1552 14.9838 21.5413 14.5286 21.5413 13.967C21.5413 13.4054 21.1552 12.9502 20.6788 12.9502C20.2025 12.9502 19.8164 13.4054 19.8164 13.967C19.8164 14.5286 20.2025 14.9838 20.6788 14.9838Z" fill="#FFD0AE"/>
<path id="Vector_10" d="M16.856 6.66895H15.1407C12.8851 6.66895 11.0566 9.31426 11.0566 11.5699C11.0566 11.5699 11.1887 19.4931 15.9984 19.4931C20.8081 19.4931 20.9401 11.5699 20.9401 11.5699C20.9401 9.31426 19.1116 6.66895 16.856 6.66895Z" fill="#FFD0AE"/>
<path id="Vector_11" d="M16.8556 6.58228H15.1403C12.8847 6.58228 9.53568 9.89828 11.247 14.0295C11.4791 12.0547 13.0267 13.648 13.5562 10.8851C14.4334 14.5055 20.4856 11.3258 20.749 14.0295C22.328 9.75215 19.1112 6.58228 16.8556 6.58228Z" fill="#414042"/>
<path id="Vector_12" opacity="0.1" d="M13.5572 10.8853C13.0278 13.6482 11.4802 12.0548 11.248 14.0296L11.3049 14.2139C11.5342 12.2629 13.0633 13.8371 13.5863 11.1074C14.4529 14.6843 20.4324 11.5428 20.6926 14.2139L20.75 14.0296C20.4867 11.3259 14.4344 14.5056 13.5572 10.8853Z" fill="black"/>
<path id="Vector_13" d="M18.4765 21.4702L15.9993 26.6732L13.512 21.4702L9.08008 22.5733L15.9993 27.2018L22.9085 22.5733L18.4765 21.4702Z" fill="#006838"/>
<path id="Vector_14" opacity="0.1" d="M22.8363 22.5554L22.9083 22.5733L15.9992 27.2018L9.08113 22.5741L8.97656 22.5971L15.9992 27.329L23.0143 22.5945L22.8363 22.5554Z" fill="black"/>
<path id="Vector_15" opacity="0.1" d="M17.0823 24.4009C17.0416 24.4036 17.0012 24.4063 16.9595 24.4086L16.0002 26.4233L15.0373 24.409C14.9954 24.4067 14.9549 24.4039 14.9141 24.4013L16.0002 26.6734L17.0823 24.4009Z" fill="black"/>
<path id="Vector_16" d="M15.6299 25.9012L10.228 22.2876L9.80078 22.3939L15.9055 26.4775L15.6299 25.9012Z" fill="#ECEFC5"/>
<path id="Vector_17" d="M21.7609 22.2876L16.3716 25.8927L16.0977 26.468L22.1881 22.3939L21.7609 22.2876Z" fill="#ECEFC5"/>
<path id="Vector_18" d="M15.9988 27.202L11.6738 24.3088C11.6738 24.3088 11.9978 25.9526 13.1945 27.0146C13.6691 27.4358 14.7285 27.8111 15.4319 27.976C15.3588 28.0769 15.3587 28.3041 15.4076 28.5937C14.9804 28.9975 14.5437 29.5065 14.3006 29.9015C14.004 30.3831 14.2233 31.4578 14.3134 31.5133C14.4035 31.5688 15.4619 31.2807 15.7585 30.799C15.8364 30.6725 15.9158 30.5226 15.9934 30.3591C16.071 30.5226 16.1504 30.6725 16.2283 30.799C16.5249 31.2807 17.5833 31.5688 17.6734 31.5133C17.7635 31.4579 17.9827 30.3831 17.6861 29.9015C17.443 29.5066 17.0064 28.9975 16.5792 28.5937C16.628 28.3042 16.628 28.0772 16.555 27.9761C17.2584 27.8113 18.3183 27.4358 18.793 27.0145C19.9855 25.9561 20.3129 24.3118 20.3129 24.3118L15.9988 27.202Z" fill="#BE1E2D"/>
<path id="Vector_19" opacity="0.1" d="M13.1945 27.0144C12.2401 26.1673 11.8411 24.9511 11.7185 24.4931L11.6738 24.4631C11.6738 24.4631 11.9978 26.1069 13.1945 27.1689C13.6584 27.5806 14.6801 27.9479 15.3828 28.1182C15.3918 28.0585 15.4075 28.0095 15.4319 27.9757C14.7285 27.811 13.6691 27.4356 13.1945 27.0144Z" fill="black"/>
<path id="Vector_20" opacity="0.1" d="M18.7947 27.0143C18.32 27.4357 17.2601 27.8112 16.5566 27.9759C16.5811 28.0097 16.5967 28.0588 16.6056 28.1184C17.3085 27.9482 18.3306 27.5807 18.7946 27.1689C19.9871 26.1106 20.3145 24.4663 20.3145 24.4663L20.2694 24.4965C20.1461 24.9547 19.7456 26.1704 18.7947 27.0143Z" fill="black"/>
<path id="Vector_21" opacity="0.1" d="M17.675 31.5133C17.5849 31.5688 16.5265 31.2807 16.23 30.799C16.152 30.6724 16.0726 30.5226 15.995 30.3591C15.9175 30.5226 15.838 30.6724 15.7601 30.799C15.4635 31.2807 14.4052 31.5688 14.315 31.5133C14.2622 31.4808 14.1649 31.097 14.1535 30.6882C14.1397 31.1497 14.2555 31.6313 14.315 31.6679C14.4052 31.7234 15.4635 31.4353 15.7601 30.9536C15.838 30.8271 15.9175 30.6772 15.995 30.5137C16.0727 30.6772 16.152 30.8271 16.23 30.9536C16.5265 31.4353 17.5849 31.7234 17.675 31.6679C17.7346 31.6313 17.8504 31.1497 17.8367 30.6882C17.8252 31.097 17.7279 31.4807 17.675 31.5133Z" fill="black"/>
<path id="Vector_22" d="M16.6607 27.937H15.3281V28.6896H16.6607V27.937Z" fill="#006838"/>
<path id="Vector_23" d="M16.6607 28.1882H15.3281V28.4382H16.6607V28.1882Z" fill="#ECEFC5"/>
</g>
</g>
<defs>
<clipPath id="clip0_20741_17363">
<rect width="32" height="32" fill="white"/>
</clipPath>
</defs>
</svg>
