<svg width="32" height="32" viewBox="0 0 32 32" fill="none" xmlns="http://www.w3.org/2000/svg">
<g id="reshot-icon-time-SRKEMN64PU">
<g id="XMLID_420_">
<path id="XMLID_438_" d="M11.4512 24.6501V18.7001C11.4512 18.4001 11.6512 17.9501 11.9012 17.7501L13.9012 16.2001C14.1512 16.0001 14.1512 15.7001 13.9012 15.5001L11.9012 13.9501C11.6512 13.7501 11.4512 13.3501 11.4512 13.0001V7.3501H20.4512V13.0001C20.4512 13.3001 20.2512 13.7501 20.0012 13.9501L18.0012 15.5001C17.7512 15.7001 17.7512 16.0001 18.0012 16.2001L20.0012 17.7501C20.2512 17.9501 20.4512 18.3501 20.4512 18.7001V24.6001H11.4512V24.6501Z" fill="#E6E7E8"/>
<path id="XMLID_425_" d="M12.5 23.45H19.35V20.8L15.8 19L12.5 20.8V23.45Z" fill="#F5AB35"/>
<path id="XMLID_424_" d="M12.5 10.6501L16 12.7501L19.35 10.6501V13.2501L15.8 15.0501L12.5 13.2501V10.6501Z" fill="#F5AB35"/>
<g id="XMLID_423_">
<path id="XMLID_419_" d="M16.2 14.6001H15.5V18.5001H16.2V14.6001Z" fill="#F5AB35"/>
</g>
<path id="XMLID_422_" d="M10.4004 7.3501H21.5504" stroke="#414042" stroke-miterlimit="10"/>
<path id="XMLID_421_" d="M10.4512 24.6501H21.5512" stroke="#414042" stroke-miterlimit="10"/>
<path id="XMLID_430_" d="M24.0508 16H25.6008" stroke="#414042" stroke-miterlimit="10"/>
<path id="XMLID_418_" d="M23.7012 18.1001L25.2012 18.5001" stroke="#414042" stroke-miterlimit="10"/>
<path id="XMLID_435_" d="M22.9004 20L24.2004 20.8" stroke="#414042" stroke-miterlimit="10"/>
<path id="XMLID_436_" d="M21.5508 21.6501L22.6508 22.7501" stroke="#414042" stroke-miterlimit="10"/>
<path id="XMLID_443_" d="M10.1508 21.3501L9.05078 22.4501" stroke="#414042" stroke-miterlimit="10"/>
<path id="XMLID_444_" d="M8.90078 19.6501L7.55078 20.4001" stroke="#414042" stroke-miterlimit="10"/>
<path id="XMLID_445_" d="M8.15039 17.6501L6.65039 18.0501" stroke="#414042" stroke-miterlimit="10"/>
<path id="XMLID_446_" d="M7.95039 15.55H6.40039" stroke="#414042" stroke-miterlimit="10"/>
<path id="XMLID_447_" d="M8.30078 13.5L6.80078 13.05" stroke="#414042" stroke-miterlimit="10"/>
<path id="XMLID_448_" d="M9.19961 11.55L7.84961 10.8" stroke="#414042" stroke-miterlimit="10"/>
<path id="XMLID_449_" d="M10.5512 9.9501L9.45117 8.8501" stroke="#414042" stroke-miterlimit="10"/>
<path id="XMLID_455_" d="M21.9512 10.4501L23.1012 9.40015" stroke="#414042" stroke-miterlimit="10"/>
<path id="XMLID_456_" d="M23.1504 12.2002L24.5004 11.4502" stroke="#414042" stroke-miterlimit="10"/>
<path id="XMLID_457_" d="M23.8496 14.2001L25.3496 13.8501" stroke="#414042" stroke-miterlimit="10"/>
</g>
</g>
</svg>
