<svg width="20" height="29" viewBox="0 0 20 29" fill="none" xmlns="http://www.w3.org/2000/svg">
<path id="Vector" d="M18.201 12.3461C14.8131 8.73015 11.4411 5.0969 7.9639 1.56899C6.31728 -0.101635 3.40134 0.0503578 1.82005 1.66632C0.156087 3.36628 0.138767 5.79555 1.66673 7.68884C3.49068 9.95145 5.65596 11.8781 7.69324 13.9287C8.30656 14.5447 8.2919 14.874 7.67325 15.4433C5.67997 17.2779 3.74002 19.1686 1.7774 21.0352C0.804095 21.9618 0.23211 23.1551 0.312108 24.4338C0.425439 26.263 1.4134 27.7097 3.16135 28.4017C4.92531 29.1016 6.52128 28.6803 7.90391 27.3483C11.1118 24.2604 14.3531 21.2085 17.5623 18.1219C18.4716 17.2473 18.9596 16.1433 19.069 14.842C18.9583 13.9647 18.841 13.03 18.201 12.3461Z" fill="#3CAB96"/>
</svg>
