<svg width="354" height="40" viewBox="0 0 354 40" fill="none" xmlns="http://www.w3.org/2000/svg">
<g clip-path="url(#clip0_22541_2073)">
<path fill-rule="evenodd" clip-rule="evenodd" d="M65.0914 33.0965C58.9952 37.6034 50.1572 39.9999 42.5466 39.9999C31.8809 39.9999 22.2755 36.0501 15.0072 29.4757C14.4364 28.9593 14.9454 28.2543 15.6315 28.6541C23.4731 33.2255 33.1708 35.9787 43.1871 35.9787C49.9434 35.9787 57.3708 34.5739 64.2053 31.6699C65.2358 31.232 66.0999 32.3501 65.0913 33.0967" fill="white"/>
<path fill-rule="evenodd" clip-rule="evenodd" d="M67.631 30.1952C66.8514 29.1954 62.4776 29.7214 60.5116 29.9573C59.9165 30.0288 59.8241 29.5076 60.3605 29.1303C63.8506 26.675 69.5677 27.3838 70.2327 28.206C70.9023 29.0351 70.0568 34.7781 66.7867 37.5188C66.2837 37.94 65.8054 37.7152 66.0281 37.1588C66.7645 35.3178 68.4117 31.1961 67.6309 30.1953" fill="white"/>
<path fill-rule="evenodd" clip-rule="evenodd" d="M60.6478 11.7851V9.39927C60.6501 9.03591 60.9224 8.79424 61.2517 8.79531L71.9255 8.79423C72.2664 8.79423 72.5406 9.04293 72.5406 9.3961V11.4423C72.5379 11.7858 72.2489 12.2332 71.7376 12.9443L66.2079 20.8526C68.26 20.8045 70.432 21.1128 72.2961 22.1627C72.7171 22.3993 72.8296 22.7497 72.8626 23.0937V25.6396C72.8626 25.99 72.4793 26.3961 72.0764 26.1846C68.7916 24.4606 64.4315 24.2724 60.7983 26.206C60.4271 26.4039 60.0388 26.0038 60.0388 25.6524V23.2328C60.0388 22.8452 60.0463 22.1832 60.4362 21.5931L66.842 12.3863L61.2646 12.3858C60.9235 12.3858 60.6499 12.1424 60.6476 11.785" fill="white"/>
<path fill-rule="evenodd" clip-rule="evenodd" d="M21.711 26.6858H18.4636C18.1547 26.6656 17.908 26.4332 17.8827 26.1358L17.8854 9.43982C17.8854 9.10548 18.1654 8.83897 18.512 8.83897L21.5361 8.83796C21.8526 8.85409 22.1063 9.09381 22.1261 9.39899V11.5786H22.1873C22.9753 9.47046 24.4607 8.48648 26.461 8.48648C28.4917 8.48648 29.7652 9.47046 30.6744 11.5786C31.4629 9.47046 33.2514 8.48648 35.1611 8.48648C36.5252 8.48648 38.0102 9.04859 38.9195 10.3136C39.9501 11.7193 39.7387 13.7564 39.7387 15.5487L39.7354 26.0849C39.7354 26.4179 39.4553 26.6856 39.1089 26.6856H35.8656C35.5396 26.6649 35.2833 26.4064 35.2833 26.0862L35.2823 17.2344C35.2823 16.5327 35.3429 14.7755 35.1909 14.1081C34.9487 12.9834 34.221 12.6668 33.2818 12.6668C32.4934 12.6668 31.6749 13.1939 31.3412 14.0371C31.008 14.8808 31.0381 16.2855 31.0381 17.2344V26.0848C31.0381 26.4178 30.7581 26.6855 30.4122 26.6855H27.1685C26.8423 26.6647 26.5854 26.4063 26.5854 26.086L26.5821 17.2343C26.5821 15.3722 26.8852 12.6324 24.5818 12.6324C22.2475 12.6324 22.3386 15.3019 22.3386 17.2343L22.3375 26.0847C22.3375 26.4177 22.057 26.6853 21.711 26.6853" fill="white"/>
<path fill-rule="evenodd" clip-rule="evenodd" d="M81.7312 8.48689C86.5507 8.48689 89.1572 12.6333 89.1572 17.9029C89.1572 22.9967 86.2779 27.0381 81.7312 27.0381C77.0019 27.0381 74.4251 22.8913 74.4251 17.7274C74.4251 12.5273 77.0323 8.48689 81.7312 8.48689ZM81.7602 11.8955C79.3659 11.8955 79.2143 15.1621 79.2143 17.2003C79.2143 19.238 79.1847 23.5946 81.7312 23.5946C84.2474 23.5946 84.368 20.0811 84.368 17.9387C84.368 16.5335 84.3073 14.8467 83.8823 13.5113C83.5185 12.3517 82.7909 11.8955 81.7602 11.8955Z" fill="white"/>
<path fill-rule="evenodd" clip-rule="evenodd" d="M95.4073 26.6858H92.1716C91.8469 26.6651 91.5896 26.4066 91.5896 26.0863L91.5842 9.38365C91.6111 9.0778 91.8806 8.83868 92.208 8.83868L95.22 8.83767C95.5036 8.85279 95.7374 9.04607 95.7967 9.3051V11.8593H95.858C96.7675 9.57485 98.0401 8.48619 100.283 8.48619C101.739 8.48619 103.163 9.01287 104.073 10.454C104.921 11.7889 104.921 14.0372 104.921 15.6536V26.1602C104.885 26.4557 104.62 26.6855 104.299 26.6855H101.044C100.743 26.6663 100.5 26.4448 100.466 26.1602V17.0951C100.466 15.268 100.678 12.5972 98.4348 12.5972C97.6466 12.5972 96.9191 13.1244 96.5553 13.9321C96.1005 14.9515 96.0399 15.9698 96.0399 17.0951V26.0853C96.0338 26.4183 95.7536 26.6859 95.4073 26.6859" fill="white"/>
<path fill-rule="evenodd" clip-rule="evenodd" d="M52.1387 18.7127C52.1387 19.9809 52.1685 21.0364 51.5305 22.1638C51.0141 23.0787 50.1935 23.6426 49.2827 23.6426C48.0372 23.6426 47.3084 22.6915 47.3084 21.2829C47.3084 18.5122 49.7892 18.0088 52.1387 18.0088V18.7127ZM55.4118 26.6446C55.1972 26.8379 54.8872 26.8507 54.6448 26.7203C53.5667 25.8223 53.3734 25.4075 52.7832 24.5526C51.001 26.3715 49.7387 26.9174 47.4293 26.9174C44.6958 26.9174 42.5688 25.2267 42.5688 21.847C42.5688 19.2061 43.9969 17.4103 46.0321 16.5302C47.7937 15.7551 50.2549 15.6144 52.1387 15.4028V14.9804C52.1387 14.2054 52.1993 13.2908 51.7431 12.6213C51.348 12.0227 50.5891 11.776 49.9206 11.776C48.682 11.776 47.5813 12.4116 47.3103 13.7293C47.254 14.0227 47.0406 14.313 46.7464 14.328L43.5991 13.9863C43.333 13.9261 43.0381 13.7127 43.1141 13.3058C43.8382 9.48086 47.2864 8.32553 50.3764 8.32553C51.9564 8.32553 54.0218 8.74747 55.2673 9.94525C56.8477 11.424 56.695 13.3961 56.695 15.5446V20.6118C56.695 22.1371 57.3277 22.8054 57.9208 23.6264C58.1282 23.9233 58.1745 24.2746 57.91 24.4914C57.2471 25.0485 56.0688 26.0736 55.42 26.6519L55.4121 26.6446" fill="white"/>
<path fill-rule="evenodd" clip-rule="evenodd" d="M9.56793 18.7127C9.56793 19.9809 9.59845 21.0364 8.96061 22.1638C8.44457 23.0787 7.62396 23.6426 6.7126 23.6426C5.4675 23.6426 4.73804 22.6915 4.73804 21.2829C4.73804 18.5122 7.21948 18.0088 9.56793 18.0088V18.7127ZM12.8422 26.6446C12.6276 26.8379 12.317 26.8507 12.0751 26.7203C10.9958 25.8223 10.8027 25.4075 10.2137 24.5526C8.43069 26.3715 7.16841 26.9174 4.85984 26.9174C2.12577 26.9174 -0.000640869 25.2267 -0.000640869 21.847C-0.000640869 19.2061 1.42676 17.4103 3.46242 16.5302C5.22396 15.7551 7.68506 15.6144 9.56793 15.4028V14.9804C9.56793 14.2054 9.62904 13.2908 9.17356 12.6213C8.77818 12.0227 8.01867 11.776 7.35085 11.776C6.11228 11.776 5.01054 12.4116 4.74073 13.7293C4.68441 14.0227 4.47081 14.313 4.17644 14.328L1.02927 13.9863C0.763193 13.9261 0.467669 13.7127 0.544327 13.3058C1.26746 9.48086 4.7155 8.32553 7.80662 8.32553C9.38633 8.32553 11.452 8.74747 12.6977 9.94525C14.2769 11.424 14.1255 13.3961 14.1255 15.5446V20.6118C14.1255 22.1371 14.7573 22.8054 15.3506 23.6264C15.5577 23.9233 15.605 24.2746 15.3405 24.4914C14.677 25.0485 13.4979 26.0736 12.8499 26.6519L12.8425 26.6446" fill="white"/>
<path d="M117.908 26.9531C117.432 26.9531 117.194 26.7152 117.194 26.2382V11.6189H114.554C114.077 11.6189 113.84 11.3809 113.84 10.904V10.0103C113.84 9.77241 113.893 9.5937 114 9.47418C114.108 9.3552 114.316 9.27198 114.625 9.22393L117.194 8.90228V5.97113C117.194 1.99174 119.097 0.00171471 122.903 0.00171471C123.807 0.00171471 124.759 0.132978 125.758 0.394968C126.019 0.466372 126.204 0.573542 126.311 0.716686C126.418 0.859625 126.471 1.1098 126.471 1.46722V2.3966C126.471 2.84959 126.293 3.07574 125.936 3.07574C125.722 3.07574 125.419 3.04004 125.026 2.96857C124.634 2.89703 124.188 2.86133 123.688 2.86133C122.594 2.86133 121.827 3.07021 121.387 3.48681C120.946 3.90409 120.727 4.58937 120.727 5.5421V8.83081H125.543C126.019 8.83081 126.257 9.06925 126.257 9.54565V10.904C126.257 11.3809 126.019 11.6189 125.543 11.6189H120.727V26.2382C120.727 26.7152 120.489 26.9531 120.013 26.9531H117.908Z" fill="white"/>
<path d="M134.245 27.4889C132.555 27.4889 131.259 27.0119 130.355 26.059C129.451 25.1062 128.999 23.7596 128.999 22.0198V9.54462C128.999 9.06822 129.237 8.82978 129.713 8.82978H131.818C132.294 8.82978 132.532 9.06822 132.532 9.54462V20.8759C132.532 22.1627 132.781 23.11 133.281 23.7176C133.78 24.3253 134.577 24.6291 135.672 24.6291C137.385 24.6291 139.109 24.0572 140.846 22.9133V9.54455C140.846 9.06815 141.083 8.82971 141.559 8.82971H143.665C144.14 8.82971 144.378 9.06815 144.378 9.54455V26.2371C144.378 26.7141 144.14 26.952 143.665 26.952H142.13C141.892 26.952 141.708 26.9046 141.577 26.8091C141.446 26.7141 141.357 26.5353 141.309 26.2729L141.059 25.0219C138.847 26.6661 136.575 27.4883 134.245 27.4883" fill="white"/>
<path d="M155.87 27.2028C152.491 27.2028 150.803 25.5111 150.803 22.127V11.6177H148.234C147.757 11.6177 147.52 11.3798 147.52 10.9028V10.0092C147.52 9.77126 147.573 9.59255 147.68 9.47303C147.788 9.35405 147.996 9.27083 148.305 9.22278L150.909 8.90113L151.374 4.4687C151.421 3.9923 151.671 3.75379 152.123 3.75379H153.622C154.097 3.75379 154.335 3.9923 154.335 4.4687V8.82966H158.974C159.449 8.82966 159.688 9.0681 159.688 9.5445V10.9028C159.688 11.3798 159.449 11.6177 158.974 11.6177H154.335V21.9482C154.335 22.8301 154.531 23.4495 154.924 23.8069C155.317 24.1644 155.988 24.3431 156.94 24.3431C157.392 24.3431 157.951 24.2839 158.617 24.1644C158.974 24.0928 159.211 24.0571 159.33 24.0571C159.52 24.0571 159.652 24.1108 159.723 24.218C159.795 24.3253 159.83 24.4984 159.83 24.7363V25.7014C159.83 26.0115 159.782 26.2437 159.688 26.3984C159.592 26.5537 159.402 26.6788 159.116 26.7738C158.189 27.0597 157.106 27.2026 155.87 27.2026" fill="white"/>
<path d="M168.427 27.4889C166.738 27.4889 165.441 27.0119 164.538 26.059C163.633 25.1062 163.182 23.7596 163.182 22.0198V9.54462C163.182 9.06822 163.42 8.82978 163.895 8.82978H166.001C166.476 8.82978 166.715 9.06822 166.715 9.54462V20.8759C166.715 22.1627 166.964 23.11 167.464 23.7176C167.963 24.3253 168.76 24.6291 169.855 24.6291C171.567 24.6291 173.292 24.0572 175.028 22.9133V9.54455C175.028 9.06815 175.266 8.82971 175.742 8.82971H177.847C178.323 8.82971 178.561 9.06815 178.561 9.54455V26.2371C178.561 26.7141 178.323 26.952 177.847 26.952H176.313C176.075 26.952 175.89 26.9046 175.76 26.8091C175.629 26.7141 175.539 26.5353 175.492 26.2729L175.242 25.0219C173.03 26.6661 170.758 27.4883 168.427 27.4883" fill="white"/>
<path d="M183.605 26.9531C183.13 26.9531 182.892 26.7152 182.892 26.2382V9.54559C182.892 9.06919 183.13 8.83075 183.605 8.83075H185.176C185.413 8.83075 185.597 8.87873 185.729 8.97369C185.859 9.06919 185.948 9.2479 185.996 9.50982L186.246 11.5116C186.888 10.8206 187.495 10.2728 188.066 9.86724C188.637 9.46237 189.225 9.16462 189.832 8.97369C190.438 8.78324 191.087 8.68768 191.776 8.68768C192.062 8.68768 192.348 8.69996 192.633 8.72344C193.038 8.7715 193.24 8.98591 193.24 9.36681V11.2971C193.24 11.726 193.025 11.9405 192.598 11.9405C192.383 11.9405 192.175 11.9288 191.973 11.9048C191.77 11.8813 191.55 11.869 191.313 11.869C189.41 11.869 187.78 12.441 186.425 13.5848V26.2388C186.425 26.7158 186.186 26.9537 185.711 26.9537H183.605" fill="white"/>
<path d="M206.847 16.3008C206.871 16.1103 206.883 15.8003 206.883 15.3715C206.883 13.9182 206.544 12.8217 205.867 12.0829C205.188 11.3445 204.195 10.9748 202.887 10.9748C201.389 10.9748 200.222 11.4216 199.39 12.3152C198.557 13.2089 198.081 14.5376 197.963 16.3008H206.847ZM203.422 27.489C200.496 27.489 198.284 26.6791 196.785 25.0583C195.287 23.438 194.537 21.0431 194.537 17.8734C194.537 14.8474 195.287 12.4938 196.785 10.8142C198.284 9.13411 200.377 8.29415 203.065 8.29415C205.325 8.29415 207.062 8.93192 208.275 10.2065C209.488 11.4816 210.095 13.2867 210.095 15.6218C210.095 16.3848 210.035 17.1589 209.916 17.9453C209.868 18.2313 209.791 18.4222 209.684 18.5172C209.577 18.6126 209.404 18.6602 209.167 18.6602H197.963C198.01 20.7099 198.516 22.2229 199.479 23.1998C200.443 24.1772 201.935 24.6654 203.957 24.6654C204.671 24.6654 205.355 24.6179 206.009 24.5224C206.663 24.4274 207.49 24.2246 208.489 23.9147C208.655 23.8673 208.798 23.8253 208.917 23.7896C209.036 23.7538 209.143 23.736 209.238 23.736C209.547 23.736 209.702 23.9504 209.702 24.3794V25.3803C209.702 25.6902 209.654 25.9109 209.56 26.0415C209.464 26.1728 209.262 26.3096 208.953 26.4526C208.239 26.7626 207.388 27.0122 206.401 27.2032C205.414 27.3937 204.421 27.4893 203.422 27.4893" fill="white"/>
<path d="M231.861 16.3008C231.885 16.1103 231.897 15.8003 231.897 15.3715C231.897 13.9182 231.558 12.8217 230.879 12.0829C230.202 11.3445 229.208 10.9748 227.9 10.9748C226.401 10.9748 225.236 11.4216 224.403 12.3152C223.571 13.2089 223.095 14.5376 222.976 16.3008H231.861ZM228.435 27.489C225.51 27.489 223.297 26.6791 221.799 25.0583C220.3 23.438 219.551 21.0431 219.551 17.8734C219.551 14.8474 220.3 12.4938 221.799 10.8142C223.297 9.13411 225.39 8.29415 228.078 8.29415C230.338 8.29415 232.075 8.93192 233.288 10.2065C234.501 11.4816 235.108 13.2867 235.108 15.6218C235.108 16.3848 235.048 17.1589 234.93 17.9453C234.882 18.2313 234.804 18.4222 234.697 18.5172C234.591 18.6126 234.418 18.6602 234.18 18.6602H222.976C223.024 20.7099 223.529 22.2229 224.492 23.1998C225.456 24.1772 226.948 24.6654 228.971 24.6654C229.684 24.6654 230.368 24.6179 231.022 24.5224C231.676 24.4274 232.503 24.2246 233.502 23.9147C233.668 23.8673 233.811 23.8253 233.931 23.7896C234.049 23.7538 234.156 23.736 234.251 23.736C234.56 23.736 234.715 23.9504 234.715 24.3794V25.3803C234.715 25.6902 234.668 25.9109 234.573 26.0415C234.478 26.1728 234.275 26.3096 233.966 26.4526C233.252 26.7626 232.401 27.0122 231.415 27.2032C230.427 27.3937 229.434 27.4893 228.435 27.4893" fill="white"/>
<path d="M239.352 26.9531C238.876 26.9531 238.639 26.7152 238.639 26.2382V9.54565C238.639 9.06925 238.876 8.83081 239.352 8.83081H240.922C241.16 8.83081 241.344 8.8788 241.475 8.97376C241.606 9.06925 241.695 9.24796 241.743 9.50988L241.957 10.8325C244.217 9.14079 246.596 8.29462 249.093 8.29462C250.829 8.29462 252.15 8.75361 253.054 9.67077C253.958 10.5883 254.41 11.9171 254.41 13.6563V26.2388C254.41 26.7158 254.172 26.9537 253.696 26.9537H251.591C251.115 26.9537 250.878 26.7158 250.878 26.2388V14.836C250.878 13.5733 250.622 12.6438 250.11 12.0479C249.598 11.4526 248.795 11.1543 247.702 11.1543C245.822 11.1543 243.979 11.762 242.171 12.9772V26.2387C242.171 26.7157 241.933 26.9536 241.458 26.9536H239.352" fill="white"/>
<path d="M266.434 23.7716C267.909 23.7716 269.372 23.2237 270.823 22.1273V12.7262C270.109 12.1783 269.384 11.779 268.647 11.5288C267.909 11.2785 267.1 11.1535 266.22 11.1535C263.128 11.1535 261.582 13.2625 261.582 17.4804C261.582 19.5536 261.992 21.1208 262.813 22.1808C263.633 23.2414 264.84 23.7715 266.434 23.7715V23.7716ZM265.614 34.7452C263.663 34.7452 261.843 34.3878 260.154 33.6728C259.869 33.5533 259.679 33.4227 259.584 33.2796C259.488 33.1367 259.441 32.91 259.441 32.6005V31.5639C259.441 31.135 259.584 30.9205 259.869 30.9205C260.012 30.9205 260.184 30.9563 260.387 31.0277C260.588 31.0992 260.868 31.1824 261.225 31.2779C262.699 31.6828 264.067 31.8856 265.328 31.8856C267.231 31.8856 268.623 31.4266 269.503 30.5094C270.383 29.5918 270.823 28.1201 270.823 26.0949V24.4864C270.014 25.1778 269.146 25.7079 268.218 26.0771C267.291 26.4467 266.351 26.6311 265.4 26.6311C263.877 26.6311 262.557 26.2502 261.439 25.4872C260.321 24.7249 259.464 23.6642 258.87 22.306C258.275 20.9476 257.978 19.3872 257.978 17.6233C257.978 14.7637 258.656 12.4939 260.012 10.8137C261.368 9.13367 263.187 8.2937 265.471 8.2937C267.612 8.2937 269.479 9.03257 271.073 10.5099L271.251 9.50897C271.299 9.24705 271.388 9.06834 271.519 8.97284C271.649 8.87788 271.834 8.8299 272.072 8.8299H273.606C274.082 8.8299 274.32 9.06834 274.32 9.54474V25.8445C274.32 28.6801 273.565 30.8722 272.054 32.4216C270.543 33.9704 268.397 34.745 265.614 34.745" fill="white"/>
<path d="M279.746 26.9531C279.27 26.9531 279.033 26.7152 279.033 26.2382V9.54565C279.033 9.06925 279.27 8.83081 279.746 8.83081H281.852C282.327 8.83081 282.565 9.06925 282.565 9.54565V26.2382C282.565 26.7152 282.327 26.9531 281.852 26.9531H279.746Z" fill="white"/>
<path d="M287.986 26.9531C287.51 26.9531 287.272 26.7152 287.272 26.2382V9.54565C287.272 9.06925 287.51 8.83081 287.986 8.83081H289.556C289.794 8.83081 289.978 8.8788 290.109 8.97376C290.24 9.06925 290.329 9.24796 290.376 9.50988L290.591 10.8325C292.85 9.14079 295.229 8.29462 297.727 8.29462C299.463 8.29462 300.783 8.75361 301.688 9.67077C302.592 10.5883 303.044 11.9171 303.044 13.6563V26.2388C303.044 26.7158 302.805 26.9537 302.33 26.9537H300.224C299.749 26.9537 299.511 26.7158 299.511 26.2388V14.836C299.511 13.5733 299.255 12.6438 298.744 12.0479C298.232 11.4526 297.429 11.1543 296.335 11.1543C294.456 11.1543 292.612 11.762 290.805 12.9772V26.2387C290.805 26.7157 290.566 26.9536 290.091 26.9536H287.986" fill="white"/>
<path d="M318.705 16.3006C318.729 16.1102 318.741 15.8002 318.741 15.3713C318.741 13.9181 318.402 12.8216 317.724 12.0828C317.046 11.3444 316.053 10.9747 314.744 10.9747C313.246 10.9747 312.08 11.4214 311.248 12.3151C310.415 13.2088 309.939 14.5374 309.821 16.3006H318.705ZM315.28 27.4889C312.354 27.4889 310.142 26.679 308.643 25.0581C307.145 23.4379 306.395 21.043 306.395 17.8733C306.395 14.8473 307.145 12.4937 308.643 10.814C310.142 9.13399 312.234 8.29403 314.923 8.29403C317.183 8.29403 318.919 8.9318 320.133 10.2064C321.346 11.4814 321.952 13.2866 321.952 15.6217C321.952 16.3847 321.893 17.1588 321.774 17.9451C321.726 18.2312 321.649 18.4221 321.542 18.5171C321.435 18.6125 321.262 18.66 321.025 18.66H309.821C309.868 20.7098 310.374 22.2228 311.337 23.1997C312.3 24.1771 313.793 24.6653 315.815 24.6653C316.528 24.6653 317.212 24.6178 317.867 24.5223C318.52 24.4273 319.348 24.2245 320.347 23.9145C320.513 23.8672 320.655 23.8252 320.775 23.7895C320.894 23.7537 321 23.7358 321.096 23.7358C321.404 23.7358 321.559 23.9503 321.559 24.3793V25.3802C321.559 25.6901 321.512 25.9108 321.417 26.0414C321.322 26.1727 321.12 26.3095 320.81 26.4524C320.097 26.7625 319.246 27.0121 318.259 27.2031C317.272 27.3936 316.279 27.4891 315.28 27.4891" fill="white"/>
<path d="M336.868 16.3006C336.891 16.1102 336.903 15.8002 336.903 15.3713C336.903 13.9181 336.564 12.8216 335.886 12.0828C335.208 11.3444 334.215 10.9747 332.907 10.9747C331.408 10.9747 330.243 11.4214 329.41 12.3151C328.577 13.2088 328.102 14.5374 327.983 16.3006H336.868ZM333.442 27.4889C330.516 27.4889 328.304 26.679 326.805 25.0581C325.307 23.4379 324.557 21.043 324.557 17.8733C324.557 14.8473 325.307 12.4937 326.805 10.814C328.304 9.13399 330.397 8.29403 333.086 8.29403C335.345 8.29403 337.082 8.9318 338.294 10.2064C339.508 11.4814 340.115 13.2866 340.115 15.6217C340.115 16.3847 340.055 17.1588 339.936 17.9451C339.888 18.2312 339.811 18.4221 339.704 18.5171C339.597 18.6125 339.424 18.66 339.187 18.66H327.983C328.03 20.7098 328.536 22.2228 329.5 23.1997C330.463 24.1771 331.955 24.6653 333.977 24.6653C334.691 24.6653 335.375 24.6178 336.029 24.5223C336.683 24.4273 337.51 24.2245 338.509 23.9145C338.675 23.8672 338.818 23.8252 338.937 23.7895C339.056 23.7537 339.163 23.7358 339.258 23.7358C339.567 23.7358 339.722 23.9503 339.722 24.3793V25.3802C339.722 25.6901 339.674 25.9108 339.579 26.0414C339.484 26.1727 339.281 26.3095 338.973 26.4524C338.259 26.7625 337.409 27.0121 336.422 27.2031C335.434 27.3936 334.441 27.4891 333.442 27.4891" fill="white"/>
<path d="M344.359 26.9531C343.883 26.9531 343.646 26.7152 343.646 26.2382V9.54559C343.646 9.06919 343.883 8.83075 344.359 8.83075H345.929C346.166 8.83075 346.351 8.87873 346.482 8.97369C346.612 9.06919 346.702 9.2479 346.75 9.50982L346.999 11.5116C347.642 10.8206 348.248 10.2728 348.819 9.86724C349.39 9.46237 349.979 9.16462 350.585 8.97369C351.192 8.78324 351.84 8.68768 352.53 8.68768C352.816 8.68768 353.101 8.69996 353.386 8.72344C353.791 8.7715 353.993 8.98591 353.993 9.36681V11.2971C353.993 11.726 353.779 11.9405 353.351 11.9405C353.136 11.9405 352.928 11.9288 352.726 11.9048C352.524 11.8813 352.304 11.869 352.066 11.869C350.163 11.869 348.534 12.441 347.178 13.5848V26.2388C347.178 26.7158 346.94 26.9537 346.464 26.9537H344.359" fill="white"/>
</g>
<defs>
<clipPath id="clip0_22541_2073">
<rect width="354" height="40" fill="white"/>
</clipPath>
</defs>
</svg>
