<svg width="354" height="40" viewBox="0 0 354 40" fill="none" xmlns="http://www.w3.org/2000/svg">
<g clip-path="url(#clip0_22526_2266)">
<path fill-rule="evenodd" clip-rule="evenodd" d="M65.0919 33.0966C58.9957 37.6036 50.1577 40 42.5471 40C31.8814 40 22.276 36.0502 15.0077 29.4759C14.4369 28.9594 14.9459 28.2545 15.632 28.6543C23.4736 33.2256 33.1713 35.9788 43.1876 35.9788C49.9439 35.9788 57.3713 34.574 64.2058 31.67C65.2363 31.2321 66.1004 32.3502 65.0918 33.0968" fill="#2A4092"/>
<path fill-rule="evenodd" clip-rule="evenodd" d="M67.6309 30.1953C66.8513 29.1955 62.4774 29.7215 60.5114 29.9574C59.9164 30.029 59.824 29.5077 60.3604 29.1304C63.8505 26.6751 69.5676 27.384 70.2325 28.2062C70.9022 29.0352 70.0567 34.7782 66.7866 37.5189C66.2836 37.9401 65.8052 37.7153 66.028 37.1589C66.7644 35.3179 68.4116 31.1962 67.6308 30.1954" fill="#2A4092"/>
<path fill-rule="evenodd" clip-rule="evenodd" d="M60.6474 11.7844V9.39853C60.6498 9.03518 60.922 8.7935 61.2514 8.79458L71.9252 8.7935C72.2661 8.7935 72.5402 9.0422 72.5402 9.39536V11.4415C72.5375 11.7851 72.2485 12.2325 71.7372 12.9436L66.2075 20.8518C68.2597 20.8037 70.4316 21.1121 72.2957 22.162C72.7167 22.3986 72.8292 22.7489 72.8623 23.0929V25.6389C72.8623 25.9893 72.4789 26.3954 72.0761 26.1838C68.7912 24.4598 64.4311 24.2717 60.798 26.2053C60.4267 26.4032 60.0384 26.003 60.0384 25.6517V23.232C60.0384 22.8444 60.0459 22.1825 60.4359 21.5923L66.8416 12.3856L61.2642 12.385C60.9231 12.385 60.6496 12.1417 60.6472 11.7842" fill="#2A4092"/>
<path fill-rule="evenodd" clip-rule="evenodd" d="M21.7113 26.6855H18.464C18.1551 26.6654 17.9083 26.433 17.8831 26.1355L17.8858 9.43957C17.8858 9.10523 18.1658 8.83872 18.5123 8.83872L21.5365 8.83771C21.8529 8.85384 22.1067 9.09356 22.1265 9.39874V11.5783H22.1877C22.9757 9.47021 24.4611 8.48623 26.4614 8.48623C28.4921 8.48623 29.7655 9.47021 30.6748 11.5783C31.4633 9.47021 33.2518 8.48623 35.1614 8.48623C36.5256 8.48623 38.0106 9.04834 38.9199 10.3133C39.9504 11.7191 39.7391 13.7562 39.7391 15.5484L39.7358 26.0847C39.7358 26.4177 39.4557 26.6853 39.1093 26.6853H35.866C35.5399 26.6646 35.2837 26.4061 35.2837 26.0859L35.2827 17.2341C35.2827 16.5325 35.3433 14.7753 35.1913 14.1078C34.9491 12.9831 34.2213 12.6665 33.2822 12.6665C32.4938 12.6665 31.6753 13.1937 31.3415 14.0368C31.0084 14.8806 31.0384 16.2853 31.0384 17.2341V26.0846C31.0384 26.4176 30.7585 26.6852 30.4126 26.6852H27.1689C26.8426 26.6645 26.5857 26.406 26.5857 26.0858L26.5825 17.234C26.5825 15.372 26.8855 12.6321 24.5822 12.6321C22.2478 12.6321 22.339 15.3016 22.339 17.234L22.3379 26.0844C22.3379 26.4174 22.0574 26.6851 21.7113 26.6851" fill="#2A4092"/>
<path fill-rule="evenodd" clip-rule="evenodd" d="M81.7309 8.48689C86.5505 8.48689 89.1569 12.6333 89.1569 17.9029C89.1569 22.9967 86.2776 27.0381 81.7309 27.0381C77.0017 27.0381 74.4249 22.8913 74.4249 17.7274C74.4249 12.5273 77.032 8.48689 81.7309 8.48689ZM81.7599 11.8955C79.3656 11.8955 79.2141 15.1621 79.2141 17.2003C79.2141 19.238 79.1844 23.5946 81.7309 23.5946C84.2471 23.5946 84.3677 20.0811 84.3677 17.9387C84.3677 16.5335 84.3071 14.8467 83.882 13.5113C83.5182 12.3517 82.7906 11.8955 81.7599 11.8955Z" fill="#2A4092"/>
<path fill-rule="evenodd" clip-rule="evenodd" d="M95.4067 26.6854H92.171C91.8463 26.6647 91.5889 26.4062 91.5889 26.086L91.5836 9.38329C91.6105 9.07743 91.88 8.83832 92.2074 8.83832L95.2194 8.83731C95.503 8.85242 95.7368 9.04571 95.7961 9.30473V11.8589H95.8574C96.7669 9.57448 98.0394 8.48582 100.283 8.48582C101.738 8.48582 103.163 9.0125 104.072 10.4537C104.92 11.7885 104.92 14.0368 104.92 15.6532V26.1598C104.885 26.4553 104.619 26.6851 104.299 26.6851H101.043C100.742 26.666 100.5 26.4445 100.465 26.1598V17.0948C100.465 15.2677 100.678 12.5968 98.4342 12.5968C97.646 12.5968 96.9184 13.124 96.5547 13.9317C96.0999 14.9511 96.0393 15.9694 96.0393 17.0948V26.0849C96.0332 26.4179 95.753 26.6855 95.4067 26.6855" fill="#2A4092"/>
<path fill-rule="evenodd" clip-rule="evenodd" d="M52.1389 18.7124C52.1389 19.9805 52.1687 21.036 51.5307 22.1634C51.0143 23.0783 50.1938 23.6422 49.2829 23.6422C48.0374 23.6422 47.3086 22.6911 47.3086 21.2825C47.3086 18.5119 49.7894 18.0084 52.1389 18.0084V18.7124ZM55.412 26.6443C55.1975 26.8376 54.8874 26.8504 54.645 26.7199C53.5669 25.8219 53.3736 25.4071 52.7835 24.5522C51.0012 26.3711 49.739 26.917 47.4295 26.917C44.696 26.917 42.569 25.2263 42.569 21.8466C42.569 19.2057 43.9971 17.4099 46.0323 16.5298C47.7939 15.7548 50.2551 15.614 52.1389 15.4024V14.98C52.1389 14.205 52.1995 13.2904 51.7434 12.6209C51.3482 12.0223 50.5893 11.7756 49.9209 11.7756C48.6822 11.7756 47.5816 12.4112 47.3105 13.729C47.2542 14.0223 47.0409 14.3126 46.7466 14.3276L43.5993 13.9859C43.3332 13.9257 43.0383 13.7124 43.1143 13.3055C43.8384 9.4805 47.2866 8.32516 50.3766 8.32516C51.9567 8.32516 54.022 8.7471 55.2675 9.94488C56.8479 11.4236 56.6952 13.3958 56.6952 15.5442V20.6114C56.6952 22.1367 57.3279 22.8051 57.921 23.6261C58.1285 23.9229 58.1747 24.2743 57.9102 24.491C57.2473 25.0482 56.069 26.0733 55.4202 26.6516L55.4123 26.6443" fill="#2A4092"/>
<path fill-rule="evenodd" clip-rule="evenodd" d="M9.56818 18.7124C9.56818 19.9805 9.59869 21.036 8.96085 22.1634C8.44481 23.0783 7.6242 23.6422 6.71284 23.6422C5.46774 23.6422 4.73828 22.6911 4.73828 21.2825C4.73828 18.5119 7.21972 18.0084 9.56818 18.0084V18.7124ZM12.8424 26.6443C12.6278 26.8376 12.3173 26.8504 12.0753 26.7199C10.996 25.8219 10.8029 25.4071 10.214 24.5522C8.43093 26.3711 7.16866 26.917 4.86008 26.917C2.12601 26.917 -0.000396729 25.2263 -0.000396729 21.8466C-0.000396729 19.2057 1.427 17.4099 3.46266 16.5298C5.22421 15.7548 7.6853 15.614 9.56818 15.4024V14.98C9.56818 14.205 9.62928 13.2904 9.1738 12.6209C8.77842 12.0223 8.01891 11.7756 7.35109 11.7756C6.11252 11.7756 5.01079 12.4112 4.74098 13.729C4.68466 14.0223 4.47105 14.3126 4.17669 14.3276L1.02951 13.9859C0.763437 13.9257 0.467913 13.7124 0.544571 13.3055C1.2677 9.4805 4.71574 8.32516 7.80686 8.32516C9.38658 8.32516 11.4523 8.7471 12.6979 9.94488C14.2771 11.4236 14.1257 13.3958 14.1257 15.5442V20.6114C14.1257 22.1367 14.7576 22.8051 15.3509 23.6261C15.5579 23.9229 15.6053 24.2743 15.3408 24.491C14.6773 25.0482 13.4982 26.0733 12.8502 26.6516L12.8427 26.6443" fill="#2A4092"/>
<path d="M117.908 26.9531C117.431 26.9531 117.194 26.7152 117.194 26.2382V11.6189H114.554C114.077 11.6189 113.84 11.3809 113.84 10.904V10.0103C113.84 9.77241 113.893 9.5937 114 9.47418C114.108 9.3552 114.316 9.27198 114.625 9.22393L117.194 8.90228V5.97113C117.194 1.99174 119.097 0.00171471 122.903 0.00171471C123.807 0.00171471 124.758 0.132978 125.758 0.394968C126.019 0.466372 126.204 0.573542 126.311 0.716686C126.418 0.859625 126.471 1.1098 126.471 1.46722V2.3966C126.471 2.84959 126.293 3.07574 125.936 3.07574C125.722 3.07574 125.419 3.04004 125.026 2.96857C124.634 2.89703 124.188 2.86133 123.688 2.86133C122.594 2.86133 121.827 3.07021 121.387 3.48681C120.946 3.90409 120.726 4.58937 120.726 5.5421V8.83081H125.543C126.019 8.83081 126.257 9.06925 126.257 9.54565V10.904C126.257 11.3809 126.019 11.6189 125.543 11.6189H120.726V26.2382C120.726 26.7152 120.489 26.9531 120.013 26.9531H117.908Z" fill="#2A4092"/>
<path d="M134.245 27.4893C132.555 27.4893 131.259 27.0123 130.355 26.0594C129.451 25.1066 128.999 23.76 128.999 22.0202V9.54498C128.999 9.06858 129.237 8.83014 129.713 8.83014H131.818C132.294 8.83014 132.532 9.06858 132.532 9.54498V20.8763C132.532 22.1631 132.781 23.1103 133.281 23.718C133.78 24.3257 134.577 24.6294 135.672 24.6294C137.385 24.6294 139.109 24.0575 140.846 22.9137V9.54491C140.846 9.06851 141.083 8.83007 141.559 8.83007H143.665C144.14 8.83007 144.378 9.06851 144.378 9.54491V26.2375C144.378 26.7145 144.14 26.9524 143.665 26.9524H142.13C141.892 26.9524 141.708 26.9049 141.577 26.8094C141.446 26.7145 141.357 26.5357 141.309 26.2733L141.06 25.0222C138.847 26.6665 136.575 27.4887 134.245 27.4887" fill="#2A4092"/>
<path d="M155.87 27.2031C152.491 27.2031 150.803 25.5115 150.803 22.1274V11.6181H148.234C147.757 11.6181 147.52 11.3801 147.52 10.9032V10.0095C147.52 9.77163 147.573 9.59292 147.68 9.4734C147.788 9.35441 147.996 9.2712 148.305 9.22315L150.909 8.9015L151.374 4.46907C151.421 3.99267 151.671 3.75416 152.123 3.75416H153.622C154.097 3.75416 154.335 3.99267 154.335 4.46907V8.83003H158.974C159.449 8.83003 159.687 9.06847 159.687 9.54486V10.9032C159.687 11.3801 159.449 11.6181 158.974 11.6181H154.335V21.9485C154.335 22.8304 154.531 23.4498 154.924 23.8073C155.317 24.1648 155.988 24.3434 156.94 24.3434C157.392 24.3434 157.951 24.2843 158.617 24.1648C158.974 24.0932 159.211 24.0575 159.33 24.0575C159.52 24.0575 159.652 24.1111 159.723 24.2184C159.795 24.3256 159.83 24.4987 159.83 24.7366V25.7018C159.83 26.0118 159.782 26.2441 159.687 26.3988C159.592 26.5541 159.402 26.6792 159.116 26.7742C158.189 27.06 157.106 27.203 155.87 27.203" fill="#2A4092"/>
<path d="M168.427 27.4893C166.738 27.4893 165.441 27.0123 164.538 26.0594C163.633 25.1066 163.182 23.76 163.182 22.0202V9.54498C163.182 9.06858 163.42 8.83014 163.895 8.83014H166.001C166.476 8.83014 166.715 9.06858 166.715 9.54498V20.8763C166.715 22.1631 166.964 23.1103 167.464 23.718C167.963 24.3257 168.76 24.6294 169.855 24.6294C171.567 24.6294 173.292 24.0575 175.028 22.9137V9.54491C175.028 9.06851 175.266 8.83007 175.742 8.83007H177.847C178.323 8.83007 178.561 9.06851 178.561 9.54491V26.2375C178.561 26.7145 178.323 26.9524 177.847 26.9524H176.313C176.075 26.9524 175.89 26.9049 175.76 26.8094C175.629 26.7145 175.539 26.5357 175.492 26.2733L175.242 25.0222C173.03 26.6665 170.758 27.4887 168.427 27.4887" fill="#2A4092"/>
<path d="M183.605 26.9534C183.129 26.9534 182.892 26.7155 182.892 26.2385V9.54596C182.892 9.06956 183.129 8.83112 183.605 8.83112H185.175C185.413 8.83112 185.597 8.8791 185.728 8.97406C185.859 9.06955 185.948 9.24826 185.996 9.51018L186.246 11.512C186.888 10.821 187.495 10.2731 188.065 9.8676C188.637 9.46274 189.225 9.16498 189.832 8.97406C190.438 8.78361 191.086 8.68804 191.776 8.68804C192.062 8.68804 192.347 8.70032 192.633 8.72381C193.037 8.77186 193.239 8.98627 193.239 9.36718V11.2975C193.239 11.7264 193.025 11.9409 192.597 11.9409C192.383 11.9409 192.174 11.9292 191.973 11.9051C191.77 11.8817 191.55 11.8694 191.313 11.8694C189.409 11.8694 187.78 12.4413 186.424 13.5851V26.2392C186.424 26.7162 186.186 26.9541 185.71 26.9541H183.605" fill="#2A4092"/>
<path d="M206.847 16.3008C206.871 16.1103 206.883 15.8003 206.883 15.3715C206.883 13.9182 206.544 12.8217 205.866 12.0829C205.188 11.3445 204.195 10.9748 202.887 10.9748C201.388 10.9748 200.222 11.4216 199.39 12.3152C198.557 13.2089 198.081 14.5376 197.963 16.3008H206.847ZM203.422 27.489C200.496 27.489 198.284 26.6791 196.785 25.0583C195.287 23.438 194.537 21.0431 194.537 17.8734C194.537 14.8474 195.287 12.4938 196.785 10.8142C198.284 9.13411 200.377 8.29415 203.065 8.29415C205.325 8.29415 207.061 8.93192 208.275 10.2065C209.488 11.4816 210.094 13.2867 210.094 15.6218C210.094 16.3848 210.034 17.1589 209.916 17.9453C209.868 18.2313 209.791 18.4222 209.684 18.5172C209.577 18.6126 209.404 18.6602 209.167 18.6602H197.963C198.01 20.7099 198.516 22.2229 199.479 23.1998C200.443 24.1772 201.935 24.6654 203.957 24.6654C204.671 24.6654 205.354 24.6179 206.009 24.5224C206.663 24.4274 207.49 24.2246 208.489 23.9147C208.655 23.8673 208.798 23.8253 208.917 23.7896C209.035 23.7538 209.142 23.736 209.238 23.736C209.547 23.736 209.702 23.9504 209.702 24.3794V25.3803C209.702 25.6902 209.654 25.9109 209.559 26.0415C209.464 26.1728 209.262 26.3096 208.952 26.4526C208.239 26.7626 207.388 27.0122 206.401 27.2032C205.414 27.3937 204.421 27.4893 203.422 27.4893" fill="#2A4092"/>
<path d="M231.861 16.3008C231.884 16.1103 231.897 15.8003 231.897 15.3715C231.897 13.9182 231.558 12.8217 230.879 12.0829C230.202 11.3445 229.208 10.9748 227.9 10.9748C226.401 10.9748 225.236 11.4216 224.403 12.3152C223.571 13.2089 223.095 14.5376 222.976 16.3008H231.861ZM228.435 27.489C225.509 27.489 223.297 26.6791 221.799 25.0583C220.3 23.438 219.551 21.0431 219.551 17.8734C219.551 14.8474 220.3 12.4938 221.799 10.8142C223.297 9.13411 225.39 8.29415 228.078 8.29415C230.338 8.29415 232.075 8.93192 233.288 10.2065C234.501 11.4816 235.108 13.2867 235.108 15.6218C235.108 16.3848 235.048 17.1589 234.93 17.9453C234.882 18.2313 234.804 18.4222 234.697 18.5172C234.591 18.6126 234.418 18.6602 234.18 18.6602H222.976C223.024 20.7099 223.529 22.2229 224.492 23.1998C225.456 24.1772 226.948 24.6654 228.971 24.6654C229.684 24.6654 230.368 24.6179 231.022 24.5224C231.676 24.4274 232.503 24.2246 233.502 23.9147C233.668 23.8673 233.811 23.8253 233.93 23.7896C234.049 23.7538 234.156 23.736 234.251 23.736C234.56 23.736 234.715 23.9504 234.715 24.3794V25.3803C234.715 25.6902 234.667 25.9109 234.572 26.0415C234.477 26.1728 234.275 26.3096 233.966 26.4526C233.252 26.7626 232.401 27.0122 231.415 27.2032C230.427 27.3937 229.434 27.4893 228.435 27.4893" fill="#2A4092"/>
<path d="M239.352 26.9535C238.876 26.9535 238.639 26.7156 238.639 26.2386V9.54602C238.639 9.06962 238.876 8.83118 239.352 8.83118H240.922C241.16 8.83118 241.344 8.87916 241.475 8.97412C241.606 9.06961 241.695 9.24832 241.743 9.51025L241.957 10.8328C244.217 9.14115 246.596 8.29498 249.093 8.29498C250.829 8.29498 252.15 8.75397 253.054 9.67114C253.958 10.5887 254.41 11.9175 254.41 13.6567V26.2392C254.41 26.7162 254.172 26.9541 253.696 26.9541H251.591C251.115 26.9541 250.878 26.7162 250.878 26.2392V14.8364C250.878 13.5737 250.622 12.6442 250.11 12.0483C249.598 11.453 248.795 11.1547 247.702 11.1547C245.822 11.1547 243.978 11.7624 242.171 12.9776V26.2391C242.171 26.7161 241.933 26.954 241.458 26.954H239.352" fill="#2A4092"/>
<path d="M266.434 23.7715C267.909 23.7715 269.372 23.2236 270.823 22.1272V12.7261C270.109 12.1782 269.384 11.7788 268.647 11.5287C267.909 11.2784 267.1 11.1533 266.22 11.1533C263.128 11.1533 261.582 13.2624 261.582 17.4802C261.582 19.5535 261.992 21.1206 262.812 22.1807C263.633 23.2413 264.84 23.7714 266.434 23.7714V23.7715ZM265.614 34.7451C263.663 34.7451 261.843 34.3876 260.154 33.6727C259.869 33.5532 259.679 33.4225 259.584 33.2795C259.488 33.1366 259.441 32.9098 259.441 32.6004V31.5638C259.441 31.1349 259.584 30.9203 259.869 30.9203C260.011 30.9203 260.184 30.9562 260.387 31.0276C260.588 31.0991 260.868 31.1823 261.225 31.2778C262.699 31.6827 264.067 31.8855 265.328 31.8855C267.231 31.8855 268.622 31.4264 269.503 30.5093C270.383 29.5917 270.823 28.12 270.823 26.0948V24.4863C270.014 25.1777 269.146 25.7077 268.218 26.077C267.29 26.4466 266.351 26.631 265.399 26.631C263.877 26.631 262.556 26.2501 261.439 25.4871C260.321 24.7248 259.464 23.6641 258.87 22.3059C258.275 20.9475 257.977 19.387 257.977 17.6232C257.977 14.7636 258.656 12.4938 260.011 10.8136C261.367 9.13354 263.187 8.29358 265.471 8.29358C267.612 8.29358 269.479 9.03244 271.073 10.5098L271.251 9.50884C271.299 9.24692 271.388 9.06821 271.519 8.97272C271.649 8.87776 271.834 8.82978 272.072 8.82978H273.606C274.082 8.82978 274.32 9.06821 274.32 9.54461V25.8444C274.32 28.68 273.564 30.8721 272.054 32.4215C270.543 33.9703 268.397 34.7449 265.614 34.7449" fill="#2A4092"/>
<path d="M279.746 26.9531C279.27 26.9531 279.033 26.7152 279.033 26.2382V9.54565C279.033 9.06925 279.27 8.83081 279.746 8.83081H281.851C282.327 8.83081 282.565 9.06925 282.565 9.54565V26.2382C282.565 26.7152 282.327 26.9531 281.851 26.9531H279.746Z" fill="#2A4092"/>
<path d="M287.985 26.9535C287.51 26.9535 287.272 26.7156 287.272 26.2386V9.54602C287.272 9.06962 287.51 8.83118 287.985 8.83118H289.556C289.794 8.83118 289.977 8.87916 290.109 8.97412C290.239 9.06961 290.328 9.24832 290.376 9.51025L290.59 10.8328C292.85 9.14115 295.229 8.29498 297.727 8.29498C299.463 8.29498 300.783 8.75397 301.687 9.67114C302.591 10.5887 303.043 11.9175 303.043 13.6567V26.2392C303.043 26.7162 302.805 26.9541 302.329 26.9541H300.224C299.748 26.9541 299.511 26.7162 299.511 26.2392V14.8364C299.511 13.5737 299.255 12.6442 298.743 12.0483C298.232 11.453 297.429 11.1547 296.335 11.1547C294.455 11.1547 292.612 11.7624 290.805 12.9776V26.2391C290.805 26.7161 290.566 26.954 290.091 26.954H287.985" fill="#2A4092"/>
<path d="M318.705 16.3008C318.729 16.1103 318.741 15.8003 318.741 15.3715C318.741 13.9182 318.402 12.8217 317.724 12.0829C317.046 11.3445 316.053 10.9748 314.745 10.9748C313.247 10.9748 312.08 11.4216 311.248 12.3152C310.415 13.2089 309.939 14.5376 309.821 16.3008H318.705ZM315.28 27.489C312.354 27.489 310.142 26.6791 308.643 25.0583C307.145 23.438 306.395 21.0431 306.395 17.8734C306.395 14.8474 307.145 12.4938 308.643 10.8142C310.142 9.13411 312.235 8.29415 314.923 8.29415C317.183 8.29415 318.92 8.93192 320.133 10.2065C321.346 11.4816 321.952 13.2867 321.952 15.6218C321.952 16.3848 321.893 17.1589 321.774 17.9453C321.726 18.2313 321.649 18.4222 321.542 18.5172C321.435 18.6126 321.262 18.6602 321.025 18.6602H309.821C309.868 20.7099 310.374 22.2229 311.337 23.1998C312.301 24.1772 313.793 24.6654 315.815 24.6654C316.529 24.6654 317.212 24.6179 317.867 24.5224C318.521 24.4274 319.348 24.2246 320.347 23.9147C320.513 23.8673 320.656 23.8253 320.775 23.7896C320.894 23.7538 321.001 23.736 321.096 23.736C321.405 23.736 321.56 23.9504 321.56 24.3794V25.3803C321.56 25.6902 321.512 25.9109 321.418 26.0415C321.322 26.1728 321.12 26.3096 320.811 26.4526C320.097 26.7626 319.246 27.0122 318.259 27.2032C317.272 27.3937 316.279 27.4893 315.28 27.4893" fill="#2A4092"/>
<path d="M336.868 16.3008C336.891 16.1103 336.903 15.8003 336.903 15.3715C336.903 13.9182 336.565 12.8217 335.886 12.0829C335.208 11.3445 334.215 10.9748 332.907 10.9748C331.408 10.9748 330.243 11.4216 329.41 12.3152C328.577 13.2089 328.102 14.5376 327.983 16.3008H336.868ZM333.442 27.489C330.516 27.489 328.304 26.6791 326.806 25.0583C325.307 23.438 324.557 21.0431 324.557 17.8734C324.557 14.8474 325.307 12.4938 326.806 10.8142C328.304 9.13411 330.397 8.29415 333.086 8.29415C335.345 8.29415 337.082 8.93192 338.295 10.2065C339.508 11.4816 340.115 13.2867 340.115 15.6218C340.115 16.3848 340.055 17.1589 339.936 17.9453C339.888 18.2313 339.811 18.4222 339.705 18.5172C339.597 18.6126 339.424 18.6602 339.187 18.6602H327.983C328.03 20.7099 328.536 22.2229 329.5 23.1998C330.463 24.1772 331.955 24.6654 333.978 24.6654C334.691 24.6654 335.375 24.6179 336.029 24.5224C336.683 24.4274 337.51 24.2246 338.509 23.9147C338.675 23.8673 338.818 23.8253 338.937 23.7896C339.056 23.7538 339.163 23.736 339.258 23.736C339.567 23.736 339.722 23.9504 339.722 24.3794V25.3803C339.722 25.6902 339.674 25.9109 339.579 26.0415C339.484 26.1728 339.281 26.3096 338.973 26.4526C338.259 26.7626 337.409 27.0122 336.422 27.2032C335.434 27.3937 334.441 27.4893 333.442 27.4893" fill="#2A4092"/>
<path d="M344.359 26.9534C343.883 26.9534 343.646 26.7155 343.646 26.2385V9.54596C343.646 9.06956 343.883 8.83112 344.359 8.83112H345.929C346.167 8.83112 346.351 8.8791 346.482 8.97406C346.613 9.06955 346.702 9.24826 346.75 9.51018L346.999 11.512C347.642 10.821 348.248 10.2731 348.82 9.8676C349.39 9.46274 349.979 9.16498 350.585 8.97406C351.192 8.78361 351.84 8.68804 352.53 8.68804C352.816 8.68804 353.101 8.70032 353.386 8.72381C353.791 8.77186 353.993 8.98627 353.993 9.36718V11.2975C353.993 11.7264 353.779 11.9409 353.351 11.9409C353.136 11.9409 352.928 11.9292 352.726 11.9051C352.524 11.8817 352.304 11.8694 352.066 11.8694C350.163 11.8694 348.534 12.4413 347.178 13.5851V26.2392C347.178 26.7162 346.94 26.9541 346.464 26.9541H344.359" fill="#2A4092"/>
</g>
<defs>
<clipPath id="clip0_22526_2266">
<rect width="354" height="40" fill="white"/>
</clipPath>
</defs>
</svg>
