<svg width="56" height="56" viewBox="0 0 56 56" fill="none" xmlns="http://www.w3.org/2000/svg">
<g id="reshot-icon-user-G3RUDHZMQ6 1" clip-path="url(#clip0_22309_2826)">
<path id="Vector" d="M28 0C22.4621 0 17.0486 1.64217 12.444 4.71885C7.83947 7.79553 4.25064 12.1685 2.13139 17.2849C0.0121319 22.4012 -0.542361 28.0311 0.538025 33.4625C1.61841 38.894 4.28515 43.8831 8.20102 47.799C12.1169 51.7149 17.106 54.3816 22.5375 55.462C27.969 56.5424 33.5988 55.9879 38.7151 53.8686C43.8315 51.7494 48.2045 48.1605 51.2812 43.556C54.3578 38.9514 56 33.5379 56 28C56 20.5739 53.05 13.452 47.799 8.20101C42.548 2.94999 35.4261 0 28 0ZM28 52.5C24.5727 52.4924 21.1851 51.7658 18.0561 50.3671C14.9271 48.9684 12.1264 46.9288 9.83501 44.38C11.3083 42.5074 13.4325 41.2579 15.785 40.88C17.3055 40.6294 18.8124 40.3023 20.3 39.9C21.4701 39.7471 22.5928 39.341 23.59 38.71C23.5525 37.8117 23.2204 36.9508 22.645 36.26C21.1639 35.0454 19.9783 33.5099 19.1779 31.7697C18.3776 30.0294 17.9833 28.13 18.025 26.215C17.7904 23.3113 18.7036 20.4313 20.5686 18.1934C22.4335 15.9554 25.1016 14.5378 28 14.245C30.9047 14.5293 33.5816 15.9432 35.4539 18.1821C37.3262 20.421 38.2442 23.3058 38.01 26.215C38.0597 28.1362 37.6692 30.0434 36.8684 31.7905C36.0677 33.5377 34.8778 35.0784 33.39 36.295C32.8125 36.9709 32.4796 37.8217 32.445 38.71C33.4541 39.2687 34.5575 39.6365 35.7 39.795C37.1758 40.153 38.6719 40.4218 40.18 40.6C41.3993 40.7387 42.5786 41.1197 43.6485 41.7208C44.7184 42.3219 45.6573 43.1308 46.41 44.1C44.1167 46.7306 41.2878 48.8408 38.1128 50.2895C34.9378 51.7382 31.4899 52.4918 28 52.5Z" fill="#29458C"/>
</g>
<defs>
<clipPath id="clip0_22309_2826">
<rect width="56" height="56" fill="white"/>
</clipPath>
</defs>
</svg>
