<svg width="160" height="160" viewBox="0 0 160 160" fill="none" xmlns="http://www.w3.org/2000/svg">
<g id="Bad Connection 3 1">
<g id="clouds">
<path id="Vector" d="M15.1374 57.1527C15.8222 53.2647 20.1614 50.4487 23.9918 51.4055C23.147 49.4343 23.6846 46.9543 25.2686 45.5111C26.8526 44.0679 29.371 43.7607 31.2558 44.7847C31.6366 39.4119 36.5998 34.7719 41.9854 34.7559C47.371 34.7399 52.363 39.3511 52.7758 44.7207C56.1934 44.1031 59.8382 46.8583 60.1742 50.3175C61.9598 48.0839 65.5566 48.0359 67.9662 49.5719C70.3758 51.1111 71.7934 53.8055 72.7438 56.5031C73.5822 58.8839 74.0334 61.8247 72.331 63.6839C69.8222 66.4295 65.371 65.9143 61.6526 65.9143C49.1822 65.9143 36.7118 65.9783 24.2414 65.9143C19.4574 65.8887 14.1518 62.7271 15.1342 57.1559L15.1374 57.1527Z" fill="#E6E7E8"/>
<path id="Vector_2" d="M129.526 38.2211C129.149 36.0835 126.762 34.5347 124.656 35.0595C125.12 33.9747 124.826 32.6115 123.952 31.8179C123.082 31.0243 121.696 30.8547 120.659 31.4179C120.451 28.4643 117.718 25.9107 114.758 25.9043C111.798 25.8947 109.05 28.4323 108.826 31.3827C106.944 31.0435 104.941 32.5571 104.758 34.4611C103.776 33.2323 101.798 33.2067 100.474 34.0515C99.1488 34.8963 98.368 36.3811 97.8464 37.8627C97.3856 39.1715 97.136 40.7875 98.0736 41.8115C99.4528 43.3219 101.901 43.0371 103.946 43.0371C110.803 43.0371 117.661 43.0723 124.518 43.0371C127.149 43.0243 130.067 41.2835 129.526 38.2211Z" fill="#E6E7E8"/>
</g>
<g id="ai">
<g id="Group">
<path id="Vector_3" d="M149.573 52.9469C151.521 53.0045 153.637 53.1805 155.083 54.4861C156.824 56.0573 156.997 58.6845 157.045 61.0301C157.089 63.2541 157.137 65.4813 157.182 67.7053C157.211 69.0781 157.237 70.4637 156.955 71.8077C156.673 73.1517 156.046 74.4669 154.974 75.3277C153.313 76.6653 150.977 76.6589 148.846 76.5885C142.232 76.3709 135.617 76.1533 129.003 75.9357C127.662 75.8909 126.302 75.8461 125.013 75.4685C123.723 75.0941 122.491 74.3485 121.803 73.1965C120.92 71.7149 121.073 69.8589 121.256 68.1405C121.573 65.1677 121.886 62.1949 122.206 59.2221C122.389 57.5261 122.632 55.8973 124.334 55.1229C126.398 54.1853 129.07 54.1245 131.288 53.8397C134.181 53.4685 137.086 53.2061 139.998 53.0525C141.608 52.9661 143.221 52.9149 144.833 52.8989C146.261 52.8829 148.197 53.2797 149.566 52.9437L149.573 52.9469Z" fill="#D6B2A4"/>
<path id="Vector_4" d="M122.676 78.4477C122.388 78.6141 122.087 78.7805 121.755 78.8221C121.422 78.8637 121.051 78.7485 120.881 78.4637C120.695 78.1533 120.795 77.7597 120.903 77.4141C121.329 76.0893 121.854 74.7965 122.475 73.5485C122.663 73.1709 122.871 72.7837 123.22 72.5501C124.359 71.7757 127.969 72.7069 127.761 74.4189C127.547 76.1693 124.023 77.6765 122.676 78.4509V78.4477Z" fill="#D6B2A4"/>
</g>
<g id="wifi">
<path id="Vector_5" d="M137.889 64.7168C136.461 64.9152 135.217 65.8528 134.353 67.0048C133.652 67.9392 133.146 69.1424 133.473 70.2656C133.668 70.944 134.151 71.5136 134.717 71.9424C135.799 72.7616 137.226 73.1168 138.564 72.896C139.905 72.6752 141.14 71.8848 141.905 70.7584C142.346 70.1056 142.634 69.3312 142.618 68.544C142.57 66.4192 139.927 64.432 137.892 64.7168H137.889Z" fill="#FFDE91"/>
<path id="Vector_6" d="M130.594 64.2171C132.741 62.3963 135.682 61.5483 138.469 61.9451C141.256 62.3419 143.845 63.9739 145.403 66.3195C146.392 65.2699 147.381 64.2235 148.37 63.1739C146.757 60.0091 143.115 58.2395 139.566 58.0987C137.006 57.9963 134.482 58.6299 132.12 59.5771C131.31 59.9003 129.896 60.2683 129.56 61.1931C129.342 61.7883 130.632 64.1851 130.59 64.2235L130.594 64.2171Z" fill="#FFDE91"/>
<path id="Vector_7" d="M127.864 57.4144C131.41 55.1136 135.758 54.0768 139.96 54.5344C144.162 54.992 148.187 56.9344 151.154 59.9424C152.181 59.1552 153.205 58.3648 154.232 57.5776C151.595 53.0368 146.139 50.736 140.894 50.512C137.432 50.3648 133.998 50.9824 130.658 51.84C129.528 52.128 126.763 52.4 125.995 53.3152C125.179 54.2912 127.883 57.4016 127.867 57.4144H127.864Z" fill="#FFDE91"/>
</g>
<g id="actions">
<path id="Vector_8" d="M138.29 62.9435C138.255 64.1595 139.451 64.2075 139.771 63.0011C139.775 62.9851 139.778 62.9723 139.784 62.9563C141.554 56.2395 143.343 49.4171 143.803 42.5979C143.944 40.5211 142.875 40.2843 142.095 42.2139C141.339 44.0827 140.811 46.2171 140.325 48.1915C139.33 52.2203 138.683 56.3419 138.411 60.4155C138.354 61.2603 138.315 62.1051 138.29 62.9467V62.9435Z" fill="#3C4368"/>
<path id="Vector_9" d="M137.757 66.7579C137.174 67.0747 136.8 67.7019 136.867 68.3611C136.867 68.3643 136.867 68.3675 136.867 68.3739C136.909 68.7675 137.094 69.1675 137.437 69.3723C137.782 69.5803 138.234 69.5483 138.602 69.3851C139.142 69.1451 139.546 68.6203 139.645 68.0379C139.728 67.5419 139.578 66.6299 139.024 66.4283C138.685 66.3035 138.198 66.5179 137.757 66.7579Z" fill="#3C4368"/>
</g>
</g>
<g id="ground">
<path id="Vector_10" d="M154.004 120.28C129.056 120.082 104.109 120.015 79.1588 119.967C78.3876 119.951 77.6164 119.935 76.8452 119.919C72.8356 119.842 68.8228 119.778 64.8132 119.727C62.7332 119.583 60.154 119.455 58.5892 119.659C56.6948 119.643 54.8004 119.627 52.906 119.615C37.1652 119.519 21.4212 119.621 5.67395 119.928C4.53475 119.951 3.07235 120.287 2.83555 121.695C2.53155 123.503 4.53795 124.296 6.00035 124.309C30.9412 124.504 55.882 124.562 80.8228 124.603C81.6004 124.619 82.378 124.639 83.1555 124.651C87.2067 124.728 91.2579 124.795 95.3092 124.847C97.3347 124.984 99.7924 125.103 101.335 124.914C103.255 124.933 105.175 124.949 107.095 124.959C122.836 125.058 138.58 124.959 154.327 124.655C155.466 124.632 156.928 124.296 157.165 122.888C157.472 121.08 155.466 120.287 154 120.274L154.004 120.28Z" fill="#E6E7E8"/>
</g>
<g id="cactus">
<g id="cactus-2">
<path id="Vector_11" d="M128.085 97.5047C128.367 96.5031 128.693 95.4887 129.32 94.6599C129.947 93.8311 130.933 93.2039 131.973 93.2615C133 93.3191 133.903 94.0327 134.431 94.9159C134.959 95.7991 135.163 96.8327 135.301 97.8503C135.707 100.826 135.608 103.841 135.509 106.842C135.346 111.85 135.179 116.855 135.016 121.863C134.952 123.825 134.747 126.068 133.167 127.229C132.127 127.997 130.696 128.077 129.458 127.709C126.895 126.948 126.693 125.86 126.568 123.501C126.411 120.583 126.223 117.671 126.187 114.746C126.117 108.954 126.517 103.105 128.085 97.5047Z" fill="#FFDE91"/>
<path id="Vector_12" d="M138.065 107.098C138.484 105.696 138.356 104.183 138.686 102.756C139.015 101.328 140.065 99.8595 141.53 99.8467C142.401 99.8403 143.21 100.372 143.719 101.076C144.228 101.78 144.481 102.637 144.647 103.492C145.242 106.567 144.794 109.904 143.07 112.522C141.345 115.14 138.276 116.916 135.146 116.743C132.986 116.624 128.993 113.904 131.71 111.744C132.714 110.948 134.234 111.005 135.354 110.375C136.618 109.661 137.649 108.5 138.068 107.095L138.065 107.098Z" fill="#FFDE91"/>
<path id="Vector_13" d="M124.945 97.307C123.755 96.1614 121.649 96.3086 120.475 97.4702C119.3 98.6318 119.07 100.558 119.736 102.069C120.401 103.579 121.841 104.667 123.425 105.137C124.628 105.496 125.982 105.515 127.096 104.933C128.51 104.193 129.566 102.494 128.34 101.339C127.745 100.779 127.07 100.654 126.539 99.915C125.94 99.0798 125.71 98.0398 124.948 97.307H124.945Z" fill="#FFDE91"/>
<path id="Vector_14" d="M129.032 124.362C128.952 124.362 128.885 124.304 128.872 124.221C127.663 114.663 128.395 104.711 130.987 95.4339C131.01 95.3475 131.099 95.2995 131.186 95.3219C131.272 95.3443 131.32 95.4339 131.298 95.5203C128.715 104.755 127.986 114.669 129.192 124.183C129.202 124.269 129.141 124.349 129.055 124.362C129.048 124.362 129.042 124.362 129.035 124.362H129.032Z" fill="white"/>
<path id="Vector_15" d="M132.075 112.519C132.075 112.519 132.065 112.519 132.062 112.519C131.972 112.512 131.908 112.432 131.915 112.346L132.468 105.876C132.474 105.786 132.554 105.719 132.641 105.728C132.73 105.735 132.794 105.815 132.788 105.901L132.235 112.372C132.228 112.455 132.158 112.519 132.075 112.519Z" fill="white"/>
</g>
<g id="cactus-3">
<path id="Vector_16" d="M31.7947 83.0757C31.3787 81.5909 30.8923 80.0869 29.9611 78.8581C29.0299 77.6293 27.5707 76.7013 26.0283 76.7845C24.5051 76.8677 23.1675 77.9301 22.3867 79.2389C21.6059 80.5477 21.2987 82.0805 21.0939 83.5909C20.4923 88.0005 20.6363 92.4741 20.7835 96.9253C21.0267 104.349 21.2699 111.773 21.5131 119.194C21.6091 122.103 21.9099 125.428 24.2523 127.152C25.7947 128.288 27.9163 128.407 29.7531 127.863C33.5547 126.733 33.8523 125.12 34.0411 121.62C34.2715 117.293 34.5531 112.973 34.6075 108.637C34.7131 100.045 34.1179 91.3765 31.7947 83.0725V83.0757Z" fill="#FFDE91"/>
<path id="Vector_17" d="M16.9981 97.2999C16.3741 95.2199 16.5661 92.9767 16.0797 90.8615C15.5933 88.7463 14.0349 86.5671 11.8621 86.5479C10.5725 86.5383 9.37251 87.3255 8.61411 88.3719C7.85891 89.4151 7.48451 90.6887 7.24131 91.9559C6.35811 96.5159 7.02371 101.466 9.57731 105.345C12.1341 109.223 16.6877 111.86 21.3245 111.604C24.5245 111.428 30.4509 107.396 26.4189 104.193C24.9277 103.009 22.6717 103.098 21.0173 102.161C19.1453 101.102 17.6189 99.3799 16.9949 97.2999H16.9981Z" fill="#FFDE91"/>
<path id="Vector_18" d="M36.4471 82.7815C38.2135 81.0855 41.3367 81.2999 43.0775 83.0215C44.8183 84.7431 45.1607 87.6007 44.1751 89.8407C43.1895 92.0807 41.0519 93.6935 38.7063 94.3911C36.9207 94.9223 34.9143 94.9511 33.2631 94.0871C31.1639 92.9895 29.6023 90.4711 31.4199 88.7591C32.2999 87.9271 33.3015 87.7447 34.0887 86.6503C34.9783 85.4119 35.3207 83.8663 36.4471 82.7815Z" fill="#FFDE91"/>
<path id="Vector_19" d="M30.3922 122.822C30.3922 122.822 30.3794 122.822 30.373 122.822C30.2866 122.813 30.2226 122.73 30.2354 122.643C32.021 108.525 30.9426 93.8177 27.109 80.1121C27.0866 80.0257 27.1346 79.9393 27.221 79.9137C27.3042 79.8913 27.3938 79.9393 27.4194 80.0257C31.2626 93.7729 32.3474 108.522 30.5522 122.682C30.5426 122.762 30.4722 122.822 30.3922 122.822Z" fill="white"/>
<path id="Vector_20" d="M25.8774 105.259C25.7942 105.259 25.7238 105.195 25.7174 105.111L24.895 95.5145C24.8886 95.4281 24.9526 95.3481 25.0422 95.3417C25.1286 95.3321 25.2086 95.3993 25.215 95.4889L26.0374 105.086C26.0438 105.172 25.9798 105.252 25.8902 105.259C25.887 105.259 25.8806 105.259 25.8774 105.259Z" fill="white"/>
</g>
</g>
<g id="dino_404">
<path id="Vector_21" d="M83.0976 115.734C83.2256 115.203 83.36 114.662 83.6672 114.211C83.9744 113.76 84.4928 113.411 85.0368 113.466C85.6576 113.526 86.1312 114.102 86.2752 114.71C86.4192 115.318 86.3008 115.955 86.1728 116.566C85.4656 119.917 84.3968 123.19 82.9856 126.31C84.2784 126.624 85.6416 126.282 86.9664 126.432C88.288 126.582 89.7376 127.597 89.5264 128.912C89.3888 129.76 88.5792 130.371 87.7376 130.547C86.896 130.723 86.0256 130.557 85.184 130.39C83.6928 130.096 82.2016 129.802 80.7104 129.507C78.1504 129.002 80.4128 126.269 80.8992 124.733C81.8208 121.811 82.3744 118.717 83.0976 115.738V115.734Z" fill="#3C4368"/>
<path id="Vector_22" d="M102.742 71.9082C103.343 70.673 104.028 69.3546 105.26 68.7498C106.902 67.9434 108.847 68.6922 110.675 68.6506C111.734 68.6282 112.78 68.3338 113.836 68.4106C114.892 68.4874 116.031 69.105 116.217 70.145C116.345 70.8714 115.98 71.5882 115.628 72.2346C113.782 75.6202 111.935 79.0058 110.092 82.3914C109.571 83.3514 109.027 84.3338 108.182 85.0314C106.623 86.3178 104.377 86.3466 102.393 85.9562C101.116 85.7034 99.001 85.5306 97.8778 84.9162C96.1882 83.9946 97.1034 83.4698 98.0186 81.601C99.5962 78.369 101.171 75.137 102.748 71.905L102.742 71.9082Z" fill="#AF93A2"/>
<path id="Vector_23" d="M55.5147 43.0439C51.5179 43.1559 50.6443 48.9063 54.3851 50.3239C55.1499 50.6119 55.9723 50.7239 56.7947 50.5959C54.0811 50.9351 51.5691 53.0823 51.2235 55.7959C50.8779 58.5095 53.1147 61.3959 55.8475 61.3703C52.9291 61.6967 50.5355 64.5607 50.7275 67.4887C50.9195 70.4167 53.6651 72.9447 56.5995 72.8903C54.0459 73.5143 52.1579 76.1735 52.4075 78.7911C52.6571 81.4087 55.0187 83.6583 57.6427 83.7863C55.3035 84.4807 53.4795 86.66 53.2107 89.0856C52.9387 91.5112 54.2379 94.0391 56.3659 95.2327C54.5067 93.6743 51.4251 95.1303 50.4875 97.3671C49.5499 99.6039 50.0843 102.154 50.6315 104.519C50.0715 103.185 49.4891 101.815 48.3019 100.906C47.7835 100.51 47.1627 100.241 46.5099 100.209C44.5067 100.106 43.4187 102.017 42.9995 103.777C42.6347 105.31 42.5387 106.967 41.6587 108.273C43.4155 105.78 41.0379 101.316 37.4347 102.634C35.9339 103.185 34.7627 104.487 34.6859 106.084C34.6027 107.828 35.7355 109.444 37.2235 110.327C38.7115 111.21 40.3563 111.428 42.0139 111.409C48.6251 111.338 54.7371 107.082 58.1931 101.447C61.6491 95.8087 62.7243 88.9832 62.4939 82.3751C62.2635 75.7672 60.8075 69.2743 59.5339 62.7847C58.6027 58.0423 57.7547 53.2583 57.5595 48.4199C57.5019 47.0119 58.0171 44.2055 56.5419 43.2839C56.2539 43.1047 55.9051 43.0375 55.5211 43.0471L55.5147 43.0439Z" fill="#3C4368"/>
<path id="Vector_24" d="M37.0399 107.55C42.5727 107.783 48.4127 106.343 52.3775 102.478C56.2559 98.6985 57.8655 93.0921 58.0447 87.6809C58.2239 82.2697 57.1327 76.9097 56.3775 71.5497C55.3759 64.4457 54.9535 57.2617 55.1199 50.0905C55.2031 46.5417 55.4719 42.8393 57.2831 39.7865C59.7279 35.6649 64.4639 33.5401 69.0047 32.0105C80.7967 28.0329 93.3535 26.3401 105.779 27.0505C108.294 27.1945 111.072 27.5657 112.714 29.4761C115.238 32.4105 113.6 36.9001 111.866 40.3625C108.934 46.2121 105.389 52.6057 99.1551 54.5897C94.5535 56.0553 88.9119 54.9257 85.3343 58.1705C82.0095 61.1849 82.2495 66.4777 83.4591 70.7977C85.6671 78.6761 90.1599 85.7545 92.4991 93.5977C94.8383 101.438 94.4735 111.025 88.3519 116.455C84.1055 120.225 78.0639 121.143 72.3871 121.306C63.4015 121.562 54.3839 120.282 45.8015 117.617C41.4495 116.266 37.2063 114.558 33.1327 112.513C31.4367 111.662 22.0319 107.479 22.1535 105.492C22.2719 103.614 27.4751 105.911 28.4895 106.17C31.2895 106.887 34.1439 107.422 37.0367 107.546L37.0399 107.55Z" fill="#292E54"/>
<path id="Vector_25" d="M77.0197 79.9654C77.3397 82.5318 77.6725 85.1558 78.8277 87.4694C79.9829 89.783 82.1365 91.767 84.7125 91.9974C87.2885 92.2278 89.7429 90.6662 91.3845 88.6662C93.0261 86.6662 94.0437 84.2406 95.2597 81.959C96.4757 79.6742 97.9989 77.4214 100.261 76.167C100.616 77.8854 100.056 79.767 98.8149 81.0086C102.178 80.1446 105.845 80.5126 108.972 82.023C110.38 82.7046 111.823 83.8566 111.845 85.4214C111.864 86.679 110.898 87.7926 109.752 88.3078C108.607 88.823 107.304 88.8582 106.044 88.8294C106.581 89.415 106.351 90.423 105.759 90.951C105.167 91.479 104.338 91.6422 103.548 91.7222C100.447 92.0358 97.2565 91.3926 94.5205 89.9078C93.5317 94.5766 88.6485 98.0646 83.9125 97.4886C79.1765 96.9126 75.2725 92.3526 75.4325 87.5846" fill="#292E54"/>
<path id="Vector_26" d="M84.9608 97.7096C84.6056 97.7096 84.2504 97.6872 83.8952 97.6456C79.06 97.0568 75.1112 92.4456 75.2744 87.5752L75.5944 87.5848C75.4344 92.2952 79.2552 96.756 83.9336 97.3256C88.6152 97.8952 93.3896 94.4808 94.3656 89.8696L94.6792 89.9368C93.7448 94.3528 89.4344 97.7064 84.9608 97.7064V97.7096Z" fill="white"/>
<path id="Vector_27" d="M85.2057 92.1777C85.0361 92.1777 84.8665 92.1713 84.7001 92.1553C81.8393 91.8993 79.7177 89.6049 78.6873 87.5409C77.5065 85.1761 77.1801 82.5361 76.8633 79.9857L77.1801 79.9473C77.4937 82.4721 77.8169 85.0833 78.9721 87.4001C79.9641 89.3873 81.9993 91.5985 84.7289 91.8417C86.9753 92.0401 89.4169 90.8177 91.2633 88.5681L91.5097 88.7697C89.7337 90.9329 87.4105 92.1809 85.2057 92.1809V92.1777Z" fill="white"/>
<path id="Vector_28" d="M66.8995 129.041C68.8291 129.319 70.7171 129.879 72.4899 130.695C73.3123 131.073 74.2243 131.7 74.1827 132.606C74.1507 133.278 73.5491 133.815 72.8995 133.998C72.2499 134.18 71.5587 134.084 70.8931 133.988C68.1507 133.591 65.4115 133.191 62.6691 132.794C62.2979 132.74 61.8787 132.66 61.6707 132.346C61.3251 131.831 61.7955 131.175 62.2115 130.718C64.4419 128.273 65.9907 125.217 66.6691 121.978C66.9059 120.849 66.8771 114.145 69.0915 114.698C72.3395 115.514 68.4131 129.262 66.8995 129.041Z" fill="#292E54"/>
<path id="Vector_29" d="M79.106 36.7113C78.5172 37.5145 78.2548 38.6057 78.6164 39.5337C78.978 40.4617 80.0436 41.1177 81.0036 40.8489C81.4804 40.7145 81.8772 40.3849 82.226 40.0329C83.3044 38.9289 84.0404 37.4953 84.306 35.9753C84.3796 35.5497 84.418 35.1017 84.2996 34.6857C83.5988 32.1961 79.8132 35.7545 79.106 36.7113Z" fill="#FFDE91"/>
<path id="Vector_30" d="M78.5928 50.4838L78.3848 50.2406C79.4888 49.2934 80.98 48.6566 82.9448 48.295C83.6168 48.1702 84.4968 48.0454 85.3704 48.1638C86.2728 48.2886 87.0536 48.6694 87.572 49.239L87.3352 49.4534C86.868 48.9382 86.1544 48.5926 85.3288 48.4806C84.5032 48.3686 83.652 48.4902 83.0056 48.6118C81.0984 48.9638 79.6552 49.5782 78.5928 50.487V50.4838Z" fill="#FFDE91"/>
</g>
</g>
</svg>
