<svg width="105" height="32" viewBox="0 0 105 32" fill="none" xmlns="http://www.w3.org/2000/svg">
<g id="Group">
<path id="Vector" fill-rule="evenodd" clip-rule="evenodd" d="M65.0914 25.0965C58.9952 29.6034 50.1572 31.9999 42.5466 31.9999C31.8809 31.9999 22.2755 28.0501 15.0072 21.4757C14.4364 20.9593 14.9454 20.2543 15.6315 20.6541C23.4731 25.2255 33.1708 27.9787 43.1871 27.9787C49.9434 27.9787 57.3708 26.5739 64.2053 23.6699C65.2358 23.232 66.0999 24.3501 65.0913 25.0967" fill="white"/>
<path id="Vector_2" fill-rule="evenodd" clip-rule="evenodd" d="M67.631 22.1952C66.8514 21.1954 62.4776 21.7214 60.5116 21.9573C59.9165 22.0288 59.8241 21.5076 60.3605 21.1303C63.8506 18.675 69.5677 19.3838 70.2327 20.206C70.9023 21.0351 70.0568 26.7781 66.7867 29.5188C66.2837 29.94 65.8054 29.7152 66.0281 29.1588C66.7645 27.3178 68.4117 23.1961 67.6309 22.1953" fill="white"/>
<path id="Vector_3" fill-rule="evenodd" clip-rule="evenodd" d="M60.6478 3.78511V1.39927C60.6501 1.03591 60.9224 0.794235 61.2517 0.795315L71.9255 0.794233C72.2664 0.794233 72.5406 1.04293 72.5406 1.3961V3.44228C72.5379 3.78579 72.2489 4.23324 71.7376 4.9443L66.2079 12.8526C68.26 12.8045 70.432 13.1128 72.2961 14.1627C72.7171 14.3993 72.8296 14.7497 72.8626 15.0937V17.6396C72.8626 17.99 72.4793 18.3961 72.0764 18.1846C68.7916 16.4606 64.4315 16.2724 60.7983 18.206C60.4271 18.4039 60.0388 18.0038 60.0388 17.6524V15.2328C60.0388 14.8452 60.0463 14.1832 60.4362 13.5931L66.842 4.3863L61.2646 4.38576C60.9235 4.38576 60.6499 4.1424 60.6476 3.78498" fill="white"/>
<path id="Vector_4" fill-rule="evenodd" clip-rule="evenodd" d="M21.711 18.6858H18.4636C18.1547 18.6656 17.908 18.4332 17.8827 18.1358L17.8854 1.43982C17.8854 1.10548 18.1654 0.83897 18.512 0.83897L21.5361 0.837959C21.8526 0.854088 22.1063 1.09381 22.1261 1.39899V3.57859H22.1873C22.9753 1.47046 24.4607 0.486479 26.461 0.486479C28.4917 0.486479 29.7652 1.47046 30.6744 3.57859C31.4629 1.47046 33.2514 0.486479 35.1611 0.486479C36.5252 0.486479 38.0102 1.04859 38.9195 2.31359C39.9501 3.71931 39.7387 5.75644 39.7387 7.54866L39.7354 18.0849C39.7354 18.4179 39.4553 18.6856 39.1089 18.6856H35.8656C35.5396 18.6649 35.2833 18.4064 35.2833 18.0862L35.2823 9.23439C35.2823 8.53271 35.3429 6.77552 35.1909 6.10806C34.9487 4.98336 34.221 4.66677 33.2818 4.66677C32.4934 4.66677 31.6749 5.19393 31.3412 6.03706C31.008 6.8808 31.0381 8.2855 31.0381 9.23439V18.0848C31.0381 18.4178 30.7581 18.6855 30.4122 18.6855H27.1685C26.8423 18.6647 26.5854 18.4063 26.5854 18.086L26.5821 9.23425C26.5821 7.37225 26.8852 4.63236 24.5818 4.63236C22.2475 4.63236 22.3386 7.30186 22.3386 9.23425L22.3375 18.0847C22.3375 18.4177 22.057 18.6853 21.711 18.6853" fill="white"/>
<path id="Vector_5" fill-rule="evenodd" clip-rule="evenodd" d="M81.7312 0.486891C86.5507 0.486891 89.1572 4.63331 89.1572 9.90286C89.1572 14.9967 86.2779 19.0381 81.7312 19.0381C77.0019 19.0381 74.4251 14.8913 74.4251 9.72739C74.4251 4.52728 77.0323 0.486891 81.7312 0.486891ZM81.7602 3.89546C79.3659 3.89546 79.2143 7.16209 79.2143 9.20031C79.2143 11.238 79.1847 15.5946 81.7312 15.5946C84.2474 15.5946 84.368 12.0811 84.368 9.9387C84.368 8.53353 84.3073 6.84672 83.8823 5.51133C83.5185 4.35168 82.7909 3.89546 81.7602 3.89546Z" fill="white"/>
<path id="Vector_6" fill-rule="evenodd" clip-rule="evenodd" d="M95.4073 18.6858H92.1716C91.8469 18.6651 91.5896 18.4066 91.5896 18.0863L91.5842 1.38365C91.6111 1.0778 91.8806 0.838684 92.208 0.838684L95.22 0.837671C95.5036 0.852789 95.7374 1.04607 95.7967 1.3051V3.85926H95.858C96.7675 1.57485 98.0401 0.486193 100.283 0.486193C101.739 0.486193 103.163 1.01287 104.073 2.45402C104.921 3.78887 104.921 6.03718 104.921 7.65359V18.1602C104.885 18.4557 104.62 18.6855 104.299 18.6855H101.044C100.743 18.6663 100.5 18.4448 100.466 18.1602V9.09514C100.466 7.26803 100.678 4.59718 98.4348 4.59718C97.6466 4.59718 96.9191 5.1244 96.5553 5.9321C96.1005 6.95151 96.0399 7.96978 96.0399 9.09514V18.0853C96.0338 18.4183 95.7536 18.6859 95.4073 18.6859" fill="white"/>
<path id="Vector_7" fill-rule="evenodd" clip-rule="evenodd" d="M52.1387 10.7127C52.1387 11.9809 52.1685 13.0364 51.5305 14.1638C51.0141 15.0787 50.1935 15.6426 49.2827 15.6426C48.0372 15.6426 47.3084 14.6915 47.3084 13.2829C47.3084 10.5122 49.7892 10.0088 52.1387 10.0088V10.7127ZM55.4118 18.6446C55.1972 18.8379 54.8872 18.8507 54.6448 18.7203C53.5667 17.8223 53.3734 17.4075 52.7832 16.5526C51.001 18.3715 49.7387 18.9174 47.4293 18.9174C44.6958 18.9174 42.5688 17.2267 42.5688 13.847C42.5688 11.2061 43.9969 9.41027 46.0321 8.53016C47.7937 7.75512 50.2549 7.61441 52.1387 7.40277V6.98036C52.1387 6.20539 52.1993 5.29078 51.7431 4.6213C51.348 4.02268 50.5891 3.77601 49.9206 3.77601C48.682 3.77601 47.5813 4.41161 47.3103 5.72932C47.254 6.02269 47.0406 6.31296 46.7464 6.32801L43.5991 5.98625C43.333 5.92605 43.0381 5.71272 43.1141 5.30583C43.8382 1.48086 47.2864 0.325531 50.3764 0.325531C51.9564 0.325531 54.0218 0.747469 55.2673 1.94525C56.8477 3.42399 56.695 5.39613 56.695 7.54456V12.6118C56.695 14.1371 57.3277 14.8054 57.9208 15.6264C58.1282 15.9233 58.1745 16.2746 57.91 16.4914C57.2471 17.0485 56.0688 18.0736 55.42 18.6519L55.4121 18.6446" fill="white"/>
<path id="Vector_8" fill-rule="evenodd" clip-rule="evenodd" d="M9.56793 10.7127C9.56793 11.9809 9.59845 13.0364 8.96061 14.1638C8.44457 15.0787 7.62396 15.6426 6.7126 15.6426C5.4675 15.6426 4.73804 14.6915 4.73804 13.2829C4.73804 10.5122 7.21948 10.0088 9.56793 10.0088V10.7127ZM12.8422 18.6446C12.6276 18.8379 12.317 18.8507 12.0751 18.7203C10.9958 17.8223 10.8027 17.4075 10.2137 16.5526C8.43069 18.3715 7.16841 18.9174 4.85984 18.9174C2.12577 18.9174 -0.000640869 17.2267 -0.000640869 13.847C-0.000640869 11.2061 1.42676 9.41027 3.46242 8.53016C5.22396 7.75512 7.68506 7.61441 9.56793 7.40277V6.98036C9.56793 6.20539 9.62904 5.29078 9.17356 4.6213C8.77818 4.02268 8.01867 3.77601 7.35085 3.77601C6.11228 3.77601 5.01054 4.41161 4.74073 5.72932C4.68441 6.02269 4.47081 6.31296 4.17644 6.32801L1.02927 5.98625C0.763193 5.92605 0.467669 5.71272 0.544327 5.30583C1.26746 1.48086 4.7155 0.325531 7.80662 0.325531C9.38633 0.325531 11.452 0.747469 12.6977 1.94525C14.2769 3.42399 14.1255 5.39613 14.1255 7.54456V12.6118C14.1255 14.1371 14.7573 14.8054 15.3506 15.6264C15.5577 15.9233 15.605 16.2746 15.3405 16.4914C14.677 17.0485 13.4979 18.0736 12.8499 18.6519L12.8425 18.6446" fill="white"/>
</g>
</svg>
