<svg width="105" height="32" viewBox="0 0 105 32" fill="none" xmlns="http://www.w3.org/2000/svg">
<g id="Group">
<path id="Vector" fill-rule="evenodd" clip-rule="evenodd" d="M65.0919 25.0966C58.9957 29.6036 50.1577 32 42.5471 32C31.8814 32 22.276 28.0502 15.0077 21.4759C14.4369 20.9594 14.9459 20.2545 15.632 20.6543C23.4736 25.2256 33.1713 27.9788 43.1876 27.9788C49.9439 27.9788 57.3713 26.574 64.2058 23.67C65.2363 23.2321 66.1004 24.3502 65.0918 25.0968" fill="#2A4092"/>
<path id="Vector_2" fill-rule="evenodd" clip-rule="evenodd" d="M67.6309 22.1953C66.8513 21.1955 62.4774 21.7215 60.5114 21.9574C59.9164 22.029 59.824 21.5077 60.3604 21.1304C63.8505 18.6751 69.5676 19.384 70.2325 20.2062C70.9022 21.0352 70.0567 26.7782 66.7866 29.5189C66.2836 29.9401 65.8052 29.7153 66.028 29.1589C66.7644 27.3179 68.4116 23.1962 67.6308 22.1954" fill="#2A4092"/>
<path id="Vector_3" fill-rule="evenodd" clip-rule="evenodd" d="M60.6474 3.78438V1.39853C60.6498 1.03518 60.922 0.793503 61.2514 0.794582L71.9252 0.793501C72.2661 0.793501 72.5402 1.0422 72.5402 1.39536V3.44154C72.5375 3.78506 72.2485 4.23251 71.7372 4.94356L66.2075 12.8518C68.2597 12.8037 70.4316 13.1121 72.2957 14.162C72.7167 14.3986 72.8292 14.7489 72.8623 15.0929V17.6389C72.8623 17.9893 72.4789 18.3954 72.0761 18.1838C68.7912 16.4598 64.4311 16.2717 60.798 18.2053C60.4267 18.4032 60.0384 18.003 60.0384 17.6517V15.232C60.0384 14.8444 60.0459 14.1825 60.4359 13.5923L66.8416 4.38557L61.2642 4.38503C60.9231 4.38503 60.6496 4.14167 60.6472 3.78425" fill="#2A4092"/>
<path id="Vector_4" fill-rule="evenodd" clip-rule="evenodd" d="M21.7113 18.6855H18.464C18.1551 18.6654 17.9083 18.433 17.8831 18.1355L17.8858 1.43957C17.8858 1.10523 18.1658 0.838724 18.5123 0.838724L21.5365 0.837713C21.8529 0.853842 22.1067 1.09356 22.1265 1.39874V3.57835H22.1877C22.9757 1.47021 24.4611 0.486233 26.4614 0.486233C28.4921 0.486233 29.7655 1.47021 30.6748 3.57835C31.4633 1.47021 33.2518 0.486233 35.1614 0.486233C36.5256 0.486233 38.0106 1.04834 38.9199 2.31334C39.9504 3.71906 39.7391 5.7562 39.7391 7.54842L39.7358 18.0847C39.7358 18.4177 39.4557 18.6853 39.1093 18.6853H35.866C35.5399 18.6646 35.2837 18.4061 35.2837 18.0859L35.2827 9.23414C35.2827 8.53246 35.3433 6.77527 35.1913 6.10781C34.9491 4.98312 34.2213 4.66653 33.2822 4.66653C32.4938 4.66653 31.6753 5.19368 31.3415 6.03681C31.0084 6.88055 31.0384 8.28525 31.0384 9.23414V18.0846C31.0384 18.4176 30.7585 18.6852 30.4126 18.6852H27.1689C26.8426 18.6645 26.5857 18.406 26.5857 18.0858L26.5825 9.234C26.5825 7.372 26.8855 4.63211 24.5822 4.63211C22.2478 4.63211 22.339 7.30161 22.339 9.234L22.3379 18.0844C22.3379 18.4174 22.0574 18.6851 21.7113 18.6851" fill="#2A4092"/>
<path id="Vector_5" fill-rule="evenodd" clip-rule="evenodd" d="M81.7309 0.486889C86.5505 0.486889 89.1569 4.6333 89.1569 9.90286C89.1569 14.9967 86.2776 19.0381 81.7309 19.0381C77.0017 19.0381 74.4249 14.8913 74.4249 9.72739C74.4249 4.52728 77.032 0.486889 81.7309 0.486889ZM81.7599 3.89546C79.3656 3.89546 79.2141 7.16209 79.2141 9.20031C79.2141 11.238 79.1844 15.5946 81.7309 15.5946C84.2471 15.5946 84.3677 12.0811 84.3677 9.9387C84.3677 8.53352 84.3071 6.84672 83.882 5.51133C83.5182 4.35168 82.7906 3.89546 81.7599 3.89546Z" fill="#2A4092"/>
<path id="Vector_6" fill-rule="evenodd" clip-rule="evenodd" d="M95.4067 18.6854H92.171C91.8463 18.6647 91.5889 18.4062 91.5889 18.086L91.5836 1.38329C91.6105 1.07743 91.88 0.838316 92.2074 0.838316L95.2194 0.837305C95.503 0.852423 95.7368 1.04571 95.7961 1.30473V3.85889H95.8574C96.7669 1.57448 98.0394 0.485825 100.283 0.485825C101.738 0.485825 103.163 1.0125 104.072 2.45365C104.92 3.7885 104.92 6.03681 104.92 7.65322V18.1598C104.885 18.4553 104.619 18.6851 104.299 18.6851H101.043C100.742 18.666 100.5 18.4445 100.465 18.1598V9.09478C100.465 7.26766 100.678 4.59681 98.4342 4.59681C97.646 4.59681 96.9184 5.12403 96.5547 5.93173C96.0999 6.95114 96.0393 7.96941 96.0393 9.09478V18.0849C96.0332 18.4179 95.753 18.6855 95.4067 18.6855" fill="#2A4092"/>
<path id="Vector_7" fill-rule="evenodd" clip-rule="evenodd" d="M52.1389 10.7124C52.1389 11.9805 52.1687 13.036 51.5307 14.1634C51.0143 15.0783 50.1938 15.6422 49.2829 15.6422C48.0374 15.6422 47.3086 14.6911 47.3086 13.2825C47.3086 10.5119 49.7894 10.0084 52.1389 10.0084V10.7124ZM55.412 18.6443C55.1975 18.8376 54.8874 18.8504 54.645 18.7199C53.5669 17.8219 53.3736 17.4071 52.7835 16.5522C51.0012 18.3711 49.739 18.917 47.4295 18.917C44.696 18.917 42.569 17.2263 42.569 13.8466C42.569 11.2057 43.9971 9.40991 46.0323 8.52979C47.7939 7.75475 50.2551 7.61404 52.1389 7.4024V6.97999C52.1389 6.20502 52.1995 5.29042 51.7434 4.62093C51.3482 4.02231 50.5893 3.77564 49.9209 3.77564C48.6822 3.77564 47.5816 4.41125 47.3105 5.72896C47.2542 6.02233 47.0409 6.3126 46.7466 6.32765L43.5993 5.98588C43.3332 5.92568 43.0383 5.71235 43.1143 5.30547C43.8384 1.4805 47.2866 0.325163 50.3766 0.325163C51.9567 0.325163 54.022 0.747101 55.2675 1.94488C56.8479 3.42362 56.6952 5.39577 56.6952 7.54419V12.6114C56.6952 14.1367 57.3279 14.8051 57.921 15.6261C58.1285 15.9229 58.1747 16.2743 57.9102 16.491C57.2473 17.0482 56.069 18.0733 55.4202 18.6516L55.4123 18.6443" fill="#2A4092"/>
<path id="Vector_8" fill-rule="evenodd" clip-rule="evenodd" d="M9.56818 10.7124C9.56818 11.9805 9.59869 13.036 8.96085 14.1634C8.44481 15.0783 7.6242 15.6422 6.71284 15.6422C5.46774 15.6422 4.73828 14.6911 4.73828 13.2825C4.73828 10.5119 7.21972 10.0084 9.56818 10.0084V10.7124ZM12.8424 18.6443C12.6278 18.8376 12.3173 18.8504 12.0753 18.7199C10.996 17.8219 10.8029 17.4071 10.214 16.5522C8.43093 18.3711 7.16866 18.917 4.86008 18.917C2.12601 18.917 -0.000396729 17.2263 -0.000396729 13.8466C-0.000396729 11.2057 1.427 9.40991 3.46266 8.52979C5.22421 7.75475 7.6853 7.61404 9.56818 7.4024V6.97999C9.56818 6.20502 9.62928 5.29042 9.1738 4.62093C8.77842 4.02231 8.01891 3.77564 7.35109 3.77564C6.11252 3.77564 5.01079 4.41125 4.74098 5.72896C4.68466 6.02233 4.47105 6.3126 4.17669 6.32765L1.02951 5.98588C0.763437 5.92568 0.467913 5.71235 0.544571 5.30547C1.2677 1.4805 4.71574 0.325163 7.80686 0.325163C9.38658 0.325163 11.4523 0.747101 12.6979 1.94488C14.2771 3.42362 14.1257 5.39577 14.1257 7.54419V12.6114C14.1257 14.1367 14.7576 14.8051 15.3509 15.6261C15.5579 15.9229 15.6053 16.2743 15.3408 16.491C14.6773 17.0482 13.4982 18.0733 12.8502 18.6516L12.8427 18.6443" fill="#2A4092"/>
</g>
</svg>
