<svg width="241" height="35" viewBox="0 0 241 35" fill="none" xmlns="http://www.w3.org/2000/svg">
<g id="Group">
<path id="Vector" d="M4.90784 26.9531C4.43155 26.9531 4.19441 26.7152 4.19441 26.2382V11.6189H1.55358C1.07729 11.6189 0.840149 11.3809 0.840149 10.904V10.0103C0.840149 9.77241 0.893375 9.5937 1.00049 9.47418C1.10761 9.3552 1.31577 9.27198 1.62499 9.22393L4.19441 8.90228V5.97113C4.19441 1.99174 6.09689 0.00171471 9.90319 0.00171471C10.8066 0.00171471 11.7585 0.132978 12.7576 0.394968C13.019 0.466372 13.2036 0.573542 13.3107 0.716686C13.4178 0.859625 13.471 1.1098 13.471 1.46722V2.3966C13.471 2.84959 13.2932 3.07574 12.9361 3.07574C12.7219 3.07574 12.4187 3.04004 12.026 2.96857C11.6339 2.89703 11.1879 2.86133 10.688 2.86133C9.59398 2.86133 8.82665 3.07021 8.38674 3.48681C7.94615 3.90409 7.72653 4.58937 7.72653 5.5421V8.83081H12.5434C13.019 8.83081 13.2575 9.06925 13.2575 9.54565V10.904C13.2575 11.3809 13.019 11.6189 12.5434 11.6189H7.72653V26.2382C7.72653 26.7152 7.48872 26.9531 7.0131 26.9531H4.90784Z" fill="white"/>
<path id="Vector_2" d="M21.2445 27.4889C19.5549 27.4889 18.2588 27.0119 17.3554 26.059C16.4513 25.1062 15.9992 23.7596 15.9992 22.0198V9.54462C15.9992 9.06822 16.237 8.82978 16.7127 8.82978H18.8179C19.2935 8.82978 19.532 9.06822 19.532 9.54462V20.8759C19.532 22.1627 19.7813 23.11 20.2812 23.7176C20.7804 24.3253 21.5773 24.6291 22.6721 24.6291C24.3846 24.6291 26.1092 24.0572 27.8459 22.9133V9.54455C27.8459 9.06815 28.0831 8.82971 28.5594 8.82971H30.6646C31.1402 8.82971 31.378 9.06815 31.378 9.54455V26.2371C31.378 26.7141 31.1402 26.952 30.6646 26.952H29.13C28.8922 26.952 28.7076 26.9046 28.5769 26.8091C28.4462 26.7141 28.3566 26.5353 28.3094 26.2729L28.0595 25.0219C25.8471 26.6661 23.5755 27.4883 21.2445 27.4883" fill="white"/>
<path id="Vector_3" d="M42.8698 27.2028C39.4912 27.2028 37.803 25.5111 37.803 22.127V11.6177H35.2336C34.7573 11.6177 34.5201 11.3798 34.5201 10.9028V10.0092C34.5201 9.77126 34.5734 9.59255 34.6805 9.47303C34.7876 9.35405 34.9958 9.27083 35.305 9.22278L37.9094 8.90113L38.3736 4.4687C38.4208 3.9923 38.6707 3.75379 39.1227 3.75379H40.6217C41.0973 3.75379 41.3351 3.9923 41.3351 4.4687V8.82966H45.9741C46.449 8.82966 46.6875 9.0681 46.6875 9.5445V10.9028C46.6875 11.3798 46.449 11.6177 45.9741 11.6177H41.3351V21.9482C41.3351 22.8301 41.5311 23.4495 41.9239 23.8069C42.3167 24.1644 42.9883 24.3431 43.9402 24.3431C44.3916 24.3431 44.9508 24.2839 45.617 24.1644C45.9741 24.0928 46.2112 24.0571 46.3305 24.0571C46.5204 24.0571 46.6518 24.1108 46.7232 24.218C46.7946 24.3253 46.8303 24.4984 46.8303 24.7363V25.7014C46.8303 26.0115 46.7818 26.2437 46.6875 26.3984C46.5918 26.5537 46.4019 26.6788 46.1162 26.7738C45.1886 27.0597 44.106 27.2026 42.8698 27.2026" fill="white"/>
<path id="Vector_4" d="M55.4273 27.4889C53.7377 27.4889 52.4415 27.0119 51.5381 26.059C50.6333 25.1062 50.182 23.7596 50.182 22.0198V9.54462C50.182 9.06822 50.4198 8.82978 50.8954 8.82978H53.0007C53.4763 8.82978 53.7148 9.06822 53.7148 9.54462V20.8759C53.7148 22.1627 53.964 23.11 54.4639 23.7176C54.9631 24.3253 55.7601 24.6291 56.8548 24.6291C58.5673 24.6291 60.2919 24.0572 62.028 22.9133V9.54455C62.028 9.06815 62.2658 8.82971 62.7421 8.82971H64.8474C65.323 8.82971 65.5608 9.06815 65.5608 9.54455V26.2371C65.5608 26.7141 65.323 26.952 64.8474 26.952H63.3127C63.0749 26.952 62.8903 26.9046 62.7596 26.8091C62.6289 26.7141 62.5393 26.5353 62.4922 26.2729L62.2422 25.0219C60.0299 26.6661 57.7582 27.4883 55.4273 27.4883" fill="white"/>
<path id="Vector_5" d="M70.6053 26.9531C70.1297 26.9531 69.8919 26.7152 69.8919 26.2382V9.54559C69.8919 9.06919 70.1297 8.83075 70.6053 8.83075H72.1757C72.4128 8.83075 72.5974 8.87873 72.7288 8.97369C72.8595 9.06919 72.9484 9.2479 72.9962 9.50982L73.2462 11.5116C73.8882 10.8206 74.4952 10.2728 75.0658 9.86724C75.6371 9.46237 76.2252 9.16462 76.8322 8.97369C77.4385 8.78324 78.0866 8.68768 78.7764 8.68768C79.0621 8.68768 79.3477 8.69996 79.6333 8.72344C80.0376 8.7715 80.2397 8.98591 80.2397 9.36681V11.2971C80.2397 11.726 80.0254 11.9405 79.5976 11.9405C79.3834 11.9405 79.1746 11.9288 78.9731 11.9048C78.7704 11.8813 78.5501 11.869 78.3129 11.869C76.4098 11.869 74.7801 12.441 73.4247 13.5848V26.2388C73.4247 26.7158 73.1862 26.9537 72.7106 26.9537H70.6053" fill="white"/>
<path id="Vector_6" d="M93.8474 16.3008C93.871 16.1103 93.8831 15.8003 93.8831 15.3715C93.8831 13.9182 93.5443 12.8217 92.8665 12.0829C92.1881 11.3445 91.1951 10.9748 89.8868 10.9748C88.3886 10.9748 87.2224 11.4216 86.3898 12.3152C85.5571 13.2089 85.0815 14.5376 84.9629 16.3008H93.8474ZM90.4224 27.489C87.4959 27.489 85.2843 26.6791 83.7853 25.0583C82.287 23.438 81.5372 21.0431 81.5372 17.8734C81.5372 14.8474 82.287 12.4938 83.7853 10.8142C85.2843 9.13411 87.3767 8.29415 90.0654 8.29415C92.3249 8.29415 94.0617 8.93192 95.275 10.2065C96.4883 11.4816 97.0946 13.2867 97.0946 15.6218C97.0946 16.3848 97.0346 17.1589 96.916 17.9453C96.8682 18.2313 96.7914 18.4222 96.6843 18.5172C96.5772 18.6126 96.4041 18.6602 96.1669 18.6602H84.9629C85.0101 20.7099 85.516 22.2229 86.4794 23.1998C87.4427 24.1772 88.9349 24.6654 90.9573 24.6654C91.6708 24.6654 92.3545 24.6179 93.0087 24.5224C93.6628 24.4274 94.4901 24.2246 95.4892 23.9147C95.6549 23.8673 95.7977 23.8253 95.917 23.7896C96.0355 23.7538 96.1427 23.736 96.2383 23.736C96.5469 23.736 96.7018 23.9504 96.7018 24.3794V25.3803C96.7018 25.6902 96.654 25.9109 96.5597 26.0415C96.464 26.1728 96.2619 26.3096 95.9527 26.4526C95.2393 26.7626 94.3884 27.0122 93.4015 27.2032C92.4138 27.3937 91.4215 27.4893 90.4224 27.4893" fill="white"/>
<path id="Vector_7" d="M118.861 16.3008C118.885 16.1103 118.897 15.8003 118.897 15.3715C118.897 13.9182 118.558 12.8217 117.879 12.0829C117.202 11.3445 116.208 10.9748 114.9 10.9748C113.401 10.9748 112.236 11.4216 111.403 12.3152C110.571 13.2089 110.095 14.5376 109.976 16.3008H118.861ZM115.435 27.489C112.51 27.489 110.297 26.6791 108.799 25.0583C107.3 23.438 106.551 21.0431 106.551 17.8734C106.551 14.8474 107.3 12.4938 108.799 10.8142C110.297 9.13411 112.39 8.29415 115.078 8.29415C117.338 8.29415 119.075 8.93192 120.288 10.2065C121.501 11.4816 122.108 13.2867 122.108 15.6218C122.108 16.3848 122.048 17.1589 121.93 17.9453C121.882 18.2313 121.804 18.4222 121.697 18.5172C121.591 18.6126 121.418 18.6602 121.18 18.6602H109.976C110.024 20.7099 110.529 22.2229 111.492 23.1998C112.456 24.1772 113.948 24.6654 115.971 24.6654C116.684 24.6654 117.368 24.6179 118.022 24.5224C118.676 24.4274 119.503 24.2246 120.502 23.9147C120.668 23.8673 120.811 23.8253 120.931 23.7896C121.049 23.7538 121.156 23.736 121.251 23.736C121.56 23.736 121.715 23.9504 121.715 24.3794V25.3803C121.715 25.6902 121.668 25.9109 121.573 26.0415C121.478 26.1728 121.275 26.3096 120.966 26.4526C120.252 26.7626 119.401 27.0122 118.415 27.2032C117.427 27.3937 116.434 27.4893 115.435 27.4893" fill="white"/>
<path id="Vector_8" d="M126.352 26.9531C125.876 26.9531 125.639 26.7152 125.639 26.2382V9.54565C125.639 9.06925 125.876 8.83081 126.352 8.83081H127.922C128.16 8.83081 128.344 8.8788 128.475 8.97376C128.606 9.06925 128.695 9.24796 128.743 9.50988L128.957 10.8325C131.217 9.14079 133.596 8.29462 136.093 8.29462C137.829 8.29462 139.15 8.75361 140.054 9.67077C140.958 10.5883 141.41 11.9171 141.41 13.6563V26.2388C141.41 26.7158 141.172 26.9537 140.696 26.9537H138.591C138.115 26.9537 137.878 26.7158 137.878 26.2388V14.836C137.878 13.5733 137.622 12.6438 137.11 12.0479C136.598 11.4526 135.795 11.1543 134.702 11.1543C132.822 11.1543 130.979 11.762 129.171 12.9772V26.2387C129.171 26.7157 128.933 26.9536 128.458 26.9536H126.352" fill="white"/>
<path id="Vector_9" d="M153.434 23.7716C154.909 23.7716 156.372 23.2237 157.823 22.1273V12.7262C157.109 12.1783 156.384 11.779 155.647 11.5288C154.909 11.2785 154.1 11.1535 153.22 11.1535C150.128 11.1535 148.582 13.2625 148.582 17.4804C148.582 19.5536 148.992 21.1208 149.813 22.1808C150.633 23.2414 151.84 23.7715 153.434 23.7715V23.7716ZM152.614 34.7452C150.663 34.7452 148.843 34.3878 147.154 33.6728C146.869 33.5533 146.679 33.4227 146.584 33.2796C146.488 33.1367 146.441 32.91 146.441 32.6005V31.5639C146.441 31.135 146.584 30.9205 146.869 30.9205C147.012 30.9205 147.184 30.9563 147.387 31.0277C147.588 31.0992 147.868 31.1824 148.225 31.2779C149.699 31.6828 151.067 31.8856 152.328 31.8856C154.231 31.8856 155.623 31.4266 156.503 30.5094C157.383 29.5918 157.823 28.1201 157.823 26.0949V24.4864C157.014 25.1778 156.146 25.7079 155.218 26.0771C154.291 26.4467 153.351 26.6311 152.4 26.6311C150.877 26.6311 149.557 26.2502 148.439 25.4872C147.321 24.7249 146.464 23.6642 145.87 22.306C145.275 20.9476 144.978 19.3872 144.978 17.6233C144.978 14.7637 145.656 12.4939 147.012 10.8137C148.368 9.13367 150.187 8.2937 152.471 8.2937C154.612 8.2937 156.479 9.03257 158.073 10.5099L158.251 9.50897C158.299 9.24705 158.388 9.06834 158.519 8.97284C158.649 8.87788 158.834 8.8299 159.072 8.8299H160.606C161.082 8.8299 161.32 9.06834 161.32 9.54474V25.8445C161.32 28.6801 160.565 30.8722 159.054 32.4216C157.543 33.9704 155.397 34.745 152.614 34.745" fill="white"/>
<path id="Vector_10" d="M166.746 26.9531C166.27 26.9531 166.033 26.7152 166.033 26.2382V9.54565C166.033 9.06925 166.27 8.83081 166.746 8.83081H168.852C169.327 8.83081 169.565 9.06925 169.565 9.54565V26.2382C169.565 26.7152 169.327 26.9531 168.852 26.9531H166.746Z" fill="white"/>
<path id="Vector_11" d="M174.986 26.9531C174.51 26.9531 174.272 26.7152 174.272 26.2382V9.54565C174.272 9.06925 174.51 8.83081 174.986 8.83081H176.556C176.794 8.83081 176.978 8.8788 177.109 8.97376C177.24 9.06925 177.329 9.24796 177.376 9.50988L177.591 10.8325C179.85 9.14079 182.229 8.29462 184.727 8.29462C186.463 8.29462 187.783 8.75361 188.688 9.67077C189.592 10.5883 190.044 11.9171 190.044 13.6563V26.2388C190.044 26.7158 189.805 26.9537 189.33 26.9537H187.224C186.749 26.9537 186.511 26.7158 186.511 26.2388V14.836C186.511 13.5733 186.255 12.6438 185.744 12.0479C185.232 11.4526 184.429 11.1543 183.335 11.1543C181.456 11.1543 179.612 11.762 177.805 12.9772V26.2387C177.805 26.7157 177.566 26.9536 177.091 26.9536H174.986" fill="white"/>
<path id="Vector_12" d="M205.705 16.3006C205.729 16.1102 205.741 15.8002 205.741 15.3713C205.741 13.9181 205.402 12.8216 204.724 12.0828C204.046 11.3444 203.053 10.9747 201.744 10.9747C200.246 10.9747 199.08 11.4214 198.248 12.3151C197.415 13.2088 196.939 14.5374 196.821 16.3006H205.705ZM202.28 27.4889C199.354 27.4889 197.142 26.679 195.643 25.0581C194.145 23.4379 193.395 21.043 193.395 17.8733C193.395 14.8473 194.145 12.4937 195.643 10.814C197.142 9.13399 199.234 8.29403 201.923 8.29403C204.183 8.29403 205.919 8.9318 207.133 10.2064C208.346 11.4814 208.952 13.2866 208.952 15.6217C208.952 16.3847 208.893 17.1588 208.774 17.9451C208.726 18.2312 208.649 18.4221 208.542 18.5171C208.435 18.6125 208.262 18.66 208.025 18.66H196.821C196.868 20.7098 197.374 22.2228 198.337 23.1997C199.3 24.1771 200.793 24.6653 202.815 24.6653C203.528 24.6653 204.212 24.6178 204.867 24.5223C205.52 24.4273 206.348 24.2245 207.347 23.9145C207.513 23.8672 207.655 23.8252 207.775 23.7895C207.894 23.7537 208 23.7358 208.096 23.7358C208.404 23.7358 208.559 23.9503 208.559 24.3793V25.3802C208.559 25.6901 208.512 25.9108 208.417 26.0414C208.322 26.1727 208.12 26.3095 207.81 26.4524C207.097 26.7625 206.246 27.0121 205.259 27.2031C204.272 27.3936 203.279 27.4891 202.28 27.4891" fill="white"/>
<path id="Vector_13" d="M223.868 16.3006C223.891 16.1102 223.903 15.8002 223.903 15.3713C223.903 13.9181 223.564 12.8216 222.886 12.0828C222.208 11.3444 221.215 10.9747 219.907 10.9747C218.408 10.9747 217.243 11.4214 216.41 12.3151C215.577 13.2088 215.102 14.5374 214.983 16.3006H223.868ZM220.442 27.4889C217.516 27.4889 215.304 26.679 213.805 25.0581C212.307 23.4379 211.557 21.043 211.557 17.8733C211.557 14.8473 212.307 12.4937 213.805 10.814C215.304 9.13399 217.397 8.29403 220.086 8.29403C222.345 8.29403 224.082 8.9318 225.294 10.2064C226.508 11.4814 227.115 13.2866 227.115 15.6217C227.115 16.3847 227.055 17.1588 226.936 17.9451C226.888 18.2312 226.811 18.4221 226.704 18.5171C226.597 18.6125 226.424 18.66 226.187 18.66H214.983C215.03 20.7098 215.536 22.2228 216.5 23.1997C217.463 24.1771 218.955 24.6653 220.977 24.6653C221.691 24.6653 222.375 24.6178 223.029 24.5223C223.683 24.4273 224.51 24.2245 225.509 23.9145C225.675 23.8672 225.818 23.8252 225.937 23.7895C226.056 23.7537 226.163 23.7358 226.258 23.7358C226.567 23.7358 226.722 23.9503 226.722 24.3793V25.3802C226.722 25.6901 226.674 25.9108 226.579 26.0414C226.484 26.1727 226.281 26.3095 225.973 26.4524C225.259 26.7625 224.409 27.0121 223.422 27.2031C222.434 27.3936 221.441 27.4891 220.442 27.4891" fill="white"/>
<path id="Vector_14" d="M231.359 26.9531C230.883 26.9531 230.646 26.7152 230.646 26.2382V9.54559C230.646 9.06919 230.883 8.83075 231.359 8.83075H232.929C233.166 8.83075 233.351 8.87873 233.482 8.97369C233.612 9.06919 233.702 9.2479 233.75 9.50982L233.999 11.5116C234.642 10.8206 235.248 10.2728 235.819 9.86724C236.39 9.46237 236.979 9.16462 237.585 8.97369C238.192 8.78324 238.84 8.68768 239.53 8.68768C239.816 8.68768 240.101 8.69996 240.386 8.72344C240.791 8.7715 240.993 8.98591 240.993 9.36681V11.2971C240.993 11.726 240.779 11.9405 240.351 11.9405C240.136 11.9405 239.928 11.9288 239.726 11.9048C239.524 11.8813 239.304 11.869 239.066 11.869C237.163 11.869 235.534 12.441 234.178 13.5848V26.2388C234.178 26.7158 233.94 26.9537 233.464 26.9537H231.359" fill="white"/>
</g>
</svg>
