<svg width="84" height="56" viewBox="0 0 84 56" fill="none" xmlns="http://www.w3.org/2000/svg">
<g id="AFE_subbrand_logo_stacked_white" clip-path="url(#clip0_22201_3391)">
<g id="Group">
<g id="Group_2">
<path id="Vector" fill-rule="evenodd" clip-rule="evenodd" d="M32.6462 11.3886C29.8251 13.4609 25.7351 14.5625 22.213 14.5625C17.2771 14.5625 12.832 12.7465 9.46851 9.72403C9.2044 9.48686 9.43994 9.16243 9.75745 9.34657C13.3865 11.4481 17.8744 12.7136 22.5095 12.7136C25.6362 12.7136 29.0732 12.0681 32.2362 10.7328C32.7131 10.5316 33.1129 11.0455 32.6462 11.3888" fill="white"/>
<path id="Vector_2" fill-rule="evenodd" clip-rule="evenodd" d="M33.8202 10.054C33.4593 9.59428 31.4352 9.83645 30.5255 9.94459C30.2501 9.97758 30.2074 9.73791 30.4556 9.56463C32.0707 8.4356 34.7165 8.7617 35.0244 9.13957C35.334 9.52079 34.9428 12.1609 33.4296 13.421C33.1968 13.6148 32.9754 13.5112 33.0785 13.2557C33.4193 12.4089 34.1816 10.5141 33.8204 10.054" fill="white"/>
<path id="Vector_3" fill-rule="evenodd" clip-rule="evenodd" d="M30.5894 1.58984V0.492959C30.5905 0.325942 30.7164 0.214876 30.8689 0.215294L35.8086 0.214878C35.9664 0.214878 36.0934 0.329283 36.0934 0.491707V1.43243C36.0918 1.59026 35.9582 1.79611 35.7215 2.12304L33.1625 5.75858C34.1123 5.73645 35.1172 5.87841 35.9801 6.36109C36.1748 6.46965 36.2269 6.63082 36.2422 6.78907V7.95944C36.2422 8.12061 36.0647 8.30725 35.8783 8.20997C34.3581 7.41747 32.3404 7.33104 30.6592 8.21999C30.4874 8.31101 30.3077 8.12688 30.3077 7.96529V6.85295C30.3077 6.67466 30.3112 6.37028 30.4916 6.09929L33.456 1.86626H30.8749C30.7171 1.86626 30.5905 1.75435 30.5894 1.58984" fill="white"/>
<path id="Vector_4" fill-rule="evenodd" clip-rule="evenodd" d="M12.5707 8.44141H11.0679C10.9249 8.4318 10.8107 8.32491 10.799 8.18838L10.8003 0.512289C10.8003 0.358634 10.9299 0.236296 11.0902 0.236296L12.4898 0.235876C12.6362 0.242974 12.7537 0.353206 12.7628 0.4935V1.4956H12.7911C13.1558 0.526485 13.8432 0.0742865 14.7689 0.0742865C15.7087 0.0742865 16.298 0.526485 16.7188 1.4956C17.0836 0.526485 17.9113 0.0742865 18.795 0.0742865C19.4263 0.0742865 20.1136 0.33233 20.5344 0.913965C21.0113 1.56032 20.9135 2.49687 20.9135 3.32109L20.912 8.16499C20.912 8.31823 20.7823 8.44141 20.622 8.44141H19.1211C18.9702 8.4318 18.8516 8.3128 18.8516 8.16583L18.8512 4.09605C18.8512 3.77371 18.8792 2.96576 18.8088 2.65887C18.6968 2.14154 18.36 1.99623 17.9254 1.99623C17.5605 1.99623 17.1818 2.23841 17.0273 2.6263C16.8731 3.0142 16.887 3.65972 16.887 4.09605V8.16499C16.887 8.31823 16.7575 8.44141 16.5974 8.44141H15.0963C14.9453 8.4318 14.8264 8.3128 14.8264 8.16583L14.8249 4.09605C14.8249 3.24009 14.9652 1.98036 13.8993 1.98036C12.819 1.98036 12.8611 3.20752 12.8611 4.09605L12.8606 8.16499C12.8606 8.31823 12.7308 8.44141 12.5707 8.44141Z" fill="white"/>
<path id="Vector_5" fill-rule="evenodd" clip-rule="evenodd" d="M40.3456 0.074811C42.5762 0.074811 43.7824 1.98089 43.7824 4.40388C43.7824 6.74546 42.4499 8.60352 40.3456 8.60352C38.1572 8.60352 36.9646 6.69702 36.9646 4.32288C36.9646 1.93204 38.171 0.074811 40.3456 0.074811ZM40.3592 1.64184C39.251 1.64184 39.1811 3.14374 39.1811 4.08071C39.1811 5.01725 39.1672 7.0202 40.3456 7.0202C41.5102 7.0202 41.566 5.40515 41.566 4.42017C41.566 3.77423 41.5379 2.99844 41.3413 2.38465C41.1729 1.85145 40.8362 1.64184 40.3592 1.64184Z" fill="white"/>
<path id="Vector_6" fill-rule="evenodd" clip-rule="evenodd" d="M46.6761 8.44141H45.1787C45.0285 8.4318 44.9094 8.3128 44.9094 8.16583L44.9069 0.486821C44.9194 0.346109 45.0441 0.236296 45.1955 0.236296L46.5892 0.235876C46.7205 0.242557 46.8288 0.331494 46.8565 0.450494V1.62504H46.8846C47.3058 0.574503 47.8944 0.0742865 48.9328 0.0742865C49.6062 0.0742865 50.2653 0.316463 50.6861 0.978684C51.0792 1.59247 51.0792 2.6263 51.0792 3.36911V8.19965C51.0624 8.33577 50.9395 8.44141 50.791 8.44141H49.2848C49.1455 8.43222 49.0331 8.33076 49.0171 8.19965V4.03175C49.0171 3.19207 49.1153 1.96408 48.0774 1.96408C47.7124 1.96408 47.3759 2.20626 47.2076 2.57787C46.997 3.04635 46.9689 3.51442 46.9689 4.03175V8.16499C46.9664 8.31823 46.8363 8.44141 46.6761 8.44141Z" fill="white"/>
<path id="Vector_7" fill-rule="evenodd" clip-rule="evenodd" d="M26.6515 4.7748C26.6515 5.35811 26.6653 5.84329 26.3701 6.36146C26.1311 6.78234 25.7514 7.04164 25.3298 7.04164C24.7534 7.04164 24.4162 6.60405 24.4162 5.95645C24.4162 4.68294 25.5643 4.45121 26.6515 4.45121V4.7748ZM28.1663 8.42161C28.067 8.51055 27.9235 8.51639 27.8113 8.45627C27.3124 8.04332 27.2229 7.85292 26.9498 7.45959C26.1251 8.29593 25.5409 8.54688 24.4721 8.54688C23.2072 8.54688 22.2228 7.76983 22.2228 6.21574C22.2228 5.00153 22.8837 4.17605 23.8255 3.77145C24.6408 3.41529 25.7797 3.35057 26.6515 3.25328V3.05912C26.6515 2.70254 26.6796 2.28208 26.4685 1.97435C26.2856 1.69919 25.9344 1.58562 25.6251 1.58562C25.0519 1.58562 24.5425 1.8779 24.4171 2.48375C24.391 2.61862 24.2923 2.75223 24.1561 2.75891L22.6996 2.60191C22.5765 2.57436 22.44 2.47624 22.4752 2.28918C22.8103 0.530493 24.406 -0.000621796 25.8359 -0.000621796C26.5671 -0.000621796 27.5229 0.193534 28.0993 0.743854C28.8306 1.42403 28.76 2.33051 28.76 3.31842V5.64788C28.76 6.34935 29.0528 6.65666 29.3272 7.03412C29.4232 7.17024 29.4446 7.33183 29.3222 7.43162C29.0155 7.68757 28.4702 8.15898 28.1699 8.42495L28.1663 8.42161Z" fill="white"/>
<path id="Vector_8" fill-rule="evenodd" clip-rule="evenodd" d="M6.95107 4.7748C6.95107 5.35811 6.9652 5.84329 6.67001 6.36146C6.43121 6.78234 6.05144 7.04164 5.62967 7.04164C5.05347 7.04164 4.7159 6.60405 4.7159 5.95645C4.7159 4.68294 5.86424 4.45121 6.95107 4.45121V4.7748ZM8.46629 8.42161C8.36703 8.51055 8.22329 8.51639 8.11131 8.45627C7.61185 8.04332 7.52244 7.85292 7.24991 7.45959C6.42475 8.29593 5.84062 8.54688 4.77225 8.54688C3.50703 8.54688 2.52295 7.76983 2.52295 6.21574C2.52295 5.00153 3.18352 4.17605 4.12556 3.77145C4.94078 3.41529 6.07972 3.35057 6.95107 3.25328V3.05912C6.95107 2.70254 6.97934 2.28208 6.76856 1.97435C6.58556 1.69919 6.23411 1.58562 5.92503 1.58562C5.35189 1.58562 4.84202 1.8779 4.71716 2.48375C4.69111 2.61862 4.59227 2.75223 4.45604 2.75891L2.99959 2.60191C2.87647 2.57436 2.73969 2.47624 2.77517 2.28918C3.10984 0.530493 4.70549 -0.000621796 6.13588 -0.000621796C6.8669 -0.000621796 7.82287 0.193534 8.39932 0.743854C9.13013 1.42403 9.06006 2.33051 9.06006 3.31842V5.64788C9.06006 6.34935 9.35248 6.65666 9.62703 7.03412C9.72286 7.17024 9.74476 7.33183 9.62238 7.43162C9.31531 7.68757 8.76965 8.15898 8.46981 8.42495L8.46632 8.42161" fill="white"/>
</g>
<g id="Group_3">
<path id="Vector_9" d="M2.4112 36.9316C2.0925 36.9316 1.9333 36.7732 1.9333 36.4561V27.8735H0.45617C0.152051 27.8735 0 27.708 0 27.3763V26.7709C0 26.5693 0.0359725 26.4288 0.108607 26.3494C0.180911 26.2703 0.296647 26.2234 0.45617 26.2089L1.9333 25.9927V24.5226C1.9333 21.9283 3.15686 20.6312 5.60435 20.6312C6.2126 20.6312 6.79162 20.7035 7.34214 20.8474C7.55938 20.9052 7.70396 20.9808 7.77658 21.0744C7.84891 21.1683 7.8852 21.323 7.8852 21.5392V22.3391C7.8852 22.6418 7.76202 22.7931 7.51592 22.7931C7.37101 22.7931 7.1901 22.7681 6.97286 22.7174C6.75566 22.6671 6.47327 22.6418 6.12572 22.6418C5.54633 22.6418 5.12989 22.7644 4.87665 23.0093C4.62312 23.2545 4.49654 23.6507 4.49654 24.1983V25.9278H7.27699C7.59534 25.9278 7.75489 26.0791 7.75489 26.3818V27.3979C7.75489 27.7151 7.59534 27.8735 7.27699 27.8735H4.49654V36.4561C4.49654 36.7732 4.33699 36.9316 4.01864 36.9316H2.4112Z" fill="white"/>
<path id="Vector_10" d="M12.555 37.2559C11.5266 37.2559 10.7338 36.9711 10.1764 36.4019C9.61878 35.8328 9.34012 35.015 9.34012 33.9482V26.4032C9.34012 26.0864 9.49929 25.9276 9.81802 25.9276H11.4255C11.7439 25.9276 11.9034 26.0864 11.9034 26.4032V33.1916C11.9034 33.8979 12.0479 34.4168 12.3378 34.7482C12.6273 35.0799 13.0906 35.2454 13.728 35.2454C14.6258 35.2454 15.531 34.9502 16.4433 34.359V26.4032C16.4433 26.0864 16.6025 25.9276 16.9212 25.9276H18.5287C18.8471 25.9276 19.0066 26.0864 19.0066 26.4032V36.4559C19.0066 36.7731 18.8471 36.9315 18.5287 36.9315H17.3774C17.1744 36.9315 17.0333 36.9028 16.9538 36.8451C16.874 36.7876 16.8197 36.6795 16.7909 36.5208L16.6171 35.7209C15.2557 36.7444 13.9018 37.2558 12.555 37.2558" fill="white"/>
<path id="Vector_11" d="M25.7405 37.0818C24.5964 37.0818 23.7492 36.8153 23.199 36.2819C22.6485 35.7489 22.3736 34.9344 22.3736 33.839V27.8723H20.9833C20.6646 27.8723 20.5054 27.7139 20.5054 27.3967V26.7698C20.5054 26.5826 20.5414 26.4492 20.6141 26.3698C20.6863 26.2908 20.8021 26.2367 20.9616 26.2077L22.4605 25.9915L22.7863 23.3756C22.8005 23.2027 22.8515 23.0804 22.9384 23.0081C23.0253 22.9361 23.1556 22.9 23.3293 22.9H24.4589C24.7773 22.9 24.9368 23.0588 24.9368 23.3756V25.9266H27.6086C27.927 25.9266 28.0865 26.0854 28.0865 26.4022V27.3967C28.0865 27.7139 27.927 27.8723 27.6086 27.8723H24.9368V33.7095C24.9368 34.1997 25.0563 34.5493 25.2952 34.758C25.5342 34.9671 25.936 35.0715 26.5008 35.0715C26.8338 35.0715 27.1016 35.0499 27.3046 35.0066C27.5072 34.9634 27.6738 34.9418 27.8042 34.9418C28.0502 34.9418 28.1734 35.079 28.1734 35.3525V36.1308C28.1734 36.3615 28.1334 36.5237 28.0539 36.6172C27.9742 36.7112 27.8259 36.7868 27.6086 36.8442C27.0004 37.0027 26.3776 37.082 25.7405 37.082" fill="white"/>
<path id="Vector_12" d="M33.1701 37.2559C32.1417 37.2559 31.3488 36.9711 30.7915 36.4019C30.2339 35.8328 29.9552 35.015 29.9552 33.9482V26.4032C29.9552 26.0864 30.1144 25.9276 30.4331 25.9276H32.0406C32.3589 25.9276 32.5184 26.0864 32.5184 26.4032V33.1916C32.5184 33.8979 32.6631 34.4168 32.9529 34.7482C33.2424 35.0799 33.7057 35.2454 34.3431 35.2454C35.2409 35.2454 36.1461 34.9502 37.0584 34.359V26.4032C37.0584 26.0864 37.2176 25.9276 37.5363 25.9276H39.1438C39.4621 25.9276 39.6216 26.0864 39.6216 26.4032V36.4559C39.6216 36.7731 39.4621 36.9315 39.1438 36.9315H37.9925C37.7895 36.9315 37.6483 36.9028 37.5689 36.8451C37.4891 36.7876 37.4348 36.6795 37.406 36.5208L37.2322 35.7209C35.8708 36.7444 34.5169 37.2558 33.1701 37.2558" fill="white"/>
<path id="Vector_13" d="M42.9653 36.9316C42.6469 36.9316 42.4874 36.7732 42.4874 36.4561V26.4033C42.4874 26.0865 42.6469 25.9277 42.9653 25.9277H44.1165C44.3192 25.9277 44.4605 25.9568 44.5403 26.0142C44.6196 26.0719 44.6741 26.18 44.703 26.3385L44.964 27.5707C45.543 26.9367 46.0859 26.4898 46.5931 26.2304C47.0999 25.9709 47.6499 25.8412 48.244 25.8412H48.3308C48.5188 25.8412 48.6744 25.8595 48.7978 25.8953C48.9207 25.9314 49.0076 25.9926 49.0583 26.079C49.1091 26.1655 49.1347 26.3243 49.1347 26.5547V27.7221C49.1347 28.0247 49.0042 28.1761 48.7437 28.1761C48.6564 28.1761 48.5372 28.169 48.385 28.1544C48.2331 28.1403 48.0703 28.1328 47.8962 28.1328C46.8243 28.1328 45.8761 28.4068 45.0508 28.9543V36.4559C45.0508 36.7731 44.891 36.9315 44.573 36.9315H42.9653" fill="white"/>
<path id="Vector_14" d="M57.4314 30.338V30.1651C57.4314 29.2862 57.2392 28.616 56.8558 28.1545C56.4719 27.6934 55.911 27.4628 55.1726 27.4628C54.3905 27.4628 53.7528 27.7222 53.2607 28.2411C52.7682 28.7599 52.4858 29.4591 52.4137 30.338H57.4314ZM55.6068 37.2559C53.7822 37.2559 52.399 36.766 51.4579 35.7858C50.5165 34.8059 50.0457 33.379 50.0457 31.5052C50.0457 29.646 50.5056 28.1976 51.4252 27.1598C52.3448 26.1221 53.6299 25.6033 55.2808 25.6033C56.7001 25.6033 57.7901 25.989 58.5503 26.7599C59.3105 27.5311 59.6906 28.6228 59.6906 30.0351C59.6906 30.5253 59.6541 31.037 59.582 31.57C59.553 31.7575 59.4985 31.8835 59.4192 31.9484C59.3395 32.0132 59.2346 32.0456 59.1041 32.0456H52.4137C52.4573 33.1411 52.7644 33.9447 53.3366 34.4561C53.9089 34.9679 54.7887 35.2236 55.976 35.2236C56.8449 35.2236 57.7574 35.0868 58.7131 34.8128C58.8289 34.7841 58.9157 34.7625 58.9736 34.748C59.0315 34.7338 59.0823 34.7264 59.1259 34.7264C59.3433 34.7264 59.4515 34.8706 59.4515 35.1587V35.937C59.4515 36.1532 59.4192 36.3082 59.3537 36.4018C59.2887 36.4957 59.1402 36.5855 58.9086 36.672C57.9382 37.0612 56.8373 37.2557 55.6068 37.2557" fill="white"/>
<path id="Vector_15" d="M8.01557 44.6935V44.5202C8.01557 43.6413 7.82346 42.9711 7.43991 42.5098C7.05603 42.0488 6.49502 41.8179 5.75645 41.8179C4.97442 41.8179 4.33701 42.0776 3.84489 42.5962C3.35238 43.1152 3.06999 43.8146 2.9977 44.6935H8.01557ZM6.19089 51.6113C4.36621 51.6113 2.9831 51.1216 2.04194 50.1412C1.1004 49.1612 0.630005 47.7345 0.630005 45.8609C0.630005 44.0016 1.08957 42.5532 2.00938 41.5152C2.92885 40.4775 4.21421 39.9587 5.86507 39.9587C7.28418 39.9587 8.37403 40.3444 9.13433 41.1153C9.89458 41.8866 10.2747 42.978 10.2747 44.3906C10.2747 44.8808 10.2384 45.3923 10.1661 45.9255C10.137 46.1129 10.0826 46.239 10.0032 46.3037C9.92345 46.3685 9.81856 46.401 9.68821 46.401H2.99774C3.04117 47.4962 3.34868 48.3 3.92095 48.8115C4.49287 49.3234 5.37261 49.5789 6.56021 49.5789C7.42909 49.5789 8.34143 49.442 9.29724 49.1681C9.41295 49.1393 9.49983 49.118 9.5579 49.1034C9.61558 49.0892 9.66652 49.0817 9.70994 49.0817C9.92718 49.0817 10.0358 49.2261 10.0358 49.5142V50.2925C10.0358 50.5084 10.0032 50.6637 9.93805 50.7572C9.87285 50.8512 9.72421 50.941 9.49274 51.0274C8.52234 51.4165 7.42162 51.6111 6.19093 51.6111" fill="white"/>
<path id="Vector_16" d="M12.8155 51.2871C12.4968 51.2871 12.3376 51.1289 12.3376 50.8115V40.7588C12.3376 40.4419 12.4968 40.2832 12.8155 40.2832H13.9668C14.1694 40.2832 14.3106 40.3122 14.3904 40.3696C14.4698 40.4274 14.5241 40.5355 14.5533 40.6939L14.7271 41.4938C16.0881 40.4706 17.5075 39.9589 18.9846 39.9589C20.0415 39.9589 20.8453 40.2365 21.3958 40.7912C21.946 41.3462 22.2212 42.1499 22.2212 43.2017V50.8114C22.2212 51.1287 22.0617 51.2869 21.7433 51.2869H20.1359C19.8172 51.2869 19.658 51.1287 19.658 50.8114V44.0017C19.658 43.2956 19.513 42.7799 19.2236 42.4559C18.9337 42.1315 18.4704 41.9695 17.8333 41.9695C16.8775 41.9695 15.9 42.2864 14.9008 42.9207V50.8114C14.9008 51.1287 14.7413 51.2869 14.4229 51.2869H12.8154" fill="white"/>
<path id="Vector_17" d="M29.4762 49.1033C30.3305 49.1033 31.1413 48.8223 31.9091 48.2603V42.7258C31.1559 42.2068 30.3522 41.9475 29.498 41.9475C28.6144 41.9475 27.959 42.236 27.5321 42.8122C27.1047 43.3888 26.8912 44.2753 26.8912 45.4715C26.8912 47.8928 27.7527 49.1033 29.4762 49.1033ZM28.9549 55.9998C27.8542 55.9998 26.7752 55.7906 25.7182 55.3727C25.501 55.2862 25.3561 55.1961 25.2838 55.1025C25.2112 55.0086 25.1752 54.8608 25.1752 54.6591V53.7731C25.1752 53.4988 25.2763 53.3622 25.4793 53.3622C25.537 53.3622 25.5988 53.3731 25.664 53.3944C25.7291 53.4161 25.8629 53.4557 26.0658 53.5134C26.9924 53.8161 27.9047 53.9677 28.8028 53.9677C29.8889 53.9677 30.6781 53.7188 31.1705 53.2215C31.6627 52.7242 31.9091 51.9138 31.9091 50.7897V49.8599C30.9676 50.6674 29.9032 51.0708 28.7159 51.0708C27.3691 51.0708 26.2939 50.5701 25.4902 49.568C24.6864 48.5663 24.2846 47.2298 24.2846 45.558C24.2846 44.4193 24.4763 43.4251 24.8602 42.5746C25.2437 41.7242 25.7759 41.0757 26.4568 40.6287C27.1373 40.1822 27.9193 39.9586 28.8028 39.9586C30.0627 39.9586 31.1559 40.3984 32.0829 41.2773L32.2132 40.7152C32.2709 40.4271 32.4593 40.2829 32.778 40.2829H33.951C34.2694 40.2829 34.4289 40.4416 34.4289 40.7585V50.5302C34.4289 52.2739 33.9544 53.6217 33.0061 54.5728C32.0574 55.524 30.7069 56 28.9549 56" fill="white"/>
<path id="Vector_18" d="M37.6881 51.2871C37.3694 51.2871 37.2102 51.1289 37.2102 50.8115V40.7588C37.2102 40.4419 37.3694 40.2832 37.6881 40.2832H39.2956C39.6139 40.2832 39.7735 40.4419 39.7735 40.7588V50.8115C39.7735 51.1289 39.6139 51.2871 39.2956 51.2871H37.6881Z" fill="white"/>
<path id="Vector_19" d="M43.0325 51.2871C42.7141 51.2871 42.5547 51.1289 42.5547 50.8115V40.7588C42.5547 40.4419 42.7141 40.2832 43.0325 40.2832H44.1842C44.3868 40.2832 44.5278 40.3122 44.6075 40.3696C44.6872 40.4274 44.7413 40.5355 44.7707 40.6939L44.9444 41.4938C46.3054 40.4706 47.7247 39.9589 49.2019 39.9589C50.2587 39.9589 51.0626 40.2365 51.613 40.7912C52.1631 41.3462 52.4387 42.1499 52.4387 43.2017V50.8114C52.4387 51.1287 52.2788 51.2869 51.9604 51.2869H50.3531C50.0343 51.2869 49.8753 51.1287 49.8753 50.8114V44.0017C49.8753 43.2956 49.7305 42.7799 49.4406 42.4559C49.1511 42.1315 48.6875 41.9695 48.0507 41.9695C47.095 41.9695 46.1174 42.2864 45.1181 42.9207V50.8114C45.1181 51.1287 44.9586 51.2869 44.6402 51.2869H43.0325" fill="white"/>
<path id="Vector_20" d="M61.8864 44.6935V44.5202C61.8864 43.6413 61.6942 42.9711 61.3107 42.5098C60.9269 42.0488 60.3655 41.8179 59.6271 41.8179C58.8451 41.8179 58.2078 42.0776 57.7157 42.5962C57.2231 43.1152 56.9408 43.8146 56.8682 44.6935H61.8864ZM60.0618 51.6113C58.2367 51.6113 56.8539 51.1216 55.9125 50.1412C54.971 49.1612 54.5007 47.7345 54.5007 45.8609C54.5007 44.0016 54.9601 42.5532 55.8802 41.5152C56.7994 40.4775 58.0849 39.9587 59.7358 39.9587C61.1547 39.9587 62.2446 40.3444 63.0049 41.1153C63.7651 41.8866 64.1452 42.978 64.1452 44.3906C64.1452 44.8808 64.1091 45.3923 64.0369 45.9255C64.0076 46.1129 63.9534 46.239 63.8737 46.3037C63.794 46.3685 63.6891 46.401 63.5591 46.401H56.8682C56.9118 47.4962 57.2193 48.3 57.7916 48.8115C58.3634 49.3234 59.2432 49.5789 60.431 49.5789C61.2998 49.5789 62.2119 49.442 63.1681 49.1681C63.2834 49.1393 63.3707 49.118 63.4286 49.1034C63.4861 49.0892 63.5373 49.0817 63.5805 49.0817C63.7978 49.0817 63.9065 49.2261 63.9065 49.5142V50.2925C63.9065 50.5084 63.8737 50.6637 63.8087 50.7572C63.7437 50.8512 63.5947 50.941 63.3636 51.0274C62.3932 51.4165 61.2923 51.6111 60.0618 51.6111" fill="white"/>
<path id="Vector_21" d="M73.0302 44.6935V44.5202C73.0302 43.6413 72.8381 42.9711 72.4546 42.5098C72.0707 42.0488 71.5098 41.8179 70.7714 41.8179C69.9894 41.8179 69.3517 42.0776 68.8595 42.5962C68.367 43.1152 68.0846 43.8146 68.0125 44.6935H73.0302ZM71.2056 51.6113C69.381 51.6113 67.9978 51.1216 67.0567 50.1412C66.1153 49.1612 65.6446 47.7345 65.6446 45.8609C65.6446 44.0016 66.1044 42.5532 67.024 41.5152C67.9437 40.4775 69.2287 39.9587 70.8796 39.9587C72.2989 39.9587 73.3889 40.3444 74.1491 41.1153C74.9093 41.8866 75.2895 42.978 75.2895 44.3906C75.2895 44.8808 75.253 45.3923 75.1808 45.9255C75.1518 46.1129 75.0973 46.239 75.018 46.3037C74.9383 46.3685 74.8334 46.401 74.7029 46.401H68.0125C68.0561 47.4962 68.3636 48.3 68.9355 48.8115C69.5077 49.3234 70.3875 49.5789 71.5748 49.5789C72.4437 49.5789 73.3562 49.442 74.3119 49.1681C74.4277 49.1393 74.5146 49.118 74.5725 49.1034C74.6303 49.0892 74.6811 49.0817 74.7247 49.0817C74.9421 49.0817 75.0503 49.2261 75.0503 49.5142V50.2925C75.0503 50.5084 75.018 50.6637 74.9526 50.7572C74.8875 50.8512 74.739 50.941 74.5074 51.0274C73.537 51.4165 72.4366 51.6111 71.2056 51.6111" fill="white"/>
<path id="Vector_22" d="M77.83 51.2871C77.5115 51.2871 77.3521 51.1289 77.3521 50.8115V40.7588C77.3521 40.4419 77.5115 40.2832 77.83 40.2832H78.9812C79.1838 40.2832 79.3252 40.3122 79.4049 40.3696C79.4842 40.4274 79.5388 40.5355 79.5677 40.6939L79.8287 41.9261C80.4077 41.2921 80.9505 40.8452 81.4578 40.5858C81.9646 40.3264 82.5146 40.1967 83.1087 40.1967H83.1955C83.3835 40.1967 83.5391 40.2149 83.6625 40.2507C83.7854 40.2869 83.8722 40.348 83.923 40.4345C83.9738 40.521 83.9994 40.6797 83.9994 40.9101V42.0776C83.9994 42.3804 83.8689 42.5315 83.6084 42.5315C83.5215 42.5315 83.4019 42.5244 83.2496 42.5098C83.0978 42.4956 82.935 42.4881 82.7609 42.4881C81.6894 42.4881 80.7408 42.7624 79.9155 43.3098V50.8114C79.9155 51.1287 79.7557 51.2869 79.4377 51.2869H77.83" fill="white"/>
<path id="Vector_23" d="M69.8622 33.123C69.5534 33.123 69.2455 33.003 69.0147 32.7641L65.3488 28.9728C64.8986 28.5071 64.9129 27.7662 65.3807 27.318C65.8489 26.8699 66.5936 26.8841 67.0437 27.3498L70.7093 31.1411C71.1599 31.6068 71.1452 32.3478 70.6774 32.796C70.4492 33.0144 70.1555 33.123 69.8622 33.123Z" fill="white"/>
<path id="Vector_24" d="M66.1244 36.8574C65.8156 36.8574 65.5077 36.7373 65.2769 36.4985C64.8263 36.0328 64.841 35.2918 65.3088 34.8437L69.1183 31.1954C69.5865 30.7474 70.3307 30.7616 70.7813 31.2273C71.2315 31.693 71.2172 32.4339 70.749 32.8822L66.9396 36.5304C66.7118 36.7487 66.4177 36.8574 66.1244 36.8574Z" fill="white"/>
<path id="Vector_25" d="M77.2597 33.123C76.9513 33.123 76.643 33.003 76.4122 32.7641L72.7467 28.9728C72.2961 28.5071 72.3103 27.7662 72.7786 27.318C73.2468 26.8699 73.991 26.8841 74.4412 27.3498L78.1072 31.1411C78.5574 31.6068 78.5431 32.3478 78.0753 32.796C77.8471 33.0144 77.5534 33.123 77.2597 33.123Z" fill="white"/>
<path id="Vector_26" d="M73.5255 36.8574C73.2167 36.8574 72.9088 36.7373 72.678 36.4985C72.2274 36.0328 72.2417 35.2918 72.7099 34.8437L76.5193 31.1954C76.9876 30.7474 77.7318 30.7616 78.182 31.2273C78.6326 31.693 78.6183 32.4339 78.1501 32.8822L74.3407 36.5304C74.1124 36.7487 73.8187 36.8574 73.5255 36.8574Z" fill="white"/>
</g>
</g>
</g>
<defs>
<clipPath id="clip0_22201_3391">
<rect width="84" height="56" fill="white"/>
</clipPath>
</defs>
</svg>
