<svg width="241" height="35" viewBox="0 0 241 35" fill="none" xmlns="http://www.w3.org/2000/svg">
<g id="Group">
<path id="Vector" d="M4.90778 26.9531C4.43149 26.9531 4.19435 26.7152 4.19435 26.2382V11.6189H1.55352C1.07723 11.6189 0.840088 11.3809 0.840088 10.904V10.0103C0.840088 9.77241 0.893314 9.5937 1.00043 9.47418C1.10754 9.3552 1.31571 9.27198 1.62493 9.22393L4.19435 8.90228V5.97113C4.19435 1.99174 6.09683 0.00171471 9.90313 0.00171471C10.8065 0.00171471 11.7584 0.132978 12.7575 0.394968C13.0189 0.466372 13.2035 0.573542 13.3106 0.716686C13.4177 0.859625 13.4709 1.1098 13.4709 1.46722V2.3966C13.4709 2.84959 13.2931 3.07574 12.936 3.07574C12.7218 3.07574 12.4187 3.04004 12.0259 2.96857C11.6338 2.89703 11.1878 2.86133 10.688 2.86133C9.59391 2.86133 8.82659 3.07021 8.38668 3.48681C7.94609 3.90409 7.72647 4.58937 7.72647 5.5421V8.83081H12.5433C13.0189 8.83081 13.2574 9.06925 13.2574 9.54565V10.904C13.2574 11.3809 13.0189 11.6189 12.5433 11.6189H7.72647V26.2382C7.72647 26.7152 7.48866 26.9531 7.01304 26.9531H4.90778Z" fill="#2A4092"/>
<path id="Vector_2" d="M21.2446 27.4893C19.555 27.4893 18.2588 27.0123 17.3554 26.0594C16.4513 25.1066 15.9993 23.76 15.9993 22.0202V9.54498C15.9993 9.06858 16.2371 8.83014 16.7127 8.83014H18.818C19.2936 8.83014 19.5321 9.06858 19.5321 9.54498V20.8763C19.5321 22.1631 19.7813 23.1103 20.2812 23.718C20.7804 24.3257 21.5774 24.6294 22.6721 24.6294C24.3846 24.6294 26.1092 24.0575 27.846 22.9137V9.54491C27.846 9.06851 28.0831 8.83007 28.5594 8.83007H30.6646C31.1403 8.83007 31.3781 9.06851 31.3781 9.54491V26.2375C31.3781 26.7145 31.1403 26.9524 30.6646 26.9524H29.13C28.8922 26.9524 28.7076 26.9049 28.5769 26.8094C28.4462 26.7145 28.3566 26.5357 28.3094 26.2733L28.0595 25.0222C25.8471 26.6665 23.5755 27.4887 21.2446 27.4887" fill="#2A4092"/>
<path id="Vector_3" d="M42.8697 27.2031C39.4912 27.2031 37.8029 25.5115 37.8029 22.1274V11.6181H35.2335C34.7572 11.6181 34.5201 11.3801 34.5201 10.9032V10.0095C34.5201 9.77163 34.5733 9.59292 34.6804 9.4734C34.7875 9.35441 34.9957 9.2712 35.3049 9.22315L37.9094 8.9015L38.3735 4.46907C38.4207 3.99267 38.6706 3.75416 39.1227 3.75416H40.6216C41.0972 3.75416 41.335 3.99267 41.335 4.46907V8.83003H45.974C46.449 8.83003 46.6874 9.06847 46.6874 9.54486V10.9032C46.6874 11.3801 46.449 11.6181 45.974 11.6181H41.335V21.9485C41.335 22.8304 41.5311 23.4498 41.9238 23.8073C42.3166 24.1648 42.9883 24.3434 43.9402 24.3434C44.3915 24.3434 44.9507 24.2843 45.617 24.1648C45.974 24.0932 46.2112 24.0575 46.3304 24.0575C46.5204 24.0575 46.6517 24.1111 46.7232 24.2184C46.7946 24.3256 46.8303 24.4987 46.8303 24.7366V25.7018C46.8303 26.0118 46.7818 26.2441 46.6874 26.3988C46.5918 26.5541 46.4018 26.6792 46.1162 26.7742C45.1885 27.06 44.1059 27.203 42.8697 27.203" fill="#2A4092"/>
<path id="Vector_4" d="M55.4272 27.4893C53.7376 27.4893 52.4414 27.0123 51.538 26.0594C50.6332 25.1066 50.1819 23.76 50.1819 22.0202V9.54498C50.1819 9.06858 50.4197 8.83014 50.8953 8.83014H53.0006C53.4762 8.83014 53.7147 9.06858 53.7147 9.54498V20.8763C53.7147 22.1631 53.9639 23.1103 54.4638 23.718C54.963 24.3257 55.76 24.6294 56.8547 24.6294C58.5672 24.6294 60.2918 24.0575 62.0279 22.9137V9.54491C62.0279 9.06851 62.2657 8.83007 62.742 8.83007H64.8473C65.3229 8.83007 65.5607 9.06851 65.5607 9.54491V26.2375C65.5607 26.7145 65.3229 26.9524 64.8473 26.9524H63.3126C63.0748 26.9524 62.8902 26.9049 62.7595 26.8094C62.6288 26.7145 62.5392 26.5357 62.4921 26.2733L62.2421 25.0222C60.0298 26.6665 57.7581 27.4887 55.4272 27.4887" fill="#2A4092"/>
<path id="Vector_5" d="M70.605 26.9534C70.1294 26.9534 69.8916 26.7155 69.8916 26.2385V9.54596C69.8916 9.06956 70.1294 8.83112 70.605 8.83112H72.1754C72.4125 8.83112 72.5971 8.8791 72.7285 8.97406C72.8592 9.06955 72.9481 9.24826 72.9959 9.51018L73.2459 11.512C73.8879 10.821 74.4949 10.2731 75.0655 9.8676C75.6368 9.46274 76.2249 9.16498 76.8319 8.97406C77.4382 8.78361 78.0863 8.68804 78.7761 8.68804C79.0618 8.68804 79.3474 8.70032 79.633 8.72381C80.0373 8.77186 80.2394 8.98627 80.2394 9.36718V11.2975C80.2394 11.7264 80.0251 11.9409 79.5973 11.9409C79.3831 11.9409 79.1743 11.9292 78.9728 11.9051C78.7701 11.8817 78.5498 11.8694 78.3126 11.8694C76.4095 11.8694 74.7798 12.4413 73.4244 13.5851V26.2392C73.4244 26.7162 73.1859 26.9541 72.7103 26.9541H70.605" fill="#2A4092"/>
<path id="Vector_6" d="M93.8472 16.3008C93.8708 16.1103 93.883 15.8003 93.883 15.3715C93.883 13.9182 93.5441 12.8217 92.8664 12.0829C92.188 11.3445 91.195 10.9748 89.8867 10.9748C88.3884 10.9748 87.2223 11.4216 86.3896 12.3152C85.5569 13.2089 85.0813 14.5376 84.9627 16.3008H93.8472ZM90.4222 27.489C87.4958 27.489 85.2841 26.6791 83.7851 25.0583C82.2869 23.438 81.537 21.0431 81.537 17.8734C81.537 14.8474 82.2869 12.4938 83.7851 10.8142C85.2841 9.13411 87.3765 8.29415 90.0652 8.29415C92.3247 8.29415 94.0615 8.93192 95.2748 10.2065C96.4881 11.4816 97.0944 13.2867 97.0944 15.6218C97.0944 16.3848 97.0344 17.1589 96.9159 17.9453C96.868 18.2313 96.7912 18.4222 96.6841 18.5172C96.577 18.6126 96.4039 18.6602 96.1667 18.6602H84.9627C85.0099 20.7099 85.5158 22.2229 86.4792 23.1998C87.4426 24.1772 88.9348 24.6654 90.9571 24.6654C91.6706 24.6654 92.3544 24.6179 93.0085 24.5224C93.6627 24.4274 94.4899 24.2246 95.489 23.9147C95.6547 23.8673 95.7975 23.8253 95.9168 23.7896C96.0354 23.7538 96.1425 23.736 96.2381 23.736C96.5467 23.736 96.7016 23.9504 96.7016 24.3794V25.3803C96.7016 25.6902 96.6538 25.9109 96.5595 26.0415C96.4638 26.1728 96.2617 26.3096 95.9525 26.4526C95.2391 26.7626 94.3882 27.0122 93.4013 27.2032C92.4137 27.3937 91.4213 27.4893 90.4222 27.4893" fill="#2A4092"/>
<path id="Vector_7" d="M118.861 16.3008C118.884 16.1103 118.897 15.8003 118.897 15.3715C118.897 13.9182 118.558 12.8217 117.879 12.0829C117.202 11.3445 116.208 10.9748 114.9 10.9748C113.401 10.9748 112.236 11.4216 111.403 12.3152C110.571 13.2089 110.095 14.5376 109.976 16.3008H118.861ZM115.435 27.489C112.509 27.489 110.297 26.6791 108.799 25.0583C107.3 23.438 106.551 21.0431 106.551 17.8734C106.551 14.8474 107.3 12.4938 108.799 10.8142C110.297 9.13411 112.39 8.29415 115.078 8.29415C117.338 8.29415 119.075 8.93192 120.288 10.2065C121.501 11.4816 122.108 13.2867 122.108 15.6218C122.108 16.3848 122.048 17.1589 121.93 17.9453C121.882 18.2313 121.804 18.4222 121.697 18.5172C121.591 18.6126 121.418 18.6602 121.18 18.6602H109.976C110.024 20.7099 110.529 22.2229 111.492 23.1998C112.456 24.1772 113.948 24.6654 115.971 24.6654C116.684 24.6654 117.368 24.6179 118.022 24.5224C118.676 24.4274 119.503 24.2246 120.502 23.9147C120.668 23.8673 120.811 23.8253 120.93 23.7896C121.049 23.7538 121.156 23.736 121.251 23.736C121.56 23.736 121.715 23.9504 121.715 24.3794V25.3803C121.715 25.6902 121.667 25.9109 121.572 26.0415C121.477 26.1728 121.275 26.3096 120.966 26.4526C120.252 26.7626 119.401 27.0122 118.415 27.2032C117.427 27.3937 116.434 27.4893 115.435 27.4893" fill="#2A4092"/>
<path id="Vector_8" d="M126.352 26.9535C125.876 26.9535 125.639 26.7156 125.639 26.2386V9.54602C125.639 9.06962 125.876 8.83118 126.352 8.83118H127.922C128.16 8.83118 128.344 8.87916 128.475 8.97412C128.606 9.06961 128.695 9.24832 128.743 9.51025L128.957 10.8328C131.217 9.14115 133.596 8.29498 136.093 8.29498C137.829 8.29498 139.15 8.75397 140.054 9.67114C140.958 10.5887 141.41 11.9175 141.41 13.6567V26.2392C141.41 26.7162 141.172 26.9541 140.696 26.9541H138.591C138.115 26.9541 137.878 26.7162 137.878 26.2392V14.8364C137.878 13.5737 137.622 12.6442 137.11 12.0483C136.598 11.453 135.795 11.1547 134.702 11.1547C132.822 11.1547 130.978 11.7624 129.171 12.9776V26.2391C129.171 26.7161 128.933 26.954 128.458 26.954H126.352" fill="#2A4092"/>
<path id="Vector_9" d="M153.434 23.7715C154.909 23.7715 156.372 23.2236 157.823 22.1272V12.7261C157.109 12.1782 156.384 11.7788 155.647 11.5287C154.909 11.2784 154.1 11.1533 153.22 11.1533C150.128 11.1533 148.582 13.2624 148.582 17.4802C148.582 19.5535 148.992 21.1206 149.812 22.1807C150.633 23.2413 151.84 23.7714 153.434 23.7714V23.7715ZM152.614 34.7451C150.663 34.7451 148.843 34.3876 147.154 33.6727C146.869 33.5532 146.679 33.4225 146.584 33.2795C146.488 33.1366 146.441 32.9098 146.441 32.6004V31.5638C146.441 31.1349 146.584 30.9203 146.869 30.9203C147.011 30.9203 147.184 30.9562 147.387 31.0276C147.588 31.0991 147.868 31.1823 148.225 31.2778C149.699 31.6827 151.067 31.8855 152.328 31.8855C154.231 31.8855 155.622 31.4264 156.503 30.5093C157.383 29.5917 157.823 28.12 157.823 26.0948V24.4863C157.014 25.1777 156.146 25.7077 155.218 26.077C154.29 26.4466 153.351 26.631 152.399 26.631C150.877 26.631 149.556 26.2501 148.439 25.4871C147.321 24.7248 146.464 23.6641 145.87 22.3059C145.275 20.9475 144.977 19.387 144.977 17.6232C144.977 14.7636 145.656 12.4938 147.011 10.8136C148.367 9.13354 150.187 8.29358 152.471 8.29358C154.612 8.29358 156.479 9.03244 158.073 10.5098L158.251 9.50884C158.299 9.24692 158.388 9.06821 158.519 8.97272C158.649 8.87776 158.834 8.82978 159.072 8.82978H160.606C161.082 8.82978 161.32 9.06821 161.32 9.54461V25.8444C161.32 28.68 160.564 30.8721 159.054 32.4215C157.543 33.9703 155.397 34.7449 152.614 34.7449" fill="#2A4092"/>
<path id="Vector_10" d="M166.746 26.9531C166.27 26.9531 166.033 26.7152 166.033 26.2382V9.54565C166.033 9.06925 166.27 8.83081 166.746 8.83081H168.851C169.327 8.83081 169.565 9.06925 169.565 9.54565V26.2382C169.565 26.7152 169.327 26.9531 168.851 26.9531H166.746Z" fill="#2A4092"/>
<path id="Vector_11" d="M174.985 26.9535C174.51 26.9535 174.272 26.7156 174.272 26.2386V9.54602C174.272 9.06962 174.51 8.83118 174.985 8.83118H176.556C176.794 8.83118 176.977 8.87916 177.109 8.97412C177.239 9.06961 177.328 9.24832 177.376 9.51025L177.59 10.8328C179.85 9.14115 182.229 8.29498 184.727 8.29498C186.463 8.29498 187.783 8.75397 188.687 9.67114C189.591 10.5887 190.043 11.9175 190.043 13.6567V26.2392C190.043 26.7162 189.805 26.9541 189.329 26.9541H187.224C186.748 26.9541 186.511 26.7162 186.511 26.2392V14.8364C186.511 13.5737 186.255 12.6442 185.743 12.0483C185.232 11.453 184.429 11.1547 183.335 11.1547C181.455 11.1547 179.612 11.7624 177.805 12.9776V26.2391C177.805 26.7161 177.566 26.954 177.091 26.954H174.985" fill="#2A4092"/>
<path id="Vector_12" d="M205.705 16.3008C205.729 16.1103 205.741 15.8003 205.741 15.3715C205.741 13.9182 205.402 12.8217 204.724 12.0829C204.046 11.3445 203.053 10.9748 201.745 10.9748C200.247 10.9748 199.08 11.4216 198.248 12.3152C197.415 13.2089 196.939 14.5376 196.821 16.3008H205.705ZM202.28 27.489C199.354 27.489 197.142 26.6791 195.643 25.0583C194.145 23.438 193.395 21.0431 193.395 17.8734C193.395 14.8474 194.145 12.4938 195.643 10.8142C197.142 9.13411 199.235 8.29415 201.923 8.29415C204.183 8.29415 205.92 8.93192 207.133 10.2065C208.346 11.4816 208.952 13.2867 208.952 15.6218C208.952 16.3848 208.893 17.1589 208.774 17.9453C208.726 18.2313 208.649 18.4222 208.542 18.5172C208.435 18.6126 208.262 18.6602 208.025 18.6602H196.821C196.868 20.7099 197.374 22.2229 198.337 23.1998C199.301 24.1772 200.793 24.6654 202.815 24.6654C203.529 24.6654 204.212 24.6179 204.867 24.5224C205.521 24.4274 206.348 24.2246 207.347 23.9147C207.513 23.8673 207.656 23.8253 207.775 23.7896C207.894 23.7538 208.001 23.736 208.096 23.736C208.405 23.736 208.56 23.9504 208.56 24.3794V25.3803C208.56 25.6902 208.512 25.9109 208.418 26.0415C208.322 26.1728 208.12 26.3096 207.811 26.4526C207.097 26.7626 206.246 27.0122 205.259 27.2032C204.272 27.3937 203.279 27.4893 202.28 27.4893" fill="#2A4092"/>
<path id="Vector_13" d="M223.868 16.3008C223.891 16.1103 223.903 15.8003 223.903 15.3715C223.903 13.9182 223.565 12.8217 222.886 12.0829C222.208 11.3445 221.215 10.9748 219.907 10.9748C218.408 10.9748 217.243 11.4216 216.41 12.3152C215.577 13.2089 215.102 14.5376 214.983 16.3008H223.868ZM220.442 27.489C217.516 27.489 215.304 26.6791 213.806 25.0583C212.307 23.438 211.557 21.0431 211.557 17.8734C211.557 14.8474 212.307 12.4938 213.806 10.8142C215.304 9.13411 217.397 8.29415 220.086 8.29415C222.345 8.29415 224.082 8.93192 225.295 10.2065C226.508 11.4816 227.115 13.2867 227.115 15.6218C227.115 16.3848 227.055 17.1589 226.936 17.9453C226.888 18.2313 226.811 18.4222 226.705 18.5172C226.597 18.6126 226.424 18.6602 226.187 18.6602H214.983C215.03 20.7099 215.536 22.2229 216.5 23.1998C217.463 24.1772 218.955 24.6654 220.978 24.6654C221.691 24.6654 222.375 24.6179 223.029 24.5224C223.683 24.4274 224.51 24.2246 225.509 23.9147C225.675 23.8673 225.818 23.8253 225.937 23.7896C226.056 23.7538 226.163 23.736 226.258 23.736C226.567 23.736 226.722 23.9504 226.722 24.3794V25.3803C226.722 25.6902 226.674 25.9109 226.579 26.0415C226.484 26.1728 226.281 26.3096 225.973 26.4526C225.259 26.7626 224.409 27.0122 223.422 27.2032C222.434 27.3937 221.441 27.4893 220.442 27.4893" fill="#2A4092"/>
<path id="Vector_14" d="M231.359 26.9534C230.883 26.9534 230.646 26.7155 230.646 26.2385V9.54596C230.646 9.06956 230.883 8.83112 231.359 8.83112H232.929C233.167 8.83112 233.351 8.8791 233.482 8.97406C233.613 9.06955 233.702 9.24826 233.75 9.51018L233.999 11.512C234.642 10.821 235.248 10.2731 235.82 9.8676C236.39 9.46274 236.979 9.16498 237.585 8.97406C238.192 8.78361 238.84 8.68804 239.53 8.68804C239.816 8.68804 240.101 8.70032 240.386 8.72381C240.791 8.77186 240.993 8.98627 240.993 9.36718V11.2975C240.993 11.7264 240.779 11.9409 240.351 11.9409C240.136 11.9409 239.928 11.9292 239.726 11.9051C239.524 11.8817 239.304 11.8694 239.066 11.8694C237.163 11.8694 235.534 12.4413 234.178 13.5851V26.2392C234.178 26.7162 233.94 26.9541 233.464 26.9541H231.359" fill="#2A4092"/>
</g>
</svg>
