<svg width="72" height="72" viewBox="0 0 72 72" fill="none" xmlns="http://www.w3.org/2000/svg">
<g id="reshot-icon-molecules-YBNSD562JC 1" clip-path="url(#clip0_19925_1162)">
<path id="Vector" d="M13.4663 22.3292L26.4675 35.3304L31.5747 30.2232L18.5735 17.222L13.4663 22.3292Z" fill="#57555C"/>
<path id="Vector_2" d="M31.575 30.2228L25.7548 24.4026C23.167 24.925 21.1708 27.0723 20.8706 29.734L26.467 35.3304L31.575 30.2228Z" fill="#3C3A41"/>
<path id="Vector_3" d="M42.6692 39.2709L57.3612 35.3864L55.4916 28.4092L40.7996 32.2937L42.6692 39.2709Z" fill="#57555C"/>
<path id="Vector_4" d="M40.7996 32.2936L42.6692 39.2709L50.9553 37.0801C50.9641 36.8973 50.9693 36.7136 50.9693 36.5285C50.9693 34.1555 50.2477 31.9509 49.0122 30.1224L40.7996 32.2936Z" fill="#3C3A41"/>
<path id="Vector_5" d="M21.4853 61.1036L32.4031 46.1586L26.5706 41.8978L15.6528 56.8428L21.4853 61.1036Z" fill="#57555C"/>
<path id="Vector_6" d="M32.4035 46.1585L27.5485 52.805C24.9112 52.687 22.6082 50.8726 21.9021 48.2889L26.5706 41.8979L32.4035 46.1585Z" fill="#3C3A41"/>
<path id="Vector_7" d="M34.6722 49.4133C40.9994 49.4133 46.1287 44.284 46.1287 37.9568C46.1287 31.6296 40.9994 26.5004 34.6722 26.5004C28.345 26.5004 23.2158 31.6296 23.2158 37.9568C23.2158 44.284 28.345 49.4133 34.6722 49.4133Z" fill="#00D8DE"/>
<path id="Vector_8" d="M42.7733 41.8782C38.2993 46.3521 31.0456 46.3521 26.5716 41.8782C24.8685 40.1751 23.8157 38.0688 23.4091 35.8669C22.7478 39.4494 23.8006 43.2864 26.5716 46.0573C31.0456 50.5312 38.2994 50.5312 42.7733 46.0573C45.5441 43.2864 46.597 39.4494 45.9358 35.8669C45.5291 38.0689 44.4762 40.1751 42.7733 41.8782Z" fill="#00B6BE"/>
<path id="Vector_9" d="M11.7525 25.695C17.639 25.695 22.411 20.923 22.411 15.0364C22.411 9.14991 17.639 4.37793 11.7525 4.37793C5.86597 4.37793 1.09399 9.14991 1.09399 15.0364C1.09399 20.923 5.86597 25.695 11.7525 25.695Z" fill="#FF0435"/>
<path id="Vector_10" d="M19.2889 18.685C15.1267 22.8472 8.37839 22.8472 4.21618 18.685C2.63176 17.1006 1.65231 15.1412 1.27417 13.0925C0.658938 16.4254 1.63853 19.9949 4.21618 22.5728C8.37839 26.735 15.1267 26.735 19.2889 22.5728C21.8668 19.995 22.8463 16.4256 22.2309 13.0925C21.8528 15.1411 20.8733 17.1006 19.2889 18.685Z" fill="#E60020"/>
<path id="Vector_11" d="M16.5277 67.6379C19.8938 67.6379 22.6225 64.9091 22.6225 61.5431C22.6225 58.177 19.8938 55.4482 16.5277 55.4482C13.1616 55.4482 10.4329 58.177 10.4329 61.5431C10.4329 64.9091 13.1616 67.6379 16.5277 67.6379Z" fill="#00D8DE"/>
<path id="Vector_12" d="M20.8191 62.5923C18.395 64.9277 14.5367 64.8557 12.2013 62.4317C11.4548 61.6569 10.9554 60.7351 10.6992 59.7637C10.0769 61.8093 10.5503 64.1221 12.1392 65.7712C14.4745 68.1952 18.3329 68.2671 20.7569 65.9318C22.4061 64.3428 22.9653 62.0494 22.4197 59.9821C22.1272 60.9434 21.5939 61.8458 20.8191 62.5923Z" fill="#00B6BE"/>
<path id="Vector_13" d="M61.8395 39.7732C66.8414 39.7732 70.8963 35.7183 70.8963 30.7164C70.8963 25.7145 66.8414 21.6596 61.8395 21.6596C56.8376 21.6596 52.7827 25.7145 52.7827 30.7164C52.7827 35.7183 56.8376 39.7732 61.8395 39.7732Z" fill="#FF0435"/>
<path id="Vector_14" d="M68.2448 33.2723C64.7077 36.8094 58.9726 36.8094 55.4354 33.2723C54.1594 31.9962 53.3463 30.4339 52.9908 28.7922C52.361 31.7013 53.1741 34.8602 55.4354 37.1216C58.9726 40.6587 64.7077 40.6587 68.2448 37.1216C70.506 34.8603 71.3191 31.7015 70.6893 28.7922C70.3338 30.4337 69.5207 31.9962 68.2448 33.2723Z" fill="#E60020"/>
<path id="Vector_15" d="M10.2943 45.4225C10.9029 45.4225 11.3965 44.9292 11.3965 44.3203V43.7417H11.9749C12.5835 43.7417 13.0771 43.2484 13.0771 42.6395C13.0771 42.0307 12.5837 41.5373 11.9749 41.5373H11.3965V40.9589C11.3965 40.3501 10.9031 39.8567 10.2943 39.8567C9.68567 39.8567 9.19208 40.35 9.19208 40.9589V41.5373H8.61369C8.00507 41.5373 7.51147 42.0306 7.51147 42.6395C7.51147 43.2483 8.00493 43.7417 8.61369 43.7417H9.19208V44.3203C9.19208 44.9292 9.68567 45.4225 10.2943 45.4225Z" fill="black"/>
<path id="Vector_16" d="M50.7608 60.3514H50.1824V59.773C50.1824 59.1642 49.6891 58.6708 49.0802 58.6708C48.4714 58.6708 47.978 59.1641 47.978 59.773V60.3514H47.3996C46.7908 60.3514 46.2974 60.8447 46.2974 61.4536C46.2974 62.0625 46.7907 62.5558 47.3996 62.5558H47.978V63.1342C47.978 63.743 48.4713 64.2364 49.0802 64.2364C49.689 64.2364 50.1824 63.7431 50.1824 63.1342V62.5558H50.7608C51.3696 62.5558 51.863 62.0625 51.863 61.4536C51.863 60.8447 51.3696 60.3514 50.7608 60.3514Z" fill="black"/>
<path id="Vector_17" d="M38.7218 15.7038H39.3002V16.2822C39.3002 16.891 39.7935 17.3844 40.4025 17.3844C41.0112 17.3844 41.5047 16.8911 41.5047 16.2822V15.7038H42.0831C42.6918 15.7038 43.1853 15.2105 43.1853 14.6016C43.1853 13.9928 42.692 13.4994 42.0831 13.4994H41.5047V12.921C41.5047 12.3122 41.0114 11.8188 40.4025 11.8188C39.7937 11.8188 39.3002 12.3121 39.3002 12.921V13.4994H38.7218C38.1131 13.4994 37.6196 13.9927 37.6196 14.6016C37.6196 15.2105 38.1129 15.7038 38.7218 15.7038Z" fill="black"/>
<path id="Vector_18" d="M51.5978 21.5769C51.8797 21.5769 52.162 21.4693 52.3773 21.2542C53.0887 20.5426 53.8769 19.9127 54.7201 19.382C55.2352 19.0577 55.3899 18.3773 55.0656 17.862C54.7412 17.3469 54.0607 17.1924 53.5456 17.5165C52.5635 18.1347 51.646 18.8678 50.8184 19.6952C50.388 20.1258 50.388 20.8236 50.8184 21.2539C51.0337 21.4692 51.3158 21.5769 51.5978 21.5769Z" fill="black"/>
<path id="Vector_19" d="M11.7554 31.6495C12.5917 31.6472 13.4355 31.5848 14.2629 31.4635C14.8651 31.3752 15.2819 30.8157 15.1937 30.2132C15.1055 29.6111 14.5458 29.1951 13.9434 29.2825C13.2195 29.3886 12.4815 29.4432 11.7498 29.445C11.1412 29.4466 10.6488 29.9413 10.6504 30.55C10.6519 31.1578 11.145 31.6493 11.7526 31.6493C11.7533 31.6494 11.7543 31.6495 11.7554 31.6495Z" fill="black"/>
<path id="Vector_20" d="M47.4604 50.1759C49.4855 48.054 50.9644 45.4429 51.7367 42.625C51.8975 42.0379 51.552 41.4315 50.9651 41.2707C50.3774 41.1098 49.7716 41.4554 49.6107 42.0423C48.9346 44.5091 47.6397 46.7952 45.8659 48.6539C45.4457 49.0942 45.4618 49.7917 45.9023 50.2121C46.1156 50.4158 46.3894 50.5169 46.6631 50.5169C46.9536 50.5172 47.2438 50.4028 47.4604 50.1759Z" fill="black"/>
<path id="Vector_21" d="M69.0241 23.5327C65.0627 19.5716 58.6175 19.5715 54.6559 23.5329C53.3218 24.8671 52.4391 26.4835 52.0036 28.1912L44.5298 30.1673C43.8973 29.3696 43.1628 28.6439 42.3357 28.0068C41.8532 27.635 41.1612 27.7255 40.79 28.2074C40.4185 28.6896 40.5084 29.3816 40.9906 29.753C43.1774 31.4374 44.5795 33.8722 44.9385 36.6087C45.6815 42.2696 41.6805 47.4794 36.0198 48.2224C30.3595 48.9667 25.1492 44.9645 24.4061 39.3037C24.0463 36.5613 24.7757 33.8433 26.4602 31.6497C28.1448 29.4561 30.5828 28.0499 33.3248 27.6902C34.4951 27.5363 35.6681 27.5809 36.8111 27.8221C37.4066 27.9468 37.9915 27.567 38.1172 26.9711C38.2426 26.3755 37.862 25.7907 37.2663 25.665C35.8783 25.3721 34.4559 25.3182 33.038 25.5043C31.777 25.6698 30.5693 26.0187 29.444 26.532L22.5649 19.6529C24.3887 15.3667 23.5583 10.2108 20.0679 6.72034C16.423 3.07535 10.9028 2.22148 6.33193 4.59635C5.79179 4.87689 5.58141 5.54233 5.86196 6.08233C6.14265 6.62275 6.80808 6.83298 7.34808 6.5523C11.0618 4.62306 15.5471 5.31691 18.5092 8.27917C22.235 12.005 22.235 18.0672 18.5092 21.7931C14.7833 25.5189 8.721 25.5189 4.99515 21.7931C1.79931 18.5972 1.28392 13.5446 3.77017 9.77921C4.10556 9.27113 3.96564 8.58756 3.4577 8.25203C2.94976 7.91692 2.26605 8.05656 1.93066 8.56449C-1.12976 13.1999 -0.496246 19.4189 3.43703 23.352C5.72963 25.6446 8.74125 26.7909 11.7527 26.7909C13.0873 26.7909 14.4214 26.5647 15.6935 26.1145L22.9702 33.3914C22.2071 35.3394 21.9414 37.4585 22.2213 39.5905C22.4306 41.1865 22.9337 42.6729 23.6673 44.0043L16.1006 54.3636C14.4471 54.461 12.8189 55.1231 11.5353 56.3596C8.67755 59.1129 8.59247 63.678 11.3456 66.5359V66.5361C12.7561 68 14.6414 68.7363 16.5298 68.7363C18.3276 68.7363 20.1279 68.0684 21.5218 66.7256C23.3575 64.9568 24.0471 62.4411 23.5773 60.1098L30.992 49.9596C32.1616 50.3202 33.3957 50.5158 34.6643 50.5158C35.2065 50.5158 35.7554 50.4805 36.3074 50.4082C42.1907 49.6359 46.5953 44.8852 47.1685 39.2214L54.1668 37.371C54.3235 37.5515 54.4848 37.7294 54.6563 37.9008C56.2285 39.4727 58.2202 40.4673 60.4161 40.7767C60.4681 40.784 60.52 40.7875 60.5713 40.7875C61.1119 40.7875 61.5837 40.3896 61.6613 39.8389C61.7462 39.236 61.3265 38.6787 60.7236 38.5938C59.0055 38.3518 57.4462 37.573 56.2152 36.3418C53.1134 33.2402 53.1134 28.1932 56.2152 25.0913C59.3169 21.9894 64.364 21.9895 67.4659 25.0913C68.9686 26.5938 69.796 28.5916 69.796 30.7165C69.796 32.8415 68.9686 34.8392 67.4659 36.3418C66.7761 37.0317 65.9795 37.5818 65.0983 37.977C64.543 38.2259 64.2945 38.8781 64.5435 39.4336C64.7926 39.9891 65.4449 40.2373 66.0001 39.9884C67.127 39.4831 68.1447 38.7805 69.0245 37.9004C70.9436 35.9814 72.0003 33.4302 72.0003 30.7164C72.0003 28.0026 70.9429 25.4518 69.0241 23.5327ZM17.811 25.115C18.6155 24.6316 19.375 24.045 20.068 23.352C20.5941 22.826 21.0569 22.2606 21.4622 21.6676L27.463 27.6685C26.4307 28.3937 25.5023 29.278 24.712 30.307C24.4608 30.634 24.2277 30.9709 24.0118 31.316L17.811 25.115ZM19.9921 65.1381C18.0097 67.0481 14.8427 66.9892 12.9326 65.0065C11.0226 63.024 11.0815 59.8571 13.0641 57.9471C15.0466 56.0372 18.2135 56.0962 20.1234 58.0786C22.0337 60.0611 21.9746 63.2281 19.9921 65.1381ZM22.6111 57.695C22.3554 57.2908 22.0555 56.9066 21.7109 56.5492C20.827 55.6317 19.7558 55.0016 18.6149 54.6579L24.984 45.9382C26.062 47.2426 27.3934 48.3174 28.8916 49.0975L22.6111 57.695ZM47.1893 36.9357C47.1726 36.7318 47.1511 36.5272 47.1242 36.3221C46.9282 34.828 46.4737 33.4092 45.7935 32.1132L51.6889 30.5545C51.6623 32.2335 52.0457 33.9177 52.8441 35.4406L47.1893 36.9357Z" fill="black"/>
</g>
<defs>
<clipPath id="clip0_19925_1162">
<rect width="72" height="72" fill="white"/>
</clipPath>
</defs>
</svg>
