<svg width="24" height="24" viewBox="0 0 24 24" fill="none" xmlns="http://www.w3.org/2000/svg">
<g id="reshot-icon-whatsapp-UANBKF398R 1" clip-path="url(#clip0_22309_3760)">
<path id="Vector" fill-rule="evenodd" clip-rule="evenodd" d="M16.9245 15.1871L14.4982 14.7308C14.085 14.6535 13.8098 14.2335 13.8825 13.7936C13.9552 13.3534 14.3486 13.0601 14.7619 13.1374L17.4146 13.6361C18.3007 13.8161 18.8861 14.6707 18.7226 15.5655C18.7189 15.5857 18.7125 15.6037 18.7087 15.6236C18.5861 16.0635 18.3806 16.4662 18.0795 16.8127C16.3489 18.8021 12.2449 18.2291 8.91337 15.5317C5.5815 12.8355 4.28325 9.03638 6.01462 7.04737C6.42637 6.57337 6.97462 6.24825 7.61362 6.06075C7.66725 6.04725 7.719 6.02813 7.77262 6.02025C7.77262 6.02025 7.77338 6.01912 7.7745 6.01912C8.49638 5.90813 9.21638 6.30487 9.50475 7.00012L10.4494 9.531C10.5892 9.90525 10.3912 10.3193 10.0065 10.4554C9.62288 10.5919 9.19837 10.3991 9.0585 10.0249L8.19037 7.69837C8.11875 7.545 7.94513 7.46475 7.78125 7.52025C7.54125 7.63388 7.332 7.78388 7.164 7.97738C5.96588 9.35475 7.18013 12.2411 9.8775 14.4236C12.5749 16.6061 15.7331 17.2598 16.9309 15.8827C17.0047 15.7972 17.0662 15.7054 17.1214 15.6094C17.1356 15.5824 17.1476 15.5543 17.1529 15.5224C17.1776 15.3664 17.0756 15.2228 16.9245 15.1871ZM2.25 15.75C2.25 16.1644 1.91438 16.5 1.5 16.5C1.08562 16.5 0.75 16.1644 0.75 15.75C0.75 15.3356 1.08562 15 1.5 15C1.91438 15 2.25 15.3356 2.25 15.75ZM12 24C10.1156 24 8.3355 23.5601 6.74925 22.7854C6.72487 22.7749 6.70125 22.7636 6.67838 22.7528C6.6555 22.7419 6.63188 22.7318 6.609 22.7201C6.16988 22.5 5.65162 22.4336 5.14087 22.5728C5.13112 22.5754 5.121 22.5772 5.11088 22.5799L2.93437 23.1844C2.9265 23.1863 2.91712 23.1863 2.90887 23.1893C2.62162 23.2684 2.31075 23.274 2.00325 23.1893C1.095 22.9399 0.561375 22.002 0.81075 21.0938C0.816 21.0728 0.817875 21.057 0.822375 21.0382L1.45837 18.75H1.5C1.5 18.3356 1.83562 18 2.25 18C2.66438 18 3 18.3356 3 18.75H3.01538L2.991 18.8381C2.982 18.9191 2.961 18.9952 2.92763 19.0661L2.2545 21.4913C2.2545 21.4928 2.25712 21.4901 2.25712 21.492C2.22712 21.6011 2.29237 21.714 2.4015 21.7429C2.43412 21.7519 2.46712 21.7519 2.49675 21.7459C2.49863 21.7459 2.496 21.7496 2.49675 21.7496L4.72875 21.1294C4.73325 21.1286 4.73625 21.1286 4.74075 21.1279C5.619 20.8867 6.51075 20.9959 7.26713 21.372C7.27462 21.3757 7.28325 21.3769 7.2915 21.3795C8.70825 22.0928 10.3054 22.5 12 22.5C17.7994 22.5 22.5 17.799 22.5 12C22.5 6.201 17.7994 1.5 12 1.5C6.201 1.5 1.5 6.201 1.5 12C1.5 12.2201 1.51087 12.4384 1.52437 12.6544L1.49062 12.6574C1.49437 12.6874 1.5 12.7181 1.5 12.75C1.5 13.1644 1.16438 13.5 0.75 13.5C0.335625 13.5 0 13.1644 0 12.75C0 12.693 0.0075 12.6371 0.019875 12.5846C0.00975 12.39 0 12.1961 0 12C0 5.37262 5.37262 0 12 0C18.6274 0 24 5.37262 24 12C24 18.6274 18.6274 24 12 24Z" fill="#25D366"/>
</g>
<defs>
<clipPath id="clip0_22309_3760">
<rect width="24" height="24" fill="white"/>
</clipPath>
</defs>
</svg>
