<svg width="32" height="32" viewBox="0 0 32 32" fill="none" xmlns="http://www.w3.org/2000/svg">
<g id="reshot-icon-calendar-U75ASPNFXK">
<g id="calendar">
<path id="Vector" d="M28 10.5V26C28 26.5304 27.7893 27.0391 27.4142 27.4142C27.0391 27.7893 26.5304 28 26 28H6C5.54757 28.0003 5.1084 27.8472 4.75423 27.5656C4.40005 27.2841 4.1518 26.8908 4.05 26.45C4.01801 26.3021 4.00125 26.1513 4 26V10.5H28Z" fill="#C0C0C0"/>
<path id="Vector_2" d="M26.5 10.5V19.5C26.5 21.3565 25.7625 23.137 24.4497 24.4497C23.137 25.7625 21.3565 26.5 19.5 26.5H4.5C4.34869 26.4987 4.1979 26.482 4.05 26.45C4.01801 26.3021 4.00125 26.1513 4 26V10.5H26.5Z" fill="#DEDEF2"/>
<path id="Vector_3" d="M28 7.5V10.5H4V7.5C4 6.96957 4.21071 6.46086 4.58579 6.08579C4.96086 5.71071 5.46957 5.5 6 5.5H26C26.1513 5.50125 26.3021 5.51801 26.45 5.55C26.8908 5.6518 27.2841 5.90005 27.5656 6.25423C27.8472 6.6084 28.0003 7.04757 28 7.5Z" fill="#D94747"/>
<path id="Vector_4" d="M26.5 6C26.5 6.79565 26.1839 7.55871 25.6213 8.12132C25.0587 8.68393 24.2956 9 23.5 9H4V7.5C4 6.96957 4.21071 6.46086 4.58579 6.08579C4.96086 5.71071 5.46957 5.5 6 5.5H26C26.1513 5.50125 26.3021 5.51801 26.45 5.55C26.482 5.6979 26.4987 5.84869 26.5 6Z" fill="#F57070"/>
<path id="Vector_5" d="M16 25C14.7066 24.6363 13.5672 23.8604 12.755 22.7901C11.9427 21.7198 11.5021 20.4136 11.5 19.07V14.78L16 13.5L20.5 14.78V19.07C20.4979 20.4136 20.0573 21.7198 19.245 22.7901C18.4328 23.8604 17.2934 24.6363 16 25Z" fill="#FFB248"/>
<path id="Vector_6" d="M20.5007 14.5V19.07C20.5005 20.1868 20.196 21.2824 19.6199 22.2392C19.0437 23.1959 18.2177 23.9775 17.2307 24.5H14.7707C14.1936 24.1972 13.67 23.802 13.2207 23.33C15.2236 22.9411 17.035 21.8832 18.3577 20.3297C19.6805 18.7762 20.4361 16.8193 20.5007 14.78C20.5007 14.685 20.5007 14.595 20.5007 14.5Z" fill="#F79341"/>
<path id="Vector_7" d="M12 28.5H6C5.33696 28.5 4.70107 28.2366 4.23223 27.7678C3.76339 27.2989 3.5 26.663 3.5 26V10.5C3.5 10.3674 3.55268 10.2402 3.64645 10.1464C3.74021 10.0527 3.86739 10 4 10H6.5C6.63261 10 6.75979 10.0527 6.85355 10.1464C6.94732 10.2402 7 10.3674 7 10.5C7 10.6326 6.94732 10.7598 6.85355 10.8536C6.75979 10.9473 6.63261 11 6.5 11H4.5V26C4.5 26.3978 4.65804 26.7794 4.93934 27.0607C5.22064 27.342 5.60218 27.5 6 27.5H12C12.1326 27.5 12.2598 27.5527 12.3536 27.6464C12.4473 27.7402 12.5 27.8674 12.5 28C12.5 28.1326 12.4473 28.2598 12.3536 28.3536C12.2598 28.4473 12.1326 28.5 12 28.5Z" fill="#2B2B4C"/>
<path id="Vector_8" d="M26 28.5H14C13.8674 28.5 13.7402 28.4473 13.6464 28.3536C13.5527 28.2598 13.5 28.1326 13.5 28C13.5 27.8674 13.5527 27.7402 13.6464 27.6464C13.7402 27.5527 13.8674 27.5 14 27.5H26C26.3978 27.5 26.7794 27.342 27.0607 27.0607C27.342 26.7794 27.5 26.3978 27.5 26V11H8.5C8.36739 11 8.24021 10.9473 8.14645 10.8536C8.05268 10.7598 8 10.6326 8 10.5C8 10.3674 8.05268 10.2402 8.14645 10.1464C8.24021 10.0527 8.36739 10 8.5 10H28C28.1326 10 28.2598 10.0527 28.3536 10.1464C28.4473 10.2402 28.5 10.3674 28.5 10.5V26C28.5 26.663 28.2366 27.2989 27.7678 27.7678C27.2989 28.2366 26.663 28.5 26 28.5Z" fill="#2B2B4C"/>
<path id="Vector_9" d="M28 11H8.5C8.36739 11 8.24021 10.9473 8.14645 10.8536C8.05268 10.7598 8 10.6326 8 10.5C8 10.3674 8.05268 10.2402 8.14645 10.1464C8.24021 10.0527 8.36739 10 8.5 10H27.5V7.5C27.5 7.10218 27.342 6.72064 27.0607 6.43934C26.7794 6.15804 26.3978 6 26 6H25C24.8674 6 24.7402 5.94732 24.6464 5.85355C24.5527 5.75979 24.5 5.63261 24.5 5.5C24.5 5.36739 24.5527 5.24021 24.6464 5.14645C24.7402 5.05268 24.8674 5 25 5H26C26.663 5 27.2989 5.26339 27.7678 5.73223C28.2366 6.20107 28.5 6.83696 28.5 7.5V10.5C28.5 10.6326 28.4473 10.7598 28.3536 10.8536C28.2598 10.9473 28.1326 11 28 11Z" fill="#2B2B4C"/>
<path id="Vector_10" d="M6.5 11H4C3.86739 11 3.74021 10.9473 3.64645 10.8536C3.55268 10.7598 3.5 10.6326 3.5 10.5V7.5C3.5 6.83696 3.76339 6.20107 4.23223 5.73223C4.70107 5.26339 5.33696 5 6 5H23C23.1326 5 23.2598 5.05268 23.3536 5.14645C23.4473 5.24021 23.5 5.36739 23.5 5.5C23.5 5.63261 23.4473 5.75979 23.3536 5.85355C23.2598 5.94732 23.1326 6 23 6H6C5.60218 6 5.22064 6.15804 4.93934 6.43934C4.65804 6.72064 4.5 7.10218 4.5 7.5V10H6.5C6.63261 10 6.75979 10.0527 6.85355 10.1464C6.94732 10.2402 7 10.3674 7 10.5C7 10.6326 6.94732 10.7598 6.85355 10.8536C6.75979 10.9473 6.63261 11 6.5 11Z" fill="#2B2B4C"/>
<path id="Vector_11" d="M10.5 7.5C10.3674 7.5 10.2402 7.44732 10.1464 7.35355C10.0527 7.25979 10 7.13261 10 7V4C10 3.86739 10.0527 3.74021 10.1464 3.64645C10.2402 3.55268 10.3674 3.5 10.5 3.5C10.6326 3.5 10.7598 3.55268 10.8536 3.64645C10.9473 3.74021 11 3.86739 11 4V7C11 7.13261 10.9473 7.25979 10.8536 7.35355C10.7598 7.44732 10.6326 7.5 10.5 7.5Z" fill="#8D8D8D"/>
<path id="Vector_12" d="M21.5 7.5C21.3674 7.5 21.2402 7.44732 21.1464 7.35355C21.0527 7.25979 21 7.13261 21 7V4C21 3.86739 21.0527 3.74021 21.1464 3.64645C21.2402 3.55268 21.3674 3.5 21.5 3.5C21.6326 3.5 21.7598 3.55268 21.8536 3.64645C21.9473 3.74021 22 3.86739 22 4V7C22 7.13261 21.9473 7.25979 21.8536 7.35355C21.7598 7.44732 21.6326 7.5 21.5 7.5Z" fill="#8D8D8D"/>
<path id="Vector_13" d="M16.0003 25.5C15.9556 25.5073 15.91 25.5073 15.8653 25.5C14.4659 25.1024 13.2341 24.2597 12.3563 23.0995C11.4785 21.9394 11.0025 20.5248 11.0003 19.07V14.78C10.9962 14.6678 11.0299 14.5574 11.0962 14.4667C11.1624 14.376 11.2572 14.3103 11.3653 14.28L15.8653 13C15.9536 12.9753 16.047 12.9753 16.1353 13L20.6353 14.28C20.7435 14.3103 20.8383 14.376 20.9045 14.4667C20.9707 14.5574 21.0045 14.6678 21.0003 14.78V19.07C21.0024 20.0172 20.7994 20.9537 20.4053 21.815C20.3837 21.8821 20.3482 21.9438 20.3011 21.9962C20.254 22.0485 20.1963 22.0903 20.1319 22.1189C20.0675 22.1474 19.9978 22.162 19.9273 22.1617C19.8569 22.1614 19.7873 22.1462 19.7231 22.1171C19.6589 22.0881 19.6016 22.0458 19.5549 21.993C19.5083 21.9402 19.4733 21.8782 19.4522 21.811C19.4312 21.7437 19.4246 21.6728 19.4329 21.6028C19.4412 21.5329 19.4642 21.4655 19.5003 21.405C19.8322 20.6714 20.0027 19.8752 20.0003 19.07V15.16L16.0003 14L12.0003 15.14V19.05C11.9975 20.2665 12.3844 21.452 13.1042 22.4327C13.824 23.4135 14.8389 24.1379 16.0003 24.5C16.9576 24.2091 17.8204 23.669 18.5003 22.935C18.5905 22.8369 18.716 22.7786 18.8491 22.773C18.9823 22.7673 19.1122 22.8148 19.2103 22.905C19.3085 22.9952 19.3668 23.1207 19.3724 23.2538C19.378 23.387 19.3305 23.5169 19.2403 23.615C18.3985 24.5171 17.3241 25.1693 16.1353 25.5C16.0907 25.5077 16.045 25.5077 16.0003 25.5Z" fill="#2B2B4C"/>
<path id="Vector_14" d="M15.5001 21.0001C15.4343 21.0005 15.3691 20.9879 15.3081 20.963C15.2472 20.9381 15.1918 20.9014 15.1451 20.8551L13.8951 19.6051C13.8009 19.5109 13.748 19.3832 13.748 19.2501C13.748 19.1169 13.8009 18.9892 13.8951 18.8951C13.9892 18.8009 14.1169 18.748 14.2501 18.748C14.3832 18.748 14.5109 18.8009 14.6051 18.8951L15.5001 19.7951L17.6451 17.6451C17.7392 17.5509 17.8669 17.498 18.0001 17.498C18.1332 17.498 18.2609 17.5509 18.3551 17.6451C18.4492 17.7392 18.5021 17.8669 18.5021 18.0001C18.5021 18.1332 18.4492 18.2609 18.3551 18.3551L15.8551 20.8551C15.8084 20.9014 15.753 20.9381 15.692 20.963C15.6311 20.9879 15.5659 21.0005 15.5001 21.0001Z" fill="#2B2B4C"/>
</g>
</g>
</svg>
