<svg width="44" height="32" viewBox="0 0 44 32" fill="none" xmlns="http://www.w3.org/2000/svg">
<path d="M21.6912 29.4401C16.104 29.4401 11.56 24.8961 11.56 19.3089C11.56 13.7217 16.104 9.17773 21.6912 9.17773C27.2784 9.17773 31.8224 13.7217 31.8224 19.3089C31.8224 24.8961 27.2784 29.4401 21.6912 29.4401Z" fill="#83E1E5"/>
<path d="M10.7089 13.9265C10.6577 13.9265 10.6065 13.9137 10.5617 13.8881C10.4081 13.8049 10.3441 13.6129 10.4273 13.4593C11.6113 11.1809 13.4417 9.33127 15.7073 8.11527C15.8609 8.03207 16.0593 8.08967 16.1425 8.24327C16.2257 8.39687 16.1681 8.59527 16.0145 8.67847C13.8641 9.83047 12.1297 11.5905 11.0033 13.7537C10.9329 13.8625 10.8241 13.9265 10.7089 13.9265Z" fill="#1C1D21"/>
<path d="M21.6913 32.0001C14.6897 32.0001 9.00006 26.3041 9.00006 19.3089C9.00006 18.2721 9.12806 17.2417 9.37126 16.2497C9.41606 16.0769 9.58886 15.9745 9.76166 16.0129C9.93446 16.0577 10.0369 16.2305 9.99846 16.4033C9.76166 17.3505 9.64646 18.3233 9.64646 19.3089C9.64006 25.9521 15.0481 31.3601 21.6913 31.3601C28.3345 31.3601 33.7425 25.9521 33.7425 19.3089C33.7425 12.9665 28.7889 7.68008 22.4657 7.28328C22.2097 7.26408 21.9473 7.25768 21.6913 7.25768C21.5121 7.25768 21.3713 7.11688 21.3713 6.93768C21.3713 6.75848 21.5121 6.61768 21.6913 6.61768C21.9665 6.61768 22.2417 6.62408 22.5105 6.64328C25.7233 6.84808 28.7185 8.25608 30.9329 10.6113C33.1601 12.9729 34.3825 16.0641 34.3825 19.3153C34.3825 26.3041 28.6929 32.0001 21.6913 32.0001Z" fill="#1C1D21"/>
<path d="M19.1377 7.51994C18.9905 7.51994 18.856 7.41754 18.824 7.26394C18.7856 7.09114 18.9009 6.91834 19.0737 6.88634C19.4833 6.80314 19.9056 6.73274 20.328 6.68794C20.5008 6.66874 20.6608 6.79674 20.68 6.96954C20.6992 7.14234 20.5712 7.30234 20.3984 7.32154C20.0016 7.36634 19.5984 7.43034 19.208 7.50714C19.1824 7.51354 19.1633 7.51994 19.1377 7.51994Z" fill="#1C1D21"/>
<path d="M23.2784 7.35339C23.2656 7.35339 23.2528 7.35339 23.24 7.35339C22.216 7.22539 21.1664 7.22539 20.1424 7.35339C20.0528 7.36619 19.9568 7.33419 19.8928 7.27659C19.8224 7.21899 19.784 7.12939 19.784 7.03339V4.52459C19.784 4.34539 19.9248 4.20459 20.104 4.20459H23.2848C23.464 4.20459 23.6048 4.34539 23.6048 4.52459V7.03339C23.6048 7.12299 23.5664 7.21259 23.496 7.27659C23.432 7.32779 23.3552 7.35339 23.2784 7.35339ZM20.424 4.84459V6.67499C21.2688 6.59179 22.12 6.59179 22.9648 6.67499V4.84459H20.424Z" fill="#1C1D21"/>
<path d="M24.0785 0.319824H19.2977C18.5937 0.319824 18.0177 0.895824 18.0177 1.59982V3.24462C18.0177 3.94862 18.5937 4.52462 19.2977 4.52462H24.0785C24.7825 4.52462 25.3585 3.94862 25.3585 3.24462V1.59982C25.3585 0.895824 24.7889 0.319824 24.0785 0.319824Z" fill="#AAB1BA"/>
<path d="M24.0784 4.8448H19.2976C18.4144 4.8448 17.6976 4.128 17.6976 3.2448V1.6C17.6976 0.7168 18.4144 0 19.2976 0H24.0784C24.9616 0 25.6784 0.7168 25.6784 1.6V3.2448C25.6784 4.128 24.9616 4.8448 24.0784 4.8448ZM19.304 0.64C18.7728 0.64 18.344 1.0688 18.344 1.6V3.2448C18.344 3.776 18.7728 4.2048 19.304 4.2048H24.0848C24.616 4.2048 25.0448 3.776 25.0448 3.2448V1.6C25.0448 1.0688 24.616 0.64 24.0848 0.64H19.304Z" fill="#1C1D21"/>
<path d="M21.6914 9.84339C21.5122 9.84339 21.3714 9.70259 21.3714 9.52339V8.77459C21.3714 8.59539 21.5122 8.45459 21.6914 8.45459C21.8706 8.45459 22.0114 8.59539 22.0114 8.77459V9.52339C22.0114 9.69619 21.8706 9.84339 21.6914 9.84339Z" fill="#1C1D21"/>
<path d="M21.6915 30.1632C21.5123 30.1632 21.3715 30.0224 21.3715 29.8432V29.0944C21.3715 28.9152 21.5123 28.7744 21.6915 28.7744C21.8707 28.7744 22.0115 28.9152 22.0115 29.0944V29.8432C22.0115 30.016 21.8707 30.1632 21.6915 30.1632Z" fill="#1C1D21"/>
<path d="M28.6096 12.7044C28.5264 12.7044 28.4432 12.6724 28.3856 12.6084C28.2576 12.4804 28.2576 12.282 28.3856 12.154L28.9168 11.6292C29.0448 11.5012 29.2432 11.5012 29.3712 11.6292C29.4992 11.7572 29.4992 11.9556 29.3712 12.0836L28.84 12.6084C28.776 12.6788 28.6928 12.7044 28.6096 12.7044Z" fill="#1C1D21"/>
<path d="M14.2417 27.0726C14.1585 27.0726 14.0753 27.0406 14.0177 26.9766C13.8897 26.8486 13.8897 26.6502 14.0177 26.5222L14.5425 25.9974C14.6705 25.8694 14.8689 25.8694 14.9969 25.9974C15.1249 26.1254 15.1249 26.3238 14.9969 26.4518L14.4721 26.9766C14.4081 27.047 14.3249 27.0726 14.2417 27.0726Z" fill="#1C1D21"/>
<path d="M32.2257 19.6288H31.4769C31.2977 19.6288 31.1569 19.488 31.1569 19.3088C31.1569 19.1296 31.2977 18.9888 31.4769 18.9888H32.2257C32.4049 18.9888 32.5457 19.1296 32.5457 19.3088C32.5457 19.4816 32.3985 19.6288 32.2257 19.6288Z" fill="#1C1D21"/>
<path d="M11.9057 19.6288H11.1569C10.9777 19.6288 10.8369 19.488 10.8369 19.3088C10.8369 19.1296 10.9777 18.9888 11.1569 18.9888H11.9057C12.0849 18.9888 12.2257 19.1296 12.2257 19.3088C12.2257 19.4816 12.0785 19.6288 11.9057 19.6288Z" fill="#1C1D21"/>
<path d="M29.141 27.0726C29.0578 27.0726 28.9746 27.0406 28.917 26.9766L28.3858 26.4518C28.2578 26.3238 28.2578 26.1254 28.3858 25.9974C28.5138 25.8694 28.7122 25.8694 28.8402 25.9974L29.3714 26.5222C29.4994 26.6502 29.4994 26.8486 29.3714 26.9766C29.301 27.047 29.2242 27.0726 29.141 27.0726Z" fill="#1C1D21"/>
<path d="M14.773 12.7044C14.6898 12.7044 14.6066 12.6724 14.549 12.6084L14.0242 12.0836C13.8962 11.9556 13.8962 11.7572 14.0242 11.6292C14.1522 11.5012 14.3506 11.5012 14.4786 11.6292L15.0034 12.154C15.1314 12.282 15.1314 12.4804 15.0034 12.6084C14.933 12.6788 14.8562 12.7044 14.773 12.7044Z" fill="#1C1D21"/>
<path d="M21.6912 15.8399C21.512 15.8399 21.3712 15.6991 21.3712 15.5199V11.8591C21.3712 11.6799 21.512 11.5391 21.6912 11.5391C21.8704 11.5391 22.0112 11.6799 22.0112 11.8591V15.5199C22.0112 15.6991 21.8704 15.8399 21.6912 15.8399Z" fill="#1C1D21"/>
<path d="M17.9024 19.6288H14.9392C14.76 19.6288 14.6192 19.488 14.6192 19.3088C14.6192 19.1296 14.76 18.9888 14.9392 18.9888H17.9024C18.0816 18.9888 18.2224 19.1296 18.2224 19.3088C18.2224 19.4816 18.0816 19.6288 17.9024 19.6288Z" fill="#1C1D21"/>
<path d="M19.816 4.8448C19.6368 4.8448 19.496 4.704 19.496 4.5248V0.32C19.496 0.1408 19.6368 0 19.816 0C19.9952 0 20.136 0.1408 20.136 0.32V4.5248C20.136 4.6976 19.9888 4.8448 19.816 4.8448Z" fill="#1C1D21"/>
<path d="M21.6913 4.8448C21.5121 4.8448 21.3713 4.704 21.3713 4.5248V0.32C21.3713 0.1408 21.5121 0 21.6913 0C21.8705 0 22.0113 0.1408 22.0113 0.32V4.5248C22.0113 4.6976 21.8705 4.8448 21.6913 4.8448Z" fill="#1C1D21"/>
<path d="M23.5666 4.8448C23.3874 4.8448 23.2466 4.704 23.2466 4.5248V0.32C23.2466 0.1408 23.3874 0 23.5666 0C23.7458 0 23.8866 0.1408 23.8866 0.32V4.5248C23.8866 4.6976 23.7458 4.8448 23.5666 4.8448Z" fill="#1C1D21"/>
<path d="M24.0017 16.0192L23.6561 16.3648C23.5089 16.512 23.2913 16.5504 23.1057 16.4608C22.9777 16.3968 22.8433 16.3392 22.7089 16.2944C22.5169 16.2304 22.3825 16.0448 22.3825 15.84V15.3472C22.3825 15.0784 22.1649 14.8608 21.8961 14.8608H21.4801C21.2113 14.8608 20.9937 15.0784 20.9937 15.3472V15.84C20.9937 16.0448 20.8657 16.2304 20.6673 16.2944C20.5329 16.3392 20.3985 16.3968 20.2705 16.4608C20.0849 16.5504 19.8673 16.512 19.7201 16.3648L19.3745 16.0192C19.1825 15.8272 18.8817 15.8272 18.6897 16.0192L18.3953 16.3136C18.2033 16.5056 18.2033 16.8064 18.3953 16.9984L18.7409 17.344C18.8881 17.4912 18.9265 17.7088 18.8369 17.8944C18.7729 18.0224 18.7153 18.1568 18.6705 18.2912C18.6065 18.4832 18.4209 18.6176 18.2161 18.6176H17.7233C17.4545 18.6176 17.2369 18.8352 17.2369 19.104V19.52C17.2369 19.7888 17.4545 20.0064 17.7233 20.0064H18.2161C18.4209 20.0064 18.6065 20.1344 18.6705 20.3328C18.7153 20.4672 18.7729 20.6016 18.8369 20.7296C18.9265 20.9152 18.8881 21.1328 18.7409 21.28L18.3953 21.6256C18.2033 21.8176 18.2033 22.1184 18.3953 22.3104L18.6897 22.6048C18.8817 22.7968 19.1825 22.7968 19.3745 22.6048L19.7201 22.2592C19.8673 22.112 20.0849 22.0736 20.2705 22.1632C20.3985 22.2272 20.5329 22.2848 20.6673 22.3296C20.8593 22.3936 20.9937 22.5792 20.9937 22.784V23.2768C20.9937 23.5456 21.2113 23.7632 21.4801 23.7632H21.8961C22.1649 23.7632 22.3825 23.5456 22.3825 23.2768V22.784C22.3825 22.5792 22.5105 22.3936 22.7089 22.3296C22.8433 22.2848 22.9777 22.2272 23.1057 22.1632C23.2913 22.0736 23.5089 22.112 23.6561 22.2592L24.0017 22.6048C24.1937 22.7968 24.4945 22.7968 24.6865 22.6048L24.9809 22.3104C25.1729 22.1184 25.1729 21.8176 24.9809 21.6256L24.6353 21.28C24.4881 21.1328 24.4497 20.9152 24.5393 20.7296C24.6033 20.6016 24.6609 20.4672 24.7057 20.3328C24.7697 20.1408 24.9553 20.0064 25.1601 20.0064H25.6529C25.9217 20.0064 26.1393 19.7888 26.1393 19.52V19.104C26.1393 18.8352 25.9217 18.6176 25.6529 18.6176H25.1601C24.9553 18.6176 24.7697 18.4896 24.7057 18.2912C24.6609 18.1568 24.6033 18.0224 24.5393 17.8944C24.4497 17.7088 24.4881 17.4912 24.6353 17.344L24.9809 16.9984C25.1729 16.8064 25.1729 16.5056 24.9809 16.3136L24.6865 16.0192C24.4945 15.8272 24.1937 15.8272 24.0017 16.0192ZM22.7345 20.352C22.1585 20.928 21.2241 20.928 20.6481 20.352C20.0721 19.776 20.0721 18.8416 20.6481 18.2656C21.2241 17.6896 22.1585 17.6896 22.7345 18.2656C23.3105 18.8416 23.3105 19.776 22.7345 20.352Z" fill="#FDDF7F"/>
<path d="M21.8961 24.0702H21.4801C21.0385 24.0702 20.6737 23.7118 20.6737 23.2638V22.771C20.6737 22.7006 20.6289 22.6366 20.5713 22.6174C20.4241 22.5662 20.2769 22.5086 20.1297 22.4382C20.0721 22.4126 19.9953 22.4254 19.9505 22.4702L19.6049 22.8158C19.4513 22.9694 19.2529 23.0526 19.0353 23.0526C18.8177 23.0526 18.6193 22.9694 18.4657 22.8158L18.1713 22.5214C17.8577 22.2078 17.8577 21.6958 18.1713 21.3822L18.5169 21.0366C18.5681 20.9854 18.5809 20.915 18.5489 20.8574C18.4785 20.7166 18.4145 20.5694 18.3697 20.4158C18.3505 20.3518 18.2865 20.3134 18.2161 20.3134H17.7233C17.2817 20.3134 16.9169 19.955 16.9169 19.507V19.091C16.9169 18.6494 17.2753 18.2846 17.7233 18.2846H18.2161C18.2865 18.2846 18.3505 18.2398 18.3697 18.1822C18.4209 18.035 18.4785 17.8878 18.5489 17.7406C18.5745 17.683 18.5617 17.6062 18.5169 17.5614L18.1713 17.2158C17.8577 16.9022 17.8577 16.3902 18.1713 16.0766L18.4657 15.7822C18.6193 15.6286 18.8177 15.5454 19.0353 15.5454C19.2529 15.5454 19.4513 15.6286 19.6049 15.7822L19.9505 16.1278C20.0017 16.179 20.0721 16.1918 20.1297 16.1598C20.2705 16.0894 20.4177 16.0254 20.5713 15.9806C20.6353 15.9614 20.6737 15.8974 20.6737 15.827V15.3342C20.6737 14.8926 21.0321 14.5278 21.4801 14.5278H21.8961C22.3377 14.5278 22.7025 14.8862 22.7025 15.3342V15.827C22.7025 15.8974 22.7473 15.9614 22.8049 15.9806C22.9521 16.0318 23.0993 16.0894 23.2465 16.1598C23.3041 16.1854 23.3809 16.1726 23.4257 16.1278L23.7713 15.7822C24.0849 15.4686 24.5969 15.4686 24.9105 15.7822L25.2049 16.0766C25.3585 16.2302 25.4417 16.4286 25.4417 16.6462C25.4417 16.8638 25.3585 17.0622 25.2049 17.2158L24.8593 17.5614C24.8081 17.6126 24.7953 17.683 24.8273 17.7406C24.8977 17.8814 24.9553 18.0286 25.0065 18.1822C25.0257 18.2462 25.0897 18.2846 25.1601 18.2846H25.6529C26.0945 18.2846 26.4593 18.643 26.4593 19.091V19.507C26.4593 19.7246 26.3761 19.923 26.2225 20.0766C26.0689 20.2302 25.8705 20.3134 25.6529 20.3134H25.1601C25.0897 20.3134 25.0257 20.3582 25.0065 20.4158C24.9553 20.563 24.8977 20.7102 24.8273 20.8574C24.8017 20.915 24.8145 20.9918 24.8593 21.0366L25.2049 21.3822C25.3585 21.5358 25.4417 21.7342 25.4417 21.9518C25.4417 22.1694 25.3585 22.3678 25.2049 22.5214L24.9105 22.8158C24.5969 23.1294 24.0849 23.1294 23.7713 22.8158L23.4257 22.4702C23.3745 22.419 23.3041 22.4062 23.2465 22.4382C23.1057 22.5086 22.9585 22.5726 22.8049 22.6174C22.7409 22.6366 22.7025 22.7006 22.7025 22.771V23.2638C22.7025 23.7118 22.3441 24.0702 21.8961 24.0702ZM20.0721 21.7854C20.1937 21.7854 20.3089 21.811 20.4241 21.8686C20.5393 21.9262 20.6609 21.9774 20.7825 22.0158C21.1089 22.1246 21.3265 22.4318 21.3265 22.7774V23.2702C21.3265 23.3598 21.4033 23.4366 21.4929 23.4366H21.9089C21.9985 23.4366 22.0753 23.3598 22.0753 23.2702V22.7774C22.0753 22.4318 22.2929 22.1246 22.6193 22.0158C22.7409 21.9774 22.8625 21.9262 22.9777 21.8686C23.2849 21.715 23.6497 21.779 23.8993 22.0222L24.2449 22.3678C24.3089 22.4318 24.4113 22.4318 24.4753 22.3678L24.7697 22.0734C24.8017 22.0414 24.8209 22.003 24.8209 21.9582C24.8209 21.9134 24.8017 21.875 24.7697 21.843L24.4241 21.4974C24.1809 21.2542 24.1169 20.883 24.2705 20.5758C24.3281 20.4606 24.3793 20.339 24.4177 20.2174C24.5265 19.891 24.8337 19.6734 25.1793 19.6734H25.6721C25.7169 19.6734 25.7553 19.6542 25.7873 19.6222C25.8193 19.5902 25.8385 19.5518 25.8385 19.507V19.091C25.8385 19.0014 25.7617 18.9246 25.6721 18.9246H25.1793C24.8337 18.9246 24.5265 18.707 24.4177 18.3806C24.3793 18.259 24.3281 18.1374 24.2705 18.0222C24.1169 17.715 24.1809 17.3502 24.4241 17.1006L24.7697 16.755C24.8017 16.723 24.8209 16.6846 24.8209 16.6398C24.8209 16.595 24.8017 16.5566 24.7697 16.5246L24.4753 16.2302C24.4113 16.1662 24.3089 16.1662 24.2449 16.2302L23.8993 16.5758C23.6561 16.819 23.2849 16.883 22.9777 16.7294C22.8625 16.6718 22.7409 16.6206 22.6193 16.5822C22.2929 16.4734 22.0753 16.1662 22.0753 15.8206V15.3278C22.0753 15.2382 21.9985 15.1614 21.9089 15.1614H21.4929C21.4033 15.1614 21.3265 15.2382 21.3265 15.3278V15.8206C21.3265 16.1662 21.1089 16.4734 20.7825 16.5822C20.6609 16.6206 20.5393 16.6718 20.4241 16.7294C20.1169 16.883 19.7521 16.819 19.5025 16.5758L19.1569 16.2302C19.0929 16.1662 18.9841 16.1662 18.9265 16.2302L18.6321 16.5246C18.5681 16.5886 18.5681 16.691 18.6321 16.755L18.9777 17.1006C19.2209 17.3438 19.2849 17.715 19.1313 18.0222C19.0737 18.1374 19.0225 18.259 18.9841 18.3806C18.8753 18.707 18.5681 18.9246 18.2225 18.9246H17.7297C17.6401 18.9246 17.5633 19.0014 17.5633 19.091V19.507C17.5633 19.5966 17.6401 19.6734 17.7297 19.6734H18.2225C18.5681 19.6734 18.8753 19.891 18.9841 20.2174C19.0225 20.339 19.0737 20.4606 19.1313 20.5758C19.2849 20.883 19.2209 21.2478 18.9777 21.4974L18.6321 21.843C18.5681 21.907 18.5681 22.0094 18.6321 22.0734L18.9265 22.3678C18.9905 22.4318 19.0993 22.4318 19.1569 22.3678L19.5025 22.0222C19.6561 21.8686 19.8609 21.7854 20.0721 21.7854ZM21.6913 21.1006C21.2305 21.1006 20.7697 20.9278 20.4241 20.5758C20.0849 20.2366 19.8993 19.7886 19.8993 19.3086C19.8993 18.8286 20.0849 18.3806 20.4241 18.0414C21.1217 17.3438 22.2609 17.3438 22.9649 18.0414C23.3041 18.3806 23.4897 18.8286 23.4897 19.3086C23.4897 19.7886 23.3041 20.2366 22.9649 20.5758C22.6129 20.9278 22.1521 21.1006 21.6913 21.1006ZM21.6913 18.1502C21.3969 18.1502 21.0961 18.2654 20.8721 18.4894C20.6545 18.707 20.5329 18.995 20.5329 19.3086C20.5329 19.6158 20.6545 19.9102 20.8721 20.1278C21.3201 20.5758 22.0561 20.5758 22.5041 20.1278C22.7217 19.9102 22.8433 19.6222 22.8433 19.3086C22.8433 19.0014 22.7217 18.707 22.5041 18.4894C22.2865 18.2654 21.9857 18.1502 21.6913 18.1502Z" fill="#1C1D21"/>
</svg>
