<svg width="161" height="124" viewBox="0 0 161 124" fill="none" xmlns="http://www.w3.org/2000/svg">
<path d="M61.0324 0.000282288C69.5485 3.40455 75.7272 8.66335 75.4255 18.7869C75.3032 22.8957 73.9712 26.6198 70.9107 29.5741C61.8703 38.3032 53.5575 47.7857 43.6322 55.9247C51.0332 65.3645 59.4514 73.7944 68.0659 82.0031C73.8621 87.5258 75.7805 94.2483 73.916 101.558C72.0941 108.702 66.4899 112.523 59.2934 113.926C54.7471 114.812 50.3276 114.032 47.0884 110.965C32.1885 96.855 18.1316 81.8968 4.2239 66.8155C2.08406 64.4947 1.37221 60.851 0 57.8194V54.4836C1.6538 47.4432 6.49858 42.6639 11.4957 37.9223C20.9632 28.9393 30.4482 19.9677 39.668 10.7327C44.053 6.33994 48.4813 2.2205 54.3746 0.000221252L61.0324 0.000282288Z" fill="#FFAD33"/>
<path d="M157.513 94.0023C143.898 79.4413 130.345 64.8156 116.372 50.6065C109.762 43.8791 98.0404 44.4949 91.6874 50.9999C85.0019 57.843 84.9266 67.6241 91.0727 75.2521C98.4041 84.362 107.103 92.1195 115.287 100.375C117.752 102.858 117.695 104.181 115.206 106.476C107.203 113.862 99.4013 121.475 91.518 128.992C87.6046 132.72 85.3092 137.527 85.6291 142.674C86.0869 150.04 90.0567 155.864 97.0746 158.654C104.168 161.472 110.577 159.773 116.134 154.412C129.022 141.978 142.048 129.686 154.942 117.258C158.598 113.736 160.561 109.293 161 104.055C160.555 100.52 160.084 96.7553 157.513 94.0021" fill="#FFAD33"/>
</svg>
