<svg width="517" height="294" viewBox="0 0 517 294" fill="none" xmlns="http://www.w3.org/2000/svg">
<path d="M52.3032 25.426C52.3625 21.1047 48.9767 17.5595 44.7258 17.3675C40.1384 17.1622 36.4416 20.8261 36.4104 25.246C36.3801 29.5125 39.7358 33.0525 43.9821 33.2471C48.5407 33.4551 52.2402 29.8365 52.3032 25.426ZM44.9075 41.1589H44.1222C43.881 41.1602 43.6419 41.1283 43.4023 41.1149C42.4638 41.0629 41.5389 40.9242 40.6264 40.7002C38.1447 40.0949 35.9385 38.951 34.0052 37.283C32.8011 36.2444 31.7777 35.0484 30.9324 33.7004C30.0709 32.3271 29.4351 30.8565 29.0267 29.2872C28.7366 28.1726 28.5751 27.0379 28.5324 25.886C28.4918 24.7847 28.5642 23.6913 28.7518 22.606C29.0699 20.7608 29.6991 19.0275 30.636 17.4062C31.5818 15.7702 32.7823 14.3462 34.2334 13.1369C35.6115 11.989 37.1401 11.0983 38.8202 10.4677C40.3576 9.89035 41.9482 9.56638 43.5873 9.48771C44.1643 9.45971 44.7435 9.46503 45.3216 9.49969C45.9377 9.53569 46.5492 9.60771 47.156 9.7157C48.6955 9.99303 50.1626 10.4863 51.5543 11.201C53.3121 12.105 54.8526 13.2916 56.1667 14.7689C58.0844 16.9248 59.329 19.4181 59.8967 22.2501C60.0801 23.162 60.1666 24.086 60.1869 25.0153V25.5726C60.1989 25.7126 60.1681 25.85 60.1671 25.9886C60.1639 26.366 60.1311 26.7393 60.0895 27.1126C59.9806 28.0899 59.7795 29.0472 59.4879 29.9845C58.7901 32.2298 57.6453 34.2204 56.0662 35.9604C55.1104 37.0137 54.0297 37.9217 52.8282 38.6843C51.3683 39.611 49.8002 40.2816 48.1205 40.6936C47.2002 40.9189 46.2669 41.0603 45.3206 41.1163C45.1831 41.1243 45.0419 41.1162 44.9075 41.1589Z" fill="#F03B28"/>
<path d="M135.504 189.249C134.544 191.366 132.941 192.363 130.583 192.23C129.033 192.143 127.473 192.263 125.922 192.195C124.993 192.154 124.617 192.367 124.669 193.393C124.76 195.187 124.699 196.991 124.693 198.791C124.686 200.795 123.291 202.623 121.499 202.99C119.526 203.394 117.663 202.355 116.823 200.416C116.661 200.042 116.64 199.673 116.64 199.285C116.641 197.202 116.618 195.119 116.654 193.038C116.665 192.381 116.441 192.191 115.802 192.202C113.824 192.235 111.846 192.205 109.868 192.217C107.345 192.23 105.64 190.342 105.654 188.145C105.669 185.536 108.024 184.048 109.828 184.144C111.8 184.249 113.783 184.14 115.76 184.182C116.461 184.197 116.668 183.969 116.654 183.28C116.615 181.233 116.637 179.186 116.641 177.138C116.646 175.404 117.972 173.737 119.61 173.394C121.635 172.972 123.599 173.942 124.308 175.713C124.572 176.372 124.716 177.041 124.704 177.762C124.674 179.562 124.73 181.364 124.678 183.161C124.655 183.934 124.85 184.218 125.67 184.186C127.292 184.122 128.925 184.26 130.542 184.146C132.945 183.976 134.604 184.884 135.504 187.131V189.249Z" fill="#3CAB96"/>
<path d="M93.9621 157.476C94.5924 157.843 95.3533 157.796 95.9893 158.245C97.1522 159.068 97.7448 160.145 97.7683 161.525C97.8027 163.536 97.8095 165.549 97.7611 167.56C97.7423 168.316 97.9944 168.519 98.7245 168.503C100.772 168.459 102.821 168.481 104.87 168.489C106.58 168.496 108.292 169.909 108.573 171.53C108.93 173.584 108.001 175.43 106.278 176.136C105.549 176.433 104.808 176.556 104.019 176.542C102.218 176.514 100.416 176.557 98.6152 176.521C97.974 176.509 97.7521 176.702 97.7641 177.36C97.8005 179.37 97.7835 181.382 97.7756 183.393C97.7672 185.618 95.9882 187.339 93.7169 187.333C91.5064 187.327 89.7378 185.599 89.7258 183.414C89.7149 181.438 89.695 179.461 89.7383 177.486C89.7539 176.765 89.5654 176.497 88.8004 176.517C86.8947 176.568 84.9863 176.538 83.079 176.533C81.1036 176.526 79.2058 175.105 78.925 173.436C78.549 171.2 79.4673 169.523 81.5 168.673C81.8739 168.517 82.2427 168.485 82.6317 168.485C84.6806 168.489 86.7295 168.459 88.7774 168.503C89.5097 168.519 89.7602 168.313 89.7398 167.559C89.6898 165.689 89.8061 163.813 89.7007 161.949C89.593 160.044 90.9607 157.768 93.2856 157.652C93.3727 157.648 93.4544 157.537 93.5388 157.476H93.9621Z" fill="#3CAB96"/>
<path d="M147.783 246.22C149.903 247.066 151.441 248.371 151.366 250.886C151.335 251.906 151.003 252.831 150.242 253.564C147.993 255.732 145.923 258.087 143.453 260.108C145.295 262.453 147.39 264.547 149.534 266.585C150.977 267.957 151.454 269.627 150.99 271.441C150.537 273.216 149.142 274.165 147.351 274.513C146.219 274.733 145.119 274.54 144.314 273.777C140.606 270.273 137.108 266.559 133.646 262.813C133.114 262.237 132.937 261.332 132.595 260.579V259.751C133.007 258.003 134.213 256.815 135.456 255.638C137.812 253.407 140.173 251.179 142.468 248.886C143.558 247.795 144.661 246.771 146.126 246.22H147.783Z" fill="#F177B5"/>
<path d="M171.796 269.567C168.408 265.951 165.036 262.319 161.559 258.789C159.913 257.119 156.997 257.272 155.415 258.887C153.751 260.587 153.733 263.016 155.262 264.911C157.086 267.172 159.251 269.099 161.288 271.149C161.902 271.766 161.887 272.094 161.268 272.665C159.275 274.498 157.335 276.389 155.373 278.257C154.399 279.182 153.827 280.375 153.907 281.654C154.021 283.484 155.009 284.93 156.757 285.624C158.521 286.322 160.115 285.901 161.499 284.569C164.707 281.481 167.948 278.429 171.158 275.342C172.067 274.468 172.555 273.364 172.664 272.064C172.554 271.185 172.436 270.251 171.796 269.567Z" fill="#F177B5"/>
<path d="M421.217 109.944C423.335 110.789 424.873 112.094 424.798 114.609C424.767 115.629 424.437 116.554 423.675 117.288C421.425 119.456 419.357 121.812 416.886 123.833C418.728 126.177 420.823 128.27 422.967 130.309C424.409 131.681 424.886 133.35 424.422 135.165C423.969 136.939 422.574 137.888 420.783 138.236C419.653 138.456 418.553 138.263 417.746 137.502C414.038 133.998 410.54 130.282 407.08 126.537C406.546 125.961 406.369 125.055 406.028 124.303V123.474C406.44 121.726 407.645 120.54 408.889 119.361C411.245 117.13 413.605 114.902 415.9 112.609C416.992 111.518 418.093 110.494 419.559 109.944H421.217Z" fill="#294494"/>
<path d="M445.229 133.29C441.843 129.674 438.47 126.042 434.992 122.513C433.347 120.842 430.431 120.995 428.85 122.61C427.186 124.31 427.167 126.739 428.695 128.634C430.52 130.897 432.684 132.823 434.723 134.872C435.335 135.49 435.322 135.818 434.702 136.388C432.71 138.222 430.768 140.112 428.807 141.98C427.834 142.906 427.262 144.099 427.34 145.378C427.455 147.207 428.443 148.653 430.19 149.347C431.955 150.047 433.55 149.624 434.932 148.293C438.14 145.206 441.381 142.152 444.591 139.066C445.5 138.191 445.989 137.087 446.097 135.787C445.988 134.908 445.871 133.974 445.229 133.29Z" fill="#294494"/>
<path d="M390.871 31.3325C389.912 33.4484 388.308 34.4471 385.95 34.3137C384.4 34.2257 382.84 34.3471 381.29 34.2777C380.36 34.2364 379.984 34.451 380.036 35.4764C380.127 37.271 380.067 39.0736 380.06 40.8736C380.054 42.8788 378.659 44.7068 376.867 45.0734C374.894 45.4761 373.031 44.4388 372.19 42.4988C372.029 42.1242 372.007 41.7549 372.007 41.3682C372.009 39.2856 371.985 37.203 372.021 35.1217C372.033 34.4631 371.809 34.2737 371.17 34.2844C369.191 34.3191 367.214 34.2884 365.235 34.299C362.713 34.3137 361.007 32.4258 361.021 30.2285C361.037 27.6179 363.391 26.1299 365.194 26.2259C367.167 26.3326 369.15 26.2232 371.127 26.2646C371.829 26.2792 372.035 26.0526 372.022 25.3619C371.983 23.3166 372.005 21.2687 372.009 19.2221C372.013 17.4875 373.339 15.8195 374.978 15.4782C377.002 15.0542 378.966 16.0248 379.676 17.7955C379.94 18.4554 380.084 19.1234 380.071 19.8461C380.042 21.6447 380.098 23.446 380.044 25.2446C380.022 26.0166 380.218 26.3019 381.038 26.2699C382.66 26.2059 384.292 26.3432 385.91 26.2286C388.312 26.0592 389.972 26.9672 390.871 29.2152V31.3325Z" fill="#F177B5"/>
<path d="M204.622 142.45C206.954 141.327 207.654 138.302 205.945 136.358C203.223 133.263 200.211 130.446 197.426 127.413C196.466 126.368 195.296 125.924 193.866 125.997C192.037 126.092 190.401 127.913 190.286 129.658C190.197 131.031 190.76 132.114 191.652 133.045C194.406 135.919 197.186 138.77 199.966 141.619C200.743 142.415 201.666 142.918 202.774 142.803C203.451 142.804 204.025 142.738 204.622 142.45ZM223.719 142.455C225.812 141.503 226.951 138.458 225.054 136.327C224.58 135.795 224.099 135.27 223.607 134.755C221.271 132.31 218.914 129.883 216.596 127.42C214.984 125.708 212.706 125.697 211.338 126.533C209.823 127.457 208.863 129.566 209.725 131.493C210.143 132.426 210.834 133.087 211.509 133.786C214.008 136.375 216.512 138.959 219.019 141.542C219.812 142.358 220.716 142.94 221.788 142.808C222.546 142.795 223.115 142.73 223.719 142.455ZM225.663 123.061C226.387 121.358 226.001 119.898 224.776 118.597C223.807 117.568 222.835 116.538 221.856 115.517C220.051 113.633 218.247 111.751 216.431 109.88C214.814 108.215 212.284 108.096 210.677 109.639C209.045 111.204 208.89 113.635 210.585 115.402C213.422 118.36 216.264 121.312 219.119 124.252C219.882 125.038 220.787 125.546 221.792 125.384C223.732 125.385 225.028 124.552 225.663 123.061ZM202.747 125.384C201.614 125.497 200.678 124.973 199.858 124.12C197.144 121.3 194.406 118.501 191.693 115.678C190.817 114.767 190.198 113.727 190.292 112.379C190.394 110.879 191.113 109.752 192.402 109.051C193.778 108.303 195.18 108.384 196.514 109.239C197.656 109.971 198.396 111.105 199.329 112.045C201.465 114.2 203.546 116.41 205.658 118.59C207.646 120.644 207.165 123.726 204.638 125.062C204.063 125.366 203.965 125.385 202.747 125.384Z" fill="#F177B5"/>
<path d="M516.934 65.5182C516.9 65.5529 516.906 65.5969 516.905 65.6395C516.898 66.1249 516.761 66.5795 516.568 67.0168C516.234 67.7702 515.718 68.3768 515.038 68.8381C514.522 69.1874 513.953 69.4114 513.334 69.5101C513.049 69.5554 512.762 69.5741 512.472 69.5741C509.38 69.5728 506.288 69.5728 503.195 69.5754C502.943 69.5754 502.689 69.5608 502.444 69.5248C502.135 69.4808 501.829 69.3888 501.535 69.2714C501 69.0568 500.523 68.7528 500.113 68.3528C499.681 67.9288 499.347 67.4342 499.12 66.8688C498.859 66.2208 498.768 65.5449 498.833 64.8542C498.915 63.9916 499.233 63.2183 499.785 62.5436C500.319 61.893 500.988 61.4383 501.785 61.1743C502.127 61.0623 502.477 61.0023 502.837 60.9757C503.137 60.953 503.437 60.9556 503.736 60.9556C505.205 60.953 506.673 60.9543 508.142 60.9543C508.352 60.9543 508.341 60.9743 508.341 60.7543V48.888C508.341 48.6706 508.341 48.6693 508.121 48.6693C506.437 48.6693 504.754 48.668 503.072 48.6693C502.145 48.6706 501.312 48.3866 500.571 47.8426C499.743 47.2347 499.204 46.4227 498.943 45.428C498.815 44.9414 498.785 44.4427 498.835 43.9468C498.924 43.0441 499.269 42.2455 499.867 41.5548C500.223 41.1442 500.64 40.8148 501.116 40.5628C501.569 40.3228 502.052 40.1735 502.563 40.1068C502.765 40.0802 502.968 40.0762 503.171 40.0762C506.306 40.0762 509.441 40.0775 512.577 40.0748C513.108 40.0735 513.621 40.1508 514.118 40.3348C514.673 40.5402 515.162 40.8455 515.593 41.2535C516.125 41.7575 516.504 42.3575 516.73 43.0534C516.828 43.3481 516.902 43.6481 516.905 43.9627C516.905 44.0001 516.901 44.0387 516.934 44.0667V65.5182Z" fill="#F03B28"/>
<path d="M492.788 29.3725C492.811 29.4005 492.843 29.3992 492.876 29.4019C493.575 29.4499 494.212 29.6818 494.799 30.0578C495.473 30.4898 495.987 31.0698 496.339 31.7871C496.564 32.2471 496.699 32.7338 496.751 33.2458C496.824 33.9591 496.723 34.6431 496.455 35.303C496.28 35.7324 496.04 36.123 495.739 36.4777C495.336 36.951 494.851 37.3123 494.291 37.575C493.817 37.7976 493.319 37.9243 492.795 37.9656C492.484 37.991 492.175 37.9857 491.864 37.9857C490.395 37.9897 488.927 37.987 487.458 37.987C487.242 37.9883 487.255 37.9683 487.255 38.1843V50.0827V50.116C487.258 50.272 487.258 50.2733 487.416 50.2733H492.273C492.423 50.2733 492.573 50.2693 492.723 50.276C493.225 50.2973 493.707 50.4173 494.168 50.6133C494.784 50.876 495.311 51.268 495.745 51.776C496.213 52.3226 496.525 52.9506 496.677 53.6559C496.753 54.0079 496.791 54.3639 496.773 54.7225C496.729 55.6585 496.432 56.5038 495.844 57.2398C495.405 57.7891 494.867 58.2131 494.224 58.4998C493.836 58.6731 493.431 58.7838 493.008 58.8371C492.772 58.8665 492.538 58.8664 492.303 58.8664C489.215 58.8678 486.128 58.8651 483.04 58.8691C482.538 58.8705 482.05 58.8105 481.574 58.6465C480.816 58.3865 480.18 57.9518 479.662 57.3398C479.3 56.9132 479.035 56.4332 478.861 55.9052C478.734 55.5225 478.659 55.1292 478.662 54.7239C478.662 54.6279 478.661 54.5306 478.661 54.4346C478.661 47.5574 478.661 40.6816 478.659 33.8044C478.659 33.4018 478.679 33.0031 478.782 32.6111C478.959 31.9351 479.276 31.3378 479.742 30.8165C480.251 30.2432 480.871 29.8378 481.596 29.5938C481.911 29.4885 482.234 29.4099 482.568 29.4005C482.6 29.3992 482.632 29.3992 482.656 29.3725H492.788Z" fill="#F03B28"/>
<path d="M491.162 201.648C491.222 197.327 487.835 193.782 483.584 193.59C478.997 193.383 475.301 197.048 475.269 201.468C475.238 205.735 478.595 209.275 482.84 209.469C487.399 209.677 491.099 206.059 491.162 201.648ZM483.766 217.381H482.98C482.739 217.382 482.501 217.35 482.261 217.337C481.323 217.285 480.398 217.145 479.485 216.922C477.003 216.317 474.797 215.173 472.863 213.505C471.659 212.467 470.637 211.271 469.791 209.923C468.93 208.549 468.294 207.079 467.886 205.509C467.596 204.395 467.434 203.26 467.392 202.108C467.35 201.007 467.424 199.913 467.61 198.828C467.929 196.983 468.558 195.25 469.494 193.628C470.441 191.992 471.641 190.568 473.093 189.359C474.47 188.211 475.999 187.32 477.679 186.69C479.217 186.113 480.807 185.789 482.446 185.71C483.023 185.682 483.602 185.687 484.18 185.721C484.796 185.758 485.408 185.83 486.015 185.938C487.554 186.215 489.022 186.709 490.412 187.423C492.171 188.326 493.711 189.514 495.026 190.991C496.943 193.147 498.188 195.64 498.756 198.471C498.939 199.384 499.025 200.307 499.045 201.237V201.795C499.057 201.935 499.027 202.072 499.025 202.211C499.023 202.587 498.991 202.961 498.948 203.335C498.839 204.312 498.639 205.269 498.347 206.207C497.648 208.452 496.504 210.443 494.926 212.183C493.97 213.236 492.888 214.144 491.687 214.906C490.227 215.833 488.659 216.504 486.979 216.916C486.059 217.141 485.126 217.282 484.179 217.338C484.042 217.346 483.9 217.338 483.766 217.381Z" fill="#F89D0E"/>
<path d="M315.579 171.729C317.699 172.574 319.236 173.881 319.162 176.395C319.131 177.415 318.799 178.341 318.038 179.074C315.789 181.242 313.719 183.597 311.249 185.618C313.091 187.962 315.186 190.056 317.33 192.095C318.772 193.466 319.25 195.136 318.786 196.951C318.332 198.726 316.938 199.675 315.147 200.023C314.015 200.243 312.915 200.049 312.11 199.287C308.402 195.783 304.904 192.068 301.442 188.323C300.91 187.747 300.733 186.842 300.392 186.089V185.261C300.802 183.511 302.009 182.325 303.252 181.147C305.607 178.917 307.969 176.689 310.263 174.394C311.354 173.303 312.457 172.281 313.923 171.729H315.579Z" fill="#3CAB96"/>
<path d="M339.592 195.075C336.204 191.459 332.832 187.826 329.355 184.298C327.708 182.627 324.792 182.779 323.211 184.395C321.547 186.095 321.53 188.524 323.058 190.418C324.882 192.68 327.047 194.607 329.084 196.657C329.698 197.273 329.683 197.603 329.064 198.172C327.071 200.007 325.131 201.897 323.169 203.764C322.195 204.691 321.623 205.884 321.703 207.163C321.817 208.992 322.805 210.438 324.552 211.13C326.316 211.83 327.912 211.409 329.295 210.077C332.503 206.989 335.744 203.937 338.953 200.851C339.863 199.976 340.351 198.872 340.46 197.571C340.349 196.693 340.232 195.759 339.592 195.075Z" fill="#3CAB96"/>
<path d="M405.63 228.634C404.672 230.751 403.068 231.749 400.709 231.615C399.16 231.527 397.6 231.649 396.049 231.581C395.12 231.539 394.744 231.753 394.796 232.778C394.887 234.573 394.825 236.377 394.82 238.175C394.813 240.18 393.419 242.008 391.627 242.375C389.652 242.779 387.791 241.74 386.949 239.8C386.787 239.426 386.767 239.056 386.767 238.67C386.768 236.587 386.744 234.505 386.78 232.423C386.792 231.766 386.568 231.575 385.928 231.587C383.951 231.621 381.972 231.59 379.995 231.601C377.472 231.615 375.767 229.727 375.78 227.53C375.796 224.921 378.151 223.431 379.954 223.529C381.927 223.634 383.909 223.525 385.887 223.567C386.588 223.582 386.795 223.354 386.781 222.664C386.741 220.618 386.764 218.57 386.768 216.524C386.772 214.789 388.099 213.121 389.736 212.78C391.761 212.356 393.725 213.328 394.435 215.098C394.699 215.757 394.843 216.426 394.831 217.148C394.801 218.948 394.857 220.749 394.804 222.546C394.781 223.318 394.977 223.603 395.797 223.571C397.418 223.507 399.052 223.645 400.669 223.53C403.072 223.361 404.732 224.269 405.63 226.517V228.634Z" fill="#F177B5"/>
<path d="M254.341 239.514C254.306 239.549 254.313 239.594 254.313 239.635C254.306 240.121 254.169 240.575 253.976 241.014C253.642 241.767 253.126 242.373 252.445 242.835C251.929 243.185 251.36 243.409 250.742 243.507C250.456 243.553 250.169 243.571 249.88 243.571C246.786 243.57 243.695 243.569 240.603 243.571C240.349 243.571 240.096 243.558 239.851 243.522C239.541 243.478 239.236 243.386 238.941 243.269C238.408 243.054 237.931 242.75 237.521 242.35C237.088 241.926 236.753 241.431 236.527 240.866C236.267 240.217 236.175 239.541 236.24 238.851C236.321 237.989 236.64 237.214 237.192 236.541C237.727 235.889 238.396 235.435 239.192 235.171C239.533 235.058 239.884 234.998 240.245 234.972C240.545 234.95 240.844 234.953 241.144 234.953C242.612 234.95 244.081 234.952 245.549 234.952C245.758 234.952 245.749 234.97 245.749 234.752V222.885C245.749 222.666 245.748 222.666 245.528 222.666C243.845 222.666 242.163 222.665 240.479 222.666C239.553 222.668 238.719 222.384 237.977 221.84C237.149 221.232 236.612 220.42 236.349 219.425C236.221 218.937 236.192 218.44 236.241 217.944C236.332 217.041 236.676 216.241 237.275 215.552C237.629 215.141 238.047 214.812 238.524 214.559C238.976 214.32 239.46 214.169 239.969 214.104C240.173 214.077 240.375 214.073 240.579 214.073C243.713 214.072 246.849 214.075 249.984 214.071C250.514 214.071 251.029 214.148 251.525 214.332C252.08 214.536 252.57 214.843 253 215.251C253.533 215.755 253.91 216.355 254.138 217.049C254.234 217.345 254.31 217.645 254.312 217.96C254.312 217.996 254.308 218.036 254.341 218.064V239.514Z" fill="#294494"/>
<path d="M230.181 203.368C230.204 203.398 230.237 203.396 230.269 203.398C230.968 203.447 231.605 203.679 232.192 204.054C232.868 204.486 233.38 205.067 233.732 205.784C233.959 206.243 234.092 206.73 234.144 207.243C234.217 207.955 234.117 208.64 233.848 209.3C233.673 209.729 233.433 210.12 233.132 210.475C232.729 210.948 232.244 211.309 231.685 211.572C231.212 211.795 230.713 211.921 230.188 211.963C229.877 211.987 229.568 211.983 229.257 211.983C227.79 211.985 226.32 211.984 224.852 211.984C224.636 211.984 224.65 211.965 224.65 212.181V224.08V224.112C224.651 224.268 224.651 224.269 224.811 224.269C226.43 224.27 228.048 224.27 229.667 224.27C229.817 224.27 229.967 224.266 230.117 224.273C230.62 224.294 231.1 224.413 231.561 224.61C232.179 224.873 232.704 225.265 233.14 225.773C233.607 226.32 233.92 226.946 234.072 227.652C234.147 228.004 234.184 228.361 234.168 228.72C234.123 229.656 233.825 230.5 233.237 231.237C232.799 231.786 232.261 232.209 231.617 232.497C231.229 232.669 230.825 232.781 230.401 232.834C230.167 232.864 229.932 232.864 229.696 232.864C226.61 232.865 223.522 232.862 220.434 232.866C219.932 232.866 219.443 232.806 218.967 232.644C218.21 232.384 217.574 231.948 217.056 231.337C216.694 230.91 216.43 230.43 216.254 229.902C216.127 229.52 216.054 229.126 216.055 228.721C216.056 228.624 216.054 228.528 216.054 228.432C216.054 221.554 216.054 214.677 216.052 207.802C216.052 207.399 216.072 207 216.175 206.608C216.354 205.932 216.67 205.335 217.135 204.812C217.646 204.239 218.264 203.834 218.99 203.591C219.304 203.484 219.627 203.407 219.962 203.398C219.994 203.396 220.027 203.395 220.051 203.368H230.181Z" fill="#294494"/>
<path d="M64.331 244.167C64.3899 239.846 61.0045 236.301 56.753 236.109C52.1657 235.902 48.469 239.567 48.4376 243.987C48.4075 248.254 51.7635 251.794 56.0093 251.988C60.5681 252.196 64.2675 248.578 64.331 244.167ZM56.9349 259.9H56.1494C55.9082 259.901 55.6697 259.869 55.4297 259.856C54.4912 259.804 53.5662 259.664 52.6537 259.441C50.172 258.836 47.9658 257.692 46.0325 256.024C44.8284 254.986 43.8049 253.79 42.9596 252.442C42.0982 251.068 41.4623 249.598 41.0545 248.028C40.7638 246.914 40.6025 245.779 40.5597 244.627C40.5192 243.526 40.592 242.433 40.779 241.347C41.0972 239.502 41.7263 237.769 42.6634 236.147C43.6091 234.511 44.8096 233.087 46.2612 231.878C47.6387 230.73 49.1679 229.84 50.8474 229.209C52.385 228.632 53.9755 228.308 55.6145 228.229C56.1921 228.201 56.7708 228.206 57.3489 228.241C57.965 228.277 58.5764 228.349 59.1838 228.457C60.7228 228.734 62.19 229.228 63.5815 229.942C65.3399 230.845 66.8804 232.033 68.1939 233.51C70.1116 235.666 71.3564 238.159 71.9245 240.99C72.1074 241.903 72.1938 242.826 72.2141 243.757V244.314C72.2261 244.454 72.1954 244.591 72.1944 244.73C72.1912 245.106 72.1589 245.48 72.1173 245.854C72.0078 246.831 71.8074 247.788 71.5157 248.726C70.8173 250.971 69.6726 252.962 68.0939 254.702C67.1377 255.755 66.0571 256.663 64.8555 257.425C63.3957 258.352 61.8274 259.023 60.1477 259.435C59.2275 259.66 58.2947 259.801 57.3478 259.857C57.2109 259.865 57.0697 259.857 56.9349 259.9Z" fill="#294494"/>
<path d="M15.1881 99.3441C17.3079 100.189 18.8454 101.496 18.7703 104.009C18.7402 105.031 18.4083 105.955 17.6469 106.689C15.3969 108.856 13.3283 111.212 10.858 113.233C12.7001 115.577 14.7949 117.67 16.9386 119.709C18.3812 121.081 18.8583 122.75 18.3948 124.566C17.9413 126.339 16.5465 127.289 14.7559 127.637C13.6242 127.858 12.5242 127.663 11.7185 126.902C8.01031 123.398 4.51186 119.682 1.05101 115.937C0.518734 115.361 0.341658 114.456 0 113.704V112.874C0.411443 111.126 1.61716 109.94 2.86086 108.763C5.21707 106.531 7.57741 104.303 9.87162 102.009C10.9627 100.919 12.0648 99.8961 13.5314 99.3441H15.1881Z" fill="#F89D0E"/>
<path d="M39.1995 122.677C35.8121 119.061 32.4393 115.429 28.9623 111.9C27.3159 110.229 24.4004 110.383 22.8187 111.999C21.1552 113.697 21.1364 116.127 22.6645 118.021C24.49 120.284 26.654 122.21 28.6919 124.261C29.305 124.877 29.291 125.205 28.6716 125.776C26.679 127.61 24.7384 129.501 22.7759 131.367C21.8025 132.293 21.2306 133.487 21.3104 134.765C21.4245 136.594 22.4119 138.041 24.1592 138.734C25.9238 139.434 27.519 139.011 28.9023 137.681C32.1096 134.593 35.3512 131.539 38.5605 128.453C39.4698 127.578 39.9588 126.476 40.0672 125.174C39.9574 124.296 39.8402 123.361 39.1995 122.677Z" fill="#F89D0E"/>
<path d="M267.221 36.1457C267.186 36.1803 267.193 36.2243 267.191 36.267C267.186 36.7523 267.049 37.207 266.854 37.6443C266.521 38.3976 266.005 39.0042 265.325 39.4656C264.809 39.8149 264.239 40.0389 263.622 40.1376C263.335 40.1829 263.049 40.2015 262.759 40.2015C259.666 40.2002 256.574 40.2002 253.481 40.2029C253.229 40.2029 252.976 40.1882 252.73 40.1522C252.421 40.1082 252.116 40.0162 251.821 39.8989C251.286 39.6842 250.809 39.3802 250.401 38.9803C249.968 38.5563 249.633 38.0616 249.406 37.4963C249.146 36.8483 249.054 36.1723 249.12 35.4817C249.201 34.619 249.52 33.8457 250.072 33.1711C250.606 32.5204 251.274 32.0657 252.072 31.8018C252.413 31.6898 252.764 31.6298 253.124 31.6031C253.425 31.5804 253.724 31.5831 254.022 31.5831C255.492 31.5804 256.959 31.5818 258.429 31.5818C258.638 31.5818 258.627 31.6018 258.627 31.3818V19.5154C258.627 19.2981 258.627 19.2967 258.407 19.2967C256.725 19.2967 255.041 19.2954 253.358 19.2967C252.432 19.2981 251.598 19.0141 250.857 18.4701C250.029 17.8621 249.49 17.0501 249.229 16.0555C249.101 15.5688 249.072 15.0702 249.121 14.5742C249.21 13.6715 249.556 12.8729 250.153 12.1823C250.509 11.7716 250.926 11.4423 251.404 11.1903C251.856 10.9503 252.34 10.8009 252.849 10.7343C253.052 10.7076 253.254 10.7036 253.457 10.7036C256.593 10.7036 259.729 10.705 262.863 10.7023C263.394 10.701 263.907 10.7783 264.405 10.9623C264.959 11.1676 265.45 11.4729 265.879 11.8809C266.413 12.3849 266.79 12.9849 267.017 13.6809C267.114 13.9755 267.189 14.2755 267.191 14.5902C267.191 14.6275 267.187 14.6662 267.221 14.6942V36.1457Z" fill="#F89D0E"/>
<path d="M243.075 -3.43323e-05C243.097 0.0279655 243.131 0.0266285 243.163 0.029295C243.861 0.0772934 244.499 0.309309 245.085 0.685301C245.76 1.11729 246.273 1.69727 246.625 2.41459C246.85 2.87457 246.985 3.36122 247.037 3.87321C247.11 4.58652 247.01 5.2705 246.741 5.93048C246.566 6.3598 246.326 6.75047 246.025 7.10513C245.622 7.57845 245.137 7.93977 244.578 8.20243C244.104 8.42509 243.605 8.55175 243.081 8.59308C242.771 8.61841 242.461 8.6131 242.151 8.6131C240.683 8.6171 239.213 8.61443 237.744 8.61577C237.528 8.61577 237.543 8.59576 237.543 8.81176V20.7101C237.543 20.7208 237.541 20.7328 237.543 20.7435C237.544 20.8995 237.544 20.9008 237.703 20.9008H242.56C242.709 20.9008 242.86 20.8968 243.009 20.9034C243.512 20.9248 243.993 21.0448 244.454 21.2408C245.072 21.5034 245.597 21.8954 246.032 22.4034C246.5 22.9501 246.813 23.5781 246.964 24.2834C247.04 24.6354 247.077 24.9914 247.06 25.3514C247.016 26.286 246.718 27.1313 246.13 27.8673C245.692 28.4166 245.154 28.8406 244.51 29.1272C244.123 29.3006 243.717 29.4112 243.295 29.4646C243.059 29.4939 242.824 29.4939 242.589 29.4939C239.501 29.4952 236.415 29.4926 233.327 29.4966C232.824 29.4979 232.336 29.4379 231.86 29.2739C231.103 29.0139 230.467 28.5793 229.948 27.9673C229.587 27.5406 229.323 27.0606 229.147 26.5326C229.02 26.15 228.947 25.7567 228.948 25.3514C228.948 25.2554 228.947 25.158 228.947 25.062C228.947 18.1848 228.947 11.309 228.946 4.43185C228.946 4.0292 228.966 3.63055 229.068 3.23856C229.246 2.56257 229.563 1.96526 230.028 1.44394C230.539 0.870621 231.158 0.463976 231.883 0.221315C232.197 0.115984 232.52 0.0372925 232.855 0.0279598C232.887 0.0266266 232.919 0.0266323 232.943 -3.43323e-05H243.075Z" fill="#F89D0E"/>
<path d="M453.723 293.541C456.056 292.417 456.754 289.393 455.045 287.447C452.325 284.354 449.313 281.536 446.527 278.502C445.568 277.459 444.397 277.014 442.968 277.088C441.139 277.181 439.503 279.002 439.388 280.748C439.298 282.122 439.86 283.204 440.754 284.136C443.508 287.009 446.287 289.859 449.068 292.709C449.845 293.506 450.768 294.007 451.875 293.894C452.552 293.894 453.125 293.827 453.723 293.541ZM472.819 293.546C474.914 292.594 476.051 289.549 474.155 287.417C473.682 286.885 473.199 286.361 472.709 285.846C470.371 283.4 468.014 280.974 465.697 278.51C464.086 276.797 461.808 276.788 460.438 277.622C458.925 278.548 457.964 280.657 458.826 282.582C459.244 283.517 459.934 284.177 460.61 284.877C463.11 287.465 465.613 290.05 468.121 292.631C468.914 293.447 469.818 294.031 470.89 293.898C471.646 293.885 472.217 293.821 472.819 293.546ZM474.765 274.15C475.489 272.449 475.103 270.989 473.878 269.688C472.907 268.657 471.937 267.628 470.957 266.606C469.153 264.724 467.349 262.841 465.532 260.969C463.914 259.304 461.385 259.187 459.778 260.729C458.146 262.295 457.992 264.724 459.686 266.492C462.522 269.45 465.365 272.402 468.219 275.342C468.983 276.128 469.889 276.637 470.894 276.474C472.834 276.474 474.129 275.642 474.765 274.15ZM451.848 276.474C450.716 276.586 449.78 276.062 448.96 275.21C446.245 272.389 443.507 269.59 440.795 266.768C439.918 265.856 439.3 264.816 439.392 263.469C439.496 261.969 440.215 260.841 441.503 260.141C442.879 259.392 444.28 259.473 445.616 260.329C446.756 261.06 447.497 262.196 448.429 263.136C450.567 265.29 452.648 267.5 454.758 269.681C456.746 271.733 456.265 274.816 453.74 276.153C453.165 276.457 453.065 276.474 451.848 276.474Z" fill="#3CAB96"/>
<path d="M131.747 35.4524C133.866 36.2977 135.403 37.6043 135.328 40.1176C135.298 41.1389 134.966 42.0628 134.204 42.7975C131.955 44.9641 129.886 47.32 127.416 49.3413C129.258 51.6853 131.353 53.7786 133.496 55.8172C134.939 57.1891 135.416 58.8584 134.952 60.6744C134.499 62.4477 133.105 63.397 131.314 63.745C130.183 63.965 129.083 63.7716 128.276 63.0103C124.569 59.5064 121.07 55.7905 117.609 52.0453C117.077 51.4693 116.9 50.564 116.558 49.812V48.9827C116.97 47.2347 118.176 46.0481 119.419 44.8708C121.775 42.6388 124.135 40.4109 126.429 38.1176C127.521 37.027 128.623 36.003 130.09 35.4524H131.747Z" fill="#294494"/>
<path d="M155.757 58.7984C152.37 55.1825 148.997 51.5506 145.52 48.0213C143.873 46.3507 140.958 46.504 139.376 48.12C137.713 49.8186 137.694 52.2479 139.222 54.1425C141.048 56.4051 143.212 58.3317 145.249 60.3824C145.862 60.9983 145.849 61.3263 145.229 61.897C143.237 63.7316 141.296 65.6222 139.333 67.4888C138.36 68.4141 137.788 69.6088 137.868 70.8861C137.982 72.7154 138.969 74.162 140.717 74.8553C142.481 75.5553 144.077 75.1326 145.46 73.802C148.667 70.7141 151.909 67.6608 155.118 64.5742C156.027 63.6996 156.517 62.5969 156.625 61.2956C156.515 60.417 156.398 59.4824 155.757 58.7984Z" fill="#294494"/>
</svg>
