<svg width="64" height="70" viewBox="0 0 64 70" fill="none" xmlns="http://www.w3.org/2000/svg">
<path d="M30.3267 -9.99937C34.5583 -8.29724 37.6284 -5.66784 37.4785 -0.606056C37.4178 1.44832 36.7559 3.31039 35.2351 4.78755C30.743 9.15207 26.6124 13.8933 21.6806 17.9628C25.3581 22.6827 29.5411 26.8977 33.8216 31.002C36.7016 33.7634 37.6549 37.1246 36.7285 40.7793C35.8232 44.3514 33.0385 46.2622 29.4625 46.9635C27.2036 47.4066 25.0075 47.0163 23.3979 45.4829C15.9943 38.428 9.00949 30.9489 2.09883 23.4082C1.03556 22.2478 0.681841 20.426 0 18.9102V17.2423C0.821762 13.7221 3.22911 11.3324 5.71216 8.96162C10.4165 4.47015 15.1295 -0.0156631 19.7108 -4.63314C21.8897 -6.82954 24.0901 -8.88926 27.0185 -9.9994L30.3267 -9.99937Z" fill="#FFAD33"/>
<path d="M78.2674 37.0011C71.502 29.7207 64.7677 22.4078 57.8246 15.3033C54.5401 11.9395 48.7158 12.2475 45.559 15.5C42.237 18.9215 42.1996 23.812 45.2536 27.6261C48.8965 32.181 53.2188 36.0597 57.2855 40.1877C58.5102 41.4291 58.4822 42.0905 57.245 43.2381C53.2686 46.9308 49.392 50.7373 45.4748 54.496C43.5303 56.3602 42.3897 58.7634 42.5486 61.3369C42.7761 65.0199 44.7487 67.9321 48.2358 69.3272C51.7603 70.7362 54.9452 69.8865 57.7062 67.2058C64.1102 60.989 70.5827 54.8428 76.9897 48.6291C78.8065 46.8679 79.7819 44.6467 80 42.0276C79.7788 40.2598 79.5451 38.3777 78.2674 37.0011" fill="#FFAD33"/>
</svg>
