<svg width="65" height="64" viewBox="0 0 65 64" fill="none" xmlns="http://www.w3.org/2000/svg">
<path d="M6.61145 19.4836H17.1884V8.7605H6.61145V19.4836ZM8.83802 11.0165H14.9611V17.2261H8.83802V11.0165ZM31.1045 8.7605V19.4836H41.6807V8.7605H31.1045ZM33.3303 17.2269V11.018H39.4526L39.4541 17.2269H33.3303ZM6.61145 45.8203H17.1884V35.0987H6.61145V45.8203ZM8.83802 37.3554H14.9611V43.5636H8.83802V37.3554Z" fill="#FFAD33"/>
<path d="M24.4249 33.405C27.7042 33.405 30.3625 30.7097 30.3625 27.385C30.3625 24.0602 27.7042 21.365 24.4249 21.365C21.1457 21.365 18.4874 24.0602 18.4874 27.385C18.4874 30.7097 21.1457 33.405 24.4249 33.405Z" fill="#FBCF26"/>
<path d="M24.4523 27.4631L55.9865 38.0448L46.6623 41.5612L54.3878 49.3939L46.8761 57.0122L39.1231 49.1516L35.5109 58.4141L24.4523 27.4631ZM46.8761 53.8179L51.2387 49.3947L42.6352 40.6732L49.2681 38.1689L28.1083 31.0684L35.6022 52.0405L38.2993 45.125L46.8761 53.8179Z" fill="#FFAD33"/>
<path d="M10.8175 30.1223H12.8274V28.0845H10.8175V30.1223ZM10.8175 26.6525H12.8274V24.6147H10.8175V26.6525ZM10.8175 23.1842H12.8274V21.1457H10.8175V23.1842ZM10.8175 33.5913H12.8274V31.5535H10.8175V33.5913ZM35.3098 21.1457V23.1842H37.3196V21.1457H35.3098ZM35.3098 30.1223H37.3196V28.0845H35.3098V30.1223ZM35.3098 26.6525H37.3196V24.6147H35.3098V26.6525ZM28.1966 14.9677H30.2065V12.9292H28.1966V14.9677ZM17.9314 14.9677H19.942V12.9292H17.9314V14.9677ZM24.7744 14.9677H26.7842V12.9292H24.7744V14.9677ZM21.3529 14.9677H23.3627V12.9292H21.3529V14.9677ZM24.7744 41.3052H26.7842V39.2666H24.7744V41.3052ZM21.3529 41.3052H23.3627V39.2666H21.3529V41.3052ZM17.9314 41.3052H19.942V39.2666H17.9314V41.3052Z" fill="#FFAD33"/>
</svg>
