<svg width="32" height="32" viewBox="0 0 32 32" fill="none" xmlns="http://www.w3.org/2000/svg">
<g clip-path="url(#clip0_20792_4665)">
<path fill-rule="evenodd" clip-rule="evenodd" d="M16.0118 -0.00512695C24.8577 -0.00512695 32.0288 7.1659 32.0288 16.0118C32.0288 24.8577 24.8577 32.0288 16.0118 32.0288C7.1659 32.0288 -0.00512695 24.8577 -0.00512695 16.0118C-0.00512695 7.1659 7.1659 -0.00512695 16.0118 -0.00512695Z" fill="#7E7E7E"/>
<path fill-rule="evenodd" clip-rule="evenodd" d="M16.0119 2.11084C19.8506 2.11084 23.3258 3.66682 25.8414 6.1824C28.357 8.698 29.913 12.1733 29.913 16.0119C29.913 19.8506 28.357 23.3258 25.8414 25.8414C23.3258 28.357 19.8506 29.913 16.0119 29.913C12.1733 29.913 8.698 28.357 6.1824 25.8414C3.66682 23.3258 2.11084 19.8506 2.11084 16.0119C2.11084 12.1733 3.66682 8.698 6.1824 6.1824C8.698 3.66682 12.1733 2.11084 16.0119 2.11084Z" fill="#D4D4D4"/>
<path fill-rule="evenodd" clip-rule="evenodd" d="M25.1335 6.8901C22.7991 4.55572 19.5741 3.11182 16.0118 3.11182C12.4495 3.11182 9.22451 4.55572 6.8901 6.8901C4.55572 9.22451 3.11182 12.4496 3.11182 16.0118C3.11182 19.5741 4.55572 22.7991 6.8901 25.1335C9.22451 27.4679 12.4496 28.9118 16.0118 28.9118C19.5741 28.9118 22.7991 27.4679 25.1335 25.1335C27.4679 22.7991 28.9118 19.5741 28.9118 16.0118C28.9118 12.4495 27.4679 9.22451 25.1335 6.8901Z" fill="#F0F0F0"/>
<path fill-rule="evenodd" clip-rule="evenodd" d="M10.1693 5.89235C10.4087 5.75411 10.7148 5.83614 10.853 6.07554C10.9913 6.31494 10.9092 6.62107 10.6698 6.75928C10.4304 6.8975 10.1243 6.81547 9.98608 6.57607C9.84787 6.33667 9.9299 6.03057 10.1693 5.89235Z" fill="#202020"/>
<path fill-rule="evenodd" clip-rule="evenodd" d="M5.89234 10.1693C6.03056 9.9299 6.33666 9.84787 6.57607 9.98608C6.81547 10.1243 6.8975 10.4304 6.75928 10.6698C6.62107 10.9092 6.31494 10.9913 6.07554 10.853C5.83614 10.7148 5.75411 10.4087 5.89234 10.1693Z" fill="#202020"/>
<path fill-rule="evenodd" clip-rule="evenodd" d="M4.32666 16.0118C4.32666 15.7353 4.55077 15.5112 4.82719 15.5112C5.10361 15.5112 5.32772 15.7353 5.32772 16.0118C5.32772 16.2882 5.10361 16.5123 4.82719 16.5123C4.55077 16.5123 4.32666 16.2882 4.32666 16.0118Z" fill="#202020"/>
<path fill-rule="evenodd" clip-rule="evenodd" d="M5.89235 21.8544C5.75411 21.615 5.83614 21.3089 6.07554 21.1707C6.31494 21.0324 6.62107 21.1145 6.75928 21.3539C6.8975 21.5933 6.81547 21.8994 6.57607 22.0376C6.33667 22.1758 6.03057 22.0938 5.89235 21.8544Z" fill="#202020"/>
<path fill-rule="evenodd" clip-rule="evenodd" d="M10.1693 26.1313C9.9299 25.9931 9.84787 25.687 9.98608 25.4476C10.1243 25.2082 10.4304 25.1262 10.6698 25.2644C10.9092 25.4026 10.9913 25.7087 10.853 25.9481C10.7148 26.1875 10.4087 26.2696 10.1693 26.1313Z" fill="#202020"/>
<path fill-rule="evenodd" clip-rule="evenodd" d="M16.0118 27.6969C15.7353 27.6969 15.5112 27.4728 15.5112 27.1963C15.5112 26.9199 15.7353 26.6958 16.0118 26.6958C16.2882 26.6958 16.5123 26.9199 16.5123 27.1963C16.5123 27.4728 16.2882 27.6969 16.0118 27.6969Z" fill="#202020"/>
<path fill-rule="evenodd" clip-rule="evenodd" d="M21.8544 26.1313C21.615 26.2696 21.3089 26.1875 21.1707 25.9481C21.0324 25.7087 21.1145 25.4026 21.3539 25.2644C21.5933 25.1262 21.8994 25.2082 22.0376 25.4476C22.1758 25.687 22.0938 25.9931 21.8544 26.1313Z" fill="#202020"/>
<path fill-rule="evenodd" clip-rule="evenodd" d="M26.1313 21.8544C25.9931 22.0938 25.687 22.1758 25.4476 22.0376C25.2082 21.8994 25.1262 21.5933 25.2644 21.3539C25.4026 21.1145 25.7087 21.0324 25.9481 21.1707C26.1875 21.3089 26.2696 21.615 26.1313 21.8544Z" fill="#202020"/>
<path fill-rule="evenodd" clip-rule="evenodd" d="M27.6969 16.0118C27.6969 16.2882 27.4728 16.5123 27.1963 16.5123C26.9199 16.5123 26.6958 16.2882 26.6958 16.0118C26.6958 15.7353 26.9199 15.5112 27.1963 15.5112C27.4728 15.5112 27.6969 15.7353 27.6969 16.0118Z" fill="#202020"/>
<path fill-rule="evenodd" clip-rule="evenodd" d="M26.1313 10.1693C26.2696 10.4087 26.1875 10.7148 25.9481 10.853C25.7087 10.9913 25.4026 10.9092 25.2644 10.6698C25.1262 10.4304 25.2082 10.1243 25.4476 9.98608C25.687 9.84787 25.9931 9.9299 26.1313 10.1693Z" fill="#202020"/>
<path fill-rule="evenodd" clip-rule="evenodd" d="M21.8544 5.89234C22.0938 6.03056 22.1758 6.33666 22.0376 6.57607C21.8994 6.81547 21.5933 6.8975 21.3539 6.75928C21.1145 6.62107 21.0324 6.31494 21.1707 6.07554C21.3089 5.83614 21.615 5.75411 21.8544 5.89234Z" fill="#202020"/>
<path fill-rule="evenodd" clip-rule="evenodd" d="M16.0118 4.32666C16.2882 4.32666 16.5123 4.55077 16.5123 4.82719C16.5123 5.10361 16.2882 5.32772 16.0118 5.32772C15.7353 5.32772 15.5112 5.10361 15.5112 4.82719C15.5112 4.55077 15.7353 4.32666 16.0118 4.32666Z" fill="#202020"/>
<path fill-rule="evenodd" clip-rule="evenodd" d="M17.2624 15.5449L25.3549 16.011L17.2624 16.4787C17.0731 16.9856 16.5846 17.3466 16.0117 17.3466C15.2746 17.3466 14.677 16.749 14.677 16.0119C14.677 15.4366 15.0409 14.9464 15.551 14.7588L16.0108 8.00342L16.4722 14.7588C16.8367 14.8928 17.1265 15.1813 17.2624 15.5449Z" fill="#202020"/>
</g>
<defs>
<clipPath id="clip0_20792_4665">
<rect width="32" height="32" fill="white"/>
</clipPath>
</defs>
</svg>
