<svg width="65" height="64" viewBox="0 0 65 64" fill="none" xmlns="http://www.w3.org/2000/svg">
<g clip-path="url(#clip0_22635_7141)">
<path d="M9.94999 35.4625C8.82499 35.2625 7.94999 34.3875 7.72499 33.2875C7.72499 33.2375 7.62499 33.2375 7.62499 33.2875C7.39999 34.3875 6.52499 35.2625 5.39999 35.4625C5.34999 35.4625 5.34999 35.5375 5.39999 35.5625C6.52499 35.7625 7.39999 36.6375 7.62499 37.7375C7.62499 37.7875 7.72499 37.7875 7.72499 37.7375C7.94999 36.6375 8.82499 35.7625 9.94999 35.5625C9.99999 35.5375 9.99999 35.4625 9.94999 35.4625Z" fill="#F5C84C"/>
<path d="M43.4724 5.46356C42.6502 5.31731 42.0107 4.67781 41.8462 3.87381C41.8462 3.83731 41.7732 3.83731 41.7732 3.87381C41.6087 4.67781 40.9692 5.31731 40.1469 5.46356C40.1104 5.46356 40.1104 5.51831 40.1469 5.53656C40.9692 5.68281 41.6087 6.32231 41.7732 7.12631C41.7732 7.16281 41.8462 7.16281 41.8462 7.12631C42.0107 6.32231 42.6502 5.68281 43.4724 5.53656C43.5092 5.51831 43.5092 5.46356 43.4724 5.46356Z" fill="#FC657E"/>
<path d="M58.3 40.9751H57.725V40.4001C57.725 39.9751 57.375 39.6001 56.925 39.6001C56.475 39.6001 56.125 39.9501 56.125 40.4001V40.9751H55.55C55.125 40.9751 54.75 41.3251 54.75 41.7751C54.75 42.2251 55.1 42.5751 55.55 42.5751H56.125V43.1501C56.125 43.5751 56.475 43.9501 56.925 43.9501C57.375 43.9501 57.725 43.6001 57.725 43.1501V42.5751H58.3C58.725 42.5751 59.1 42.2251 59.1 41.7751C59.1 41.3251 58.75 40.9751 58.3 40.9751Z" fill="#70D6F9"/>
<path d="M1.35 25.375C0.8805 25.375 0.5 25.7555 0.5 26.225C0.5 26.6945 0.8805 27.075 1.35 27.075C1.8195 27.075 2.2 26.6945 2.2 26.225C2.2 25.7555 1.8195 25.375 1.35 25.375Z" fill="#87D147"/>
<path d="M63.65 26.125C63.1805 26.125 62.8 26.5055 62.8 26.975C62.8 27.4445 63.1805 27.825 63.65 27.825C64.1195 27.825 64.5 27.4445 64.5 26.975C64.5 26.5055 64.1195 26.125 63.65 26.125Z" fill="#F5C84C"/>
<path d="M43.677 37.1562L41.6392 35.4072C41.5967 35.528 41.5107 35.6352 41.384 35.7022L35.442 38.8435C35.3645 38.8845 35.2832 38.914 35.201 38.938C35.553 39.1905 35.8772 39.4207 36.1327 39.5977C36.372 39.7632 36.3432 40.1242 36.082 40.2517L26.4452 44.953C26.5862 45.1555 26.6 45.44 26.4227 45.6582C26.3037 45.8047 26.1422 45.9892 25.9922 46.2042C25.5125 46.891 25.6727 47.8552 26.3505 48.3475L28.2222 49.707L42.3407 43.323C45.145 42.0165 45.5107 38.7012 43.677 37.1562Z" fill="#F9D0B4"/>
<path d="M41.476 34.8142L37.2432 31.1297C36.8125 31.4007 36.2865 31.4962 35.7757 31.3859C33.6102 30.9187 30.9027 29.0619 29.7002 28.0147C29.3865 27.7414 29.2437 27.3584 29.2687 26.9824L27.832 28.0354C25.7287 29.5772 26.0887 32.9634 28.2695 34.3934L34.104 38.7577C34.4982 39.0357 35.0152 39.0687 35.4417 38.8432L41.3837 35.7019C41.722 35.5234 41.7702 35.0584 41.476 34.8142Z" fill="#F5C84C"/>
<path d="M28.2695 34.3936C26.6398 33.3248 26.028 31.1638 26.7003 29.4963L21.2903 34.0108C20.9185 34.3211 20.8788 34.8781 21.203 35.2378L25.0353 39.4921C25.3195 39.8076 25.7925 39.8663 26.1453 39.6296L30.956 36.4028L28.2695 34.3936Z" fill="#F5C84C"/>
<path d="M25.0352 39.492L21.203 35.2378C21.1327 35.1595 21.0827 35.0713 21.0462 34.979L20.6882 35.2793C20.1695 35.714 19.597 36.0805 18.985 36.3693L9.16272 41.0043C9.43622 41.1975 9.50897 41.602 9.26047 41.8748C9.13347 42.0143 8.96172 42.1893 8.79972 42.3955C8.28197 43.054 8.38722 44.0258 9.03597 44.5558L10.8277 46.0193L21.4707 41.6965C22.4407 41.3025 23.3637 40.805 24.2255 40.2105C24.5055 40.0173 24.8157 39.8043 25.1355 39.5845C25.1002 39.556 25.0662 39.5263 25.0352 39.492Z" fill="#F9D0B4"/>
<path d="M11.1574 40.0627L9.16242 41.0042C9.43592 41.1975 9.50867 41.602 9.26017 41.8747C9.13317 42.0142 8.96142 42.1892 8.79942 42.3955C8.28167 43.054 8.38692 44.0257 9.03567 44.5557L10.8274 46.0192L13.6114 44.8885C12.8689 43.3982 11.8167 41.3027 11.1574 40.0627Z" fill="#DAE6F1"/>
<path d="M28.5152 43.9431L26.4449 44.9531C26.5859 45.1556 26.5997 45.4401 26.4224 45.6584C26.3034 45.8049 26.1419 45.9894 25.9919 46.2044C25.5122 46.8911 25.6724 47.8554 26.3502 48.3476L28.2219 49.7071L30.8382 48.5241C30.0587 46.9794 29.2749 45.4326 28.5152 43.9431Z" fill="#DAE6F1"/>
<path d="M23.7512 31.9575L21.2904 34.011C20.9187 34.3213 20.8789 34.8783 21.2032 35.238L23.8794 38.209L23.7512 31.9575Z" fill="#FCA265"/>
<path d="M31.0942 36.5064L34.104 38.7576C34.4982 39.0356 35.0152 39.0686 35.4417 38.8431L40.494 36.1721L31.0942 36.5064Z" fill="#FCA265"/>
<path d="M51.684 15.8707C54.5822 15.8707 56.9317 13.5212 56.9317 10.623C56.9317 7.72474 54.5822 5.37524 51.684 5.37524C48.7857 5.37524 46.4362 7.72474 46.4362 10.623C46.4362 13.5212 48.7857 15.8707 51.684 15.8707Z" fill="#F9D0B4"/>
<path d="M57.5167 9.93768C57.1382 6.72143 54.2152 4.41293 50.9985 4.79043C47.7827 5.16818 45.4735 8.09218 45.8512 11.3082C46.0342 12.8662 46.8132 14.2597 48.0442 15.2319C49.0912 16.0587 50.3582 16.4967 51.6722 16.4967C51.9032 16.4967 52.136 16.4829 52.3692 16.4557C55.5855 16.0777 57.8945 13.1537 57.5167 9.93768ZM52.2234 15.2142C50.9977 15.3587 49.7884 15.0162 48.8192 14.2509C47.8499 13.4857 47.2372 12.3889 47.0932 11.1624C46.949 9.93593 47.2912 8.72693 48.0564 7.75793C48.8217 6.78893 49.9185 6.17593 51.145 6.03193C51.3272 6.01043 51.5082 6.00018 51.6877 6.00018C53.9975 6.00018 55.9995 7.73468 56.276 10.0837H56.2757C56.5727 12.6149 54.7552 14.9167 52.2234 15.2142Z" fill="black"/>
<path d="M45.9419 15.6003L38.2109 10.5723C37.7652 10.2825 37.1677 10.427 36.9037 10.8885L34.0474 15.8808C33.8064 16.3023 33.9322 16.8383 34.3354 17.1088L36.9519 18.8623C37.1877 19.0203 37.2244 19.3523 37.0289 19.5578L29.6067 26.206C29.1082 26.7308 29.1542 27.5395 29.7002 28.0148C30.9027 29.062 33.6102 30.919 35.7757 31.386C36.4477 31.531 37.1474 31.3218 37.6194 30.822L46.7137 20.9888C48.1804 19.5135 47.7222 16.7373 45.9419 15.6003Z" fill="#F5C84C"/>
<path d="M49.645 25.9084L47.5385 19.3374C47.4347 19.9539 47.1667 20.5334 46.7142 20.9887L41.2599 26.8859L42.0197 29.3692C42.2012 29.9627 42.875 30.2547 43.4332 29.9744L49.1377 27.1154C49.5809 26.8934 49.7962 26.3809 49.645 25.9084Z" fill="#FCA265"/>
<path d="M59.1277 30.8417L48.9044 27.8634L48.7369 27.3162L43.4754 29.9532L43.8139 31.0594C44.0999 31.9947 44.8379 32.7227 45.7769 32.9962L57.5049 36.4127C57.5992 36.4402 57.6934 36.4627 57.7879 36.4802C59.2362 36.7502 60.6814 35.8829 61.1022 34.4384C61.5502 32.9002 60.6662 31.2897 59.1277 30.8417Z" fill="#F9D0B4"/>
<path d="M35.2529 9.97597C34.4212 9.43422 33.3712 9.35122 32.4644 9.75597L21.2229 14.775C19.7484 15.4332 19.0867 17.1625 19.7449 18.6372C20.1522 19.5492 20.9687 20.15 21.8814 20.3202C22.4444 20.4252 23.0444 20.3662 23.6072 20.115L33.3944 15.7452L33.9577 16.1122C33.9779 16.0332 34.0049 15.955 34.0474 15.881L36.8357 11.0072L35.2529 9.97597Z" fill="#F9D0B4"/>
<path d="M38.2109 10.5723C37.7652 10.2825 37.1677 10.427 36.9037 10.8885L34.0474 15.8808C33.8064 16.3023 33.9322 16.8383 34.3354 17.1088L36.9519 18.8623C37.1164 18.9725 37.1814 19.167 37.1409 19.3445L38.9142 18.9778C41.0782 18.5303 43.0252 17.3588 44.4344 15.6565L44.9922 14.9828L38.2109 10.5723Z" fill="#FCA265"/>
<path d="M48.1867 18.2523C48.0409 16.933 47.3284 15.7455 46.2809 15.0753L38.5517 10.0485C38.1959 9.81702 37.7554 9.74177 37.3424 9.84127C36.9299 9.94102 36.5719 10.2095 36.3609 10.5783L33.5049 15.5703C33.1027 16.2733 33.3144 17.177 33.9874 17.6278L36.4239 19.2605L29.1897 25.7403C29.1772 25.7515 29.1649 25.7633 29.1534 25.7755C28.7962 26.1515 28.6127 26.64 28.6372 27.151C28.6617 27.6668 28.8932 28.1408 29.2897 28.486C30.6029 29.6295 33.3787 31.5083 35.6437 31.9968C35.8249 32.0358 36.0079 32.0548 36.1899 32.0548C36.8962 32.0548 37.5857 31.7673 38.0782 31.246L47.1572 21.429C47.9467 20.635 48.3219 19.477 48.1867 18.2523ZM46.2552 20.5643L37.1652 30.3925C36.8442 30.7323 36.3744 30.8753 35.9077 30.7748C33.8879 30.339 31.2802 28.5613 30.1109 27.5433C29.9739 27.424 29.8942 27.2638 29.8859 27.0918C29.8784 26.9313 29.9349 26.7758 30.0457 26.6518L37.4459 20.023C37.4584 20.0118 37.4707 20 37.4822 19.9878C37.7027 19.7558 37.8087 19.4405 37.7734 19.1225C37.7379 18.8048 37.5657 18.5205 37.2999 18.3425L34.6832 16.589C34.5529 16.5018 34.5119 16.3268 34.5899 16.1905L37.4459 11.1985C37.5019 11.1005 37.5889 11.067 37.6362 11.0558C37.6829 11.0443 37.7762 11.0348 37.8702 11.0958L45.6014 16.1238C45.6029 16.1248 45.6044 16.1255 45.6059 16.1265C46.3394 16.595 46.8399 17.4408 46.9444 18.389C47.0377 19.2365 46.7924 20.0233 46.2552 20.5643Z" fill="black"/>
<path d="M50.2399 25.7177L48.1674 19.2527C48.0619 18.924 47.7094 18.7432 47.3814 18.8482C47.0527 18.9537 46.8717 19.3055 46.9769 19.6342L49.0494 26.0995C49.1072 26.2797 49.0264 26.4722 48.8572 26.557L43.1527 29.4162C43.0157 29.485 42.8929 29.452 42.8322 29.426C42.7712 29.3997 42.6619 29.334 42.6172 29.1867L41.9084 26.8702C41.8077 26.5402 41.4584 26.3542 41.1279 26.4555C40.7979 26.5565 40.6122 26.906 40.7132 27.236L41.4219 29.5522C41.5627 30.0125 41.8972 30.3852 42.3402 30.575C42.5462 30.6632 42.7647 30.707 42.9827 30.707C43.2332 30.707 43.4832 30.649 43.7132 30.5337L49.4174 27.6745C50.1412 27.3117 50.4872 26.4887 50.2399 25.7177Z" fill="black"/>
<path d="M61.408 31.9308C60.9547 31.1051 60.207 30.5051 59.3027 30.2418L49.4035 27.3581L49.3645 27.2306C49.2637 26.9006 48.9147 26.7146 48.584 26.8156C48.254 26.9166 48.0682 27.2658 48.1692 27.5961L48.307 28.0463C48.3685 28.2478 48.5275 28.4048 48.7297 28.4636L58.9532 31.4418C59.537 31.6118 60.0197 31.9991 60.3122 32.5321C60.605 33.0651 60.6722 33.6803 60.5022 34.2641C60.1737 35.3926 59.0575 36.0818 57.9025 35.8661C57.8282 35.8523 57.7542 35.8346 57.68 35.8131L45.9522 32.3966C45.213 32.1813 44.6372 31.6133 44.412 30.8771L44.1025 29.8646C44.0017 29.5346 43.652 29.3486 43.3222 29.4496C42.992 29.5503 42.8062 29.8998 42.9072 30.2301L43.2167 31.2428C43.5657 32.3836 44.4577 33.2636 45.6027 33.5971L57.3305 37.0133C57.4437 37.0463 57.5595 37.0741 57.6737 37.0953C57.8935 37.1363 58.1125 37.1563 58.3285 37.1563C59.8687 37.1563 61.256 36.1471 61.7025 34.6143C61.9655 33.7093 61.861 32.7563 61.408 31.9308Z" fill="black"/>
<path d="M37.031 10.3882L35.594 9.4519C34.5797 8.79115 33.3147 8.69165 32.2097 9.1849L20.9682 14.2042C19.1815 15.0019 18.3767 17.1052 19.1745 18.8919C19.65 19.9569 20.6192 20.7204 21.7672 20.9344C21.9835 20.9749 22.2012 20.9949 22.4182 20.9949C22.9127 20.9949 23.4027 20.8907 23.8622 20.6857L33.339 16.4547L33.5057 16.5634C33.7942 16.7514 34.1817 16.6704 34.3705 16.3809C34.559 16.0917 34.4772 15.7044 34.188 15.5162L33.736 15.2217C33.5582 15.1057 33.3337 15.0882 33.14 15.1747L23.3527 19.5444C22.9242 19.7357 22.455 19.7912 21.9965 19.7059C21.2522 19.5672 20.624 19.0722 20.316 18.3824C19.7992 17.2249 20.3205 15.8624 21.478 15.3457L32.7195 10.3267C33.4352 10.0074 34.2552 10.0717 34.9117 10.4997L36.3485 11.4359C36.6377 11.6239 37.0247 11.5427 37.2135 11.2534C37.4017 10.9639 37.32 10.5767 37.031 10.3882Z" fill="black"/>
<path d="M45.3407 14.562C45.0755 14.3422 44.681 14.3787 44.4607 14.645L43.953 15.2585C42.6392 16.8455 40.8047 17.949 38.7877 18.3662L37.072 18.721C36.7337 18.791 36.5165 19.1217 36.5865 19.4597C36.6475 19.755 36.9077 19.9582 37.1977 19.9582C37.2397 19.9582 37.2825 19.954 37.325 19.9452L39.0407 19.5905C41.3352 19.116 43.4217 17.8607 44.916 16.0557L45.4237 15.4422C45.644 15.176 45.607 14.782 45.3407 14.562Z" fill="black"/>
<path d="M11.4652 47.6779C11.561 47.0512 11.3185 46.4204 10.8275 46.0192L9.03547 44.5554C8.38747 44.0262 8.27247 43.0739 8.78572 42.4132C8.95172 42.1992 9.12997 42.0182 9.26047 41.8747C9.57422 41.5302 9.38147 40.9704 8.91097 40.8989L4.61597 41.2432C3.96647 41.3927 3.63047 42.0324 3.84772 42.6449L7.12172 51.8712C8.04347 54.4687 9.68072 54.8752 10.3775 54.9259C11.0362 54.9737 11.5832 54.3982 11.3987 53.8214C11.0697 52.7919 10.8925 51.4242 11.0715 50.2534L11.4652 47.6779Z" fill="#FC657E"/>
<path d="M12.083 47.7723C12.2118 46.9308 11.882 46.0736 11.2228 45.5351L9.43078 44.0716C9.04553 43.7571 8.97753 43.1851 9.27928 42.7968C9.39078 42.6531 9.51403 42.5206 9.62303 42.4036L9.72228 42.2958C10.0238 41.9648 10.118 41.4971 9.96828 41.0751C9.81853 40.6531 9.44903 40.3488 9.00428 40.2816C8.95703 40.2743 8.90853 40.2726 8.86078 40.2763L4.56578 40.6206C4.53528 40.6231 4.50528 40.6276 4.47553 40.6346C3.98953 40.7463 3.59403 41.0413 3.36153 41.4651C3.13153 41.8843 3.09403 42.3908 3.25853 42.8543L6.53253 52.0806C7.58228 55.0388 9.53928 55.4921 10.332 55.5498C10.3735 55.5528 10.4145 55.5543 10.4555 55.5543C10.9613 55.5543 11.437 55.3283 11.7463 54.9356C12.0465 54.5541 12.137 54.0788 11.994 53.6316C11.6575 52.5781 11.5408 51.3198 11.6893 50.3483L12.083 47.7723ZM10.8473 47.5836L10.4535 50.1596C10.275 51.3276 10.4058 52.7678 10.8033 54.0123C10.8088 54.0298 10.826 54.0838 10.764 54.1623C10.707 54.2348 10.5843 54.3166 10.4225 54.3031C9.87478 54.2633 8.51353 53.9263 7.71028 51.6626L4.43628 42.4361C4.39003 42.3061 4.39753 42.1748 4.45703 42.0661C4.49553 41.9961 4.57153 41.9066 4.71928 41.8623L8.71703 41.5418L8.70753 41.5523C8.58728 41.6818 8.43728 41.8428 8.29178 42.0303C7.57778 42.9498 7.73378 44.2998 8.63978 45.0398L10.4318 46.5033C10.7503 46.7633 10.9095 47.1773 10.8473 47.5836Z" fill="black"/>
<path d="M29.2342 57.4646C28.8475 56.4556 28.593 55.0999 28.7052 53.9209L28.9525 51.3269C29.0127 50.6956 28.7347 50.0796 28.2217 49.7069L26.3497 48.3471C25.673 47.8554 25.504 46.9114 25.979 46.2226C26.1327 45.9996 26.3002 45.8086 26.4225 45.6581C26.7162 45.2964 26.492 44.7484 26.0182 44.7039L21.7495 45.2909C21.1095 45.4769 20.8102 46.1346 21.062 46.7339L24.8537 55.7599C25.9212 58.3009 27.579 58.6141 28.2775 58.6251C28.9377 58.6356 29.451 58.0299 29.2342 57.4646Z" fill="#FC657E"/>
<path d="M29.8177 57.2409C29.422 56.2084 29.2342 54.9589 29.3275 53.9801L29.5747 51.3861C29.6555 50.5386 29.2777 49.7014 28.589 49.2014L26.717 47.8414C26.3147 47.5494 26.2145 46.9821 26.4935 46.5771C26.5967 46.4276 26.7122 46.2884 26.814 46.1654L26.9075 46.0519C27.1895 45.7044 27.2572 45.2321 27.084 44.8191C26.9107 44.4061 26.5245 44.1234 26.0765 44.0811C26.029 44.0766 25.9807 44.0776 25.9327 44.0844L21.664 44.6714C21.6337 44.6756 21.604 44.6819 21.5747 44.6904C21.0957 44.8296 20.7175 45.1466 20.5095 45.5829C20.3037 46.0144 20.295 46.5221 20.4855 46.9756L24.2772 56.0016C25.493 58.8956 27.4725 59.2371 28.2672 59.2496C28.2762 59.2499 28.2852 59.2499 28.2942 59.2499C28.8362 59.2499 29.3395 58.9919 29.644 58.5564C29.9225 58.1589 29.9857 57.6794 29.8177 57.2409ZM28.62 57.8404C28.5675 57.9156 28.4532 58.0044 28.287 58.0004C27.7377 57.9916 26.36 57.7326 25.4295 55.5179L21.6377 46.4916C21.5842 46.3646 21.5842 46.2329 21.6377 46.1211C21.672 46.0489 21.743 45.9551 21.888 45.9026L25.8612 45.3561L25.852 45.3671C25.7392 45.5031 25.5987 45.6724 25.4642 45.8676C24.8032 46.8261 25.0357 48.1651 25.9822 48.8524L27.8545 50.2124C28.187 50.4539 28.3692 50.8581 28.3302 51.2671L28.083 53.8611C27.971 55.0376 28.183 56.4681 28.6505 57.6879C28.6572 57.7054 28.6775 57.7581 28.62 57.8404Z" fill="black"/>
<path d="M44.084 36.6821L42.2067 35.0708C41.9445 34.8461 41.5505 34.8763 41.3255 35.1381C41.101 35.4001 41.131 35.7946 41.393 36.0193L43.2745 37.6343C43.9532 38.2061 44.2822 39.1193 44.155 40.0776C44.001 41.2363 43.2435 42.2128 42.0827 42.7536L28.102 49.0751C27.7875 49.2173 27.6477 49.5876 27.79 49.9021C27.8942 50.1331 28.1217 50.2698 28.3597 50.2698C28.4457 50.2698 28.5332 50.2521 28.6167 50.2141L42.604 43.8896C44.1425 43.1728 45.1855 41.8093 45.3937 40.2423C45.578 38.8588 45.0865 37.5263 44.084 36.6821Z" fill="black"/>
<path d="M36.4882 39.0833C36.2672 38.9305 35.9945 38.7373 35.6972 38.5243C35.416 38.3233 35.0257 38.3883 34.8252 38.6688C34.6242 38.9495 34.689 39.34 34.9697 39.5408C35.1335 39.658 35.29 39.7693 35.4345 39.8715L26.2807 44.337C25.9705 44.4883 25.8417 44.8625 25.993 45.1728C26.1015 45.3948 26.3237 45.5238 26.5552 45.5238C26.6472 45.5238 26.7405 45.5033 26.8287 45.4605L36.3555 40.8128C36.6805 40.6543 36.8907 40.3448 36.918 39.9848C36.9455 39.6258 36.785 39.2888 36.4882 39.0833Z" fill="black"/>
<path d="M41.8863 34.343L37.784 30.7717C37.5235 30.5452 37.1288 30.5725 36.9023 30.8327C36.6758 31.0932 36.703 31.488 36.9633 31.7145L40.9785 35.2095L35.15 38.291C34.93 38.4072 34.667 38.3902 34.4783 38.2575L28.644 33.8932C28.6335 33.8855 28.6233 33.878 28.6125 33.871C27.683 33.2615 27.087 32.1652 27.0568 31.0097C27.0303 29.9927 27.4475 29.0925 28.2018 28.5397L29.5868 27.5245C29.865 27.3205 29.9253 26.9292 29.7215 26.6507C29.5175 26.3725 29.1263 26.3122 28.8478 26.516L27.4628 27.5312C26.3733 28.3297 25.77 29.6095 25.8073 31.042C25.8478 32.594 26.653 34.0722 27.9103 34.905L33.744 39.2685C34.0733 39.5005 34.4565 39.6182 34.8418 39.6182C35.1465 39.6182 35.4525 39.5445 35.734 39.3955L41.6765 36.2542C42.02 36.0725 42.249 35.7332 42.289 35.3465C42.3285 34.9605 42.174 34.5815 41.8863 34.343Z" fill="black"/>
<path d="M31.3257 36.1552C31.1335 35.8687 30.745 35.7919 30.4585 35.9842L25.797 39.1107C25.7032 39.1734 25.575 39.1577 25.4995 39.0739L21.6672 34.8197C21.6105 34.7569 21.6065 34.6867 21.609 34.6504C21.6115 34.6142 21.6255 34.5452 21.6907 34.4909L27.0692 30.0027C27.3342 29.7814 27.37 29.3874 27.1487 29.1224C26.9277 28.8572 26.5335 28.8217 26.2685 29.0429L20.89 33.5312C20.5785 33.7912 20.3912 34.1572 20.3625 34.5619C20.3337 34.9664 20.4672 35.3552 20.7387 35.6564L24.571 39.9107C24.8592 40.2304 25.2642 40.3974 25.6727 40.3974C25.9577 40.3974 26.244 40.3162 26.4935 40.1489L31.155 37.0224C31.4415 36.8299 31.518 36.4417 31.3257 36.1552Z" fill="black"/>
<path d="M25.4865 39.3428C25.2907 39.0583 24.902 38.9858 24.6175 39.1816L23.8702 39.6958C23.0485 40.2626 22.162 40.7408 21.235 41.1173L10.7187 45.3886C10.399 45.5186 10.245 45.8831 10.375 46.2028C10.4737 46.4456 10.7075 46.5928 10.9542 46.5928C11.0325 46.5928 11.1122 46.5781 11.1892 46.5468L21.7055 42.2756C22.7162 41.8648 23.6835 41.3433 24.58 40.7248L25.3252 40.2121C25.6097 40.0163 25.682 39.6273 25.4865 39.3428Z" fill="black"/>
<path d="M21.4012 34.6818C21.1795 34.4173 20.7855 34.3825 20.5207 34.6043L20.2867 34.8005C19.8092 35.2008 19.2815 35.5385 18.7182 35.8045L9.05073 40.3663C8.73848 40.5135 8.60498 40.886 8.75223 41.1983C8.85873 41.4243 9.08348 41.5568 9.31773 41.5568C9.40698 41.5568 9.49798 41.5375 9.58398 41.4968L19.2515 36.935C19.9117 36.6235 20.53 36.2278 21.0897 35.7588L21.3237 35.5625C21.5882 35.3405 21.623 34.9463 21.4012 34.6818Z" fill="black"/>
<path d="M14.117 44.5022C13.4137 43.0912 12.4392 41.1515 11.791 39.9232C11.6297 39.6177 11.2515 39.5012 10.9465 39.6622C10.6412 39.8235 10.5245 40.2015 10.6855 40.5067C11.3282 41.7245 12.298 43.6547 12.9982 45.0597C13.1077 45.279 13.3285 45.406 13.558 45.406C13.6517 45.406 13.7467 45.385 13.8362 45.3402C14.1455 45.1865 14.271 44.8112 14.117 44.5022Z" fill="black"/>
<path d="M31.3307 48.1133C30.6005 46.6658 29.867 45.2181 29.1535 43.8188C28.997 43.5113 28.6205 43.3891 28.313 43.5458C28.0055 43.7026 27.8832 44.0788 28.04 44.3863C28.7525 45.7843 29.4852 47.2303 30.2147 48.6763C30.3245 48.8943 30.5447 49.0201 30.7732 49.0201C30.8677 49.0201 30.964 48.9986 31.0542 48.9528C31.3625 48.7973 31.4862 48.4216 31.3307 48.1133Z" fill="black"/>
<path d="M24.378 32.0448C24.371 31.6998 24.0953 31.4241 23.7403 31.4328C23.3953 31.4398 23.121 31.7253 23.1283 32.0706L23.2533 38.1581C23.2603 38.4988 23.5388 38.7703 23.878 38.7703C23.8825 38.7703 23.8868 38.7703 23.891 38.7703C24.236 38.7633 24.5103 38.4778 24.503 38.1326L24.378 32.0448Z" fill="black"/>
<path d="M40.4157 35.5497L31.1633 35.8785C30.8183 35.8908 30.5487 36.1805 30.5607 36.5252C30.5727 36.8627 30.85 37.128 31.185 37.128C31.1925 37.128 31.2 37.128 31.2075 37.1277L40.46 36.799C40.805 36.7867 41.0747 36.497 41.0622 36.1522C41.0502 35.8072 40.76 35.537 40.4157 35.5497Z" fill="black"/>
<path d="M23.8667 9.60742H11.4562C11.111 9.60742 10.8312 9.88717 10.8312 10.2324C10.8312 10.5777 11.111 10.8574 11.4562 10.8574H23.8667C24.212 10.8574 24.4917 10.5777 24.4917 10.2324C24.4917 9.88717 24.212 9.60742 23.8667 9.60742Z" fill="#FFAD33"/>
<path d="M17.6167 14.5449H5.20624C4.86099 14.5449 4.58124 14.8247 4.58124 15.1699C4.58124 15.5152 4.86099 15.7949 5.20624 15.7949H17.6167C17.962 15.7949 18.2417 15.5152 18.2417 15.1699C18.2417 14.8247 17.962 14.5449 17.6167 14.5449Z" fill="#FFAD33"/>
<path d="M17.6167 19.4824H5.20624C4.86099 19.4824 4.58124 19.7622 4.58124 20.1074C4.58124 20.4527 4.86099 20.7324 5.20624 20.7324H17.6167C17.962 20.7324 18.2417 20.4527 18.2417 20.1074C18.2417 19.7622 17.962 19.4824 17.6167 19.4824Z" fill="#FFAD33"/>
<path d="M22.6167 24.4199H10.2062C9.86099 24.4199 9.58124 24.6997 9.58124 25.0449C9.58124 25.3902 9.86099 25.6699 10.2062 25.6699H22.6167C22.962 25.6699 23.2417 25.3902 23.2417 25.0449C23.2417 24.6997 22.962 24.4199 22.6167 24.4199Z" fill="#FFAD33"/>
<path d="M17.1167 29.3574H4.70624C4.36099 29.3574 4.08124 29.6372 4.08124 29.9824C4.08124 30.3277 4.36099 30.6074 4.70624 30.6074H17.1167C17.462 30.6074 17.7417 30.3277 17.7417 29.9824C17.7417 29.6372 17.462 29.3574 17.1167 29.3574Z" fill="#FFAD33"/>
</g>
<defs>
<clipPath id="clip0_22635_7141">
<rect width="64" height="64" fill="white" transform="translate(0.5)"/>
</clipPath>
</defs>
</svg>
