<svg width="72" height="72" viewBox="0 0 72 72" fill="none" xmlns="http://www.w3.org/2000/svg">
<g clip-path="url(#clip0_19967_14982)">
<path d="M13.4663 22.3292L26.4675 35.3304L31.5747 30.2232L18.5735 17.222L13.4663 22.3292Z" fill="#57555C"/>
<path d="M31.575 30.2228L25.7548 24.4026C23.1671 24.925 21.1709 27.0723 20.8707 29.734L26.4671 35.3304L31.575 30.2228Z" fill="#3C3A41"/>
<path d="M42.6692 39.2709L57.3612 35.3864L55.4916 28.4092L40.7996 32.2937L42.6692 39.2709Z" fill="#57555C"/>
<path d="M40.7996 32.2937L42.6692 39.2709L50.9554 37.0801C50.9641 36.8973 50.9693 36.7137 50.9693 36.5286C50.9693 34.1556 50.2477 31.951 49.0122 30.1224L40.7996 32.2937Z" fill="#3C3A41"/>
<path d="M21.4854 61.1036L32.4031 46.1586L26.5706 41.8978L15.6529 56.8428L21.4854 61.1036Z" fill="#57555C"/>
<path d="M32.4036 46.1585L27.5485 52.805C24.9112 52.687 22.6082 50.8725 21.9022 48.2888L26.5706 41.8978L32.4036 46.1585Z" fill="#3C3A41"/>
<path d="M34.6721 49.4133C40.9993 49.4133 46.1286 44.2841 46.1286 37.9569C46.1286 31.6297 40.9993 26.5005 34.6721 26.5005C28.3449 26.5005 23.2157 31.6297 23.2157 37.9569C23.2157 44.2841 28.3449 49.4133 34.6721 49.4133Z" fill="#00D8DE"/>
<path d="M42.7734 41.8782C38.2994 46.3522 31.0457 46.3522 26.5717 41.8782C24.8686 40.1751 23.8158 38.0688 23.4092 35.8669C22.7479 39.4495 23.8007 43.2864 26.5717 46.0573C31.0457 50.5313 38.2996 50.5313 42.7734 46.0573C45.5443 43.2864 46.5971 39.4495 45.9359 35.8669C45.5292 38.069 44.4764 40.1751 42.7734 41.8782Z" fill="#00B6BE"/>
<path d="M11.7524 25.695C17.639 25.695 22.411 20.923 22.411 15.0364C22.411 9.14991 17.639 4.37793 11.7524 4.37793C5.86591 4.37793 1.09393 9.14991 1.09393 15.0364C1.09393 20.923 5.86591 25.695 11.7524 25.695Z" fill="#FF0435"/>
<path d="M19.2888 18.6849C15.1266 22.8471 8.37827 22.8471 4.21606 18.6849C2.63164 17.1005 1.65219 15.1412 1.27405 13.0924C0.658816 16.4254 1.63841 19.9948 4.21606 22.5728C8.37827 26.735 15.1266 26.735 19.2888 22.5728C21.8667 19.995 22.8462 16.4255 22.2308 13.0924C21.8527 15.141 20.8732 17.1005 19.2888 18.6849Z" fill="#E60020"/>
<path d="M16.5278 67.6379C19.8938 67.6379 22.6226 64.9091 22.6226 61.5431C22.6226 58.177 19.8938 55.4482 16.5278 55.4482C13.1617 55.4482 10.433 58.177 10.433 61.5431C10.433 64.9091 13.1617 67.6379 16.5278 67.6379Z" fill="#00D8DE"/>
<path d="M20.8191 62.5923C18.395 64.9277 14.5367 64.8557 12.2013 62.4317C11.4547 61.6569 10.9554 60.7351 10.6992 59.7637C10.0769 61.8093 10.5502 64.1221 12.1391 65.7712C14.4745 68.1952 18.3328 68.2671 20.7569 65.9318C22.406 64.3428 22.9653 62.0494 22.4197 59.9821C22.1272 60.9434 21.5939 61.8458 20.8191 62.5923Z" fill="#00B6BE"/>
<path d="M61.8396 39.7731C66.8415 39.7731 70.8964 35.7183 70.8964 30.7163C70.8964 25.7144 66.8415 21.6595 61.8396 21.6595C56.8376 21.6595 52.7828 25.7144 52.7828 30.7163C52.7828 35.7183 56.8376 39.7731 61.8396 39.7731Z" fill="#FF0435"/>
<path d="M68.2448 33.2723C64.7076 36.8094 58.9725 36.8094 55.4354 33.2723C54.1594 31.9962 53.3463 30.4339 52.9908 28.7922C52.3609 31.7013 53.174 34.8602 55.4354 37.1216C58.9725 40.6587 64.7076 40.6587 68.2448 37.1216C70.506 34.8603 71.3191 31.7015 70.6892 28.7922C70.3337 30.4337 69.5207 31.9962 68.2448 33.2723Z" fill="#E60020"/>
<path d="M10.2943 45.4225C10.9029 45.4225 11.3965 44.9292 11.3965 44.3203V43.7417H11.9749C12.5835 43.7417 13.0771 43.2484 13.0771 42.6395C13.0771 42.0307 12.5837 41.5373 11.9749 41.5373H11.3965V40.9589C11.3965 40.3501 10.9031 39.8567 10.2943 39.8567C9.68567 39.8567 9.19208 40.35 9.19208 40.9589V41.5373H8.61369C8.00507 41.5373 7.51147 42.0306 7.51147 42.6395C7.51147 43.2483 8.00493 43.7417 8.61369 43.7417H9.19208V44.3203C9.19208 44.9292 9.68567 45.4225 10.2943 45.4225Z" fill="black"/>
<path d="M50.7609 60.3514H50.1825V59.773C50.1825 59.1642 49.6892 58.6708 49.0803 58.6708C48.4715 58.6708 47.9781 59.1641 47.9781 59.773V60.3514H47.3997C46.7909 60.3514 46.2975 60.8447 46.2975 61.4536C46.2975 62.0625 46.7908 62.5558 47.3997 62.5558H47.9781V63.1342C47.9781 63.743 48.4714 64.2364 49.0803 64.2364C49.689 64.2364 50.1825 63.7431 50.1825 63.1342V62.5558H50.7609C51.3697 62.5558 51.8631 62.0625 51.8631 61.4536C51.8631 60.8447 51.3697 60.3514 50.7609 60.3514Z" fill="black"/>
<path d="M38.7219 15.7039H39.3003V16.2823C39.3003 16.891 39.7936 17.3845 40.4025 17.3845C41.0112 17.3845 41.5047 16.8912 41.5047 16.2823V15.7039H42.0831C42.6919 15.7039 43.1853 15.2106 43.1853 14.6017C43.1853 13.9929 42.692 13.4995 42.0831 13.4995H41.5047V12.9211C41.5047 12.3123 41.0114 11.8188 40.4025 11.8188C39.7937 11.8188 39.3003 12.3122 39.3003 12.9211V13.4995H38.7219C38.1131 13.4995 37.6197 13.9928 37.6197 14.6017C37.6197 15.2106 38.113 15.7039 38.7219 15.7039Z" fill="black"/>
<path d="M51.5979 21.5768C51.8798 21.5768 52.1621 21.4693 52.3774 21.2541C53.0888 20.5425 53.877 19.9127 54.7202 19.382C55.2353 19.0577 55.39 18.3772 55.0657 17.862C54.7413 17.3468 54.0608 17.1923 53.5457 17.5164C52.5635 18.1346 51.6461 18.8677 50.8185 19.6951C50.3881 20.1257 50.3881 20.8235 50.8185 21.2538C51.0338 21.4691 51.3159 21.5768 51.5979 21.5768Z" fill="black"/>
<path d="M11.7554 31.6495C12.5917 31.6472 13.4354 31.5848 14.2629 31.4635C14.865 31.3752 15.2818 30.8157 15.1937 30.2132C15.1055 29.6111 14.5458 29.1951 13.9434 29.2825C13.2194 29.3886 12.4814 29.4432 11.7498 29.445C11.1411 29.4466 10.6488 29.9413 10.6504 30.55C10.6519 31.1578 11.1449 31.6493 11.7526 31.6493C11.7533 31.6494 11.7543 31.6495 11.7554 31.6495Z" fill="black"/>
<path d="M47.4604 50.1759C49.4856 48.054 50.9644 45.4429 51.7367 42.625C51.8976 42.0379 51.5521 41.4315 50.9651 41.2707C50.3774 41.1098 49.7716 41.4554 49.6107 42.0423C48.9346 44.5091 47.6397 46.7952 45.8659 48.6539C45.4457 49.0942 45.4619 49.7917 45.9023 50.2121C46.1156 50.4158 46.3894 50.5169 46.6631 50.5169C46.9536 50.5172 47.2439 50.4028 47.4604 50.1759Z" fill="black"/>
<path d="M69.0241 23.5327C65.0627 19.5716 58.6174 19.5714 54.6559 23.5328C53.3218 24.8671 52.4391 26.4834 52.0036 28.1911L44.5298 30.1672C43.8973 29.3696 43.1628 28.6438 42.3356 28.0068C41.8531 27.635 41.1611 27.7254 40.79 28.2073C40.4185 28.6895 40.5084 29.3815 40.9906 29.7529C43.1774 31.4373 44.5794 33.8721 44.9384 36.6087C45.6815 42.2695 41.6805 47.4794 36.0197 48.2223C30.3595 48.9666 25.1492 44.9644 24.4061 39.3036C24.0463 36.5613 24.7757 33.8433 26.4602 31.6497C28.1448 29.4561 30.5828 28.0498 33.3248 27.6901C34.4951 27.5363 35.668 27.5808 36.811 27.822C37.4066 27.9467 37.9914 27.5669 38.1172 26.9711C38.2426 26.3754 37.8619 25.7907 37.2662 25.665C35.8783 25.372 34.4559 25.3182 33.0379 25.5042C31.777 25.6697 30.5693 26.0186 29.444 26.5319L22.5649 19.6528C24.3887 15.3666 23.5583 10.2107 20.0678 6.72028C16.423 3.07529 10.9028 2.22141 6.3319 4.59628C5.79176 4.87683 5.58138 5.54227 5.86193 6.08227C6.14262 6.62269 6.80805 6.83292 7.34805 6.55223C11.0618 4.623 15.547 5.31685 18.5092 8.27911C22.235 12.005 22.235 18.0671 18.5092 21.793C14.7833 25.5189 8.72097 25.5189 4.99512 21.793C1.79928 18.5972 1.28389 13.5445 3.77014 9.77915C4.10553 9.27107 3.96561 8.5875 3.45767 8.25197C2.94973 7.91686 2.26601 8.0565 1.93062 8.56443C-1.12979 13.1998 -0.496277 19.4188 3.437 23.352C5.7296 25.6446 8.74122 26.7908 11.7527 26.7908C13.0872 26.7908 14.4213 26.5647 15.6934 26.1144L22.9702 33.3913C22.207 35.3394 21.9414 37.4585 22.2212 39.5905C22.4306 41.1864 22.9336 42.6728 23.6673 44.0043L16.1005 54.3635C14.4471 54.461 12.8189 55.123 11.5353 56.3595C8.67752 59.1128 8.59244 63.6779 11.3456 66.5359V66.536C12.7561 67.9999 14.6414 68.7362 16.5297 68.7362C18.3276 68.7362 20.1279 68.0684 21.5218 66.7256C23.3575 64.9568 24.0471 62.441 23.5773 60.1097L30.992 49.9596C32.1616 50.3201 33.3957 50.5157 34.6643 50.5157C35.2065 50.5157 35.7554 50.4804 36.3073 50.4082C42.1906 49.6359 46.5953 44.8851 47.1685 39.2213L54.1668 37.371C54.3235 37.5514 54.4848 37.7293 54.6563 37.9007C56.2285 39.4726 58.2202 40.4673 60.416 40.7766C60.4681 40.7839 60.52 40.7875 60.5713 40.7875C61.1118 40.7875 61.5836 40.3895 61.6613 39.8388C61.7462 39.236 61.3264 38.6787 60.7236 38.5937C59.0054 38.3517 57.4462 37.5729 56.2151 36.3418C53.1134 33.2401 53.1134 28.1931 56.2151 25.0912C59.3169 21.9893 64.3639 21.9895 67.4658 25.0912C68.9685 26.5938 69.796 28.5915 69.796 30.7165C69.796 32.8415 68.9685 34.8392 67.4658 36.3418C66.7761 37.0317 65.9794 37.5818 65.0983 37.9769C64.5429 38.2258 64.2945 38.8781 64.5435 39.4335C64.7925 39.989 65.4449 40.2372 66.0001 39.9883C67.1269 39.483 68.1446 38.7805 69.0245 37.9003C70.9436 35.9813 72.0003 33.4301 72.0003 30.7163C72.0003 28.0026 70.9429 25.4518 69.0241 23.5327ZM17.811 25.115C18.6155 24.6315 19.375 24.045 20.068 23.352C20.5941 22.8259 21.0569 22.2606 21.4621 21.6676L27.463 27.6684C26.4307 28.3936 25.5023 29.2779 24.712 30.307C24.4608 30.6339 24.2277 30.9709 24.0118 31.316L17.811 25.115ZM19.992 65.138C18.0097 67.048 14.8426 66.9891 12.9325 65.0064C11.0226 63.0239 11.0815 59.857 13.064 57.9471C15.0466 56.0371 18.2134 56.0962 20.1234 58.0785C22.0336 60.0611 21.9746 63.2281 19.992 65.138ZM22.611 57.6949C22.3554 57.2908 22.0554 56.9066 21.7109 56.5491C20.8269 55.6317 19.7558 55.0015 18.6149 54.6578L24.9839 45.9381C26.062 47.2426 27.3934 48.3174 28.8916 49.0974L22.611 57.6949ZM47.1893 36.9356C47.1726 36.7317 47.151 36.5271 47.1242 36.3221C46.9281 34.8279 46.4736 33.4092 45.7934 32.1132L51.6889 30.5545C51.6623 32.2334 52.0456 33.9177 52.8441 35.4405L47.1893 36.9356Z" fill="black"/>
</g>
<defs>
<clipPath id="clip0_19967_14982">
<rect width="72" height="72" fill="white"/>
</clipPath>
</defs>
</svg>
