<svg width="32" height="32" viewBox="0 0 32 32" fill="none" xmlns="http://www.w3.org/2000/svg">
<g clip-path="url(#clip0_20792_4687)">
<path d="M15.9956 32.0022C24.8322 32.0022 31.9956 24.8388 31.9956 16.0022C31.9956 7.16564 24.8322 0.00219727 15.9956 0.00219727C7.15905 0.00219727 -0.00439453 7.16564 -0.00439453 16.0022C-0.00439453 24.8388 7.15905 32.0022 15.9956 32.0022Z" fill="#9ACCB0"/>
<path opacity="0.1" d="M31.5755 19.674L16.0043 4.10278L16.001 32.0001C23.5728 31.9996 29.9154 26.7393 31.5755 19.674Z" fill="black"/>
<path d="M19.4998 19.2853C19.4998 20.873 17.5875 22.1603 15.9998 22.1603C14.4119 22.1603 12.4998 20.873 12.4998 19.2853L13.1248 6.97974C13.1248 5.39192 14.4119 4.10474 15.9998 4.10474C17.5876 4.10474 18.8748 5.39192 18.8748 6.97974L19.4998 19.2853Z" fill="#414042"/>
<path d="M15.9752 6.84589C16.9608 6.84589 17.7598 6.53859 17.7598 6.15952C17.7598 5.78045 16.9608 5.47314 15.9752 5.47314C14.9896 5.47314 14.1907 5.78045 14.1907 6.15952C14.1907 6.53859 14.9896 6.84589 15.9752 6.84589Z" fill="#EFF0F0"/>
<path d="M17.0136 6.04761H14.9861C12.3201 6.04761 10.1588 8.83348 10.1588 11.2089C10.1588 11.2089 9.65137 18.9564 15.9999 18.9564C22.3484 18.9564 21.841 11.2089 21.841 11.2089C21.8409 8.83348 19.6797 6.04761 17.0136 6.04761Z" fill="#414042"/>
<path opacity="0.1" d="M12.5712 17.8792L12.4998 19.2853C12.4998 20.8731 14.4119 22.1603 15.9998 22.1603C17.5876 22.1603 19.4998 20.8731 19.4998 19.2853L19.4283 17.8792C18.5988 18.5308 17.4875 18.9563 15.9997 18.9563C14.5119 18.9563 13.4007 18.5308 12.5712 17.8792Z" fill="black"/>
<path d="M21.8537 22.5135C17.2011 22.5135 18.2391 20.2318 17.9234 17.9473H14.0676C13.752 20.2318 14.79 22.5135 10.1374 22.5135C7.16398 22.5135 6.14941 23.8165 6.14941 26.6828V28.614C8.86441 30.7366 12.2821 32.002 15.9955 32.002C19.7089 32.002 23.1266 30.7366 25.8415 28.6141V26.6828C25.8416 23.8164 24.827 22.5135 21.8537 22.5135Z" fill="#FFD0AE"/>
<path opacity="0.1" d="M18.0028 19.2723C17.9928 18.8807 17.9793 18.4766 17.9234 18.0723H14.0676C14.012 18.4747 13.9984 18.877 13.9883 19.2668C14.5462 19.6244 15.2095 19.8393 15.9998 19.8393C16.7862 19.8393 17.4467 19.6266 18.0028 19.2723Z" fill="black"/>
<path d="M21.8537 22.5137C21.2467 22.5137 20.7374 22.4745 20.3084 22.4019C20.3084 22.4019 21.2684 24.4344 15.9955 24.4344C10.7226 24.4344 11.6826 22.4019 11.6826 22.4019C11.2537 22.4745 10.7444 22.5137 10.1374 22.5137C7.16398 22.5137 6.14941 23.8166 6.14941 26.683V28.6142C8.86441 30.7368 12.2821 32.0022 15.9955 32.0022C19.7089 32.0022 23.1266 30.7368 25.8415 28.6142V26.683C25.8416 23.8165 24.827 22.5137 21.8537 22.5137Z" fill="#ECEFC5"/>
<path d="M11.3197 14.9838C11.796 14.9838 12.1822 14.5286 12.1822 13.967C12.1822 13.4054 11.796 12.9502 11.3197 12.9502C10.8434 12.9502 10.4573 13.4054 10.4573 13.967C10.4573 14.5286 10.8434 14.9838 11.3197 14.9838Z" fill="#FFD0AE"/>
<path d="M20.6798 14.9838C21.1561 14.9838 21.5423 14.5286 21.5423 13.967C21.5423 13.4054 21.1561 12.9502 20.6798 12.9502C20.2035 12.9502 19.8174 13.4054 19.8174 13.967C19.8174 14.5286 20.2035 14.9838 20.6798 14.9838Z" fill="#FFD0AE"/>
<path d="M16.8575 6.66895H15.1422C12.8866 6.66895 11.0581 9.31426 11.0581 11.5699C11.0581 11.5699 11.1902 19.4931 15.9999 19.4931C20.8096 19.4931 20.9416 11.5699 20.9416 11.5699C20.9415 9.31426 19.1131 6.66895 16.8575 6.66895Z" fill="#FFD0AE"/>
<path d="M16.8575 6.58228H15.1423C12.8866 6.58228 9.53763 9.89828 11.2489 14.0295C11.4811 12.0547 13.0287 13.648 13.5581 10.8851C14.4353 14.5055 20.4876 11.3258 20.7509 14.0295C22.3299 9.75215 19.1131 6.58228 16.8575 6.58228Z" fill="#414042"/>
<path opacity="0.1" d="M13.558 10.8853C13.0285 13.6482 11.4809 12.0548 11.2488 14.0296L11.3057 14.2139C11.535 12.2629 13.064 13.8371 13.587 11.1074C14.4537 14.6843 20.4332 11.5428 20.6933 14.2139L20.7508 14.0296C20.4874 11.3259 14.4352 14.5056 13.558 10.8853Z" fill="black"/>
<path d="M18.4777 21.4702L16.0005 26.6732L13.5132 21.4702L9.0813 22.5733L16.0005 27.2018L22.9097 22.5733L18.4777 21.4702Z" fill="#006838"/>
<path opacity="0.1" d="M22.8378 22.5554L22.9098 22.5733L16.0007 27.2018L9.08259 22.5741L8.97803 22.5971L16.0007 27.329L23.0158 22.5945L22.8378 22.5554Z" fill="black"/>
<path opacity="0.1" d="M17.0825 24.4009C17.0418 24.4036 17.0014 24.4063 16.9597 24.4086L16.0005 26.4233L15.0375 24.409C14.9957 24.4067 14.9552 24.4039 14.9143 24.4013L16.0004 26.6734L17.0825 24.4009Z" fill="black"/>
<path d="M15.6314 25.9012L10.2294 22.2876L9.80225 22.3939L15.9069 26.4775L15.6314 25.9012Z" fill="#ECEFC5"/>
<path d="M21.7616 22.2876L16.3723 25.8927L16.0984 26.468L22.1888 22.3939L21.7616 22.2876Z" fill="#ECEFC5"/>
<path d="M16.0007 27.202L11.6758 24.3088C11.6758 24.3088 11.9998 25.9526 13.1965 27.0146C13.6711 27.4358 14.7304 27.8111 15.4338 27.976C15.3608 28.0769 15.3607 28.3041 15.4095 28.5937C14.9823 28.9975 14.5457 29.5065 14.3025 29.9015C14.006 30.3831 14.2252 31.4578 14.3153 31.5133C14.4055 31.5688 15.4638 31.2807 15.7604 30.799C15.8383 30.6725 15.9178 30.5226 15.9953 30.3591C16.073 30.5226 16.1523 30.6725 16.2303 30.799C16.5268 31.2807 17.5852 31.5688 17.6753 31.5133C17.7655 31.4579 17.9847 30.3831 17.6881 29.9015C17.445 29.5066 17.0083 28.9975 16.5812 28.5937C16.63 28.3042 16.6299 28.0772 16.5569 27.9761C17.2603 27.8113 18.3202 27.4358 18.795 27.0145C19.9875 25.9561 20.3148 24.3118 20.3148 24.3118L16.0007 27.202Z" fill="#BE1E2D"/>
<path opacity="0.1" d="M13.1962 27.0144C12.2418 26.1673 11.8428 24.9511 11.7202 24.4931L11.6755 24.4631C11.6755 24.4631 11.9995 26.1069 13.1962 27.1689C13.6601 27.5806 14.6818 27.9479 15.3845 28.1182C15.3935 28.0585 15.4092 28.0095 15.4336 27.9757C14.7302 27.811 13.6708 27.4356 13.1962 27.0144Z" fill="black"/>
<path opacity="0.1" d="M18.7949 27.0143C18.3202 27.4357 17.2603 27.8112 16.5569 27.9759C16.5813 28.0097 16.5969 28.0588 16.6059 28.1184C17.3087 27.9482 18.3309 27.5807 18.7949 27.1689C19.9874 26.1106 20.3148 24.4663 20.3148 24.4663L20.2696 24.4965C20.1464 24.9547 19.7459 26.1704 18.7949 27.0143Z" fill="black"/>
<path opacity="0.1" d="M17.6753 31.5133C17.5852 31.5688 16.5268 31.2807 16.2302 30.799C16.1523 30.6724 16.0728 30.5226 15.9953 30.3591C15.9177 30.5226 15.8383 30.6724 15.7603 30.799C15.4638 31.2807 14.4054 31.5688 14.3153 31.5133C14.2624 31.4808 14.1651 31.097 14.1537 30.6882C14.14 31.1497 14.2558 31.6313 14.3153 31.6679C14.4054 31.7234 15.4638 31.4353 15.7603 30.9536C15.8383 30.8271 15.9177 30.6772 15.9953 30.5137C16.0729 30.6772 16.1523 30.8271 16.2302 30.9536C16.5268 31.4353 17.5852 31.7234 17.6753 31.6679C17.7348 31.6313 17.8507 31.1497 17.8369 30.6882C17.8254 31.097 17.7282 31.4807 17.6753 31.5133Z" fill="black"/>
<path d="M16.662 27.937H15.3293V28.6896H16.662V27.937Z" fill="#006838"/>
<path d="M16.662 28.1882H15.3293V28.4382H16.662V28.1882Z" fill="#ECEFC5"/>
</g>
<defs>
<clipPath id="clip0_20792_4687">
<rect width="32" height="32" fill="white"/>
</clipPath>
</defs>
</svg>
