<svg width="65" height="64" viewBox="0 0 65 64" fill="none" xmlns="http://www.w3.org/2000/svg">
<path d="M46.8291 12.8759C41.4011 13.1269 36.9531 17.6249 36.7571 23.0549C36.6431 26.2089 37.9131 29.0649 40.0051 31.0719C41.5711 32.5739 42.4881 34.6259 42.4881 36.7949V37.2289H52.1771V36.7979C52.1771 34.6059 53.1321 32.5549 54.7051 31.0289C56.6841 29.1079 57.9151 26.4229 57.9151 23.4469C57.9141 17.4349 52.9021 12.5949 46.8291 12.8759Z" fill="#F9DD9D"/>
<path d="M41.7231 31.0723C39.6311 29.0653 38.3611 26.2093 38.4751 23.0553C38.6671 17.7423 42.9311 13.3333 48.1991 12.9093C47.7491 12.8723 47.2931 12.8543 46.8291 12.8763C41.4011 13.1273 36.9531 17.6253 36.7571 23.0553C36.6431 26.2093 37.9131 29.0653 40.0051 31.0723C41.5711 32.5743 42.4881 34.6263 42.4881 36.7953V37.2293H44.2061V36.7953C44.2061 34.6263 43.2891 32.5743 41.7231 31.0723Z" fill="#FFE8BB"/>
<path d="M52.1771 37.7289H42.4881C42.2121 37.7289 41.9881 37.5049 41.9881 37.2289V36.7949C41.9881 34.8069 41.1391 32.8519 39.6601 31.4339C37.3851 29.2499 36.1441 26.1909 36.2581 23.0379C36.4651 17.3239 41.0991 12.6419 46.8071 12.3779C49.8851 12.2219 52.7741 13.3189 54.9861 15.4309C57.1981 17.5429 58.4161 20.3899 58.4161 23.4479C58.4161 26.4649 57.2221 29.2849 55.0551 31.3879C53.5231 32.8749 52.6791 34.7969 52.6791 36.7989V37.2299C52.6771 37.5049 52.4531 37.7289 52.1771 37.7289ZM42.9871 36.7289H51.6761C51.6961 34.4799 52.6451 32.3309 54.3551 30.6699C56.3281 28.7559 57.4141 26.1909 57.4141 23.4459C57.4141 20.6639 56.3061 18.0739 54.2931 16.1529C52.2821 14.2329 49.6401 13.2559 46.8531 13.3749C41.6601 13.6149 37.4451 17.8749 37.2571 23.0719C37.1531 25.9409 38.2811 28.7249 40.3511 30.7119C42.0101 32.3019 42.9691 34.4929 42.9871 36.7289Z" fill="#3A3A3A"/>
<path d="M41.639 37.23V41.533C41.639 42.804 42.669 43.834 43.94 43.834H50.724C51.995 43.834 53.025 42.804 53.025 41.533V37.23H41.639Z" fill="#84DBFF"/>
<path d="M43.264 43.167V38.864H53.024V37.23H41.639V41.533C41.639 42.597 42.366 43.484 43.347 43.747C43.299 43.561 43.264 43.368 43.264 43.167Z" fill="#A9EBFF"/>
<path d="M50.724 44.334H43.94C42.396 44.334 41.139 43.077 41.139 41.533V37.23C41.139 36.954 41.363 36.73 41.639 36.73H53.024C53.3 36.73 53.524 36.954 53.524 37.23V41.534C53.524 43.078 52.268 44.334 50.724 44.334ZM42.14 37.73V41.534C42.14 42.527 42.948 43.335 43.941 43.335H50.724C51.717 43.335 52.525 42.527 52.525 41.534V37.73H42.14Z" fill="#3A3A3A"/>
<path d="M49.879 43.834H45.361V46.736H49.879V43.834Z" fill="#F9DD9D"/>
<path d="M49.879 43.834H45.361V44.823H49.879V43.834Z" fill="#EFC36A"/>
<path d="M49.879 47.237H45.361C45.085 47.237 44.861 47.013 44.861 46.737V43.835C44.861 43.559 45.085 43.335 45.361 43.335H49.879C50.155 43.335 50.379 43.559 50.379 43.835V46.737C50.379 47.013 50.155 47.237 49.879 47.237ZM45.861 46.237H49.379V44.335H45.861V46.237Z" fill="#3A3A3A"/>
<path d="M52.138 43.834H49.879V46.736H52.138V43.834Z" fill="#EFC36A"/>
<path d="M52.138 43.834H49.879V44.823H52.138V43.834Z" fill="#D3A553"/>
<path d="M52.138 47.237H49.879C49.603 47.237 49.379 47.013 49.379 46.737V43.835C49.379 43.559 49.603 43.335 49.879 43.335H52.138C52.414 43.335 52.638 43.559 52.638 43.835V46.737C52.638 47.013 52.414 47.237 52.138 47.237ZM50.379 46.237H51.638V44.335H50.379V46.237Z" fill="#3A3A3A"/>
<path d="M50.3309 12.8759H47.3259V12.8789C53.1719 12.8769 57.9149 17.6009 57.9149 23.4469C57.9149 26.4229 56.6839 29.1089 54.7049 31.0289C53.1319 32.5559 52.1769 34.6069 52.1769 36.7979V37.2289H55.6789V36.7979C55.6789 34.6059 56.6339 32.5549 58.2069 31.0289C60.1859 29.1079 61.4169 26.4229 61.4169 23.4469C61.4169 17.4349 56.4039 12.5949 50.3309 12.8759Z" fill="#EFC36A"/>
<path d="M55.679 37.7291H52.177C51.901 37.7291 51.677 37.5051 51.677 37.2291V36.7981C51.677 34.5241 52.628 32.3471 54.356 30.6701C56.329 28.7561 57.415 26.1911 57.415 23.4461C57.415 20.7541 56.365 18.2241 54.46 16.3231C52.556 14.4241 50.022 13.3781 47.328 13.3781C47.19 13.4111 46.993 13.2891 46.9 13.1411C46.809 12.9941 46.801 12.8101 46.879 12.6551C46.964 12.4861 47.138 12.3771 47.327 12.3771H50.32C53.394 12.2381 56.279 13.3221 58.488 15.4311C60.7 17.5431 61.918 20.3901 61.918 23.4481C61.918 26.4641 60.724 29.2841 58.557 31.3881C57.024 32.8751 56.18 34.7971 56.18 36.7991V37.2301C56.179 37.5051 55.955 37.7291 55.679 37.7291ZM52.677 36.7291H55.179C55.199 34.4791 56.149 32.3301 57.859 30.6701C59.832 28.7551 60.918 26.1901 60.918 23.4461C60.918 20.6651 59.81 18.0751 57.797 16.1531C56.207 14.6341 54.221 13.7001 52.082 13.4391C53.213 13.9751 54.255 14.7061 55.166 15.6151C57.262 17.7051 58.415 20.4861 58.415 23.4461C58.415 26.4631 57.221 29.2831 55.054 31.3861C53.538 32.8581 52.696 34.7521 52.677 36.7291Z" fill="#3A3A3A"/>
<path d="M53.025 37.23V41.533C53.025 42.804 51.995 43.834 50.724 43.834H54.053C55.399 43.834 56.489 42.743 56.489 41.398V37.23H53.025Z" fill="#52BADB"/>
<path d="M54.053 44.334H50.724C50.448 44.334 50.224 44.11 50.224 43.834C50.224 43.558 50.448 43.334 50.724 43.334C51.717 43.334 52.525 42.526 52.525 41.533V37.23C52.525 36.954 52.749 36.73 53.025 36.73H56.49C56.766 36.73 56.99 36.954 56.99 37.23V41.398C56.989 43.017 55.672 44.334 54.053 44.334ZM52.867 43.334H54.053C55.12 43.334 55.99 42.465 55.99 41.397V37.73H53.525V41.534C53.524 42.219 53.277 42.847 52.867 43.334Z" fill="#3A3A3A"/>
<path d="M7.30098 23.778C9.35383 23.778 11.018 22.1138 11.018 20.061C11.018 18.0082 9.35383 16.344 7.30098 16.344C5.24814 16.344 3.58398 18.0082 3.58398 20.061C3.58398 22.1138 5.24814 23.778 7.30098 23.778Z" fill="#84DBFF"/>
<path d="M7.30098 35.1159C9.35383 35.1159 11.018 33.4517 11.018 31.3989C11.018 29.346 9.35383 27.6819 7.30098 27.6819C5.24814 27.6819 3.58398 29.346 3.58398 31.3989C3.58398 33.4517 5.24814 35.1159 7.30098 35.1159Z" fill="#84DBFF"/>
<path d="M7.30098 46.4543C9.35383 46.4543 11.018 44.7901 11.018 42.7373C11.018 40.6844 9.35383 39.0203 7.30098 39.0203C5.24814 39.0203 3.58398 40.6844 3.58398 42.7373C3.58398 44.7901 5.24814 46.4543 7.30098 46.4543Z" fill="#84DBFF"/>
<path d="M7.30101 24.278C4.97501 24.278 3.08301 22.386 3.08301 20.061C3.08301 17.735 4.97501 15.843 7.30101 15.843C9.62601 15.843 11.518 17.735 11.518 20.061C11.518 22.386 9.62601 24.278 7.30101 24.278ZM7.30101 16.843C5.52701 16.843 4.08301 18.286 4.08301 20.061C4.08301 21.834 5.52601 23.278 7.30101 23.278C9.07401 23.278 10.518 21.835 10.518 20.061C10.518 18.287 9.07401 16.843 7.30101 16.843Z" fill="#3A3A3A"/>
<path d="M7.30101 35.6159C4.97501 35.6159 3.08301 33.7239 3.08301 31.3989C3.08301 29.0729 4.97501 27.1809 7.30101 27.1809C9.62601 27.1809 11.518 29.0729 11.518 31.3989C11.518 33.7239 9.62601 35.6159 7.30101 35.6159ZM7.30101 28.1809C5.52701 28.1809 4.08301 29.6239 4.08301 31.3989C4.08301 33.1719 5.52601 34.6159 7.30101 34.6159C9.07401 34.6159 10.518 33.1729 10.518 31.3989C10.518 29.6249 9.07401 28.1809 7.30101 28.1809Z" fill="#3A3A3A"/>
<path d="M7.30101 46.9553C4.97501 46.9553 3.08301 45.0633 3.08301 42.7373C3.08301 40.4123 4.97501 38.5203 7.30101 38.5203C9.62601 38.5203 11.518 40.4123 11.518 42.7373C11.518 45.0633 9.62601 46.9553 7.30101 46.9553ZM7.30101 39.5203C5.52701 39.5203 4.08301 40.9633 4.08301 42.7373C4.08301 44.5113 5.52601 45.9553 7.30101 45.9553C9.07401 45.9553 10.518 44.5123 10.518 42.7373C10.518 40.9633 9.07401 39.5203 7.30101 39.5203Z" fill="#3A3A3A"/>
<path d="M19.019 23.778C21.0718 23.778 22.736 22.1138 22.736 20.061C22.736 18.0082 21.0718 16.344 19.019 16.344C16.9662 16.344 15.302 18.0082 15.302 20.061C15.302 22.1138 16.9662 23.778 19.019 23.778Z" fill="#F9A287"/>
<path d="M19.019 35.1159C21.0718 35.1159 22.736 33.4517 22.736 31.3989C22.736 29.346 21.0718 27.6819 19.019 27.6819C16.9662 27.6819 15.302 29.346 15.302 31.3989C15.302 33.4517 16.9662 35.1159 19.019 35.1159Z" fill="#F9A287"/>
<path d="M19.019 46.4543C21.0718 46.4543 22.736 44.7901 22.736 42.7373C22.736 40.6844 21.0718 39.0203 19.019 39.0203C16.9662 39.0203 15.302 40.6844 15.302 42.7373C15.302 44.7901 16.9662 46.4543 19.019 46.4543Z" fill="#F9A287"/>
<path d="M19.019 24.278C16.694 24.278 14.802 22.386 14.802 20.061C14.802 17.735 16.694 15.843 19.019 15.843C21.345 15.843 23.237 17.735 23.237 20.061C23.236 22.386 21.345 24.278 19.019 24.278ZM19.019 16.843C17.246 16.843 15.802 18.286 15.802 20.061C15.802 21.834 17.245 23.278 19.019 23.278C20.793 23.278 22.237 21.835 22.237 20.061C22.236 18.287 20.793 16.843 19.019 16.843Z" fill="#3A3A3A"/>
<path d="M19.019 35.6159C16.694 35.6159 14.802 33.7239 14.802 31.3989C14.802 29.0729 16.694 27.1809 19.019 27.1809C21.345 27.1809 23.237 29.0729 23.237 31.3989C23.236 33.7239 21.345 35.6159 19.019 35.6159ZM19.019 28.1809C17.246 28.1809 15.802 29.6239 15.802 31.3989C15.802 33.1719 17.245 34.6159 19.019 34.6159C20.793 34.6159 22.237 33.1729 22.237 31.3989C22.236 29.6249 20.793 28.1809 19.019 28.1809Z" fill="#3A3A3A"/>
<path d="M19.019 46.9553C16.694 46.9553 14.802 45.0633 14.802 42.7373C14.802 40.4123 16.694 38.5203 19.019 38.5203C21.345 38.5203 23.237 40.4123 23.237 42.7373C23.236 45.0633 21.345 46.9553 19.019 46.9553ZM19.019 39.5203C17.246 39.5203 15.802 40.9633 15.802 42.7373C15.802 44.5113 17.245 45.9553 19.019 45.9553C20.793 45.9553 22.237 44.5123 22.237 42.7373C22.236 40.9633 20.793 39.5203 19.019 39.5203Z" fill="#3A3A3A"/>
<path d="M15.3021 19.5608H11.0181V20.5608H15.3021V19.5608Z" fill="#FFF2F2"/>
<path d="M15.3021 30.8992H11.0181V31.8992H15.3021V30.8992Z" fill="#FFF2F2"/>
<path d="M15.3021 42.2371H11.0181V43.2371H15.3021V42.2371Z" fill="#FFF2F2"/>
<path d="M10.3365 22.269L9.63733 22.9839L15.9828 29.19L16.682 28.4751L10.3365 22.269Z" fill="#FFF2F2"/>
<path d="M15.985 22.2681L9.63953 28.4751L10.3388 29.19L16.6843 22.983L15.985 22.2681Z" fill="#FFF2F2"/>
<path d="M10.3366 33.6063L9.63745 34.3213L15.9831 40.5258L16.6822 39.8108L10.3366 33.6063Z" fill="#FFF2F2"/>
<path d="M15.9854 33.6072L9.64062 39.8135L10.3399 40.5284L16.6847 34.3221L15.9854 33.6072Z" fill="#FFF2F2"/>
<path d="M45.625 51.6368H32.5C30.57 51.6368 29 50.0668 29 48.1368V23.0608C29 21.6818 27.879 20.5608 26.5 20.5608H22.736V19.5608H26.5C28.43 19.5608 30 21.1308 30 23.0608V48.1368C30 49.5158 31.121 50.6368 32.5 50.6368H45.625C47.004 50.6368 48.125 49.5158 48.125 48.1368V46.7368H49.125V48.1368C49.125 50.0668 47.555 51.6368 45.625 51.6368Z" fill="#FFF2F2"/>
<path d="M29.5 30.8992H22.736V31.8992H29.5V30.8992Z" fill="#FFF2F2"/>
<path d="M29.5 42.2371H22.736V43.2371H29.5V42.2371Z" fill="#FFF2F2"/>
<path d="M48.9049 37.2302H47.9049V29.1122C47.9049 28.9702 47.9649 28.8372 48.0689 28.7412L50.2779 26.7412L50.9499 27.4832L48.9049 29.3342V37.2302Z" fill="#3A3A3A"/>
<path d="M46.7459 37.2302H45.7459V29.3342L43.7009 27.4832L44.3729 26.7412L46.5819 28.7412C46.6859 28.8372 46.7459 28.9702 46.7459 29.1122V37.2302Z" fill="#3A3A3A"/>
<path d="M32.208 27.1121H31.208V32.6951H32.208V27.1121Z" fill="#FFF2F2"/>
<path d="M32.208 33.9238H31.208V35.8838H32.208V33.9238Z" fill="#FFF2F2"/>
</svg>
