<svg width="65" height="64" viewBox="0 0 65 64" fill="none" xmlns="http://www.w3.org/2000/svg">
<path d="M14.9787 43.2148C18.6717 43.2148 21.6655 40.2211 21.6655 36.5281C21.6655 32.8351 18.6717 29.8413 14.9787 29.8413C11.2857 29.8413 8.29196 32.8351 8.29196 36.5281C8.29196 40.2211 11.2857 43.2148 14.9787 43.2148Z" fill="#FEB69F"/>
<path d="M24.9072 61.8228H5.04999V53.1433C5.04999 47.6598 9.49524 43.2146 14.9787 43.2146C20.4622 43.2146 24.9075 47.6598 24.9075 53.1433L24.9072 61.8228Z" fill="#72C2E9"/>
<path d="M22.0627 59.6031C21.7175 59.6031 21.4377 59.3233 21.4377 58.9781V58.2643C21.4377 57.9191 21.7175 57.6393 22.0627 57.6393C22.408 57.6393 22.6877 57.9191 22.6877 58.2643V58.9781C22.6877 59.3233 22.408 59.6031 22.0627 59.6031ZM22.0627 56.3893C21.7175 56.3893 21.4377 56.1096 21.4377 55.7643V53.1436C21.4377 49.5821 18.5402 46.6846 14.9787 46.6846C14.6335 46.6846 14.3537 46.4048 14.3537 46.0596C14.3537 45.7143 14.6335 45.4346 14.9787 45.4346C19.2295 45.4346 22.6877 48.8928 22.6877 53.1436V55.7643C22.6877 56.1096 22.408 56.3893 22.0627 56.3893Z" fill="#C5E5FE"/>
<path d="M32.5 47.593C35.3241 47.593 37.6135 45.3036 37.6135 42.4795C37.6135 39.6554 35.3241 37.366 32.5 37.366C29.6759 37.366 27.3865 39.6554 27.3865 42.4795C27.3865 45.3036 29.6759 47.593 32.5 47.593Z" fill="#FEB69F"/>
<path d="M40.0927 61.823H24.9072V55.1858C24.9072 50.9925 28.3065 47.5933 32.4997 47.5933C36.693 47.5933 40.0922 50.9925 40.0922 55.1858V61.823H40.0927Z" fill="#8B72E9"/>
<path d="M37.248 59.603C36.9028 59.603 36.623 59.3233 36.623 58.978V57.976C36.623 57.6308 36.9028 57.351 37.248 57.351C37.5933 57.351 37.873 57.6308 37.873 57.976V58.978C37.873 59.3233 37.5933 59.603 37.248 59.603ZM37.248 56.101C36.9028 56.101 36.623 55.8213 36.623 55.476V55.1853C36.623 52.9118 34.7735 51.0623 32.5 51.0623C32.1547 51.0623 31.875 50.7825 31.875 50.4373C31.875 50.092 32.1547 49.8123 32.5 49.8123C35.4627 49.8123 37.873 52.2228 37.873 55.1853V55.476C37.873 55.8213 37.5933 56.101 37.248 56.101Z" fill="#B8A4FF"/>
<path d="M50.0212 43.2148C53.7142 43.2148 56.708 40.2211 56.708 36.5281C56.708 32.8351 53.7142 29.8413 50.0212 29.8413C46.3282 29.8413 43.3345 32.8351 43.3345 36.5281C43.3345 40.2211 46.3282 43.2148 50.0212 43.2148Z" fill="#FEB69F"/>
<path d="M59.9499 61.8228H40.0927V53.1433C40.0927 47.6598 44.5379 43.2146 50.0214 43.2146C55.5049 43.2146 59.9501 47.6598 59.9501 53.1433L59.9499 61.8228Z" fill="#FB5E3D"/>
<path d="M57.1052 59.6031C56.76 59.6031 56.4802 59.3233 56.4802 58.9781V58.2643C56.4802 57.9191 56.76 57.6393 57.1052 57.6393C57.4505 57.6393 57.7302 57.9191 57.7302 58.2643V58.9781C57.7302 59.3233 57.4505 59.6031 57.1052 59.6031ZM57.1052 56.3893C56.76 56.3893 56.4802 56.1096 56.4802 55.7643V53.1436C56.4802 49.5821 53.5827 46.6846 50.0212 46.6846C49.676 46.6846 49.3962 46.4048 49.3962 46.0596C49.3962 45.7143 49.676 45.4346 50.0212 45.4346C54.272 45.4346 57.7302 48.8928 57.7302 53.1436V55.7643C57.7302 56.1096 57.4505 56.3893 57.1052 56.3893Z" fill="#FFCBC3"/>
<path d="M51.708 2.17676H13.292C10.5305 2.17676 8.29196 4.41526 8.29196 7.17676V17.1928C8.29196 19.8143 10.3105 21.9605 12.8775 22.1718L14.9785 27.1865L17.0707 22.1925H29.7687L32.5 29.5013L35.2312 22.1928H47.929L50.0212 27.1868L52.1222 22.172C54.6892 21.961 56.708 19.8145 56.708 17.193V7.17676C56.708 4.41526 54.4692 2.17676 51.708 2.17676Z" fill="#F0C020"/>
<path d="M54.2075 17.709C53.8625 17.709 53.5825 17.429 53.5825 17.084C53.5825 16.739 53.8625 16.459 54.2075 16.459C54.5525 16.459 54.8325 16.739 54.8325 17.084C54.8325 17.429 54.5525 17.709 54.2075 17.709ZM54.2075 15.209C53.8625 15.209 53.5825 14.929 53.5825 14.584V7.17651C53.5797 6.14376 52.74 5.30401 51.7075 5.30151H13.2925C12.9475 5.30151 12.6675 5.02151 12.6675 4.67651C12.6675 4.33126 12.9475 4.05151 13.2925 4.05151H51.7075C53.43 4.05401 54.8325 5.45376 54.8325 7.17651V14.584C54.8325 14.929 54.5525 15.209 54.2075 15.209Z" fill="#F8E5B0"/>
<path d="M20.845 12.4491L17.6105 15.6823L14.3777 12.4496C13.6665 11.7383 13.6667 10.5851 14.3782 9.87409C15.0895 9.16359 16.2417 9.16384 16.9527 9.87459L17.6105 10.5323L18.2697 9.87309C18.9807 9.16209 20.1337 9.16209 20.8447 9.87309L20.8455 9.87384C21.5565 10.5851 21.5562 11.7381 20.845 12.4491Z" fill="#FC5D3D"/>
<path d="M50.622 12.4491L47.3875 15.6823L44.1547 12.4496C43.4435 11.7383 43.4437 10.5851 44.1552 9.87409C44.8665 9.16359 46.0187 9.16384 46.7297 9.87459L47.3875 10.5323L48.0467 9.87309C48.7577 9.16209 49.9107 9.16209 50.6217 9.87309L50.6225 9.87384C51.3335 10.5851 51.3335 11.7381 50.622 12.4491Z" fill="#FC5D3D"/>
<path d="M19.13 36.5288C19.13 36.1838 18.85 35.9038 18.505 35.9038C18.1625 35.9038 17.8827 36.1813 17.88 36.5238C17.88 36.5263 17.88 36.5263 17.88 36.5288C17.8775 38.1241 16.575 39.4266 14.98 39.4291C13.3825 39.4266 12.0797 38.1241 12.0775 36.5288C12.0775 36.1838 11.7975 35.9038 11.4525 35.9038C11.1075 35.9038 10.8275 36.1838 10.8275 36.5288C10.83 38.8163 12.69 40.6791 14.98 40.6791C17.2672 40.6791 19.1275 38.8166 19.13 36.5288Z" fill="black"/>
<path d="M4.42499 53.1438V61.8241C4.42499 62.1691 4.70474 62.4491 5.04999 62.4491C5.39499 62.4491 5.67499 62.1691 5.67499 61.8241C5.67499 61.8216 5.67499 61.8216 5.67499 61.8188V53.1438C5.67499 47.9986 9.83724 43.8388 14.98 43.8388C20.122 43.8388 24.2825 48.0016 24.2825 53.1438C24.2825 56.6531 24.2825 58.2413 24.2825 61.8241C24.2825 62.1691 24.5625 62.4491 24.9075 62.4491C25.2525 62.4491 25.5325 62.1691 25.5325 61.8241V61.8188V55.1866C25.54 51.3513 28.665 48.2238 32.5 48.2191C36.335 48.2241 39.46 51.3513 39.4675 55.1866V61.8241C39.4675 62.1691 39.7475 62.4491 40.0925 62.4491C40.4375 62.4491 40.7175 62.1691 40.7175 61.8241V61.8188C40.7175 58.5313 40.7175 56.4933 40.7175 53.1438C40.7175 51.2191 41.3 49.3741 42.3997 47.8041C42.5972 47.5216 42.53 47.1316 42.2475 46.9341C41.9747 46.7416 41.5672 46.8143 41.3775 47.0866C40.5155 48.3143 39.9342 49.6918 39.6565 51.1443C38.689 49.4368 37.1507 48.1348 35.33 47.4683C37.065 46.4798 38.2377 44.6151 38.2377 42.4791C38.2377 39.3166 35.6652 36.7416 32.5002 36.7416C29.3352 36.7416 26.7627 39.3166 26.7627 42.4791C26.7627 44.6151 27.9352 46.4798 29.6702 47.4683C27.8435 48.1366 26.3077 49.4428 25.3435 51.1453C24.61 47.2958 21.7967 44.2418 18.2042 43.0918C20.6105 41.9081 22.2905 39.4343 22.2905 36.5288C22.2905 32.4863 19.0222 29.2163 14.978 29.2163C10.9477 29.2163 7.66799 32.4756 7.66799 36.5288C7.66799 39.4263 9.34049 41.9046 11.754 43.0921C7.57874 44.4281 4.42499 48.3533 4.42499 53.1438ZM28.01 42.4791C28.015 40.0091 30.03 37.9963 32.5 37.9916C34.97 37.9966 36.9847 40.0091 36.9875 42.4791C36.9847 44.9491 34.97 46.9638 32.5 46.9691C30.03 46.9638 28.015 44.9491 28.01 42.4791ZM8.91749 36.5288C8.92249 33.1913 11.6422 30.4716 14.9775 30.4663C18.315 30.4716 21.0347 33.1913 21.04 36.5288C21.0347 39.8641 18.315 42.5841 14.9775 42.5888C11.6422 42.5841 8.92224 39.8641 8.91749 36.5288Z" fill="black"/>
<path d="M34.5775 41.854C34.235 41.854 33.9525 42.134 33.9525 42.479C33.9525 43.2788 33.3002 43.9315 32.5 43.9338C31.7 43.9313 31.0472 43.2788 31.045 42.479C31.045 42.134 30.765 41.854 30.4225 41.854C30.0775 41.854 29.7975 42.134 29.7975 42.479C29.7975 43.969 31.0102 45.1815 32.5002 45.1838C33.9902 45.1813 35.2027 43.969 35.2027 42.479C35.2025 42.134 34.9222 41.854 34.5775 41.854Z" fill="black"/>
<path d="M53.1523 35.9038C52.8073 35.9038 52.5273 36.1838 52.5273 36.5288C52.5248 37.9066 51.3998 39.0316 50.02 39.0341C48.6423 39.0316 47.5173 37.9066 47.5148 36.5288C47.5148 36.1838 47.2348 35.9038 46.8898 35.9038C46.5448 35.9038 46.2648 36.1838 46.2648 36.5288C46.2673 38.5988 47.9498 40.2841 50.02 40.2841C52.0898 40.2841 53.775 38.5991 53.7773 36.5288C53.7773 36.1838 53.4975 35.9038 53.1523 35.9038Z" fill="black"/>
<path d="M43.9725 46.0762C43.9725 46.0737 43.9725 46.0737 43.9725 46.0737C44.2325 45.8487 44.2625 45.4537 44.0402 45.1934C43.8252 44.9409 43.41 44.9084 43.1577 45.1259C42.912 45.3372 42.8535 45.7249 43.09 46.0059C43.3102 46.2632 43.6945 46.3057 43.9725 46.0762Z" fill="black"/>
<path d="M59.95 62.4491C60.295 62.4491 60.575 62.1691 60.575 61.8241V53.1438C60.575 48.3558 57.42 44.4278 53.2465 43.0918C55.648 41.9101 57.3325 39.4393 57.3325 36.5288C57.3325 32.4823 54.0595 29.2163 50.0225 29.2163C45.9815 29.2163 42.71 32.4831 42.71 36.5288C42.71 39.4358 44.3915 41.9103 46.7987 43.0933C46.3125 43.2496 45.835 43.4381 45.3697 43.6666C45.0495 43.8268 44.9365 44.2073 45.0847 44.5041C45.2322 44.8041 45.6122 44.9391 45.9172 44.7916C45.9197 44.7916 45.9197 44.7888 45.9222 44.7888C47.2022 44.1588 48.5825 43.8388 50.0222 43.8388C55.1642 43.8388 59.3247 48.0016 59.3247 53.1438V61.8241C59.325 62.1691 59.605 62.4491 59.95 62.4491ZM43.96 36.5288C43.965 33.1913 46.685 30.4716 50.0225 30.4663C53.3575 30.4716 56.0775 33.1913 56.0825 36.5288C56.0772 39.8641 53.3575 42.5841 50.0225 42.5888C46.685 42.5841 43.9647 39.8641 43.96 36.5288Z" fill="black"/>
<path d="M34.2123 18.8137C34.5575 18.8137 34.8373 18.534 34.8373 18.1887V6.8335C34.8373 6.48825 34.5575 6.2085 34.2123 6.2085C33.867 6.2085 33.5873 6.48825 33.5873 6.8335V12.1407H27.708V6.8335C27.708 6.48825 27.4283 6.2085 27.083 6.2085C26.7378 6.2085 26.458 6.48825 26.458 6.8335V18.1887C26.458 18.534 26.7378 18.8137 27.083 18.8137C27.4283 18.8137 27.708 18.534 27.708 18.1887V13.3907H33.5873V18.1885C33.5873 18.534 33.867 18.8137 34.2123 18.8137Z" fill="black"/>
<path d="M38.542 7.90771C38.542 7.56246 38.2622 7.28271 37.917 7.28271C37.5717 7.28271 37.292 7.56246 37.292 7.90771V8.59397C37.292 8.93922 37.5717 9.21897 37.917 9.21897C38.2622 9.21897 38.542 8.93922 38.542 8.59397V7.90771Z" fill="black"/>
<path d="M37.917 10.5015C37.5717 10.5015 37.292 10.7812 37.292 11.1265V18.189C37.292 18.5342 37.5717 18.814 37.917 18.814C38.2622 18.814 38.542 18.5342 38.542 18.189V11.1265C38.542 10.7812 38.2622 10.5015 37.917 10.5015Z" fill="black"/>
<path d="M51.7075 1.55151H13.2925C10.19 1.55151 7.66748 4.07651 7.66748 7.17651V10.9038C7.66748 11.249 7.94748 11.5288 8.29248 11.5288C8.63748 11.5288 8.91748 11.249 8.91748 10.9038V7.17651C8.91998 4.76876 10.8825 2.80651 13.2925 2.80151H51.7075C54.115 2.80651 56.0772 4.76876 56.0825 7.17651V17.1938C56.085 19.4513 54.3225 21.364 52.0725 21.5488C51.8375 21.5688 51.6375 21.7138 51.545 21.929L50.02 25.569L48.5047 21.9515C48.4072 21.719 48.1822 21.5665 47.9297 21.5665H42.3497C42.0047 21.5665 41.7247 21.849 41.7247 22.194C41.7247 22.5365 42.0047 22.819 42.3497 22.819H47.5122L49.4447 27.429C49.6577 27.9373 50.383 27.9395 50.597 27.429L52.557 22.749C55.2762 22.3408 57.3322 19.9863 57.3322 17.1938V7.17651C57.3325 4.07651 54.81 1.55151 51.7075 1.55151Z" fill="black"/>
<path d="M7.66746 15.9038V17.1938C7.66746 20.0143 9.74471 22.3438 12.4425 22.7491L14.4025 27.4291C14.6172 27.9403 15.3422 27.9366 15.555 27.4291L17.4875 22.8166H29.335L31.915 29.7216C32.114 30.2588 32.8845 30.2608 33.085 29.7216L35.665 22.8191H37.3472C37.6922 22.8191 37.9722 22.5366 37.9722 22.1941C37.9722 21.8491 37.6922 21.5691 37.3472 21.5691L35.2322 21.5666C34.9722 21.5666 34.7375 21.7316 34.6447 21.9741L32.4997 27.7166L30.3547 21.9741C30.2622 21.7316 30.027 21.5666 29.7697 21.5666H17.0697C16.817 21.5666 16.5922 21.7191 16.4945 21.9516L14.9772 25.5691L13.452 21.9291C13.3622 21.7141 13.162 21.5691 12.927 21.5488C10.677 21.3641 8.91446 19.4513 8.91696 17.1938V15.9038C8.91696 15.5588 8.63696 15.2788 8.29196 15.2788C7.94946 15.2788 7.66946 15.5563 7.66696 15.9013C7.66746 15.9013 7.66746 15.9013 7.66746 15.9038Z" fill="black"/>
<path d="M8.29248 14.0288C8.63766 14.0288 8.91748 13.749 8.91748 13.4038C8.91748 13.0586 8.63766 12.7788 8.29248 12.7788C7.9473 12.7788 7.66748 13.0586 7.66748 13.4038C7.66748 13.749 7.9473 14.0288 8.29248 14.0288Z" fill="black"/>
<path d="M39.2247 22.1937C39.2247 22.5362 39.5047 22.8187 39.8497 22.8187C40.1922 22.8187 40.4747 22.5362 40.4747 22.1937C40.4747 21.8487 40.1922 21.5662 39.8497 21.5662C39.505 21.5664 39.2247 21.8489 39.2247 22.1937Z" fill="black"/>
<path d="M17.8275 9.43147L17.61 9.64897L17.3952 9.43397C16.4085 8.44772 14.856 8.50797 13.9377 9.43147C12.9742 10.3897 12.9887 11.9455 13.9352 12.8915L17.1677 16.1242C17.4302 16.3812 17.8215 16.3602 18.0527 16.1242L21.2875 12.8915C22.2675 11.9067 22.2165 10.358 21.285 9.43147C20.3347 8.47622 18.7812 8.47247 17.8275 9.43147ZM20.405 10.3165C20.8717 10.7887 20.8657 11.5407 20.4022 12.0092C20.4022 12.0092 20.3997 12.0092 20.3997 12.0117L17.6097 14.799L14.82 12.009C14.3497 11.5337 14.3527 10.7835 14.82 10.3162C15.2852 9.85047 16.0412 9.84747 16.51 10.3162L17.1675 10.9737C17.405 11.2087 17.815 11.2087 18.0525 10.9737L18.7125 10.3137C19.179 9.84722 19.9402 9.84847 20.4025 10.3162L20.405 10.3165Z" fill="black"/>
<path d="M47.8297 16.1239L51.0624 12.8912C51.0649 12.8912 51.0649 12.8912 51.0649 12.8912C52.0307 11.9204 52.0059 10.3722 51.0649 9.43119C51.0624 9.43119 51.0624 9.43119 51.0624 9.43119C50.0824 8.45169 48.5337 8.49744 47.6049 9.43119L47.3874 9.64869L47.1724 9.43369C46.2072 8.46844 44.6644 8.48494 43.7124 9.43119C42.7729 10.3712 42.7389 11.9177 43.7124 12.8912L46.9452 16.1239C47.2009 16.3747 47.5869 16.3667 47.8297 16.1239ZM44.5974 10.3164C45.0664 9.84744 45.8227 9.85119 46.2874 10.3164L46.9452 10.9739C47.1799 11.2089 47.5927 11.2114 47.8299 10.9739L48.4877 10.3139C48.9517 9.84944 49.7092 9.84544 50.1802 10.3164C50.6449 10.7812 50.6499 11.5342 50.1802 12.0092C50.1777 12.0092 50.1777 12.0092 50.1777 12.0117L47.3877 14.7989L44.5977 12.0092C44.1267 11.5382 44.1302 10.7784 44.5974 10.3164Z" fill="black"/>
</svg>
