<svg width="44" height="32" viewBox="0 0 44 32" fill="none" xmlns="http://www.w3.org/2000/svg">
<g clip-path="url(#clip0_20084_526)">
<path d="M14.8576 14.4375L15.5296 14.865C16.2046 15.2938 16.7924 15.8508 17.2611 16.5057C18.0717 17.6395 19.3431 19.6698 20.4948 22.585C20.7553 23.2441 20.8759 23.952 20.8487 24.662C20.8215 25.3721 20.647 26.0682 20.3369 26.7046C20.3369 26.7046 18.908 28.4099 17.6681 27.6127C16.4283 26.8156 16.9294 25.2393 16.9294 25.2393C17.103 24.9047 17.1868 24.5294 17.1723 24.1512C17.1578 23.773 17.0455 23.4054 16.8468 23.0857C16.2928 22.1942 15.4822 21.0551 14.6346 20.4303L14.8576 14.4375Z" fill="#797996"/>
<path d="M1.66798 27.2317C1.66798 27.2317 1.23886 27.8152 1.19777 29.6072C1.19313 29.8084 1.22799 30.0085 1.3003 30.1958C1.37262 30.3831 1.48093 30.5537 1.61887 30.6977C1.75681 30.8417 1.9216 30.9562 2.10355 31.0343C2.28551 31.1125 2.48095 31.1528 2.67841 31.1529H5.58503L6.17437 26.1655L1.66798 27.2317Z" fill="#B45F6D"/>
<path d="M14.8044 28.9951H5.58502V31.1534H14.8044V28.9951Z" fill="#464659"/>
<path d="M14.8576 14.4375L14.4074 14.1511C14.1891 14.0893 13.993 13.9645 13.8427 13.7917L12.9747 13.2393H7.47798L6.54752 13.8056C6.39379 13.9754 6.19515 14.0964 5.97554 14.1538L5.43514 14.4832C4.35235 15.1424 3.51898 16.1541 3.06947 17.3551C2.35593 19.2606 1.27042 22.3757 0.502306 25.5651C-0.0663493 27.9274 1.27005 29.0538 3.42232 28.0034C4.11324 27.6662 4.63914 27.1549 5.10252 26.5855L5.1666 28.2912L6.90563 29.6962H12.5565L15.2857 28.2908L14.8576 14.4375Z" fill="#797996"/>
<path d="M10.2261 12.9893L8.10944 15.4336C8.42682 16.2521 8.7993 17.0472 9.22421 17.8134H11.2281C11.653 17.0472 12.0255 16.2521 12.3429 15.4336L10.2261 12.9893Z" fill="#CBD5EA"/>
<path d="M9.37418 16.1585L9.2244 17.8131C9.53065 18.3754 9.86501 18.9213 10.2261 19.4487C10.5873 18.9213 10.9216 18.3754 11.2279 17.8131L11.0353 15.6854C11.0353 15.6854 10.5571 15.3611 10.1422 15.4334C9.7273 15.5056 9.37418 16.1585 9.37418 16.1585Z" fill="#FF6D8D"/>
<path d="M11.0353 15.6855L10.7913 12.9893H9.66103L9.37421 16.1586C9.87901 15.8585 10.451 15.6956 11.0353 15.6855Z" fill="#E5486E"/>
<path d="M11.6263 12.2471H8.82604L7.47781 13.2394C7.62094 13.9893 7.83253 14.7238 8.10982 15.4335L10.226 13.881L12.3421 15.4335C12.6195 14.7238 12.831 13.9893 12.9741 13.2394L11.6263 12.2471Z" fill="white"/>
<path d="M8.82602 11.6001V12.2472L10.2261 13.8811L11.6263 12.2472V11.727L8.82602 11.6001Z" fill="#FFD4CA"/>
<path d="M5.30011 17.2707C5.30011 17.2707 5.27065 15.9029 4.84208 14.8989C4.33942 15.3025 3.90823 15.7907 3.56718 16.3425C3.73728 16.609 4.10278 17.3063 4.10278 18.3796V21.1819C4.10367 21.3291 4.07431 21.4749 4.01657 21.6098C3.95884 21.7448 3.87402 21.8659 3.76757 21.9654C3.3547 22.3323 3.08699 22.8398 3.01441 23.3932L1.96824 24.8832C1.94293 24.9192 1.93003 24.9628 1.93155 25.0071C1.93306 25.0514 1.94891 25.0939 1.97663 25.128C2.00434 25.1622 2.04236 25.186 2.08476 25.1958C2.12715 25.2057 2.17155 25.2009 2.21102 25.1823L3.36292 24.6401C3.36292 24.6401 3.16899 26.4738 3.94293 27.6968C4.37919 27.3841 4.7697 27.0099 5.10277 26.5854L5.1036 26.6081L5.30011 26.2772V17.2707Z" fill="#595975"/>
<path d="M5.12698 27.2289L5.16688 28.2911C5.16688 28.2911 5.16688 29.1785 6.28969 29.5888C6.44741 29.6458 6.61212 29.6801 6.77911 29.6908C7.66183 28.8343 7.58056 26.7327 7.58056 26.7327V25.4118L7.64179 25.376C7.78468 25.2927 7.90344 25.1724 7.98603 25.0272C8.06862 24.8821 8.11211 24.7173 8.1121 24.5495V23.853L7.00341 23.939L5.12698 27.2289Z" fill="#595975"/>
<path d="M11.6263 10.6133H8.82602V11.6001C8.82602 11.6001 9.30408 12.1475 10.3648 12.1475C10.3648 12.1475 11.1319 12.0932 11.6263 11.727V10.6133Z" fill="#F99C9C"/>
<path d="M4.06364 14.9101C3.99118 15.0012 3.95017 15.1141 3.94695 15.2314C3.94373 15.3486 3.97848 15.4637 4.04582 15.5588C4.32932 15.9703 4.78393 16.7866 4.78393 17.7883V20.6024C4.78393 20.6024 5.22385 21.7281 6.2353 21.3349V17.788C6.2353 17.788 6.15893 15.7329 5.23004 14.5719C5.14464 14.4673 5.02322 14.3998 4.89061 14.3833C4.75801 14.3669 4.62424 14.4026 4.51668 14.4834C4.34928 14.6064 4.19716 14.7497 4.06364 14.9101Z" fill="#E0898D"/>
<path d="M13.8427 13.792C13.3919 15.2132 12.1191 18.7959 10.1899 20.8169C8.4674 19.0112 7.12684 15.8116 6.54757 13.8058L5.97559 14.1541C6.57019 16.1354 7.97022 19.6025 9.96836 21.5191C10.0283 21.5767 10.1076 21.6088 10.19 21.6088C10.2724 21.6088 10.3516 21.5767 10.4116 21.5191C12.5026 19.5132 13.8827 15.7707 14.4076 14.1514L13.8427 13.792Z" fill="white"/>
<path d="M7.69184 9.14811C7.69184 9.14811 6.89546 9.38811 6.47142 8.75592C6.35647 8.57783 6.29678 8.3686 6.30012 8.15545V6.55762H7.69184V9.14811Z" fill="#F99C9C"/>
<path d="M13.0467 9.14811C13.0467 9.14811 13.8431 9.38811 14.2671 8.75592C14.382 8.57782 14.4417 8.36859 14.4383 8.15545V6.55762H13.0467V9.14811Z" fill="#F99C9C"/>
<path d="M7.54158 7.05939H6.85011C6.65202 7.05952 6.45598 7.01862 6.27388 6.93918C6.09178 6.85974 5.92741 6.74341 5.79076 6.59726C5.65411 6.45111 5.54802 6.27818 5.47893 6.08897C5.40984 5.89976 5.3792 5.69822 5.38885 5.49657C5.45968 4.05525 6.10378 1.99812 8.97273 1.03586C8.97273 1.03586 11.1784 0.300709 11.9647 1.74767C11.9647 1.74767 15.5646 1.74767 15.0069 5.52019C14.4491 9.29271 10.3648 6.78598 10.3648 6.78598C10.3648 6.78598 9.35549 8.26287 7.54158 7.05939Z" fill="#FFC676"/>
<path d="M11.3464 3.18115C11.3464 3.18115 11.2573 6.72195 7.73579 7.15518L7.54187 7.67282V8.55489C7.54187 9.31804 7.83932 10.0499 8.36878 10.5896C8.89824 11.1292 9.61634 11.4324 10.3651 11.4324C11.1139 11.4324 11.832 11.1292 12.3614 10.5896C12.8909 10.0499 13.1883 9.31804 13.1883 8.55489V6.41983C13.1883 6.41983 13.1476 4.52214 11.3464 3.18115Z" fill="#FFD4CA"/>
<path d="M10.3295 10.3575C9.66247 10.3575 9.33114 10.0614 9.19308 9.88469C9.16589 9.85095 9.14555 9.81204 9.13325 9.77021C9.12094 9.72839 9.11692 9.68448 9.12141 9.64106C9.1259 9.59764 9.13882 9.55556 9.15941 9.51727C9.18001 9.47898 9.20786 9.44524 9.24136 9.41802C9.27486 9.3908 9.31334 9.37065 9.35455 9.35872C9.39576 9.34679 9.43889 9.34333 9.48143 9.34855C9.52396 9.35376 9.56506 9.36754 9.60232 9.38909C9.63958 9.41064 9.67227 9.43952 9.69848 9.47406C9.76414 9.55792 9.93341 9.69872 10.3295 9.69872C10.745 9.69872 10.9629 9.54041 11.056 9.44601C11.117 9.38538 11.199 9.35172 11.2841 9.35236C11.3693 9.353 11.4508 9.38788 11.5109 9.44942C11.571 9.51096 11.6048 9.59419 11.605 9.681C11.6052 9.76781 11.5717 9.8512 11.5119 9.91302C11.312 10.1158 10.9446 10.3575 10.3295 10.3575Z" fill="#F99C9C"/>
<path d="M9.50173 8.40465C9.41601 8.40465 9.33381 8.36994 9.27319 8.30816C9.21258 8.24639 9.17853 8.1626 9.17853 8.07524V7.76935C9.17853 7.68199 9.21258 7.5982 9.27319 7.53642C9.33381 7.47465 9.41601 7.43994 9.50173 7.43994C9.58745 7.43994 9.66966 7.47465 9.73027 7.53642C9.79089 7.5982 9.82494 7.68199 9.82494 7.76935V8.07524C9.82494 8.1626 9.79089 8.24639 9.73027 8.30816C9.66966 8.36994 9.58745 8.40465 9.50173 8.40465Z" fill="#F99C9C"/>
<path d="M11.2368 8.40465C11.1511 8.40465 11.0689 8.36994 11.0083 8.30816C10.9477 8.24639 10.9136 8.1626 10.9136 8.07524V7.76935C10.9136 7.68199 10.9477 7.5982 11.0083 7.53642C11.0689 7.47465 11.1511 7.43994 11.2368 7.43994C11.3226 7.43994 11.4048 7.47465 11.4654 7.53642C11.526 7.5982 11.56 7.68199 11.56 7.76935V8.07524C11.56 8.1626 11.526 8.24639 11.4654 8.30816C11.4048 8.36994 11.3226 8.40465 11.2368 8.40465Z" fill="#F99C9C"/>
<path d="M7.5416 7.05908V7.80609C11.816 7.37183 11.3462 3.18115 11.3462 3.18115C11.3462 3.18115 11.0631 6.62567 7.5416 7.05908Z" fill="#F99C9C"/>
<path d="M20.3369 26.7045C19.7916 27.0706 19.1568 27.319 18.5138 27.1857C17.2507 26.9238 16.9808 25.8241 16.9283 25.2388C16.856 25.3787 16.7686 25.5101 16.6678 25.6303C16.1662 26.2256 15.6073 26.7683 14.9996 27.2501L16.2942 30.4783C17.5765 29.7898 18.7194 28.8602 19.6624 27.7384C19.9287 27.4238 20.1553 27.0765 20.3369 26.7045Z" fill="#595975"/>
<path d="M12.5568 27.8495V29.6961H13.5897C13.7867 29.6961 13.982 29.6593 14.166 29.5876L14.3265 26.6855H13.6985C13.5486 26.6856 13.4001 26.7157 13.2616 26.7742C13.123 26.8327 12.9972 26.9184 12.8911 27.0265C12.7851 27.1346 12.701 27.2629 12.6436 27.4041C12.5863 27.5453 12.5568 27.6967 12.5568 27.8495Z" fill="#595975"/>
<path d="M15.579 31.153H14.3593C14.2513 31.1531 14.1444 31.1315 14.0446 31.0894C13.9448 31.0473 13.8542 30.9856 13.7778 30.9079C13.7014 30.8301 13.6409 30.7377 13.5995 30.636C13.5582 30.5344 13.5369 30.4254 13.5369 30.3154V27.4902C13.537 27.2768 13.6201 27.0721 13.7682 26.9212C13.9163 26.7703 14.1171 26.6855 14.3265 26.6855H15.579C15.8481 26.6855 16.1061 26.7945 16.2964 26.9884C16.4866 27.1823 16.5935 27.4453 16.5935 27.7195V30.1195C16.5934 30.3937 16.4865 30.6565 16.2962 30.8504C16.106 31.0442 15.848 31.153 15.579 31.153Z" fill="#FFD4CA"/>
<path d="M6.23531 21.335C5.38574 21.2961 4.96391 20.8667 4.78394 20.6025V23.2047H6.23531V21.335Z" fill="#B45F6D"/>
<path d="M6.54163 22.7798H7.33975C7.4412 22.7798 7.54164 22.8001 7.63536 22.8397C7.72908 22.8793 7.81424 22.9373 7.88597 23.0104C7.95769 23.0835 8.01459 23.1703 8.05341 23.2658C8.09223 23.3613 8.11221 23.4637 8.11221 23.5671V23.8527C8.11221 23.9561 8.09223 24.0585 8.05341 24.154C8.01459 24.2495 7.95769 24.3363 7.88596 24.4094C7.81423 24.4825 7.72907 24.5405 7.63536 24.58C7.54164 24.6196 7.44119 24.6399 7.33975 24.6399H6.54163V22.7798Z" fill="#F99C9C"/>
<path d="M4.96164 26.7325H6.18141C6.28943 26.7326 6.39639 26.7109 6.49619 26.6688C6.596 26.6267 6.68668 26.565 6.76305 26.4871C6.83942 26.4093 6.89999 26.3169 6.94129 26.2151C6.98259 26.1134 7.00381 26.0044 7.00374 25.8943V23.0694C7.00374 22.8559 6.92055 22.6513 6.77248 22.5003C6.62442 22.3494 6.42359 22.2646 6.21419 22.2646H4.96164C4.82839 22.2646 4.69643 22.2914 4.57332 22.3433C4.4502 22.3953 4.33833 22.4714 4.2441 22.5675C4.14987 22.6635 4.07512 22.7775 4.02412 22.903C3.97312 23.0284 3.94687 23.1629 3.94687 23.2987V25.6987C3.94694 25.973 4.05389 26.2359 4.2442 26.4298C4.4345 26.6237 4.69257 26.7326 4.96164 26.7325Z" fill="#FFD4CA"/>
<path d="M0.74389 28.3243C0.813147 28.3809 0.886664 28.432 0.963761 28.4769C0.911758 28.849 0.881999 29.224 0.874649 29.5998C0.869 29.8448 0.911474 30.0886 0.999574 30.3167C1.08767 30.5449 1.21962 30.7527 1.38767 30.9281C1.55571 31.1036 1.75646 31.243 1.97812 31.3382C2.19977 31.4334 2.43787 31.4825 2.67841 31.4826H15.5789C15.861 31.4822 16.1359 31.3909 16.3641 31.2219C16.5924 31.0529 16.7625 30.8148 16.8502 30.5414C18.0048 29.8605 19.0382 28.9857 19.9068 27.9537C20.5372 27.2108 20.9538 26.3046 21.1105 25.3355C21.2672 24.3663 21.158 23.3718 20.7948 22.462C19.6467 19.5557 18.3816 17.5134 17.5225 16.3118C17.03 15.6224 16.4116 15.0364 15.7012 14.5858C14.3496 13.9191 13.0887 13.0764 11.9499 12.0788V11.3238C12.6239 10.9216 13.1279 10.2795 13.3649 9.52107C13.3751 9.52107 13.3847 9.52173 13.3951 9.52173C13.6175 9.53026 13.8384 9.48157 14.0374 9.38014C14.2364 9.27871 14.4072 9.12783 14.5339 8.9414C14.686 8.70874 14.7654 8.43458 14.7615 8.15505V7.07684C15.0215 6.7271 15.2269 6.24098 15.3261 5.56917C15.5091 4.33208 15.2899 3.33557 14.6749 2.60719C13.8655 1.6486 12.62 1.46272 12.1501 1.42677C11.184 -0.0266933 8.96935 0.690389 8.87174 0.72286C5.71172 1.78272 5.13106 4.15815 5.06605 5.48004C5.05314 5.72608 5.08991 5.9722 5.1741 6.20317C5.25828 6.43414 5.38809 6.64504 5.55548 6.82281C5.67888 6.95532 5.82107 7.06823 5.97731 7.15778V8.15542C5.97354 8.43478 6.05276 8.70877 6.20456 8.9414C6.33079 9.12698 6.50062 9.27737 6.69855 9.37884C6.89647 9.48032 7.11619 9.52963 7.33763 9.52229C7.34686 9.52229 7.35609 9.52145 7.36478 9.52126C7.56723 10.169 7.96559 10.7348 8.50282 11.1376V12.0788C7.52636 12.9224 6.44555 13.6318 5.28805 14.1888C5.14365 14.0936 4.97424 14.0454 4.80232 14.0507C4.63041 14.056 4.46415 14.1145 4.32564 14.2184C4.13715 14.3568 3.96594 14.5182 3.81581 14.699C3.71639 14.822 3.65255 14.9708 3.63146 15.1287C3.61037 15.2866 3.63286 15.4474 3.69641 15.5931C3.30358 16.0879 2.99008 16.643 2.76752 17.2378C2.0103 19.2606 0.947785 22.3337 0.188717 25.4866C-0.119066 26.7649 0.078089 27.7727 0.74389 28.3243ZM5.26182 30.824H2.67841C2.524 30.8239 2.37118 30.7924 2.22891 30.7312C2.08664 30.6701 1.9578 30.5806 1.84996 30.468C1.74212 30.3553 1.65746 30.2219 1.60094 30.0754C1.54443 29.929 1.51721 29.7725 1.52087 29.6152C1.52704 29.3091 1.54862 29.0036 1.58551 28.6998C1.70535 28.7197 1.82656 28.7296 1.94796 28.7295C2.43046 28.7295 2.97668 28.5865 3.5626 28.3006C4.0244 28.0713 4.44595 27.7661 4.81026 27.397L4.84424 28.3017C4.86959 28.6713 5.01689 29.0213 5.26219 29.2947L5.26182 30.824ZM4.27005 25.6989V23.2989C4.27037 23.1121 4.34331 22.933 4.4729 22.8009C4.60249 22.6689 4.77816 22.5945 4.96143 22.5942H6.21398C6.33763 22.5943 6.45617 22.6444 6.5436 22.7335C6.63103 22.8227 6.6802 22.9435 6.68032 23.0695V25.8945C6.68003 26.0293 6.62733 26.1585 6.53378 26.2537C6.44023 26.349 6.31344 26.4026 6.1812 26.4028H4.96161C4.77844 26.4025 4.60283 26.3283 4.47323 26.1964C4.34362 26.0644 4.27056 25.8855 4.27005 25.6989ZM5.90823 30.824V29.7821C5.99685 29.8261 6.08776 29.8651 6.18055 29.899C6.41336 29.9836 6.65877 30.0265 6.90592 30.0257H13.2138V30.3155C13.214 30.4917 13.2537 30.6656 13.3298 30.8238L5.90823 30.824ZM16.2703 30.1195C16.2701 30.3063 16.1973 30.4854 16.0677 30.6175C15.9381 30.7495 15.7623 30.8238 15.5791 30.824H14.3593C14.227 30.8239 14.1003 30.7703 14.0067 30.675C13.9132 30.5798 13.8605 30.4506 13.8602 30.3158V27.4903C13.8603 27.3643 13.9095 27.2435 13.9969 27.1544C14.0843 27.0653 14.2029 27.0152 14.3265 27.0151H15.5791C15.7623 27.0153 15.9381 27.0896 16.0677 27.2217C16.1973 27.3538 16.2701 27.5329 16.2703 27.7197V30.1195ZM15.403 21.6274C15.8315 22.1427 16.2227 22.6891 16.5735 23.2622C16.7759 23.5911 16.8704 23.9771 16.8432 24.3643C16.816 24.7515 16.6685 25.1198 16.4222 25.4158C16.1478 25.7398 15.8561 26.0481 15.5485 26.3393L15.403 21.6274ZM12.6172 13.3827C12.5083 13.9024 12.3647 14.414 12.1875 14.9138L10.7032 13.8252L11.6759 12.6901L12.6172 13.3827ZM11.9486 15.5503C11.8003 15.9205 11.6341 16.2962 11.45 16.6773L11.3052 15.0781L11.9486 15.5503ZM10.2261 14.2873L10.6096 14.5686L10.8968 17.7414C10.6347 18.212 10.3963 18.5979 10.2261 18.8627C10.0561 18.5981 9.81762 18.2119 9.55555 17.7414L9.84274 14.5686L10.2261 14.2873ZM9.14923 12.1239V11.5127C9.83284 11.8045 10.5955 11.8412 11.3031 11.6162V12.1236L10.2261 13.3804L9.14923 12.1239ZM14.1151 8.15571C14.1186 8.30238 14.0785 8.4467 14.0002 8.56982C13.9431 8.65348 13.8681 8.72289 13.781 8.77288C13.6938 8.82286 13.5967 8.85213 13.4969 8.85848C13.5061 8.75844 13.5114 8.65726 13.5114 8.55486V7.87373C13.7224 7.82974 13.9259 7.75419 14.1152 7.64954L14.1151 8.15571ZM6.73822 8.56982C6.65994 8.4467 6.61991 8.30238 6.62334 8.15571V7.37293C6.69805 7.38234 7.21841 7.38893 7.21841 7.38893V8.55495C7.21841 8.65726 7.22367 8.75834 7.23291 8.85829C7.13447 8.85126 7.03887 8.82168 6.95321 8.77175C6.86756 8.72182 6.79407 8.65273 6.73822 8.56982ZM6.85014 6.73001C6.69584 6.73015 6.54312 6.69832 6.40125 6.63647C6.25938 6.57461 6.13133 6.48401 6.02486 6.37018C5.9184 6.25634 5.83574 6.12164 5.78191 5.97426C5.72808 5.82687 5.7042 5.66987 5.71172 5.51279C5.78089 4.10441 6.42028 2.23853 9.07305 1.34893C9.09253 1.34244 11.0355 0.717307 11.6818 1.90705C11.7098 1.95826 11.7507 2.00095 11.8003 2.03072C11.8499 2.06049 11.9063 2.07628 11.9639 2.07646C11.9781 2.07646 13.3922 2.09331 14.188 3.03975C14.6725 3.61594 14.8404 4.43373 14.6871 5.47044C14.5451 6.43138 14.1589 6.99815 13.5115 7.19382V6.41265C13.5096 6.3286 13.4456 4.33594 11.5372 2.91542C11.491 2.88095 11.4365 2.85965 11.3795 2.8537C11.3224 2.84776 11.2649 2.85738 11.2127 2.88159C11.1605 2.9058 11.1156 2.94371 11.0825 2.99145C11.0495 3.0392 11.0295 3.09504 11.0246 3.15326C11.0134 3.28286 10.7133 6.32691 7.51871 6.72973L6.85014 6.73001ZM7.86482 8.55486V7.34432C10.4685 6.88982 11.3044 4.81255 11.561 3.78667C12.8086 4.95957 12.863 6.36286 12.865 6.42018V8.55495C12.861 9.22807 12.5958 9.87222 12.1274 10.3467C11.6589 10.8213 11.0253 11.0876 10.3649 11.0876C9.70445 11.0876 9.07084 10.8213 8.60242 10.3467C8.134 9.87222 7.86883 9.22797 7.86482 8.55486ZM8.77644 12.69L9.7491 13.8251L8.26476 14.9142C8.08758 14.4144 7.94402 13.9028 7.83508 13.3831L8.77644 12.69ZM9.14739 15.0783L9.00268 16.6779C8.81879 16.2974 8.65257 15.9218 8.50402 15.5509L9.14739 15.0783ZM6.46017 14.2428L7.25553 13.7586C7.39767 14.3672 7.58183 14.9648 7.80664 15.5469C7.80738 15.5491 7.80756 15.5514 7.80849 15.5536C8.13097 16.3866 8.50987 17.1956 8.94247 17.975C8.9434 17.9765 8.94441 17.9778 8.94534 17.9793C9.25667 18.5511 9.59676 19.106 9.96426 19.642C9.99421 19.6843 10.0336 19.7188 10.0792 19.7425C10.1247 19.7663 10.1752 19.7787 10.2264 19.7787C10.2776 19.7787 10.328 19.7663 10.3736 19.7425C10.4192 19.7188 10.4585 19.6843 10.4885 19.642C10.8559 19.106 11.196 18.5511 11.5073 17.9793C11.5083 17.9778 11.5094 17.9765 11.5102 17.975C11.9428 17.1956 12.3217 16.3866 12.6442 15.5536C12.6451 15.5514 12.6453 15.5491 12.6461 15.5469C12.8697 14.9677 13.0531 14.3733 13.195 13.768L13.9177 14.2278L15.3583 15.1445C15.9985 15.5504 16.5558 16.0785 16.9997 16.6997C17.8372 17.8712 19.0714 19.8645 20.1948 22.708C20.5134 23.5057 20.6093 24.3776 20.4721 25.2274C20.3348 26.0772 19.9696 26.8717 19.417 27.5232C18.6947 28.3809 17.8523 29.1251 16.9168 29.732V27.7197C16.9165 27.484 16.8563 27.2524 16.742 27.0475C16.6277 26.8426 16.4632 26.6715 16.2645 26.5508C16.4931 26.3199 16.7107 26.084 16.9123 25.8449C17.2527 25.4438 17.4567 24.9412 17.494 24.4122C17.5313 23.8833 17.3999 23.3562 17.1194 22.9095C16.5217 21.9484 15.9342 21.184 15.3721 20.6354L15.315 18.7822C15.3136 18.7389 15.3039 18.6963 15.2865 18.6569C15.269 18.6174 15.2441 18.5819 15.2131 18.5523C15.1821 18.5226 15.1458 18.4995 15.106 18.4842C15.0663 18.4689 15.024 18.4617 14.9816 18.4631C14.9391 18.4645 14.8974 18.4743 14.8587 18.4921C14.82 18.5099 14.7851 18.5353 14.756 18.5669C14.727 18.5984 14.7043 18.6355 14.6893 18.676C14.6742 18.7165 14.6672 18.7596 14.6685 18.8029L14.9017 26.3562H14.3259C14.0309 26.3565 13.7481 26.4761 13.5395 26.6887C13.3309 26.9013 13.2135 27.1895 13.2132 27.4902V29.3668H6.90592C6.73319 29.3675 6.56165 29.3378 6.39886 29.2789C5.51956 28.9575 5.49093 28.3137 5.4901 28.2907C5.4901 28.2864 5.4901 28.2823 5.4901 28.2781L5.44393 27.0617H6.18092C6.48455 27.0613 6.77565 26.9383 6.99039 26.7195C7.20513 26.5007 7.32599 26.2041 7.32645 25.8946V24.9696H7.33947C7.62995 24.9693 7.90843 24.8516 8.11384 24.6422C8.31924 24.4329 8.43479 24.1491 8.43513 23.853V23.5673C8.43479 23.2712 8.31925 22.9874 8.11384 22.778C7.90844 22.5687 7.62996 22.4509 7.33947 22.4506H7.1449C7.00613 22.2342 6.79923 22.0724 6.55824 21.9918V17.7885C6.55824 17.7843 6.55824 17.7802 6.55824 17.776C6.55519 17.6952 6.4804 15.9391 5.71329 14.697L6.46017 14.2428ZM7.32673 24.3108V23.1095H7.33975C7.45886 23.1096 7.57306 23.1579 7.65728 23.2437C7.74151 23.3296 7.78888 23.446 7.789 23.5674V23.853C7.78886 23.9744 7.74147 24.0908 7.65725 24.1766C7.57303 24.2624 7.45885 24.3107 7.33975 24.3108H7.32673ZM4.31142 15.122C4.42815 14.982 4.56122 14.857 4.70767 14.7499C4.74845 14.7191 4.79914 14.7052 4.84956 14.7109C4.89999 14.7167 4.94642 14.7416 4.97953 14.7808C5.80601 15.8137 5.90685 17.6834 5.9122 17.796V21.9356H5.10724V17.7885C5.10724 16.6907 4.60803 15.8018 4.31049 15.3696C4.28402 15.334 4.26977 15.2904 4.26994 15.2457C4.2701 15.2009 4.28468 15.1575 4.31142 15.122ZM0.816472 25.6436C1.56769 22.5235 2.62051 19.4781 3.37145 17.4727C3.54102 17.0196 3.76992 16.592 4.05193 16.2014C4.31129 16.6893 4.45151 17.2337 4.46074 17.7885V22.0353C4.28548 22.108 4.12726 22.2176 3.99647 22.357C3.86567 22.4964 3.76524 22.6623 3.70176 22.844L2.07651 24.2473C2.04378 24.275 2.0168 24.3091 1.99716 24.3476C1.97751 24.3861 1.96559 24.4282 1.96209 24.4714C1.95859 24.5146 1.96358 24.5581 1.97678 24.5994C1.98997 24.6406 2.0111 24.6787 2.03892 24.7116C2.17744 24.8699 2.43369 24.8024 2.49446 24.75L3.62364 23.7753V25.6989C3.62403 25.9523 3.6937 26.2006 3.82482 26.4159C3.95595 26.6312 4.14335 26.805 4.36599 26.9179C4.05013 27.2397 3.68422 27.5061 3.28307 27.7062C2.3793 28.1473 1.60241 28.1862 1.15159 27.8128C0.697256 27.4366 0.575269 26.646 0.816472 25.6436Z" fill="#3C3C4F"/>
<path d="M23.6957 22.2232L26.6406 20.1665C26.6406 20.1665 28.756 21.2121 28.756 24.1595C28.756 27.107 25.8309 27.107 25.8309 27.107C24.9098 25.9369 24.1017 24.6789 23.4178 23.3505C23.3215 23.1604 23.2966 22.9409 23.3477 22.7333C23.3989 22.5258 23.5226 22.3444 23.6957 22.2232Z" fill="#FCACD8"/>
<path d="M26.6405 20.1666C26.5572 21.2626 26.8678 22.3521 27.5144 23.2319C27.6835 23.4693 27.7852 23.7495 27.8084 24.0419C27.8772 24.8986 27.7419 26.5463 25.8314 27.1069C26.5914 28.093 27.4209 29.0213 28.3132 29.8845L30.5772 27.9403L28.6324 18.7754L26.6405 20.1666Z" fill="#EA7DAA"/>
<path d="M39.0244 18.0625C39.0244 18.0625 40.9457 19.2436 41.5754 22.9739C41.6912 23.6704 41.9799 24.3252 42.414 24.876C42.8096 25.3797 43.1133 25.9516 43.3108 26.5646C42.585 28.2171 39.6654 28.0485 36.5526 27.719L39.0244 18.0625Z" fill="#81A2EA"/>
<path d="M43.6203 28.2479C43.5906 27.6754 43.4861 27.1094 43.3097 26.565C40.194 27.3663 38.3019 25.8429 37.3414 24.6362L36.5523 27.7192L37.3095 31.059H40.9863C41.3432 31.0604 41.6967 30.9877 42.0251 30.8453C42.3535 30.703 42.65 30.4938 42.8965 30.2308C43.143 29.9677 43.3343 29.6563 43.4587 29.3153C43.5832 28.9744 43.6382 28.6112 43.6203 28.2479Z" fill="#81A2EA"/>
<path d="M26.2787 27.9714L26.9311 27.4972C27.1705 27.323 27.4639 27.2435 27.7566 27.2732C28.0492 27.3029 28.3214 27.44 28.5224 27.6589L29.4848 28.7065C29.5996 28.8308 29.6878 28.978 29.744 29.1388C29.8001 29.2997 29.8229 29.4706 29.8109 29.6409C29.7989 29.8111 29.7525 29.977 29.6744 30.1281C29.5963 30.2791 29.4884 30.412 29.3574 30.5183C29.2464 30.6077 29.131 30.6913 29.0116 30.7687C28.8515 30.8708 28.6665 30.925 28.4777 30.9251C28.2888 30.9252 28.1037 30.8712 27.9435 30.7692C27.2469 30.3271 26.6311 29.7649 26.1235 29.1077C26.058 29.0237 26.01 28.927 25.9823 28.8236C25.9546 28.7201 25.9478 28.6119 25.9623 28.5057C25.9768 28.3994 26.0124 28.2973 26.0667 28.2055C26.1211 28.1136 26.1932 28.034 26.2787 27.9714Z" fill="#FFD1C0"/>
<path d="M29.7121 29.551V31.0592H37.3095L37.2845 29.551C34.7645 29.3411 32.232 29.3411 29.7121 29.551Z" fill="#464659"/>
<path d="M29.8447 9.9043C29.8447 9.9043 30.5177 10.9658 28.7989 12.4098C28.7989 12.4098 27.045 13.8166 27.045 15.913C27.045 18.2561 29.6269 18.3489 29.6269 18.3489L31.8706 14.1266V10.8787L29.8447 9.9043Z" fill="#595975"/>
<path d="M29.3484 8.40916C29.3484 8.40916 27.6795 8.2797 27.5434 6.2423C27.5434 6.2423 27.1553 2.68181 30.1831 2.48395C30.1831 2.48395 30.8235 1.23781 32.7255 1.23781C32.7255 1.23781 36.84 0.97164 37.5387 4.82348C37.7253 5.8335 37.8131 6.8599 37.8008 7.8876C37.7894 8.77983 38.054 9.65306 38.557 10.3834C39.7064 12.0634 41.2902 15.3103 38.2959 17.4579H33.3649L32.9775 11.1874L29.3484 8.40916Z" fill="#595975"/>
<path d="M30.0471 15.6588C30.0471 15.6588 26.9253 19.0637 28.7862 22.4728C29.1468 23.1187 29.3621 23.8382 29.4164 24.5792C29.4891 25.6917 29.4863 26.8079 29.4079 27.9199C29.396 28.0893 29.3397 28.2523 29.2451 28.392C29.1481 28.5195 29.0938 28.6754 29.0902 28.8368C29.0866 28.9981 29.1339 29.1564 29.2252 29.2883C29.2789 29.3694 29.3514 29.4358 29.4363 29.4816C29.5212 29.5274 29.6159 29.5512 29.7119 29.5509H36.5288L38.9359 26.8684C38.9359 26.8684 40.7924 26.495 40.371 23.786C40.371 23.786 40.4619 18.3862 37.8404 15.6583L35.6501 14.3208L30.0471 15.6588Z" fill="#797996"/>
<path d="M38.2122 26.3925L30.5783 23.4092L30.5034 24.216C30.479 24.477 30.5106 24.7403 30.596 24.9876C30.6814 25.2349 30.8186 25.4603 30.998 25.6482C32.5896 27.2858 34.4648 28.6091 36.529 29.551H37.2845C37.3926 29.5529 37.5 29.5326 37.6002 29.4912C37.7005 29.4499 37.7915 29.3884 37.8679 29.3103C38.0623 29.1038 38.2061 28.7451 37.9076 28.1635L38.3506 27.6057L38.2122 26.3925Z" fill="#595975"/>
<path d="M36.8087 14.8271L32.8552 22.0189L37.4908 23.2176C37.5306 23.2278 37.5725 23.2239 37.6098 23.2065C37.647 23.1891 37.6773 23.1592 37.6956 23.1219C37.714 23.0846 37.7193 23.042 37.7107 23.0011C37.7021 22.9603 37.6801 22.9237 37.6483 22.8974C36.8813 22.2724 36.0589 21.7214 35.1917 21.2517C35.944 19.0018 37.4998 16.2345 37.8399 15.6588C37.533 15.3372 37.1864 15.0576 36.8087 14.8271Z" fill="#595975"/>
<path d="M34.1133 13.4727L35.1917 15.3149L32.6066 21.3206H31.8156C31.2165 20.005 30.7343 18.6373 30.3748 17.2339L31.2064 13.9087L34.1133 13.4727Z" fill="#CBD5EA"/>
<path d="M31.5548 16.7805C31.4914 17.6349 31.4166 18.7702 31.3406 20.2054C31.5498 20.7353 31.7167 21.1067 31.7835 21.2518L32.6849 21.1383L33.2184 19.7638L33.0639 17.3248C32.6893 16.7088 32.1641 16.6022 31.5548 16.7805Z" fill="#FF6D8D"/>
<path d="M31.5548 16.7806C31.8864 16.7744 32.5409 16.834 33.0642 17.3249L32.9006 14.7427L31.7296 14.7553C31.7296 14.7553 31.6571 15.4041 31.5548 16.7806Z" fill="#E5486E"/>
<path d="M34.3165 17.348L35.6498 14.2506L34.1133 13.4727L32.2634 15.1913L34.3165 17.348Z" fill="white"/>
<path d="M30.0471 15.6588C30.133 16.1964 30.2468 16.7262 30.3747 17.2336L32.2632 15.1912L31.8127 13.8174L31.2061 13.9084L30.0471 15.6588Z" fill="white"/>
<path d="M32.3309 19.6748C33.2224 17.7822 34.2654 15.9677 35.4493 14.2496C35.5399 14.1181 35.6724 14.0227 35.8242 13.9794C35.976 13.9361 36.1379 13.9476 36.2823 14.0121C36.5061 14.1147 36.7142 14.2496 36.9001 14.4127C37.0242 14.522 37.1058 14.6731 37.1298 14.8385C37.1539 15.0039 37.1188 15.1725 37.0312 15.3138C36.5598 16.0751 35.563 17.7147 34.6162 19.461C34.6166 19.4606 33.1722 20.6429 32.3309 19.6748Z" fill="#A1D3FF"/>
<path d="M31.2064 12.6768V13.9084C31.2064 13.9084 31.5083 14.4983 32.2634 15.1909C32.2634 15.1909 33.1318 14.742 34.1133 13.4723V12.1006L31.2064 12.6768Z" fill="#FFD1C0"/>
<path d="M34.7787 7.29004H35.2388C35.4828 7.29006 35.7168 7.38887 35.8893 7.56471C36.0618 7.74056 36.1588 7.97906 36.1588 8.22774V8.59027C36.1588 8.83895 36.0618 9.07743 35.8893 9.25326C35.7167 9.4291 35.4827 9.52788 35.2388 9.52788H34.5027L34.7787 7.29004Z" fill="#F99C9C"/>
<path d="M31.2064 12.6771C31.466 12.7329 31.7306 12.7611 31.9959 12.7613C32.7511 12.7649 33.4895 12.5346 34.1133 12.1009V10.561L31.2064 11.4716V12.6771Z" fill="#F99C9C"/>
<path d="M29.6265 7.29004H28.8905C28.6465 7.29006 28.4125 7.38887 28.24 7.56471C28.0675 7.74056 27.9705 7.97906 27.9705 8.22774V8.59027C27.9705 8.83895 28.0675 9.07743 28.24 9.25326C28.4125 9.4291 28.6465 9.52788 28.8905 9.52788H29.6265V7.29004Z" fill="#F99C9C"/>
<path d="M30.5393 3.95215C30.5393 3.95215 30.431 7.21431 34.7787 7.47514V9.20478C34.7787 9.95699 34.4855 10.6784 33.9636 11.2103C33.4418 11.7422 32.734 12.041 31.9959 12.0411C31.2579 12.041 30.5501 11.7422 30.0282 11.2103C29.5063 10.6784 29.2131 9.957 29.2131 9.20478V7.61824C29.2131 7.61824 29.3738 5.22175 30.5393 3.95215Z" fill="#FFD1C0"/>
<path d="M30.9984 24.2551C30.9984 24.2551 34.7879 27.6133 38.8507 29.3839C39.0764 29.4854 39.3302 29.5016 39.5666 29.4295C39.803 29.3575 40.0065 29.202 40.1405 28.9909C40.1457 28.9826 40.1508 28.9742 40.1557 28.9657C40.2288 28.8385 40.2752 28.6971 40.2918 28.5507C40.3084 28.4042 40.295 28.2558 40.2523 28.115C40.2097 27.9741 40.1387 27.8438 40.0439 27.7324C39.9492 27.621 39.8327 27.5309 39.702 27.4679C39.472 27.3557 39.2497 27.0233 38.9361 26.8682C37.3469 26.0821 34.7639 24.9971 32.6599 23.7896L30.9984 24.2551Z" fill="#81A2EA"/>
<path d="M34.3571 22.019L39.4149 23.8355L38.9361 26.8684L33.0245 24.8977L34.3571 22.019Z" fill="#797996"/>
<path d="M31.238 8.99778C31.0971 8.92749 30.943 8.88878 30.7862 8.88425C30.6997 8.89269 30.6134 8.86576 30.5464 8.80939C30.4794 8.75301 30.4371 8.67181 30.4288 8.58364C30.4205 8.49548 30.4469 8.40757 30.5023 8.33926C30.5576 8.27095 30.6372 8.22784 30.7237 8.2194C31.0178 8.2003 31.3108 8.26999 31.5662 8.41974C31.6034 8.44168 31.6361 8.47089 31.6623 8.50569C31.6884 8.54049 31.7076 8.58021 31.7188 8.62258C31.7299 8.66494 31.7327 8.70912 31.7271 8.7526C31.7214 8.79607 31.7074 8.83799 31.6859 8.87595C31.6395 8.94937 31.5679 9.00253 31.485 9.02505C31.4022 9.04758 31.3142 9.03785 31.238 8.99778Z" fill="#F99C9C"/>
<path d="M32.444 8.87625C32.4213 8.83858 32.4064 8.79659 32.4001 8.75285C32.3939 8.7091 32.3964 8.66452 32.4076 8.62181C32.4188 8.5791 32.4384 8.53916 32.4652 8.50443C32.4921 8.46969 32.5255 8.44088 32.5636 8.41975C32.819 8.26997 33.112 8.20028 33.4061 8.21941C33.4926 8.22789 33.5722 8.27103 33.6275 8.33936C33.6828 8.40769 33.7091 8.4956 33.7008 8.58375C33.6925 8.6719 33.6502 8.75308 33.5831 8.80942C33.5161 8.86576 33.4298 8.89264 33.3434 8.88417C33.1855 8.87942 33.0293 8.91871 32.8917 8.99779C32.8143 9.02988 32.7287 9.03537 32.6479 9.01344C32.5671 8.99151 32.4955 8.94335 32.444 8.87625Z" fill="#F99C9C"/>
<path d="M32.1143 10.9609C31.8738 10.9655 31.635 10.9193 31.4128 10.8252C31.3339 10.7892 31.2722 10.7229 31.241 10.6407C31.2099 10.5585 31.2119 10.4671 31.2466 10.3864C31.2813 10.3057 31.3459 10.2423 31.4263 10.2099C31.5067 10.1775 31.5964 10.1789 31.6758 10.2136C31.8151 10.2706 31.9643 10.2976 32.1143 10.2931C32.2808 10.2964 32.4462 10.2658 32.601 10.2033C32.6811 10.169 32.7713 10.1685 32.8518 10.202C32.9322 10.2355 32.9963 10.3002 33.03 10.3818C33.0636 10.4635 33.0641 10.5554 33.0312 10.6374C32.9984 10.7194 32.9349 10.7847 32.8548 10.819C32.6196 10.9159 32.3679 10.9641 32.1143 10.9609Z" fill="#F99C9C"/>
<path d="M34.7786 8.12111V7.29006C30.6793 7.01454 30.5391 3.95215 30.5391 3.95215C30.5391 3.95215 30.0085 8.08648 34.7786 8.12111Z" fill="#F99C9C"/>
<path d="M33.3649 21.9359C33.7299 21.1418 34.1675 20.2894 34.6166 19.4609C34.2715 19.6574 33.8898 19.7779 33.4961 19.8148C33.1024 19.8517 32.7055 19.8041 32.331 19.6751C31.8117 20.7722 31.539 21.4782 31.539 21.4782L33.3649 21.9359Z" fill="#81A2EA"/>
<path d="M32.239 21.1331L34.3571 22.0191C34.3571 22.0191 34.4881 24.0008 33.0245 24.8977L31.2538 24.375C31.0507 24.3155 30.8734 24.1876 30.7507 24.0123C30.6281 23.8369 30.5673 23.6244 30.5783 23.4093C30.6087 22.7696 30.7705 22.1436 31.0532 21.5716C31.1614 21.3608 31.3431 21.1988 31.5625 21.1177C31.782 21.0365 32.0233 21.042 32.239 21.1331Z" fill="#FFD1C0"/>
<path d="M25.9653 27.8052C25.7881 27.9773 25.673 28.2053 25.6386 28.4523C25.6177 28.6041 25.6269 28.7587 25.6659 28.9067C25.7049 29.0548 25.7727 29.1933 25.8654 29.314C26.3967 30.0021 27.0414 30.5906 27.7708 31.0532C27.9838 31.1871 28.2292 31.258 28.4795 31.2578C28.7298 31.2585 28.9751 31.1866 29.1868 31.0506C29.253 31.0078 29.319 30.9621 29.3845 30.9145V31.0592C29.3845 31.1477 29.419 31.2327 29.4804 31.2953C29.5419 31.3579 29.6252 31.3931 29.7121 31.3931H40.9863C41.3919 31.3924 41.7932 31.3076 42.1657 31.1439C42.5381 30.9802 42.874 30.7409 43.153 30.4408C43.4276 30.1476 43.6399 29.7999 43.7766 29.4193C43.9134 29.0387 43.9716 28.6335 43.9477 28.2289C43.8491 26.4926 43.1978 25.3331 42.6688 24.6663C42.2699 24.1597 42.0046 23.5577 41.898 22.9173C41.4592 20.3177 40.391 18.9009 39.7936 18.2877C39.7872 18.2812 39.7799 18.2764 39.7731 18.2705C39.6221 17.86 39.4449 17.46 39.2426 17.0732C41.4056 14.7853 39.9165 11.7872 38.825 10.1924C38.3601 9.52018 38.116 8.71515 38.1276 7.89278C38.1401 6.84303 38.0505 5.79461 37.8603 4.76284C37.1383 0.779533 32.9857 0.892393 32.7179 0.903936C31.0523 0.906608 30.2575 1.78965 29.9948 2.16515C29.1633 2.25406 28.4999 2.5935 28.0209 3.17545C27.0465 4.359 27.2018 6.12203 27.217 6.27152C27.2392 6.81686 27.4139 7.34437 27.7204 7.79194C27.6697 7.93143 27.6435 8.07897 27.6433 8.22773V8.59026C27.6437 8.92738 27.7752 9.25057 28.0091 9.48894C28.243 9.72731 28.5601 9.86139 28.8909 9.86177H28.9532C29.0449 10.3021 29.228 10.7172 29.4901 11.0795C29.3206 11.4313 29.0199 11.7909 28.5963 12.1469C28.5195 12.2085 26.7174 13.6797 26.7174 15.9124C26.7174 17.2664 27.4795 17.9546 28.1753 18.3007C28.1229 18.4627 28.0773 18.6239 28.0386 18.7844L23.5106 21.9475C23.2721 22.1151 23.1016 22.3653 23.0309 22.6516C22.9603 22.9379 22.9944 23.2406 23.1268 23.5032C23.9175 25.0376 24.8693 26.4801 25.9653 27.8052ZM29.3845 29.9742C29.328 30.0837 29.2495 30.1798 29.1541 30.2563C29.0519 30.3385 28.9457 30.4154 28.8359 30.4867C28.7276 30.555 28.6027 30.5911 28.4753 30.5909C28.3479 30.5906 28.2232 30.554 28.1151 30.4852C27.451 30.064 26.864 29.5281 26.3804 28.9016C26.3419 28.8522 26.3138 28.7953 26.2977 28.7343C26.2816 28.6734 26.2779 28.6098 26.2868 28.5473C26.2952 28.4867 26.3156 28.4284 26.3468 28.3761C26.3781 28.3238 26.4195 28.2785 26.4685 28.2431L27.121 27.769C27.296 27.6425 27.5099 27.5848 27.7234 27.6065C27.9368 27.6282 28.1354 27.7278 28.2825 27.887L28.8293 28.4821C28.7677 28.6448 28.7466 28.8206 28.768 28.9936C28.7895 29.1667 28.8527 29.3316 28.9521 29.4736C29.0568 29.6333 29.2078 29.7557 29.3841 29.8236L29.3845 29.9742ZM30.0397 30.7253V29.885H36.9623L36.9763 30.7254L30.0397 30.7253ZM37.2894 29.2167H29.7075C29.6661 29.2165 29.6253 29.2061 29.5887 29.1863C29.5521 29.1666 29.5208 29.138 29.4975 29.1032C29.2971 28.797 29.5255 28.5484 29.5973 28.4816C29.6611 28.4251 29.701 28.3457 29.7087 28.2599C29.8536 26.5701 29.8217 24.8695 29.6133 23.1866C29.605 23.1281 29.5816 23.0729 29.5454 23.0267C28.4462 21.6201 28.2287 20.0025 28.8989 18.2192C29.1426 17.5861 29.4645 16.9873 29.8568 16.4371C29.9155 16.7243 29.9823 17.0169 30.0572 17.3148V17.3169C30.372 18.538 30.7762 19.7332 31.2665 20.8926C31.0508 21.013 30.8751 21.1961 30.7618 21.4186C30.4588 22.0328 30.2847 22.7045 30.2508 23.3911C30.2386 23.6118 30.2827 23.8321 30.379 24.0302C30.4753 24.2284 30.6203 24.3977 30.8 24.5217C31.0506 24.7411 34.0885 27.3684 37.5582 29.1391C37.4774 29.19 37.3843 29.2168 37.2894 29.2166V29.2167ZM32.9723 24.5347L31.3449 24.0543C31.2126 24.0163 31.0969 23.9335 31.0169 23.8195C30.937 23.7056 30.8975 23.5672 30.905 23.4273C30.9337 22.8348 31.0832 22.2548 31.3441 21.7245C31.4153 21.5886 31.5335 21.4845 31.6758 21.4323C31.8181 21.3801 31.9742 21.3835 32.1142 21.4419L34.0299 22.2433C34.0145 22.7143 33.8807 23.8916 32.9723 24.5346V24.5347ZM37.5267 26.75L37.89 26.9332C38.5379 27.2603 39.1499 27.5691 39.5604 27.7692C39.6513 27.8137 39.7321 27.877 39.7977 27.9551C39.8634 28.0331 39.9124 28.1242 39.9416 28.2226C39.9704 28.3172 39.9793 28.4169 39.9678 28.5153C39.9562 28.6136 39.9245 28.7084 39.8746 28.7934L39.8625 28.8137C39.7695 28.9569 39.6298 29.0619 39.4681 29.11C39.3064 29.1582 39.1331 29.1464 38.9792 29.0767C36.4583 27.9779 34.0206 26.2402 32.5685 25.1108L32.9276 25.2168L37.5267 26.75ZM31.1682 18.7699C31.0202 18.3259 30.8723 17.8395 30.7381 17.3274L31.4851 16.5194C31.3853 17.1278 31.2758 17.8776 31.1685 18.7699H31.1682ZM32.2957 15.7047L32.6572 16.0844L32.781 18.0361C32.3255 18.9051 31.9654 19.6674 31.7083 20.2399C31.7083 18.8779 32.1239 16.6007 32.2959 15.7047H32.2957ZM32.2676 14.7353C31.9887 14.4603 31.7424 14.1529 31.5338 13.8194V12.3407C32.3252 12.4621 33.1321 12.2669 33.7856 11.796V13.3259L32.2676 14.7353ZM32.3632 20.8241C32.3078 20.8014 32.2509 20.7828 32.1929 20.7684C33.1682 18.5511 34.3479 16.4332 35.716 14.4432C35.7626 14.3746 35.831 14.3245 35.9097 14.3014C35.9884 14.2784 36.0725 14.2837 36.1477 14.3167C36.3427 14.4059 36.5241 14.5234 36.6861 14.6655C36.7505 14.7228 36.7926 14.8016 36.8051 14.8877C36.8175 14.9738 36.7994 15.0616 36.754 15.1353C36.096 16.1982 34.4748 18.8736 33.3343 21.2303L32.3632 20.8241ZM33.7573 16.2807L32.78 15.2542C33.3103 14.8645 33.7884 14.4059 34.2021 13.8899L35.0134 14.3007C34.5558 14.9702 34.1367 15.6377 33.7573 16.2807ZM31.9959 11.7071C31.345 11.7064 30.7209 11.4425 30.2607 10.9734C29.8004 10.5042 29.5415 9.86818 29.5408 9.20474V7.63062C29.5521 7.48751 29.693 5.89306 30.378 4.72935C30.704 5.70484 31.6616 7.3052 34.4512 7.59713V9.20474C34.4504 9.86819 34.1915 10.5042 33.7312 10.9734C33.2709 11.4425 32.6469 11.7064 31.9959 11.7071ZM31.8009 15.2045L30.5516 16.5556C30.4901 16.2756 30.4368 16.0014 30.3918 15.7352L31.2038 14.5093C31.3858 14.7556 31.5854 14.988 31.8009 15.2045ZM41.2526 23.0305C41.3781 23.7832 41.6902 24.4908 42.1593 25.0861C42.6278 25.6767 43.205 26.7079 43.2935 28.2673C43.3119 28.5811 43.2666 28.8953 43.1604 29.1904C43.0543 29.4855 42.8895 29.755 42.6765 29.9823C42.4589 30.2165 42.1969 30.4031 41.9063 30.5308C41.6158 30.6585 41.3027 30.7246 40.9863 30.7252H37.6315L37.6168 29.8366C37.8018 29.7836 37.97 29.6818 38.1042 29.5414C38.1324 29.5111 38.159 29.4793 38.1838 29.446C38.3625 29.5304 38.5419 29.6118 38.7218 29.6904C38.894 29.7655 39.0793 29.8042 39.2665 29.8041C39.4959 29.8057 39.722 29.7481 39.9236 29.6365C40.1252 29.5249 40.2957 29.363 40.4193 29.1659L40.437 29.1364C40.5331 28.9713 40.5945 28.7877 40.6173 28.5972C40.64 28.4067 40.6236 28.2134 40.5691 28.0297C40.5135 27.8424 40.4203 27.669 40.2954 27.5204C40.1704 27.3719 40.0165 27.2515 39.8434 27.1669C39.7394 27.1161 39.6218 27.058 39.4939 26.9945C40.0988 26.6571 41.0067 25.8014 40.6991 23.7622C40.6937 22.5427 40.5629 21.3271 40.3089 20.1354C40.7766 21.0414 41.0954 22.0194 41.2526 23.0305ZM37.6347 23.0389C37.4312 21.3383 37.1881 20.4631 37.1778 20.4267C37.153 20.3426 37.0967 20.2718 37.0211 20.2296C36.9455 20.1875 36.8566 20.1774 36.7737 20.2016C36.6909 20.2258 36.6207 20.2823 36.5784 20.3588C36.5361 20.4354 36.5252 20.5258 36.5479 20.6106C36.7092 21.2601 36.8318 21.919 36.915 22.5836L33.9417 21.4845C35.0418 19.2188 36.5872 16.6587 37.2621 15.5659C40.1019 18.0178 40.0441 23.7212 40.0432 23.78C40.0429 23.7994 40.0442 23.8188 40.0472 23.8379C40.3693 25.9089 39.2485 26.4205 38.9448 26.5199L33.7114 24.7752C34.436 24.0517 34.6275 23.0697 34.6739 22.4867L37.2003 23.394C37.2528 23.4101 37.3083 23.4129 37.3621 23.4022C37.4158 23.3915 37.4663 23.3677 37.509 23.3328C37.5517 23.2978 37.5855 23.2528 37.6074 23.2016C37.6293 23.1505 37.6387 23.0946 37.6347 23.0389ZM28.8856 9.19415C28.7295 9.1926 28.5803 9.12836 28.4704 9.01539C28.3605 8.90242 28.2987 8.74983 28.2985 8.59074V8.22821C28.2987 8.06911 28.3605 7.91651 28.4704 7.80352C28.5803 7.69054 28.7295 7.62628 28.8856 7.6247V9.19415ZM28.9639 6.95622C28.9639 6.95622 28.4509 6.94744 28.1359 7.21781C27.9764 6.90908 27.8857 6.56828 27.8703 6.21972C27.8703 6.21495 27.8696 6.21018 27.869 6.20541C27.8673 6.18948 27.7046 4.59865 28.5229 3.60466C28.9139 3.12947 29.4795 2.86454 30.2039 2.81722C30.2595 2.81315 30.3132 2.7949 30.36 2.76414C30.4069 2.73338 30.4454 2.6911 30.472 2.6412C30.4953 2.5976 31.0621 1.57175 32.7254 1.57175C32.7319 1.57175 32.7392 1.57175 32.7457 1.57108C32.9016 1.56154 36.5798 1.37532 37.2164 4.88419C37.3986 5.87256 37.4845 6.87688 37.4727 7.88248C37.4587 8.845 37.7441 9.78732 38.2878 10.5744C39.2396 11.9656 40.5437 14.5383 38.894 16.4722C38.5102 15.8588 38.0253 15.3177 37.4606 14.8727C37.4521 14.7363 37.4171 14.603 37.3575 14.4805C37.298 14.358 37.2151 14.2488 37.1137 14.1593C36.9039 13.9753 36.6692 13.8232 36.4167 13.7076C36.2642 13.6387 36.0973 13.6097 35.931 13.623C35.7648 13.6363 35.6044 13.6916 35.4643 13.7839L34.441 13.2658L34.4196 11.1889C34.7253 10.8026 34.9373 10.3483 35.0386 9.86282H35.2388C35.5695 9.86244 35.8866 9.72836 36.1205 9.48999C36.3544 9.25162 36.486 8.92843 36.4864 8.59131V8.22878C36.4864 6.89182 34.7922 6.95727 34.7922 6.95727C31.0606 6.70131 30.8726 4.04895 30.8664 3.93571C30.8632 3.87025 30.8411 3.80722 30.8029 3.75447C30.7647 3.70172 30.7122 3.66159 30.6518 3.63907C30.5914 3.61655 30.5259 3.61264 30.4633 3.62783C30.4007 3.64302 30.344 3.67663 30.3 3.72449C29.4418 4.65895 29.0967 6.12117 28.9639 6.95622ZM35.1064 9.19444V7.62403C35.1064 7.62403 35.8312 7.62403 35.8312 8.22773V8.59026C35.831 8.75033 35.7685 8.90378 35.6574 9.01695C35.5464 9.13013 35.3958 9.19379 35.2388 9.19396L35.1064 9.19444ZM27.3727 15.9129C27.3727 14.0096 28.9856 12.685 29.0073 12.6674C29.3801 12.3665 29.7014 12.0046 29.958 11.5965C30.2304 11.8381 30.542 12.0296 30.8788 12.1624V13.8899C30.8788 13.8899 29.0731 16.0016 28.4102 17.6735C27.7219 17.311 27.3727 16.72 27.3727 15.9129ZM23.8812 22.4986L27.8887 19.6994C27.7774 21.0227 28.1426 22.2683 28.9767 23.369C29.1474 24.835 29.185 26.314 29.0891 27.787L28.7615 27.4306C28.5057 27.1537 28.1603 26.9804 27.789 26.9426C27.4177 26.9049 27.0456 27.0053 26.7412 27.2253L26.4923 27.4065C25.4173 26.111 24.4842 24.6999 23.7095 23.1982C23.6497 23.0802 23.6341 22.9442 23.6657 22.8154C23.6973 22.6866 23.7738 22.574 23.8809 22.4986H23.8812Z" fill="#3C3C4F"/>
</g>
<defs>
<clipPath id="clip0_20084_526">
<rect width="44" height="32" fill="white"/>
</clipPath>
</defs>
</svg>
