<svg width="471" height="377" viewBox="0 0 471 377" fill="none" xmlns="http://www.w3.org/2000/svg">
<path d="M327.268 13.5858C377.835 28.3131 443.332 34.2881 465.305 82.1871C487.458 130.479 435.015 180.512 428.01 233.198C421.268 283.905 457.833 343.387 425.327 382.872C392.955 422.193 330.301 409.706 279.548 413.531C235.868 416.823 191.019 422.903 151.754 403.49C113.26 384.458 93.0865 344.516 68.5841 309.231C41.2956 269.935 3.23576 234.355 1.09793 186.539C-1.18107 135.565 19.8919 83.1283 56.9056 48.0219C92.7508 14.0238 145.346 9.50509 194.328 3.26634C239.529 -2.49091 283.525 0.845765 327.268 13.5858Z" fill="#E4E4E4"/>
</svg>
