<svg width="141" height="140" viewBox="0 0 141 140" fill="none" xmlns="http://www.w3.org/2000/svg">
<path d="M53.3794 0C60.8276 2.97874 66.2315 7.58018 65.9677 16.4383C65.8607 20.0335 64.6957 23.2921 62.019 25.8771C54.1122 33.515 46.8417 41.8123 38.161 48.9338C44.634 57.1937 51.9966 64.5699 59.5309 71.7525C64.6003 76.5849 66.2782 82.467 64.6475 88.8627C63.054 95.1138 58.1525 98.4577 51.8584 99.685C47.8822 100.46 44.0169 99.7774 41.1838 97.0939C28.1523 84.7479 15.858 71.6595 3.69425 58.4633C1.82273 56.4326 1.20014 53.2443 0 50.5917V47.6729C1.44642 41.5125 5.68371 37.3306 10.0542 33.1817C18.3346 25.3217 26.6302 17.4715 34.6939 9.39091C38.5291 5.5472 42.4021 1.9427 47.5564 -5.34058e-05L53.3794 0Z" fill="#F55C38"/>
<path d="M137.95 82.252C126.042 69.5111 114.188 56.7136 101.968 44.2807C96.1863 38.3942 85.9346 38.9331 80.3782 44.6249C74.5311 50.6127 74.4652 59.1711 79.8406 65.8456C86.2527 73.8168 93.8606 80.6046 101.019 87.8284C103.174 90.0009 103.125 91.1585 100.947 93.1666C93.9484 99.6289 87.1249 106.29 80.2301 112.868C76.8074 116.13 74.7998 120.336 75.0796 124.84C75.48 131.285 78.9521 136.381 85.0899 138.823C91.2935 141.288 96.8993 139.801 101.759 135.11C113.031 124.231 124.424 113.475 135.701 102.601C138.899 99.5188 140.616 95.6317 141 91.0484C140.61 87.9546 140.199 84.6609 137.95 82.2518" fill="#F55C38"/>
</svg>
