<svg width="133" height="140" viewBox="0 0 133 140" fill="none" xmlns="http://www.w3.org/2000/svg">
<path d="M133 125.871C132.88 125.992 132.903 126.145 132.898 126.294C132.88 127.984 132.403 129.567 131.726 131.09C130.568 133.713 128.775 135.826 126.412 137.432C124.619 138.649 122.641 139.429 120.496 139.772C119.5 139.93 118.503 139.995 117.498 139.995C106.75 139.99 96.0055 139.99 85.2569 140C84.3813 140 83.501 139.949 82.6485 139.823C81.5737 139.67 80.5127 139.35 79.4888 138.941C77.6309 138.194 75.9724 137.135 74.5547 135.742C73.0489 134.266 71.886 132.543 71.0984 130.574C70.195 128.318 69.8753 125.964 70.1023 123.559C70.3849 120.555 71.4922 117.862 73.4103 115.513C75.2681 113.247 77.5893 111.664 80.3598 110.744C81.5459 110.354 82.7643 110.145 84.0153 110.052C85.0623 109.973 86.1001 109.983 87.1379 109.983C92.2435 109.974 97.3445 109.978 102.45 109.978C103.177 109.978 103.14 110.048 103.14 109.282V67.9591C103.14 67.2023 103.14 67.1975 102.376 67.1975C96.5291 67.1975 90.6776 67.1929 84.8307 67.1975C81.6107 67.2022 78.7151 66.2133 76.1391 64.3189C73.262 62.2017 71.3903 59.3742 70.4822 55.9105C70.0374 54.2158 69.9355 52.4793 70.1069 50.7521C70.4173 47.6088 71.6173 44.8277 73.6929 42.4226C74.9299 40.9925 76.38 39.8456 78.0387 38.9681C79.6092 38.1324 81.2911 37.6124 83.0609 37.3802C83.7651 37.2874 84.4693 37.2735 85.1735 37.2735C96.0704 37.2735 106.967 37.2781 117.86 37.2688C119.703 37.2642 121.487 37.5334 123.215 38.1742C125.143 38.8892 126.848 39.9525 128.339 41.3733C130.193 43.1283 131.504 45.2177 132.291 47.6413C132.63 48.6674 132.889 49.712 132.898 50.8077C132.898 50.9378 132.884 51.0724 133 51.1699V125.871Z" fill="#F89D0E"/>
<path d="M49.0961 -4.57764e-05C49.1749 0.0974579 49.2907 0.092804 49.4019 0.102089C51.8296 0.269234 54.0442 1.07719 56.0828 2.38652C58.4271 3.89085 60.2108 5.91054 61.4339 8.40847C62.2169 10.0103 62.6848 11.705 62.8655 13.4879C63.1203 15.9719 62.7728 18.3537 61.8369 20.652C61.23 22.147 60.3961 23.5075 59.349 24.7425C57.9498 26.3908 56.2634 27.649 54.3222 28.5637C52.6728 29.3391 50.9401 29.7801 49.1193 29.924C48.0398 30.0123 46.965 29.9938 45.8855 29.9938C40.7845 30.0077 35.6789 29.9984 30.5733 30.0031C29.8228 30.0031 29.8737 29.9334 29.8737 30.6856V72.1197C29.8737 72.1568 29.8691 72.1986 29.8737 72.2357C29.8784 72.779 29.8784 72.7836 30.4297 72.7836H47.3078C47.8267 72.7836 48.3502 72.7697 48.8691 72.7929C50.6158 72.8672 52.2883 73.285 53.8913 73.9676C56.0364 74.8822 57.8618 76.2473 59.3722 78.0162C60.9984 79.9199 62.0872 82.1068 62.6107 84.5629C62.8748 85.7887 63.0045 87.0284 62.9442 88.282C62.7914 91.5367 61.7582 94.4803 59.715 97.0432C58.1908 98.9562 56.3237 100.433 54.0859 101.431C52.7377 102.034 51.3293 102.42 49.8606 102.606C49.0406 102.708 48.2251 102.708 47.4097 102.708C36.6796 102.712 25.9542 102.703 15.2241 102.717C13.4775 102.722 11.7818 102.513 10.1278 101.942C7.49623 101.036 5.28629 99.5226 3.48404 97.3915C2.22849 95.9057 1.31115 94.2342 0.699591 92.3956C0.259454 91.0631 0.00464207 89.6934 0.0092751 88.282C0.0092751 87.9477 0.00463755 87.6086 0.00463755 87.2744C0.00463755 63.3258 0.00463302 39.3818 0 15.4333C0 14.0311 0.0695157 12.6429 0.426259 11.2778C1.04245 8.92381 2.14509 6.84377 3.76201 5.02836C5.53646 3.03187 7.6862 1.61579 10.2066 0.770767C11.3 0.403969 12.4211 0.129936 13.584 0.0974426C13.6952 0.0927963 13.8064 0.0928116 13.8898 -4.57764e-05H49.0961Z" fill="#F89D0E"/>
</svg>
