<svg width="67" height="48" viewBox="0 0 67 48" fill="none" xmlns="http://www.w3.org/2000/svg">
<g id="reshot-icon-search-time-schedule-YKN4SVFGAU">
<g id="Group">
<g id="Group_2">
<g id="Group_3">
<path id="Vector" d="M33.0366 44.16C24.6558 44.16 17.8398 37.344 17.8398 28.9632C17.8398 20.5824 24.6558 13.7664 33.0366 13.7664C41.4174 13.7664 48.2334 20.5824 48.2334 28.9632C48.2334 37.344 41.4174 44.16 33.0366 44.16Z" fill="#83E1E5"/>
</g>
</g>
<g id="Group_4">
<g id="Group_5">
<g id="Group_6">
<path id="Vector_2" d="M16.5634 20.8897C16.4866 20.8897 16.4098 20.8705 16.3426 20.8321C16.1122 20.7073 16.0162 20.4193 16.141 20.1889C17.917 16.7713 20.6626 13.9969 24.061 12.1729C24.2914 12.0481 24.589 12.1345 24.7138 12.3649C24.8386 12.5953 24.7522 12.8929 24.5218 13.0177C21.2962 14.7457 18.6946 17.3857 17.005 20.6305C16.8994 20.7937 16.7362 20.8897 16.5634 20.8897Z" fill="#1C1D21"/>
</g>
</g>
<g id="Group_7">
<g id="Group_8">
<path id="Vector_3" d="M33.0368 48.0001C22.5344 48.0001 14 39.4561 14 28.9633C14 27.4081 14.192 25.8625 14.5568 24.3745C14.624 24.1153 14.8832 23.9617 15.1424 24.0193C15.4016 24.0865 15.5552 24.3457 15.4976 24.6049C15.1424 26.0257 14.9696 27.4849 14.9696 28.9633C14.96 38.9281 23.072 47.0401 33.0368 47.0401C43.0016 47.0401 51.1136 38.9281 51.1136 28.9633C51.1136 19.4497 43.6832 11.5201 34.1984 10.9249C33.8144 10.8961 33.4208 10.8865 33.0368 10.8865C32.768 10.8865 32.5568 10.6753 32.5568 10.4065C32.5568 10.1377 32.768 9.92651 33.0368 9.92651C33.4496 9.92651 33.8624 9.93611 34.2656 9.96491C39.0848 10.2721 43.5776 12.3841 46.8992 15.9169C50.24 19.4593 52.0736 24.0961 52.0736 28.9729C52.0736 39.4561 43.5392 48.0001 33.0368 48.0001Z" fill="#1C1D21"/>
</g>
</g>
<g id="Group_9">
<g id="Group_10">
<path id="Vector_4" d="M29.2061 11.2802C28.9853 11.2802 28.7837 11.1266 28.7357 10.8962C28.6781 10.637 28.8509 10.3778 29.1101 10.3298C29.7245 10.205 30.3581 10.0994 30.9917 10.0322C31.2509 10.0034 31.4909 10.1954 31.5197 10.4546C31.5485 10.7138 31.3565 10.9538 31.0973 10.9826C30.5021 11.0498 29.8973 11.1458 29.3117 11.261C29.2733 11.2706 29.2445 11.2802 29.2061 11.2802Z" fill="#1C1D21"/>
</g>
</g>
</g>
<g id="Group_11">
<g id="Group_12">
<path id="Vector_5" d="M35.4174 11.0303C35.3982 11.0303 35.379 11.0303 35.3598 11.0303C33.8238 10.8383 32.2494 10.8383 30.7134 11.0303C30.579 11.0495 30.435 11.0015 30.339 10.9151C30.2334 10.8287 30.1758 10.6943 30.1758 10.5503V6.78713C30.1758 6.51833 30.387 6.30713 30.6558 6.30713H35.427C35.6958 6.30713 35.907 6.51833 35.907 6.78713V10.5503C35.907 10.6847 35.8494 10.8191 35.7438 10.9151C35.6478 10.9919 35.5326 11.0303 35.4174 11.0303ZM31.1358 7.26713V10.0127C32.403 9.88793 33.6798 9.88793 34.947 10.0127V7.26713H31.1358Z" fill="#1C1D21"/>
</g>
</g>
<g id="Group_13">
<g id="Group_14">
<path id="Vector_6" d="M36.6176 0.47998H29.4464C28.3904 0.47998 27.5264 1.34398 27.5264 2.39998V4.86718C27.5264 5.92318 28.3904 6.78718 29.4464 6.78718H36.6176C37.6736 6.78718 38.5376 5.92318 38.5376 4.86718V2.39998C38.5376 1.34398 37.6832 0.47998 36.6176 0.47998Z" fill="#AAB1BA"/>
</g>
</g>
<g id="Group_15">
<g id="Group_16">
<path id="Vector_7" d="M36.6181 7.2672H29.4469C28.1221 7.2672 27.0469 6.192 27.0469 4.8672V2.4C27.0469 1.0752 28.1221 0 29.4469 0H36.6181C37.9429 0 39.0181 1.0752 39.0181 2.4V4.8672C39.0181 6.192 37.9429 7.2672 36.6181 7.2672ZM29.4565 0.96C28.6597 0.96 28.0165 1.6032 28.0165 2.4V4.8672C28.0165 5.664 28.6597 6.3072 29.4565 6.3072H36.6277C37.4245 6.3072 38.0677 5.664 38.0677 4.8672V2.4C38.0677 1.6032 37.4245 0.96 36.6277 0.96H29.4565Z" fill="#1C1D21"/>
</g>
</g>
<g id="Group_17">
<g id="Group_18">
<g id="Group_19">
<g id="Group_20">
<path id="Vector_8" d="M33.0376 14.7648C32.7688 14.7648 32.5576 14.5536 32.5576 14.2848V13.1616C32.5576 12.8928 32.7688 12.6816 33.0376 12.6816C33.3064 12.6816 33.5176 12.8928 33.5176 13.1616V14.2848C33.5176 14.544 33.3064 14.7648 33.0376 14.7648Z" fill="#1C1D21"/>
</g>
</g>
<g id="Group_21">
<g id="Group_22">
<path id="Vector_9" d="M33.0376 45.2448C32.7688 45.2448 32.5576 45.0336 32.5576 44.7648V43.6416C32.5576 43.3728 32.7688 43.1616 33.0376 43.1616C33.3064 43.1616 33.5176 43.3728 33.5176 43.6416V44.7648C33.5176 45.024 33.3064 45.2448 33.0376 45.2448Z" fill="#1C1D21"/>
</g>
</g>
</g>
<g id="Group_23">
<g id="Group_24">
<g id="Group_25">
<path id="Vector_10" d="M43.4146 19.0561C43.2898 19.0561 43.165 19.0081 43.0786 18.9121C42.8866 18.7201 42.8866 18.4225 43.0786 18.2305L43.8754 17.4433C44.0674 17.2513 44.365 17.2513 44.557 17.4433C44.749 17.6353 44.749 17.9329 44.557 18.1249L43.7602 18.9121C43.6642 19.0177 43.5394 19.0561 43.4146 19.0561Z" fill="#1C1D21"/>
</g>
</g>
<g id="Group_26">
<g id="Group_27">
<path id="Vector_11" d="M21.8628 40.6081C21.738 40.6081 21.6132 40.5601 21.5268 40.4641C21.3348 40.2721 21.3348 39.9745 21.5268 39.7825L22.314 38.9953C22.506 38.8033 22.8036 38.8033 22.9956 38.9953C23.1876 39.1873 23.1876 39.4849 22.9956 39.6769L22.2084 40.4641C22.1124 40.5697 21.9876 40.6081 21.8628 40.6081Z" fill="#1C1D21"/>
</g>
</g>
</g>
<g id="Group_28">
<g id="Group_29">
<g id="Group_30">
<path id="Vector_12" d="M48.8386 29.4432H47.7154C47.4466 29.4432 47.2354 29.232 47.2354 28.9632C47.2354 28.6944 47.4466 28.4832 47.7154 28.4832H48.8386C49.1074 28.4832 49.3186 28.6944 49.3186 28.9632C49.3186 29.2224 49.0978 29.4432 48.8386 29.4432Z" fill="#1C1D21"/>
</g>
</g>
<g id="Group_31">
<g id="Group_32">
<path id="Vector_13" d="M18.3591 29.4432H17.2359C16.9671 29.4432 16.7559 29.232 16.7559 28.9632C16.7559 28.6944 16.9671 28.4832 17.2359 28.4832H18.3591C18.6279 28.4832 18.8391 28.6944 18.8391 28.9632C18.8391 29.2224 18.6183 29.4432 18.3591 29.4432Z" fill="#1C1D21"/>
</g>
</g>
</g>
<g id="Group_33">
<g id="Group_34">
<g id="Group_35">
<path id="Vector_14" d="M44.2114 40.6081C44.0866 40.6081 43.9618 40.5601 43.8754 40.4641L43.0786 39.6769C42.8866 39.4849 42.8866 39.1873 43.0786 38.9953C43.2706 38.8033 43.5682 38.8033 43.7602 38.9953L44.557 39.7825C44.749 39.9745 44.749 40.2721 44.557 40.4641C44.4514 40.5697 44.3362 40.6081 44.2114 40.6081Z" fill="#1C1D21"/>
</g>
</g>
<g id="Group_36">
<g id="Group_37">
<path id="Vector_15" d="M22.6598 19.0561C22.535 19.0561 22.4102 19.0081 22.3238 18.9121L21.5366 18.1249C21.3446 17.9329 21.3446 17.6353 21.5366 17.4433C21.7286 17.2513 22.0262 17.2513 22.2182 17.4433L23.0054 18.2305C23.1974 18.4225 23.1974 18.7201 23.0054 18.9121C22.8998 19.0177 22.7846 19.0561 22.6598 19.0561Z" fill="#1C1D21"/>
</g>
</g>
</g>
</g>
<g id="Group_38">
<g id="Group_39">
<path id="Vector_16" d="M33.0366 23.76C32.7678 23.76 32.5566 23.5488 32.5566 23.28V17.7888C32.5566 17.52 32.7678 17.3088 33.0366 17.3088C33.3054 17.3088 33.5166 17.52 33.5166 17.7888V23.28C33.5166 23.5488 33.3054 23.76 33.0366 23.76Z" fill="#1C1D21"/>
</g>
</g>
<g id="Group_40">
<g id="Group_41">
<path id="Vector_17" d="M27.3535 29.4432H22.9087C22.6399 29.4432 22.4287 29.232 22.4287 28.9632C22.4287 28.6944 22.6399 28.4832 22.9087 28.4832H27.3535C27.6223 28.4832 27.8335 28.6944 27.8335 28.9632C27.8335 29.2224 27.6223 29.4432 27.3535 29.4432Z" fill="#1C1D21"/>
</g>
</g>
<g id="Group_42">
<g id="Group_43">
<g id="Group_44">
<path id="Vector_18" d="M30.2241 7.2672C29.9553 7.2672 29.7441 7.056 29.7441 6.7872V0.48C29.7441 0.2112 29.9553 0 30.2241 0C30.4929 0 30.7041 0.2112 30.7041 0.48V6.7872C30.7041 7.0464 30.4833 7.2672 30.2241 7.2672Z" fill="#1C1D21"/>
</g>
</g>
<g id="Group_45">
<g id="Group_46">
<path id="Vector_19" d="M33.0366 7.2672C32.7678 7.2672 32.5566 7.056 32.5566 6.7872V0.48C32.5566 0.2112 32.7678 0 33.0366 0C33.3054 0 33.5166 0.2112 33.5166 0.48V6.7872C33.5166 7.0464 33.3054 7.2672 33.0366 7.2672Z" fill="#1C1D21"/>
</g>
</g>
<g id="Group_47">
<g id="Group_48">
<path id="Vector_20" d="M35.8501 7.2672C35.5813 7.2672 35.3701 7.056 35.3701 6.7872V0.48C35.3701 0.2112 35.5813 0 35.8501 0C36.1189 0 36.3301 0.2112 36.3301 0.48V6.7872C36.3301 7.0464 36.1189 7.2672 35.8501 7.2672Z" fill="#1C1D21"/>
</g>
</g>
</g>
<g id="Group_49">
<g id="Group_50">
<path id="Vector_21" d="M36.5027 24.0289L35.9843 24.5473C35.7635 24.7681 35.4371 24.8257 35.1587 24.6913C34.9667 24.5953 34.7651 24.5089 34.5635 24.4417C34.2755 24.3457 34.0739 24.0673 34.0739 23.7601V23.0209C34.0739 22.6177 33.7475 22.2913 33.3443 22.2913H32.7203C32.3171 22.2913 31.9907 22.6177 31.9907 23.0209V23.7601C31.9907 24.0673 31.7987 24.3457 31.5011 24.4417C31.2995 24.5089 31.0979 24.5953 30.9059 24.6913C30.6275 24.8257 30.3011 24.7681 30.0803 24.5473L29.5619 24.0289C29.2739 23.7409 28.8227 23.7409 28.5347 24.0289L28.0931 24.4705C27.8051 24.7585 27.8051 25.2097 28.0931 25.4977L28.6115 26.0161C28.8323 26.2369 28.8899 26.5633 28.7555 26.8417C28.6595 27.0337 28.5731 27.2353 28.5059 27.4369C28.4099 27.7249 28.1315 27.9265 27.8243 27.9265H27.0851C26.6819 27.9265 26.3555 28.2529 26.3555 28.6561V29.2801C26.3555 29.6833 26.6819 30.0097 27.0851 30.0097H27.8243C28.1315 30.0097 28.4099 30.2017 28.5059 30.4993C28.5731 30.7009 28.6595 30.9025 28.7555 31.0945C28.8899 31.3729 28.8323 31.6993 28.6115 31.9201L28.0931 32.4385C27.8051 32.7265 27.8051 33.1777 28.0931 33.4657L28.5347 33.9073C28.8227 34.1953 29.2739 34.1953 29.5619 33.9073L30.0803 33.3889C30.3011 33.1681 30.6275 33.1105 30.9059 33.2449C31.0979 33.3409 31.2995 33.4273 31.5011 33.4945C31.7891 33.5905 31.9907 33.8689 31.9907 34.1761V34.9153C31.9907 35.3185 32.3171 35.6449 32.7203 35.6449H33.3443C33.7475 35.6449 34.0739 35.3185 34.0739 34.9153V34.1761C34.0739 33.8689 34.2659 33.5905 34.5635 33.4945C34.7651 33.4273 34.9667 33.3409 35.1587 33.2449C35.4371 33.1105 35.7635 33.1681 35.9843 33.3889L36.5027 33.9073C36.7907 34.1953 37.2419 34.1953 37.5299 33.9073L37.9715 33.4657C38.2595 33.1777 38.2595 32.7265 37.9715 32.4385L37.4531 31.9201C37.2323 31.6993 37.1747 31.3729 37.3091 31.0945C37.4051 30.9025 37.4915 30.7009 37.5587 30.4993C37.6547 30.2113 37.9331 30.0097 38.2403 30.0097H38.9795C39.3827 30.0097 39.7091 29.6833 39.7091 29.2801V28.6561C39.7091 28.2529 39.3827 27.9265 38.9795 27.9265H38.2403C37.9331 27.9265 37.6547 27.7345 37.5587 27.4369C37.4915 27.2353 37.4051 27.0337 37.3091 26.8417C37.1747 26.5633 37.2323 26.2369 37.4531 26.0161L37.9715 25.4977C38.2595 25.2097 38.2595 24.7585 37.9715 24.4705L37.5299 24.0289C37.2419 23.7409 36.7907 23.7409 36.5027 24.0289ZM34.6019 30.5281C33.7379 31.3921 32.3363 31.3921 31.4723 30.5281C30.6083 29.6641 30.6083 28.2625 31.4723 27.3985C32.3363 26.5345 33.7379 26.5345 34.6019 27.3985C35.4659 28.2625 35.4659 29.6641 34.6019 30.5281Z" fill="#FDDF7F"/>
</g>
</g>
<g id="Group_51">
<g id="Group_52">
<path id="Vector_22" d="M33.3438 36.1056H32.7198C32.0574 36.1056 31.5102 35.568 31.5102 34.896V34.1568C31.5102 34.0512 31.443 33.9552 31.3566 33.9264C31.1358 33.8496 30.915 33.7632 30.6942 33.6576C30.6078 33.6192 30.4926 33.6384 30.4254 33.7056L29.907 34.224C29.6766 34.4544 29.379 34.5792 29.0526 34.5792C28.7262 34.5792 28.4286 34.4544 28.1982 34.224L27.7566 33.7824C27.2862 33.312 27.2862 32.544 27.7566 32.0736L28.275 31.5552C28.3518 31.4784 28.371 31.3728 28.323 31.2864C28.2174 31.0752 28.1214 30.8544 28.0542 30.624C28.0254 30.528 27.9294 30.4704 27.8238 30.4704H27.0846C26.4222 30.4704 25.875 29.9328 25.875 29.2608V28.6368C25.875 27.9744 26.4126 27.4272 27.0846 27.4272H27.8238C27.9294 27.4272 28.0254 27.36 28.0542 27.2736C28.131 27.0528 28.2174 26.832 28.323 26.6112C28.3614 26.5248 28.3422 26.4096 28.275 26.3424L27.7566 25.824C27.2862 25.3536 27.2862 24.5856 27.7566 24.1152L28.1982 23.6736C28.4286 23.4432 28.7262 23.3184 29.0526 23.3184C29.379 23.3184 29.6766 23.4432 29.907 23.6736L30.4254 24.192C30.5022 24.2688 30.6078 24.288 30.6942 24.24C30.9054 24.1344 31.1262 24.0384 31.3566 23.9712C31.4526 23.9424 31.5102 23.8464 31.5102 23.7408V23.0016C31.5102 22.3392 32.0478 21.792 32.7198 21.792H33.3438C34.0062 21.792 34.5534 22.3296 34.5534 23.0016V23.7408C34.5534 23.8464 34.6206 23.9424 34.707 23.9712C34.9278 24.048 35.1486 24.1344 35.3694 24.24C35.4558 24.2784 35.571 24.2592 35.6382 24.192L36.1566 23.6736C36.627 23.2032 37.395 23.2032 37.8654 23.6736L38.307 24.1152C38.5374 24.3456 38.6622 24.6432 38.6622 24.9696C38.6622 25.296 38.5374 25.5936 38.307 25.824L37.7886 26.3424C37.7118 26.4192 37.6926 26.5248 37.7406 26.6112C37.8462 26.8224 37.9326 27.0432 38.0094 27.2736C38.0382 27.3696 38.1342 27.4272 38.2398 27.4272H38.979C39.6414 27.4272 40.1886 27.9648 40.1886 28.6368V29.2608C40.1886 29.5872 40.0638 29.8848 39.8334 30.1152C39.603 30.3456 39.3054 30.4704 38.979 30.4704H38.2398C38.1342 30.4704 38.0382 30.5376 38.0094 30.624C37.9326 30.8448 37.8462 31.0656 37.7406 31.2864C37.7022 31.3728 37.7214 31.488 37.7886 31.5552L38.307 32.0736C38.5374 32.304 38.6622 32.6016 38.6622 32.928C38.6622 33.2544 38.5374 33.552 38.307 33.7824L37.8654 34.224C37.395 34.6944 36.627 34.6944 36.1566 34.224L35.6382 33.7056C35.5614 33.6288 35.4558 33.6096 35.3694 33.6576C35.1582 33.7632 34.9374 33.8592 34.707 33.9264C34.611 33.9552 34.5534 34.0512 34.5534 34.1568V34.896C34.5534 35.568 34.0158 36.1056 33.3438 36.1056ZM30.6078 32.6784C30.7902 32.6784 30.963 32.7168 31.1358 32.8032C31.3086 32.8896 31.491 32.9664 31.6734 33.024C32.163 33.1872 32.4894 33.648 32.4894 34.1664V34.9056C32.4894 35.04 32.6046 35.1552 32.739 35.1552H33.363C33.4974 35.1552 33.6126 35.04 33.6126 34.9056V34.1664C33.6126 33.648 33.939 33.1872 34.4286 33.024C34.611 32.9664 34.7934 32.8896 34.9662 32.8032C35.427 32.5728 35.9742 32.6688 36.3486 33.0336L36.867 33.552C36.963 33.648 37.1166 33.648 37.2126 33.552L37.6542 33.1104C37.7022 33.0624 37.731 33.0048 37.731 32.9376C37.731 32.8704 37.7022 32.8128 37.6542 32.7648L37.1358 32.2464C36.771 31.8816 36.675 31.3248 36.9054 30.864C36.9918 30.6912 37.0686 30.5088 37.1262 30.3264C37.2894 29.8368 37.7502 29.5104 38.2686 29.5104H39.0078C39.075 29.5104 39.1326 29.4816 39.1806 29.4336C39.2286 29.3856 39.2574 29.328 39.2574 29.2608V28.6368C39.2574 28.5024 39.1422 28.3872 39.0078 28.3872H38.2686C37.7502 28.3872 37.2894 28.0608 37.1262 27.5712C37.0686 27.3888 36.9918 27.2064 36.9054 27.0336C36.675 26.5728 36.771 26.0256 37.1358 25.6512L37.6542 25.1328C37.7022 25.0848 37.731 25.0272 37.731 24.96C37.731 24.8928 37.7022 24.8352 37.6542 24.7872L37.2126 24.3456C37.1166 24.2496 36.963 24.2496 36.867 24.3456L36.3486 24.864C35.9838 25.2288 35.427 25.3248 34.9662 25.0944C34.7934 25.008 34.611 24.9312 34.4286 24.8736C33.939 24.7104 33.6126 24.2496 33.6126 23.7312V22.992C33.6126 22.8576 33.4974 22.7424 33.363 22.7424H32.739C32.6046 22.7424 32.4894 22.8576 32.4894 22.992V23.7312C32.4894 24.2496 32.163 24.7104 31.6734 24.8736C31.491 24.9312 31.3086 25.008 31.1358 25.0944C30.675 25.3248 30.1278 25.2288 29.7534 24.864L29.235 24.3456C29.139 24.2496 28.9758 24.2496 28.8894 24.3456L28.4478 24.7872C28.3518 24.8832 28.3518 25.0368 28.4478 25.1328L28.9662 25.6512C29.331 26.016 29.427 26.5728 29.1966 27.0336C29.1102 27.2064 29.0334 27.3888 28.9758 27.5712C28.8126 28.0608 28.3518 28.3872 27.8334 28.3872H27.0942C26.9598 28.3872 26.8446 28.5024 26.8446 28.6368V29.2608C26.8446 29.3952 26.9598 29.5104 27.0942 29.5104H27.8334C28.3518 29.5104 28.8126 29.8368 28.9758 30.3264C29.0334 30.5088 29.1102 30.6912 29.1966 30.864C29.427 31.3248 29.331 31.872 28.9662 32.2464L28.4478 32.7648C28.3518 32.8608 28.3518 33.0144 28.4478 33.1104L28.8894 33.552C28.9854 33.648 29.1486 33.648 29.235 33.552L29.7534 33.0336C29.9838 32.8032 30.291 32.6784 30.6078 32.6784ZM33.0366 31.6512C32.3454 31.6512 31.6542 31.392 31.1358 30.864C30.627 30.3552 30.3486 29.6832 30.3486 28.9632C30.3486 28.2432 30.627 27.5712 31.1358 27.0624C32.1822 26.016 33.891 26.016 34.947 27.0624C35.4558 27.5712 35.7342 28.2432 35.7342 28.9632C35.7342 29.6832 35.4558 30.3552 34.947 30.864C34.419 31.392 33.7278 31.6512 33.0366 31.6512ZM33.0366 27.2256C32.595 27.2256 32.1438 27.3984 31.8078 27.7344C31.4814 28.0608 31.299 28.4928 31.299 28.9632C31.299 29.424 31.4814 29.8656 31.8078 30.192C32.4798 30.864 33.5838 30.864 34.2558 30.192C34.5822 29.8656 34.7646 29.4336 34.7646 28.9632C34.7646 28.5024 34.5822 28.0608 34.2558 27.7344C33.9294 27.3984 33.4782 27.2256 33.0366 27.2256Z" fill="#1C1D21"/>
</g>
</g>
</g>
</g>
</svg>
