<svg width="32" height="32" viewBox="0 0 32 32" fill="none" xmlns="http://www.w3.org/2000/svg">
<g clip-path="url(#clip0_22834_22318)">
<path fill-rule="evenodd" clip-rule="evenodd" d="M4.25894 10.5014C4.57601 17.0127 13.484 25.3041 19.5172 27.2306C23.5659 28.5233 29.5874 25.9734 27.2046 23.5901L23.4425 19.8261C22.8705 19.2537 21.9434 19.3203 21.3844 19.8791L19.2241 22.0387C14.5766 19.5065 12.6265 17.5131 10.0732 12.8934L12.2369 10.7315C12.7967 10.1716 12.8601 9.24593 12.2876 8.67349L8.52391 4.90966C6.41749 2.80324 4.13883 8.03944 4.25894 10.5014Z" fill="#F55C38"/>
<path fill-rule="evenodd" clip-rule="evenodd" d="M4.25894 10.5015L10.0732 12.8934L12.2369 10.7315C12.7967 10.1716 12.8601 9.24593 12.2876 8.67349L8.52391 4.90966C6.41749 2.80324 4.13884 8.03948 4.25894 10.5015Z" fill="#E64A19"/>
<path fill-rule="evenodd" clip-rule="evenodd" d="M19.5173 27.2307C23.566 28.5233 29.5874 25.9735 27.2047 23.5902L23.4425 19.8262C22.8705 19.2537 21.9434 19.3203 21.3845 19.8791L19.2241 22.0388L19.5173 27.2307Z" fill="#E64A19"/>
</g>
<defs>
<clipPath id="clip0_22834_22318">
<rect width="32" height="32" fill="white"/>
</clipPath>
</defs>
</svg>
