<svg width="48" height="48" viewBox="0 0 48 48" fill="none" xmlns="http://www.w3.org/2000/svg">
<g clip-path="url(#clip0_20741_4402)">
<path d="M23.9932 48.0032C37.248 48.0032 47.9932 37.258 47.9932 24.0032C47.9932 10.7483 37.248 0.00317383 23.9932 0.00317383C10.7383 0.00317383 -0.00683594 10.7483 -0.00683594 24.0032C-0.00683594 37.258 10.7383 48.0032 23.9932 48.0032Z" fill="#9ACCB0"/>
<path opacity="0.1" d="M47.3637 29.5109L24.0069 6.15405L24.002 48C35.3597 47.9993 44.8735 40.1089 47.3637 29.5109Z" fill="black"/>
<path d="M29.249 28.9281C29.249 31.3097 26.3806 33.2406 23.999 33.2406C21.6173 33.2406 18.749 31.3097 18.749 28.9281L19.6865 10.4697C19.6865 8.08801 21.6173 6.15723 23.999 6.15723C26.3807 6.15723 28.3115 8.08801 28.3115 10.4697L29.249 28.9281Z" fill="#414042"/>
<path d="M23.962 10.2688C25.4404 10.2688 26.6388 9.80789 26.6388 9.23928C26.6388 8.67067 25.4404 8.20972 23.962 8.20972C22.4836 8.20972 21.2852 8.67067 21.2852 9.23928C21.2852 9.80789 22.4836 10.2688 23.962 10.2688Z" fill="#EFF0F0"/>
<path d="M25.5203 9.07129H22.4791C18.48 9.07129 15.2381 13.2501 15.2381 16.8132C15.2381 16.8132 14.4769 28.4344 23.9997 28.4344C33.5225 28.4344 32.7614 16.8132 32.7614 16.8132C32.7613 13.2501 29.5194 9.07129 25.5203 9.07129Z" fill="#414042"/>
<path opacity="0.1" d="M18.8562 26.8188L18.749 28.9281C18.749 31.3098 21.6173 33.2406 23.999 33.2406C26.3807 33.2406 29.249 31.3098 29.249 28.9281L29.1418 26.8188C27.8976 27.7963 26.2306 28.4345 23.9989 28.4345C21.7672 28.4345 20.1004 27.7963 18.8562 26.8188Z" fill="black"/>
<path d="M32.78 33.7705C25.8012 33.7705 27.3582 30.348 26.8846 26.9211H21.1009C20.6275 30.348 22.1845 33.7705 15.2055 33.7705C10.7455 33.7705 9.22363 35.7249 9.22363 40.0245V42.9213C13.2961 46.1052 18.4227 48.0033 23.9927 48.0033C29.5629 48.0033 34.6894 46.1052 38.7618 42.9214V40.0245C38.7619 35.7248 37.2401 33.7705 32.78 33.7705Z" fill="#FFD0AE"/>
<path opacity="0.1" d="M27.0043 28.9086C26.9892 28.3213 26.9689 27.7151 26.8851 27.1086H21.1014C21.018 27.7123 20.9976 28.3158 20.9824 28.9005C21.8192 29.4368 22.8142 29.7591 23.9997 29.7591C25.1792 29.7592 26.1701 29.4401 27.0043 28.9086Z" fill="black"/>
<path d="M32.78 33.7705C31.8695 33.7705 31.1055 33.7117 30.462 33.6028C30.462 33.6028 31.902 36.6515 23.9927 36.6515C16.0834 36.6515 17.5234 33.6028 17.5234 33.6028C16.88 33.7117 16.116 33.7705 15.2055 33.7705C10.7455 33.7705 9.22363 35.7249 9.22363 40.0245V42.9213C13.2961 46.1052 18.4227 48.0033 23.9927 48.0033C29.5629 48.0033 34.6894 46.1052 38.7618 42.9213V40.0245C38.7619 35.7248 37.2401 33.7705 32.78 33.7705Z" fill="#ECEFC5"/>
<path d="M16.9792 22.476C17.6937 22.476 18.2729 21.7931 18.2729 20.9508C18.2729 20.1084 17.6937 19.4255 16.9792 19.4255C16.2647 19.4255 15.6855 20.1084 15.6855 20.9508C15.6855 21.7931 16.2647 22.476 16.9792 22.476Z" fill="#FFD0AE"/>
<path d="M31.0192 22.476C31.7337 22.476 32.3129 21.7931 32.3129 20.9508C32.3129 20.1084 31.7337 19.4255 31.0192 19.4255C30.3048 19.4255 29.7256 20.1084 29.7256 20.9508C29.7256 21.7931 30.3048 22.476 31.0192 22.476Z" fill="#FFD0AE"/>
<path d="M25.286 10.0034H22.713C19.3297 10.0034 16.5869 13.9714 16.5869 17.3548C16.5869 17.3548 16.785 29.2396 23.9995 29.2396C31.2142 29.2396 31.4122 17.3548 31.4122 17.3548C31.4121 13.9714 28.6694 10.0034 25.286 10.0034Z" fill="#FFD0AE"/>
<path d="M25.2853 9.87378H22.7124C19.329 9.87378 14.3055 14.8478 16.8724 21.0446C17.2206 18.0824 19.5421 20.4724 20.3362 16.3281C21.652 21.7587 30.7304 16.9891 31.1254 21.0446C33.4939 14.6286 28.6687 9.87378 25.2853 9.87378Z" fill="#414042"/>
<path opacity="0.1" d="M20.3368 16.3279C19.5427 20.4723 17.2212 18.0822 16.873 21.0444L16.9584 21.3209C17.3023 18.3944 19.5959 20.7557 20.3804 16.6612C21.6804 22.0264 30.6496 17.3142 31.0399 21.3209L31.126 21.0444C30.731 16.9889 21.6526 21.7584 20.3368 16.3279Z" fill="black"/>
<path d="M27.7158 32.2056L24 40.01L20.269 32.2056L13.6211 33.8602L24 40.8029L34.3637 33.8602L27.7158 32.2056Z" fill="#006838"/>
<path opacity="0.1" d="M34.2564 33.8333L34.3644 33.8601L24.0007 40.8028L13.6236 33.8613L13.4668 33.8958L24.0007 40.9937L34.5234 33.8918L34.2564 33.8333Z" fill="black"/>
<path opacity="0.1" d="M25.6234 36.6013C25.5623 36.6053 25.5018 36.6094 25.4392 36.6129L24.0004 39.635L22.5559 36.6135C22.4932 36.61 22.4324 36.6059 22.3711 36.602L24.0003 40.0101L25.6234 36.6013Z" fill="black"/>
<path d="M23.4468 38.852L15.3439 33.4316L14.7031 33.5911L23.8602 39.7165L23.4468 38.852Z" fill="#ECEFC5"/>
<path d="M32.6414 33.4316L24.5574 38.8392L24.1465 39.7022L33.2821 33.5911L32.6414 33.4316Z" fill="#ECEFC5"/>
<path d="M24.0001 40.8028L17.5127 36.4631C17.5127 36.4631 17.9987 38.9288 19.7937 40.5218C20.5057 41.1535 22.0946 41.7166 23.1498 41.9638C23.0402 42.1152 23.04 42.456 23.1133 42.8904C22.4725 43.4962 21.8175 44.2597 21.4528 44.8521C21.008 45.5745 21.3369 47.1866 21.472 47.2699C21.6072 47.3531 23.1948 46.9209 23.6396 46.1984C23.7565 46.0086 23.8757 45.7838 23.992 45.5386C24.1085 45.7838 24.2275 46.0086 24.3444 46.1984C24.7893 46.9209 26.3769 47.353 26.512 47.2699C26.6472 47.1867 26.976 45.5745 26.5312 44.8521C26.1665 44.2598 25.5115 43.4962 24.8708 42.8904C24.944 42.4562 24.9439 42.1156 24.8344 41.964C25.8895 41.7169 27.4794 41.1536 28.1915 40.5216C29.9802 38.9341 30.4713 36.4676 30.4713 36.4676L24.0001 40.8028Z" fill="#BE1E2D"/>
<path opacity="0.1" d="M19.7937 40.5219C18.3621 39.2514 17.7636 37.4271 17.5797 36.74L17.5127 36.6951C17.5127 36.6951 17.9987 39.1608 19.7937 40.7537C20.4895 41.3712 22.0221 41.9223 23.0762 42.1777C23.0897 42.0881 23.1131 42.0146 23.1498 41.9639C22.0947 41.7169 20.5057 41.1538 19.7937 40.5219Z" fill="black"/>
<path opacity="0.1" d="M28.1921 40.5217C27.4799 41.1538 25.8901 41.717 24.835 41.9641C24.8716 42.0149 24.8951 42.0885 24.9085 42.1779C25.9627 41.9226 27.496 41.3714 28.192 40.7536C29.9807 39.1662 30.4718 36.6997 30.4718 36.6997L30.4041 36.745C30.2192 37.4324 29.6185 39.2559 28.1921 40.5217Z" fill="black"/>
<path opacity="0.1" d="M26.5125 47.2699C26.3774 47.3531 24.7898 46.9209 24.345 46.1984C24.228 46.0085 24.1089 45.7837 23.9925 45.5386C23.8762 45.7837 23.757 46.0085 23.6401 46.1984C23.1953 46.9209 21.6077 47.353 21.4725 47.2699C21.3932 47.221 21.2474 46.6454 21.2302 46.0322C21.2096 46.7244 21.3833 47.4468 21.4725 47.5018C21.6077 47.585 23.1953 47.1528 23.6401 46.4303C23.757 46.2405 23.8762 46.0157 23.9925 45.7704C24.109 46.0157 24.228 46.2405 24.345 46.4303C24.7898 47.1528 26.3774 47.585 26.5125 47.5018C26.6019 47.4468 26.7756 46.7244 26.755 46.0322C26.7377 46.6454 26.5919 47.2209 26.5125 47.2699Z" fill="black"/>
<path d="M24.9921 41.9055H22.9932V43.0344H24.9921V41.9055Z" fill="#006838"/>
<path d="M24.9921 42.2825H22.9932V42.6575H24.9921V42.2825Z" fill="#ECEFC5"/>
</g>
<defs>
<clipPath id="clip0_20741_4402">
<rect width="48" height="48" fill="white"/>
</clipPath>
</defs>
</svg>
