<svg width="48" height="48" viewBox="0 0 48 48" fill="none" xmlns="http://www.w3.org/2000/svg">
<g id="reshot-icon-student-class-JAMNVGK56B 1" clip-path="url(#clip0_23501_10349)">
<g id="Group">
<g id="XMLID_220_">
<path id="Vector" d="M47.8615 23.9992C47.8615 37.1774 37.1785 47.86 24.0007 47.86C10.8232 47.86 0.140625 37.1774 0.140625 23.9992C0.140625 10.8217 10.8232 0.13916 24.0007 0.13916C37.1785 0.13916 47.8615 10.8217 47.8615 23.9992Z" fill="#FFDB76"/>
</g>
<g id="Group_2">
<g id="XMLID_219_">
<path id="Vector_2" d="M24.3464 41.0512C24.2696 41.0512 24.2069 40.9895 24.205 40.9124C24.2035 40.8337 24.2656 40.7691 24.3438 40.7676C24.5783 40.7624 24.8142 40.7532 25.0461 40.7388C25.1244 40.7329 25.1916 40.7935 25.196 40.8717C25.2012 40.95 25.1414 41.0172 25.0635 41.0216C24.8279 41.0364 24.5875 41.046 24.349 41.0508C24.3483 41.0512 24.3472 41.0512 24.3464 41.0512ZM23.6379 41.0508C23.6368 41.0508 23.6357 41.0508 23.6349 41.0508C23.3982 41.0456 23.1586 41.036 22.9208 41.0209C22.8425 41.0161 22.7831 40.9489 22.7883 40.871C22.7934 40.7927 22.8617 40.7329 22.9382 40.7384C23.1723 40.7528 23.4082 40.7624 23.6405 40.7676C23.7191 40.7691 23.7811 40.8341 23.7797 40.9124C23.7778 40.9892 23.715 41.0508 23.6379 41.0508ZM25.7609 40.9637C25.6889 40.9637 25.6273 40.9098 25.6199 40.8367C25.6121 40.7588 25.6686 40.6893 25.7465 40.6812C25.9792 40.6568 26.2144 40.6273 26.444 40.5941C26.5201 40.583 26.5932 40.6365 26.6046 40.7141C26.6161 40.7912 26.5622 40.8632 26.485 40.8751C26.2513 40.9087 26.0128 40.9389 25.7757 40.9629C25.7705 40.9637 25.7654 40.9637 25.7609 40.9637ZM22.2237 40.9622C22.2185 40.9622 22.2141 40.9618 22.2086 40.9611C21.9734 40.9371 21.7349 40.9072 21.4997 40.8725C21.4221 40.8614 21.3686 40.789 21.38 40.7115C21.3915 40.634 21.4635 40.5797 21.541 40.5919C21.7721 40.6258 22.0066 40.655 22.2381 40.6794C22.316 40.6871 22.3721 40.7573 22.3644 40.8348C22.3566 40.9083 22.2953 40.9622 22.2237 40.9622ZM27.1625 40.7595C27.0961 40.7595 27.0363 40.7119 27.0233 40.6443C27.0089 40.5671 27.0595 40.4933 27.1363 40.4785C27.366 40.4353 27.5975 40.3866 27.8238 40.3334C27.9003 40.3153 27.9767 40.3633 27.9944 40.4394C28.0121 40.5154 27.9645 40.5915 27.8885 40.6096C27.6581 40.6635 27.4229 40.713 27.1891 40.7573C27.1803 40.7588 27.1714 40.7595 27.1625 40.7595ZM20.8221 40.7562C20.8133 40.7562 20.8044 40.7554 20.7955 40.7536C20.5618 40.7093 20.3262 40.6594 20.0962 40.6055C20.0194 40.5878 19.9725 40.511 19.9906 40.4349C20.0083 40.3589 20.084 40.3112 20.1608 40.3297C20.3872 40.3825 20.6183 40.4316 20.8483 40.4756C20.9251 40.4903 20.9757 40.5642 20.9613 40.641C20.9477 40.7093 20.8886 40.7562 20.8221 40.7562ZM28.5427 40.4379C28.4811 40.4379 28.4238 40.3969 28.4061 40.3341C28.3854 40.2588 28.4297 40.1805 28.5051 40.1595C28.7303 40.0967 28.957 40.0284 29.1778 39.9564C29.2524 39.9324 29.3325 39.9738 29.3561 40.0476C29.3809 40.1218 29.3395 40.2023 29.2653 40.226C29.0405 40.2991 28.8101 40.3685 28.5808 40.4324C28.5682 40.4361 28.5557 40.4379 28.5427 40.4379ZM19.4419 40.4331C19.4297 40.4331 19.4165 40.4316 19.4035 40.4279C19.1746 40.364 18.9449 40.2946 18.7193 40.2215C18.6448 40.1972 18.6041 40.1174 18.6281 40.0432C18.6521 39.9686 18.7326 39.928 18.8069 39.952C19.0284 40.024 19.2547 40.0923 19.4796 40.1554C19.5549 40.1765 19.5989 40.2544 19.5778 40.3301C19.5612 40.3921 19.504 40.4331 19.4419 40.4331ZM29.8908 40.0004C29.8332 40.0004 29.7793 39.9649 29.7579 39.9081C29.7309 39.8349 29.7682 39.753 29.8417 39.726C30.0595 39.6448 30.2785 39.5584 30.4934 39.4683C30.5661 39.4376 30.6488 39.472 30.6791 39.5436C30.7094 39.616 30.6754 39.6991 30.6034 39.7297C30.3852 39.8213 30.1622 39.9095 29.9406 39.9919C29.924 39.9978 29.9074 40.0004 29.8908 40.0004ZM18.0928 39.9941C18.0761 39.9941 18.0595 39.9908 18.0433 39.9848C17.8203 39.9021 17.5965 39.8132 17.3772 39.7208C17.3052 39.6902 17.2712 39.6071 17.3015 39.5348C17.3321 39.4631 17.4149 39.4288 17.4872 39.4594C17.7032 39.5503 17.9237 39.6378 18.1415 39.7194C18.215 39.7467 18.2526 39.8283 18.2253 39.9018C18.2043 39.959 18.15 39.9941 18.0928 39.9941ZM31.1938 39.4532C31.1403 39.4532 31.0897 39.4229 31.0653 39.3716C31.0321 39.3007 31.0624 39.2161 31.1336 39.1829C31.3433 39.0836 31.5545 38.9787 31.7613 38.8709C31.8311 38.8343 31.9168 38.8616 31.9529 38.9307C31.9895 39.0005 31.9622 39.0858 31.8928 39.1223C31.683 39.232 31.4678 39.3391 31.2544 39.4391C31.2348 39.4487 31.2141 39.4532 31.1938 39.4532ZM16.7838 39.4421C16.7639 39.4421 16.7432 39.4376 16.7237 39.4284C16.5091 39.3272 16.2935 39.2202 16.083 39.109C16.0136 39.0728 15.9867 38.9872 16.0236 38.9178C16.0598 38.8484 16.1454 38.8218 16.2149 38.858C16.4224 38.9672 16.6347 39.0725 16.8448 39.1722C16.9153 39.2058 16.9459 39.29 16.9127 39.3608C16.888 39.4122 16.8374 39.4421 16.7838 39.4421ZM32.4473 38.797C32.3982 38.797 32.3506 38.7719 32.3244 38.7265C32.2853 38.6586 32.3081 38.5718 32.3765 38.533C32.5784 38.4164 32.7804 38.2945 32.9768 38.1697C33.0429 38.1276 33.1304 38.1472 33.1721 38.2129C33.2142 38.2794 33.1947 38.3669 33.1289 38.4086C32.9292 38.5356 32.7232 38.66 32.5186 38.7789C32.4961 38.7915 32.471 38.797 32.4473 38.797ZM15.5273 38.7823C15.503 38.7823 15.4786 38.776 15.4568 38.7631C15.2508 38.6442 15.0455 38.519 14.8454 38.3909C14.7793 38.3492 14.7601 38.2613 14.8022 38.1956C14.8439 38.1295 14.9321 38.1103 14.9979 38.1524C15.1943 38.2775 15.397 38.4009 15.5986 38.5179C15.6665 38.557 15.6898 38.6442 15.6503 38.7114C15.6237 38.7572 15.5765 38.7823 15.5273 38.7823ZM33.6422 38.0386C33.5971 38.0386 33.5528 38.0176 33.5259 37.9777C33.4808 37.9135 33.4971 37.8252 33.5613 37.7805C33.7533 37.6472 33.9446 37.508 34.1296 37.3681C34.192 37.3205 34.2806 37.333 34.3282 37.3951C34.3751 37.4575 34.3633 37.5464 34.3005 37.5937C34.1129 37.7362 33.9184 37.8776 33.7234 38.0135C33.6987 38.0305 33.6702 38.0386 33.6422 38.0386ZM14.3314 38.0202C14.303 38.0202 14.2749 38.012 14.2498 37.9943C14.0556 37.8588 13.8606 37.717 13.6727 37.573C13.6103 37.5254 13.5981 37.4364 13.6457 37.3744C13.693 37.312 13.782 37.3002 13.8444 37.3474C14.0301 37.4892 14.221 37.6288 14.4123 37.7621C14.4769 37.8071 14.4924 37.8954 14.4477 37.9592C14.4197 37.9988 14.3761 38.0202 14.3314 38.0202ZM34.7702 37.1828C34.7296 37.1828 34.6886 37.1654 34.6605 37.1314C34.6107 37.0712 34.6192 36.9815 34.6797 36.9317C34.8595 36.7825 35.039 36.6285 35.2114 36.4731C35.2697 36.4203 35.3595 36.4255 35.4123 36.4834C35.4643 36.5414 35.4595 36.6311 35.4012 36.6839C35.2254 36.8416 35.0434 36.9985 34.8603 37.1506C34.8337 37.1724 34.8019 37.1828 34.7702 37.1828ZM13.203 37.1606C13.1713 37.1606 13.1392 37.1499 13.1126 37.1277C12.9302 36.9764 12.7485 36.8183 12.5724 36.6596C12.5144 36.6071 12.5096 36.5174 12.5621 36.4594C12.6149 36.4015 12.7049 36.3967 12.7629 36.4495C12.9357 36.6056 13.1144 36.7604 13.2942 36.9099C13.3544 36.9597 13.3625 37.0487 13.3127 37.1093C13.2846 37.1432 13.2437 37.1606 13.203 37.1606ZM35.8236 36.2353C35.7863 36.2353 35.7505 36.2216 35.7224 36.1928C35.6678 36.1375 35.6685 36.047 35.7246 35.9927C35.8915 35.8292 36.0569 35.6604 36.2172 35.4909C36.2704 35.4341 36.3605 35.4311 36.4173 35.4847C36.4742 35.5386 36.4771 35.6283 36.4236 35.6852C36.2615 35.8576 36.0928 36.0293 35.9233 36.1954C35.8952 36.2224 35.859 36.2353 35.8236 36.2353ZM12.1515 36.2102C12.1157 36.2102 12.0798 36.1965 12.0521 36.1696C11.8827 36.0031 11.7147 35.831 11.5526 35.6582C11.499 35.6013 11.502 35.5116 11.5596 35.4581C11.6161 35.4042 11.7062 35.4071 11.7597 35.4647C11.9189 35.6346 12.0843 35.8033 12.2508 35.9672C12.3069 36.0219 12.3073 36.1124 12.2526 36.1677C12.2246 36.1962 12.188 36.2102 12.1515 36.2102ZM36.7943 35.2037C36.7618 35.2037 36.7286 35.1922 36.7016 35.169C36.6425 35.1176 36.6359 35.0279 36.6872 34.9688C36.8397 34.7924 36.9907 34.6103 37.1358 34.4276C37.1849 34.3659 37.2739 34.3567 37.3352 34.4047C37.3965 34.453 37.4069 34.5428 37.3581 34.604C37.2104 34.7898 37.0572 34.9751 36.9017 35.1538C36.8737 35.1871 36.8342 35.2037 36.7943 35.2037ZM11.1826 35.1767C11.1427 35.1767 11.1032 35.1597 11.0752 35.1276C10.9201 34.9474 10.7672 34.7624 10.6203 34.5767C10.5719 34.5154 10.5822 34.4264 10.6439 34.3773C10.7056 34.329 10.7942 34.3393 10.8429 34.4006C10.9873 34.5826 11.1379 34.7647 11.2901 34.9423C11.3414 35.0017 11.3347 35.0911 11.2757 35.142C11.2483 35.1649 11.2155 35.1767 11.1826 35.1767ZM37.6768 34.0934C37.648 34.0934 37.6188 34.0849 37.5933 34.0661C37.5298 34.0199 37.5161 33.9317 37.5623 33.8682C37.6993 33.6799 37.8352 33.4856 37.9648 33.2914C38.008 33.2257 38.0958 33.208 38.1612 33.2519C38.2262 33.2951 38.2435 33.383 38.2003 33.4487C38.0689 33.6463 37.9308 33.8438 37.7912 34.0354C37.7635 34.0731 37.7203 34.0934 37.6768 34.0934ZM10.3035 34.0661C10.2599 34.0661 10.2163 34.0458 10.1883 34.0077C10.0487 33.8154 9.91208 33.6182 9.781 33.4214C9.73817 33.3557 9.7559 33.2682 9.82088 33.2246C9.88624 33.181 9.97411 33.1991 10.0173 33.2641C10.1458 33.4576 10.2809 33.6518 10.4179 33.8408C10.4637 33.9044 10.4497 33.993 10.3862 34.0388C10.3618 34.0572 10.3326 34.0661 10.3035 34.0661ZM38.4636 32.9133C38.4385 32.9133 38.413 32.9067 38.3905 32.8927C38.3229 32.8517 38.3022 32.7645 38.3425 32.6977C38.4636 32.4991 38.5825 32.2941 38.6951 32.0892C38.7331 32.0209 38.8195 31.9958 38.8882 32.0335C38.9569 32.0719 38.982 32.1579 38.944 32.2262C38.8288 32.4348 38.708 32.6431 38.5847 32.8454C38.5581 32.8886 38.5116 32.9133 38.4636 32.9133ZM9.52107 32.8868C9.4727 32.8868 9.42581 32.8624 9.39959 32.8177C9.27664 32.6154 9.15701 32.4079 9.04291 32.2004C9.00525 32.1313 9.02999 32.0453 9.09867 32.008C9.16734 31.97 9.25337 31.9951 9.29104 32.0637C9.40328 32.2676 9.5207 32.4714 9.64181 32.6711C9.68205 32.7387 9.66064 32.8255 9.59344 32.8664C9.57128 32.8805 9.54617 32.8868 9.52107 32.8868ZM39.1493 31.6705C39.1275 31.6705 39.1064 31.6657 39.0857 31.6557C39.016 31.6207 38.9872 31.5357 39.0219 31.4652C39.1264 31.2555 39.2279 31.0417 39.3224 30.8283C39.3545 30.757 39.4384 30.7249 39.5096 30.757C39.5809 30.7888 39.613 30.8722 39.5813 30.9446C39.4845 31.1606 39.3819 31.3784 39.2759 31.5919C39.2515 31.6417 39.2013 31.6705 39.1493 31.6705ZM8.83947 31.6469C8.78704 31.6469 8.73719 31.6181 8.71245 31.5682C8.60722 31.3559 8.50494 31.1388 8.40931 30.9228C8.37756 30.8516 8.40931 30.7674 8.48131 30.7356C8.55184 30.7039 8.63639 30.736 8.66814 30.8076C8.76267 31.0199 8.8631 31.2333 8.96648 31.442C9.00156 31.5121 8.97276 31.597 8.90224 31.6321C8.8823 31.6421 8.86088 31.6469 8.83947 31.6469ZM39.7282 30.3741C39.7105 30.3741 39.6928 30.3708 39.6754 30.3642C39.603 30.3354 39.5672 30.2527 39.596 30.1799C39.6821 29.9628 39.7651 29.7409 39.8419 29.5201C39.8678 29.4459 39.9486 29.4068 40.0225 29.433C40.096 29.4584 40.1355 29.5393 40.1096 29.6132C40.031 29.8376 39.9475 30.064 39.8593 30.2844C39.8379 30.3402 39.7843 30.3741 39.7282 30.3741ZM8.26568 30.3553C8.20882 30.3553 8.15528 30.3217 8.1335 30.2656C8.04636 30.0448 7.96254 29.8192 7.88501 29.5962C7.85916 29.522 7.8983 29.4415 7.97214 29.4156C8.04599 29.3901 8.12722 29.4289 8.1527 29.5028C8.22876 29.7228 8.3111 29.944 8.39676 30.1615C8.42556 30.2346 8.38974 30.3165 8.31738 30.3453C8.30039 30.352 8.28267 30.3553 8.26568 30.3553ZM40.1957 29.0324C40.182 29.0324 40.1683 29.0301 40.1547 29.0261C40.0797 29.0032 40.0373 28.9245 40.0598 28.8492C40.1273 28.6255 40.1905 28.3969 40.2485 28.1724C40.2684 28.0964 40.3456 28.0506 40.4213 28.0701C40.4969 28.0897 40.5427 28.1672 40.5228 28.2429C40.4648 28.4719 40.3998 28.703 40.3315 28.9312C40.3127 28.9921 40.2566 29.0324 40.1957 29.0324ZM7.80008 29.0168C7.73916 29.0168 7.68304 28.9773 7.66457 28.9157C7.59627 28.6893 7.53202 28.4571 7.47331 28.2271C7.45374 28.1514 7.49953 28.0746 7.57559 28.055C7.65165 28.0354 7.72882 28.0816 7.74802 28.1573C7.80562 28.3832 7.86876 28.6111 7.93596 28.8341C7.95885 28.909 7.91602 28.9884 7.84107 29.0106C7.82741 29.0146 7.81411 29.0168 7.80008 29.0168ZM40.5468 27.6592C40.5372 27.6592 40.5272 27.6584 40.5176 27.6562C40.4412 27.64 40.3917 27.5647 40.408 27.4882C40.4563 27.2604 40.5006 27.0282 40.539 26.7978C40.552 26.7206 40.6243 26.6685 40.7022 26.6815C40.7794 26.6944 40.8315 26.7675 40.8185 26.845C40.779 27.0791 40.7344 27.3154 40.6856 27.5466C40.6716 27.6138 40.6129 27.6592 40.5468 27.6592ZM7.45005 27.6437C7.38433 27.6437 7.32525 27.5979 7.31159 27.5307C7.26248 27.2988 7.21818 27.0625 7.17904 26.8284C7.16648 26.7512 7.21854 26.6785 7.29571 26.6656C7.37325 26.6527 7.44562 26.7051 7.45854 26.7823C7.49694 27.0123 7.54088 27.2445 7.58925 27.4724C7.60513 27.5492 7.55639 27.6245 7.47922 27.6404C7.46962 27.6422 7.45965 27.6437 7.45005 27.6437ZM40.7816 26.262C40.7761 26.262 40.7702 26.2616 40.7639 26.2605C40.686 26.2513 40.6313 26.18 40.6406 26.1025C40.6694 25.8714 40.6945 25.6362 40.7133 25.4032C40.72 25.3253 40.7883 25.2666 40.8662 25.2736C40.9445 25.2799 41.0024 25.3485 40.9961 25.4264C40.9766 25.6635 40.9518 25.9024 40.9223 26.1372C40.9134 26.2092 40.8525 26.262 40.7816 26.262ZM7.2167 26.2461C7.14617 26.2461 7.08525 26.1937 7.07602 26.1217C7.04685 25.8861 7.02211 25.6472 7.00291 25.4106C6.99627 25.3327 7.05498 25.2644 7.13288 25.2581C7.21153 25.2511 7.27947 25.3098 7.28574 25.388C7.30494 25.6199 7.32894 25.8555 7.35774 26.087C7.36697 26.1645 7.31233 26.2354 7.23442 26.2454C7.22814 26.2458 7.22261 26.2461 7.2167 26.2461ZM40.8994 24.8497C40.8968 24.8497 40.8953 24.8497 40.8928 24.8497C40.8149 24.8468 40.7539 24.7803 40.7573 24.7024C40.7665 24.469 40.7717 24.2327 40.7717 23.9997C40.7717 23.9215 40.8352 23.8583 40.9134 23.8583C40.9917 23.8583 41.0556 23.9215 41.0556 23.9997C41.0556 24.2368 41.0504 24.4768 41.0408 24.7146C41.0379 24.7903 40.9747 24.8497 40.8994 24.8497ZM7.10076 24.8338C7.02507 24.8338 6.9623 24.774 6.95934 24.698C6.95011 24.4676 6.94531 24.2324 6.94531 23.9994V23.9831C6.94531 23.9048 7.00882 23.8417 7.0871 23.8417C7.16538 23.8417 7.22888 23.9048 7.22888 23.9831V23.9994C7.22888 24.2287 7.23368 24.4594 7.24254 24.6861C7.24587 24.7644 7.18494 24.8301 7.10667 24.8331C7.10519 24.8338 7.10261 24.8338 7.10076 24.8338ZM40.9001 23.4651C40.8245 23.4651 40.7617 23.4056 40.7584 23.3296C40.7495 23.0955 40.7355 22.8599 40.7166 22.6277C40.71 22.5498 40.7683 22.4815 40.8466 22.4752C40.9245 22.4674 40.9928 22.5272 40.9991 22.6055C41.0187 22.8411 41.0327 23.0811 41.0419 23.3185C41.0453 23.3968 40.9843 23.4629 40.9061 23.4655C40.9035 23.4651 40.9016 23.4651 40.9001 23.4651ZM7.10224 23.4167C7.10039 23.4167 7.0978 23.4167 7.09633 23.4167C7.01768 23.413 6.95713 23.3473 6.96045 23.269C6.97042 23.0316 6.98556 22.7924 7.00513 22.5557C7.01214 22.4778 7.08045 22.4198 7.15836 22.4264C7.23627 22.4327 7.29461 22.5014 7.28833 22.5793C7.26839 22.8119 7.25362 23.0479 7.24402 23.2805C7.2407 23.3573 7.17793 23.4167 7.10224 23.4167ZM40.7857 22.0528C40.7152 22.0528 40.6539 22 40.6446 21.9287C40.6162 21.6965 40.5822 21.4624 40.5446 21.2331C40.5313 21.1559 40.5833 21.0828 40.6609 21.0703C40.7384 21.0573 40.8112 21.1094 40.8237 21.1866C40.8625 21.4199 40.8968 21.6577 40.9256 21.894C40.9352 21.9716 40.8802 22.0424 40.8027 22.052C40.7968 22.0528 40.7916 22.0528 40.7857 22.0528ZM7.22113 22.0048C7.21522 22.0048 7.20931 22.0044 7.20304 22.0037C7.1255 21.9941 7.07085 21.9224 7.08045 21.8449C7.10999 21.6097 7.14507 21.3716 7.18458 21.1382C7.1975 21.061 7.27024 21.0086 7.34777 21.0215C7.42494 21.0348 7.47738 21.1079 7.46334 21.1855C7.42494 21.4144 7.39061 21.6485 7.36107 21.8804C7.35258 21.9524 7.29128 22.0048 7.22113 22.0048ZM40.5534 20.6552C40.4877 20.6552 40.4286 20.6091 40.415 20.5419C40.3673 20.3144 40.3138 20.0844 40.2562 19.8573C40.237 19.7816 40.2828 19.7045 40.3585 19.6849C40.4345 19.6657 40.5113 19.7115 40.5309 19.7872C40.5893 20.0176 40.6439 20.252 40.6919 20.4836C40.7081 20.5607 40.6587 20.6357 40.5822 20.6516C40.5726 20.6541 40.5627 20.6552 40.5534 20.6552ZM7.4567 20.6072C7.4471 20.6072 7.43713 20.6065 7.42716 20.6047C7.35073 20.588 7.30162 20.5127 7.31824 20.4363C7.36734 20.204 7.42236 19.97 7.48144 19.7407C7.50101 19.6646 7.57781 19.6188 7.65387 19.6384C7.72956 19.658 7.77534 19.7355 7.75578 19.8112C7.69781 20.0368 7.64353 20.2668 7.59553 20.4954C7.5815 20.5615 7.52242 20.6072 7.4567 20.6072ZM40.2049 19.2821C40.1436 19.2821 40.0875 19.2422 40.069 19.1809C40.0022 18.9572 39.9294 18.7319 39.8534 18.5122C39.8279 18.438 39.8667 18.3572 39.9409 18.3317C40.0147 18.3062 40.0952 18.3453 40.1211 18.4192C40.199 18.6426 40.2725 18.8719 40.3408 19.0997C40.3633 19.1743 40.3204 19.2536 40.2455 19.2754C40.2322 19.2799 40.2182 19.2821 40.2049 19.2821ZM7.80968 19.2352C7.79602 19.2352 7.78199 19.233 7.7687 19.2289C7.69374 19.206 7.65165 19.127 7.67418 19.052C7.74285 18.8246 7.81744 18.5953 7.89608 18.3704C7.92193 18.2962 8.00279 18.2571 8.07664 18.2837C8.15048 18.3092 8.18962 18.3904 8.16378 18.4639C8.08661 18.685 8.0135 18.9103 7.94556 19.134C7.9271 19.1957 7.87061 19.2352 7.80968 19.2352ZM39.7415 17.9425C39.6854 17.9425 39.6311 17.9085 39.6097 17.8532C39.5248 17.6368 39.4332 17.4193 39.3394 17.2066C39.3077 17.135 39.3398 17.0508 39.4114 17.0194C39.4823 16.9877 39.5665 17.0198 39.5982 17.0914C39.6942 17.3078 39.7869 17.529 39.8737 17.7487C39.9025 17.8214 39.8663 17.9041 39.7932 17.9322C39.7766 17.9396 39.7585 17.9425 39.7415 17.9425ZM8.2786 17.8938C8.26125 17.8938 8.24316 17.8904 8.22581 17.8838C8.15344 17.8546 8.11799 17.7723 8.14642 17.6996C8.23467 17.478 8.32808 17.2568 8.42519 17.0401C8.45731 16.9688 8.54113 16.9367 8.61276 16.9688C8.68402 17.0006 8.71614 17.0848 8.68402 17.1557C8.58876 17.3691 8.49645 17.5869 8.41042 17.8048C8.38827 17.8602 8.33473 17.8938 8.2786 17.8938ZM39.1685 16.6506C39.116 16.6506 39.0658 16.6214 39.0407 16.5716C38.9377 16.3637 38.8291 16.154 38.7169 15.9494C38.6789 15.8807 38.7043 15.7947 38.7726 15.757C38.8413 15.7194 38.9273 15.7445 38.965 15.8132C39.0795 16.021 39.1899 16.2341 39.2947 16.4456C39.3298 16.5154 39.301 16.6007 39.2305 16.6358C39.2109 16.6458 39.1895 16.6506 39.1685 16.6506ZM8.8583 16.5978C8.83725 16.5978 8.81547 16.5926 8.79516 16.5826C8.72501 16.5476 8.69657 16.4626 8.73165 16.3921C8.83762 16.1798 8.94987 15.9668 9.06433 15.7589C9.10273 15.6902 9.18876 15.6651 9.25744 15.7035C9.32574 15.7419 9.35085 15.8276 9.31282 15.8959C9.19984 16.1 9.08944 16.3098 8.98494 16.5191C8.96057 16.569 8.91073 16.5978 8.8583 16.5978ZM38.488 15.4096C38.4403 15.4096 38.3931 15.3856 38.3669 15.3413C38.2465 15.1419 38.1206 14.9425 37.9913 14.7483C37.9481 14.6829 37.9662 14.5951 38.0309 14.5519C38.0962 14.5083 38.1841 14.5264 38.2273 14.5917C38.3584 14.7893 38.4869 14.9924 38.6087 15.1947C38.6493 15.2619 38.6283 15.349 38.5611 15.3893C38.5385 15.4037 38.5131 15.4096 38.488 15.4096ZM9.54544 15.3553C9.52033 15.3553 9.49485 15.3487 9.47159 15.335C9.40476 15.2944 9.38371 15.2069 9.4247 15.14C9.54765 14.9373 9.67725 14.7343 9.80907 14.5371C9.85264 14.4717 9.94088 14.454 10.0059 14.498C10.0712 14.5412 10.0886 14.6294 10.0446 14.6948C9.91504 14.8886 9.78802 15.088 9.66654 15.2874C9.63959 15.3313 9.59307 15.3553 9.54544 15.3553ZM37.7067 14.2299C37.6624 14.2299 37.6195 14.2096 37.5915 14.1716C37.4545 13.9825 37.3116 13.7938 37.168 13.6114C37.1192 13.5498 37.1296 13.4608 37.1909 13.412C37.2521 13.3633 37.3415 13.3736 37.3902 13.4353C37.5368 13.6214 37.6816 13.813 37.8211 14.0047C37.8669 14.0682 37.8529 14.1568 37.7894 14.2026C37.7643 14.2214 37.7351 14.2299 37.7067 14.2299ZM10.333 14.1767C10.3038 14.1767 10.2743 14.1679 10.2492 14.1494C10.1861 14.1029 10.172 14.0143 10.2185 13.9515C10.3581 13.7602 10.5036 13.569 10.6524 13.3825C10.7008 13.3212 10.7905 13.3116 10.8518 13.3604C10.9127 13.4091 10.9227 13.4981 10.8739 13.5594C10.7285 13.7429 10.5848 13.9312 10.4475 14.1188C10.4201 14.1564 10.3773 14.1767 10.333 14.1767ZM36.8286 13.1185C36.7888 13.1185 36.7489 13.1019 36.7205 13.069C36.5687 12.8922 36.4107 12.716 36.2515 12.5462C36.1984 12.489 36.2009 12.3992 36.2585 12.3457C36.3154 12.2922 36.4051 12.2951 36.459 12.3524C36.6208 12.5252 36.781 12.7042 36.9361 12.8844C36.987 12.9435 36.98 13.0332 36.9206 13.0845C36.894 13.1074 36.8611 13.1185 36.8286 13.1185ZM11.2166 13.0672C11.1833 13.0672 11.1505 13.0557 11.1235 13.0325C11.0645 12.9812 11.0582 12.8918 11.1095 12.8327C11.2646 12.654 11.4252 12.4753 11.5888 12.3021C11.6427 12.2453 11.7328 12.2427 11.7893 12.2962C11.8461 12.3501 11.8491 12.4395 11.7955 12.4967C11.6345 12.6669 11.4765 12.8427 11.324 13.0177C11.2956 13.0509 11.2561 13.0672 11.2166 13.0672ZM35.8609 12.0839C35.8247 12.0839 35.7889 12.0706 35.7608 12.0437C35.595 11.8801 35.4226 11.7176 35.2498 11.5611C35.1918 11.5083 35.1874 11.4189 35.2398 11.361C35.2923 11.303 35.382 11.2982 35.44 11.351C35.6157 11.5101 35.7907 11.6752 35.9598 11.8413C36.0156 11.896 36.0163 11.9861 35.9617 12.0418C35.9336 12.0695 35.8974 12.0839 35.8609 12.0839ZM12.1888 12.0359C12.1518 12.0359 12.1153 12.0219 12.0876 11.9935C12.0329 11.9373 12.0337 11.848 12.0902 11.793C12.26 11.6268 12.4354 11.4625 12.6115 11.3045C12.6702 11.252 12.7596 11.2572 12.8117 11.3152C12.8641 11.3732 12.8597 11.4632 12.8013 11.5157C12.6281 11.6711 12.4553 11.8325 12.2881 11.996C12.26 12.0226 12.2242 12.0359 12.1888 12.0359ZM34.8093 11.1324C34.7776 11.1324 34.7454 11.1217 34.7192 11.0999C34.539 10.95 34.3541 10.8023 34.1691 10.6613C34.1067 10.6136 34.0952 10.5247 34.1425 10.4626C34.1901 10.4006 34.2791 10.3884 34.3411 10.436C34.5294 10.5797 34.7174 10.7296 34.9005 10.8817C34.9611 10.9316 34.9692 11.0213 34.919 11.0811C34.8905 11.1154 34.8503 11.1324 34.8093 11.1324ZM13.2429 11.0892C13.2023 11.0892 13.1617 11.0719 13.1336 11.0379C13.0838 10.9773 13.0923 10.888 13.1528 10.8381C13.3363 10.6868 13.525 10.538 13.7129 10.3954C13.7757 10.3482 13.8647 10.3604 13.912 10.4228C13.9592 10.4855 13.9467 10.5741 13.8843 10.621C13.6993 10.761 13.5139 10.9076 13.3334 11.0571C13.3068 11.0789 13.275 11.0892 13.2429 11.0892ZM33.6828 10.2725C33.6547 10.2725 33.6263 10.2644 33.6016 10.2466C33.4103 10.1133 33.2135 9.98152 33.0167 9.85562C32.9506 9.81352 32.9314 9.72528 32.9735 9.65955C33.0156 9.59383 33.1035 9.57426 33.1692 9.61635C33.3697 9.74485 33.5698 9.87851 33.7637 10.014C33.8283 10.0591 33.8434 10.1477 33.7987 10.2116C33.7714 10.2514 33.7271 10.2725 33.6828 10.2725ZM14.372 10.2348C14.3273 10.2348 14.283 10.213 14.2553 10.1739C14.2114 10.1093 14.2269 10.021 14.2915 9.97635C14.4857 9.84158 14.6862 9.70903 14.8864 9.58202C14.9521 9.54029 15.04 9.55986 15.0817 9.62595C15.1234 9.69241 15.1042 9.77992 15.0377 9.82165C14.8413 9.94608 14.6445 10.0768 14.4529 10.2097C14.4278 10.2263 14.3997 10.2348 14.372 10.2348ZM32.4872 9.50854C32.4629 9.50854 32.4381 9.50263 32.416 9.48934C32.2136 9.37229 32.0069 9.25709 31.8001 9.14854C31.7307 9.11198 31.7041 9.02632 31.7406 8.95691C31.7776 8.88749 31.8629 8.86091 31.9326 8.89746C32.1424 9.00823 32.3532 9.12417 32.5585 9.2438C32.6268 9.28331 32.6493 9.37045 32.6098 9.43765C32.5836 9.48343 32.536 9.50854 32.4872 9.50854ZM15.5676 9.47752C15.5181 9.47752 15.4709 9.45168 15.4446 9.40663C15.4059 9.33869 15.4288 9.25192 15.4967 9.21315C15.7016 9.095 15.9121 8.97943 16.1222 8.86977C16.1916 8.83321 16.2773 8.86054 16.3134 8.92958C16.3496 8.999 16.3227 9.08466 16.2536 9.12121C16.0469 9.22903 15.8397 9.34275 15.6385 9.45869C15.616 9.47088 15.5916 9.47752 15.5676 9.47752ZM31.2311 8.84762C31.2104 8.84762 31.1905 8.84318 31.1705 8.83395C30.9586 8.73389 30.7426 8.63715 30.5277 8.54595C30.4557 8.51568 30.4221 8.43223 30.4528 8.3606C30.483 8.2886 30.5665 8.25463 30.6385 8.28491C30.8571 8.37722 31.0771 8.4758 31.2924 8.57771C31.3629 8.61131 31.3928 8.69549 31.36 8.76675C31.3352 8.81771 31.2846 8.84762 31.2311 8.84762ZM16.8215 8.82288C16.7683 8.82288 16.7174 8.79297 16.6934 8.74128C16.6598 8.67038 16.6904 8.58583 16.7617 8.55223C16.9755 8.45217 17.1948 8.35432 17.413 8.26312C17.485 8.23285 17.5685 8.26718 17.5984 8.33918C17.629 8.41118 17.595 8.49426 17.5227 8.52491C17.3085 8.61463 17.0929 8.71026 16.8821 8.80958C16.8621 8.81882 16.8418 8.82288 16.8215 8.82288ZM29.9233 8.29451C29.9067 8.29451 29.8901 8.29192 29.8738 8.28565C29.6541 8.20368 29.4307 8.12503 29.2085 8.05303C29.1339 8.02866 29.0933 7.94854 29.1176 7.87432C29.1416 7.79974 29.2214 7.75912 29.296 7.78312C29.5219 7.85734 29.7497 7.93709 29.9724 8.02017C30.0459 8.04786 30.0832 8.12946 30.0558 8.20294C30.0348 8.25906 29.9801 8.29451 29.9233 8.29451ZM18.1249 8.27678C18.0673 8.27678 18.013 8.24097 17.9923 8.18448C17.965 8.11063 18.0019 8.0294 18.0758 8.00208C18.2981 7.91974 18.5251 7.84109 18.7511 7.76761C18.8261 7.74435 18.9054 7.7846 18.9294 7.85918C18.9534 7.93377 18.9125 8.01389 18.8386 8.03752C18.6156 8.10952 18.3926 8.18706 18.1744 8.26755C18.1577 8.2742 18.1411 8.27678 18.1249 8.27678ZM28.5745 7.85402C28.5616 7.85402 28.549 7.85217 28.5361 7.84848C28.3112 7.78534 28.0823 7.72663 27.8552 7.67309C27.7792 7.655 27.7315 7.57894 27.7496 7.50288C27.7677 7.42608 27.8441 7.37918 27.9202 7.39691C28.1513 7.45192 28.384 7.51137 28.6121 7.57488C28.6878 7.59666 28.7318 7.67457 28.7107 7.75026C28.6934 7.8134 28.6365 7.85402 28.5745 7.85402ZM19.4729 7.84109C19.4109 7.84109 19.3541 7.79974 19.3367 7.73734C19.3157 7.66128 19.36 7.58337 19.4353 7.56269C19.6635 7.49882 19.8968 7.43974 20.1283 7.38583C20.204 7.36848 20.2805 7.41574 20.2982 7.4918C20.3159 7.56823 20.2686 7.64429 20.1922 7.66201C19.9651 7.71481 19.7358 7.77315 19.5113 7.83555C19.4988 7.83925 19.4855 7.84109 19.4729 7.84109ZM27.1947 7.52983C27.1862 7.52983 27.1769 7.52909 27.1681 7.52725C26.9388 7.48331 26.7058 7.4438 26.4754 7.40983C26.3979 7.39838 26.3443 7.32602 26.3558 7.24848C26.3676 7.17131 26.44 7.11814 26.5175 7.12958C26.7512 7.16429 26.9883 7.20417 27.2216 7.24848C27.2984 7.26325 27.349 7.33746 27.3346 7.41463C27.3213 7.48257 27.2615 7.52983 27.1947 7.52983ZM20.8535 7.5206C20.7867 7.5206 20.7272 7.4726 20.7143 7.40503C20.6999 7.32823 20.7509 7.25402 20.8277 7.23962C21.061 7.19568 21.2981 7.1558 21.5325 7.12257C21.6101 7.11149 21.6817 7.16466 21.6931 7.2422C21.7046 7.31974 21.651 7.39174 21.5735 7.40281C21.3427 7.43641 21.1094 7.47518 20.8801 7.51838C20.8709 7.51986 20.862 7.5206 20.8535 7.5206ZM25.7931 7.32232C25.7883 7.32232 25.7835 7.32195 25.7779 7.32159C25.5468 7.29685 25.3112 7.27728 25.0779 7.26214C24.9996 7.25734 24.9401 7.19051 24.9453 7.11186C24.9505 7.03395 25.0184 6.97414 25.096 6.97968C25.333 6.99445 25.5726 7.01475 25.8078 7.03949C25.8857 7.04799 25.9422 7.1174 25.9341 7.19531C25.9264 7.26805 25.8651 7.32232 25.7931 7.32232ZM22.2555 7.31715C22.1835 7.31715 22.1222 7.26251 22.1144 7.18977C22.1067 7.11186 22.1635 7.04208 22.2414 7.03432C22.4759 7.01032 22.7155 6.99075 22.9533 6.97635C23.032 6.97118 23.0992 7.03063 23.1036 7.10891C23.1084 7.18719 23.0486 7.25438 22.9707 7.25918C22.7366 7.27321 22.5014 7.29241 22.2706 7.31568C22.2654 7.31678 22.2603 7.31715 22.2555 7.31715ZM24.3793 7.2326C24.3782 7.2326 24.3767 7.2326 24.3756 7.2326C24.1422 7.22743 23.9063 7.22706 23.6729 7.23149C23.5939 7.23038 23.5297 7.17094 23.5282 7.09229C23.5267 7.01402 23.5888 6.9494 23.6674 6.94792C23.9052 6.94312 24.1448 6.94349 24.3822 6.94903C24.4601 6.95051 24.5222 7.01549 24.5207 7.09377C24.5189 7.17094 24.4557 7.2326 24.3793 7.2326Z" fill="#333333"/>
</g>
<g id="Group_3">
<g id="Group_4">
<path id="Vector_3" d="M30.3424 21.9321L23.6911 24.9417L17.0391 21.9321C17.0391 21.9321 17.0391 29.5054 17.0391 29.5198C17.0391 30.0763 20.0173 30.5275 23.6908 30.5275C27.3642 30.5275 30.3424 30.0759 30.3424 29.5198C30.3421 29.5054 30.3424 21.9321 30.3424 21.9321Z" fill="#333333"/>
</g>
<g id="Group_5">
<path id="Vector_4" d="M30.3421 21.9321C30.3421 21.9321 30.3421 22.6141 30.3421 23.5675L23.6896 26.5752L17.0391 23.5656C17.0391 22.6134 17.0391 21.9321 17.0391 21.9321L23.6911 24.9421L30.3421 21.9321Z" fill="#333333"/>
</g>
<g id="Group_6">
<g id="Group_7">
<path id="Vector_5" d="M23.6885 24.2453V24.9446L12.1943 20.3403V19.7045L12.1988 19.7019L23.6885 24.2453Z" fill="#757575"/>
</g>
<g id="Group_8">
<path id="Vector_6" d="M23.6889 24.2463L12.1943 19.7011L23.7738 15.2341L34.97 19.7051L23.6889 24.2463Z" fill="#333333"/>
</g>
<g id="Group_9">
<g id="Group_10">
<path id="Vector_7" d="M34.8218 20.1582H34.1494V27.2175H34.8218V20.1582Z" fill="#333333"/>
</g>
<g id="Group_11">
<path id="Vector_8" d="M35.5505 27.4701C35.5505 26.8819 35.0746 26.4056 34.486 26.4056C33.8982 26.4056 33.4219 26.8819 33.4219 27.4701C33.4219 28.0572 33.8982 28.535 34.486 28.535C35.0746 28.535 35.5505 28.0572 35.5505 27.4701Z" fill="#333333"/>
</g>
</g>
<g id="Group_12">
<path id="Vector_9" d="M35.2849 28.0039H33.9413C33.7164 28.6046 33.2191 30.2566 33.5015 32.5203C33.5015 32.6558 33.9989 32.7659 34.6114 32.7659C35.2244 32.7659 35.7213 32.6558 35.7213 32.5203C36.0034 30.2562 35.5087 28.6046 35.2849 28.0039Z" fill="#333333"/>
</g>
<g id="Group_13">
<path id="Vector_10" d="M23.6895 24.2453L23.6898 24.9446L34.9706 20.3403V19.7045L34.9654 19.7019L23.6898 24.2453H23.6895Z" fill="#B2B2B2"/>
</g>
</g>
</g>
</g>
<g id="Group_14">
<g id="Group_15">
<g id="Group_16">
<g id="XMLID_259_">
<path id="Vector_11" d="M13.9519 27.9884H3.79883V31.0109H13.9519V27.9884Z" fill="#FF916E"/>
</g>
<g id="XMLID_257_">
<g id="Group_17">
<path id="Vector_12" d="M13.9519 29.4989H3.79883V31.0102H13.9519V29.4989Z" fill="#FF916E"/>
</g>
</g>
<g id="Group_18">
<path id="Vector_13" d="M12.6214 27.9884H12.2422V31.0109H12.6214V27.9884Z" fill="#333333"/>
</g>
<g id="Group_19">
<path id="Vector_14" d="M10.8124 27.9884H10.4336V31.0109H10.8124V27.9884Z" fill="#333333"/>
</g>
<g id="Group_20">
<path id="Vector_15" d="M4.87041 27.9884H4.49121V31.0109H4.87041V27.9884Z" fill="#333333"/>
</g>
<g id="Group_21">
<g id="Group_22">
<path id="Vector_16" fill-rule="evenodd" clip-rule="evenodd" d="M11.4957 28.9906C11.335 28.9906 11.2051 28.8606 11.2051 28.6996C11.2051 28.539 11.3354 28.4091 11.4957 28.4091C11.6566 28.4091 11.7866 28.5394 11.7866 28.6996C11.7866 28.8603 11.6563 28.9906 11.4957 28.9906Z" fill="#333333"/>
</g>
<g id="Group_23" opacity="0.6">
<path id="Vector_17" fill-rule="evenodd" clip-rule="evenodd" d="M11.4957 29.7899C11.335 29.7899 11.2051 29.6596 11.2051 29.4993C11.2051 29.3383 11.3354 29.2084 11.4957 29.2084C11.6566 29.2084 11.7866 29.3387 11.7866 29.4993C11.7866 29.6596 11.6563 29.7899 11.4957 29.7899Z" fill="#333333"/>
</g>
<g id="Group_24" opacity="0.2">
<path id="Vector_18" fill-rule="evenodd" clip-rule="evenodd" d="M11.4957 30.5897C11.335 30.5897 11.2051 30.4594 11.2051 30.2988C11.2051 30.1385 11.3354 30.0082 11.4957 30.0082C11.6566 30.0082 11.7866 30.1385 11.7866 30.2988C11.7866 30.4594 11.6563 30.5897 11.4957 30.5897Z" fill="#333333"/>
</g>
</g>
</g>
<g id="Group_25">
<g id="XMLID_218_">
<path id="Vector_19" d="M3.28238 33.7968L3.27734 35.9867L14.4724 36.0124L14.4775 33.8225L3.28238 33.7968Z" fill="#ADEBF6"/>
</g>
<g id="Group_26">
<g id="Group_27">
<path id="Vector_20" fill-rule="evenodd" clip-rule="evenodd" d="M14.4728 36.0133L14.4739 35.1213L3.27956 35.0563L3.27734 35.9882L14.4728 36.0133Z" fill="#ADEBF6"/>
</g>
</g>
<g id="Group_28">
<path id="Vector_21" d="M12.9244 33.8202L12.9189 36.0101L13.2457 36.0109L13.2512 33.821L12.9244 33.8202Z" fill="#FF916E"/>
</g>
<g id="Group_29">
<path id="Vector_22" d="M11.7921 33.8152L11.7871 36.0051L12.1142 36.0059L12.1193 33.816L11.7921 33.8152Z" fill="#FF916E"/>
</g>
<g id="Group_30">
<path id="Vector_23" d="M10.7026 34.633L10.4189 34.9148L10.7008 35.1985L10.9845 34.9166L10.7026 34.633Z" fill="#333333"/>
</g>
<g id="Group_31">
<path id="Vector_24" d="M10.0253 34.6179L9.74219 34.9003L10.0243 35.1831L10.3074 34.9007L10.0253 34.6179Z" fill="#333333"/>
</g>
</g>
<g id="Group_32">
<g id="XMLID_217_">
<path id="Vector_25" d="M3.28019 25.7871L3.27734 27.9767L14.4724 27.9912L14.4753 25.8017L3.28019 25.7871Z" fill="#B2B2B2"/>
</g>
<g id="Group_33">
<path id="Vector_26" fill-rule="evenodd" clip-rule="evenodd" d="M14.4724 27.9913L14.4732 27.0996L3.27845 27.046L3.27734 27.9776L14.4724 27.9913Z" fill="#B2B2B2"/>
</g>
<g id="Group_34">
<path id="Vector_27" d="M12.9208 25.7983L12.918 27.9878L13.2447 27.9882L13.2476 25.7987L12.9208 25.7983Z" fill="#ADEBF6"/>
</g>
<g id="Group_35">
<path id="Vector_28" d="M11.7915 25.795L11.7891 27.9849L12.1158 27.9852L12.1182 25.7953L11.7915 25.795Z" fill="#ADEBF6"/>
</g>
<g id="Group_36">
<path id="Vector_29" d="M10.7019 26.6128L10.4189 26.8954L10.7015 27.1783L10.9845 26.8957L10.7019 26.6128Z" fill="#333333"/>
</g>
<g id="Group_37">
<path id="Vector_30" d="M10.025 26.6019L9.74219 26.884L10.0246 27.1671L10.3074 26.885L10.025 26.6019Z" fill="#333333"/>
</g>
</g>
<g id="Group_38">
<g id="XMLID_216_">
<path id="Vector_31" d="M13.7207 33.8131V31.0239L4.0343 31.0239V33.8131H13.7207Z" fill="#E0E0E0"/>
</g>
<g id="XMLID_215_">
<path id="Vector_32" d="M13.7207 33.8137V32.4471H4.0343V33.8137H13.7207Z" fill="#B2B2B2"/>
</g>
<g id="XMLID_214_">
<path id="Vector_33" d="M12.4675 31.0244H9.6709V33.8136H12.4675V31.0244Z" fill="#FF916E"/>
</g>
<g id="Group_39">
<g id="Group_40">
<path id="Vector_34" fill-rule="evenodd" clip-rule="evenodd" d="M10.2021 31.911C10.0411 31.911 9.91113 31.7807 9.91113 31.6204C9.91113 31.4594 10.0411 31.3295 10.2021 31.3295C10.3627 31.3295 10.4927 31.4598 10.4927 31.6204C10.4927 31.7807 10.3627 31.911 10.2021 31.911Z" fill="#333333"/>
</g>
<g id="Group_41" opacity="0.6">
<path id="Vector_35" fill-rule="evenodd" clip-rule="evenodd" d="M10.2021 32.7108C10.0411 32.7108 9.91113 32.5805 9.91113 32.4199C9.91113 32.2592 10.0411 32.1293 10.2021 32.1293C10.3627 32.1293 10.4927 32.2596 10.4927 32.4199C10.4927 32.5805 10.3627 32.7108 10.2021 32.7108Z" fill="#333333"/>
</g>
<g id="Group_42" opacity="0.2">
<path id="Vector_36" fill-rule="evenodd" clip-rule="evenodd" d="M10.2021 33.5096C10.0411 33.5096 9.91113 33.3793 9.91113 33.2187C9.91113 33.0581 10.0411 32.9281 10.2021 32.9281C10.3627 32.9281 10.4927 33.0584 10.4927 33.2187C10.4927 33.3793 10.3627 33.5096 10.2021 33.5096Z" fill="#333333"/>
</g>
</g>
<g id="XMLID_213_">
<path id="Vector_37" d="M12.3398 33.5762V31.2607H12.074V33.5762H12.3398Z" fill="white"/>
</g>
<g id="XMLID_212_">
<path id="Vector_38" d="M11.8633 33.2232V31.6138H11.5974V33.2232H11.8633Z" fill="white"/>
</g>
</g>
</g>
<g id="Group_43">
<g id="XMLID_181_">
<g id="XMLID_210_">
<path id="Vector_39" d="M27.5789 33.1802H17.7559V43.0032H27.5789V33.1802Z" fill="white"/>
</g>
<g id="XMLID_766_">
<g id="XMLID_201_">
<g id="XMLID_272_">
<path id="Vector_40" d="M26.793 42.2153V33.9641H26.6556V42.2153H26.793Z" fill="#D1D1D1"/>
</g>
<g id="XMLID_793_">
<path id="Vector_41" d="M26.1172 42.2153V33.9641H25.9795V42.2153H26.1172Z" fill="#D1D1D1"/>
</g>
<g id="XMLID_271_">
<path id="Vector_42" d="M25.4424 42.2153V33.9641H25.305V42.2153H25.4424Z" fill="#D1D1D1"/>
</g>
<g id="XMLID_208_">
<path id="Vector_43" d="M24.7646 42.2153V33.9641H24.6269V42.2153H24.7646Z" fill="#D1D1D1"/>
</g>
<g id="XMLID_206_">
<path id="Vector_44" d="M24.0898 42.2153V33.9641H23.9521V42.2153H24.0898Z" fill="#D1D1D1"/>
</g>
<g id="XMLID_205_">
<path id="Vector_45" d="M23.4141 42.2153V33.9641H23.2767V42.2153H23.4141Z" fill="#D1D1D1"/>
</g>
<g id="XMLID_270_">
<path id="Vector_46" d="M22.0615 42.2163V33.9651H21.9238V42.2163H22.0615Z" fill="#D1D1D1"/>
</g>
<g id="XMLID_204_">
<path id="Vector_47" d="M22.7363 42.2153V33.9641H22.599V42.2153H22.7363Z" fill="#D1D1D1"/>
</g>
<g id="XMLID_786_">
<path id="Vector_48" d="M21.3838 42.2153V33.9641H21.2464V42.2153H21.3838Z" fill="#D1D1D1"/>
</g>
<g id="XMLID_269_">
<path id="Vector_49" d="M20.708 42.2153V33.9641H20.5703V42.2153H20.708Z" fill="#D1D1D1"/>
</g>
<g id="XMLID_203_">
<path id="Vector_50" d="M20.0312 42.2153V33.9641H19.8935V42.2153H20.0312Z" fill="#D1D1D1"/>
</g>
<g id="XMLID_783_">
<path id="Vector_51" d="M19.3555 42.2153V33.9641H19.2177V42.2153H19.3555Z" fill="#D1D1D1"/>
</g>
<g id="XMLID_202_">
<path id="Vector_52" d="M18.6807 42.2153V33.9641H18.5433V42.2153H18.6807Z" fill="#D1D1D1"/>
</g>
</g>
<g id="XMLID_188_">
<g id="XMLID_198_">
<path id="Vector_53" d="M18.5427 42.2161H26.7939V42.0787H18.5427V42.2161Z" fill="#D1D1D1"/>
</g>
<g id="XMLID_197_">
<path id="Vector_54" d="M18.5427 41.5402H26.7939V41.4024H18.5427V41.5402Z" fill="#D1D1D1"/>
</g>
<g id="XMLID_196_">
<path id="Vector_55" d="M18.5427 40.8646H26.7939V40.7269H18.5427V40.8646Z" fill="#D1D1D1"/>
</g>
<g id="XMLID_195_">
<path id="Vector_56" d="M18.5427 40.188H26.7939V40.0506H18.5427V40.188Z" fill="#D1D1D1"/>
</g>
<g id="XMLID_776_">
<path id="Vector_57" d="M18.5427 39.5122H26.7939V39.3749H18.5427V39.5122Z" fill="#D1D1D1"/>
</g>
<g id="XMLID_194_">
<path id="Vector_58" d="M18.5427 38.8356H26.7939V38.6979H18.5427V38.8356Z" fill="#D1D1D1"/>
</g>
<g id="XMLID_193_">
<path id="Vector_59" d="M18.5427 37.4827H26.7939V37.3453H18.5427V37.4827Z" fill="#D1D1D1"/>
</g>
<g id="XMLID_773_">
<path id="Vector_60" d="M18.5427 38.1589H26.7939V38.0216H18.5427V38.1589Z" fill="#D1D1D1"/>
</g>
<g id="XMLID_772_">
<path id="Vector_61" d="M18.5427 36.807H26.7939V36.6693H18.5427V36.807Z" fill="#D1D1D1"/>
</g>
<g id="XMLID_192_">
<path id="Vector_62" d="M18.5427 36.1307H26.7939V35.993H18.5427V36.1307Z" fill="#D1D1D1"/>
</g>
<g id="XMLID_191_">
<path id="Vector_63" d="M18.5427 35.4548H26.7939V35.3175H18.5427V35.4548Z" fill="#D1D1D1"/>
</g>
<g id="XMLID_190_">
<path id="Vector_64" d="M18.5427 34.7789H26.7939V34.6412H18.5427V34.7789Z" fill="#D1D1D1"/>
</g>
<g id="XMLID_189_">
<path id="Vector_65" d="M18.5427 34.1025H26.7939V33.9652H18.5427V34.1025Z" fill="#D1D1D1"/>
</g>
</g>
</g>
<g id="Group_44">
<g id="XMLID_187_">
<g id="Group_45">
<path id="Vector_66" d="M20.2969 41.1948V40.4442H23.0008V39.1666H21.649V37.888L20.3257 36.5078L20.4796 36.3608L21.8613 37.8027V38.9543H23.2134V40.6565H20.5084V40.9825H24.4596V41.1948H20.2969Z" fill="#ADEBF6"/>
</g>
</g>
<g id="XMLID_186_">
<path id="Vector_67" d="M20.4031 36.6787C20.2465 36.6787 20.1191 36.5517 20.1191 36.3951C20.1191 36.2382 20.2465 36.1116 20.4031 36.1116C20.56 36.1116 20.6866 36.2382 20.6866 36.3951C20.6866 36.5517 20.56 36.6787 20.4031 36.6787Z" fill="#333333"/>
</g>
<g id="XMLID_761_">
<path id="Vector_68" d="M21.7552 38.1494C21.5987 38.1494 21.4717 38.0228 21.4717 37.8658C21.4717 37.7089 21.5987 37.5823 21.7552 37.5823C21.9122 37.5823 22.0396 37.7089 22.0396 37.8658C22.0396 38.0228 21.9122 38.1494 21.7552 38.1494Z" fill="#333333"/>
</g>
<g id="XMLID_185_">
<path id="Vector_69" d="M21.7552 39.3267C21.5987 39.3267 21.4717 39.1996 21.4717 39.0431C21.4717 38.8862 21.5987 38.7595 21.7552 38.7595C21.9122 38.7595 22.0396 38.8862 22.0396 39.0431C22.0396 39.1996 21.9122 39.3267 21.7552 39.3267Z" fill="#333333"/>
</g>
<g id="XMLID_184_">
<path id="Vector_70" d="M23.1072 39.3267C22.9503 39.3267 22.8232 39.1996 22.8232 39.0431C22.8232 38.8862 22.9503 38.7595 23.1072 38.7595C23.2637 38.7595 23.3907 38.8862 23.3907 39.0431C23.3907 39.1996 23.2637 39.3267 23.1072 39.3267Z" fill="#333333"/>
</g>
<g id="XMLID_183_">
<path id="Vector_71" d="M23.1072 40.7993C22.9503 40.7993 22.8232 40.6727 22.8232 40.5157C22.8232 40.3592 22.9503 40.2322 23.1072 40.2322C23.2637 40.2322 23.3907 40.3592 23.3907 40.5157C23.3907 40.6727 23.2637 40.7993 23.1072 40.7993Z" fill="#333333"/>
</g>
<g id="XMLID_182_">
<path id="Vector_72" d="M20.4031 40.7993C20.2465 40.7993 20.1191 40.6727 20.1191 40.5157C20.1191 40.3592 20.2465 40.2322 20.4031 40.2322C20.56 40.2322 20.6866 40.3592 20.6866 40.5157C20.6866 40.6727 20.56 40.7993 20.4031 40.7993Z" fill="#333333"/>
</g>
<g id="XMLID_266_">
<path id="Vector_73" d="M20.4031 41.4219C20.2465 41.4219 20.1191 41.2952 20.1191 41.1383C20.1191 40.9818 20.2465 40.8547 20.4031 40.8547C20.56 40.8547 20.6866 40.9818 20.6866 41.1383C20.6866 41.2952 20.56 41.4219 20.4031 41.4219Z" fill="#333333"/>
</g>
<g id="XMLID_755_">
<path id="Vector_74" d="M24.4594 41.4219C24.616 41.4219 24.7429 41.2949 24.7429 41.1383C24.7429 40.9817 24.616 40.8547 24.4594 40.8547C24.3027 40.8547 24.1758 40.9817 24.1758 41.1383C24.1758 41.2949 24.3027 41.4219 24.4594 41.4219Z" fill="#333333"/>
</g>
</g>
</g>
<g id="XMLID_172_">
<g id="XMLID_178_">
<path id="Vector_75" fill-rule="evenodd" clip-rule="evenodd" d="M26.9793 38.2864L22.1465 33.4107L22.851 32.701L27.6846 37.5771L26.9793 38.2864Z" fill="#FF916E"/>
</g>
<g id="XMLID_752_">
<path id="Vector_76" fill-rule="evenodd" clip-rule="evenodd" d="M27.2069 38.0576L22.374 33.1822L22.6251 32.9297L27.458 37.8054L27.2069 38.0576Z" fill="#DD5A3C"/>
</g>
<g id="XMLID_173_">
<g id="XMLID_264_">
<path id="Vector_77" fill-rule="evenodd" clip-rule="evenodd" d="M27.9055 38.4995C27.9055 38.4995 27.698 37.5879 27.6862 37.5764C27.653 37.5432 27.5721 37.5698 27.5064 37.6366C27.4458 37.6975 27.4207 37.7688 27.4429 37.8065C27.4052 37.7843 27.334 37.8102 27.2734 37.8707C27.2129 37.932 27.1881 38.0033 27.2099 38.0409C27.1722 38.0188 27.101 38.0442 27.0404 38.1055C26.9743 38.1724 26.9478 38.2525 26.9814 38.2861C26.9932 38.2972 27.9055 38.4995 27.9055 38.4995Z" fill="white"/>
</g>
<g id="XMLID_176_">
<path id="Vector_78" fill-rule="evenodd" clip-rule="evenodd" d="M27.7993 38.0592L27.4629 38.3978L27.9038 38.5001L27.7993 38.0592Z" fill="#333333"/>
</g>
</g>
</g>
</g>
<g id="Group_46">
<g id="Group_47">
<path id="Vector_79" d="M20.6793 12.4888C20.6793 13.3281 19.9988 14.0082 19.1595 14.0082H14.6242C13.785 14.0082 13.1045 13.3281 13.1045 12.4888V5.79209C13.1045 4.95283 13.7854 4.27271 14.6242 4.27271H19.1591C19.9984 4.27271 20.6789 4.95283 20.6789 5.79209V12.4888H20.6793Z" fill="#757575"/>
</g>
<g id="Group_48">
<path id="Vector_80" d="M20.0153 5.08704H13.7295V6.38747H20.0153V5.08704Z" fill="white"/>
</g>
<g id="Group_49">
<path id="Vector_81" d="M14.6751 7.50916H13.7295V8.45476H14.6751V7.50916Z" fill="#333333"/>
</g>
<g id="Group_50">
<path id="Vector_82" d="M14.6751 8.68018H13.7295V9.62504H14.6751V8.68018Z" fill="#333333"/>
</g>
<g id="Group_51">
<path id="Vector_83" d="M14.6751 9.84998H13.7295V10.7952H14.6751V9.84998Z" fill="#333333"/>
</g>
<g id="Group_52">
<path id="Vector_84" d="M14.6751 11.0197H13.7295V11.9649H14.6751V11.0197Z" fill="#333333"/>
</g>
<g id="Group_53">
<path id="Vector_85" d="M15.8456 7.50903H14.9004V8.45463H15.8456V7.50903Z" fill="#333333"/>
</g>
<g id="Group_54">
<path id="Vector_86" d="M15.8456 8.68018H14.9004V9.62504H15.8456V8.68018Z" fill="#333333"/>
</g>
<g id="Group_55">
<path id="Vector_87" d="M15.8456 9.84985H14.9004V10.7951H15.8456V9.84985Z" fill="#333333"/>
</g>
<g id="Group_56">
<path id="Vector_88" d="M15.8456 11.0198H14.9004V11.965H15.8456V11.0198Z" fill="#333333"/>
</g>
<g id="Group_57">
<path id="Vector_89" d="M16.9788 7.50903H16.0332V8.45463H16.9788V7.50903Z" fill="#333333"/>
</g>
<g id="Group_58">
<path id="Vector_90" d="M16.9788 8.68018H16.0332V9.62504H16.9788V8.68018Z" fill="#333333"/>
</g>
<g id="Group_59">
<path id="Vector_91" d="M16.9788 9.84985H16.0332V10.7951H16.9788V9.84985Z" fill="#333333"/>
</g>
<g id="Group_60">
<path id="Vector_92" d="M18.7767 9.84998H17.8311V10.7952H18.7767V9.84998Z" fill="#333333"/>
</g>
<g id="Group_61">
<path id="Vector_93" d="M19.9087 9.84985H18.9639V10.7951H19.9087V9.84985Z" fill="#333333"/>
</g>
<g id="Group_62">
<path id="Vector_94" d="M18.7767 8.68018H17.8311V9.62504H18.7767V8.68018Z" fill="#333333"/>
</g>
<g id="Group_63">
<path id="Vector_95" d="M19.9087 8.68018H18.9639V9.62504H19.9087V8.68018Z" fill="#333333"/>
</g>
<g id="Group_64">
<path id="Vector_96" d="M18.7767 7.50916H17.8311V8.45476H18.7767V7.50916Z" fill="#333333"/>
</g>
<g id="Group_65">
<path id="Vector_97" d="M19.9087 7.50903H18.9639V8.45463H19.9087V7.50903Z" fill="#333333"/>
</g>
<g id="Group_66">
<path id="Vector_98" d="M16.9788 11.0198H16.0332V11.965H16.9788V11.0198Z" fill="#333333"/>
</g>
<g id="Group_67">
<path id="Vector_99" d="M14.6751 12.1659H13.7295V13.1111H14.6751V12.1659Z" fill="#333333"/>
</g>
<g id="Group_68">
<path id="Vector_100" d="M15.8456 12.1658H14.9004V13.111H15.8456V12.1658Z" fill="#333333"/>
</g>
<g id="Group_69">
<path id="Vector_101" d="M16.9788 12.1658H16.0332V13.111H16.9788V12.1658Z" fill="#333333"/>
</g>
<g id="Group_70">
<path id="Vector_102" d="M19.9699 12.1536H17.7686V13.0988H19.9699V12.1536Z" fill="#FF916E"/>
</g>
<g id="Group_71">
<path id="Vector_103" d="M19.9699 10.9128H17.7686V11.8581H19.9699V10.9128Z" fill="#ADEBF6"/>
</g>
</g>
<g id="Group_72">
<g id="Group_73">
<path id="Vector_104" d="M13.5391 16.1847C12.6304 16.1847 11.7763 15.8313 11.1335 15.1888C10.4914 14.5468 10.1377 13.692 10.1377 12.7837C10.1377 11.8754 10.4914 11.0213 11.1335 10.3785C11.776 9.73642 12.6304 9.38232 13.5391 9.38232C14.4477 9.38232 15.3014 9.73642 15.9442 10.3785C16.5863 11.021 16.9404 11.8754 16.9404 12.7837C16.9404 13.692 16.5863 14.5464 15.9442 15.1888C15.3018 15.8313 14.4477 16.1847 13.5391 16.1847ZM13.5391 10.3752C12.8959 10.3752 12.2907 10.6259 11.8354 11.0808C11.3809 11.5353 11.1306 12.1405 11.1306 12.7837C11.1306 13.4272 11.3813 14.032 11.8354 14.4869C12.2907 14.9418 12.8959 15.1922 13.5391 15.1922C14.1819 15.1922 14.7871 14.9418 15.2423 14.4869C15.6965 14.0317 15.9472 13.4272 15.9472 12.7837C15.9472 12.1405 15.6965 11.5353 15.2423 11.0808C14.7871 10.6255 14.1819 10.3752 13.5391 10.3752Z" fill="#B2B2B2"/>
</g>
<g id="Group_74">
<path id="Vector_105" d="M11.1324 14.4859L6.96875 18.6519L7.67074 19.3534L11.8344 15.1875L11.1324 14.4859Z" fill="#B2B2B2"/>
</g>
</g>
<g id="Group_75">
<g id="Group_76">
<path id="Vector_106" d="M31.0557 13.8452V14.1845C31.0557 14.3721 31.2037 14.5239 31.3865 14.5239H44.3978C44.5813 14.5239 44.7294 14.3721 44.7294 14.1845V13.8452H31.0557Z" fill="white"/>
</g>
<g id="Group_77">
<path id="Vector_107" d="M44.0976 13.8455V6.66729C44.0976 6.26778 43.7815 5.94434 43.3912 5.94434H32.3948C32.0049 5.94434 31.6885 6.26778 31.6885 6.66729V13.8455H44.0976Z" fill="#686868"/>
</g>
<g id="Group_78">
<path id="Vector_108" d="M43.4787 6.62939H32.3018V13.2907H43.4787V6.62939Z" fill="#E6E6E6"/>
</g>
<g id="Group_79">
<path id="Vector_109" d="M38.073 6.28937C38.073 6.39238 37.9914 6.47583 37.891 6.47583C37.7906 6.47583 37.709 6.39238 37.709 6.28937C37.709 6.18672 37.7906 6.10254 37.891 6.10254C37.9918 6.10254 38.073 6.18672 38.073 6.28937Z" fill="white"/>
</g>
</g>
<g id="XMLID_170_">
<g id="XMLID_275_">
<g id="XMLID_277_">
<path id="Vector_110" d="M33.7494 43.9303C33.1959 43.9303 31.7112 43.937 30.9661 43.5519C29.3238 42.7015 27.4522 43.711 27.4355 44.9841H33.1402L33.7494 43.9303Z" fill="white"/>
</g>
</g>
<g id="XMLID_273_">
<g id="XMLID_274_">
<path id="Vector_111" d="M22.0508 43.9303C22.6043 43.9303 24.0886 43.937 24.8337 43.5519C26.4764 42.7015 28.3476 43.711 28.3643 44.9841H22.6596L22.0508 43.9303Z" fill="white"/>
</g>
</g>
<g id="XMLID_171_">
<path id="Vector_112" d="M33.3881 44.7845V45.2756H28.395C28.3699 45.3487 28.3004 45.4015 28.2192 45.4015H27.5103C27.428 45.4015 27.3589 45.3487 27.3342 45.2756H22.3418V44.7845H27.3253C27.3249 44.7897 27.3246 44.7945 27.3246 44.7997C27.3246 44.902 27.4084 44.9854 27.5107 44.9854H28.2196C28.3219 44.9854 28.4049 44.902 28.4049 44.7997C28.4049 44.7945 28.4046 44.7897 28.4042 44.7845H33.3881Z" fill="#333333"/>
</g>
</g>
<g id="Group_80">
<g id="Group_81">
<path id="Vector_113" d="M42.8776 29.2896H38.2005C38.0119 29.2896 37.8594 29.442 37.8594 29.6311V35.788C37.8594 35.9763 38.0119 36.1288 38.2005 36.1288H42.8776C43.0655 36.1288 43.2184 35.9763 43.2184 35.788V29.6311C43.2184 29.442 43.0655 29.2896 42.8776 29.2896Z" fill="#333333"/>
</g>
<g id="Group_82">
<path id="Vector_114" d="M40.5387 35.9555C40.463 35.9555 40.4014 35.8942 40.4014 35.8189C40.4014 35.7424 40.463 35.6815 40.5387 35.6815C40.6148 35.6815 40.6753 35.7424 40.6753 35.8189C40.6753 35.8942 40.6148 35.9555 40.5387 35.9555Z" fill="white"/>
</g>
<g id="Group_83">
<path id="Vector_115" d="M42.6102 29.951H38.4678V35.4677H42.6102V29.951Z" fill="white"/>
</g>
<g id="Group_84">
<g id="Group_85">
<g id="Group_86">
<path id="Vector_116" d="M40.4309 32.8168V31.0541C39.5676 31.1117 38.8838 31.8287 38.8838 32.7068C38.8838 33.6221 39.6259 34.3646 40.5413 34.3646C41.42 34.3646 42.1371 33.6812 42.1939 32.8172H40.4309V32.8168Z" fill="#FF916E"/>
</g>
<g id="Group_87">
<path id="Vector_117" d="M40.7168 32.5963H42.0855C42.0479 32.0661 41.7418 31.6097 41.3039 31.3605L40.7168 32.5963Z" fill="#FFDB76"/>
</g>
<g id="Group_88">
<path id="Vector_118" d="M40.6523 31.1627V32.2161L41.105 31.2639C40.9599 31.207 40.8085 31.1734 40.6523 31.1627Z" fill="#ADEBF6"/>
</g>
</g>
</g>
</g>
</g>
</g>
</g>
<defs>
<clipPath id="clip0_23501_10349">
<rect width="48" height="48" fill="white"/>
</clipPath>
</defs>
</svg>
