<svg width="48" height="48" viewBox="0 0 48 48" fill="none" xmlns="http://www.w3.org/2000/svg">
<path d="M15.4697 16.4854L16.1018 27.0054L24.0006 19.9541L15.4697 16.4854Z" fill="#E0EBFC"/>
<path d="M23.9994 30.2235L16.1006 27.0054L23.9994 19.9541V30.2235Z" fill="#F9A7A7"/>
<path d="M16.1006 27.0054L16.2262 37.1727L23.9994 30.2234L16.1006 27.0054Z" fill="#4671C6"/>
<path d="M16.1012 27.0054L8.58789 23.748L15.4691 16.4854L16.1012 27.0054Z" fill="#6BDDDD"/>
<path d="M16.1012 27.0055L8.58789 34.0699V23.748L16.1012 27.0055Z" fill="#A4C9FF"/>
<path d="M8.58839 23.7479L2.17326 30.5186C1.88582 30.8219 1.98745 31.3381 2.36564 31.4945L8.58839 34.0696V23.7479Z" fill="#F9A7A7"/>
<path d="M8.58789 34.0699L16.2268 37.1729L16.1012 27.0055L8.58789 34.0699Z" fill="#6BDDDD"/>
<path d="M32.5309 16.4854L31.8988 27.0054L24 19.9541L32.5309 16.4854Z" fill="#6BDDDD"/>
<path d="M24 30.2235L31.8988 27.0054L24 19.9541V30.2235Z" fill="#A4C9FF"/>
<path d="M31.8988 27.0055L31.7732 37.1729L24 30.2236L31.8988 27.0055Z" fill="#4671C6"/>
<path d="M31.8994 27.0054L39.4127 23.748L32.5315 16.4854L31.8994 27.0054Z" fill="#F9A7A7"/>
<path d="M31.8994 27.0054L39.4127 34.0698V23.7479L31.8994 27.0054Z" fill="#A4C9FF"/>
<path d="M39.4121 23.748L45.8272 30.5187C46.1147 30.822 46.013 31.3382 45.6349 31.4946L39.4121 34.0697V23.748Z" fill="#6BDDDD"/>
<path d="M39.4124 34.0698L31.7734 37.1727L31.8991 27.0054L39.4124 34.0698Z" fill="#F9A7A7"/>
<path d="M24.3971 7.90111C24.2874 7.78523 24.1436 7.72729 24 7.72729V19.954L32.5309 16.4852L24.3971 7.90111Z" fill="#4671C6"/>
<path d="M23.6035 7.90099C23.7132 7.78511 23.857 7.72717 24.0006 7.72717V19.9539L15.4697 16.4851L23.6035 7.90099Z" fill="#F9A7A7"/>
<path d="M16.2266 37.1729L23.5936 40.1924C23.7243 40.246 23.8621 40.2728 23.9999 40.2728V30.2238L16.2266 37.1729Z" fill="#F9A7A7"/>
<path d="M24.4063 40.1923L31.7734 37.1728L24 30.2235V40.2726C24.1378 40.2726 24.2756 40.2458 24.4063 40.1923Z" fill="#E0EBFC"/>
<path d="M16.1017 27.391C16.0522 27.391 16.0023 27.3815 15.9547 27.362C15.818 27.3055 15.7255 27.176 15.7165 27.0284L15.0847 16.5085C15.0768 16.3762 15.1372 16.2492 15.2448 16.172C15.3526 16.0947 15.4921 16.078 15.6149 16.1281L24.1458 19.5969C24.2692 19.6469 24.3579 19.7572 24.3805 19.8884C24.4032 20.0197 24.3567 20.1534 24.2574 20.242L16.3585 27.2932C16.2867 27.3575 16.1949 27.391 16.1017 27.391ZM15.8917 17.0733L16.4392 26.1869L23.2822 20.0784L15.8917 17.0733Z" fill="#3762CC"/>
<path d="M23.9994 30.6094C23.9501 30.6094 23.9007 30.6001 23.8539 30.581L15.9551 27.3627C15.8319 27.3125 15.7432 27.2024 15.7205 27.0711C15.6978 26.9399 15.7443 26.8064 15.8437 26.7177L23.7425 19.6666C23.8557 19.5651 24.0183 19.54 24.1571 19.6023C24.2958 19.6645 24.3852 19.8023 24.3852 19.9544V30.2238C24.3852 30.3522 24.3213 30.4722 24.2146 30.544C24.1501 30.5871 24.0749 30.6094 23.9994 30.6094ZM16.8187 26.8816L23.6137 29.65V20.8159L16.8187 26.8816Z" fill="#3762CC"/>
<path d="M16.2272 37.5588C16.1747 37.5588 16.1218 37.5481 16.0719 37.5261C15.9335 37.4652 15.8434 37.3291 15.8415 37.1778L15.7159 27.0102C15.7142 26.881 15.7775 26.7595 15.8842 26.6866C15.9911 26.6136 16.1276 26.5992 16.247 26.6481L24.1459 29.8664C24.269 29.9166 24.3577 30.0267 24.3804 30.1579C24.4031 30.289 24.3566 30.4227 24.2574 30.5112L16.484 37.4605C16.4122 37.525 16.3204 37.5588 16.2272 37.5588ZM16.4945 27.5821L16.6025 36.3199L23.2828 30.3477L16.4945 27.5821Z" fill="#3762CC"/>
<path d="M16.1011 27.3911C16.0492 27.3911 15.9969 27.3806 15.9478 27.3592L8.43446 24.1018C8.31896 24.0517 8.23514 23.9484 8.21002 23.825C8.18471 23.7016 8.22127 23.5738 8.30789 23.4825L15.1893 16.2198C15.2951 16.1083 15.4567 16.07 15.6015 16.1227C15.746 16.1752 15.8454 16.3085 15.8546 16.4621L16.4865 26.982C16.4945 27.1158 16.4325 27.2443 16.3226 27.3211C16.2564 27.3675 16.179 27.3911 16.1011 27.3911ZM9.24689 23.6133L15.6783 26.4016L15.1374 17.3966L9.24689 23.6133Z" fill="#3762CC"/>
<path d="M8.58784 34.4558C8.53627 34.4558 8.48415 34.4454 8.43484 34.4241C8.29365 34.3629 8.20215 34.2238 8.20215 34.0699V23.748C8.20215 23.6181 8.26759 23.4968 8.37634 23.4255C8.48509 23.3543 8.62234 23.3424 8.7414 23.3942L16.2547 26.6516C16.3738 26.7032 16.4589 26.8114 16.4812 26.9393C16.5035 27.0671 16.46 27.1976 16.3655 27.2867L8.85221 34.3511C8.77927 34.4196 8.68421 34.4558 8.58784 34.4558ZM8.97371 24.3358V33.1776L15.4096 27.126L8.97371 24.3358Z" fill="#3762CC"/>
<path d="M8.58769 34.4558C8.53781 34.4558 8.48757 34.446 8.44013 34.4265L2.21738 31.8514C1.92563 31.7306 1.71132 31.4691 1.64363 31.152C1.57425 30.8271 1.66725 30.4911 1.89244 30.2535L8.30756 23.4829C8.41631 23.3681 8.58375 23.3314 8.73038 23.3899C8.877 23.4484 8.97338 23.5903 8.97338 23.7482V34.0701C8.97338 34.1989 8.90906 34.3193 8.802 34.3907C8.73769 34.4336 8.66288 34.4558 8.58769 34.4558ZM8.20181 24.7161L2.4525 30.784C2.40225 30.837 2.382 30.9145 2.39813 30.991C2.40525 31.024 2.43038 31.1042 2.51232 31.1383L8.20181 33.4928V24.7161Z" fill="#3762CC"/>
<path d="M16.2258 37.5587C16.1767 37.5587 16.1274 37.5493 16.0807 37.5304L8.44175 34.4274C8.32006 34.3779 8.23175 34.2699 8.20775 34.1407C8.18356 34.0116 8.22706 33.879 8.32268 33.789L15.836 26.7246C15.9476 26.6198 16.1103 26.5909 16.2511 26.6505C16.3919 26.7103 16.4842 26.8477 16.4859 27.0007L16.6115 37.1683C16.6132 37.2975 16.55 37.419 16.4433 37.4917C16.3782 37.536 16.3023 37.5587 16.2258 37.5587ZM9.28943 33.9388L15.8328 36.5968L15.7252 27.8874L9.28943 33.9388Z" fill="#3762CC"/>
<path d="M31.899 27.3911C31.8058 27.3911 31.7139 27.3573 31.6419 27.2932L23.7431 20.2421C23.6437 20.1534 23.5972 20.0197 23.6199 19.8885C23.6426 19.7572 23.7313 19.647 23.8547 19.5969L32.3855 16.1282C32.508 16.0781 32.6479 16.0946 32.7557 16.172C32.8633 16.2493 32.9238 16.3764 32.9158 16.5086L32.2839 27.0285C32.2751 27.176 32.1825 27.3056 32.0458 27.362C31.9983 27.3817 31.9485 27.3911 31.899 27.3911ZM24.7185 20.0784L31.5615 26.187L32.109 17.0733L24.7185 20.0784Z" fill="#3762CC"/>
<path d="M23.9992 30.6094C23.9236 30.6094 23.8484 30.5871 23.7839 30.5438C23.6772 30.4721 23.6133 30.3521 23.6133 30.2235V19.9541C23.6133 19.8021 23.7027 19.6643 23.8415 19.602C23.98 19.5398 24.1424 19.5649 24.256 19.6663L32.1548 26.7175C32.2542 26.8061 32.3007 26.9398 32.278 27.0709C32.2553 27.2021 32.1667 27.3124 32.0435 27.3625L24.1447 30.5807C24.0978 30.6 24.0485 30.6094 23.9992 30.6094ZM24.385 20.8157V29.6498L31.18 26.8813L24.385 20.8157Z" fill="#3762CC"/>
<path d="M31.7726 37.5588C31.6794 37.5588 31.5875 37.525 31.5153 37.4605L23.7419 30.5112C23.6427 30.4225 23.5962 30.289 23.6189 30.1579C23.6416 30.0267 23.7303 29.9166 23.8535 29.8664L31.7523 26.6481C31.8717 26.5992 32.0082 26.6136 32.1151 26.6866C32.222 26.7593 32.2852 26.8808 32.2835 27.0102L32.1579 37.1778C32.156 37.3291 32.066 37.4652 31.9274 37.5261C31.8779 37.5481 31.8251 37.5588 31.7726 37.5588ZM24.7169 30.3477L31.3972 36.3199L31.5052 27.5821L24.7169 30.3477Z" fill="#3762CC"/>
<path d="M31.8995 27.3911C31.8215 27.3911 31.7441 27.3675 31.6782 27.3214C31.5684 27.2445 31.5063 27.1161 31.5144 26.9822L32.1462 16.4623C32.1554 16.309 32.2548 16.1756 32.3994 16.123C32.5439 16.0703 32.7056 16.1085 32.8115 16.2201L39.6929 23.4827C39.7796 23.574 39.8161 23.7019 39.7908 23.8253C39.7657 23.9486 39.6819 24.0518 39.5664 24.102L32.0531 27.3595C32.0039 27.3806 31.9516 27.3911 31.8995 27.3911ZM32.8632 17.3965L32.3223 26.4015L38.7537 23.6132L32.8632 17.3965Z" fill="#3762CC"/>
<path d="M39.4118 34.4557C39.3154 34.4557 39.2204 34.4195 39.1474 34.3509L31.6341 27.2865C31.5396 27.1974 31.4961 27.0671 31.5184 26.939C31.5408 26.811 31.6259 26.703 31.7449 26.6514L39.2583 23.394C39.3777 23.3424 39.5148 23.354 39.6233 23.4253C39.7319 23.4965 39.7975 23.6179 39.7975 23.7478V34.0697C39.7975 34.2236 39.706 34.3627 39.5648 34.4239C39.5155 34.4452 39.4634 34.4557 39.4118 34.4557ZM32.5898 27.126L39.0258 33.1776V24.3358L32.5898 27.126Z" fill="#3762CC"/>
<path d="M39.4122 34.4557C39.3371 34.4557 39.2622 34.4336 39.1977 34.3907C39.0907 34.319 39.0264 34.1989 39.0264 34.07V23.7482C39.0264 23.5903 39.1227 23.4482 39.2694 23.3899C39.4162 23.3314 39.5836 23.3683 39.6922 23.4829L46.1073 30.2535C46.3323 30.491 46.4253 30.8269 46.3561 31.152C46.2886 31.4692 46.0741 31.7306 45.7826 31.8514L39.5596 34.4267C39.5124 34.446 39.4621 34.4557 39.4122 34.4557ZM39.7981 24.716V33.4927L45.4876 31.1381C45.5696 31.1042 45.5947 31.0239 45.6016 30.9909C45.6179 30.9144 45.5977 30.837 45.5472 30.7839L39.7981 24.716Z" fill="#3762CC"/>
<path d="M31.7734 37.5586C31.6969 37.5586 31.621 37.5359 31.5559 37.4915C31.4492 37.4188 31.386 37.2973 31.3877 37.1681L31.5134 27.0005C31.5152 26.8475 31.6073 26.7101 31.7481 26.6503C31.8889 26.5904 32.0519 26.6193 32.1632 26.7243L39.6765 33.7888C39.7722 33.8788 39.8157 34.0113 39.7915 34.1405C39.7675 34.2697 39.6792 34.3777 39.5575 34.4272L31.9185 37.5301C31.8717 37.5493 31.8224 37.5586 31.7734 37.5586ZM32.2739 27.8874L32.1662 36.5968L38.7096 33.9388L32.2739 27.8874Z" fill="#3762CC"/>
<path d="M23.9999 20.34C23.9244 20.34 23.8492 20.3177 23.7847 20.2742C23.6782 20.2026 23.6143 20.0826 23.6143 19.9541V7.72743C23.6143 7.51443 23.7869 7.34155 24.0001 7.34155C24.2572 7.34155 24.4976 7.44618 24.6774 7.63574L32.8109 16.2201C32.8985 16.3125 32.9349 16.4424 32.9081 16.5669C32.8811 16.6916 32.7944 16.7947 32.6763 16.8427L24.1454 20.3115C24.0984 20.3306 24.0491 20.34 23.9999 20.34ZM24.3858 8.45005V19.3809L31.8624 16.3408L24.3858 8.45005Z" fill="#3762CC"/>
<path d="M24.0007 20.34C23.9515 20.34 23.9022 20.3306 23.8554 20.3115L15.3245 16.8427C15.2064 16.7947 15.1197 16.6916 15.0927 16.5669C15.0657 16.4422 15.1021 16.3125 15.1899 16.2201L23.3234 7.63574C23.503 7.44599 23.7436 7.34155 24.0007 7.34155C24.2137 7.34155 24.3865 7.51424 24.3865 7.72743V19.9541C24.3865 20.0826 24.3226 20.2026 24.2161 20.2742C24.1514 20.3177 24.0762 20.34 24.0007 20.34ZM16.1384 16.3408L23.615 19.3809V8.45005L16.1384 16.3408Z" fill="#3762CC"/>
<path d="M24.0001 40.6585C23.81 40.6585 23.6241 40.6217 23.4475 40.5494L16.0805 37.5299C15.9575 37.4794 15.8691 37.3694 15.8465 37.2383C15.8238 37.1072 15.8705 36.9739 15.9696 36.8854L23.743 29.9361C23.8563 29.8347 24.0188 29.8094 24.1576 29.8716C24.2963 29.9337 24.3858 30.0715 24.3858 30.2237V40.2728C24.386 40.4856 24.2131 40.6585 24.0001 40.6585ZM16.9435 37.0497L23.6144 39.7838V31.0861L16.9435 37.0497Z" fill="#3762CC"/>
<path d="M23.9992 40.6584C23.7862 40.6584 23.6133 40.4857 23.6133 40.2726V30.2235C23.6133 30.0712 23.7027 29.9334 23.8415 29.8714C23.9804 29.8091 24.1428 29.8344 24.256 29.9359L32.0294 36.8852C32.1286 36.9737 32.1751 37.1072 32.1526 37.2381C32.1301 37.3689 32.0418 37.4792 31.9186 37.5296L24.5515 40.5491C24.3749 40.6217 24.1891 40.6584 23.9992 40.6584ZM24.385 31.086V39.7839L31.0559 37.0498L24.385 31.086Z" fill="#3762CC"/>
</svg>
