<svg width="32" height="32" viewBox="0 0 32 32" fill="none" xmlns="http://www.w3.org/2000/svg">
<g clip-path="url(#clip0_20749_1400)">
<path d="M26.6268 15.6274C26.6242 15.5724 26.6206 15.5176 26.6172 15.4627C26.6106 15.3546 26.6025 15.2471 26.5927 15.14C26.5871 15.0783 26.5814 15.0169 26.5747 14.9557C26.5624 14.8428 26.5479 14.7306 26.5319 14.6188C26.5253 14.5717 26.5199 14.5241 26.5127 14.4771C26.5127 14.4769 26.5125 14.4765 26.5125 14.4763C25.7244 9.3996 21.3349 5.51416 16.0374 5.51416C10.7399 5.51416 6.35032 9.39981 5.56227 14.4765C5.56227 14.4767 5.56227 14.4769 5.56205 14.4771C5.5548 14.5241 5.54947 14.5717 5.54285 14.6188C5.52707 14.7306 5.51235 14.8428 5.49997 14.9557C5.49336 15.0169 5.4876 15.0785 5.48205 15.14C5.47224 15.2471 5.46413 15.3548 5.45752 15.4627C5.45411 15.5176 5.45027 15.5724 5.44792 15.6274C5.44067 15.7879 5.43576 15.9489 5.43576 16.1113C5.43576 16.1128 5.43555 16.1143 5.43555 16.1158C5.43555 20.1411 7.67896 23.6426 10.9839 25.4378C11.1341 25.5195 11.2864 25.5976 11.4411 25.6718C11.75 25.8207 12.0674 25.9551 12.3921 26.0739C13.5288 26.4902 14.7565 26.7174 16.0374 26.7174C17.3182 26.7174 18.5459 26.4902 19.6826 26.0739C20.0073 25.9551 20.3247 25.8207 20.6336 25.6718C20.7881 25.5974 20.9406 25.5193 21.0908 25.4378C24.3958 23.6426 26.6392 20.1411 26.6392 16.1158C26.6392 16.1143 26.639 16.1128 26.639 16.1113C26.639 15.9489 26.6341 15.7879 26.6268 15.6274Z" fill="#382B73"/>
<path d="M30.9687 12.0865C30.8932 11.9082 30.7165 11.783 30.5109 11.783H29.9865C28.1363 5.83821 22.5826 1.50989 16.0371 1.50989C9.49158 1.50989 3.93787 5.83821 2.08763 11.783H1.56326C1.35739 11.783 1.18075 11.9082 1.10545 12.0865C1.08027 12.146 1.06641 12.2113 1.06641 12.28V13.0254V19.2059V19.9513C1.06641 20.02 1.08027 20.0852 1.10545 20.1448C1.18097 20.3231 1.35739 20.4483 1.56326 20.4483H2.08763C3.60742 25.3311 7.62705 29.1195 12.6412 30.3186V30.8588C12.6412 31.5449 13.1974 32.1012 13.8837 32.1012H18.1907C18.8768 32.1012 19.4331 31.5451 19.4331 30.8588V29.477V29.4775V29.3416C19.4331 28.6555 18.877 28.0991 18.1907 28.0991H13.8837C13.2979 28.0991 12.8081 28.5049 12.6771 29.0506C8.33361 27.9214 4.84539 24.6557 3.39899 20.4483H3.65478C3.92913 20.4483 4.15185 20.2258 4.15185 19.9515V19.6567C4.86075 19.6567 5.43547 19.0819 5.43547 18.3728V16.1158V13.8587C5.43547 13.1498 4.86075 12.5748 4.15185 12.5748V12.28C4.15185 12.0057 3.92934 11.7832 3.65478 11.7832H3.39899C5.20315 6.53538 10.1851 2.75255 16.0373 2.75255C21.8894 2.75255 26.8714 6.53559 28.6756 11.7832H28.4198C28.1454 11.7832 27.9227 12.0057 27.9227 12.28V12.5748C27.2136 12.5748 26.6389 13.1496 26.6389 13.8587V16.1158V18.3728C26.6389 19.0819 27.2136 19.6567 27.9227 19.6567V19.9515C27.9227 20.2258 28.1452 20.4483 28.4198 20.4483H28.9685H30.5111C30.717 20.4483 30.8936 20.3231 30.9689 20.1448C30.9941 20.0852 31.008 20.02 31.008 19.9513V19.2059V13.0254V12.28C31.008 12.2113 30.9939 12.146 30.9687 12.0865Z" fill="#382B73"/>
<path d="M16.0371 25.2241C21.8923 25.2241 26.6387 20.4776 26.6387 14.6225C26.6387 8.76737 21.8923 4.02087 16.0371 4.02087C10.182 4.02087 5.43555 8.76737 5.43555 14.6225C5.43555 20.4776 10.182 25.2241 16.0371 25.2241Z" fill="#FEDE3A"/>
<path d="M20.8346 15.4148C21.02 15.4148 21.1749 15.5688 21.1628 15.7538C20.9882 18.4328 18.76 20.5516 16.0368 20.5516C13.3136 20.5516 11.0855 18.4328 10.9108 15.7538C10.8989 15.5688 11.0535 15.4148 11.2389 15.4148H20.8346Z" fill="#C99241"/>
<path d="M10.9108 15.7538C10.9424 16.2385 11.0431 16.7042 11.2001 17.143H20.8735C21.0303 16.7042 21.1312 16.2385 21.1628 15.7538C21.1749 15.5688 21.02 15.4148 20.8346 15.4148H11.2389C11.0537 15.4148 10.8989 15.5688 10.9108 15.7538Z" fill="white"/>
<path d="M16.0371 21.9451C10.7397 21.9451 6.35011 18.0595 5.56205 12.9828C5.47907 13.5172 5.43555 14.0646 5.43555 14.6223C5.43555 20.4774 10.182 25.2239 16.0371 25.2239C21.8923 25.2239 26.6387 20.4774 26.6387 14.6223C26.6387 14.0646 26.5952 13.5172 26.5122 12.9828C25.7242 18.0595 21.3346 21.9451 16.0371 21.9451Z" fill="#F7CB15"/>
<path d="M13.5782 10.8655C13.5782 11.6049 12.9787 12.2044 12.2393 12.2044C11.4999 12.2044 10.9004 11.6049 10.9004 10.8655C10.9004 10.1261 11.4999 9.52661 12.2393 9.52661C12.9787 9.52661 13.5782 10.1259 13.5782 10.8655Z" fill="#C99241"/>
<path d="M21.1739 10.8655C21.1739 11.6049 20.5744 12.2044 19.835 12.2044C19.0956 12.2044 18.4961 11.6049 18.4961 10.8655C18.4961 10.1261 19.0956 9.52661 19.835 9.52661C20.5744 9.52661 21.1739 10.1259 21.1739 10.8655Z" fill="#C99241"/>
<path d="M16.0373 27.9857C8.66897 27.9857 2.67409 21.991 2.67409 14.6223C2.67409 7.25372 8.66876 1.25906 16.0373 1.25906C23.4058 1.25906 29.4005 7.25394 29.4005 14.6223H30.643C30.643 6.56871 24.0908 0.0166016 16.0373 0.0166016C7.98375 0.0166016 1.43164 6.56871 1.43164 14.6223C1.43164 22.6758 7.98375 29.2279 16.0373 29.2279V27.9857Z" fill="#F55C38"/>
<path d="M16.0372 27.9857C8.66884 27.9857 2.67396 21.991 2.67396 14.6222C2.67396 7.25371 8.66863 1.25904 16.0372 1.25904C23.4057 1.25904 29.4004 7.25392 29.4004 14.6222H30.0216C30.0216 6.89894 23.7605 0.637817 16.0372 0.637817C8.31386 0.637817 2.05273 6.89873 2.05273 14.6222C2.05273 22.3456 8.31386 28.6067 16.0372 28.6067V27.9857Z" fill="url(#paint0_linear_20749_1400)"/>
<path d="M28.4197 18.9551H30.511C30.7856 18.9551 31.0081 18.7326 31.0081 18.4583V10.787C31.0081 10.5125 30.7856 10.2902 30.511 10.2902H28.4197C28.1454 10.2902 27.9229 10.5127 27.9229 10.787V18.4583C27.9226 18.7326 28.1451 18.9551 28.4197 18.9551Z" fill="#F55C38"/>
<path d="M27.9225 18.1631V11.0815C27.2134 11.0815 26.6387 11.6563 26.6387 12.3654V16.8795C26.6387 17.5884 27.2136 18.1631 27.9225 18.1631Z" fill="#933722"/>
<path d="M30.5114 10.2899H28.9688C29.2431 10.2899 29.4656 10.5124 29.4656 10.7868V18.458C29.4656 18.7324 29.2431 18.9549 28.9688 18.9549H30.5114C30.7859 18.9549 31.0084 18.7324 31.0084 18.458V10.7868C31.0084 10.5124 30.7859 10.2899 30.5114 10.2899Z" fill="url(#paint1_linear_20749_1400)"/>
<path d="M30.0214 17.7491H28.9709C28.8037 17.7491 28.668 17.6134 28.668 17.4461C28.668 17.2787 28.8037 17.1432 28.9709 17.1432H30.0214C30.1886 17.1432 30.3243 17.2789 30.3243 17.4461C30.3245 17.6134 30.1888 17.7491 30.0214 17.7491Z" fill="#933722"/>
<path d="M30.0214 16.3522H28.9709C28.8037 16.3522 28.668 16.2165 28.668 16.0493C28.668 15.882 28.8037 15.7463 28.9709 15.7463H30.0214C30.1886 15.7463 30.3243 15.882 30.3243 16.0493C30.3245 16.2165 30.1888 16.3522 30.0214 16.3522Z" fill="#933722"/>
<path d="M30.0214 14.9555H28.9709C28.8037 14.9555 28.668 14.8198 28.668 14.6525C28.668 14.4851 28.8037 14.3496 28.9709 14.3496H30.0214C30.1886 14.3496 30.3243 14.4853 30.3243 14.6525C30.3245 14.8198 30.1888 14.9555 30.0214 14.9555Z" fill="#933722"/>
<path d="M30.511 18.2095H28.4197C28.1454 18.2095 27.9229 17.987 27.9229 17.7126V18.458C27.9229 18.7324 28.1454 18.9549 28.4197 18.9549H30.511C30.7856 18.9549 31.0081 18.7324 31.0081 18.458V17.7126C31.0081 17.987 30.7856 18.2095 30.511 18.2095Z" fill="#933722"/>
<path d="M28.4197 11.0353H30.511C30.7856 11.0353 31.0081 11.2578 31.0081 11.5322V10.7868C31.0081 10.5124 30.7856 10.2899 30.511 10.2899H28.4197C28.1454 10.2899 27.9229 10.5124 27.9229 10.7868V11.5322C27.9226 11.2578 28.1451 11.0353 28.4197 11.0353Z" fill="#27C1E6"/>
<path d="M3.65457 18.9551H1.56326C1.28891 18.9551 1.06641 18.7326 1.06641 18.4583V10.787C1.06641 10.5125 1.28891 10.2902 1.56326 10.2902H3.65457C3.92891 10.2902 4.15142 10.5127 4.15142 10.787V18.4583C4.15163 18.7326 3.92913 18.9551 3.65457 18.9551Z" fill="#F55C38"/>
<path d="M4.15137 18.1631V11.0815C4.86049 11.0815 5.43521 11.6563 5.43521 12.3654V16.8795C5.43499 17.5884 4.86027 18.1631 4.15137 18.1631Z" fill="#933722"/>
<path d="M1.56326 10.2899H3.10587C2.83153 10.2899 2.60881 10.5124 2.60881 10.7868V18.458C2.60881 18.7324 2.83131 18.9549 3.10587 18.9549H1.56326C1.28891 18.9549 1.06641 18.7324 1.06641 18.458V10.7868C1.06641 10.5124 1.28891 10.2899 1.56326 10.2899Z" fill="url(#paint2_linear_20749_1400)"/>
<path d="M2.05293 17.7491H3.10339C3.27064 17.7491 3.40632 17.6134 3.40632 17.4461C3.40632 17.2787 3.27064 17.1432 3.10339 17.1432H2.05293C1.88568 17.1432 1.75 17.2789 1.75 17.4461C1.75 17.6134 1.88568 17.7491 2.05293 17.7491Z" fill="#933722"/>
<path d="M2.05293 16.3522H3.10339C3.27064 16.3522 3.40632 16.2165 3.40632 16.0493C3.40632 15.882 3.27064 15.7463 3.10339 15.7463H2.05293C1.88568 15.7463 1.75 15.882 1.75 16.0493C1.75 16.2165 1.88568 16.3522 2.05293 16.3522Z" fill="#933722"/>
<path d="M2.05293 14.9555H3.10339C3.27064 14.9555 3.40632 14.8198 3.40632 14.6525C3.40632 14.4851 3.27064 14.3496 3.10339 14.3496H2.05293C1.88568 14.3496 1.75 14.4853 1.75 14.6525C1.75 14.8198 1.88568 14.9555 2.05293 14.9555Z" fill="#933722"/>
<path d="M1.56326 18.2095H3.65457C3.92891 18.2095 4.15142 17.987 4.15142 17.7126V18.458C4.15142 18.7324 3.92891 18.9549 3.65457 18.9549H1.56326C1.28891 18.9549 1.06641 18.7324 1.06641 18.458V17.7126C1.06641 17.987 1.28891 18.2095 1.56326 18.2095Z" fill="#933722"/>
<path d="M3.65457 11.0353H1.56326C1.28891 11.0353 1.06641 11.2578 1.06641 11.5322V10.7868C1.06641 10.5124 1.28891 10.2899 1.56326 10.2899H3.65457C3.92891 10.2899 4.15142 10.5124 4.15142 10.7868V11.5322C4.15163 11.2578 3.92913 11.0353 3.65457 11.0353Z" fill="#27C1E6"/>
<path d="M18.1901 30.6078H13.8831C13.197 30.6078 12.6406 30.0516 12.6406 29.3653V27.8483C12.6406 27.1622 13.1968 26.6058 13.8831 26.6058H18.1901C18.8761 26.6058 19.4325 27.162 19.4325 27.8483V29.3653C19.4325 30.0516 18.8764 30.6078 18.1901 30.6078Z" fill="#F55C38"/>
<path d="M18.1901 29.226H13.8831C13.197 29.226 12.6406 28.6698 12.6406 27.9835V29.3653C12.6406 30.0514 13.1968 30.6077 13.8831 30.6077H18.1901C18.8761 30.6077 19.4325 30.0516 19.4325 29.3653V27.9835C19.4325 28.6698 18.8764 29.226 18.1901 29.226Z" fill="url(#paint3_linear_20749_1400)"/>
</g>
<defs>
<linearGradient id="paint0_linear_20749_1400" x1="2.05273" y1="14.6222" x2="30.0216" y2="14.6222" gradientUnits="userSpaceOnUse">
<stop stop-color="#F55C38" stop-opacity="0.72"/>
<stop offset="1" stop-color="#933722"/>
</linearGradient>
<linearGradient id="paint1_linear_20749_1400" x1="28.9688" y1="14.6224" x2="31.0084" y2="14.6224" gradientUnits="userSpaceOnUse">
<stop stop-color="#F55C38" stop-opacity="0.72"/>
<stop offset="1" stop-color="#933722"/>
</linearGradient>
<linearGradient id="paint2_linear_20749_1400" x1="1.06641" y1="14.6224" x2="3.10587" y2="14.6224" gradientUnits="userSpaceOnUse">
<stop stop-color="#F55C38" stop-opacity="0.72"/>
<stop offset="1" stop-color="#933722"/>
</linearGradient>
<linearGradient id="paint3_linear_20749_1400" x1="12.6406" y1="29.2956" x2="19.4325" y2="29.2956" gradientUnits="userSpaceOnUse">
<stop stop-color="#F55C38" stop-opacity="0.72"/>
<stop offset="1" stop-color="#933722"/>
</linearGradient>
<clipPath id="clip0_20749_1400">
<rect width="32" height="32" fill="white"/>
</clipPath>
</defs>
</svg>
