<svg width="48" height="48" viewBox="0 0 48 48" fill="none" xmlns="http://www.w3.org/2000/svg">
<path d="M10.9369 31.4395L4.40549 27.7065L4.40137 34.7249C4.40118 35.0614 4.58137 35.3723 4.87368 35.5394L10.9324 39.0015L10.9369 31.4395Z" fill="#E0EBFC"/>
<path d="M10.9323 23.9136L4.40527 20.1831V27.7062L10.9366 31.4391L10.9323 23.9136Z" fill="#F9A7A7"/>
<path d="M10.9379 31.4395L17.4695 35.1724L17.465 42.7296L10.9336 39.0015L10.9379 31.4395Z" fill="#F9A7A7"/>
<path d="M17.465 27.6465L10.9336 23.9136L10.9379 31.4391L17.4695 35.172L17.465 27.6465Z" fill="#4671C6"/>
<path d="M17.465 20.1247L10.9336 16.4004V23.9141L17.465 27.647V20.1247Z" fill="#6BDDDD"/>
<path d="M23.9962 31.3757L17.4648 27.6426L17.4693 35.1681L24.0007 38.9012L23.9962 31.3757Z" fill="#E0EBFC"/>
<path d="M23.9962 23.8532L17.4648 20.1289V27.6426L23.9962 31.3757V23.8532Z" fill="#F9A7A7"/>
<path d="M37.0605 31.4395L43.5919 27.7065L43.596 34.7249C43.5962 35.0614 43.416 35.3723 43.1237 35.5394L37.065 39.0015L37.0605 31.4395Z" fill="#6BDDDD"/>
<path d="M37.065 23.9136L43.5919 20.1831V27.7062L37.0605 31.4391L37.065 23.9136Z" fill="#E0EBFC"/>
<path d="M37.0597 31.4395L30.5283 35.1724L30.5326 42.7296L37.064 39.0015L37.0597 31.4395Z" fill="#F9A7A7"/>
<path d="M30.5326 27.6465L37.0642 23.9136L37.0597 31.4391L30.5283 35.172L30.5326 27.6465Z" fill="#4671C6"/>
<path d="M30.5332 20.1247L37.0648 16.4004V23.9141L30.5332 27.647V20.1247Z" fill="#F9A7A7"/>
<path d="M24.0016 31.3757L30.5329 27.6426L30.5286 35.1681L23.9971 38.9012L24.0016 31.3757Z" fill="#A4C9FF"/>
<path d="M24.0029 23.8532L30.5343 20.1289V27.6426L24.0029 31.3757V23.8532Z" fill="#6BDDDD"/>
<path d="M23.2599 46.0342C23.4885 46.1645 23.7429 46.2297 23.9974 46.2307L23.9989 38.9009L17.4698 35.168L17.4658 42.7304L23.2599 46.0342Z" fill="#F9A7A7"/>
<path d="M24.738 46.0342C24.5094 46.1645 24.255 46.2297 24.0005 46.2307L23.999 38.9009L30.5281 35.168L30.5321 42.7304L24.738 46.0342Z" fill="#6BDDDD"/>
<path d="M17.4688 5.21661L24.0001 8.94092L30.5272 5.21661L24.7432 1.91642C24.2825 1.65354 23.7174 1.65354 23.2569 1.91623L17.4688 5.21661Z" fill="#E0EBFC"/>
<path d="M17.4681 5.21631L10.9365 8.94062L17.4572 12.6756L23.9995 8.94062L17.4681 5.21631Z" fill="#4671C6"/>
<path d="M24.0071 16.4004L17.4648 20.129L24.003 23.8533L30.5343 20.129L24.0071 16.4004Z" fill="#4671C6"/>
<path d="M24.0059 16.3999L30.5331 12.6646L37.0647 16.3999L30.5331 20.1286L24.0059 16.3999Z" fill="#A4C9FF"/>
<path d="M4.40527 13.2199V20.1835L10.9323 23.914V16.4003L4.5324 12.7485C4.45065 12.8893 4.40527 13.0513 4.40527 13.2199Z" fill="#A4C9FF"/>
<path d="M10.9384 8.94092L4.87918 12.4059C4.73349 12.4892 4.61574 12.6082 4.53418 12.7485L10.9339 16.4002L17.4591 12.6759L10.9384 8.94092Z" fill="#E0EBFC"/>
<path d="M43.4662 12.7485L37.0664 16.4003V23.914L43.5935 20.1835V13.2199C43.5933 13.0513 43.5481 12.8893 43.4662 12.7485Z" fill="#6BDDDD"/>
<path d="M43.4645 12.7487C43.383 12.6086 43.2652 12.4894 43.1195 12.4061L37.058 8.94092L30.5332 12.665L37.0646 16.4004L43.4645 12.7487Z" fill="#F9A7A7"/>
<path d="M17.4586 12.6758L24.0072 16.4001L17.465 20.1287L10.9336 16.4001L17.4586 12.6758Z" fill="#A4C9FF"/>
<path d="M23.9993 8.94092L17.457 12.6759L24.0057 16.4002L30.5329 12.6649L23.9993 8.94092Z" fill="#6BDDDD"/>
<path d="M30.5271 5.21631L37.0584 8.94062L30.5336 12.6646L24 8.94062L30.5271 5.21631Z" fill="#4671C6"/>
<path d="M10.9332 39.3765C10.8688 39.3765 10.8047 39.36 10.7472 39.327L4.68847 35.8648C4.28028 35.6315 4.02716 35.1947 4.02734 34.7246L4.03128 27.7063C4.03128 27.5726 4.10253 27.449 4.21822 27.3821C4.33372 27.315 4.47641 27.3148 4.59228 27.381L11.1237 31.1139C11.2407 31.1807 11.3127 31.3052 11.3127 31.4396L11.3083 39.0017C11.3083 39.1353 11.2371 39.2589 11.1214 39.3258C11.0631 39.3596 10.998 39.3765 10.9332 39.3765ZM4.78072 28.3524L4.77697 34.7248C4.77678 34.9263 4.88534 35.1135 5.06028 35.2134L10.5583 38.3552L10.5623 31.6565L4.78072 28.3524Z" fill="#3762CC"/>
<path d="M10.9366 31.8145C10.8723 31.8145 10.8082 31.798 10.7506 31.765L4.21927 28.0321C4.10246 27.9653 4.03027 27.841 4.03027 27.7066V20.1835C4.03027 20.0498 4.10152 19.9263 4.21702 19.8592C4.3329 19.7922 4.4754 19.7917 4.59127 19.858L11.1183 23.5885C11.2351 23.6553 11.3073 23.7794 11.3073 23.9138L11.3116 31.4393C11.3116 31.573 11.2406 31.6968 11.1249 31.7637C11.0668 31.7975 11.0017 31.8145 10.9366 31.8145ZM4.78027 27.4889L10.5613 30.793L10.5573 24.1317L4.78009 20.8298L4.78027 27.4889Z" fill="#3762CC"/>
<path d="M17.465 43.1045C17.4008 43.1045 17.3365 43.0882 17.2792 43.0552L10.7478 39.3271C10.6308 39.2604 10.5586 39.1359 10.5586 39.0013L10.5629 31.4392C10.5629 31.3055 10.6342 31.1819 10.7498 31.115C10.8653 31.0479 11.008 31.0477 11.1239 31.1139L17.6555 34.847C17.7725 34.9138 17.8445 35.0383 17.8445 35.1727L17.84 42.7299C17.84 42.8636 17.7687 42.9869 17.6532 43.0541C17.5949 43.0876 17.5298 43.1045 17.465 43.1045ZM11.3088 38.7838L17.0903 42.0839L17.0943 35.39L11.3125 32.0853L11.3088 38.7838Z" fill="#3762CC"/>
<path d="M17.4695 35.547C17.4052 35.547 17.341 35.5305 17.2835 35.4975L10.7519 31.7644C10.6351 31.6977 10.5629 31.5735 10.5629 31.4391L10.5586 23.9136C10.5586 23.7799 10.6297 23.6562 10.7453 23.5892C10.8608 23.5221 11.0037 23.5217 11.1196 23.5879L17.651 27.3209C17.7678 27.3876 17.84 27.5117 17.84 27.6462L17.8445 35.1717C17.8445 35.3053 17.7734 35.4291 17.6577 35.496C17.5996 35.5302 17.5345 35.547 17.4695 35.547ZM11.3127 31.2214L17.0941 34.5257L17.0902 27.8644L11.309 24.5601L11.3127 31.2214Z" fill="#3762CC"/>
<path d="M17.465 28.0219C17.4007 28.0219 17.3365 28.0054 17.279 27.9724L10.7476 24.2395C10.6308 24.1728 10.5586 24.0484 10.5586 23.914V16.4003C10.5586 16.2668 10.6297 16.1431 10.7452 16.0761C10.8607 16.009 11.0033 16.0084 11.1192 16.0746L17.6506 19.7989C17.7676 19.8657 17.84 19.99 17.84 20.1246V27.6471C17.84 27.7808 17.7687 27.9044 17.6532 27.9715C17.5949 28.0051 17.5298 28.0219 17.465 28.0219ZM11.3086 23.6963L17.09 27.0006V20.3423L11.3086 17.0459V23.6963Z" fill="#3762CC"/>
<path d="M24.0007 39.2763C23.9364 39.2763 23.8723 39.2598 23.8147 39.2268L17.2833 35.4939C17.1665 35.4272 17.0943 35.303 17.0943 35.1686L17.0898 27.6431C17.0898 27.5094 17.1609 27.3857 17.2766 27.3187C17.3921 27.2516 17.535 27.2512 17.6508 27.3174L24.1824 31.0503C24.2992 31.1171 24.3714 31.2412 24.3714 31.3757L24.3757 38.9012C24.3757 39.0348 24.3047 39.1586 24.189 39.2255C24.1308 39.2593 24.0658 39.2763 24.0007 39.2763ZM17.8442 34.9505L23.6253 38.2548L23.6214 31.5935L17.84 28.2892L17.8442 34.9505Z" fill="#3762CC"/>
<path d="M23.9964 31.7505C23.9321 31.7505 23.868 31.734 23.8104 31.701L17.2788 27.968C17.162 27.9013 17.0898 27.777 17.0898 27.6425V20.1288C17.0898 19.9953 17.1609 19.8716 17.2764 19.8047C17.3919 19.7375 17.5346 19.737 17.6505 19.8032L24.182 23.5273C24.299 23.594 24.3714 23.7183 24.3714 23.853V31.3755C24.3714 31.5092 24.3002 31.6327 24.1847 31.6998C24.1263 31.7336 24.0613 31.7505 23.9964 31.7505ZM17.8398 27.425L23.6214 30.7293V24.071L17.8398 20.7744V27.425Z" fill="#3762CC"/>
<path d="M23.9966 46.6058C23.9962 46.6058 23.9957 46.6058 23.9953 46.6058C23.672 46.6047 23.3533 46.5198 23.0733 46.36L17.2792 43.0561C17.162 42.9893 17.0898 42.8648 17.0898 42.7302L17.0938 35.1678C17.0938 35.0341 17.165 34.9105 17.2807 34.8436C17.3962 34.7765 17.5391 34.7761 17.655 34.8425L24.1841 38.5754C24.3009 38.6422 24.3729 38.7665 24.3729 38.9011L24.3714 46.2308C24.3714 46.3306 24.3317 46.426 24.261 46.4965C24.1912 46.5665 24.096 46.6058 23.9966 46.6058ZM23.4448 45.7085C23.5014 45.7407 23.5607 45.7679 23.6216 45.7898L23.6231 39.1186L17.8436 35.8143L17.84 42.5127L23.4448 45.7085Z" fill="#3762CC"/>
<path d="M10.9323 24.289C10.868 24.289 10.8039 24.2725 10.7463 24.2395L4.21927 20.509C4.10246 20.4422 4.03027 20.3179 4.03027 20.1835V13.2199C4.03027 12.9882 4.09196 12.7598 4.20859 12.5597C4.31209 12.3822 4.53971 12.3209 4.7184 12.4229L11.1181 16.0746C11.2351 16.1414 11.3073 16.2657 11.3073 16.4003V23.914C11.3073 24.0477 11.2361 24.1712 11.1206 24.2384C11.0623 24.2721 10.9972 24.289 10.9323 24.289ZM4.78027 19.9658L10.5573 23.2677V16.618L4.78027 13.3217V19.9658Z" fill="#3762CC"/>
<path d="M37.0658 39.3765C37.0008 39.3765 36.9359 39.3597 36.8778 39.3259C36.7621 39.259 36.6908 39.1354 36.6908 39.0017L36.6865 31.4397C36.6865 31.305 36.7585 31.1807 36.8755 31.114L43.4069 27.381C43.5228 27.3147 43.6655 27.315 43.781 27.3822C43.8966 27.4491 43.9679 27.5727 43.9679 27.7064L43.9718 34.7247C43.972 35.1947 43.7187 35.6316 43.3107 35.8649L37.252 39.327C37.1941 39.36 37.13 39.3765 37.0658 39.3765ZM37.4365 31.657L37.4405 38.3556L42.9385 35.2139C43.1135 35.1139 43.222 34.9266 43.2218 34.7252L43.2181 28.3529L37.4365 31.657Z" fill="#3762CC"/>
<path d="M37.0605 31.8142C36.9955 31.8142 36.9306 31.7973 36.8723 31.7634C36.7566 31.6962 36.6855 31.5725 36.6855 31.439L36.6899 23.9135C36.6899 23.7791 36.762 23.6549 36.8789 23.5882L43.4059 19.8577C43.5218 19.7913 43.6643 19.7915 43.7802 19.8588C43.8957 19.9259 43.9669 20.0495 43.9669 20.1832V27.7062C43.9669 27.8409 43.8947 27.965 43.7779 28.0317L37.2465 31.7647C37.189 31.7977 37.1249 31.8142 37.0605 31.8142ZM37.4399 24.1314L37.4359 30.7927L43.2169 27.4886V20.8295L37.4399 24.1314Z" fill="#3762CC"/>
<path d="M30.5328 43.1048C30.4678 43.1048 30.4029 43.0879 30.3446 43.0541C30.2291 42.987 30.1578 42.8636 30.1578 42.73L30.1533 35.1728C30.1533 35.0381 30.2253 34.9138 30.3423 34.8471L36.8739 31.114C36.9898 31.0476 37.1324 31.048 37.2479 31.1151C37.3636 31.182 37.4349 31.3056 37.4349 31.4393L37.4392 39.0013C37.4392 39.136 37.367 39.2605 37.25 39.3272L30.7186 43.0553C30.6611 43.0883 30.5968 43.1048 30.5328 43.1048ZM30.9033 35.3903L30.9073 42.0842L36.6888 38.784L36.6849 32.0856L30.9033 35.3903Z" fill="#3762CC"/>
<path d="M30.5283 35.5475C30.4633 35.5475 30.3982 35.5306 30.3401 35.4967C30.2244 35.4295 30.1533 35.3058 30.1533 35.1723L30.1578 27.6468C30.1578 27.5124 30.23 27.3882 30.3468 27.3215L36.8782 23.5885C36.9943 23.5222 37.1368 23.5225 37.2524 23.5899C37.3681 23.657 37.4392 23.7807 37.4392 23.9142L37.4349 31.4397C37.4349 31.5742 37.3627 31.6983 37.2459 31.765L30.7143 35.4982C30.6568 35.5312 30.5926 35.5475 30.5283 35.5475ZM30.9078 27.8647L30.9039 34.526L36.6853 31.2217L36.6892 24.5604L30.9078 27.8647Z" fill="#3762CC"/>
<path d="M30.5332 28.0218C30.4681 28.0218 30.4033 28.0049 30.345 27.9712C30.2295 27.904 30.1582 27.7805 30.1582 27.6468V20.1243C30.1582 19.9897 30.2306 19.8654 30.3476 19.7986L36.879 16.0743C36.9946 16.0079 37.1373 16.0085 37.253 16.0758C37.3685 16.1429 37.4396 16.2665 37.4396 16.4V23.9137C37.4396 24.0483 37.3674 24.1724 37.2506 24.2392L30.7192 27.9721C30.6615 28.0053 30.5973 28.0218 30.5332 28.0218ZM30.9082 20.3422V27.0005L36.6896 23.6962V17.0457L30.9082 20.3422Z" fill="#3762CC"/>
<path d="M23.9971 39.276C23.932 39.276 23.8671 39.2591 23.8088 39.2252C23.6931 39.1581 23.6221 39.0343 23.6221 38.9008L23.6264 31.3753C23.6264 31.2409 23.6986 31.1167 23.8154 31.05L30.3469 27.3171C30.4628 27.2507 30.6057 27.2511 30.7212 27.3184C30.8369 27.3855 30.9079 27.5092 30.9079 27.6427L30.9034 35.1682C30.9034 35.3027 30.8313 35.4268 30.7144 35.4936L24.1831 39.2265C24.1255 39.2595 24.0614 39.276 23.9971 39.276ZM24.3764 31.5932L24.3724 38.2545L30.1536 34.9502L30.1576 28.2889L24.3764 31.5932Z" fill="#3762CC"/>
<path d="M24.0029 31.7506C23.9379 31.7506 23.873 31.7337 23.8147 31.7C23.6992 31.6329 23.6279 31.5093 23.6279 31.3756V23.8531C23.6279 23.7185 23.7003 23.5942 23.8173 23.5274L30.3489 19.8033C30.4646 19.7369 30.6072 19.7375 30.7229 19.8048C30.8384 19.8719 30.9095 19.9955 30.9095 20.129V27.6427C30.9095 27.7773 30.8373 27.9014 30.7205 27.9682L24.1889 31.7011C24.1312 31.7343 24.0671 31.7506 24.0029 31.7506ZM24.3779 24.0712V30.7295L30.1595 27.4252V20.7747L24.3779 24.0712Z" fill="#3762CC"/>
<path d="M24.0003 46.6058C23.9011 46.6058 23.8059 46.5667 23.7358 46.4965C23.6651 46.4262 23.6253 46.3306 23.6253 46.2308L23.624 38.9011C23.624 38.7665 23.6962 38.6423 23.8128 38.5754L30.342 34.8425C30.4578 34.7761 30.6007 34.7765 30.7162 34.8436C30.8319 34.9105 30.9031 35.0341 30.9031 35.1678L30.9071 42.7302C30.9071 42.865 30.8349 42.9893 30.7177 43.0561L24.9236 46.36C24.6436 46.5198 24.3251 46.6047 24.0016 46.6058C24.0013 46.6058 24.0007 46.6058 24.0003 46.6058ZM24.374 39.1186L24.3753 45.7898C24.4363 45.7679 24.4955 45.7407 24.552 45.7085L30.1569 42.5125L30.1535 35.8141L24.374 39.1186Z" fill="#3762CC"/>
<path d="M37.0664 24.289C37.0013 24.289 36.9365 24.2721 36.8782 24.2384C36.7627 24.1712 36.6914 24.0477 36.6914 23.914V16.4003C36.6914 16.2657 36.7636 16.1414 36.8806 16.0746L43.2803 12.4229C43.459 12.3209 43.6867 12.3822 43.7903 12.5597C43.9068 12.7598 43.9685 12.9882 43.9685 13.2199V20.1835C43.9685 20.3181 43.8963 20.4422 43.7795 20.509L37.2524 24.2395C37.1947 24.2725 37.1305 24.289 37.0664 24.289ZM37.4414 16.618V23.2677L43.2185 19.9658V13.3217L37.4414 16.618Z" fill="#3762CC"/>
<path d="M24.0001 9.31575C23.936 9.31575 23.8719 9.29943 23.8145 9.26643L17.2831 5.54212C17.1661 5.47537 17.0938 5.35106 17.0938 5.21643C17.0938 5.08181 17.1661 4.9575 17.2831 4.89075L23.0712 1.59037C23.6442 1.26356 24.3562 1.26337 24.929 1.59056L30.713 4.89075C30.83 4.9575 30.9022 5.08181 30.9022 5.21643C30.9022 5.35106 30.83 5.47537 30.713 5.54212L24.1859 9.26625C24.1284 9.29925 24.0642 9.31575 24.0001 9.31575ZM18.2259 5.21643L24.0001 8.50893L29.7704 5.21643L24.5572 2.24193C24.2135 2.04581 23.7866 2.04581 23.4425 2.24175L18.2259 5.21643Z" fill="#3762CC"/>
<path d="M17.4572 13.0507C17.3929 13.0507 17.3284 13.0342 17.2708 13.001L10.7501 9.26598C10.6333 9.19923 10.5613 9.07473 10.5615 8.94029C10.5617 8.80586 10.6339 8.68154 10.7509 8.61498L17.2825 4.89067C17.3974 4.82486 17.5388 4.82486 17.6537 4.89067L24.1851 8.61498C24.3021 8.68154 24.3745 8.80604 24.3745 8.94067C24.3745 9.07529 24.3023 9.19961 24.1853 9.26636L17.6432 13.0014C17.5856 13.0342 17.5213 13.0507 17.4572 13.0507ZM11.6921 8.94142L17.4576 12.2437L23.2427 8.94067L17.4681 5.64798L11.6921 8.94142Z" fill="#3762CC"/>
<path d="M24.5803 22.0741C24.5321 22.0741 24.4841 22.0649 24.4387 22.0463L17.3233 19.1466C17.1821 19.0891 17.0898 18.9518 17.0898 18.7994C17.0898 18.6469 17.1821 18.5097 17.3233 18.4521L24.4432 15.5493C24.534 15.5123 24.6354 15.5121 24.7267 15.5493L31.8303 18.4521C31.9713 18.5099 32.0634 18.6471 32.0634 18.7994C32.0634 18.9516 31.9712 19.0889 31.8302 19.1466L24.7222 22.0463C24.6765 22.0649 24.6285 22.0741 24.5803 22.0741ZM18.4582 18.7994L24.5801 21.2943L30.696 18.7992L24.5842 16.3015L18.4582 18.7994Z" fill="#3762CC"/>
<path d="M30.5333 20.5041C30.469 20.5041 30.4049 20.4876 30.3473 20.4548L23.8199 16.726C23.703 16.6592 23.6309 16.5349 23.6309 16.4005C23.6309 16.2659 23.7029 16.1417 23.8197 16.0748L30.3471 12.3396C30.4624 12.2734 30.6042 12.2736 30.7195 12.3396L37.2509 16.0748C37.3677 16.1415 37.4397 16.266 37.4397 16.4005C37.4397 16.5349 37.3675 16.6592 37.2505 16.726L30.7191 20.4548C30.6615 20.4876 30.5972 20.5041 30.5333 20.5041ZM24.7613 16.3999L30.5331 19.6971L36.3087 16.3999L30.5333 13.0971L24.7613 16.3999Z" fill="#3762CC"/>
<path d="M10.9339 16.7749C10.8698 16.7749 10.8056 16.7586 10.7481 16.7256L4.34832 13.074C4.26151 13.0243 4.19794 12.9422 4.17207 12.8457C4.14601 12.7491 4.15988 12.6463 4.20994 12.5597C4.32601 12.3604 4.49288 12.1945 4.69294 12.0801L10.752 8.61491C10.8673 8.54891 11.0093 8.54891 11.1246 8.61509L17.6453 12.3501C17.7619 12.4168 17.8341 12.5413 17.8339 12.6758C17.8337 12.8104 17.7615 12.9345 17.6447 13.0011L11.1197 16.7256C11.0621 16.7584 10.9978 16.7749 10.9339 16.7749ZM5.16282 12.6752L10.9337 15.9681L16.7033 12.675L10.938 9.37259L5.16282 12.6752Z" fill="#3762CC"/>
<path d="M17.4642 20.504C17.4001 20.504 17.3357 20.4875 17.2784 20.4547L10.7468 16.7259C10.6298 16.6591 10.5576 16.5348 10.5576 16.4002C10.5576 16.2655 10.6298 16.1412 10.7468 16.0745L17.272 12.3502C17.3867 12.2845 17.5283 12.2842 17.6431 12.35L24.1917 16.0743C24.3089 16.1409 24.3814 16.2654 24.3814 16.4C24.3814 16.5346 24.3092 16.6593 24.1921 16.726L17.6496 20.4549C17.5922 20.4875 17.5281 20.504 17.4642 20.504ZM11.6892 16.4002L17.4644 19.6972L23.2487 16.4005L17.4582 13.1075L11.6892 16.4002Z" fill="#3762CC"/>
<path d="M24.0057 16.7753C23.9417 16.7753 23.8776 16.759 23.8204 16.7262L17.2718 13.0019C17.1546 12.9353 17.0822 12.811 17.082 12.6762C17.0818 12.5416 17.1542 12.4171 17.2712 12.3503L23.8135 8.6153C23.9284 8.54949 24.07 8.54949 24.1849 8.61511L30.7187 12.3392C30.8357 12.4058 30.9079 12.5301 30.9081 12.6647C30.9083 12.7994 30.8361 12.9237 30.7193 12.9904L24.1918 16.7256C24.1343 16.7588 24.07 16.7753 24.0057 16.7753ZM18.2145 12.6754L24.0051 15.9685L29.7767 12.6657L23.9993 9.37261L18.2145 12.6754Z" fill="#3762CC"/>
<path d="M30.5338 13.0396C30.4697 13.0396 30.4056 13.0233 30.3482 12.9905L23.8144 9.26636C23.6974 9.19961 23.625 9.07529 23.625 8.94067C23.625 8.80604 23.6972 8.68154 23.8142 8.61479L30.3413 4.89067C30.4566 4.82486 30.5977 4.82486 30.7127 4.89067L37.2441 8.61479C37.3611 8.68136 37.4334 8.80586 37.4334 8.94048C37.4334 9.07511 37.3612 9.19942 37.2443 9.26617L30.7196 12.9903C30.6621 13.0233 30.5978 13.0396 30.5338 13.0396ZM24.7569 8.94048L30.5336 12.2332L36.3017 8.94086L30.5271 5.64817L24.7569 8.94048Z" fill="#3762CC"/>
<path d="M37.0646 16.7753C37.0003 16.7753 36.936 16.7588 36.8784 16.7258L30.347 12.9907C30.2302 12.9239 30.1582 12.7994 30.1582 12.665C30.1582 12.5305 30.2304 12.4062 30.3474 12.3395L36.872 8.61535C36.9871 8.54935 37.1291 8.54954 37.2438 8.61535L43.3053 12.0805C43.5054 12.1949 43.6726 12.3608 43.7885 12.5602C43.8388 12.6466 43.8525 12.7495 43.8264 12.8461C43.8003 12.9427 43.7368 13.0248 43.6501 13.0745L37.2504 16.7262C37.1926 16.7588 37.1285 16.7753 37.0646 16.7753ZM31.289 12.6653L37.0648 15.9685L42.8353 12.6758L37.0576 9.37285L31.289 12.6653Z" fill="#3762CC"/>
</svg>
