<svg width="48" height="48" viewBox="0 0 48 48" fill="none" xmlns="http://www.w3.org/2000/svg">
<g style="mix-blend-mode:luminosity">
<path d="M15.4697 16.4854L16.1018 27.0054L24.0006 19.9541L15.4697 16.4854Z" fill="#E0EBFC"/>
<path d="M23.9994 30.2235L16.1006 27.0054L23.9994 19.9541V30.2235Z" fill="#F9A7A7"/>
<path d="M16.1006 27.0059L16.2262 37.1732L23.9994 30.2239L16.1006 27.0059Z" fill="#4671C6"/>
<path d="M16.1012 27.0059L8.58789 23.7485L15.4691 16.4858L16.1012 27.0059Z" fill="#6BDDDD"/>
<path d="M16.1012 27.0055L8.58789 34.0699V23.748L16.1012 27.0055Z" fill="#A4C9FF"/>
<path d="M8.58839 23.748L2.17326 30.5187C1.88582 30.822 1.98745 31.3382 2.36564 31.4946L8.58839 34.0697V23.748Z" fill="#F9A7A7"/>
<path d="M8.58789 34.0703L16.2268 37.1732L16.1012 27.0059L8.58789 34.0703Z" fill="#6BDDDD"/>
<path d="M32.5309 16.4858L31.8988 27.0059L24 19.9546L32.5309 16.4858Z" fill="#6BDDDD"/>
<path d="M24 30.224L31.8988 27.0059L24 19.9546V30.224Z" fill="#A4C9FF"/>
<path d="M31.8988 27.0059L31.7732 37.1732L24 30.2239L31.8988 27.0059Z" fill="#4671C6"/>
<path d="M31.8994 27.0054L39.4127 23.748L32.5315 16.4854L31.8994 27.0054Z" fill="#F9A7A7"/>
<path d="M31.8994 27.0055L39.4127 34.0699V23.748L31.8994 27.0055Z" fill="#A4C9FF"/>
<path d="M39.4121 23.748L45.8272 30.5187C46.1147 30.822 46.013 31.3382 45.6349 31.4946L39.4121 34.0697V23.748Z" fill="#6BDDDD"/>
<path d="M39.4124 34.0703L31.7734 37.1732L31.8991 27.0059L39.4124 34.0703Z" fill="#F9A7A7"/>
<path d="M24.3971 7.90135C24.2874 7.78548 24.1436 7.72754 24 7.72754V19.9542L32.5309 16.4855L24.3971 7.90135Z" fill="#4671C6"/>
<path d="M23.6035 7.90135C23.7132 7.78548 23.857 7.72754 24.0006 7.72754V19.9542L15.4697 16.4855L23.6035 7.90135Z" fill="#F9A7A7"/>
<path d="M16.2266 37.1732L23.5936 40.1927C23.7243 40.2464 23.8621 40.2732 23.9999 40.2732V30.2241L16.2266 37.1732Z" fill="#F9A7A7"/>
<path d="M24.4063 40.1924L31.7734 37.1729L24 30.2236V40.2727C24.1378 40.2727 24.2756 40.2459 24.4063 40.1924Z" fill="#E0EBFC"/>
<path d="M16.1017 27.391C16.0522 27.391 16.0023 27.3815 15.9547 27.362C15.818 27.3055 15.7255 27.176 15.7165 27.0284L15.0847 16.5085C15.0768 16.3762 15.1372 16.2492 15.2448 16.172C15.3526 16.0947 15.4921 16.078 15.6149 16.1281L24.1458 19.5969C24.2692 19.6469 24.3579 19.7572 24.3805 19.8884C24.4032 20.0197 24.3567 20.1534 24.2574 20.242L16.3585 27.2932C16.2867 27.3575 16.1949 27.391 16.1017 27.391ZM15.8917 17.0733L16.4392 26.1869L23.2822 20.0784L15.8917 17.0733Z" fill="#3762CC"/>
<path d="M23.9994 30.6098C23.9501 30.6098 23.9007 30.6004 23.8539 30.5813L15.9551 27.3631C15.8319 27.3128 15.7432 27.2028 15.7205 27.0715C15.6978 26.9403 15.7443 26.8068 15.8437 26.7181L23.7425 19.6669C23.8557 19.5655 24.0183 19.5404 24.1571 19.6026C24.2958 19.6649 24.3852 19.8027 24.3852 19.9548V30.2241C24.3852 30.3526 24.3213 30.4726 24.2146 30.5444C24.1501 30.5875 24.0749 30.6098 23.9994 30.6098ZM16.8187 26.8819L23.6137 29.6504V20.8163L16.8187 26.8819Z" fill="#3762CC"/>
<path d="M16.2272 37.5589C16.1747 37.5589 16.1218 37.5482 16.0719 37.5263C15.9335 37.4653 15.8434 37.3292 15.8415 37.1779L15.7159 27.0103C15.7142 26.8811 15.7775 26.7596 15.8842 26.6867C15.9911 26.6138 16.1276 26.5993 16.247 26.6483L24.1459 29.8665C24.269 29.9168 24.3577 30.0268 24.3804 30.1581C24.4031 30.2891 24.3566 30.4228 24.2574 30.5113L16.484 37.4606C16.4122 37.5251 16.3204 37.5589 16.2272 37.5589ZM16.4945 27.5822L16.6025 36.3201L23.2828 30.3478L16.4945 27.5822Z" fill="#3762CC"/>
<path d="M16.1011 27.3913C16.0492 27.3913 15.9969 27.3808 15.9478 27.3595L8.43446 24.102C8.31896 24.052 8.23514 23.9486 8.21002 23.8253C8.18471 23.7019 8.22127 23.574 8.30789 23.4827L15.1893 16.2201C15.2951 16.1085 15.4567 16.0703 15.6015 16.123C15.746 16.1755 15.8454 16.3088 15.8546 16.4623L16.4865 26.9822C16.4945 27.1161 16.4325 27.2445 16.3226 27.3214C16.2564 27.3677 16.179 27.3913 16.1011 27.3913ZM9.24689 23.6136L15.6783 26.4019L15.1374 17.3968L9.24689 23.6136Z" fill="#3762CC"/>
<path d="M8.58784 34.4562C8.53627 34.4562 8.48415 34.4459 8.43484 34.4246C8.29365 34.3634 8.20215 34.2243 8.20215 34.0704V23.7485C8.20215 23.6186 8.26759 23.4972 8.37634 23.426C8.48509 23.3547 8.62234 23.3429 8.7414 23.3947L16.2547 26.6521C16.3738 26.7037 16.4589 26.8119 16.4812 26.9397C16.5035 27.0676 16.46 27.1981 16.3655 27.2872L8.85221 34.3516C8.77927 34.4201 8.68421 34.4562 8.58784 34.4562ZM8.97371 24.3363V33.1781L15.4096 27.1265L8.97371 24.3363Z" fill="#3762CC"/>
<path d="M8.58769 34.4561C8.53781 34.4561 8.48757 34.4464 8.44013 34.4269L2.21738 31.8518C1.92563 31.731 1.71132 31.4694 1.64363 31.1524C1.57425 30.8274 1.66725 30.4914 1.89244 30.2539L8.30756 23.4833C8.41631 23.3685 8.58375 23.3318 8.73038 23.3903C8.877 23.4488 8.97338 23.5907 8.97338 23.7486V34.0704C8.97338 34.1993 8.90906 34.3196 8.802 34.3911C8.73769 34.434 8.66288 34.4561 8.58769 34.4561ZM8.20181 24.7164L2.4525 30.7843C2.40225 30.8374 2.382 30.9148 2.39813 30.9913C2.40525 31.0243 2.43038 31.1046 2.51232 31.1387L8.20181 33.4931V24.7164Z" fill="#3762CC"/>
<path d="M16.2258 37.5589C16.1767 37.5589 16.1274 37.5496 16.0807 37.5306L8.44175 34.4277C8.32006 34.3782 8.23175 34.2702 8.20775 34.141C8.18356 34.0118 8.22706 33.8792 8.32268 33.7892L15.836 26.7248C15.9476 26.62 16.1103 26.5911 16.2511 26.6507C16.3919 26.7106 16.4842 26.848 16.4859 27.001L16.6115 37.1686C16.6132 37.2977 16.55 37.4192 16.4433 37.492C16.3782 37.5362 16.3023 37.5589 16.2258 37.5589ZM9.28943 33.9391L15.8328 36.5971L15.7252 27.8877L9.28943 33.9391Z" fill="#3762CC"/>
<path d="M31.899 27.3916C31.8058 27.3916 31.7139 27.3578 31.6419 27.2937L23.7431 20.2426C23.6437 20.1539 23.5972 20.0202 23.6199 19.889C23.6426 19.7577 23.7313 19.6475 23.8547 19.5974L32.3855 16.1286C32.508 16.0786 32.6479 16.0951 32.7557 16.1725C32.8633 16.2498 32.9238 16.3769 32.9158 16.5091L32.2839 27.029C32.2751 27.1765 32.1825 27.3061 32.0458 27.3625C31.9983 27.3822 31.9485 27.3916 31.899 27.3916ZM24.7185 20.0789L31.5615 26.1875L32.109 17.0738L24.7185 20.0789Z" fill="#3762CC"/>
<path d="M23.9992 30.6095C23.9236 30.6095 23.8484 30.5872 23.7839 30.5439C23.6772 30.4723 23.6133 30.3523 23.6133 30.2236V19.9543C23.6133 19.8022 23.7027 19.6644 23.8415 19.6021C23.98 19.5399 24.1424 19.565 24.256 19.6665L32.1548 26.7176C32.2542 26.8063 32.3007 26.94 32.278 27.071C32.2553 27.2023 32.1667 27.3125 32.0435 27.3626L24.1447 30.5808C24.0978 30.6001 24.0485 30.6095 23.9992 30.6095ZM24.385 20.8158V29.6499L31.18 26.8815L24.385 20.8158Z" fill="#3762CC"/>
<path d="M31.7726 37.5589C31.6794 37.5589 31.5875 37.5251 31.5153 37.4606L23.7419 30.5113C23.6427 30.4226 23.5962 30.2891 23.6189 30.1581C23.6416 30.0268 23.7303 29.9168 23.8535 29.8665L31.7523 26.6483C31.8717 26.5993 32.0082 26.6138 32.1151 26.6867C32.222 26.7594 32.2852 26.8809 32.2835 27.0103L32.1579 37.1779C32.156 37.3292 32.066 37.4653 31.9274 37.5263C31.8779 37.5482 31.8251 37.5589 31.7726 37.5589ZM24.7169 30.3478L31.3972 36.3201L31.5052 27.5822L24.7169 30.3478Z" fill="#3762CC"/>
<path d="M31.8995 27.3911C31.8215 27.3911 31.7441 27.3675 31.6782 27.3214C31.5684 27.2445 31.5063 27.1161 31.5144 26.9822L32.1462 16.4623C32.1554 16.309 32.2548 16.1756 32.3994 16.123C32.5439 16.0703 32.7056 16.1085 32.8115 16.2201L39.6929 23.4827C39.7796 23.574 39.8161 23.7019 39.7908 23.8253C39.7657 23.9486 39.6819 24.0518 39.5664 24.102L32.0531 27.3595C32.0039 27.3806 31.9516 27.3911 31.8995 27.3911ZM32.8632 17.3965L32.3223 26.4015L38.7537 23.6132L32.8632 17.3965Z" fill="#3762CC"/>
<path d="M39.4118 34.4559C39.3154 34.4559 39.2204 34.4197 39.1474 34.351L31.6341 27.2866C31.5396 27.1975 31.4961 27.0672 31.5184 26.9392C31.5408 26.8111 31.6259 26.7031 31.7449 26.6515L39.2583 23.3941C39.3777 23.3425 39.5148 23.3542 39.6233 23.4254C39.7319 23.4967 39.7975 23.618 39.7975 23.7479V34.0698C39.7975 34.2237 39.706 34.3629 39.5648 34.424C39.5155 34.4454 39.4634 34.4559 39.4118 34.4559ZM32.5898 27.1261L39.0258 33.1777V24.3359L32.5898 27.1261Z" fill="#3762CC"/>
<path d="M39.4122 34.4561C39.3371 34.4561 39.2622 34.434 39.1977 34.391C39.0907 34.3194 39.0264 34.1992 39.0264 34.0704V23.7485C39.0264 23.5907 39.1227 23.4485 39.2694 23.3902C39.4162 23.3317 39.5836 23.3687 39.6922 23.4832L46.1073 30.2538C46.3323 30.4914 46.4253 30.8272 46.3561 31.1523C46.2886 31.4696 46.0741 31.731 45.7826 31.8517L39.5596 34.427C39.5124 34.4463 39.4621 34.4561 39.4122 34.4561ZM39.7981 24.7164V33.4931L45.4876 31.1385C45.5696 31.1045 45.5947 31.0243 45.6016 30.9913C45.6179 30.9148 45.5977 30.8373 45.5472 30.7843L39.7981 24.7164Z" fill="#3762CC"/>
<path d="M31.7734 37.5588C31.6969 37.5588 31.621 37.5361 31.5559 37.4916C31.4492 37.4189 31.386 37.2974 31.3877 37.1682L31.5134 27.0006C31.5152 26.8476 31.6073 26.7102 31.7481 26.6504C31.8889 26.5906 32.0519 26.6194 32.1632 26.7244L39.6765 33.7889C39.7722 33.8789 39.8157 34.0114 39.7915 34.1406C39.7675 34.2698 39.6792 34.3778 39.5575 34.4273L31.9185 37.5303C31.8717 37.5494 31.8224 37.5588 31.7734 37.5588ZM32.2739 27.8875L32.1662 36.5969L38.7096 33.9389L32.2739 27.8875Z" fill="#3762CC"/>
<path d="M23.9999 20.3402C23.9244 20.3402 23.8492 20.3179 23.7847 20.2744C23.6782 20.2028 23.6143 20.0828 23.6143 19.9544V7.72767C23.6143 7.51467 23.7869 7.3418 24.0001 7.3418C24.2572 7.3418 24.4976 7.44642 24.6774 7.63598L32.8109 16.2203C32.8985 16.3127 32.9349 16.4427 32.9081 16.5672C32.8811 16.6919 32.7944 16.795 32.6763 16.843L24.1454 20.3117C24.0984 20.3309 24.0491 20.3402 23.9999 20.3402ZM24.3858 8.4503V19.3812L31.8624 16.341L24.3858 8.4503Z" fill="#3762CC"/>
<path d="M24.0007 20.3402C23.9515 20.3402 23.9022 20.3309 23.8554 20.3117L15.3245 16.843C15.2064 16.795 15.1197 16.6919 15.0927 16.5672C15.0657 16.4425 15.1021 16.3127 15.1899 16.2203L23.3234 7.63598C23.503 7.44623 23.7436 7.3418 24.0007 7.3418C24.2137 7.3418 24.3865 7.51448 24.3865 7.72767V19.9544C24.3865 20.0828 24.3226 20.2028 24.2161 20.2744C24.1514 20.3179 24.0762 20.3402 24.0007 20.3402ZM16.1384 16.341L23.615 19.3812V8.4503L16.1384 16.341Z" fill="#3762CC"/>
<path d="M24.0001 40.6585C23.81 40.6585 23.6241 40.6217 23.4475 40.5494L16.0805 37.5299C15.9575 37.4794 15.8691 37.3694 15.8465 37.2383C15.8238 37.1072 15.8705 36.9739 15.9696 36.8854L23.743 29.9361C23.8563 29.8347 24.0188 29.8094 24.1576 29.8716C24.2963 29.9337 24.3858 30.0715 24.3858 30.2237V40.2728C24.386 40.4856 24.2131 40.6585 24.0001 40.6585ZM16.9435 37.0497L23.6144 39.7838V31.0861L16.9435 37.0497Z" fill="#3762CC"/>
<path d="M23.9992 40.6587C23.7862 40.6587 23.6133 40.486 23.6133 40.2728V30.2237C23.6133 30.0715 23.7027 29.9337 23.8415 29.8716C23.9804 29.8094 24.1428 29.8347 24.256 29.9361L32.0294 36.8854C32.1286 36.9739 32.1751 37.1074 32.1526 37.2383C32.1301 37.3692 32.0418 37.4794 31.9186 37.5299L24.5515 40.5494C24.3749 40.6219 24.1891 40.6587 23.9992 40.6587ZM24.385 31.0862V39.7842L31.0559 37.0501L24.385 31.0862Z" fill="#3762CC"/>
</g>
</svg>
