<svg width="48" height="48" viewBox="0 0 48 48" fill="none" xmlns="http://www.w3.org/2000/svg">
<path d="M24.0479 41.8906C23.9633 41.8906 23.88 41.8619 23.8129 41.8079C23.7242 41.7368 23.6729 41.6294 23.6729 41.5156V36.5301C23.6729 36.3543 23.7953 36.2018 23.9672 36.1639L35.5845 33.6053C35.6954 33.5811 35.8116 33.6083 35.9001 33.6794C35.9888 33.7504 36.0402 33.8581 36.0402 33.9717L36.04 38.9571C36.04 39.133 35.9175 39.2854 35.7456 39.3233L24.1285 41.8819C24.1017 41.8876 24.0747 41.8906 24.0479 41.8906ZM24.4229 36.8316V41.0491L35.29 38.6556L35.2902 34.4382L24.4229 36.8316Z" fill="#3762CC"/>
<path d="M20.1445 40.661L31.7618 38.1025L35.666 38.9555L24.0488 41.5139L20.1445 40.661Z" fill="#383838"/>
<path d="M12.335 38.95L23.9521 36.3916L27.8564 37.2496L16.2391 39.8082L12.335 38.95Z" fill="#F9A7A7"/>
<path d="M27.8566 37.25L31.7611 38.1028L20.1438 40.6612L16.2393 39.8086L27.8566 37.25Z" fill="#6BDDDD"/>
<path d="M16.2393 39.8086L20.1438 40.6612V45.6466L16.2393 44.7938V39.8086Z" fill="#6BDDDD"/>
<path d="M12.3351 38.9502L12.335 43.9407L16.2393 44.7936V39.8084L12.3351 38.9502Z" fill="#F9A7A7"/>
<path d="M20.1445 45.6466L24.0487 46.4993L24.0488 41.5141L20.1445 40.6611V45.6466Z" fill="#383838"/>
<path d="M35.6652 38.9556V43.9408L24.0479 46.4993L24.048 41.514L35.6652 38.9556Z" fill="#383838"/>
<path d="M35.6652 38.9556V43.9408L24.0479 46.4993L24.048 41.514L35.6652 38.9556Z" fill="#383838"/>
<path d="M27.9522 35.6701L16.2393 33.1065L20.1436 32.2466L31.8567 34.8103L27.9522 35.6701Z" fill="#F9A7A7"/>
<path d="M20.1426 32.2466L23.9515 31.4077L35.6644 33.9714L31.8557 34.8103L20.1426 32.2466Z" fill="#6BDDDD"/>
<path d="M20.1445 40.661L31.7618 38.1025L35.666 38.9555L24.0488 41.5139L20.1445 40.661Z" fill="#A4C9FF"/>
<path d="M20.1445 45.6466L24.0487 46.4993L24.0488 41.5141L20.1445 40.6611V45.6466Z" fill="#A4C9FF"/>
<path d="M35.6652 38.9556V43.9408L24.0479 46.4993L24.048 41.514L35.6652 38.9556Z" fill="#A4C9FF"/>
<path d="M35.6652 38.9556V43.9408L24.0479 46.4993L24.048 41.514L35.6652 38.9556Z" fill="#A4C9FF"/>
<path d="M24.0487 41.8891C24.0217 41.8891 23.995 41.8861 23.9686 41.8805L20.0645 41.0275C19.8923 40.99 19.7697 40.8376 19.7695 40.6615C19.7693 40.4855 19.8918 40.3329 20.0639 40.295L31.681 37.7364C31.7339 37.7247 31.7887 37.7245 31.8415 37.7362L35.7457 38.5891C35.9178 38.6268 36.0404 38.779 36.0406 38.9551C36.0408 39.1312 35.9183 39.2838 35.7462 39.3217L24.1291 41.8803C24.1027 41.8863 24.0757 41.8891 24.0487 41.8891ZM21.8948 40.6599L24.0483 41.1303L33.9155 38.9572L31.762 38.4867L21.8948 40.6599Z" fill="#3762CC"/>
<path d="M24.0487 46.8742C24.0218 46.8742 23.9952 46.8712 23.9686 46.8656L20.0645 46.0126C19.8922 45.975 19.7695 45.8225 19.7695 45.6463L19.7697 40.661C19.7697 40.5476 19.8211 40.4401 19.9096 40.3689C19.9979 40.2975 20.1142 40.2708 20.2248 40.2946L24.1289 41.1476C24.3012 41.1853 24.4238 41.3377 24.4238 41.514L24.4237 46.4992C24.4237 46.6126 24.3723 46.7201 24.2838 46.7913C24.2165 46.8455 24.1334 46.8742 24.0487 46.8742ZM20.5195 45.3444L23.6737 46.0335L23.6738 41.816L20.5197 41.127L20.5195 45.3444Z" fill="#3762CC"/>
<path d="M24.0479 46.8743C23.9633 46.8743 23.88 46.8456 23.8129 46.7916C23.7242 46.7205 23.6729 46.6129 23.6729 46.4993L23.673 41.514C23.673 41.3382 23.7955 41.1857 23.9674 41.1479L35.5845 38.5892C35.6954 38.565 35.8116 38.592 35.9001 38.6633C35.9888 38.7344 36.0402 38.8418 36.0402 38.9556V43.9409C36.0402 44.1167 35.9177 44.2692 35.7458 44.307L24.1285 46.8657C24.1017 46.8713 24.0747 46.8743 24.0479 46.8743ZM24.423 41.8155L24.4229 46.0328L35.2902 43.6394V39.4221L24.423 41.8155Z" fill="#3762CC"/>
<path d="M24.0479 46.8743C23.9633 46.8743 23.88 46.8456 23.8129 46.7916C23.7242 46.7205 23.6729 46.6129 23.6729 46.4993L23.673 41.514C23.673 41.3382 23.7955 41.1857 23.9674 41.1479L35.5845 38.5892C35.6954 38.565 35.8116 38.592 35.9001 38.6633C35.9888 38.7344 36.0402 38.8418 36.0402 38.9556V43.9409C36.0402 44.1167 35.9177 44.2692 35.7458 44.307L24.1285 46.8657C24.1017 46.8713 24.0747 46.8743 24.0479 46.8743ZM24.423 41.8155L24.4229 46.0328L35.2902 43.6394V39.4221L24.423 41.8155Z" fill="#3762CC"/>
<path d="M31.8564 39.7958L35.6649 38.9569L35.6651 33.9717L31.8564 34.8106V39.7958Z" fill="#6BDDDD"/>
<path d="M20.1438 41.0357C20.1169 41.0357 20.0901 41.0327 20.0637 41.0271L16.1592 40.1744C15.9871 40.1369 15.8644 39.9844 15.8643 39.8084C15.8641 39.6323 15.9865 39.4797 16.1586 39.4418L27.7758 36.8832C27.8286 36.8716 27.8834 36.8717 27.9363 36.883L31.8408 37.7357C32.0129 37.7732 32.1355 37.9257 32.1357 38.1017C32.1359 38.2778 32.0134 38.4304 31.8413 38.4683L20.2242 41.0269C20.1978 41.0329 20.1708 41.0357 20.1438 41.0357ZM17.9896 39.8067L20.1432 40.2769L30.0102 38.1038L27.8566 37.6336L17.9896 39.8067Z" fill="#3762CC"/>
<path d="M20.1438 46.0213C20.1169 46.0213 20.0903 46.0183 20.0637 46.0127L16.1592 45.1599C15.9869 45.1222 15.8643 44.9698 15.8643 44.7935L15.8644 39.8083C15.8644 39.6949 15.9158 39.5874 16.0043 39.5162C16.0928 39.4449 16.2085 39.4185 16.3195 39.4419L20.224 40.2947C20.3963 40.3324 20.5189 40.4848 20.5189 40.661L20.5188 45.6463C20.5188 45.7597 20.4674 45.8672 20.3789 45.9384C20.3116 45.9926 20.2285 46.0213 20.1438 46.0213ZM16.6141 44.4917L19.7686 45.1805L19.7688 40.9631L16.6143 40.2742L16.6141 44.4917Z" fill="#3762CC"/>
<path d="M16.2391 40.1833C16.2121 40.1833 16.1851 40.1803 16.1585 40.1745L12.2543 39.3165C12.0824 39.2788 11.96 39.1263 11.96 38.9503C11.96 38.7744 12.0822 38.622 12.2543 38.5841L23.8715 36.0255C23.9243 36.0136 23.9793 36.0136 24.0325 36.0255L27.9366 36.8835C28.1086 36.9211 28.231 37.0736 28.231 37.2496C28.231 37.4255 28.1086 37.578 27.9366 37.6158L16.3195 40.1745C16.2931 40.1803 16.2663 40.1833 16.2391 40.1833ZM14.0802 38.9497L16.2393 39.4241L26.1111 37.2498L23.9521 36.7755L14.0802 38.9497Z" fill="#3762CC"/>
<path d="M16.2391 45.1685C16.2123 45.1685 16.1856 45.1655 16.159 45.1598L12.2549 44.3069C12.0826 44.2692 11.96 44.1168 11.96 43.9405L11.9601 38.9502C11.9601 38.8368 12.0115 38.7291 12.1002 38.6579C12.1889 38.5868 12.3051 38.5596 12.4158 38.5838L16.3199 39.4418C16.4918 39.4795 16.6143 39.632 16.6143 39.808L16.6141 44.7933C16.6141 44.9067 16.5627 45.0143 16.4742 45.0854C16.4071 45.1398 16.324 45.1685 16.2391 45.1685ZM12.71 43.6386L15.8641 44.3277L15.8643 40.1099L12.7101 39.4167L12.71 43.6386Z" fill="#3762CC"/>
<path d="M20.1438 35.6769L16.2393 34.8243L12.335 33.9663V38.9566L16.2391 39.8097L20.1436 40.6623L24.0479 41.5151V36.5298L20.1438 35.6769Z" fill="#4671C6"/>
<path d="M27.952 35.6704L24.048 36.5303L24.0479 41.5155L27.952 40.6557V35.6704Z" fill="#4671C6"/>
<path d="M16.2391 33.1064L12.335 33.9663L24.0481 36.53L27.952 35.6701L16.2391 33.1064Z" fill="#4671C6"/>
<path d="M24.0479 41.8902C24.0211 41.8902 23.9945 41.8872 23.9678 41.8816L12.2549 39.323C12.0826 39.2853 11.96 39.1328 11.96 38.9566V33.9663C11.96 33.8528 12.0113 33.7452 12.1 33.674C12.1887 33.6027 12.3051 33.5759 12.4156 33.5999L20.2238 35.3105L24.1281 36.1634C24.3005 36.2011 24.4231 36.3535 24.4231 36.5298L24.4229 41.515C24.4229 41.6285 24.3715 41.7359 24.283 41.8071C24.2157 41.8615 24.1327 41.8902 24.0479 41.8902ZM12.71 38.6547L23.6729 41.0493L23.6731 36.8318L12.71 34.4326V38.6547Z" fill="#3762CC"/>
<path d="M24.0479 41.8902C23.9633 41.8902 23.88 41.8615 23.8129 41.8075C23.7242 41.7365 23.6729 41.6289 23.6729 41.5152L23.673 36.53C23.673 36.3541 23.7955 36.2017 23.9672 36.1638L27.8712 35.3039C27.9829 35.2801 28.0982 35.3067 28.1869 35.378C28.2756 35.449 28.327 35.5565 28.327 35.6703V40.6555C28.327 40.8314 28.2045 40.9839 28.0328 41.0217L24.1285 41.8816C24.1017 41.8872 24.0747 41.8902 24.0479 41.8902ZM24.423 36.8315L24.4229 41.0487L27.577 40.354V36.1366L24.423 36.8315Z" fill="#3762CC"/>
<path d="M24.0481 36.905C24.0211 36.905 23.9943 36.902 23.9678 36.8964L12.2547 34.3325C12.0826 34.2948 11.9601 34.1424 11.96 33.9663C11.9598 33.7903 12.0822 33.6378 12.2543 33.5999L16.1583 32.7403C16.2111 32.7284 16.2661 32.7286 16.319 32.7401L28.0321 35.3038C28.204 35.3414 28.3267 35.4939 28.3268 35.6699C28.327 35.8458 28.2046 35.9984 28.0326 36.0363L24.1287 36.8962C24.1021 36.9022 24.0751 36.905 24.0481 36.905ZM14.0836 33.965L24.0479 36.146L26.2034 35.6713L16.2391 33.4904L14.0836 33.965Z" fill="#3762CC"/>
<path d="M27.9514 36.0453C27.9244 36.0453 27.8976 36.0423 27.8712 36.0367L16.158 33.473C15.9861 33.4353 15.8635 33.2829 15.8633 33.1068C15.8631 32.931 15.9855 32.7783 16.1575 32.7405L20.062 31.8804C20.1152 31.8686 20.17 31.8688 20.2228 31.8802L31.9358 34.4441C32.1079 34.4818 32.2303 34.6342 32.2305 34.8103C32.2307 34.9863 32.1083 35.1388 31.9362 35.1766L28.0318 36.0365C28.0054 36.0425 27.9786 36.0453 27.9514 36.0453ZM17.9871 33.1055L27.9514 35.2863L30.1073 34.8116L20.1432 32.6306L17.9871 33.1055Z" fill="#3762CC"/>
<path d="M27.9521 40.6557L31.8566 39.7958V34.8105L27.9521 35.6704V40.6557Z" fill="#F9A7A7"/>
<path d="M27.9521 41.0305C27.8676 41.0305 27.7843 41.0018 27.7172 40.9478C27.6285 40.8768 27.5771 40.7693 27.5771 40.6555V35.6703C27.5771 35.4944 27.6996 35.3419 27.8715 35.3041L31.776 34.4442C31.887 34.42 32.0031 34.4472 32.0916 34.5183C32.1803 34.5893 32.2316 34.6967 32.2316 34.8106V39.7958C32.2316 39.9717 32.1092 40.1241 31.9373 40.162L28.0328 41.0219C28.006 41.0275 27.9791 41.0305 27.9521 41.0305ZM28.3271 35.9718V40.189L31.4816 39.4943V35.2771L28.3271 35.9718Z" fill="#3762CC"/>
<path d="M31.8555 35.1855C31.8285 35.1855 31.8017 35.1825 31.7753 35.1768L20.0623 32.613C19.8902 32.5753 19.7678 32.4228 19.7676 32.2468C19.7674 32.0707 19.8898 31.9183 20.062 31.8804L23.8706 31.0415C23.9235 31.0299 23.9785 31.0297 24.0313 31.0413L35.7443 33.6052C35.9164 33.6429 36.0388 33.7953 36.039 33.9714C36.0392 34.1475 35.9168 34.2999 35.7446 34.3378L31.936 35.1767C31.9095 35.1827 31.8827 35.1855 31.8555 35.1855ZM21.8914 32.2457L31.8555 34.4267L33.9158 33.9729L23.9516 31.7919L21.8914 32.2457Z" fill="#3762CC"/>
<path d="M31.8564 40.1707C31.7719 40.1707 31.6886 40.142 31.6215 40.088C31.5328 40.017 31.4814 39.9095 31.4814 39.7957V34.8105C31.4814 34.6346 31.6039 34.4822 31.7758 34.4443L35.5845 33.6054C35.6953 33.581 35.8116 33.6082 35.9001 33.6795C35.9888 33.7505 36.0401 33.858 36.0401 33.9718V38.957C36.0401 39.1329 35.9177 39.2854 35.7458 39.3232L31.9371 40.1621C31.9103 40.1679 31.8834 40.1707 31.8564 40.1707ZM32.2314 35.112V39.3292L35.2901 38.6555V34.4383L32.2314 35.112Z" fill="#3762CC"/>
<path d="M24.0479 31.9212C23.9633 31.9212 23.88 31.8926 23.8129 31.8386C23.7242 31.7675 23.6729 31.6601 23.6729 31.5462V26.561C23.6729 26.3851 23.7953 26.2327 23.9672 26.1948L35.5845 23.6362C35.6954 23.6118 35.8116 23.639 35.9001 23.7102C35.9888 23.7813 36.0402 23.8889 36.0402 24.0026L36.04 28.9878C36.04 29.1637 35.9175 29.3161 35.7456 29.354L24.1285 31.9124C24.1017 31.9182 24.0747 31.9212 24.0479 31.9212ZM24.4229 26.8625V31.0797L35.29 28.6863L35.2902 24.4691L24.4229 26.8625Z" fill="#3762CC"/>
<path d="M20.1445 30.6917L31.7618 28.1333L35.666 28.986L24.0488 31.5445L20.1445 30.6917Z" fill="#383838"/>
<path d="M12.335 28.981L23.9521 26.4224L27.8564 27.2806L16.2391 29.839L12.335 28.981Z" fill="#A4C9FF"/>
<path d="M27.8566 27.2808L31.7611 28.1335L20.1438 30.6919L16.2393 29.8392L27.8566 27.2808Z" fill="#6BDDDD"/>
<path d="M16.2393 29.8394L20.1438 30.6921V35.6774L16.2393 34.8246V29.8394Z" fill="#6BDDDD"/>
<path d="M12.3351 28.981L12.335 33.9713L16.2393 34.8242V29.839L12.3351 28.981Z" fill="#A4C9FF"/>
<path d="M20.1445 35.6771L24.0487 36.5301L24.0488 31.5446L20.1445 30.6919V35.6771Z" fill="#383838"/>
<path d="M35.6652 28.9863V33.9716L24.0479 36.5302L24.048 31.5448L35.6652 28.9863Z" fill="#383838"/>
<path d="M35.6652 28.9863V33.9716L24.0479 36.5302L24.048 31.5448L35.6652 28.9863Z" fill="#383838"/>
<path d="M27.9522 25.7011L16.2393 23.1374L20.1436 22.2773L31.8567 24.8412L27.9522 25.7011Z" fill="#4671C6"/>
<path d="M20.1426 22.2777L23.9515 21.439L35.6644 24.0027L31.8557 24.8415L20.1426 22.2777Z" fill="#6BDDDD"/>
<path d="M20.1445 30.6917L31.7618 28.1333L35.666 28.986L24.0488 31.5445L20.1445 30.6917Z" fill="#A4C9FF"/>
<path d="M20.1445 35.6771L24.0487 36.5301L24.0488 31.5446L20.1445 30.6919V35.6771Z" fill="#A4C9FF"/>
<path d="M35.6652 28.9863V33.9716L24.0479 36.5302L24.048 31.5448L35.6652 28.9863Z" fill="#A4C9FF"/>
<path d="M35.6652 28.9863V33.9716L24.0479 36.5302L24.048 31.5448L35.6652 28.9863Z" fill="#A4C9FF"/>
<path d="M24.0487 31.9197C24.0217 31.9197 23.995 31.9167 23.9686 31.911L20.0645 31.0583C19.8923 31.0208 19.7697 30.8684 19.7695 30.6923C19.7693 30.5162 19.8918 30.3636 20.0639 30.3257L31.681 27.7671C31.7339 27.7553 31.7887 27.7555 31.8415 27.7669L35.7457 28.6197C35.9178 28.6572 36.0404 28.8096 36.0406 28.9857C36.0408 29.1617 35.9183 29.3144 35.7462 29.3522L24.1291 31.9109C24.1027 31.9169 24.0757 31.9197 24.0487 31.9197ZM21.895 30.6906L24.0483 31.1609L33.9153 28.9877L31.762 28.5175L21.895 30.6906Z" fill="#3762CC"/>
<path d="M24.0487 36.9054C24.0218 36.9054 23.9952 36.9023 23.9686 36.8967L20.0645 36.0438C19.8922 36.0061 19.7695 35.8537 19.7695 35.6774L19.7697 30.6922C19.7697 30.5787 19.8211 30.4713 19.9096 30.4C19.9979 30.3288 20.1142 30.3022 20.2248 30.3258L24.1289 31.1785C24.3012 31.2162 24.4238 31.3687 24.4238 31.5449L24.4237 36.5304C24.4237 36.6438 24.3723 36.7512 24.2838 36.8225C24.2165 36.8767 24.1334 36.9054 24.0487 36.9054ZM20.5195 35.3755L23.6737 36.0646L23.6738 31.847L20.5197 31.1581L20.5195 35.3755Z" fill="#3762CC"/>
<path d="M24.0479 36.9053C23.9633 36.9053 23.88 36.8766 23.8129 36.8226C23.7242 36.7515 23.6729 36.6439 23.6729 36.5303L23.673 31.5449C23.673 31.369 23.7955 31.2165 23.9674 31.1787L35.5845 28.62C35.6954 28.5957 35.8116 28.623 35.9001 28.6941C35.9888 28.7652 36.0402 28.8726 36.0402 28.9864V33.9719C36.0402 34.1477 35.9177 34.3002 35.7458 34.338L24.1285 36.8967C24.1017 36.9025 24.0747 36.9053 24.0479 36.9053ZM24.423 31.8464L24.4229 36.0638L35.2902 33.6704V29.4529L24.423 31.8464Z" fill="#3762CC"/>
<path d="M24.0479 36.9053C23.9633 36.9053 23.88 36.8766 23.8129 36.8226C23.7242 36.7515 23.6729 36.6439 23.6729 36.5303L23.673 31.5449C23.673 31.369 23.7955 31.2165 23.9674 31.1787L35.5845 28.62C35.6954 28.5957 35.8116 28.623 35.9001 28.6941C35.9888 28.7652 36.0402 28.8726 36.0402 28.9864V33.9719C36.0402 34.1477 35.9177 34.3002 35.7458 34.338L24.1285 36.8967C24.1017 36.9025 24.0747 36.9053 24.0479 36.9053ZM24.423 31.8464L24.4229 36.0638L35.2902 33.6704V29.4529L24.423 31.8464Z" fill="#3762CC"/>
<path d="M31.8564 29.8266L35.6649 28.9877L35.6651 24.0024L31.8564 24.8413V29.8266Z" fill="#6BDDDD"/>
<path d="M20.1438 31.0671C20.1169 31.0671 20.0901 31.0641 20.0637 31.0584L16.1592 30.2057C15.9871 30.1682 15.8644 30.0158 15.8643 29.8397C15.8641 29.6636 15.9865 29.511 16.1586 29.4731L27.7758 26.9145C27.8286 26.9029 27.8834 26.9029 27.9363 26.9143L31.8408 27.7671C32.0129 27.8046 32.1355 27.957 32.1357 28.1331C32.1359 28.3091 32.0134 28.4618 31.8413 28.4996L20.2242 31.0583C20.1978 31.0643 20.1708 31.0671 20.1438 31.0671ZM17.9896 29.838L20.1432 30.3083L30.0102 28.1351L27.8566 27.6649L17.9896 29.838Z" fill="#3762CC"/>
<path d="M20.1438 36.0523C20.1169 36.0523 20.0903 36.0493 20.0637 36.0437L16.1592 35.1909C15.9869 35.1533 15.8643 35.0008 15.8643 34.8246L15.8644 29.8393C15.8644 29.7259 15.9158 29.6184 16.0043 29.5472C16.0928 29.4758 16.2085 29.4489 16.3195 29.4729L20.224 30.3257C20.3963 30.3634 20.5189 30.5158 20.5189 30.6921L20.5188 35.6773C20.5188 35.7908 20.4674 35.8982 20.3789 35.9694C20.3116 36.0236 20.2285 36.0523 20.1438 36.0523ZM16.6141 34.5227L19.7686 35.2116L19.7688 30.9941L16.6143 30.3053L16.6141 34.5227Z" fill="#3762CC"/>
<path d="M16.2391 30.2142C16.2121 30.2142 16.1851 30.2112 16.1585 30.2054L12.2543 29.3472C12.0824 29.3095 11.96 29.1571 11.96 28.981C11.96 28.8052 12.0824 28.6527 12.2543 28.6148L23.8715 26.0562C23.9243 26.0444 23.9793 26.0444 24.0325 26.0562L27.9366 26.9144C28.1086 26.9521 28.231 27.1045 28.231 27.2806C28.231 27.4565 28.1086 27.6089 27.9366 27.6468L16.3195 30.2054C16.2931 30.2112 16.2663 30.2142 16.2391 30.2142ZM14.0802 28.9805L16.2393 29.455L26.1111 27.2808L23.9521 26.8062L14.0802 28.9805Z" fill="#3762CC"/>
<path d="M16.2391 35.1994C16.2123 35.1994 16.1856 35.1964 16.159 35.1908L12.2549 34.3379C12.0826 34.3002 11.96 34.1477 11.96 33.9715L11.9601 28.981C11.9601 28.8676 12.0115 28.7599 12.1002 28.6887C12.1889 28.6174 12.3051 28.5904 12.4158 28.6146L16.3199 29.4728C16.4918 29.5105 16.6143 29.6629 16.6143 29.839L16.6141 34.8242C16.6141 34.9377 16.5627 35.0451 16.4742 35.1164C16.4071 35.1707 16.324 35.1994 16.2391 35.1994ZM12.71 33.6696L15.8641 34.3587L15.8643 30.1409L12.7101 29.4475L12.71 33.6696Z" fill="#3762CC"/>
<path d="M20.1438 25.7078L16.2393 24.8551L12.335 23.9971V28.9874L16.2391 29.8405L20.1436 30.6933L24.0479 31.546V26.5608L20.1438 25.7078Z" fill="#F9A7A7"/>
<path d="M27.952 25.7012L24.048 26.5609L24.0479 31.5461L27.952 30.6864V25.7012Z" fill="#F9A7A7"/>
<path d="M16.2391 23.1377L12.335 23.9974L24.0481 26.5611L27.952 25.7014L16.2391 23.1377Z" fill="#F9A7A7"/>
<path d="M24.0479 31.9213C24.0211 31.9213 23.9945 31.9183 23.9678 31.9127L12.2549 29.3541C12.0826 29.3164 11.96 29.1639 11.96 28.9877V23.9974C11.96 23.8839 12.0113 23.7763 12.1 23.7051C12.1887 23.6338 12.3051 23.6074 12.4156 23.631L20.2238 25.3416L24.1281 26.1945C24.3005 26.2322 24.4231 26.3846 24.4231 26.5609L24.4229 31.5461C24.4229 31.6596 24.3715 31.767 24.283 31.8382C24.2157 31.8926 24.1327 31.9213 24.0479 31.9213ZM12.71 28.6858L23.6729 31.0804L23.6731 26.8629L12.71 24.4637V28.6858Z" fill="#3762CC"/>
<path d="M24.0479 31.9213C23.9633 31.9213 23.88 31.8927 23.8129 31.8387C23.7242 31.7676 23.6729 31.66 23.6729 31.5463L23.673 26.5611C23.673 26.3852 23.7955 26.2328 23.9674 26.1949L27.8714 25.3352C27.9822 25.3112 28.0982 25.3382 28.1869 25.4093C28.2756 25.4803 28.327 25.5878 28.327 25.7016V30.6868C28.327 30.8627 28.2045 31.0152 28.0326 31.053L24.1285 31.9127C24.1017 31.9183 24.0747 31.9213 24.0479 31.9213ZM24.423 26.8626L24.4229 31.0798L27.577 30.3853V26.1681L24.423 26.8626Z" fill="#3762CC"/>
<path d="M24.0481 26.9358C24.0211 26.9358 23.9943 26.9328 23.9678 26.9271L12.2547 24.3635C12.0828 24.3258 11.9601 24.1733 11.96 23.9973C11.9598 23.8214 12.0822 23.6688 12.2541 23.6309L16.1581 22.771C16.2113 22.7594 16.2661 22.7592 16.319 22.7708L28.0321 25.3347C28.2042 25.3724 28.3267 25.5248 28.3268 25.7009C28.327 25.877 28.2046 26.0294 28.0325 26.0673L24.1285 26.927C24.1021 26.933 24.0751 26.9358 24.0481 26.9358ZM14.0836 23.996L24.0479 26.1768L26.2034 25.7022L16.2391 23.5212L14.0836 23.996Z" fill="#3762CC"/>
<path d="M27.9514 26.0761C27.9244 26.0761 27.8976 26.0731 27.8712 26.0675L16.158 23.5036C15.9859 23.4659 15.8635 23.3135 15.8633 23.1374C15.8631 22.9613 15.9855 22.8089 16.1577 22.771L20.0622 21.9112C20.115 21.8995 20.17 21.8993 20.2228 21.911L31.9358 24.4747C32.1077 24.5123 32.2303 24.6648 32.2305 24.8408C32.2307 25.0167 32.1083 25.1693 31.9363 25.2072L28.032 26.0673C28.0054 26.0733 27.9786 26.0761 27.9514 26.0761ZM17.9871 23.1363L27.9514 25.3173L30.1075 24.8423L20.1432 22.6615L17.9871 23.1363Z" fill="#3762CC"/>
<path d="M27.9521 30.6864L31.8566 29.8266V24.8413L27.9521 25.7012V30.6864Z" fill="#4671C6"/>
<path d="M27.9521 31.0615C27.8676 31.0615 27.7843 31.0328 27.7172 30.9788C27.6285 30.9077 27.5771 30.8003 27.5771 30.6865V25.7012C27.5771 25.5254 27.6996 25.3729 27.8713 25.335L31.7758 24.475C31.8866 24.4508 32.0031 24.4778 32.0916 24.549C32.1803 24.6201 32.2316 24.7275 32.2316 24.8414V29.8266C32.2316 30.0025 32.1092 30.1549 31.9375 30.1928L28.033 31.0528C28.0061 31.0585 27.9791 31.0615 27.9521 31.0615ZM28.3271 26.0027V30.22L31.4816 29.5251V25.3078L28.3271 26.0027Z" fill="#3762CC"/>
<path d="M31.8555 25.216C31.8285 25.216 31.8017 25.213 31.7753 25.2074L20.0623 22.6437C19.8904 22.606 19.7678 22.4536 19.7676 22.2775C19.7674 22.1015 19.8898 21.949 20.062 21.9112L23.8706 21.0723C23.9235 21.0605 23.9785 21.0607 24.0313 21.0721L35.7443 23.6358C35.9162 23.6735 36.0388 23.8259 36.039 24.002C36.0392 24.178 35.9168 24.3305 35.7446 24.3684L31.936 25.2072C31.9095 25.2132 31.8827 25.216 31.8555 25.216ZM21.8914 22.2764L31.8555 24.4572L33.9158 24.0035L23.9516 21.8227L21.8914 22.2764Z" fill="#3762CC"/>
<path d="M31.8564 30.2015C31.7719 30.2015 31.6886 30.1728 31.6215 30.1188C31.5328 30.0477 31.4814 29.9403 31.4814 29.8265V24.8412C31.4814 24.6654 31.6039 24.5129 31.7758 24.4751L35.5845 23.6362C35.6953 23.6118 35.8116 23.639 35.9001 23.7102C35.9888 23.7813 36.0401 23.8887 36.0401 24.0026V28.9878C36.0401 29.1637 35.9177 29.3161 35.7458 29.354L31.9371 30.1929C31.9103 30.1987 31.8834 30.2015 31.8564 30.2015ZM32.2314 25.1427V29.36L35.2901 28.6863V24.4691L32.2314 25.1427Z" fill="#3762CC"/>
<path d="M24.0479 21.9523C23.9633 21.9523 23.88 21.9236 23.8129 21.8696C23.7242 21.7985 23.6729 21.6911 23.6729 21.5773V16.5918C23.6729 16.416 23.7953 16.2635 23.9672 16.2257L35.5845 13.667C35.6954 13.6425 35.8116 13.6698 35.9001 13.7411C35.9888 13.8122 36.0402 13.9198 36.0402 14.0334L36.04 19.0188C36.04 19.1947 35.9175 19.3472 35.7456 19.385L24.1285 21.9437C24.1017 21.9493 24.0747 21.9523 24.0479 21.9523ZM24.4229 16.8933V21.1108L35.29 18.7173L35.2902 14.4999L24.4229 16.8933Z" fill="#3762CC"/>
<path d="M20.1445 20.7227L31.7618 18.1641L35.666 19.017L24.0488 21.5754L20.1445 20.7227Z" fill="#383838"/>
<path d="M12.335 19.0121L23.9521 16.4536L27.8564 17.3116L16.2391 19.8702L12.335 19.0121Z" fill="#F9A7A7"/>
<path d="M27.8566 17.3115L31.7611 18.1643L20.1438 20.7229L16.2393 19.8701L27.8566 17.3115Z" fill="#6BDDDD"/>
<path d="M16.2393 19.8701L20.1438 20.7229V25.7081L16.2393 24.8554V19.8701Z" fill="#6BDDDD"/>
<path d="M12.3351 19.0122L12.335 24.0027L16.2393 24.8556V19.8704L12.3351 19.0122Z" fill="#F9A7A7"/>
<path d="M20.1445 25.7084L24.0487 26.5611L24.0488 21.5759L20.1445 20.7231V25.7084Z" fill="#383838"/>
<path d="M35.6652 19.0171V24.0023L24.0479 26.5608L24.048 21.5755L35.6652 19.0171Z" fill="#383838"/>
<path d="M35.6652 19.0171V24.0023L24.0479 26.5608L24.048 21.5755L35.6652 19.0171Z" fill="#383838"/>
<path d="M27.9522 15.7322L16.2393 13.1685L20.1436 12.3086L31.8567 14.8723L27.9522 15.7322Z" fill="#F9A7A7"/>
<path d="M20.1426 12.3086L23.9515 11.4697L35.6644 14.0334L31.8557 14.8723L20.1426 12.3086Z" fill="#6BDDDD"/>
<path d="M20.1445 20.7227L31.7618 18.1641L35.666 19.017L24.0488 21.5754L20.1445 20.7227Z" fill="#A4C9FF"/>
<path d="M20.1445 25.7084L24.0487 26.5611L24.0488 21.5759L20.1445 20.7231V25.7084Z" fill="#A4C9FF"/>
<path d="M35.6652 19.0171V24.0023L24.0479 26.5608L24.048 21.5755L35.6652 19.0171Z" fill="#A4C9FF"/>
<path d="M35.6652 19.0171V24.0023L24.0479 26.5608L24.048 21.5755L35.6652 19.0171Z" fill="#A4C9FF"/>
<path d="M24.0487 21.9506C24.0217 21.9506 23.995 21.9476 23.9686 21.942L20.0645 21.0891C19.8923 21.0514 19.7697 20.8991 19.7695 20.7231C19.7693 20.547 19.8918 20.3944 20.0639 20.3565L31.681 17.7979C31.7339 17.7861 31.7887 17.7863 31.8415 17.7977L35.7457 18.6506C35.9178 18.6881 36.0404 18.8406 36.0406 19.0166C36.0408 19.1927 35.9183 19.3453 35.7462 19.3832L24.1291 21.9418C24.1027 21.9478 24.0757 21.9506 24.0487 21.9506ZM21.8948 20.7214L24.0483 21.1918L33.9155 19.0187L31.762 18.5483L21.8948 20.7214Z" fill="#3762CC"/>
<path d="M24.0487 26.9358C24.0218 26.9358 23.9952 26.9328 23.9686 26.9272L20.0645 26.0744C19.8922 26.0367 19.7695 25.8843 19.7695 25.7081L19.7697 20.7226C19.7697 20.6092 19.8211 20.5017 19.9096 20.4305C19.9979 20.3591 20.1142 20.3322 20.2248 20.3562L24.1289 21.2092C24.3012 21.2469 24.4238 21.3993 24.4238 21.5756L24.4237 26.5608C24.4237 26.6742 24.3723 26.7817 24.2838 26.8529C24.2165 26.9071 24.1334 26.9358 24.0487 26.9358ZM20.5195 25.4062L23.6737 26.0951L23.6738 21.8776L20.5197 21.1886L20.5195 25.4062Z" fill="#3762CC"/>
<path d="M24.0479 26.9361C23.9633 26.9361 23.88 26.9075 23.8129 26.8535C23.7242 26.7824 23.6729 26.6748 23.6729 26.5611L23.673 21.5759C23.673 21.4 23.7955 21.2476 23.9674 21.2097L35.5845 18.6511C35.6954 18.6273 35.8116 18.6539 35.9001 18.7251C35.9888 18.7962 36.0402 18.9037 36.0402 19.0175V24.0027C36.0402 24.1786 35.9177 24.331 35.7458 24.3689L24.1285 26.9275C24.1017 26.9333 24.0747 26.9361 24.0479 26.9361ZM24.423 21.8774L24.4229 26.0947L35.2902 23.7012V19.484L24.423 21.8774Z" fill="#3762CC"/>
<path d="M24.0479 26.9361C23.9633 26.9361 23.88 26.9075 23.8129 26.8535C23.7242 26.7824 23.6729 26.6748 23.6729 26.5611L23.673 21.5759C23.673 21.4 23.7955 21.2476 23.9674 21.2097L35.5845 18.6511C35.6954 18.6273 35.8116 18.6539 35.9001 18.7251C35.9888 18.7962 36.0402 18.9037 36.0402 19.0175V24.0027C36.0402 24.1786 35.9177 24.331 35.7458 24.3689L24.1285 26.9275C24.1017 26.9333 24.0747 26.9361 24.0479 26.9361ZM24.423 21.8774L24.4229 26.0947L35.2902 23.7012V19.484L24.423 21.8774Z" fill="#3762CC"/>
<path d="M31.8564 19.8573L35.6649 19.0186L35.6651 14.0332L31.8564 14.8721V19.8573Z" fill="#6BDDDD"/>
<path d="M20.1438 21.0978C20.1169 21.0978 20.0901 21.0948 20.0637 21.0892L16.1592 20.2365C15.9871 20.199 15.8644 20.0465 15.8643 19.8705C15.8641 19.6944 15.9865 19.5418 16.1586 19.5039L27.7758 16.9453C27.8286 16.9336 27.8834 16.9336 27.9363 16.9451L31.8408 17.7978C32.0129 17.8353 32.1355 17.9878 32.1357 18.1638C32.1359 18.3399 32.0134 18.4925 31.8413 18.5304L20.2242 21.089C20.1978 21.095 20.1708 21.0978 20.1438 21.0978ZM17.9896 19.8688L20.1432 20.339L30.0102 18.1659L27.8566 17.6956L17.9896 19.8688Z" fill="#3762CC"/>
<path d="M20.1438 26.0831C20.1169 26.0831 20.0903 26.0801 20.0637 26.0745L16.1592 25.2217C15.9869 25.184 15.8643 25.0316 15.8643 24.8553L15.8644 19.8699C15.8644 19.7565 15.9158 19.649 16.0043 19.5778C16.0928 19.5065 16.2085 19.4799 16.3195 19.5035L20.224 20.3563C20.3963 20.394 20.5189 20.5464 20.5189 20.7226L20.5188 25.7081C20.5188 25.8215 20.4674 25.929 20.3789 26.0002C20.3116 26.0544 20.2285 26.0831 20.1438 26.0831ZM16.6141 24.5535L19.7686 25.2423L19.7688 21.0247L16.6143 20.3358L16.6141 24.5535Z" fill="#3762CC"/>
<path d="M16.2391 20.2453C16.2121 20.2453 16.1851 20.2423 16.1585 20.2365L12.2543 19.3785C12.0824 19.3408 11.96 19.1883 11.96 19.0123C11.96 18.8364 12.0822 18.684 12.2543 18.6461L23.8715 16.0875C23.9243 16.0757 23.9793 16.0757 24.0325 16.0875L27.9366 16.9455C28.1086 16.9832 28.231 17.1356 28.231 17.3117C28.231 17.4875 28.1086 17.64 27.9366 17.6778L16.3195 20.2365C16.2931 20.2423 16.2663 20.2453 16.2391 20.2453ZM14.0802 19.0117L16.2393 19.4861L26.1111 17.3118L23.9521 16.8375L14.0802 19.0117Z" fill="#3762CC"/>
<path d="M16.2391 25.2305C16.2123 25.2305 16.1856 25.2275 16.159 25.2219L12.2549 24.3688C12.0826 24.3311 11.96 24.1786 11.96 24.0024L11.9601 19.0121C11.9601 18.8986 12.0115 18.791 12.1002 18.7198C12.1889 18.6487 12.3051 18.6219 12.4158 18.6457L16.3199 19.5037C16.4918 19.5414 16.6143 19.6938 16.6143 19.8699L16.6141 24.8553C16.6141 24.9688 16.5627 25.0764 16.4742 25.1474C16.4071 25.2018 16.324 25.2305 16.2391 25.2305ZM12.71 23.7005L15.8641 24.3898L15.8643 20.1718L12.7101 19.4786L12.71 23.7005Z" fill="#3762CC"/>
<path d="M20.1438 15.7391L16.2393 14.8863L12.335 14.0283V19.0186L16.2391 19.8718L20.1436 20.7245L24.0479 21.5773V16.5918L20.1438 15.7391Z" fill="#4671C6"/>
<path d="M27.952 15.7319L24.048 16.5918L24.0479 21.5771L27.952 20.7174V15.7319Z" fill="#4671C6"/>
<path d="M16.2391 13.1685L12.335 14.0283L24.0481 16.592L27.952 15.7321L16.2391 13.1685Z" fill="#4671C6"/>
<path d="M24.0479 21.9521C24.0211 21.9521 23.9945 21.9491 23.9678 21.9434L12.2549 19.3848C12.0826 19.3471 11.96 19.1947 11.96 19.0184V14.0281C11.96 13.9147 12.0113 13.8071 12.1 13.7358C12.1887 13.6646 12.3051 13.6381 12.4156 13.6618L20.2238 15.3723L24.1281 16.2253C24.3005 16.2629 24.4231 16.4154 24.4231 16.5916L24.4229 21.5769C24.4229 21.6903 24.3715 21.7978 24.283 21.869C24.2157 21.9234 24.1327 21.9521 24.0479 21.9521ZM12.71 18.7166L23.6729 21.1111L23.6731 16.8937L12.71 14.4944V18.7166Z" fill="#3762CC"/>
<path d="M24.0479 21.9524C23.9633 21.9524 23.88 21.9237 23.8129 21.8697C23.7242 21.7986 23.6729 21.691 23.6729 21.5774L23.673 16.5921C23.673 16.4162 23.7955 16.2638 23.9672 16.2259L27.8712 15.3661C27.9829 15.3419 28.0982 15.3691 28.1869 15.4401C28.2756 15.5112 28.327 15.6186 28.327 15.7324V20.7177C28.327 20.8936 28.2045 21.046 28.0328 21.0839L24.1285 21.9437C24.1017 21.9494 24.0747 21.9524 24.0479 21.9524ZM24.423 16.8936L24.4229 21.1109L27.577 20.4162V16.1989L24.423 16.8936Z" fill="#3762CC"/>
<path d="M24.0481 16.967C24.0211 16.967 23.9943 16.964 23.9678 16.9584L12.2547 14.3945C12.0826 14.3568 11.9601 14.2044 11.96 14.0283C11.9598 13.8523 12.0822 13.6998 12.2543 13.662L16.1583 12.8023C16.2111 12.7905 16.2661 12.7906 16.319 12.8021L28.0321 15.3658C28.204 15.4035 28.3267 15.5559 28.3268 15.732C28.327 15.9078 28.2046 16.0605 28.0326 16.0983L24.1287 16.9582C24.1021 16.9642 24.0751 16.967 24.0481 16.967ZM14.0838 14.0272L24.0479 16.2082L26.2034 15.7335L16.2391 13.5525L14.0838 14.0272Z" fill="#3762CC"/>
<path d="M27.9522 16.1072C27.9252 16.1072 27.8984 16.1042 27.8719 16.0985L16.159 13.535C15.9871 13.4973 15.8644 13.3449 15.8643 13.1688C15.8641 12.993 15.9865 12.8403 16.1584 12.8025L20.0629 11.9424C20.1162 11.9306 20.1709 11.9308 20.2238 11.9422L31.9368 14.5061C32.1089 14.5438 32.2313 14.6962 32.2315 14.8723C32.2317 15.0483 32.1093 15.2008 31.9371 15.2387L28.0328 16.0985C28.0062 16.1043 27.9794 16.1072 27.9522 16.1072ZM17.9879 13.1675L27.9522 15.3483L30.1081 14.8736L20.1439 12.6926L17.9879 13.1675Z" fill="#3762CC"/>
<path d="M27.9521 20.7174L31.8566 19.8573V14.8721L27.9521 15.7319V20.7174Z" fill="#F9A7A7"/>
<path d="M27.9521 21.0922C27.8676 21.0922 27.7843 21.0635 27.7172 21.0095C27.6285 20.9385 27.5771 20.831 27.5771 20.7172V15.732C27.5771 15.5561 27.6996 15.4036 27.8715 15.3658L31.776 14.5059C31.887 14.4813 32.0031 14.5087 32.0916 14.58C32.1803 14.651 32.2316 14.7585 32.2316 14.8723V19.8575C32.2316 20.0334 32.1092 20.1858 31.9373 20.2237L28.0328 21.0836C28.006 21.0894 27.9791 21.0922 27.9521 21.0922ZM28.3271 16.0335V20.2507L31.4816 19.556V15.3388L28.3271 16.0335Z" fill="#3762CC"/>
<path d="M31.8563 15.2473C31.8293 15.2473 31.8025 15.2443 31.7761 15.2387L20.0633 12.675C19.8912 12.6373 19.7687 12.4849 19.7686 12.3088C19.7684 12.1327 19.8908 11.9803 20.0629 11.9424L23.8716 11.1035C23.9245 11.0917 23.9794 11.0919 24.0323 11.1034L35.7452 13.6672C35.9174 13.7049 36.0398 13.8574 36.04 14.0334C36.0402 14.2095 35.9177 14.3619 35.7456 14.3998L31.9369 15.2387C31.9103 15.2445 31.8835 15.2473 31.8563 15.2473ZM21.8922 12.3075L31.8563 14.4885L33.9166 14.0347L23.9524 11.8537L21.8922 12.3075Z" fill="#3762CC"/>
<path d="M31.8564 20.2326C31.7719 20.2326 31.6886 20.2039 31.6215 20.1499C31.5328 20.0788 31.4814 19.9714 31.4814 19.8576V14.8723C31.4814 14.6965 31.6039 14.544 31.7758 14.5062L35.5845 13.6673C35.6953 13.6433 35.8116 13.6701 35.9001 13.7413C35.9888 13.8124 36.0401 13.9198 36.0401 14.0337V19.0189C36.0401 19.1948 35.9177 19.3472 35.7458 19.3851L31.9371 20.224C31.9103 20.2298 31.8834 20.2326 31.8564 20.2326ZM32.2314 15.1738V19.3911L35.2901 18.7174V14.5002L32.2314 15.1738Z" fill="#3762CC"/>
<path d="M12.335 9.043L23.9521 6.48438L27.8564 7.34256L16.2391 9.901L12.335 9.043Z" fill="#A4C9FF"/>
<path d="M12.3351 9.04297L12.335 14.0335L16.2393 14.8864V9.90097L12.3351 9.04297Z" fill="#A4C9FF"/>
<path d="M20.1445 15.7392L24.0487 16.5921L24.0488 11.6068L20.1445 10.7539V15.7392Z" fill="#383838"/>
<path d="M16.2391 10.2762C16.2121 10.2762 16.1851 10.2732 16.1585 10.2674L12.2543 9.40923C12.0824 9.37155 11.96 9.21911 11.96 9.04305C11.96 8.86717 12.0824 8.71473 12.2543 8.67686L23.8715 6.11823C23.9243 6.10642 23.9793 6.10642 24.0325 6.11823L27.9366 6.97642C28.1086 7.01411 28.231 7.16655 28.231 7.34261C28.231 7.51848 28.1086 7.67092 27.9366 7.7088L16.3197 10.2674C16.2931 10.2732 16.2663 10.2762 16.2391 10.2762ZM14.0802 9.04267L16.2393 9.51723L26.1111 7.34298L23.9521 6.86842L14.0802 9.04267Z" fill="#3762CC"/>
<path d="M16.2391 15.2613C16.2123 15.2613 16.1856 15.2583 16.159 15.2526L12.2549 14.3997C12.0826 14.362 11.96 14.2096 11.96 14.0333L11.9601 9.04283C11.9601 8.92939 12.0115 8.82177 12.1002 8.75052C12.1889 8.67945 12.3051 8.65264 12.4158 8.67645L16.3199 9.53464C16.4918 9.57233 16.6143 9.72477 16.6143 9.90083L16.6141 14.8861C16.6141 14.9995 16.5627 15.1071 16.4742 15.1782C16.4071 15.2324 16.324 15.2613 16.2391 15.2613ZM12.71 13.7313L15.8641 14.4203L15.8643 10.2025L12.7101 9.50914L12.71 13.7313Z" fill="#3762CC"/>
<path d="M27.8566 7.34277V12.3087L16.2393 14.8866V9.90121L27.8566 7.34277Z" fill="#A4C9FF"/>
<path d="M16.2393 15.2617C16.1547 15.2617 16.0716 15.2332 16.0045 15.1792C15.9158 15.1081 15.8643 15.0005 15.8643 14.8867L15.8644 9.90141C15.8644 9.72553 15.9869 9.5731 16.1588 9.53522L27.7759 6.9766C27.8868 6.95203 28.0028 6.97941 28.0915 7.05066C28.1802 7.12172 28.2316 7.22916 28.2316 7.34297V12.3087C28.2316 12.4846 28.1095 12.6367 27.9379 12.6747L16.3206 15.2527C16.2936 15.2587 16.2664 15.2617 16.2393 15.2617ZM16.6144 10.2027L16.6143 14.4192L27.4816 12.0078V7.80928L16.6144 10.2027Z" fill="#3762CC"/>
<path d="M20.1445 10.7538L31.7618 8.19531L35.666 9.04806L24.0488 11.6067L20.1445 10.7538Z" fill="#383838"/>
<path d="M35.6652 9.04785V14.0333L24.0479 16.5917L24.048 11.6065L35.6652 9.04785Z" fill="#383838"/>
<path d="M35.6652 9.04785V14.0333L24.0479 16.5917L24.048 11.6065L35.6652 9.04785Z" fill="#383838"/>
<path d="M20.1445 10.7538L31.7618 8.19531L35.666 9.04806L24.0488 11.6067L20.1445 10.7538Z" fill="#A4C9FF"/>
<path d="M20.1445 15.7392L24.0487 16.5921L24.0488 11.6068L20.1445 10.7539V15.7392Z" fill="#A4C9FF"/>
<path d="M35.6652 9.04785V14.0333L24.0479 16.5917L24.048 11.6065L35.6652 9.04785Z" fill="#A4C9FF"/>
<path d="M35.6652 9.04785V14.0333L24.0479 16.5917L24.048 11.6065L35.6652 9.04785Z" fill="#A4C9FF"/>
<path d="M24.0487 11.9817C24.0217 11.9817 23.995 11.9787 23.9686 11.9731L20.0645 11.1203C19.8923 11.0828 19.7697 10.9304 19.7695 10.7543C19.7693 10.5782 19.8918 10.4256 20.0639 10.3877L31.681 7.82912C31.7339 7.81731 31.7887 7.8175 31.8415 7.82894L35.7457 8.68169C35.9178 8.71919 36.0404 8.87163 36.0406 9.04769C36.0408 9.22375 35.9183 9.37637 35.7462 9.41425L24.1291 11.9729C24.1027 11.9789 24.0757 11.9817 24.0487 11.9817ZM21.895 10.7526L24.0483 11.2229L33.9153 9.04975L31.762 8.5795L21.895 10.7526Z" fill="#3762CC"/>
<path d="M24.0487 16.967C24.0218 16.967 23.9952 16.964 23.9686 16.9584L20.0645 16.1054C19.8922 16.0677 19.7695 15.9153 19.7695 15.739L19.7697 10.7538C19.7697 10.6404 19.8211 10.5329 19.9096 10.4617C19.9979 10.3902 20.1142 10.3636 20.2248 10.3874L24.1289 11.2402C24.3012 11.2779 24.4238 11.4303 24.4238 11.6065L24.4237 16.592C24.4237 16.7054 24.3723 16.8129 24.2838 16.8841C24.2165 16.9383 24.1334 16.967 24.0487 16.967ZM20.5195 15.4372L23.6737 16.1262L23.6738 11.9086L20.5197 11.2197L20.5195 15.4372Z" fill="#3762CC"/>
<path d="M24.0479 16.9672C23.9633 16.9672 23.88 16.9385 23.8129 16.8845C23.7242 16.8134 23.6729 16.7058 23.6729 16.5922L23.673 11.6067C23.673 11.4309 23.7955 11.2784 23.9674 11.2406L35.5845 8.68193C35.6954 8.65793 35.8116 8.68474 35.9001 8.75599C35.9888 8.82705 36.0402 8.93449 36.0402 9.0483V14.0337C36.0402 14.2096 35.9177 14.3621 35.7458 14.3999L24.1285 16.9586C24.1017 16.9644 24.0747 16.9672 24.0479 16.9672ZM24.423 11.9082L24.4229 16.1257L35.2902 13.7322V9.5148L24.423 11.9082Z" fill="#3762CC"/>
<path d="M24.0479 16.9672C23.9633 16.9672 23.88 16.9385 23.8129 16.8845C23.7242 16.8134 23.6729 16.7058 23.6729 16.5922L23.673 11.6067C23.673 11.4309 23.7955 11.2784 23.9674 11.2406L35.5845 8.68193C35.6954 8.65793 35.8116 8.68474 35.9001 8.75599C35.9888 8.82705 36.0402 8.93449 36.0402 9.0483V14.0337C36.0402 14.2096 35.9177 14.3621 35.7458 14.3999L24.1285 16.9586C24.1017 16.9644 24.0747 16.9672 24.0479 16.9672ZM24.423 11.9082L24.4229 16.1257L35.2902 13.7322V9.5148L24.423 11.9082Z" fill="#3762CC"/>
<path d="M27.9522 5.76311L16.2393 3.19942L20.1436 2.33936L31.8567 4.90323L27.9522 5.76311Z" fill="#4671C6"/>
<path d="M20.1426 2.33918L23.9515 1.50049L35.6644 4.06418L31.8557 4.90305L20.1426 2.33918Z" fill="#6BDDDD"/>
<path d="M31.8564 9.88858L35.6649 9.0497L35.6651 4.06445L31.8564 4.90333V9.88858Z" fill="#6BDDDD"/>
<path d="M27.9522 6.13792C27.9252 6.13792 27.8984 6.13492 27.8719 6.12929L16.159 3.56561C15.9869 3.52792 15.8644 3.37548 15.8643 3.19942C15.8641 3.02336 15.9865 2.87092 16.1586 2.83304L20.0631 1.97317C20.116 1.96136 20.1709 1.96154 20.2238 1.97298L31.9368 4.53667C32.1087 4.57436 32.2313 4.72679 32.2315 4.90286C32.2317 5.07873 32.1093 5.23136 31.9373 5.26923L28.033 6.12929C28.0062 6.13511 27.9794 6.13792 27.9522 6.13792ZM17.9879 3.19811L27.9522 5.37911L30.1083 4.90417L20.1439 2.72336L17.9879 3.19811Z" fill="#3762CC"/>
<path d="M27.9521 10.7484L31.8566 9.88857V4.90332L27.9521 5.7632V10.7484Z" fill="#4671C6"/>
<path d="M27.9521 11.1233C27.8676 11.1233 27.7843 11.0946 27.7172 11.0406C27.6285 10.9696 27.5771 10.8621 27.5771 10.7483V5.76308C27.5771 5.5872 27.6996 5.43477 27.8713 5.39689L31.7758 4.53683C31.8866 4.51302 32.0031 4.53964 32.0916 4.61089C32.1803 4.68195 32.2316 4.78939 32.2316 4.9032V9.88864C32.2316 10.0645 32.1092 10.217 31.9373 10.2548L28.0328 11.1147C28.006 11.1205 27.9791 11.1233 27.9521 11.1233ZM28.3271 6.06458V10.2818L31.4816 9.58714V5.36971L28.3271 6.06458Z" fill="#3762CC"/>
<path d="M31.8555 5.27805C31.8285 5.27805 31.8017 5.27505 31.7753 5.26943L20.0623 2.70574C19.8904 2.66805 19.7678 2.51561 19.7676 2.33955C19.7674 2.16349 19.8898 2.01105 20.062 1.97318L23.8706 1.1343C23.9235 1.12249 23.9785 1.12268 24.0313 1.13411L35.7443 3.6978C35.9162 3.73549 36.0388 3.88793 36.039 4.06399C36.0392 4.24005 35.9168 4.39249 35.7446 4.43036L31.936 5.26924C31.9095 5.27524 31.8827 5.27805 31.8555 5.27805ZM21.8914 2.33843L31.8555 4.51924L33.9158 4.06549L23.9516 1.88468L21.8914 2.33843Z" fill="#3762CC"/>
<path d="M31.8564 10.2635C31.7719 10.2635 31.6886 10.2348 31.6215 10.1808C31.5328 10.1098 31.4814 10.0023 31.4814 9.88852V4.90308C31.4814 4.7272 31.6039 4.57477 31.7758 4.53689L35.5845 3.69802C35.6953 3.67402 35.8116 3.70102 35.9001 3.77208C35.9888 3.84314 36.0401 3.95058 36.0401 4.06439V9.04983C36.0401 9.2257 35.9177 9.37814 35.7458 9.41602L31.9371 10.2549C31.9103 10.2607 31.8834 10.2635 31.8564 10.2635ZM32.2314 5.20458V9.42202L35.2901 8.74833V4.53089L32.2314 5.20458Z" fill="#3762CC"/>
<path d="M16.2393 3.19922V8.19516L27.9522 10.7482V5.76291L16.2393 3.19922Z" fill="#4671C6"/>
<path d="M27.9514 11.1232C27.9248 11.1232 27.8982 11.1204 27.8715 11.1146L16.1584 8.56158C15.9861 8.52408 15.8633 8.37145 15.8633 8.1952V3.19908C15.8633 3.08564 15.9147 2.97801 16.0032 2.90695C16.0917 2.8357 16.2077 2.80889 16.3185 2.8327L28.0317 5.39658C28.2038 5.43426 28.3264 5.58689 28.3264 5.76295V10.7482C28.3264 10.8616 28.275 10.9691 28.1867 11.0403C28.1194 11.0945 28.0362 11.1232 27.9514 11.1232ZM16.6133 7.89314L27.5764 10.2828V6.06483L16.6133 3.6652V7.89314Z" fill="#3762CC"/>
</svg>
