<svg width="48" height="48" viewBox="0 0 48 48" fill="none" xmlns="http://www.w3.org/2000/svg">
<g style="mix-blend-mode:luminosity">
<path d="M24.0479 41.8906C23.9633 41.8906 23.88 41.8619 23.8129 41.8079C23.7242 41.7368 23.6729 41.6294 23.6729 41.5156V36.5301C23.6729 36.3543 23.7953 36.2018 23.9672 36.1639L35.5845 33.6053C35.6954 33.5811 35.8116 33.6083 35.9001 33.6794C35.9888 33.7504 36.0402 33.8581 36.0402 33.9717L36.04 38.9571C36.04 39.133 35.9175 39.2854 35.7456 39.3233L24.1285 41.8819C24.1017 41.8876 24.0747 41.8906 24.0479 41.8906ZM24.4229 36.8316V41.0491L35.29 38.6556L35.2902 34.4382L24.4229 36.8316Z" fill="#3762CC"/>
<path d="M20.1445 40.6611L31.7618 38.1027L35.666 38.9556L24.0488 41.514L20.1445 40.6611Z" fill="#383838"/>
<path d="M12.335 38.9503L23.9521 36.3918L27.8564 37.2498L16.2391 39.8085L12.335 38.9503Z" fill="#F9A7A7"/>
<path d="M27.8566 37.2499L31.7611 38.1026L20.1438 40.6611L16.2393 39.8085L27.8566 37.2499Z" fill="#6BDDDD"/>
<path d="M16.2393 39.8085L20.1438 40.661V45.6465L16.2393 44.7937V39.8085Z" fill="#6BDDDD"/>
<path d="M12.3351 38.9503L12.335 43.9408L16.2393 44.7938V39.8085L12.3351 38.9503Z" fill="#F9A7A7"/>
<path d="M20.1445 45.6466L24.0487 46.4993L24.0488 41.5141L20.1445 40.6611V45.6466Z" fill="#383838"/>
<path d="M35.6652 38.9556V43.9408L24.0479 46.4993L24.048 41.514L35.6652 38.9556Z" fill="#383838"/>
<path d="M35.6652 38.9556V43.9408L24.0479 46.4993L24.048 41.514L35.6652 38.9556Z" fill="#383838"/>
<path d="M27.9522 35.6704L16.2393 33.1067L20.1436 32.2468L31.8567 34.8105L27.9522 35.6704Z" fill="#F9A7A7"/>
<path d="M20.1426 32.2468L23.9515 31.408L35.6644 33.9716L31.8557 34.8105L20.1426 32.2468Z" fill="#6BDDDD"/>
<path d="M20.1445 40.6611L31.7618 38.1027L35.666 38.9556L24.0488 41.514L20.1445 40.6611Z" fill="#A4C9FF"/>
<path d="M20.1445 45.6466L24.0487 46.4993L24.0488 41.5141L20.1445 40.6611V45.6466Z" fill="#A4C9FF"/>
<path d="M35.6652 38.9556V43.9408L24.0479 46.4993L24.048 41.514L35.6652 38.9556Z" fill="#A4C9FF"/>
<path d="M35.6652 38.9556V43.9408L24.0479 46.4993L24.048 41.514L35.6652 38.9556Z" fill="#A4C9FF"/>
<path d="M24.0487 41.889C24.0217 41.889 23.995 41.886 23.9686 41.8804L20.0645 41.0274C19.8923 40.9899 19.7697 40.8375 19.7695 40.6614C19.7693 40.4854 19.8918 40.3327 20.0639 40.2949L31.681 37.7362C31.7339 37.7246 31.7887 37.7244 31.8415 37.736L35.7457 38.589C35.9178 38.6267 36.0404 38.7789 36.0406 38.955C36.0408 39.131 35.9183 39.2837 35.7462 39.3215L24.1291 41.8802C24.1027 41.8862 24.0757 41.889 24.0487 41.889ZM21.8948 40.6597L24.0483 41.1302L33.9155 38.957L31.762 38.4866L21.8948 40.6597Z" fill="#3762CC"/>
<path d="M24.0487 46.8743C24.0218 46.8743 23.9952 46.8713 23.9686 46.8657L20.0645 46.0128C19.8922 45.9751 19.7695 45.8226 19.7695 45.6464L19.7697 40.6611C19.7697 40.5477 19.8211 40.4403 19.9096 40.369C19.9979 40.2976 20.1142 40.2709 20.2248 40.2948L24.1289 41.1477C24.3012 41.1854 24.4238 41.3378 24.4238 41.5141L24.4237 46.4993C24.4237 46.6128 24.3723 46.7202 24.2838 46.7915C24.2165 46.8456 24.1334 46.8743 24.0487 46.8743ZM20.5195 45.3445L23.6737 46.0336L23.6738 41.8161L20.5197 41.1271L20.5195 45.3445Z" fill="#3762CC"/>
<path d="M24.0479 46.8743C23.9633 46.8743 23.88 46.8456 23.8129 46.7916C23.7242 46.7205 23.6729 46.6129 23.6729 46.4993L23.673 41.514C23.673 41.3382 23.7955 41.1857 23.9674 41.1479L35.5845 38.5892C35.6954 38.565 35.8116 38.592 35.9001 38.6633C35.9888 38.7344 36.0402 38.8418 36.0402 38.9556V43.9409C36.0402 44.1167 35.9177 44.2692 35.7458 44.307L24.1285 46.8657C24.1017 46.8713 24.0747 46.8743 24.0479 46.8743ZM24.423 41.8155L24.4229 46.0328L35.2902 43.6394V39.4221L24.423 41.8155Z" fill="#3762CC"/>
<path d="M24.0479 46.8743C23.9633 46.8743 23.88 46.8456 23.8129 46.7916C23.7242 46.7205 23.6729 46.6129 23.6729 46.4993L23.673 41.514C23.673 41.3382 23.7955 41.1857 23.9674 41.1479L35.5845 38.5892C35.6954 38.565 35.8116 38.592 35.9001 38.6633C35.9888 38.7344 36.0402 38.8418 36.0402 38.9556V43.9409C36.0402 44.1167 35.9177 44.2692 35.7458 44.307L24.1285 46.8657C24.1017 46.8713 24.0747 46.8743 24.0479 46.8743ZM24.423 41.8155L24.4229 46.0328L35.2902 43.6394V39.4221L24.423 41.8155Z" fill="#3762CC"/>
<path d="M31.8564 39.7958L35.6649 38.9569L35.6651 33.9717L31.8564 34.8106V39.7958Z" fill="#6BDDDD"/>
<path d="M20.1438 41.0361C20.1169 41.0361 20.0901 41.0331 20.0637 41.0275L16.1592 40.1747C15.9871 40.1372 15.8644 39.9848 15.8643 39.8087C15.8641 39.6327 15.9865 39.48 16.1586 39.4422L27.7758 36.8836C27.8286 36.8719 27.8834 36.8721 27.9363 36.8834L31.8408 37.7361C32.0129 37.7736 32.1355 37.926 32.1357 38.1021C32.1359 38.2782 32.0134 38.4308 31.8413 38.4687L20.2242 41.0273C20.1978 41.0333 20.1708 41.0361 20.1438 41.0361ZM17.9896 39.807L20.1432 40.2773L30.0102 38.1042L27.8566 37.6339L17.9896 39.807Z" fill="#3762CC"/>
<path d="M20.1438 46.0213C20.1169 46.0213 20.0903 46.0183 20.0637 46.0127L16.1592 45.1599C15.9869 45.1222 15.8643 44.9698 15.8643 44.7935L15.8644 39.8083C15.8644 39.6949 15.9158 39.5874 16.0043 39.5162C16.0928 39.4449 16.2085 39.4185 16.3195 39.4419L20.224 40.2947C20.3963 40.3324 20.5189 40.4848 20.5189 40.661L20.5188 45.6463C20.5188 45.7597 20.4674 45.8672 20.3789 45.9384C20.3116 45.9926 20.2285 46.0213 20.1438 46.0213ZM16.6141 44.4917L19.7686 45.1805L19.7688 40.9631L16.6143 40.2742L16.6141 44.4917Z" fill="#3762CC"/>
<path d="M16.2391 40.1835C16.2121 40.1835 16.1851 40.1805 16.1585 40.1747L12.2543 39.3167C12.0824 39.279 11.96 39.1266 11.96 38.9505C11.96 38.7746 12.0822 38.6222 12.2543 38.5843L23.8715 36.0257C23.9243 36.0139 23.9793 36.0139 24.0325 36.0257L27.9366 36.8837C28.1086 36.9214 28.231 37.0738 28.231 37.2499C28.231 37.4258 28.1086 37.5782 27.9366 37.6161L16.3195 40.1747C16.2931 40.1805 16.2663 40.1835 16.2391 40.1835ZM14.0802 38.95L16.2393 39.4243L26.1111 37.2501L23.9521 36.7757L14.0802 38.95Z" fill="#3762CC"/>
<path d="M16.2391 45.1686C16.2123 45.1686 16.1856 45.1656 16.159 45.16L12.2549 44.307C12.0826 44.2693 11.96 44.1169 11.96 43.9406L11.9601 38.9503C11.9601 38.8369 12.0115 38.7293 12.1002 38.658C12.1889 38.587 12.3051 38.5598 12.4158 38.584L16.3199 39.442C16.4918 39.4796 16.6143 39.6321 16.6143 39.8081L16.6141 44.7934C16.6141 44.9068 16.5627 45.0145 16.4742 45.0855C16.4071 45.1399 16.324 45.1686 16.2391 45.1686ZM12.71 43.6388L15.8641 44.3278L15.8643 40.11L12.7101 39.4168L12.71 43.6388Z" fill="#3762CC"/>
<path d="M20.1438 35.6771L16.2393 34.8246L12.335 33.9666V38.9569L16.2391 39.81L20.1436 40.6626L24.0479 41.5153V36.5301L20.1438 35.6771Z" fill="#4671C6"/>
<path d="M27.952 35.6704L24.048 36.5303L24.0479 41.5155L27.952 40.6557V35.6704Z" fill="#4671C6"/>
<path d="M16.2391 33.1067L12.335 33.9666L24.0481 36.5303L27.952 35.6704L16.2391 33.1067Z" fill="#4671C6"/>
<path d="M24.0479 41.8903C24.0211 41.8903 23.9945 41.8873 23.9678 41.8817L12.2549 39.3231C12.0826 39.2854 11.96 39.133 11.96 38.9567V33.9664C11.96 33.853 12.0113 33.7453 12.1 33.6741C12.1887 33.6028 12.3051 33.576 12.4156 33.6L20.2238 35.3106L24.1281 36.1635C24.3005 36.2012 24.4231 36.3536 24.4231 36.5299L24.4229 41.5151C24.4229 41.6286 24.3715 41.736 24.283 41.8073C24.2157 41.8616 24.1327 41.8903 24.0479 41.8903ZM12.71 38.6548L23.6729 41.0494L23.6731 36.832L12.71 34.4327V38.6548Z" fill="#3762CC"/>
<path d="M24.0479 41.8905C23.9633 41.8905 23.88 41.8618 23.8129 41.8078C23.7242 41.7367 23.6729 41.6291 23.6729 41.5155L23.673 36.5302C23.673 36.3544 23.7955 36.2019 23.9672 36.164L27.8712 35.3042C27.9829 35.2804 28.0982 35.307 28.1869 35.3782C28.2756 35.4493 28.327 35.5567 28.327 35.6705V40.6558C28.327 40.8317 28.2045 40.9841 28.0328 41.022L24.1285 41.8819C24.1017 41.8875 24.0747 41.8905 24.0479 41.8905ZM24.423 36.8317L24.4229 41.049L27.577 40.3543V36.1369L24.423 36.8317Z" fill="#3762CC"/>
<path d="M24.0481 36.9053C24.0211 36.9053 23.9943 36.9023 23.9678 36.8966L12.2547 34.3328C12.0826 34.2951 11.9601 34.1426 11.96 33.9666C11.9598 33.7905 12.0822 33.6381 12.2543 33.6002L16.1583 32.7405C16.2111 32.7287 16.2661 32.7289 16.319 32.7403L28.0321 35.304C28.204 35.3417 28.3267 35.4941 28.3268 35.6702C28.327 35.8461 28.2046 35.9987 28.0326 36.0366L24.1287 36.8964C24.1021 36.9024 24.0751 36.9053 24.0481 36.9053ZM14.0836 33.9653L24.0479 36.1463L26.2034 35.6715L16.2391 33.4907L14.0836 33.9653Z" fill="#3762CC"/>
<path d="M27.9514 36.0455C27.9244 36.0455 27.8976 36.0425 27.8712 36.0368L16.158 33.4731C15.9861 33.4355 15.8635 33.283 15.8633 33.107C15.8631 32.9311 15.9855 32.7785 16.1575 32.7406L20.062 31.8805C20.1152 31.8687 20.17 31.8689 20.2228 31.8803L31.9358 34.4442C32.1079 34.4819 32.2303 34.6343 32.2305 34.8104C32.2307 34.9865 32.1083 35.1389 31.9362 35.1768L28.0318 36.0366C28.0054 36.0426 27.9786 36.0455 27.9514 36.0455ZM17.9871 33.1056L27.9514 35.2865L30.1073 34.8117L20.1432 32.6307L17.9871 33.1056Z" fill="#3762CC"/>
<path d="M27.9521 40.6557L31.8566 39.7958V34.8105L27.9521 35.6704V40.6557Z" fill="#F9A7A7"/>
<path d="M27.9521 41.0306C27.8676 41.0306 27.7843 41.0019 27.7172 40.9479C27.6285 40.8769 27.5771 40.7694 27.5771 40.6556V35.6704C27.5771 35.4945 27.6996 35.3421 27.8715 35.3042L31.776 34.4443C31.887 34.4201 32.0031 34.4473 32.0916 34.5184C32.1803 34.5894 32.2316 34.6969 32.2316 34.8107V39.7959C32.2316 39.9718 32.1092 40.1242 31.9373 40.1621L28.0328 41.022C28.006 41.0276 27.9791 41.0306 27.9521 41.0306ZM28.3271 35.9719V40.1891L31.4816 39.4944V35.2772L28.3271 35.9719Z" fill="#3762CC"/>
<path d="M31.8555 35.1856C31.8285 35.1856 31.8017 35.1826 31.7753 35.177L20.0623 32.6131C19.8902 32.5754 19.7678 32.423 19.7676 32.2469C19.7674 32.0708 19.8898 31.9184 20.062 31.8805L23.8706 31.0416C23.9235 31.03 23.9785 31.0298 24.0313 31.0415L35.7443 33.6053C35.9164 33.643 36.0388 33.7955 36.039 33.9715C36.0392 34.1476 35.9168 34.3 35.7446 34.3379L31.936 35.1768C31.9095 35.1828 31.8827 35.1856 31.8555 35.1856ZM21.8914 32.2458L31.8555 34.4268L33.9158 33.973L23.9516 31.792L21.8914 32.2458Z" fill="#3762CC"/>
<path d="M31.8564 40.1707C31.7719 40.1707 31.6886 40.142 31.6215 40.088C31.5328 40.017 31.4814 39.9095 31.4814 39.7957V34.8105C31.4814 34.6346 31.6039 34.4822 31.7758 34.4443L35.5845 33.6054C35.6953 33.581 35.8116 33.6082 35.9001 33.6795C35.9888 33.7505 36.0401 33.858 36.0401 33.9718V38.957C36.0401 39.1329 35.9177 39.2854 35.7458 39.3232L31.9371 40.1621C31.9103 40.1679 31.8834 40.1707 31.8564 40.1707ZM32.2314 35.112V39.3292L35.2901 38.6555V34.4383L32.2314 35.112Z" fill="#3762CC"/>
<path d="M24.0479 31.9214C23.9633 31.9214 23.88 31.8927 23.8129 31.8387C23.7242 31.7676 23.6729 31.6602 23.6729 31.5464V26.5611C23.6729 26.3852 23.7953 26.2328 23.9672 26.1949L35.5845 23.6363C35.6954 23.6119 35.8116 23.6391 35.9001 23.7104C35.9888 23.7814 36.0402 23.8891 36.0402 24.0027L36.04 28.9879C36.04 29.1638 35.9175 29.3162 35.7456 29.3541L24.1285 31.9126C24.1017 31.9184 24.0747 31.9214 24.0479 31.9214ZM24.4229 26.8626V31.0799L35.29 28.6864L35.2902 24.4692L24.4229 26.8626Z" fill="#3762CC"/>
<path d="M20.1445 30.692L31.7618 28.1335L35.666 28.9863L24.0488 31.5447L20.1445 30.692Z" fill="#383838"/>
<path d="M12.335 28.9814L23.9521 26.4227L27.8564 27.2809L16.2391 29.8394L12.335 28.9814Z" fill="#A4C9FF"/>
<path d="M27.8566 27.2809L31.7611 28.1336L20.1438 30.6921L16.2393 29.8393L27.8566 27.2809Z" fill="#6BDDDD"/>
<path d="M16.2393 29.8394L20.1438 30.6921V35.6774L16.2393 34.8246V29.8394Z" fill="#6BDDDD"/>
<path d="M12.3351 28.9813L12.335 33.9716L16.2393 34.8246V29.8393L12.3351 28.9813Z" fill="#A4C9FF"/>
<path d="M20.1445 35.6774L24.0487 36.5303L24.0488 31.5449L20.1445 30.6921V35.6774Z" fill="#383838"/>
<path d="M35.6652 28.9863V33.9716L24.0479 36.5302L24.048 31.5448L35.6652 28.9863Z" fill="#383838"/>
<path d="M35.6652 28.9863V33.9716L24.0479 36.5302L24.048 31.5448L35.6652 28.9863Z" fill="#383838"/>
<path d="M27.9522 25.7013L16.2393 23.1377L20.1436 22.2776L31.8567 24.8415L27.9522 25.7013Z" fill="#4671C6"/>
<path d="M20.1426 22.2777L23.9515 21.439L35.6644 24.0027L31.8557 24.8415L20.1426 22.2777Z" fill="#6BDDDD"/>
<path d="M20.1445 30.692L31.7618 28.1335L35.666 28.9863L24.0488 31.5447L20.1445 30.692Z" fill="#A4C9FF"/>
<path d="M20.1445 35.6774L24.0487 36.5303L24.0488 31.5449L20.1445 30.6921V35.6774Z" fill="#A4C9FF"/>
<path d="M35.6652 28.9863V33.9716L24.0479 36.5302L24.048 31.5448L35.6652 28.9863Z" fill="#A4C9FF"/>
<path d="M35.6652 28.9863V33.9716L24.0479 36.5302L24.048 31.5448L35.6652 28.9863Z" fill="#A4C9FF"/>
<path d="M24.0487 31.9198C24.0217 31.9198 23.995 31.9168 23.9686 31.9112L20.0645 31.0584C19.8923 31.0209 19.7697 30.8685 19.7695 30.6924C19.7693 30.5164 19.8918 30.3637 20.0639 30.3259L31.681 27.7672C31.7339 27.7554 31.7887 27.7556 31.8415 27.767L35.7457 28.6198C35.9178 28.6573 36.0404 28.8097 36.0406 28.9858C36.0408 29.1619 35.9183 29.3145 35.7462 29.3524L24.1291 31.911C24.1027 31.917 24.0757 31.9198 24.0487 31.9198ZM21.895 30.6907L24.0483 31.161L33.9153 28.9879L31.762 28.5176L21.895 30.6907Z" fill="#3762CC"/>
<path d="M24.0487 36.9054C24.0218 36.9054 23.9952 36.9023 23.9686 36.8967L20.0645 36.0438C19.8922 36.0061 19.7695 35.8537 19.7695 35.6774L19.7697 30.6922C19.7697 30.5787 19.8211 30.4713 19.9096 30.4C19.9979 30.3288 20.1142 30.3022 20.2248 30.3258L24.1289 31.1785C24.3012 31.2162 24.4238 31.3687 24.4238 31.5449L24.4237 36.5304C24.4237 36.6438 24.3723 36.7512 24.2838 36.8225C24.2165 36.8767 24.1334 36.9054 24.0487 36.9054ZM20.5195 35.3755L23.6737 36.0646L23.6738 31.847L20.5197 31.1581L20.5195 35.3755Z" fill="#3762CC"/>
<path d="M24.0479 36.9053C23.9633 36.9053 23.88 36.8766 23.8129 36.8226C23.7242 36.7515 23.6729 36.6439 23.6729 36.5303L23.673 31.5449C23.673 31.369 23.7955 31.2165 23.9674 31.1787L35.5845 28.62C35.6954 28.5957 35.8116 28.623 35.9001 28.6941C35.9888 28.7652 36.0402 28.8726 36.0402 28.9864V33.9719C36.0402 34.1477 35.9177 34.3002 35.7458 34.338L24.1285 36.8967C24.1017 36.9025 24.0747 36.9053 24.0479 36.9053ZM24.423 31.8464L24.4229 36.0638L35.2902 33.6704V29.4529L24.423 31.8464Z" fill="#3762CC"/>
<path d="M24.0479 36.9053C23.9633 36.9053 23.88 36.8766 23.8129 36.8226C23.7242 36.7515 23.6729 36.6439 23.6729 36.5303L23.673 31.5449C23.673 31.369 23.7955 31.2165 23.9674 31.1787L35.5845 28.62C35.6954 28.5957 35.8116 28.623 35.9001 28.6941C35.9888 28.7652 36.0402 28.8726 36.0402 28.9864V33.9719C36.0402 34.1477 35.9177 34.3002 35.7458 34.338L24.1285 36.8967C24.1017 36.9025 24.0747 36.9053 24.0479 36.9053ZM24.423 31.8464L24.4229 36.0638L35.2902 33.6704V29.4529L24.423 31.8464Z" fill="#3762CC"/>
<path d="M31.8564 29.8268L35.6649 28.9879L35.6651 24.0027L31.8564 24.8416V29.8268Z" fill="#6BDDDD"/>
<path d="M20.1438 31.0671C20.1169 31.0671 20.0901 31.0641 20.0637 31.0584L16.1592 30.2057C15.9871 30.1682 15.8644 30.0158 15.8643 29.8397C15.8641 29.6636 15.9865 29.511 16.1586 29.4731L27.7758 26.9145C27.8286 26.9029 27.8834 26.9029 27.9363 26.9143L31.8408 27.7671C32.0129 27.8046 32.1355 27.957 32.1357 28.1331C32.1359 28.3091 32.0134 28.4618 31.8413 28.4996L20.2242 31.0583C20.1978 31.0643 20.1708 31.0671 20.1438 31.0671ZM17.9896 29.838L20.1432 30.3083L30.0102 28.1351L27.8566 27.6649L17.9896 29.838Z" fill="#3762CC"/>
<path d="M20.1438 36.0523C20.1169 36.0523 20.0903 36.0493 20.0637 36.0437L16.1592 35.1909C15.9869 35.1533 15.8643 35.0008 15.8643 34.8246L15.8644 29.8393C15.8644 29.7259 15.9158 29.6184 16.0043 29.5472C16.0928 29.4758 16.2085 29.4489 16.3195 29.4729L20.224 30.3257C20.3963 30.3634 20.5189 30.5158 20.5189 30.6921L20.5188 35.6773C20.5188 35.7908 20.4674 35.8982 20.3789 35.9694C20.3116 36.0236 20.2285 36.0523 20.1438 36.0523ZM16.6141 34.5227L19.7686 35.2116L19.7688 30.9941L16.6143 30.3053L16.6141 34.5227Z" fill="#3762CC"/>
<path d="M16.2391 30.2145C16.2121 30.2145 16.1851 30.2115 16.1585 30.2057L12.2543 29.3475C12.0824 29.3098 11.96 29.1573 11.96 28.9813C11.96 28.8054 12.0824 28.653 12.2543 28.6151L23.8715 26.0565C23.9243 26.0447 23.9793 26.0447 24.0325 26.0565L27.9366 26.9147C28.1086 26.9523 28.231 27.1048 28.231 27.2808C28.231 27.4567 28.1086 27.6092 27.9366 27.647L16.3195 30.2057C16.2931 30.2115 16.2663 30.2145 16.2391 30.2145ZM14.0802 28.9807L16.2393 29.4553L26.1111 27.281L23.9521 26.8065L14.0802 28.9807Z" fill="#3762CC"/>
<path d="M16.2391 35.1996C16.2123 35.1996 16.1856 35.1966 16.159 35.1909L12.2549 34.338C12.0826 34.3003 11.96 34.1479 11.96 33.9716L11.9601 28.9811C11.9601 28.8677 12.0115 28.7601 12.1002 28.6888C12.1889 28.6176 12.3051 28.5906 12.4158 28.6147L16.3199 29.4729C16.4918 29.5106 16.6143 29.6631 16.6143 29.8391L16.6141 34.8244C16.6141 34.9378 16.5627 35.0452 16.4742 35.1165C16.4071 35.1709 16.324 35.1996 16.2391 35.1996ZM12.71 33.6697L15.8641 34.3588L15.8643 30.141L12.7101 29.4476L12.71 33.6697Z" fill="#3762CC"/>
<path d="M20.1438 25.7082L16.2393 24.8554L12.335 23.9974V28.9877L16.2391 29.8409L20.1436 30.6936L24.0479 31.5464V26.5611L20.1438 25.7082Z" fill="#F9A7A7"/>
<path d="M27.952 25.7014L24.048 26.5611L24.0479 31.5464L27.952 30.6867V25.7014Z" fill="#F9A7A7"/>
<path d="M16.2391 23.1377L12.335 23.9974L24.0481 26.5611L27.952 25.7014L16.2391 23.1377Z" fill="#F9A7A7"/>
<path d="M24.0479 31.9213C24.0211 31.9213 23.9945 31.9183 23.9678 31.9127L12.2549 29.3541C12.0826 29.3164 11.96 29.1639 11.96 28.9877V23.9974C11.96 23.8839 12.0113 23.7763 12.1 23.7051C12.1887 23.6338 12.3051 23.6074 12.4156 23.631L20.2238 25.3416L24.1281 26.1945C24.3005 26.2322 24.4231 26.3846 24.4231 26.5609L24.4229 31.5461C24.4229 31.6596 24.3715 31.767 24.283 31.8382C24.2157 31.8926 24.1327 31.9213 24.0479 31.9213ZM12.71 28.6858L23.6729 31.0804L23.6731 26.8629L12.71 24.4637V28.6858Z" fill="#3762CC"/>
<path d="M24.0479 31.9213C23.9633 31.9213 23.88 31.8927 23.8129 31.8387C23.7242 31.7676 23.6729 31.66 23.6729 31.5463L23.673 26.5611C23.673 26.3852 23.7955 26.2328 23.9674 26.1949L27.8714 25.3352C27.9822 25.3112 28.0982 25.3382 28.1869 25.4093C28.2756 25.4803 28.327 25.5878 28.327 25.7016V30.6868C28.327 30.8627 28.2045 31.0152 28.0326 31.053L24.1285 31.9127C24.1017 31.9183 24.0747 31.9213 24.0479 31.9213ZM24.423 26.8626L24.4229 31.0798L27.577 30.3853V26.1681L24.423 26.8626Z" fill="#3762CC"/>
<path d="M24.0481 26.936C24.0211 26.936 23.9943 26.933 23.9678 26.9274L12.2547 24.3637C12.0828 24.326 11.9601 24.1736 11.96 23.9975C11.9598 23.8216 12.0822 23.669 12.2541 23.6311L16.1581 22.7713C16.2113 22.7596 16.2661 22.7595 16.319 22.7711L28.0321 25.335C28.2042 25.3726 28.3267 25.5251 28.3268 25.7011C28.327 25.8772 28.2046 26.0296 28.0325 26.0675L24.1285 26.9272C24.1021 26.9332 24.0751 26.936 24.0481 26.936ZM14.0836 23.9962L24.0479 26.177L26.2034 25.7025L16.2391 23.5215L14.0836 23.9962Z" fill="#3762CC"/>
<path d="M27.9514 26.0765C27.9244 26.0765 27.8976 26.0735 27.8712 26.0678L16.158 23.504C15.9859 23.4663 15.8635 23.3138 15.8633 23.1378C15.8631 22.9617 15.9855 22.8093 16.1577 22.7714L20.0622 21.9115C20.115 21.8999 20.17 21.8997 20.2228 21.9113L31.9358 24.475C32.1077 24.5127 32.2303 24.6651 32.2305 24.8412C32.2307 25.0171 32.1083 25.1697 31.9363 25.2076L28.032 26.0676C28.0054 26.0736 27.9786 26.0765 27.9514 26.0765ZM17.9871 23.1366L27.9514 25.3176L30.1075 24.8427L20.1432 22.6619L17.9871 23.1366Z" fill="#3762CC"/>
<path d="M27.9521 30.6867L31.8566 29.8268V24.8416L27.9521 25.7014V30.6867Z" fill="#4671C6"/>
<path d="M27.9521 31.0616C27.8676 31.0616 27.7843 31.0329 27.7172 30.9789C27.6285 30.9078 27.5771 30.8004 27.5771 30.6866V25.7013C27.5771 25.5255 27.6996 25.373 27.8713 25.3352L31.7758 24.4751C31.8866 24.4509 32.0031 24.4779 32.0916 24.5492C32.1803 24.6202 32.2316 24.7277 32.2316 24.8415V29.8267C32.2316 30.0026 32.1092 30.155 31.9375 30.1929L28.033 31.053C28.0061 31.0586 27.9791 31.0616 27.9521 31.0616ZM28.3271 26.0028V30.2201L31.4816 29.5252V25.308L28.3271 26.0028Z" fill="#3762CC"/>
<path d="M31.8555 25.2164C31.8285 25.2164 31.8017 25.2134 31.7753 25.2078L20.0623 22.6441C19.8904 22.6064 19.7678 22.454 19.7676 22.2779C19.7674 22.1018 19.8898 21.9494 20.062 21.9115L23.8706 21.0727C23.9235 21.0608 23.9785 21.061 24.0313 21.0725L35.7443 23.6362C35.9162 23.6738 36.0388 23.8263 36.039 24.0023C36.0392 24.1784 35.9168 24.3308 35.7446 24.3687L31.936 25.2076C31.9095 25.2136 31.8827 25.2164 31.8555 25.2164ZM21.8914 22.2768L31.8555 24.4576L33.9158 24.0038L23.9516 21.823L21.8914 22.2768Z" fill="#3762CC"/>
<path d="M31.8564 30.2016C31.7719 30.2016 31.6886 30.1729 31.6215 30.1189C31.5328 30.0479 31.4814 29.9404 31.4814 29.8266V24.8414C31.4814 24.6655 31.6039 24.5131 31.7758 24.4752L35.5845 23.6363C35.6953 23.6119 35.8116 23.6391 35.9001 23.7104C35.9888 23.7814 36.0401 23.8889 36.0401 24.0027V28.9879C36.0401 29.1638 35.9177 29.3162 35.7458 29.3541L31.9371 30.193C31.9103 30.1988 31.8834 30.2016 31.8564 30.2016ZM32.2314 25.1429V29.3601L35.2901 28.6864V24.4692L32.2314 25.1429Z" fill="#3762CC"/>
<path d="M24.0479 21.9523C23.9633 21.9523 23.88 21.9236 23.8129 21.8696C23.7242 21.7985 23.6729 21.6911 23.6729 21.5773V16.5918C23.6729 16.416 23.7953 16.2635 23.9672 16.2257L35.5845 13.667C35.6954 13.6425 35.8116 13.6698 35.9001 13.7411C35.9888 13.8122 36.0402 13.9198 36.0402 14.0334L36.04 19.0188C36.04 19.1947 35.9175 19.3472 35.7456 19.385L24.1285 21.9437C24.1017 21.9493 24.0747 21.9523 24.0479 21.9523ZM24.4229 16.8933V21.1108L35.29 18.7173L35.2902 14.4999L24.4229 16.8933Z" fill="#3762CC"/>
<path d="M20.1445 20.7231L31.7618 18.1644L35.666 19.0174L24.0488 21.5758L20.1445 20.7231Z" fill="#383838"/>
<path d="M12.335 19.0122L23.9521 16.4537L27.8564 17.3117L16.2391 19.8704L12.335 19.0122Z" fill="#F9A7A7"/>
<path d="M27.8566 17.3118L31.7611 18.1645L20.1438 20.7231L16.2393 19.8704L27.8566 17.3118Z" fill="#6BDDDD"/>
<path d="M16.2393 19.8704L20.1438 20.7231V25.7084L16.2393 24.8556V19.8704Z" fill="#6BDDDD"/>
<path d="M12.3351 19.0121L12.335 24.0026L16.2393 24.8555V19.8703L12.3351 19.0121Z" fill="#F9A7A7"/>
<path d="M20.1445 25.7084L24.0487 26.5611L24.0488 21.5759L20.1445 20.7231V25.7084Z" fill="#383838"/>
<path d="M35.6652 19.0173V24.0026L24.0479 26.561L24.048 21.5758L35.6652 19.0173Z" fill="#383838"/>
<path d="M35.6652 19.0173V24.0026L24.0479 26.561L24.048 21.5758L35.6652 19.0173Z" fill="#383838"/>
<path d="M27.9522 15.7322L16.2393 13.1685L20.1436 12.3086L31.8567 14.8723L27.9522 15.7322Z" fill="#F9A7A7"/>
<path d="M20.1426 12.3086L23.9515 11.4697L35.6644 14.0334L31.8557 14.8723L20.1426 12.3086Z" fill="#6BDDDD"/>
<path d="M20.1445 20.7231L31.7618 18.1644L35.666 19.0174L24.0488 21.5758L20.1445 20.7231Z" fill="#A4C9FF"/>
<path d="M20.1445 25.7084L24.0487 26.5611L24.0488 21.5759L20.1445 20.7231V25.7084Z" fill="#A4C9FF"/>
<path d="M35.6652 19.0173V24.0026L24.0479 26.561L24.048 21.5758L35.6652 19.0173Z" fill="#A4C9FF"/>
<path d="M35.6652 19.0173V24.0026L24.0479 26.561L24.048 21.5758L35.6652 19.0173Z" fill="#A4C9FF"/>
<path d="M24.0487 21.9507C24.0217 21.9507 23.995 21.9477 23.9686 21.9421L20.0645 21.0892C19.8923 21.0515 19.7697 20.8992 19.7695 20.7232C19.7693 20.5471 19.8918 20.3945 20.0639 20.3566L31.681 17.798C31.7339 17.7862 31.7887 17.7864 31.8415 17.7978L35.7457 18.6507C35.9178 18.6882 36.0404 18.8407 36.0406 19.0167C36.0408 19.1928 35.9183 19.3454 35.7462 19.3833L24.1291 21.9419C24.1027 21.9479 24.0757 21.9507 24.0487 21.9507ZM21.8948 20.7215L24.0483 21.1919L33.9155 19.0188L31.762 18.5484L21.8948 20.7215Z" fill="#3762CC"/>
<path d="M24.0487 26.936C24.0218 26.936 23.9952 26.933 23.9686 26.9274L20.0645 26.0747C19.8922 26.037 19.7695 25.8845 19.7695 25.7083L19.7697 20.7229C19.7697 20.6094 19.8211 20.502 19.9096 20.4307C19.9979 20.3593 20.1142 20.3325 20.2248 20.3565L24.1289 21.2094C24.3012 21.2471 24.4238 21.3995 24.4238 21.5758L24.4237 26.561C24.4237 26.6745 24.3723 26.7819 24.2838 26.8532C24.2165 26.9074 24.1334 26.936 24.0487 26.936ZM20.5195 25.4064L23.6737 26.0953L23.6738 21.8779L20.5197 21.1888L20.5195 25.4064Z" fill="#3762CC"/>
<path d="M24.0479 26.936C23.9633 26.936 23.88 26.9073 23.8129 26.8533C23.7242 26.7823 23.6729 26.6747 23.6729 26.561L23.673 21.5758C23.673 21.3999 23.7955 21.2475 23.9674 21.2096L35.5845 18.651C35.6954 18.6272 35.8116 18.6538 35.9001 18.725C35.9888 18.7961 36.0402 18.9035 36.0402 19.0173V24.0026C36.0402 24.1785 35.9177 24.3309 35.7458 24.3688L24.1285 26.9274C24.1017 26.9332 24.0747 26.936 24.0479 26.936ZM24.423 21.8773L24.4229 26.0945L35.2902 23.7011V19.4838L24.423 21.8773Z" fill="#3762CC"/>
<path d="M24.0479 26.936C23.9633 26.936 23.88 26.9073 23.8129 26.8533C23.7242 26.7823 23.6729 26.6747 23.6729 26.561L23.673 21.5758C23.673 21.3999 23.7955 21.2475 23.9674 21.2096L35.5845 18.651C35.6954 18.6272 35.8116 18.6538 35.9001 18.725C35.9888 18.7961 36.0402 18.9035 36.0402 19.0173V24.0026C36.0402 24.1785 35.9177 24.3309 35.7458 24.3688L24.1285 26.9274C24.1017 26.9332 24.0747 26.936 24.0479 26.936ZM24.423 21.8773L24.4229 26.0945L35.2902 23.7011V19.4838L24.423 21.8773Z" fill="#3762CC"/>
<path d="M31.8564 19.8576L35.6649 19.0189L35.6651 14.0334L31.8564 14.8723V19.8576Z" fill="#6BDDDD"/>
<path d="M20.1438 21.0978C20.1169 21.0978 20.0901 21.0948 20.0637 21.0892L16.1592 20.2365C15.9871 20.199 15.8644 20.0465 15.8643 19.8705C15.8641 19.6944 15.9865 19.5418 16.1586 19.5039L27.7758 16.9453C27.8286 16.9336 27.8834 16.9336 27.9363 16.9451L31.8408 17.7978C32.0129 17.8353 32.1355 17.9878 32.1357 18.1638C32.1359 18.3399 32.0134 18.4925 31.8413 18.5304L20.2242 21.089C20.1978 21.095 20.1708 21.0978 20.1438 21.0978ZM17.9896 19.8688L20.1432 20.339L30.0102 18.1659L27.8566 17.6956L17.9896 19.8688Z" fill="#3762CC"/>
<path d="M20.1438 26.0833C20.1169 26.0833 20.0903 26.0803 20.0637 26.0747L16.1592 25.222C15.9869 25.1843 15.8643 25.0318 15.8643 24.8556L15.8644 19.8701C15.8644 19.7567 15.9158 19.6493 16.0043 19.578C16.0928 19.5068 16.2085 19.4801 16.3195 19.5038L20.224 20.3565C20.3963 20.3942 20.5189 20.5466 20.5189 20.7229L20.5188 25.7083C20.5188 25.8218 20.4674 25.9292 20.3789 26.0005C20.3116 26.0546 20.2285 26.0833 20.1438 26.0833ZM16.6141 24.5537L19.7686 25.2426L19.7688 21.025L16.6143 20.3361L16.6141 24.5537Z" fill="#3762CC"/>
<path d="M16.2391 20.2453C16.2121 20.2453 16.1851 20.2423 16.1585 20.2365L12.2543 19.3785C12.0824 19.3408 11.96 19.1883 11.96 19.0123C11.96 18.8364 12.0822 18.684 12.2543 18.6461L23.8715 16.0875C23.9243 16.0757 23.9793 16.0757 24.0325 16.0875L27.9366 16.9455C28.1086 16.9832 28.231 17.1356 28.231 17.3117C28.231 17.4875 28.1086 17.64 27.9366 17.6778L16.3195 20.2365C16.2931 20.2423 16.2663 20.2453 16.2391 20.2453ZM14.0802 19.0117L16.2393 19.4861L26.1111 17.3118L23.9521 16.8375L14.0802 19.0117Z" fill="#3762CC"/>
<path d="M16.2391 25.2306C16.2123 25.2306 16.1856 25.2276 16.159 25.222L12.2549 24.3689C12.0826 24.3312 11.96 24.1788 11.96 24.0025L11.9601 19.0122C11.9601 18.8988 12.0115 18.7911 12.1002 18.7199C12.1889 18.6488 12.3051 18.622 12.4158 18.6458L16.3199 19.5038C16.4918 19.5415 16.6143 19.6939 16.6143 19.87L16.6141 24.8554C16.6141 24.9689 16.5627 25.0765 16.4742 25.1476C16.4071 25.2019 16.324 25.2306 16.2391 25.2306ZM12.71 23.7006L15.8641 24.3899L15.8643 20.1719L12.7101 19.4787L12.71 23.7006Z" fill="#3762CC"/>
<path d="M20.1438 15.7392L16.2393 14.8864L12.335 14.0284V19.0188L16.2391 19.8719L20.1436 20.7246L24.0479 21.5774V16.5919L20.1438 15.7392Z" fill="#4671C6"/>
<path d="M27.952 15.7322L24.048 16.5921L24.0479 21.5773L27.952 20.7176V15.7322Z" fill="#4671C6"/>
<path d="M16.2391 13.1685L12.335 14.0283L24.0481 16.592L27.952 15.7321L16.2391 13.1685Z" fill="#4671C6"/>
<path d="M24.0479 21.9522C24.0211 21.9522 23.9945 21.9492 23.9678 21.9436L12.2549 19.3849C12.0826 19.3472 11.96 19.1948 11.96 19.0186V14.0282C11.96 13.9148 12.0113 13.8072 12.1 13.7359C12.1887 13.6647 12.3051 13.6382 12.4156 13.6619L20.2238 15.3724L24.1281 16.2254C24.3005 16.2631 24.4231 16.4155 24.4231 16.5917L24.4229 21.577C24.4229 21.6904 24.3715 21.7979 24.283 21.8691C24.2157 21.9235 24.1327 21.9522 24.0479 21.9522ZM12.71 18.7167L23.6729 21.1112L23.6731 16.8938L12.71 14.4946V18.7167Z" fill="#3762CC"/>
<path d="M24.0479 21.9524C23.9633 21.9524 23.88 21.9237 23.8129 21.8697C23.7242 21.7986 23.6729 21.691 23.6729 21.5774L23.673 16.5921C23.673 16.4162 23.7955 16.2638 23.9672 16.2259L27.8712 15.3661C27.9829 15.3419 28.0982 15.3691 28.1869 15.4401C28.2756 15.5112 28.327 15.6186 28.327 15.7324V20.7177C28.327 20.8936 28.2045 21.046 28.0328 21.0839L24.1285 21.9437C24.1017 21.9494 24.0747 21.9524 24.0479 21.9524ZM24.423 16.8936L24.4229 21.1109L27.577 20.4162V16.1989L24.423 16.8936Z" fill="#3762CC"/>
<path d="M24.0481 16.967C24.0211 16.967 23.9943 16.964 23.9678 16.9584L12.2547 14.3945C12.0826 14.3568 11.9601 14.2044 11.96 14.0283C11.9598 13.8523 12.0822 13.6998 12.2543 13.662L16.1583 12.8023C16.2111 12.7905 16.2661 12.7906 16.319 12.8021L28.0321 15.3658C28.204 15.4035 28.3267 15.5559 28.3268 15.732C28.327 15.9078 28.2046 16.0605 28.0326 16.0983L24.1287 16.9582C24.1021 16.9642 24.0751 16.967 24.0481 16.967ZM14.0838 14.0272L24.0479 16.2082L26.2034 15.7335L16.2391 13.5525L14.0838 14.0272Z" fill="#3762CC"/>
<path d="M27.9522 16.1072C27.9252 16.1072 27.8984 16.1042 27.8719 16.0985L16.159 13.535C15.9871 13.4973 15.8644 13.3449 15.8643 13.1688C15.8641 12.993 15.9865 12.8403 16.1584 12.8025L20.0629 11.9424C20.1162 11.9306 20.1709 11.9308 20.2238 11.9422L31.9368 14.5061C32.1089 14.5438 32.2313 14.6962 32.2315 14.8723C32.2317 15.0483 32.1093 15.2008 31.9371 15.2387L28.0328 16.0985C28.0062 16.1043 27.9794 16.1072 27.9522 16.1072ZM17.9879 13.1675L27.9522 15.3483L30.1081 14.8736L20.1439 12.6926L17.9879 13.1675Z" fill="#3762CC"/>
<path d="M27.9521 20.7176L31.8566 19.8576V14.8723L27.9521 15.7322V20.7176Z" fill="#F9A7A7"/>
<path d="M27.9521 21.0924C27.8676 21.0924 27.7843 21.0638 27.7172 21.0098C27.6285 20.9387 27.5771 20.8313 27.5771 20.7174V15.7322C27.5771 15.5563 27.6996 15.4039 27.8715 15.366L31.776 14.5061C31.887 14.4816 32.0031 14.5089 32.0916 14.5802C32.1803 14.6513 32.2316 14.7587 32.2316 14.8725V19.8578C32.2316 20.0336 32.1092 20.1861 31.9373 20.2239L28.0328 21.0838C28.006 21.0896 27.9791 21.0924 27.9521 21.0924ZM28.3271 16.0337V20.2509L31.4816 19.5563V15.339L28.3271 16.0337Z" fill="#3762CC"/>
<path d="M31.8563 15.2473C31.8293 15.2473 31.8025 15.2443 31.7761 15.2387L20.0633 12.675C19.8912 12.6373 19.7687 12.4849 19.7686 12.3088C19.7684 12.1327 19.8908 11.9803 20.0629 11.9424L23.8716 11.1035C23.9245 11.0917 23.9794 11.0919 24.0323 11.1034L35.7452 13.6672C35.9174 13.7049 36.0398 13.8574 36.04 14.0334C36.0402 14.2095 35.9177 14.3619 35.7456 14.3998L31.9369 15.2387C31.9103 15.2445 31.8835 15.2473 31.8563 15.2473ZM21.8922 12.3075L31.8563 14.4885L33.9166 14.0347L23.9524 11.8537L21.8922 12.3075Z" fill="#3762CC"/>
<path d="M31.8564 20.2326C31.7719 20.2326 31.6886 20.2039 31.6215 20.1499C31.5328 20.0788 31.4814 19.9714 31.4814 19.8576V14.8723C31.4814 14.6965 31.6039 14.544 31.7758 14.5062L35.5845 13.6673C35.6953 13.6433 35.8116 13.6701 35.9001 13.7413C35.9888 13.8124 36.0401 13.9198 36.0401 14.0337V19.0189C36.0401 19.1948 35.9177 19.3472 35.7458 19.3851L31.9371 20.224C31.9103 20.2298 31.8834 20.2326 31.8564 20.2326ZM32.2314 15.1738V19.3911L35.2901 18.7174V14.5002L32.2314 15.1738Z" fill="#3762CC"/>
<path d="M12.335 9.04312L23.9521 6.4845L27.8564 7.34268L16.2391 9.90112L12.335 9.04312Z" fill="#A4C9FF"/>
<path d="M12.3351 9.04309L12.335 14.0336L16.2393 14.8865V9.90109L12.3351 9.04309Z" fill="#A4C9FF"/>
<path d="M20.1445 15.7392L24.0487 16.5921L24.0488 11.6068L20.1445 10.7539V15.7392Z" fill="#383838"/>
<path d="M16.2391 10.2764C16.2121 10.2764 16.1851 10.2734 16.1585 10.2675L12.2543 9.40936C12.0824 9.37167 11.96 9.21923 11.96 9.04317C11.96 8.86729 12.0824 8.71486 12.2543 8.67698L23.8715 6.11836C23.9243 6.10654 23.9793 6.10654 24.0325 6.11836L27.9366 6.97654C28.1086 7.01423 28.231 7.16667 28.231 7.34273C28.231 7.51861 28.1086 7.67104 27.9366 7.70892L16.3197 10.2675C16.2931 10.2734 16.2663 10.2764 16.2391 10.2764ZM14.0802 9.04279L16.2393 9.51736L26.1111 7.34311L23.9521 6.86854L14.0802 9.04279Z" fill="#3762CC"/>
<path d="M16.2391 15.2616C16.2123 15.2616 16.1856 15.2586 16.159 15.253L12.2549 14.4001C12.0826 14.3624 11.96 14.2099 11.96 14.0337L11.9601 9.0432C11.9601 8.92976 12.0115 8.82213 12.1002 8.75088C12.1889 8.67982 12.3051 8.65301 12.4158 8.67682L16.3199 9.53501C16.4918 9.5727 16.6143 9.72513 16.6143 9.9012L16.6141 14.8864C16.6141 14.9999 16.5627 15.1075 16.4742 15.1786C16.4071 15.2328 16.324 15.2616 16.2391 15.2616ZM12.71 13.7316L15.8641 14.4207L15.8643 10.2029L12.7101 9.50951L12.71 13.7316Z" fill="#3762CC"/>
<path d="M27.8566 7.34265V12.3086L16.2393 14.8865V9.90109L27.8566 7.34265Z" fill="#A4C9FF"/>
<path d="M16.2393 15.2615C16.1547 15.2615 16.0716 15.233 16.0045 15.179C15.9158 15.108 15.8643 15.0003 15.8643 14.8865L15.8644 9.90129C15.8644 9.72541 15.9869 9.57297 16.1588 9.5351L27.7759 6.97647C27.8868 6.95191 28.0028 6.97929 28.0915 7.05054C28.1802 7.1216 28.2316 7.22904 28.2316 7.34285V12.3086C28.2316 12.4845 28.1095 12.6365 27.9379 12.6746L16.3206 15.2525C16.2936 15.2585 16.2664 15.2615 16.2393 15.2615ZM16.6144 10.2026L16.6143 14.4191L27.4816 12.0077V7.80916L16.6144 10.2026Z" fill="#3762CC"/>
<path d="M20.1445 10.7539L31.7618 8.19543L35.666 9.04818L24.0488 11.6068L20.1445 10.7539Z" fill="#383838"/>
<path d="M35.6652 9.04822V14.0337L24.0479 16.5921L24.048 11.6068L35.6652 9.04822Z" fill="#383838"/>
<path d="M35.6652 9.04822V14.0337L24.0479 16.5921L24.048 11.6068L35.6652 9.04822Z" fill="#383838"/>
<path d="M20.1445 10.7539L31.7618 8.19543L35.666 9.04818L24.0488 11.6068L20.1445 10.7539Z" fill="#A4C9FF"/>
<path d="M20.1445 15.7392L24.0487 16.5921L24.0488 11.6068L20.1445 10.7539V15.7392Z" fill="#A4C9FF"/>
<path d="M35.6652 9.04822V14.0337L24.0479 16.5921L24.048 11.6068L35.6652 9.04822Z" fill="#A4C9FF"/>
<path d="M35.6652 9.04822V14.0337L24.0479 16.5921L24.048 11.6068L35.6652 9.04822Z" fill="#A4C9FF"/>
<path d="M24.0487 11.9816C24.0217 11.9816 23.995 11.9786 23.9686 11.9729L20.0645 11.1202C19.8923 11.0827 19.7697 10.9303 19.7695 10.7542C19.7693 10.5781 19.8918 10.4255 20.0639 10.3876L31.681 7.829C31.7339 7.81719 31.7887 7.81738 31.8415 7.82882L35.7457 8.68156C35.9178 8.71906 36.0404 8.8715 36.0406 9.04757C36.0408 9.22363 35.9183 9.37625 35.7462 9.41413L24.1291 11.9728C24.1027 11.9788 24.0757 11.9816 24.0487 11.9816ZM21.895 10.7525L24.0483 11.2228L33.9153 9.04963L31.762 8.57938L21.895 10.7525Z" fill="#3762CC"/>
<path d="M24.0487 16.9671C24.0218 16.9671 23.9952 16.9641 23.9686 16.9585L20.0645 16.1055C19.8922 16.0678 19.7695 15.9154 19.7695 15.7392L19.7697 10.7539C19.7697 10.6405 19.8211 10.533 19.9096 10.4618C19.9979 10.3903 20.1142 10.3637 20.2248 10.3875L24.1289 11.2403C24.3012 11.278 24.4238 11.4304 24.4238 11.6067L24.4237 16.5921C24.4237 16.7055 24.3723 16.813 24.2838 16.8842C24.2165 16.9384 24.1334 16.9671 24.0487 16.9671ZM20.5195 15.4373L23.6737 16.1263L23.6738 11.9087L20.5197 11.2198L20.5195 15.4373Z" fill="#3762CC"/>
<path d="M24.0479 16.9671C23.9633 16.9671 23.88 16.9384 23.8129 16.8844C23.7242 16.8133 23.6729 16.7057 23.6729 16.5921L23.673 11.6066C23.673 11.4307 23.7955 11.2783 23.9674 11.2404L35.5845 8.68181C35.6954 8.65781 35.8116 8.68462 35.9001 8.75587C35.9888 8.82693 36.0402 8.93437 36.0402 9.04818V14.0336C36.0402 14.2095 35.9177 14.3619 35.7458 14.3998L24.1285 16.9584C24.1017 16.9642 24.0747 16.9671 24.0479 16.9671ZM24.423 11.9081L24.4229 16.1256L35.2902 13.7321V9.51468L24.423 11.9081Z" fill="#3762CC"/>
<path d="M24.0479 16.9671C23.9633 16.9671 23.88 16.9384 23.8129 16.8844C23.7242 16.8133 23.6729 16.7057 23.6729 16.5921L23.673 11.6066C23.673 11.4307 23.7955 11.2783 23.9674 11.2404L35.5845 8.68181C35.6954 8.65781 35.8116 8.68462 35.9001 8.75587C35.9888 8.82693 36.0402 8.93437 36.0402 9.04818V14.0336C36.0402 14.2095 35.9177 14.3619 35.7458 14.3998L24.1285 16.9584C24.1017 16.9642 24.0747 16.9671 24.0479 16.9671ZM24.423 11.9081L24.4229 16.1256L35.2902 13.7321V9.51468L24.423 11.9081Z" fill="#3762CC"/>
<path d="M27.9522 5.76323L16.2393 3.19954L20.1436 2.33948L31.8567 4.90335L27.9522 5.76323Z" fill="#4671C6"/>
<path d="M20.1426 2.33942L23.9515 1.50073L35.6644 4.06442L31.8557 4.90329L20.1426 2.33942Z" fill="#6BDDDD"/>
<path d="M31.8564 9.88858L35.6649 9.0497L35.6651 4.06445L31.8564 4.90333V9.88858Z" fill="#6BDDDD"/>
<path d="M27.9522 6.13816C27.9252 6.13816 27.8984 6.13516 27.8719 6.12954L16.159 3.56585C15.9869 3.52816 15.8644 3.37572 15.8643 3.19966C15.8641 3.0236 15.9865 2.87116 16.1586 2.83329L20.0631 1.97341C20.116 1.9616 20.1709 1.96179 20.2238 1.97322L31.9368 4.53691C32.1087 4.5746 32.2313 4.72704 32.2315 4.9031C32.2317 5.07897 32.1093 5.2316 31.9373 5.26947L28.033 6.12954C28.0062 6.13535 27.9794 6.13816 27.9522 6.13816ZM17.9879 3.19835L27.9522 5.37935L30.1083 4.90441L20.1439 2.7236L17.9879 3.19835Z" fill="#3762CC"/>
<path d="M27.9521 10.7484L31.8566 9.88857V4.90332L27.9521 5.7632V10.7484Z" fill="#4671C6"/>
<path d="M27.9521 11.1235C27.8676 11.1235 27.7843 11.0948 27.7172 11.0408C27.6285 10.9697 27.5771 10.8623 27.5771 10.7485V5.7632C27.5771 5.58733 27.6996 5.43489 27.8713 5.39701L31.7758 4.53695C31.8866 4.51314 32.0031 4.53976 32.0916 4.61101C32.1803 4.68208 32.2316 4.78951 32.2316 4.90333V9.88876C32.2316 10.0646 32.1092 10.2171 31.9373 10.255L28.0328 11.1148C28.006 11.1206 27.9791 11.1235 27.9521 11.1235ZM28.3271 6.0647V10.282L31.4816 9.58726V5.36983L28.3271 6.0647Z" fill="#3762CC"/>
<path d="M31.8555 5.27805C31.8285 5.27805 31.8017 5.27505 31.7753 5.26943L20.0623 2.70574C19.8904 2.66805 19.7678 2.51561 19.7676 2.33955C19.7674 2.16349 19.8898 2.01105 20.062 1.97318L23.8706 1.1343C23.9235 1.12249 23.9785 1.12268 24.0313 1.13411L35.7443 3.6978C35.9162 3.73549 36.0388 3.88793 36.039 4.06399C36.0392 4.24005 35.9168 4.39249 35.7446 4.43036L31.936 5.26924C31.9095 5.27524 31.8827 5.27805 31.8555 5.27805ZM21.8914 2.33843L31.8555 4.51924L33.9158 4.06549L23.9516 1.88468L21.8914 2.33843Z" fill="#3762CC"/>
<path d="M31.8564 10.2635C31.7719 10.2635 31.6886 10.2348 31.6215 10.1808C31.5328 10.1098 31.4814 10.0023 31.4814 9.88852V4.90308C31.4814 4.7272 31.6039 4.57477 31.7758 4.53689L35.5845 3.69802C35.6953 3.67402 35.8116 3.70102 35.9001 3.77208C35.9888 3.84314 36.0401 3.95058 36.0401 4.06439V9.04983C36.0401 9.2257 35.9177 9.37814 35.7458 9.41602L31.9371 10.2549C31.9103 10.2607 31.8834 10.2635 31.8564 10.2635ZM32.2314 5.20458V9.42202L35.2901 8.74833V4.53089L32.2314 5.20458Z" fill="#3762CC"/>
<path d="M16.2393 3.19946V8.1954L27.9522 10.7484V5.76315L16.2393 3.19946Z" fill="#4671C6"/>
<path d="M27.9514 11.1234C27.9248 11.1234 27.8982 11.1206 27.8715 11.1148L16.1584 8.56182C15.9861 8.52432 15.8633 8.3717 15.8633 8.19545V3.19932C15.8633 3.08588 15.9147 2.97826 16.0032 2.9072C16.0917 2.83595 16.2077 2.80913 16.3185 2.83295L28.0317 5.39682C28.2038 5.43451 28.3264 5.58713 28.3264 5.7632V10.7484C28.3264 10.8619 28.275 10.9693 28.1867 11.0406C28.1194 11.0948 28.0362 11.1234 27.9514 11.1234ZM16.6133 7.89338L27.5764 10.2831V6.06507L16.6133 3.66545V7.89338Z" fill="#3762CC"/>
</g>
</svg>
