<svg width="32" height="32" viewBox="0 0 32 32" fill="none" xmlns="http://www.w3.org/2000/svg">
<g clip-path="url(#clip0_20741_1343)">
<path fill-rule="evenodd" clip-rule="evenodd" d="M16.0117 -0.00537109C24.8576 -0.00537109 32.0286 7.16565 32.0286 16.0116C32.0286 24.8575 24.8576 32.0285 16.0117 32.0285C7.16578 32.0285 -0.00524902 24.8575 -0.00524902 16.0116C-0.00524902 7.16565 7.16578 -0.00537109 16.0117 -0.00537109Z" fill="#7E7E7E"/>
<path fill-rule="evenodd" clip-rule="evenodd" d="M16.0117 2.11035C19.8503 2.11035 23.3256 3.66633 25.8412 6.18191C28.3568 8.69752 29.9128 12.1728 29.9128 16.0114C29.9128 19.8501 28.3568 23.3254 25.8412 25.841C23.3256 28.3565 19.8503 29.9125 16.0117 29.9125C12.1731 29.9125 8.69778 28.3565 6.18218 25.841C3.6666 23.3254 2.11063 19.8501 2.11063 16.0114C2.11063 12.1728 3.6666 8.69751 6.18218 6.18191C8.69779 3.66633 12.1731 2.11035 16.0117 2.11035Z" fill="#D4D4D4"/>
<path fill-rule="evenodd" clip-rule="evenodd" d="M25.1334 6.88961C22.799 4.55523 19.574 3.11133 16.0117 3.11133C12.4494 3.11133 9.22439 4.55523 6.88998 6.88961C4.5556 9.22402 3.11169 12.4491 3.11169 16.0113C3.11169 19.5736 4.5556 22.7986 6.88998 25.133C9.22439 27.4674 12.4494 28.9113 16.0117 28.9113C19.574 28.9113 22.799 27.4674 25.1334 25.133C27.4678 22.7986 28.9117 19.5736 28.9117 16.0113C28.9117 12.449 27.4678 9.22402 25.1334 6.88961Z" fill="#F0F0F0"/>
<path fill-rule="evenodd" clip-rule="evenodd" d="M10.1692 5.89186C10.4086 5.75363 10.7147 5.83565 10.8529 6.07505C10.9912 6.31445 10.9091 6.62059 10.6697 6.75879C10.4303 6.89701 10.1242 6.81498 9.98599 6.57558C9.84778 6.33618 9.92981 6.03008 10.1692 5.89186Z" fill="#202020"/>
<path fill-rule="evenodd" clip-rule="evenodd" d="M5.89219 10.1693C6.0304 9.9299 6.33651 9.84787 6.57591 9.98608C6.81532 10.1243 6.89734 10.4304 6.75913 10.6698C6.62092 10.9092 6.31479 10.9913 6.07539 10.853C5.83599 10.7148 5.75395 10.4087 5.89219 10.1693Z" fill="#202020"/>
<path fill-rule="evenodd" clip-rule="evenodd" d="M4.32666 16.0118C4.32666 15.7353 4.55077 15.5112 4.82719 15.5112C5.10361 15.5112 5.32772 15.7353 5.32772 16.0118C5.32772 16.2882 5.10361 16.5123 4.82719 16.5123C4.55077 16.5123 4.32666 16.2882 4.32666 16.0118Z" fill="#202020"/>
<path fill-rule="evenodd" clip-rule="evenodd" d="M5.89217 21.8539C5.75393 21.6145 5.83596 21.3084 6.07536 21.1702C6.31476 21.032 6.62089 21.114 6.7591 21.3534C6.89731 21.5928 6.81529 21.8989 6.57588 22.0371C6.33648 22.1753 6.03038 22.0933 5.89217 21.8539Z" fill="#202020"/>
<path fill-rule="evenodd" clip-rule="evenodd" d="M10.1692 26.1309C9.92981 25.9926 9.84778 25.6865 9.98599 25.4471C10.1242 25.2077 10.4303 25.1257 10.6697 25.2639C10.9091 25.4021 10.9912 25.7083 10.8529 25.9477C10.7147 26.1871 10.4086 26.2691 10.1692 26.1309Z" fill="#202020"/>
<path fill-rule="evenodd" clip-rule="evenodd" d="M16.0117 27.6969C15.7353 27.6969 15.5112 27.4728 15.5112 27.1963C15.5112 26.9199 15.7353 26.6958 16.0117 26.6958C16.2881 26.6958 16.5122 26.9199 16.5122 27.1963C16.5122 27.4728 16.2881 27.6969 16.0117 27.6969Z" fill="#202020"/>
<path fill-rule="evenodd" clip-rule="evenodd" d="M21.8542 26.1308C21.6148 26.2691 21.3087 26.1871 21.1705 25.9477C21.0323 25.7083 21.1143 25.4021 21.3537 25.2639C21.5931 25.1257 21.8992 25.2077 22.0375 25.4471C22.1757 25.6865 22.0936 25.9926 21.8542 26.1308Z" fill="#202020"/>
<path fill-rule="evenodd" clip-rule="evenodd" d="M26.1312 21.8539C25.993 22.0933 25.6869 22.1753 25.4475 22.0371C25.2081 21.8989 25.1261 21.5928 25.2643 21.3534C25.4025 21.114 25.7086 21.032 25.948 21.1702C26.1874 21.3084 26.2695 21.6145 26.1312 21.8539Z" fill="#202020"/>
<path fill-rule="evenodd" clip-rule="evenodd" d="M27.6967 16.0118C27.6967 16.2882 27.4726 16.5123 27.1962 16.5123C26.9198 16.5123 26.6957 16.2882 26.6957 16.0118C26.6957 15.7353 26.9198 15.5112 27.1962 15.5112C27.4726 15.5112 27.6967 15.7353 27.6967 16.0118Z" fill="#202020"/>
<path fill-rule="evenodd" clip-rule="evenodd" d="M26.1312 10.1693C26.2694 10.4087 26.1874 10.7148 25.948 10.853C25.7086 10.9913 25.4025 10.9092 25.2643 10.6698C25.1261 10.4304 25.2081 10.1243 25.4475 9.98608C25.6869 9.84787 25.993 9.9299 26.1312 10.1693Z" fill="#202020"/>
<path fill-rule="evenodd" clip-rule="evenodd" d="M21.8542 5.89186C22.0936 6.03007 22.1757 6.33617 22.0375 6.57558C21.8992 6.81498 21.5931 6.89701 21.3537 6.7588C21.1143 6.62058 21.0323 6.31445 21.1705 6.07505C21.3087 5.83565 21.6148 5.75362 21.8542 5.89186Z" fill="#202020"/>
<path fill-rule="evenodd" clip-rule="evenodd" d="M16.0117 4.32666C16.2881 4.32666 16.5122 4.55077 16.5122 4.82719C16.5122 5.10361 16.2881 5.32772 16.0117 5.32772C15.7353 5.32772 15.5112 5.10361 15.5112 4.82719C15.5112 4.55077 15.7353 4.32666 16.0117 4.32666Z" fill="#202020"/>
<path fill-rule="evenodd" clip-rule="evenodd" d="M17.2623 15.5444L25.3549 16.0105L17.2624 16.4782C17.0731 16.9851 16.5846 17.3461 16.0117 17.3461C15.2746 17.3461 14.677 16.7485 14.677 16.0114C14.677 15.4362 15.0409 14.946 15.551 14.7583L16.0108 8.00293L16.4722 14.7583C16.8367 14.8923 17.1265 15.1808 17.2623 15.5444Z" fill="#202020"/>
</g>
<defs>
<clipPath id="clip0_20741_1343">
<rect width="32" height="32" fill="white"/>
</clipPath>
</defs>
</svg>
