<svg width="72" height="72" viewBox="0 0 72 72" fill="none" xmlns="http://www.w3.org/2000/svg">
<g id="reshot-icon-molecules-YBNSD562JC 1" clip-path="url(#clip0_20099_4324)">
<path id="Vector" d="M13.4665 22.3292L26.4678 35.3304L31.575 30.2232L18.5738 17.222L13.4665 22.3292Z" fill="#57555C"/>
<path id="Vector_2" d="M31.5754 30.2228L25.7553 24.4026C23.1675 24.925 21.1713 27.0723 20.8711 29.734L26.4675 35.3304L31.5754 30.2228Z" fill="#3C3A41"/>
<path id="Vector_3" d="M42.6694 39.2709L57.3615 35.3864L55.4919 28.4092L40.7998 32.2937L42.6694 39.2709Z" fill="#57555C"/>
<path id="Vector_4" d="M40.7998 32.2937L42.6694 39.2709L50.9556 37.0801C50.9643 36.8973 50.9695 36.7137 50.9695 36.5286C50.9695 34.1556 50.248 31.951 49.0124 30.1224L40.7998 32.2937Z" fill="#3C3A41"/>
<path id="Vector_5" d="M21.4856 61.1036L32.4033 46.1586L26.5708 41.8978L15.6531 56.8428L21.4856 61.1036Z" fill="#57555C"/>
<path id="Vector_6" d="M32.4038 46.1585L27.5487 52.805C24.9114 52.687 22.6084 50.8725 21.9023 48.2888L26.5708 41.8978L32.4038 46.1585Z" fill="#3C3A41"/>
<path id="Vector_7" d="M34.6722 49.4133C40.9994 49.4133 46.1287 44.2841 46.1287 37.9569C46.1287 31.6297 40.9994 26.5005 34.6722 26.5005C28.345 26.5005 23.2158 31.6297 23.2158 37.9569C23.2158 44.2841 28.345 49.4133 34.6722 49.4133Z" fill="#00D8DE"/>
<path id="Vector_8" d="M42.7733 41.8782C38.2993 46.3522 31.0456 46.3522 26.5716 41.8782C24.8685 40.1751 23.8157 38.0688 23.4091 35.8669C22.7478 39.4495 23.8006 43.2864 26.5716 46.0573C31.0456 50.5313 38.2994 50.5313 42.7733 46.0573C45.5441 43.2864 46.597 39.4495 45.9358 35.8669C45.5291 38.069 44.4762 40.1751 42.7733 41.8782Z" fill="#00B6BE"/>
<path id="Vector_9" d="M11.7523 25.695C17.6388 25.695 22.4108 20.923 22.4108 15.0364C22.4108 9.14991 17.6388 4.37793 11.7523 4.37793C5.86573 4.37793 1.09375 9.14991 1.09375 15.0364C1.09375 20.923 5.86573 25.695 11.7523 25.695Z" fill="#FF0435"/>
<path id="Vector_10" d="M19.2884 18.6849C15.1262 22.8471 8.3779 22.8471 4.21569 18.6849C2.63127 17.1005 1.65182 15.1412 1.27368 13.0924C0.65845 16.4254 1.63804 19.9948 4.21569 22.5728C8.3779 26.735 15.1262 26.735 19.2884 22.5728C21.8663 19.995 22.8458 16.4255 22.2304 13.0924C21.8523 15.141 20.8728 17.1005 19.2884 18.6849Z" fill="#E60020"/>
<path id="Vector_11" d="M16.5274 67.6379C19.8935 67.6379 22.6222 64.9091 22.6222 61.5431C22.6222 58.177 19.8935 55.4482 16.5274 55.4482C13.1614 55.4482 10.4326 58.177 10.4326 61.5431C10.4326 64.9091 13.1614 67.6379 16.5274 67.6379Z" fill="#00D8DE"/>
<path id="Vector_12" d="M20.8191 62.5923C18.395 64.9277 14.5367 64.8557 12.2013 62.4317C11.4548 61.6569 10.9554 60.7351 10.6992 59.7637C10.0769 61.8093 10.5503 64.1221 12.1392 65.7712C14.4745 68.1952 18.3329 68.2671 20.7569 65.9318C22.4061 64.3428 22.9653 62.0494 22.4197 59.9821C22.1272 60.9434 21.5939 61.8458 20.8191 62.5923Z" fill="#00B6BE"/>
<path id="Vector_13" d="M61.84 39.7731C66.8419 39.7731 70.8968 35.7183 70.8968 30.7163C70.8968 25.7144 66.8419 21.6595 61.84 21.6595C56.8381 21.6595 52.7832 25.7144 52.7832 30.7163C52.7832 35.7183 56.8381 39.7731 61.84 39.7731Z" fill="#FF0435"/>
<path id="Vector_14" d="M68.2443 33.2723C64.7072 36.8094 58.9721 36.8094 55.4349 33.2723C54.1589 31.9962 53.3458 30.4339 52.9903 28.7922C52.3605 31.7013 53.1736 34.8602 55.4349 37.1216C58.9721 40.6587 64.7072 40.6587 68.2443 37.1216C70.5056 34.8603 71.3186 31.7015 70.6888 28.7922C70.3333 30.4337 69.5202 31.9962 68.2443 33.2723Z" fill="#E60020"/>
<path id="Vector_15" d="M10.2945 45.4225C10.9032 45.4225 11.3968 44.9292 11.3968 44.3203V43.7417H11.9751C12.5838 43.7417 13.0774 43.2484 13.0774 42.6395C13.0774 42.0307 12.5839 41.5373 11.9751 41.5373H11.3968V40.9589C11.3968 40.3501 10.9033 39.8567 10.2945 39.8567C9.68592 39.8567 9.19232 40.35 9.19232 40.9589V41.5373H8.61393C8.00531 41.5373 7.51172 42.0306 7.51172 42.6395C7.51172 43.2483 8.00517 43.7417 8.61393 43.7417H9.19232V44.3203C9.19232 44.9292 9.68592 45.4225 10.2945 45.4225Z" fill="black"/>
<path id="Vector_16" d="M50.7613 60.3514H50.1829V59.773C50.1829 59.1642 49.6896 58.6708 49.0807 58.6708C48.4719 58.6708 47.9785 59.1641 47.9785 59.773V60.3514H47.4001C46.7913 60.3514 46.2979 60.8447 46.2979 61.4536C46.2979 62.0625 46.7912 62.5558 47.4001 62.5558H47.9785V63.1342C47.9785 63.743 48.4718 64.2364 49.0807 64.2364C49.6894 64.2364 50.1829 63.7431 50.1829 63.1342V62.5558H50.7613C51.37 62.5558 51.8635 62.0625 51.8635 61.4536C51.8635 60.8447 51.37 60.3514 50.7613 60.3514Z" fill="black"/>
<path id="Vector_17" d="M38.7223 15.7039H39.3007V16.2823C39.3007 16.891 39.794 17.3845 40.4029 17.3845C41.0117 17.3845 41.5052 16.8912 41.5052 16.2823V15.7039H42.0835C42.6923 15.7039 43.1858 15.2106 43.1858 14.6017C43.1858 13.9929 42.6925 13.4995 42.0835 13.4995H41.5052V12.9211C41.5052 12.3123 41.0118 11.8188 40.4029 11.8188C39.7942 11.8188 39.3007 12.3122 39.3007 12.9211V13.4995H38.7223C38.1136 13.4995 37.6201 13.9928 37.6201 14.6017C37.6201 15.2106 38.1134 15.7039 38.7223 15.7039Z" fill="black"/>
<path id="Vector_18" d="M51.5983 21.5768C51.8802 21.5768 52.1625 21.4693 52.3778 21.2541C53.0892 20.5425 53.8774 19.9127 54.7206 19.382C55.2357 19.0577 55.3904 18.3772 55.0661 17.862C54.7417 17.3468 54.0612 17.1923 53.5461 17.5164C52.5639 18.1346 51.6465 18.8677 50.8189 19.6951C50.3885 20.1257 50.3885 20.8235 50.8189 21.2538C51.0342 21.4691 51.3163 21.5768 51.5983 21.5768Z" fill="black"/>
<path id="Vector_19" d="M11.7554 31.6495C12.5917 31.6472 13.4355 31.5848 14.2629 31.4635C14.8651 31.3752 15.2819 30.8157 15.1937 30.2132C15.1055 29.6111 14.5458 29.1951 13.9434 29.2825C13.2195 29.3886 12.4815 29.4432 11.7498 29.445C11.1412 29.4466 10.6488 29.9413 10.6504 30.55C10.6519 31.1578 11.145 31.6493 11.7526 31.6493C11.7533 31.6494 11.7543 31.6495 11.7554 31.6495Z" fill="black"/>
<path id="Vector_20" d="M47.4609 50.1759C49.486 48.054 50.9648 45.4429 51.7372 42.625C51.898 42.0379 51.5525 41.4315 50.9655 41.2707C50.3779 41.1098 49.7721 41.4554 49.6112 42.0423C48.9351 44.5091 47.6402 46.7952 45.8663 48.6539C45.4462 49.0942 45.4623 49.7917 45.9028 50.2121C46.1161 50.4158 46.3899 50.5169 46.6635 50.5169C46.9541 50.5172 47.2443 50.4028 47.4609 50.1759Z" fill="black"/>
<path id="Vector_21" d="M69.0241 23.5327C65.0627 19.5716 58.6175 19.5714 54.6559 23.5328C53.3218 24.8671 52.4391 26.4834 52.0036 28.1911L44.5298 30.1672C43.8973 29.3696 43.1628 28.6438 42.3357 28.0068C41.8532 27.635 41.1612 27.7254 40.79 28.2073C40.4185 28.6895 40.5084 29.3815 40.9906 29.7529C43.1774 31.4373 44.5795 33.8721 44.9385 36.6087C45.6815 42.2695 41.6805 47.4794 36.0198 48.2223C30.3595 48.9666 25.1492 44.9644 24.4061 39.3036C24.0463 36.5613 24.7757 33.8433 26.4602 31.6497C28.1448 29.4561 30.5828 28.0498 33.3248 27.6901C34.4951 27.5363 35.6681 27.5808 36.8111 27.822C37.4066 27.9467 37.9915 27.5669 38.1172 26.9711C38.2426 26.3754 37.862 25.7907 37.2663 25.665C35.8783 25.372 34.4559 25.3182 33.038 25.5042C31.777 25.6697 30.5693 26.0186 29.444 26.5319L22.5649 19.6528C24.3887 15.3666 23.5583 10.2107 20.0679 6.72028C16.423 3.07529 10.9028 2.22141 6.33193 4.59628C5.79179 4.87683 5.58141 5.54227 5.86196 6.08227C6.14265 6.62269 6.80808 6.83292 7.34808 6.55223C11.0618 4.623 15.5471 5.31685 18.5092 8.27911C22.235 12.005 22.235 18.0671 18.5092 21.793C14.7833 25.5189 8.721 25.5189 4.99515 21.793C1.79931 18.5972 1.28392 13.5445 3.77017 9.77915C4.10556 9.27107 3.96564 8.5875 3.4577 8.25197C2.94976 7.91686 2.26605 8.0565 1.93066 8.56443C-1.12976 13.1998 -0.496246 19.4188 3.43703 23.352C5.72963 25.6446 8.74125 26.7908 11.7527 26.7908C13.0873 26.7908 14.4214 26.5647 15.6935 26.1144L22.9702 33.3913C22.2071 35.3394 21.9414 37.4585 22.2213 39.5905C22.4306 41.1864 22.9337 42.6728 23.6673 44.0043L16.1006 54.3635C14.4471 54.461 12.8189 55.123 11.5353 56.3595C8.67755 59.1128 8.59247 63.6779 11.3456 66.5359V66.536C12.7561 67.9999 14.6414 68.7362 16.5298 68.7362C18.3276 68.7362 20.1279 68.0684 21.5218 66.7256C23.3575 64.9568 24.0471 62.441 23.5773 60.1097L30.992 49.9596C32.1616 50.3201 33.3957 50.5157 34.6643 50.5157C35.2065 50.5157 35.7554 50.4804 36.3074 50.4082C42.1907 49.6359 46.5953 44.8851 47.1685 39.2213L54.1668 37.371C54.3235 37.5514 54.4848 37.7293 54.6563 37.9007C56.2285 39.4726 58.2202 40.4673 60.4161 40.7766C60.4681 40.7839 60.52 40.7875 60.5713 40.7875C61.1119 40.7875 61.5837 40.3895 61.6613 39.8388C61.7462 39.236 61.3265 38.6787 60.7236 38.5937C59.0055 38.3517 57.4462 37.5729 56.2152 36.3418C53.1134 33.2401 53.1134 28.1931 56.2152 25.0912C59.3169 21.9893 64.364 21.9895 67.4659 25.0912C68.9686 26.5938 69.796 28.5915 69.796 30.7165C69.796 32.8415 68.9686 34.8392 67.4659 36.3418C66.7761 37.0317 65.9795 37.5818 65.0983 37.9769C64.543 38.2258 64.2945 38.8781 64.5435 39.4335C64.7926 39.989 65.4449 40.2372 66.0001 39.9883C67.127 39.483 68.1447 38.7805 69.0245 37.9003C70.9436 35.9813 72.0003 33.4301 72.0003 30.7163C72.0003 28.0026 70.9429 25.4518 69.0241 23.5327ZM17.811 25.115C18.6155 24.6315 19.375 24.045 20.068 23.352C20.5941 22.8259 21.0569 22.2606 21.4622 21.6676L27.463 27.6684C26.4307 28.3936 25.5023 29.2779 24.712 30.307C24.4608 30.6339 24.2277 30.9709 24.0118 31.316L17.811 25.115ZM19.9921 65.138C18.0097 67.048 14.8427 66.9891 12.9326 65.0064C11.0226 63.0239 11.0815 59.857 13.0641 57.9471C15.0466 56.0371 18.2135 56.0962 20.1234 58.0785C22.0337 60.0611 21.9746 63.2281 19.9921 65.138ZM22.6111 57.6949C22.3554 57.2908 22.0555 56.9066 21.7109 56.5491C20.827 55.6317 19.7558 55.0015 18.6149 54.6578L24.984 45.9381C26.062 47.2426 27.3934 48.3174 28.8916 49.0974L22.6111 57.6949ZM47.1893 36.9356C47.1726 36.7317 47.1511 36.5271 47.1242 36.3221C46.9282 34.8279 46.4737 33.4092 45.7935 32.1132L51.6889 30.5545C51.6623 32.2334 52.0457 33.9177 52.8441 35.4405L47.1893 36.9356Z" fill="black"/>
</g>
<defs>
<clipPath id="clip0_20099_4324">
<rect width="72" height="72" fill="white"/>
</clipPath>
</defs>
</svg>
