<svg width="32" height="32" viewBox="0 0 32 32" fill="none" xmlns="http://www.w3.org/2000/svg">
<g id="Twitter" clip-path="url(#clip0_20099_4314)">
<path id="Icon" d="M30.6663 4.00022C29.3895 4.90086 27.9758 5.5897 26.4797 6.04022C25.6767 5.11691 24.6095 4.46248 23.4224 4.16546C22.2353 3.86844 20.9857 3.94315 19.8424 4.3795C18.6992 4.81584 17.7176 5.59276 17.0303 6.60518C16.343 7.6176 15.9833 8.81667 15.9997 10.0402V11.3736C13.6565 11.4343 11.3347 10.9146 9.24102 9.86082C7.14733 8.807 5.34676 7.25174 3.99967 5.33356C3.99967 5.33356 -1.33366 17.3336 10.6663 22.6669C7.92038 24.5308 4.64922 25.4655 1.33301 25.3336C13.333 32.0002 27.9997 25.3336 27.9997 10.0002C27.9984 9.62883 27.9627 9.25835 27.893 8.89356C29.2538 7.55155 30.2141 5.85717 30.6663 4.00022Z" stroke="#29458C" stroke-width="3" stroke-linecap="round" stroke-linejoin="round"/>
</g>
<defs>
<clipPath id="clip0_20099_4314">
<rect width="32" height="32" fill="white"/>
</clipPath>
</defs>
</svg>
