<svg width="32" height="32" viewBox="0 0 32 32" fill="none" xmlns="http://www.w3.org/2000/svg">
<path d="M21.3337 10.6665C23.4554 10.6665 25.4902 11.5094 26.9905 13.0096C28.4908 14.5099 29.3337 16.5448 29.3337 18.6665V27.9998H24.0003V18.6665C24.0003 17.9593 23.7194 17.281 23.2193 16.7809C22.7192 16.2808 22.0409 15.9998 21.3337 15.9998C20.6264 15.9998 19.9481 16.2808 19.448 16.7809C18.9479 17.281 18.667 17.9593 18.667 18.6665V27.9998H13.3337V18.6665C13.3337 16.5448 14.1765 14.5099 15.6768 13.0096C17.1771 11.5094 19.2119 10.6665 21.3337 10.6665Z" stroke="#29458C" stroke-width="3" stroke-linecap="round" stroke-linejoin="round"/>
<path d="M8.00033 11.9998H2.66699V27.9998H8.00033V11.9998Z" stroke="#29458C" stroke-width="3" stroke-linecap="round" stroke-linejoin="round"/>
<path d="M5.33366 7.99984C6.80642 7.99984 8.00033 6.80593 8.00033 5.33317C8.00033 3.86041 6.80642 2.6665 5.33366 2.6665C3.8609 2.6665 2.66699 3.86041 2.66699 5.33317C2.66699 6.80593 3.8609 7.99984 5.33366 7.99984Z" stroke="#29458C" stroke-width="3" stroke-linecap="round" stroke-linejoin="round"/>
</svg>
