<svg width="72" height="72" viewBox="0 0 72 72" fill="none" xmlns="http://www.w3.org/2000/svg">
<g clip-path="url(#clip0_20329_636)">
<path d="M13.4665 22.3293L26.4678 35.3306L31.575 30.2233L18.5738 17.2221L13.4665 22.3293Z" fill="#57555C"/>
<path d="M31.5754 30.223L25.7553 24.4028C23.1675 24.9253 21.1713 27.0726 20.8711 29.7342L26.4675 35.3306L31.5754 30.223Z" fill="#3C3A41"/>
<path d="M42.6694 39.2709L57.3615 35.3864L55.4919 28.4092L40.7998 32.2937L42.6694 39.2709Z" fill="#57555C"/>
<path d="M40.7998 32.2938L42.6694 39.271L50.9556 37.0802C50.9643 36.8974 50.9695 36.7138 50.9695 36.5287C50.9695 34.1557 50.248 31.9511 49.0124 30.1226L40.7998 32.2938Z" fill="#3C3A41"/>
<path d="M21.4856 61.1037L32.4033 46.1587L26.5708 41.8979L15.6531 56.8429L21.4856 61.1037Z" fill="#57555C"/>
<path d="M32.4038 46.1586L27.5487 52.8051C24.9114 52.6871 22.6084 50.8726 21.9023 48.2889L26.5708 41.8979L32.4038 46.1586Z" fill="#3C3A41"/>
<path d="M34.6722 49.4133C40.9994 49.4133 46.1287 44.2841 46.1287 37.9569C46.1287 31.6297 40.9994 26.5005 34.6722 26.5005C28.345 26.5005 23.2158 31.6297 23.2158 37.9569C23.2158 44.2841 28.345 49.4133 34.6722 49.4133Z" fill="#00D8DE"/>
<path d="M42.7733 41.878C38.2993 46.352 31.0456 46.352 26.5716 41.878C24.8685 40.1749 23.8157 38.0686 23.4091 35.8667C22.7478 39.4493 23.8006 43.2862 26.5716 46.0571C31.0456 50.531 38.2994 50.531 42.7733 46.0571C45.5441 43.2862 46.597 39.4493 45.9358 35.8667C45.5291 38.0687 44.4762 40.1749 42.7733 41.878Z" fill="#00B6BE"/>
<path d="M11.7523 25.695C17.6388 25.695 22.4108 20.923 22.4108 15.0364C22.4108 9.14991 17.6388 4.37793 11.7523 4.37793C5.86573 4.37793 1.09375 9.14991 1.09375 15.0364C1.09375 20.923 5.86573 25.695 11.7523 25.695Z" fill="#FF0435"/>
<path d="M19.2884 18.6848C15.1262 22.847 8.3779 22.847 4.21569 18.6848C2.63127 17.1004 1.65182 15.141 1.27368 13.0923C0.65845 16.4252 1.63804 19.9947 4.21569 22.5726C8.3779 26.7349 15.1262 26.7349 19.2884 22.5726C21.8663 19.9949 22.8458 16.4254 22.2304 13.0923C21.8523 15.1409 20.8728 17.1004 19.2884 18.6848Z" fill="#E60020"/>
<path d="M16.5274 67.6379C19.8935 67.6379 22.6222 64.9091 22.6222 61.5431C22.6222 58.177 19.8935 55.4482 16.5274 55.4482C13.1614 55.4482 10.4326 58.177 10.4326 61.5431C10.4326 64.9091 13.1614 67.6379 16.5274 67.6379Z" fill="#00D8DE"/>
<path d="M20.8191 62.5923C18.395 64.9277 14.5367 64.8557 12.2013 62.4317C11.4548 61.6569 10.9554 60.7351 10.6992 59.7637C10.0769 61.8093 10.5503 64.1221 12.1392 65.7712C14.4745 68.1952 18.3329 68.2671 20.7569 65.9318C22.4061 64.3428 22.9653 62.0494 22.4197 59.9821C22.1272 60.9434 21.5939 61.8458 20.8191 62.5923Z" fill="#00B6BE"/>
<path d="M61.84 39.7733C66.8419 39.7733 70.8968 35.7184 70.8968 30.7165C70.8968 25.7145 66.8419 21.6597 61.84 21.6597C56.8381 21.6597 52.7832 25.7145 52.7832 30.7165C52.7832 35.7184 56.8381 39.7733 61.84 39.7733Z" fill="#FF0435"/>
<path d="M68.2443 33.272C64.7072 36.8091 58.9721 36.8091 55.4349 33.272C54.1589 31.996 53.3458 30.4336 52.9903 28.792C52.3605 31.7011 53.1736 34.86 55.4349 37.1213C58.9721 40.6585 64.7072 40.6585 68.2443 37.1213C70.5056 34.8601 71.3186 31.7012 70.6888 28.792C70.3333 30.4335 69.5202 31.996 68.2443 33.272Z" fill="#E60020"/>
<path d="M10.2945 45.4227C10.9032 45.4227 11.3968 44.9294 11.3968 44.3205V43.742H11.9751C12.5838 43.742 13.0774 43.2487 13.0774 42.6398C13.0774 42.031 12.5839 41.5375 11.9751 41.5375H11.3968V40.9592C11.3968 40.3504 10.9033 39.8569 10.2945 39.8569C9.68592 39.8569 9.19232 40.3502 9.19232 40.9592V41.5375H8.61393C8.00531 41.5375 7.51172 42.0309 7.51172 42.6398C7.51172 43.2485 8.00517 43.742 8.61393 43.742H9.19232V44.3205C9.19232 44.9294 9.68592 45.4227 10.2945 45.4227Z" fill="black"/>
<path d="M50.7613 60.3515H50.1829V59.7731C50.1829 59.1644 49.6896 58.6709 49.0807 58.6709C48.4719 58.6709 47.9785 59.1642 47.9785 59.7731V60.3515H47.4001C46.7913 60.3515 46.2979 60.8448 46.2979 61.4537C46.2979 62.0626 46.7912 62.5559 47.4001 62.5559H47.9785V63.1343C47.9785 63.7431 48.4718 64.2365 49.0807 64.2365C49.6894 64.2365 50.1829 63.7432 50.1829 63.1343V62.5559H50.7613C51.37 62.5559 51.8635 62.0626 51.8635 61.4537C51.8635 60.8448 51.37 60.3515 50.7613 60.3515Z" fill="black"/>
<path d="M38.7223 15.7039H39.3007V16.2823C39.3007 16.891 39.794 17.3845 40.4029 17.3845C41.0117 17.3845 41.5052 16.8912 41.5052 16.2823V15.7039H42.0835C42.6923 15.7039 43.1858 15.2106 43.1858 14.6017C43.1858 13.9929 42.6925 13.4995 42.0835 13.4995H41.5052V12.9211C41.5052 12.3123 41.0118 11.8188 40.4029 11.8188C39.7942 11.8188 39.3007 12.3122 39.3007 12.9211V13.4995H38.7223C38.1136 13.4995 37.6201 13.9928 37.6201 14.6017C37.6201 15.2106 38.1134 15.7039 38.7223 15.7039Z" fill="black"/>
<path d="M51.5983 21.5771C51.8802 21.5771 52.1625 21.4695 52.3778 21.2543C53.0892 20.5428 53.8774 19.9129 54.7206 19.3822C55.2357 19.0579 55.3904 18.3774 55.0661 17.8622C54.7417 17.3471 54.0612 17.1925 53.5461 17.5167C52.5639 18.1349 51.6465 18.8679 50.8189 19.6954C50.3885 20.126 50.3885 20.8238 50.8189 21.2541C51.0342 21.4694 51.3163 21.5771 51.5983 21.5771Z" fill="black"/>
<path d="M11.7554 31.6496C12.5917 31.6473 13.4355 31.5849 14.2629 31.4637C14.8651 31.3754 15.2819 30.8158 15.1937 30.2134C15.1055 29.6112 14.5458 29.1952 13.9434 29.2826C13.2195 29.3887 12.4815 29.4433 11.7498 29.4451C11.1412 29.4467 10.6488 29.9414 10.6504 30.5502C10.6519 31.1579 11.145 31.6494 11.7526 31.6494C11.7533 31.6496 11.7543 31.6496 11.7554 31.6496Z" fill="black"/>
<path d="M47.4609 50.1761C49.486 48.0542 50.9648 45.4431 51.7372 42.6253C51.898 42.0382 51.5525 41.4318 50.9655 41.2709C50.3779 41.11 49.7721 41.4557 49.6112 42.0425C48.9351 44.5093 47.6402 46.7955 45.8663 48.6541C45.4462 49.0944 45.4623 49.7919 45.9028 50.2124C46.1161 50.416 46.3899 50.5171 46.6635 50.5171C46.9541 50.5174 47.2443 50.4031 47.4609 50.1761Z" fill="black"/>
<path d="M69.0241 23.5328C65.0627 19.5717 58.6175 19.5715 54.6559 23.5329C53.3218 24.8672 52.4391 26.4835 52.0036 28.1913L44.5298 30.1673C43.8973 29.3697 43.1628 28.6439 42.3357 28.0069C41.8532 27.6351 41.1612 27.7255 40.79 28.2074C40.4185 28.6896 40.5084 29.3817 40.9906 29.753C43.1774 31.4374 44.5795 33.8722 44.9385 36.6088C45.6815 42.2696 41.6805 47.4795 36.0198 48.2224C30.3595 48.9667 25.1492 44.9646 24.4061 39.3037C24.0463 36.5614 24.7757 33.8434 26.4602 31.6498C28.1448 29.4562 30.5828 28.0499 33.3248 27.6902C34.4951 27.5364 35.6681 27.581 36.8111 27.8221C37.4066 27.9469 37.9915 27.567 38.1172 26.9712C38.2426 26.3755 37.862 25.7908 37.2663 25.6651C35.8783 25.3722 34.4559 25.3183 33.038 25.5044C31.777 25.6699 30.5693 26.0188 29.444 26.532L22.5649 19.653C24.3887 15.3667 23.5583 10.2108 20.0679 6.7204C16.423 3.07541 10.9028 2.22154 6.33193 4.59641C5.79179 4.87695 5.58141 5.54239 5.86196 6.08239C6.14265 6.62281 6.80808 6.83304 7.34808 6.55236C11.0618 4.62313 15.5471 5.31697 18.5092 8.27923C22.235 12.0051 22.235 18.0673 18.5092 21.7931C14.7833 25.519 8.721 25.519 4.99515 21.7931C1.79931 18.5973 1.28392 13.5446 3.77017 9.77927C4.10556 9.27119 3.96564 8.58762 3.4577 8.25209C2.94976 7.91698 2.26605 8.05662 1.93066 8.56456C-1.12976 13.2 -0.496246 19.419 3.43703 23.3521C5.72963 25.6447 8.74125 26.7909 11.7527 26.7909C13.0873 26.7909 14.4214 26.5648 15.6935 26.1145L22.9702 33.3914C22.2071 35.3395 21.9414 37.4586 22.2213 39.5906C22.4306 41.1865 22.9337 42.6729 23.6673 44.0044L16.1006 54.3636C14.4471 54.4611 12.8189 55.1232 11.5353 56.3597C8.67755 59.113 8.59247 63.6781 11.3456 66.536V66.5361C12.7561 68 14.6414 68.7363 16.5298 68.7363C18.3276 68.7363 20.1279 68.0685 21.5218 66.7257C23.3575 64.9569 24.0471 62.4411 23.5773 60.1098L30.992 49.9597C32.1616 50.3203 33.3957 50.5159 34.6643 50.5159C35.2065 50.5159 35.7554 50.4806 36.3074 50.4083C42.1907 49.636 46.5953 44.8853 47.1685 39.2214L54.1668 37.3711C54.3235 37.5515 54.4848 37.7294 54.6563 37.9008C56.2285 39.4727 58.2202 40.4674 60.4161 40.7768C60.4681 40.7841 60.52 40.7876 60.5713 40.7876C61.1119 40.7876 61.5837 40.3896 61.6613 39.8389C61.7462 39.2361 61.3265 38.6788 60.7236 38.5938C59.0055 38.3518 57.4462 37.573 56.2152 36.3419C53.1134 33.2403 53.1134 28.1932 56.2152 25.0913C59.3169 21.9894 64.364 21.9896 67.4659 25.0913C68.9686 26.5939 69.796 28.5916 69.796 30.7166C69.796 32.8416 68.9686 34.8393 67.4659 36.3419C66.7761 37.0318 65.9795 37.5819 65.0983 37.9771C64.543 38.226 64.2945 38.8782 64.5435 39.4337C64.7926 39.9891 65.4449 40.2373 66.0001 39.9884C67.127 39.4832 68.1447 38.7806 69.0245 37.9004C70.9436 35.9815 72.0003 33.4302 72.0003 30.7165C72.0003 28.0027 70.9429 25.4519 69.0241 23.5328ZM17.811 25.1151C18.6155 24.6316 19.375 24.0451 20.068 23.3521C20.5941 22.826 21.0569 22.2607 21.4622 21.6677L27.463 27.6686C26.4307 28.3938 25.5023 29.278 24.712 30.3071C24.4608 30.6341 24.2277 30.971 24.0118 31.3161L17.811 25.1151ZM19.9921 65.1382C18.0097 67.0481 14.8427 66.9892 12.9326 65.0065C11.0226 63.024 11.0815 59.8571 13.0641 57.9472C15.0466 56.0372 18.2135 56.0963 20.1234 58.0787C22.0337 60.0612 21.9746 63.2282 19.9921 65.1382ZM22.6111 57.695C22.3554 57.2909 22.0555 56.9067 21.7109 56.5492C20.827 55.6318 19.7558 55.0017 18.6149 54.658L24.984 45.9382C26.062 47.2427 27.3934 48.3175 28.8916 49.0975L22.6111 57.695ZM47.1893 36.9357C47.1726 36.7318 47.1511 36.5272 47.1242 36.3222C46.9282 34.828 46.4737 33.4093 45.7935 32.1133L51.6889 30.5546C51.6623 32.2335 52.0457 33.9178 52.8441 35.4406L47.1893 36.9357Z" fill="black"/>
</g>
<defs>
<clipPath id="clip0_20329_636">
<rect width="72" height="72" fill="white"/>
</clipPath>
</defs>
</svg>
