<svg width="41" height="41" viewBox="0 0 41 41" fill="none" xmlns="http://www.w3.org/2000/svg">
<g id="brackets">
<path id="Vector" d="M15.1881 0.344124C17.3079 1.18944 18.8454 2.49607 18.7703 5.00934C18.7402 6.03065 18.4083 6.9546 17.6469 7.68925C15.3969 9.85587 13.3283 12.2118 10.858 14.2331C12.7001 16.577 14.7949 18.6703 16.9386 20.7089C18.3812 22.0809 18.8583 23.7502 18.3948 25.5661C17.9413 27.3394 16.5465 28.2888 14.7559 28.6367C13.6242 28.8581 12.5242 28.6634 11.7185 27.9021C8.01031 24.3982 4.51186 20.6823 1.05101 16.937C0.518734 16.361 0.341658 15.4557 0 14.7038V13.8744C0.411443 12.1265 1.61716 10.9398 2.86086 9.76254C5.21707 7.5306 7.57741 5.30267 9.87162 3.00939C10.9627 1.91875 12.0648 0.896109 13.5314 0.344124H15.1881Z" fill="#F89D0E"/>
<path id="Vector_2" d="M39.1993 23.677C35.8119 20.0611 32.439 16.4292 28.9621 12.9C27.3157 11.2293 24.4002 11.3827 22.8185 12.9986C21.1549 14.6973 21.1361 17.1265 22.6642 19.0211C24.4898 21.2837 26.6537 23.2104 28.6917 25.261C29.3047 25.877 29.2907 26.205 28.6714 26.7756C26.6788 28.6103 24.7382 30.5009 22.7757 32.3675C21.8022 33.2928 21.2304 34.4874 21.3101 35.7647C21.4242 37.594 22.4117 39.0406 24.159 39.734C25.9236 40.4339 27.5188 40.0113 28.9021 38.6807C32.1093 35.5927 35.351 32.5395 38.5602 29.4529C39.4695 28.5783 39.9586 27.4756 40.067 26.1743C39.9571 25.2957 39.8399 24.361 39.1993 23.677Z" fill="#F89D0E"/>
</g>
</svg>
