<svg width="19" height="30" viewBox="0 0 19 30" fill="none" xmlns="http://www.w3.org/2000/svg">
<path id="Vector" d="M18.9347 25.518C18.9 25.5526 18.9066 25.5966 18.9053 25.6393C18.8986 26.1246 18.7613 26.5793 18.568 27.0166C18.2347 27.7699 17.7187 28.3766 17.0387 28.8379C16.5227 29.1872 15.9534 29.4112 15.3348 29.5099C15.0494 29.5552 14.7627 29.5739 14.4721 29.5739C11.3802 29.5725 8.28827 29.5725 5.19501 29.5752C4.94302 29.5752 4.68967 29.5605 4.44435 29.5245C4.13502 29.4805 3.82972 29.3885 3.53506 29.2712C3.00041 29.0565 2.52306 28.7526 2.11374 28.3526C1.68175 27.9286 1.3471 27.4339 1.12044 26.8686C0.859111 26.2206 0.76846 25.5446 0.833791 24.854C0.915123 23.9913 1.23377 23.218 1.78575 22.5434C2.31907 21.8927 2.98839 21.4381 3.7857 21.1741C4.12703 21.0621 4.4777 21.0021 4.8377 20.9754C5.13769 20.9527 5.43768 20.9554 5.73634 20.9554C7.20563 20.9527 8.67357 20.9541 10.1429 20.9541C10.3522 20.9541 10.3415 20.9741 10.3415 20.7541V8.88772C10.3415 8.6704 10.3415 8.66904 10.1215 8.66904C8.43759 8.66904 6.75495 8.66771 5.07232 8.66904C4.14568 8.67038 3.3124 8.38639 2.57109 7.84241C1.74311 7.23442 1.20443 6.42243 0.943098 5.42778C0.815102 4.94113 0.785794 4.44249 0.835126 3.94651C0.924457 3.04386 1.26978 2.24522 1.8671 1.55457C2.22309 1.14392 2.6404 0.814568 3.11638 0.562574C3.56971 0.32258 4.05237 0.17326 4.56303 0.106596C4.76569 0.0799294 4.96836 0.0759315 5.17102 0.0759315C8.30694 0.0759315 11.4415 0.0772648 14.5774 0.0745983C15.1081 0.0732651 15.6214 0.150589 16.1187 0.334585C16.6734 0.539913 17.1627 0.845257 17.5934 1.25325C18.1254 1.75723 18.504 2.35722 18.7307 3.0532C18.828 3.34786 18.9026 3.64783 18.9053 3.96249C18.9053 3.99982 18.9013 4.03849 18.9347 4.06649V25.518Z" fill="#049796"/>
</svg>
