<svg width="39" height="41" viewBox="0 0 39 41" fill="none" xmlns="http://www.w3.org/2000/svg">
<g id="colon">
<path id="Vector" d="M38.7198 36.6457C38.6852 36.6803 38.6918 36.7243 38.6905 36.767C38.6852 37.2523 38.5478 37.707 38.3532 38.1443C38.0198 38.8976 37.5039 39.5042 36.8239 39.9656C36.3079 40.3149 35.7386 40.5389 35.1212 40.6376C34.8346 40.6829 34.5479 40.7015 34.2586 40.7015C31.1653 40.7002 28.0734 40.7002 24.9802 40.7029C24.7282 40.7029 24.4749 40.6882 24.2295 40.6522C23.9202 40.6082 23.6149 40.5162 23.3202 40.3989C22.7856 40.1842 22.3082 39.8802 21.9003 39.4803C21.4669 39.0563 21.1323 38.5616 20.9056 37.9963C20.6456 37.3483 20.5536 36.6723 20.6189 35.9817C20.7003 35.119 21.0189 34.3457 21.5709 33.6711C22.1056 33.0204 22.7736 32.5657 23.5709 32.3018C23.9122 32.1898 24.2629 32.1298 24.6228 32.1031C24.9242 32.0804 25.2228 32.0831 25.5215 32.0831C26.9908 32.0804 28.4588 32.0818 29.928 32.0818C30.1374 32.0818 30.1267 32.1018 30.1267 31.8818V20.0154C30.1267 19.7981 30.1267 19.7967 29.9067 19.7967C28.2241 19.7967 26.5401 19.7954 24.8575 19.7967C23.9309 19.7981 23.0975 19.5141 22.3562 18.9701C21.5283 18.3621 20.9896 17.5501 20.7283 16.5555C20.6003 16.0688 20.5709 15.5702 20.6203 15.0742C20.7096 14.1715 21.0549 13.3729 21.6522 12.6823C22.0082 12.2716 22.4256 11.9423 22.9029 11.6903C23.3549 11.4503 23.8389 11.3009 24.3482 11.2343C24.5509 11.2076 24.7535 11.2036 24.9562 11.2036C28.0921 11.2036 31.228 11.205 34.3626 11.2023C34.8933 11.201 35.4066 11.2783 35.9039 11.4623C36.4585 11.6676 36.9492 11.9729 37.3785 12.3809C37.9118 12.8849 38.2892 13.4849 38.5158 14.1809C38.6132 14.4755 38.6878 14.7755 38.6905 15.0902C38.6905 15.1275 38.6865 15.1662 38.7198 15.1942V36.6457Z" fill="#F89D0E"/>
<path id="Vector_2" d="M14.5743 0.499966C14.597 0.527966 14.6303 0.526628 14.6623 0.529295C15.3609 0.577293 15.9983 0.809309 16.5849 1.1853C17.2596 1.61729 17.7729 2.19727 18.1249 2.91459C18.3502 3.37457 18.4849 3.86122 18.5369 4.37321C18.6102 5.08652 18.5102 5.7705 18.2409 6.43048C18.0662 6.8598 17.8262 7.25047 17.5249 7.60513C17.1222 8.07845 16.6369 8.43977 16.0783 8.70243C15.6036 8.92509 15.1049 9.05175 14.581 9.09308C14.2703 9.11841 13.961 9.1131 13.6503 9.1131C12.1824 9.1171 10.7131 9.11443 9.24376 9.11577C9.02776 9.11577 9.04243 9.09576 9.04243 9.31176V21.2101C9.04243 21.2208 9.04109 21.2328 9.04243 21.2435C9.04376 21.3995 9.04377 21.4008 9.20243 21.4008H14.0596C14.209 21.4008 14.3596 21.3968 14.509 21.4034C15.0116 21.4248 15.4929 21.5448 15.9543 21.7408C16.5716 22.0034 17.0969 22.3954 17.5316 22.9034C17.9995 23.4501 18.3129 24.0781 18.4635 24.7834C18.5395 25.1354 18.5769 25.4914 18.5595 25.8514C18.5155 26.786 18.2182 27.6313 17.6302 28.3673C17.1916 28.9166 16.6542 29.3406 16.0103 29.6272C15.6223 29.8006 15.2169 29.9112 14.7943 29.9646C14.5583 29.9939 14.3236 29.9939 14.089 29.9939C11.001 29.9952 7.91446 29.9926 4.82653 29.9966C4.32388 29.9979 3.83589 29.9379 3.3599 29.7739C2.60259 29.5139 1.96661 29.0793 1.44796 28.4673C1.08663 28.0406 0.822638 27.5606 0.646642 27.0326C0.519979 26.65 0.446648 26.2567 0.447982 25.8514C0.447982 25.7554 0.446647 25.658 0.446647 25.562C0.446647 18.6848 0.446646 11.809 0.445312 4.93185C0.445312 4.5292 0.465318 4.13055 0.567982 3.73856C0.745311 3.06257 1.06263 2.46526 1.52795 1.94394C2.03861 1.37062 2.65726 0.963976 3.38258 0.721315C3.69724 0.615984 4.01988 0.537292 4.35454 0.52796C4.38654 0.526627 4.41854 0.526632 4.44254 0.499966H14.5743Z" fill="#F89D0E"/>
</g>
</svg>
