<svg width="40" height="41" viewBox="0 0 40 41" fill="none" xmlns="http://www.w3.org/2000/svg">
<g id="colon">
<path id="Vector" d="M39.0888 36.1459C39.0534 36.1806 39.0602 36.2246 39.0588 36.2672C39.0534 36.7525 38.9131 37.2072 38.7143 37.6445C38.3739 38.3978 37.847 39.0045 37.1525 39.4658C36.6255 39.8151 36.0441 40.0391 35.4137 40.1378C35.1209 40.1831 34.8281 40.2018 34.5327 40.2018C31.3736 40.2005 28.2159 40.2005 25.0568 40.2031C24.7995 40.2031 24.5407 40.1885 24.2902 40.1525C23.9743 40.1085 23.6625 40.0165 23.3615 39.8991C22.8155 39.6845 22.328 39.3805 21.9114 38.9805C21.4688 38.5565 21.127 38.0618 20.8956 37.4965C20.63 36.8485 20.5361 36.1726 20.6028 35.4819C20.6859 34.6193 21.0113 33.846 21.575 33.1713C22.1211 32.5207 22.8032 32.066 23.6175 31.802C23.9661 31.69 24.3242 31.63 24.6919 31.6033C24.9996 31.5807 25.3046 31.5834 25.6096 31.5834C27.1102 31.5807 28.6094 31.582 30.11 31.582C30.3237 31.582 30.3129 31.602 30.3129 31.382V19.5157C30.3129 19.2983 30.3129 19.297 30.0882 19.297C28.3698 19.297 26.65 19.2956 24.9315 19.297C23.9852 19.2983 23.1341 19.0143 22.377 18.4703C21.5315 17.8624 20.9813 17.0504 20.7145 16.0557C20.5837 15.5691 20.5538 15.0704 20.6042 14.5744C20.6954 13.6718 21.0481 12.8732 21.6581 12.1825C22.0216 11.7718 22.4479 11.4425 22.9353 11.1905C23.3969 10.9505 23.8912 10.8012 24.4114 10.7345C24.6184 10.7079 24.8253 10.7039 25.0323 10.7039C28.2349 10.7039 31.4376 10.7052 34.6389 10.7025C35.1808 10.7012 35.7051 10.7785 36.213 10.9625C36.7794 11.1678 37.2805 11.4732 37.719 11.8812C38.2636 12.3852 38.649 12.9851 38.8805 13.6811C38.9799 13.9758 39.0561 14.2758 39.0588 14.5904C39.0588 14.6278 39.0548 14.6664 39.0888 14.6944V36.1459Z" fill="#F89D0E"/>
<path id="Vector_2" d="M14.4296 -0.000522614C14.4527 0.0274773 14.4868 0.0261402 14.5195 0.0288067C15.233 0.0768051 15.8839 0.308821 16.483 0.684813C17.172 1.1168 17.6962 1.69678 18.0557 2.4141C18.2858 2.87409 18.4234 3.36073 18.4765 3.87272C18.5514 4.58604 18.4492 5.27001 18.1742 5.92999C17.9958 6.35932 17.7507 6.74998 17.443 7.10464C17.0317 7.57796 16.5361 7.93928 15.9656 8.20194C15.4808 8.4246 14.9715 8.55126 14.4364 8.59259C14.1191 8.61792 13.8032 8.61261 13.486 8.61261C11.9868 8.61661 10.4862 8.61395 8.98565 8.61528C8.76506 8.61528 8.78003 8.59527 8.78003 8.81127V20.7096C8.78003 20.7203 8.77867 20.7323 8.78003 20.743C8.78139 20.899 8.7814 20.9003 8.94344 20.9003H13.904C14.0565 20.9003 14.2104 20.8963 14.3629 20.903C14.8762 20.9243 15.3678 21.0443 15.8389 21.2403C16.4694 21.5029 17.0059 21.8949 17.4498 22.4029C17.9277 22.9496 18.2477 23.5776 18.4016 24.2829C18.4792 24.6349 18.5173 24.9909 18.4996 25.3509C18.4547 26.2855 18.151 27.1308 17.5505 27.8668C17.1026 28.4161 16.5538 28.8401 15.8961 29.1267C15.4999 29.3001 15.0859 29.4107 14.6543 29.4641C14.4133 29.4934 14.1736 29.4934 13.9339 29.4934C10.7803 29.4947 7.62806 29.4921 4.47444 29.4961C3.96109 29.4974 3.46272 29.4374 2.9766 29.2734C2.20318 29.0134 1.55367 28.5788 1.02398 27.9668C0.654965 27.5401 0.385353 27.0601 0.205613 26.5321C0.0762547 26.1495 0.00136433 25.7562 0.002726 25.3509C0.002726 25.2549 0.001363 25.1575 0.001363 25.0615C0.001363 18.1844 0.00136167 11.3085 0 4.43137C0 4.02871 0.020431 3.63006 0.125279 3.23807C0.306381 2.56209 0.630452 1.96477 1.10567 1.44345C1.62719 0.870132 2.25901 0.463488 2.99976 0.220827C3.32111 0.115496 3.65062 0.0368042 3.9924 0.0274715C4.02508 0.0261383 4.05777 0.026144 4.08228 -0.000522614H14.4296Z" fill="#F89D0E"/>
</g>
</svg>
