<svg width="40" height="41" viewBox="0 0 40 41" fill="none" xmlns="http://www.w3.org/2000/svg">
<g id="colon">
<path id="Vector" d="M39.2198 36.1459C39.1852 36.1806 39.1918 36.2246 39.1905 36.2672C39.1852 36.7525 39.0478 37.2072 38.8532 37.6445C38.5198 38.3978 38.0039 39.0045 37.3239 39.4658C36.8079 39.8151 36.2386 40.0391 35.6212 40.1378C35.3346 40.1831 35.0479 40.2018 34.7586 40.2018C31.6653 40.2005 28.5734 40.2005 25.4802 40.2031C25.2282 40.2031 24.9749 40.1885 24.7295 40.1525C24.4202 40.1085 24.1149 40.0165 23.8202 39.8991C23.2856 39.6845 22.8082 39.3805 22.4003 38.9805C21.9669 38.5565 21.6323 38.0618 21.4056 37.4965C21.1456 36.8485 21.0536 36.1726 21.1189 35.4819C21.2003 34.6193 21.5189 33.846 22.0709 33.1713C22.6056 32.5207 23.2736 32.066 24.0709 31.802C24.4122 31.69 24.7629 31.63 25.1228 31.6033C25.4242 31.5807 25.7228 31.5834 26.0215 31.5834C27.4908 31.5807 28.9588 31.582 30.428 31.582C30.6374 31.582 30.6267 31.602 30.6267 31.382V19.5157C30.6267 19.2983 30.6267 19.297 30.4067 19.297C28.7241 19.297 27.0401 19.2956 25.3575 19.297C24.4309 19.2983 23.5975 19.0143 22.8562 18.4703C22.0283 17.8624 21.4896 17.0504 21.2283 16.0557C21.1003 15.5691 21.0709 15.0704 21.1203 14.5744C21.2096 13.6718 21.5549 12.8732 22.1522 12.1825C22.5082 11.7718 22.9256 11.4425 23.4029 11.1905C23.8549 10.9505 24.3389 10.8012 24.8482 10.7345C25.0509 10.7079 25.2535 10.7039 25.4562 10.7039C28.5921 10.7039 31.728 10.7052 34.8626 10.7025C35.3933 10.7012 35.9066 10.7785 36.4039 10.9625C36.9585 11.1678 37.4492 11.4732 37.8785 11.8812C38.4118 12.3852 38.7892 12.9851 39.0158 13.6811C39.1132 13.9758 39.1878 14.2758 39.1905 14.5904C39.1905 14.6278 39.1865 14.6664 39.2198 14.6944V36.1459Z" fill="#F89D0E"/>
<path id="Vector_2" d="M15.0743 0.000453949C15.097 0.0284538 15.1303 0.0271168 15.1623 0.0297832C15.8609 0.0777817 16.4983 0.309797 17.0849 0.685789C17.7596 1.11778 18.2729 1.69776 18.6249 2.41508C18.8502 2.87506 18.9849 3.36171 19.0369 3.8737C19.1102 4.58701 19.0102 5.27099 18.7409 5.93097C18.5662 6.36029 18.3262 6.75096 18.0249 7.10562C17.6222 7.57894 17.1369 7.94026 16.5783 8.20292C16.1036 8.42558 15.6049 8.55223 15.081 8.59357C14.7703 8.6189 14.461 8.61358 14.1503 8.61358C12.6824 8.61758 11.2131 8.61492 9.74376 8.61625C9.52776 8.61625 9.54243 8.59625 9.54243 8.81225V20.7106C9.54243 20.7213 9.54109 20.7333 9.54243 20.7439C9.54376 20.8999 9.54377 20.9013 9.70243 20.9013H14.5596C14.709 20.9013 14.8596 20.8973 15.009 20.9039C15.5116 20.9253 15.9929 21.0453 16.4543 21.2413C17.0716 21.5039 17.5969 21.8959 18.0316 22.4039C18.4995 22.9506 18.8129 23.5785 18.9635 24.2839C19.0395 24.6359 19.0769 24.9918 19.0595 25.3518C19.0155 26.2865 18.7182 27.1318 18.1302 27.8678C17.6916 28.4171 17.1542 28.8411 16.5103 29.1277C16.1223 29.3011 15.7169 29.4117 15.2943 29.4651C15.0583 29.4944 14.8236 29.4944 14.589 29.4944C11.501 29.4957 8.41446 29.493 5.32653 29.497C4.82388 29.4984 4.33589 29.4384 3.8599 29.2744C3.10259 29.0144 2.46661 28.5797 1.94796 27.9678C1.58663 27.5411 1.32264 27.0611 1.14664 26.5331C1.01998 26.1505 0.946648 25.7572 0.947982 25.3518C0.947982 25.2558 0.946647 25.1585 0.946647 25.0625C0.946647 18.1853 0.946646 11.3095 0.945312 4.43234C0.945312 4.02969 0.965318 3.63103 1.06798 3.23904C1.24531 2.56306 1.56263 1.96575 2.02795 1.44443C2.53861 0.871109 3.15726 0.464464 3.88258 0.221804C4.19724 0.116472 4.51988 0.0377808 4.85454 0.0284481C4.88654 0.0271149 4.91854 0.0271206 4.94254 0.000453949H15.0743Z" fill="#F89D0E"/>
</g>
</svg>
