<svg width="40" height="41" viewBox="0 0 40 41" fill="none" xmlns="http://www.w3.org/2000/svg">
<g id="colon">
<path id="Vector" d="M39.2198 36.1457C39.1852 36.1803 39.1918 36.2243 39.1905 36.267C39.1852 36.7523 39.0478 37.207 38.8532 37.6443C38.5198 38.3976 38.0039 39.0042 37.3239 39.4656C36.8079 39.8149 36.2386 40.0389 35.6212 40.1376C35.3346 40.1829 35.0479 40.2015 34.7586 40.2015C31.6653 40.2002 28.5734 40.2002 25.4802 40.2029C25.2282 40.2029 24.9749 40.1882 24.7295 40.1522C24.4202 40.1082 24.1149 40.0162 23.8202 39.8989C23.2856 39.6842 22.8082 39.3802 22.4003 38.9803C21.9669 38.5563 21.6323 38.0616 21.4056 37.4963C21.1456 36.8483 21.0536 36.1723 21.1189 35.4817C21.2003 34.619 21.5189 33.8457 22.0709 33.1711C22.6056 32.5204 23.2736 32.0657 24.0709 31.8018C24.4122 31.6898 24.7629 31.6298 25.1228 31.6031C25.4242 31.5804 25.7228 31.5831 26.0215 31.5831C27.4908 31.5804 28.9588 31.5818 30.428 31.5818C30.6374 31.5818 30.6267 31.6018 30.6267 31.3818V19.5154C30.6267 19.2981 30.6267 19.2967 30.4067 19.2967C28.7241 19.2967 27.0401 19.2954 25.3575 19.2967C24.4309 19.2981 23.5975 19.0141 22.8562 18.4701C22.0283 17.8621 21.4896 17.0501 21.2283 16.0555C21.1003 15.5688 21.0709 15.0702 21.1203 14.5742C21.2096 13.6715 21.5549 12.8729 22.1522 12.1823C22.5082 11.7716 22.9256 11.4423 23.4029 11.1903C23.8549 10.9503 24.3389 10.8009 24.8482 10.7343C25.0509 10.7076 25.2535 10.7036 25.4562 10.7036C28.5921 10.7036 31.728 10.705 34.8626 10.7023C35.3933 10.701 35.9066 10.7783 36.4039 10.9623C36.9585 11.1676 37.4492 11.4729 37.8785 11.8809C38.4118 12.3849 38.7892 12.9849 39.0158 13.6809C39.1132 13.9755 39.1878 14.2755 39.1905 14.5902C39.1905 14.6275 39.1865 14.6662 39.2198 14.6942V36.1457Z" fill="#F89D0E"/>
<path id="Vector_2" d="M15.0743 -3.43323e-05C15.097 0.0279655 15.1303 0.0266285 15.1623 0.029295C15.8609 0.0772934 16.4983 0.309309 17.0849 0.685301C17.7596 1.11729 18.2729 1.69727 18.6249 2.41459C18.8502 2.87457 18.9849 3.36122 19.0369 3.87321C19.1102 4.58652 19.0102 5.2705 18.7409 5.93048C18.5662 6.3598 18.3262 6.75047 18.0249 7.10513C17.6222 7.57845 17.1369 7.93977 16.5783 8.20243C16.1036 8.42509 15.6049 8.55175 15.081 8.59308C14.7703 8.61841 14.461 8.6131 14.1503 8.6131C12.6824 8.6171 11.2131 8.61443 9.74376 8.61577C9.52776 8.61577 9.54243 8.59576 9.54243 8.81176V20.7101C9.54243 20.7208 9.54109 20.7328 9.54243 20.7435C9.54376 20.8995 9.54377 20.9008 9.70243 20.9008H14.5596C14.709 20.9008 14.8596 20.8968 15.009 20.9034C15.5116 20.9248 15.9929 21.0448 16.4543 21.2408C17.0716 21.5034 17.5969 21.8954 18.0316 22.4034C18.4995 22.9501 18.8129 23.5781 18.9635 24.2834C19.0395 24.6354 19.0769 24.9914 19.0595 25.3514C19.0155 26.286 18.7182 27.1313 18.1302 27.8673C17.6916 28.4166 17.1542 28.8406 16.5103 29.1272C16.1223 29.3006 15.7169 29.4112 15.2943 29.4646C15.0583 29.4939 14.8236 29.4939 14.589 29.4939C11.501 29.4952 8.41446 29.4926 5.32653 29.4966C4.82388 29.4979 4.33589 29.4379 3.8599 29.2739C3.10259 29.0139 2.46661 28.5793 1.94796 27.9673C1.58663 27.5406 1.32264 27.0606 1.14664 26.5326C1.01998 26.15 0.946648 25.7567 0.947982 25.3514C0.947982 25.2554 0.946647 25.158 0.946647 25.062C0.946647 18.1848 0.946646 11.309 0.945312 4.43185C0.945312 4.0292 0.965318 3.63055 1.06798 3.23856C1.24531 2.56257 1.56263 1.96526 2.02795 1.44394C2.53861 0.870621 3.15726 0.463976 3.88258 0.221315C4.19724 0.115984 4.51988 0.0372925 4.85454 0.0279598C4.88654 0.0266266 4.91854 0.0266323 4.94254 -3.43323e-05H15.0743Z" fill="#F89D0E"/>
</g>
</svg>
