<svg width="517" height="76" viewBox="0 0 517 76" fill="none" xmlns="http://www.w3.org/2000/svg">
<path d="M390.872 31.3322C389.913 33.4482 388.309 34.4468 385.95 34.3135C384.401 34.2255 382.841 34.3468 381.29 34.2775C380.361 34.2361 379.985 34.4508 380.037 35.4761C380.128 37.2707 380.068 39.0734 380.061 40.8733C380.054 42.8786 378.66 44.7065 376.868 45.0732C374.895 45.4759 373.032 44.4385 372.191 42.4986C372.029 42.1239 372.008 41.7546 372.008 41.368C372.009 39.2853 371.985 37.2027 372.021 35.1215C372.033 34.4628 371.809 34.2735 371.171 34.2842C369.192 34.3188 367.215 34.2881 365.236 34.2988C362.714 34.3135 361.008 32.4255 361.022 30.2282C361.038 27.6176 363.392 26.1297 365.195 26.2257C367.168 26.3323 369.151 26.223 371.128 26.2643C371.829 26.279 372.036 26.0523 372.023 25.3617C371.984 23.3164 372.005 21.2685 372.009 19.2219C372.013 17.4872 373.34 15.8193 374.979 15.4779C377.002 15.054 378.966 16.0246 379.677 17.7952C379.941 18.4552 380.085 19.1232 380.072 19.8458C380.042 21.6445 380.098 23.4457 380.045 25.2444C380.022 26.0164 380.218 26.3017 381.038 26.2697C382.661 26.2057 384.293 26.343 385.91 26.2283C388.313 26.059 389.973 26.967 390.872 29.2149V31.3322Z" fill="#F177B5"/>
<path d="M516.935 65.518C516.9 65.5526 516.907 65.5966 516.905 65.6393C516.899 66.1246 516.761 66.5793 516.568 67.0166C516.235 67.7699 515.719 68.3766 515.039 68.8379C514.523 69.1872 513.953 69.4112 513.335 69.5099C513.049 69.5552 512.763 69.5739 512.472 69.5739C509.38 69.5725 506.288 69.5725 503.195 69.5752C502.943 69.5752 502.69 69.5605 502.444 69.5245C502.135 69.4805 501.83 69.3885 501.535 69.2712C501 69.0565 500.523 68.7526 500.114 68.3526C499.682 67.9286 499.347 67.4339 499.12 66.8686C498.859 66.2206 498.768 65.5446 498.834 64.854C498.915 63.9913 499.234 63.218 499.786 62.5434C500.319 61.8927 500.988 61.4381 501.786 61.1741C502.127 61.0621 502.478 61.0021 502.838 60.9754C503.138 60.9527 503.438 60.9554 503.736 60.9554C505.206 60.9527 506.674 60.9541 508.143 60.9541C508.352 60.9541 508.342 60.9741 508.342 60.7541V48.8877C508.342 48.6704 508.342 48.669 508.122 48.669C506.438 48.669 504.755 48.6677 503.072 48.669C502.146 48.6704 501.312 48.3864 500.571 47.8424C499.743 47.2344 499.204 46.4224 498.943 45.4278C498.815 44.9411 498.786 44.4425 498.835 43.9465C498.924 43.0439 499.27 42.2452 499.867 41.5546C500.223 41.1439 500.64 40.8146 501.116 40.5626C501.57 40.3226 502.052 40.1733 502.563 40.1066C502.766 40.0799 502.968 40.0759 503.171 40.0759C506.307 40.0759 509.442 40.0773 512.577 40.0746C513.108 40.0733 513.621 40.1506 514.119 40.3346C514.673 40.5399 515.163 40.8453 515.593 41.2532C516.125 41.7572 516.504 42.3572 516.731 43.0532C516.828 43.3479 516.903 43.6478 516.905 43.9625C516.905 43.9998 516.901 44.0385 516.935 44.0665V65.518Z" fill="#049796"/>
<path d="M492.789 29.3725C492.812 29.4005 492.844 29.3992 492.877 29.4019C493.576 29.4499 494.213 29.6818 494.8 30.0578C495.474 30.4898 495.988 31.0698 496.34 31.7871C496.565 32.2471 496.7 32.7338 496.752 33.2458C496.825 33.9591 496.724 34.6431 496.456 35.303C496.281 35.7324 496.041 36.123 495.74 36.4777C495.337 36.951 494.852 37.3123 494.292 37.575C493.818 37.7976 493.32 37.9243 492.796 37.9656C492.485 37.991 492.176 37.9857 491.865 37.9857C490.396 37.9897 488.928 37.987 487.459 37.987C487.243 37.9883 487.256 37.9683 487.256 38.1843V50.0827V50.116C487.259 50.272 487.259 50.2733 487.417 50.2733H492.274C492.424 50.2733 492.574 50.2693 492.724 50.276C493.226 50.2973 493.708 50.4173 494.169 50.6133C494.785 50.876 495.312 51.268 495.746 51.776C496.214 52.3226 496.526 52.9506 496.678 53.6559C496.754 54.0079 496.792 54.3639 496.774 54.7225C496.73 55.6585 496.433 56.5038 495.845 57.2398C495.406 57.7891 494.868 58.2131 494.225 58.4998C493.837 58.6731 493.432 58.7838 493.009 58.8371C492.773 58.8665 492.538 58.8664 492.304 58.8664C489.216 58.8678 486.129 58.8651 483.041 58.8691C482.539 58.8705 482.051 58.8105 481.575 58.6465C480.817 58.3865 480.181 57.9518 479.663 57.3398C479.301 56.9132 479.036 56.4332 478.861 55.9052C478.735 55.5225 478.66 55.1292 478.663 54.7239C478.663 54.6279 478.661 54.5306 478.661 54.4346C478.661 47.5574 478.661 40.6816 478.66 33.8044C478.66 33.4018 478.68 33.0031 478.783 32.6111C478.96 31.9351 479.277 31.3378 479.743 30.8165C480.252 30.2432 480.872 29.8378 481.597 29.5938C481.912 29.4885 482.235 29.4099 482.569 29.4005C482.601 29.3992 482.633 29.3992 482.657 29.3725H492.789Z" fill="#049796"/>
<path d="M267.22 36.1459C267.185 36.1806 267.192 36.2246 267.19 36.2672C267.185 36.7525 267.048 37.2072 266.853 37.6445C266.52 38.3978 266.004 39.0045 265.324 39.4658C264.808 39.8151 264.239 40.0391 263.621 40.1378C263.335 40.1831 263.048 40.2018 262.759 40.2018C259.665 40.2005 256.573 40.2005 253.48 40.2031C253.228 40.2031 252.975 40.1885 252.73 40.1525C252.42 40.1085 252.115 40.0165 251.82 39.8991C251.286 39.6845 250.808 39.3805 250.4 38.9805C249.967 38.5565 249.632 38.0618 249.406 37.4965C249.146 36.8485 249.054 36.1726 249.119 35.4819C249.2 34.6193 249.519 33.846 250.071 33.1713C250.606 32.5207 251.274 32.066 252.071 31.802C252.412 31.69 252.763 31.63 253.123 31.6033C253.424 31.5807 253.723 31.5834 254.021 31.5834C255.491 31.5807 256.959 31.582 258.428 31.582C258.637 31.582 258.627 31.602 258.627 31.382V19.5157C258.627 19.2983 258.627 19.297 258.407 19.297C256.724 19.297 255.04 19.2956 253.358 19.297C252.431 19.2983 251.598 19.0143 250.856 18.4703C250.028 17.8624 249.49 17.0504 249.228 16.0557C249.1 15.5691 249.071 15.0704 249.12 14.5744C249.21 13.6718 249.555 12.8732 250.152 12.1825C250.508 11.7718 250.926 11.4425 251.403 11.1905C251.855 10.9505 252.339 10.8012 252.848 10.7345C253.051 10.7079 253.254 10.7039 253.456 10.7039C256.592 10.7039 259.728 10.7052 262.863 10.7025C263.393 10.7012 263.907 10.7785 264.404 10.9625C264.959 11.1678 265.449 11.4732 265.879 11.8812C266.412 12.3852 266.789 12.9851 267.016 13.6811C267.113 13.9758 267.188 14.2758 267.19 14.5904C267.19 14.6278 267.186 14.6664 267.22 14.6944V36.1459Z" fill="#F89D0E"/>
<path d="M243.074 -3.43323e-05C243.097 0.0279655 243.13 0.0266285 243.162 0.029295C243.861 0.0772934 244.498 0.309309 245.085 0.685301C245.76 1.11729 246.273 1.69727 246.625 2.41459C246.85 2.87457 246.985 3.36122 247.037 3.87321C247.11 4.58652 247.01 5.2705 246.741 5.93048C246.566 6.3598 246.326 6.75047 246.025 7.10513C245.622 7.57845 245.137 7.93977 244.578 8.20243C244.104 8.42509 243.605 8.55175 243.081 8.59308C242.77 8.61841 242.461 8.6131 242.15 8.6131C240.682 8.6171 239.213 8.61443 237.744 8.61577C237.528 8.61577 237.542 8.59576 237.542 8.81176V20.7101C237.542 20.7208 237.541 20.7328 237.542 20.7435C237.544 20.8995 237.544 20.9008 237.702 20.9008H242.56C242.709 20.9008 242.86 20.8968 243.009 20.9034C243.512 20.9248 243.993 21.0448 244.454 21.2408C245.072 21.5034 245.597 21.8954 246.032 22.4034C246.5 22.9501 246.813 23.5781 246.964 24.2834C247.04 24.6354 247.077 24.9914 247.06 25.3514C247.016 26.286 246.718 27.1313 246.13 27.8673C245.692 28.4166 245.154 28.8406 244.51 29.1272C244.122 29.3006 243.717 29.4112 243.294 29.4646C243.058 29.4939 242.824 29.4939 242.589 29.4939C239.501 29.4952 236.414 29.4926 233.327 29.4966C232.824 29.4979 232.336 29.4379 231.86 29.2739C231.103 29.0139 230.467 28.5793 229.948 27.9673C229.587 27.5406 229.323 27.0606 229.147 26.5326C229.02 26.15 228.947 25.7567 228.948 25.3514C228.948 25.2554 228.947 25.158 228.947 25.062C228.947 18.1848 228.947 11.309 228.945 4.43185C228.945 4.0292 228.965 3.63055 229.068 3.23856C229.245 2.56257 229.563 1.96526 230.028 1.44394C230.539 0.870621 231.157 0.463976 231.883 0.221315C232.197 0.115984 232.52 0.0372925 232.855 0.0279598C232.887 0.0266266 232.919 0.0266323 232.943 -3.43323e-05H243.074Z" fill="#F89D0E"/>
<path d="M131.747 35.4524C133.866 36.2977 135.403 37.6043 135.329 40.1176C135.298 41.1389 134.966 42.0628 134.205 42.7975C131.955 44.9641 129.886 47.32 127.417 49.3413C129.258 51.6853 131.354 53.7786 133.497 55.8172C134.939 57.1891 135.417 58.8584 134.953 60.6744C134.499 62.4477 133.105 63.397 131.314 63.745C130.183 63.965 129.083 63.7716 128.277 63.0103C124.569 59.5064 121.07 55.7905 117.61 52.0453C117.077 51.4693 116.9 50.564 116.559 49.812V48.9827C116.97 47.2347 118.176 46.0481 119.419 44.8708C121.775 42.6388 124.135 40.4109 126.43 38.1176C127.521 37.027 128.623 36.003 130.09 35.4524H131.747Z" fill="#294494"/>
<path d="M155.756 58.7984C152.369 55.1825 148.996 51.5506 145.519 48.0213C143.872 46.3507 140.957 46.504 139.375 48.12C137.712 49.8186 137.693 52.2479 139.221 54.1425C141.047 56.4051 143.211 58.3317 145.248 60.3824C145.861 60.9983 145.848 61.3263 145.228 61.897C143.236 63.7316 141.295 65.6222 139.332 67.4888C138.359 68.4141 137.787 69.6088 137.867 70.8861C137.981 72.7154 138.968 74.162 140.716 74.8553C142.48 75.5553 144.076 75.1326 145.459 73.802C148.667 70.7141 151.908 67.6608 155.117 64.5742C156.026 63.6996 156.516 62.5969 156.624 61.2956C156.514 60.417 156.397 59.4824 155.756 58.7984Z" fill="#294494"/>
<path d="M42.7817 47.9565C42.841 43.6352 39.4552 40.09 35.2043 39.898C30.6169 39.6927 26.9201 43.3566 26.8889 47.7765C26.8586 52.0431 30.2143 55.583 34.4606 55.7776C39.0193 55.9856 42.7188 52.367 42.7817 47.9565ZM35.386 63.6894H34.6007C34.3595 63.6907 34.1204 63.6588 33.8809 63.6454C32.9423 63.5934 32.0174 63.4548 31.1049 63.2308C28.6233 62.6254 26.417 61.4815 24.4838 59.8135C23.2797 58.7749 22.2562 57.5789 21.4109 56.2309C20.5495 54.8576 19.9136 53.387 19.5052 51.8177C19.2151 50.7031 19.0536 49.5685 19.011 48.4165C18.9703 47.3152 19.0427 46.2219 19.2303 45.1366C19.5484 43.2913 20.1776 41.558 21.1145 39.9367C22.0603 38.3007 23.2609 36.8768 24.7119 35.6675C26.09 34.5195 27.6186 33.6288 29.2987 32.9982C30.8361 32.4209 32.4268 32.0969 34.0658 32.0182C34.6428 31.9902 35.222 31.9955 35.8001 32.0302C36.4163 32.0662 37.0277 32.1382 37.6345 32.2462C39.1741 32.5235 40.6411 33.0169 42.0328 33.7315C43.7906 34.6355 45.3311 35.8221 46.6452 37.2994C48.5629 39.4554 49.8075 41.9486 50.3752 44.7806C50.5586 45.6926 50.6451 46.6165 50.6654 47.5458V48.1031C50.6774 48.2431 50.6466 48.3805 50.6456 48.5192C50.6424 48.8965 50.6096 49.2698 50.568 49.6431C50.4591 50.6204 50.258 51.5777 49.9664 52.515C49.2686 54.7603 48.1238 56.7509 46.5447 58.4909C45.589 59.5442 44.5082 60.4522 43.3067 61.2148C41.8468 62.1415 40.2787 62.8121 38.599 63.2241C37.6788 63.4494 36.7454 63.5908 35.7991 63.6468C35.6616 63.6548 35.5204 63.6467 35.386 63.6894Z" fill="#F03B28"/>
</svg>
