<svg width="528" height="75" viewBox="0 0 528 75" fill="none" xmlns="http://www.w3.org/2000/svg">
<path d="M399.188 31.3325C398.209 33.4484 396.571 34.4471 394.162 34.3137C392.58 34.2257 390.986 34.3471 389.403 34.2777C388.454 34.2364 388.07 34.451 388.123 35.4764C388.215 37.271 388.154 39.0736 388.147 40.8736C388.141 42.8788 386.716 44.7068 384.886 45.0734C382.871 45.4761 380.969 44.4388 380.109 42.4988C379.945 42.1242 379.923 41.7549 379.923 41.3682C379.924 39.2856 379.9 37.203 379.936 35.1217C379.949 34.4631 379.72 34.2737 379.068 34.2844C377.047 34.3191 375.028 34.2884 373.007 34.299C370.431 34.3137 368.689 32.4258 368.703 30.2285C368.719 27.6179 371.124 26.1299 372.965 26.2259C374.98 26.3326 377.005 26.2232 379.024 26.2646C379.74 26.2792 379.951 26.0526 379.938 25.3619C379.898 23.3166 379.92 21.2687 379.924 19.2221C379.928 17.4875 381.283 15.8195 382.957 15.4782C385.024 15.0542 387.029 16.0248 387.755 17.7955C388.025 18.4554 388.172 19.1234 388.158 19.8461C388.128 21.6447 388.185 23.446 388.131 25.2446C388.108 26.0166 388.308 26.3019 389.145 26.2699C390.803 26.2059 392.469 26.3432 394.121 26.2286C396.575 26.0592 398.27 26.9672 399.188 29.2152V31.3325Z" fill="#F177B5"/>
<path d="M527.934 65.5182C527.898 65.5529 527.905 65.5969 527.904 65.6395C527.897 66.1249 527.757 66.5795 527.559 67.0168C527.219 67.7702 526.692 68.3768 525.997 68.8381C525.47 69.1874 524.889 69.4114 524.257 69.5101C523.966 69.5554 523.673 69.5741 523.376 69.5741C520.218 69.5728 517.061 69.5728 513.902 69.5754C513.644 69.5754 513.385 69.5608 513.135 69.5248C512.819 69.4808 512.507 69.3888 512.206 69.2714C511.66 69.0568 511.173 68.7528 510.755 68.3528C510.314 67.9288 509.972 67.4342 509.74 66.8688C509.473 66.2208 509.381 65.5449 509.448 64.8542C509.531 63.9916 509.856 63.2183 510.42 62.5436C510.964 61.893 511.648 61.4383 512.462 61.1743C512.811 61.0623 513.169 61.0023 513.537 60.9757C513.843 60.953 514.149 60.9556 514.454 60.9556C515.955 60.953 517.454 60.9543 518.955 60.9543C519.168 60.9543 519.158 60.9743 519.158 60.7543V48.888C519.158 48.6706 519.158 48.6693 518.933 48.6693C517.213 48.6693 515.495 48.668 513.776 48.6693C512.83 48.6706 511.979 48.3866 511.222 47.8426C510.376 47.2347 509.826 46.4227 509.559 45.428C509.428 44.9414 509.399 44.4427 509.449 43.9468C509.54 43.0441 509.893 42.2455 510.503 41.5548C510.866 41.1442 511.293 40.8148 511.779 40.5628C512.242 40.3228 512.735 40.1735 513.256 40.1068C513.463 40.0802 513.67 40.0762 513.877 40.0762C517.08 40.0762 520.281 40.0775 523.484 40.0748C524.026 40.0735 524.55 40.1508 525.058 40.3348C525.624 40.5402 526.124 40.8455 526.564 41.2535C527.107 41.7575 527.494 42.3575 527.725 43.0534C527.825 43.3481 527.901 43.6481 527.904 43.9627C527.904 44.0001 527.899 44.0387 527.934 44.0667V65.5182Z" fill="#049796"/>
<path d="M503.274 29.3725C503.297 29.4005 503.33 29.3992 503.364 29.4019C504.077 29.4499 504.728 29.6818 505.327 30.0578C506.016 30.4898 506.54 31.0698 506.9 31.7871C507.13 32.2471 507.268 32.7338 507.321 33.2458C507.396 33.9591 507.292 34.6431 507.018 35.303C506.84 35.7324 506.595 36.123 506.287 36.4777C505.876 36.951 505.38 37.3123 504.808 37.575C504.325 37.7976 503.816 37.9243 503.281 37.9656C502.963 37.991 502.647 37.9857 502.33 37.9857C500.83 37.9897 499.33 37.987 497.83 37.987C497.609 37.9883 497.623 37.9683 497.623 38.1843V50.0827V50.116C497.626 50.272 497.626 50.2733 497.788 50.2733H502.748C502.901 50.2733 503.055 50.2693 503.207 50.276C503.72 50.2973 504.212 50.4173 504.683 50.6133C505.312 50.876 505.85 51.268 506.294 51.776C506.772 52.3226 507.091 52.9506 507.246 53.6559C507.323 54.0079 507.362 54.3639 507.344 54.7225C507.299 55.6585 506.995 56.5038 506.395 57.2398C505.947 57.7891 505.397 58.2131 504.74 58.4998C504.344 58.6731 503.93 58.7838 503.498 58.8371C503.257 58.8665 503.018 58.8664 502.778 58.8664C499.625 58.8678 496.472 58.8651 493.319 58.8691C492.805 58.8705 492.307 58.8105 491.821 58.6465C491.047 58.3865 490.398 57.9518 489.868 57.3398C489.499 56.9132 489.228 56.4332 489.05 55.9052C488.92 55.5225 488.844 55.1292 488.847 54.7239C488.847 54.6279 488.846 54.5306 488.846 54.4346C488.846 47.5574 488.846 40.6816 488.844 33.8044C488.844 33.4018 488.865 33.0031 488.97 32.6111C489.151 31.9351 489.475 31.3378 489.95 30.8165C490.47 30.2432 491.103 29.8378 491.844 29.5938C492.165 29.4885 492.495 29.4099 492.837 29.4005C492.869 29.3992 492.902 29.3992 492.927 29.3725H503.274Z" fill="#049796"/>
<path d="M248.089 36.1457C248.053 36.1803 248.06 36.2243 248.059 36.267C248.053 36.7523 247.913 37.207 247.714 37.6443C247.374 38.3976 246.847 39.0042 246.153 39.4656C245.626 39.8149 245.044 40.0389 244.414 40.1376C244.121 40.1829 243.828 40.2015 243.533 40.2015C240.374 40.2002 237.216 40.2002 234.057 40.2029C233.799 40.2029 233.541 40.1882 233.29 40.1522C232.974 40.1082 232.662 40.0162 232.362 39.8989C231.816 39.6842 231.328 39.3802 230.911 38.9803C230.469 38.5563 230.127 38.0616 229.896 37.4963C229.63 36.8483 229.536 36.1723 229.603 35.4817C229.686 34.619 230.011 33.8457 230.575 33.1711C231.121 32.5204 231.803 32.0657 232.618 31.8018C232.966 31.6898 233.324 31.6298 233.692 31.6031C234 31.5804 234.305 31.5831 234.61 31.5831C236.11 31.5804 237.609 31.5818 239.11 31.5818C239.324 31.5818 239.313 31.6018 239.313 31.3818V19.5154C239.313 19.2981 239.313 19.2967 239.088 19.2967C237.37 19.2967 235.65 19.2954 233.932 19.2967C232.985 19.2981 232.134 19.0141 231.377 18.4701C230.531 17.8621 229.981 17.0501 229.714 16.0555C229.584 15.5688 229.554 15.0702 229.604 14.5742C229.695 13.6715 230.048 12.8729 230.658 12.1823C231.022 11.7716 231.448 11.4423 231.935 11.1903C232.397 10.9503 232.891 10.8009 233.411 10.7343C233.618 10.7076 233.825 10.7036 234.032 10.7036C237.235 10.7036 240.438 10.705 243.639 10.7023C244.181 10.701 244.705 10.7783 245.213 10.9623C245.779 11.1676 246.281 11.4729 246.719 11.8809C247.264 12.3849 247.649 12.9849 247.88 13.6809C247.98 13.9755 248.056 14.2755 248.059 14.5902C248.059 14.6275 248.055 14.6662 248.089 14.6942V36.1457Z" fill="#F89D0E"/>
<path d="M223.43 -3.43323e-05C223.453 0.0279655 223.487 0.0266285 223.519 0.029295C224.233 0.0772934 224.884 0.309309 225.483 0.685301C226.172 1.11729 226.696 1.69727 227.056 2.41459C227.286 2.87457 227.423 3.36122 227.476 3.87321C227.551 4.58652 227.449 5.2705 227.174 5.93048C226.996 6.3598 226.751 6.75047 226.443 7.10513C226.032 7.57845 225.536 7.93977 224.966 8.20243C224.481 8.42509 223.972 8.55175 223.436 8.59308C223.119 8.61841 222.803 8.6131 222.486 8.6131C220.987 8.6171 219.486 8.61443 217.986 8.61577C217.765 8.61577 217.78 8.59576 217.78 8.81176V20.7101C217.78 20.7208 217.779 20.7328 217.78 20.7435C217.781 20.8995 217.781 20.9008 217.943 20.9008H222.904C223.056 20.9008 223.21 20.8968 223.363 20.9034C223.876 20.9248 224.368 21.0448 224.839 21.2408C225.469 21.5034 226.006 21.8954 226.45 22.4034C226.928 22.9501 227.248 23.5781 227.402 24.2834C227.479 24.6354 227.517 24.9914 227.5 25.3514C227.455 26.286 227.151 27.1313 226.551 27.8673C226.103 28.4166 225.554 28.8406 224.896 29.1272C224.5 29.3006 224.086 29.4112 223.654 29.4646C223.413 29.4939 223.174 29.4939 222.934 29.4939C219.78 29.4952 216.628 29.4926 213.474 29.4966C212.961 29.4979 212.463 29.4379 211.977 29.2739C211.203 29.0139 210.554 28.5793 210.024 27.9673C209.655 27.5406 209.385 27.0606 209.206 26.5326C209.076 26.15 209.001 25.7567 209.003 25.3514C209.003 25.2554 209.001 25.158 209.001 25.062C209.001 18.1848 209.001 11.309 209 4.43185C209 4.0292 209.02 3.63055 209.125 3.23856C209.306 2.56257 209.63 1.96526 210.106 1.44394C210.627 0.870621 211.259 0.463976 212 0.221315C212.321 0.115984 212.651 0.0372925 212.992 0.0279598C213.025 0.0266266 213.058 0.0266323 213.082 -3.43323e-05H223.43Z" fill="#F89D0E"/>
<path d="M125.511 26C127.676 26.8453 129.246 28.1519 129.169 30.6652C129.138 31.6865 128.799 32.6104 128.022 33.3451C125.724 35.5117 123.611 37.8677 121.089 39.8889C122.97 42.2329 125.11 44.3262 127.298 46.3648C128.772 47.7368 129.259 49.406 128.785 51.222C128.322 52.9953 126.899 53.9446 125.069 54.2926C123.914 54.5126 122.791 54.3192 121.967 53.5579C118.181 50.054 114.608 46.3381 111.073 42.5929C110.529 42.0169 110.348 41.1116 110 40.3596V39.5303C110.42 37.7823 111.652 36.5957 112.921 35.4184C115.328 33.1864 117.738 30.9585 120.081 28.6652C121.196 27.5746 122.321 26.5506 123.819 26H125.511Z" fill="#294494"/>
<path d="M150.031 49.346C146.572 45.7301 143.127 42.0982 139.576 38.5689C137.894 36.8983 134.918 37.0516 133.302 38.6676C131.604 40.3662 131.584 42.7955 133.145 44.6901C135.009 46.9527 137.219 48.8793 139.3 50.93C139.926 51.5459 139.912 51.8739 139.279 52.4446C137.245 54.2792 135.262 56.1698 133.258 58.0364C132.264 58.9617 131.68 60.1564 131.761 61.4337C131.879 63.263 132.886 64.7096 134.671 65.4029C136.473 66.1029 138.103 65.6802 139.515 64.3496C142.791 61.2617 146.101 58.2084 149.379 55.1218C150.307 54.2472 150.807 53.1446 150.917 51.8433C150.806 50.9646 150.686 50.03 150.031 49.346Z" fill="#294494"/>
<path d="M43.692 47.9562C43.7526 43.635 40.2948 40.0898 35.9534 39.8978C31.2684 39.6924 27.4929 43.3564 27.461 47.7763C27.4301 52.0428 30.8572 55.5827 35.1938 55.7774C39.8495 55.9854 43.6277 52.3668 43.692 47.9562ZM36.139 63.6892H35.3369C35.0906 63.6905 34.8465 63.6585 34.6018 63.6452C33.6433 63.5932 32.6987 63.4545 31.7668 63.2305C29.2323 62.6252 26.9791 61.4812 25.0047 59.8133C23.775 58.7746 22.7298 57.5787 21.8665 56.2307C20.9867 54.8574 20.3373 53.3868 19.9203 51.8175C19.624 50.7029 19.4591 49.5682 19.4155 48.4162C19.374 47.3149 19.4479 46.2216 19.6395 45.1363C19.9644 43.291 20.6069 41.5577 21.5638 39.9364C22.5298 38.3005 23.7558 36.8765 25.2377 35.6672C26.6451 34.5192 28.2063 33.6286 29.9221 32.9979C31.4923 32.4206 33.1167 32.0967 34.7906 32.018C35.38 31.99 35.9715 31.9953 36.5619 32.03C37.1911 32.066 37.8156 32.138 38.4353 32.246C40.0076 32.5233 41.5058 33.0166 42.9271 33.7313C44.7224 34.6352 46.2956 35.8219 47.6377 37.2992C49.5962 39.4551 50.8673 41.9484 51.4471 44.7803C51.6343 45.6923 51.7227 46.6163 51.7434 47.5456V48.1029C51.7556 48.2429 51.7242 48.3802 51.7232 48.5189C51.72 48.8962 51.6865 49.2695 51.644 49.6429C51.5327 50.6202 51.3274 51.5775 51.0296 52.5148C50.3169 54.7601 49.1478 56.7507 47.535 58.4906C46.559 59.5439 45.4552 60.4519 44.2282 61.2146C42.7372 62.1412 41.1357 62.8119 39.4203 63.2238C38.4805 63.4492 37.5273 63.5905 36.5608 63.6465C36.4204 63.6545 36.2762 63.6465 36.139 63.6892Z" fill="#F03B28"/>
<path d="M310.344 62.9115C312.677 61.7876 313.376 58.7636 311.666 56.8183C308.947 53.7252 305.935 50.9066 303.148 47.8734C302.189 46.8295 301.019 46.3853 299.589 46.4587C297.76 46.5519 296.124 48.3734 296.01 50.1185C295.919 51.493 296.482 52.5747 297.375 53.5066C300.129 56.3798 302.908 59.2303 305.689 62.0797C306.467 62.8771 307.389 63.3782 308.496 63.2651C309.173 63.2651 309.747 63.1985 310.344 62.9115ZM329.441 62.9167C331.535 61.9652 332.673 58.9199 330.777 56.7877C330.303 56.256 329.821 55.732 329.33 55.2175C326.993 52.7706 324.636 50.3452 322.318 47.8811C320.708 46.1681 318.429 46.1587 317.06 46.9931C315.546 47.9186 314.585 50.028 315.448 51.9534C315.865 52.8878 316.556 53.5476 317.232 54.2476C319.732 56.8355 322.234 59.4209 324.742 62.0021C325.535 62.8182 326.439 63.4021 327.511 63.2687C328.267 63.2558 328.838 63.1917 329.441 62.9167ZM331.386 43.5212C332.11 41.8199 331.725 40.36 330.499 39.0587C329.529 38.028 328.558 36.9987 327.578 35.9774C325.774 34.0948 323.97 32.2122 322.153 30.3402C320.536 28.6749 318.006 28.5576 316.4 30.1002C314.768 31.6655 314.613 34.0948 316.308 35.8627C319.144 38.8213 321.986 41.7733 324.841 44.7132C325.605 45.4985 326.51 46.0078 327.515 45.8452C329.455 45.8452 330.75 45.0132 331.386 43.5212ZM308.469 45.8452C307.337 45.9572 306.401 45.4332 305.581 44.5812C302.867 41.7599 300.128 38.9613 297.416 36.1387C296.539 35.2268 295.922 34.1868 296.014 32.8402C296.118 31.3402 296.836 30.2122 298.124 29.5122C299.5 28.7629 300.901 28.8442 302.237 29.7002C303.377 30.4309 304.119 31.5668 305.051 32.5068C307.188 34.6614 309.269 36.8707 311.38 39.052C313.368 41.1039 312.886 44.1865 310.361 45.5238C309.787 45.8278 309.687 45.8452 308.469 45.8452Z" fill="#3CAB96"/>
</svg>
