<svg width="57" height="46" viewBox="0 0 57 46" fill="none" xmlns="http://www.w3.org/2000/svg">
<g id="plus">
<path id="Vector" d="M56.6608 31.7727C55.7008 33.89 54.0979 34.8873 51.7397 34.754C50.1903 34.6673 48.6298 34.7873 47.0789 34.7193C46.1497 34.678 45.7737 34.8913 45.8257 35.9166C45.9169 37.7112 45.856 39.5152 45.8503 41.3151C45.8435 43.3191 44.4482 45.147 42.6561 45.5137C40.6827 45.9177 38.8202 44.879 37.9797 42.9404C37.8177 42.5658 37.7967 42.1964 37.7967 41.8085C37.7983 39.7258 37.7749 37.6432 37.8109 35.5619C37.8218 34.9046 37.5984 34.7153 36.9588 34.726C34.9812 34.7593 33.0031 34.7286 31.025 34.7406C28.5022 34.754 26.797 32.866 26.8106 30.6687C26.8262 28.0595 29.1808 26.5715 30.9845 26.6675C32.9569 26.7728 34.9396 26.6635 36.9166 26.7062C37.6182 26.7208 37.8249 26.4928 37.8114 25.8035C37.7724 23.7569 37.7942 21.7103 37.7983 19.6623C37.8025 17.9277 39.1286 16.2611 40.7671 15.9184C42.792 15.4958 44.756 16.4664 45.4654 18.237C45.7295 18.8957 45.8732 19.565 45.8612 20.2863C45.831 22.0863 45.8872 23.8876 45.8347 25.6848C45.8117 26.4582 46.0071 26.7422 46.8273 26.7102C48.4492 26.6462 50.0824 26.7835 51.6991 26.6702C54.1015 26.4995 55.7608 27.4075 56.6608 29.6554V31.7727Z" fill="#3CAB96"/>
<path id="Vector_2" d="M15.1196 9.34601e-05C15.7498 0.366751 16.5107 0.32007 17.1467 0.769394C18.3096 1.59204 18.9023 2.66936 18.9257 4.04932C18.9601 6.05994 18.9669 8.07323 18.9186 10.0838C18.8997 10.8398 19.1519 11.0425 19.882 11.0265C21.9299 10.9825 23.9788 11.0051 26.0277 11.0131C27.7375 11.0198 29.4495 12.4331 29.7307 14.0544C30.0875 16.1077 29.1583 17.9543 27.435 18.6596C26.7069 18.9569 25.9652 19.0796 25.1761 19.0663C23.3751 19.0383 21.5732 19.0809 19.7727 19.0449C19.1315 19.0329 18.9096 19.2263 18.9216 19.8836C18.958 21.8942 18.9409 23.9062 18.9331 25.9168C18.9247 28.1421 17.1457 29.8633 14.8744 29.8567C12.6639 29.8513 10.8953 28.1234 10.8833 25.9381C10.8723 23.9621 10.8525 21.9849 10.8958 20.0103C10.9114 19.2889 10.7229 19.0209 9.95784 19.0409C8.05215 19.0916 6.1438 19.0623 4.23651 19.0569C2.26109 19.0503 0.363274 17.629 0.0824813 15.9597C-0.293509 13.7237 0.624741 12.0465 2.65749 11.1971C3.03135 11.0411 3.40014 11.0091 3.78919 11.0091C5.83807 11.0131 7.88696 10.9825 9.9349 11.0265C10.6672 11.0425 10.9177 10.8372 10.8973 10.0825C10.8473 8.21322 10.9635 6.33726 10.8582 4.4733C10.7505 2.56802 12.1182 0.292078 14.4431 0.176081C14.5301 0.172081 14.6119 0.0614243 14.6963 9.34601e-05H15.1196Z" fill="#3CAB96"/>
</g>
</svg>
