<svg width="30" height="31" viewBox="0 0 30 31" fill="none" xmlns="http://www.w3.org/2000/svg">
<path id="Vector" d="M29.8715 16.3322C28.9129 18.4482 27.3089 19.4468 24.9503 19.3135C23.401 19.2255 21.841 19.3468 20.2904 19.2775C19.3611 19.2361 18.9851 19.4508 19.0371 20.4761C19.1278 22.2707 19.0678 24.0734 19.0611 25.8733C19.0544 27.8786 17.6598 29.7065 15.8678 30.0732C13.8946 30.4759 12.0319 29.4385 11.1906 27.4986C11.0293 27.1239 11.008 26.7546 11.008 26.368C11.0093 24.2853 10.9853 22.2027 11.0213 20.1215C11.0333 19.4628 10.8093 19.2735 10.1707 19.2842C8.19204 19.3188 6.21476 19.2881 4.23614 19.2988C1.71353 19.3135 0.008229 17.4255 0.021562 15.2282C0.0375616 12.6176 2.39218 11.1297 4.1948 11.2257C6.16808 11.3323 8.1507 11.223 10.128 11.2643C10.8293 11.279 11.036 11.0523 11.0226 10.3617C10.984 8.3164 11.0053 6.26848 11.0093 4.22187C11.0133 2.48724 12.3399 0.819273 13.9785 0.477949C16.0025 0.0539589 17.9664 1.02459 18.6771 2.79521C18.9411 3.45519 19.0851 4.12319 19.0718 4.84584C19.0424 6.64446 19.0984 8.44575 19.0451 10.2444C19.0224 11.0164 19.2184 11.3017 20.0384 11.2697C21.661 11.2057 23.293 11.343 24.9103 11.2283C27.3129 11.059 28.9729 11.967 29.8715 14.2149V16.3322Z" fill="#F177B5"/>
</svg>
