<svg width="30" height="31" viewBox="0 0 30 31" fill="none" xmlns="http://www.w3.org/2000/svg">
<path id="Vector" d="M29.8695 16.3325C28.9109 18.4484 27.3069 19.4471 24.9483 19.3137C23.399 19.2257 21.8391 19.3471 20.2884 19.2777C19.3591 19.2364 18.9832 19.451 19.0351 20.4764C19.1258 22.271 19.0658 24.0736 19.0591 25.8736C19.0525 27.8788 17.6578 29.7068 15.8659 30.0734C13.8926 30.4761 12.03 29.4388 11.1887 27.4988C11.0273 27.1242 11.006 26.7549 11.006 26.3682C11.0074 24.2856 10.9833 22.203 11.0193 20.1217C11.0313 19.4631 10.8074 19.2737 10.1687 19.2844C8.19009 19.3191 6.2128 19.2884 4.23418 19.299C1.71158 19.3137 0.00627588 17.4258 0.0196089 15.2285C0.0356085 12.6179 2.39022 11.1299 4.19284 11.2259C6.16613 11.3326 8.14875 11.2232 10.126 11.2646C10.8273 11.2792 11.034 11.0526 11.0207 10.3619C10.982 8.31665 11.0033 6.26873 11.0073 4.22211C11.0113 2.48749 12.338 0.819517 13.9766 0.478193C16.0005 0.054203 17.9645 1.02483 18.6751 2.79545C18.9391 3.45544 19.0831 4.12344 19.0698 4.84608C19.0405 6.64471 19.0965 8.44599 19.0431 10.2446C19.0205 11.0166 19.2165 11.3019 20.0365 11.2699C21.6591 11.2059 23.291 11.3432 24.9083 11.2286C27.3109 11.0592 28.9709 11.9672 29.8695 14.2152V16.3325Z" fill="#F177B5"/>
</svg>
