<svg width="37" height="35" viewBox="0 0 37 35" fill="none" xmlns="http://www.w3.org/2000/svg">
<path id="Vector" d="M14.6223 34.4498C16.9542 33.3272 17.6542 30.3019 15.9449 28.3579C13.2236 25.2634 10.2117 22.4461 7.42644 19.4129C6.46647 18.3675 5.29584 17.9235 3.86654 17.9969C2.03725 18.0915 0.401294 19.9128 0.28663 21.6581C0.197299 23.0314 0.75995 24.1141 1.65193 25.0447C4.40653 27.9193 7.18645 30.7699 9.96638 33.6192C10.7437 34.4151 11.6663 34.9178 12.7743 34.8031C13.4516 34.8045 14.0249 34.7378 14.6223 34.4498ZM33.7191 34.4551C35.8124 33.5032 36.951 30.4579 35.0537 28.3273C34.5804 27.7953 34.0991 27.27 33.6071 26.7553C31.2712 24.31 28.9139 21.8835 26.5966 19.4195C24.9847 17.7076 22.7061 17.6969 21.3381 18.5329C19.8235 19.4568 18.8635 21.5661 19.7248 23.4927C20.1435 24.426 20.8341 25.0874 21.5088 25.786C24.0087 28.3753 26.5126 30.9592 29.0192 33.5418C29.8126 34.3578 30.7165 34.9405 31.7885 34.8085C32.5458 34.7951 33.1151 34.7298 33.7191 34.4551ZM35.6631 15.0609C36.3871 13.3583 36.0017 11.8984 34.7764 10.5971C33.8071 9.56775 32.8351 8.53847 31.8565 7.51716C30.0512 5.63321 28.2473 3.75058 26.4313 1.87996C24.814 0.214672 22.2847 0.0960007 20.6768 1.63863C19.0448 3.20392 18.8902 5.63453 20.5848 7.40248C23.4221 10.3597 26.2646 13.3117 29.1192 16.2516C29.8819 17.0383 30.7872 17.5462 31.7925 17.3836C33.7324 17.3849 35.0284 16.5516 35.6631 15.0609ZM12.7476 17.3836C11.6143 17.4969 10.6784 16.9729 9.85838 16.1196C7.14378 13.2997 4.40652 10.5011 1.69325 7.67848C0.817274 6.76651 0.198621 5.72653 0.291952 4.37856C0.394616 2.8786 1.11328 1.75197 2.40258 1.05066C3.77854 0.302673 5.17984 0.383991 6.51447 1.23864C7.65577 1.97062 8.39575 3.10526 9.32906 4.04524C11.465 6.19985 13.5463 8.41044 15.6582 10.5904C17.6462 12.6437 17.1649 15.7263 14.6383 17.0622C14.0636 17.3662 13.9649 17.3849 12.7476 17.3836Z" fill="#F177B5"/>
</svg>
