<svg width="36" height="35" viewBox="0 0 36 35" fill="none" xmlns="http://www.w3.org/2000/svg">
<path id="Vector" d="M14.3439 33.9109C16.6771 32.7869 17.3758 29.763 15.6665 27.8177C12.9465 24.7246 9.93464 21.906 7.14804 18.8728C6.1894 17.8289 5.01877 17.3847 3.58947 17.4581C1.76018 17.5513 0.124211 19.3727 0.00954718 21.1179C-0.0811172 22.4924 0.481534 23.5741 1.37485 24.506C4.12944 27.3792 6.90805 30.2297 9.68932 33.0791C10.4666 33.8765 11.3892 34.3776 12.4959 34.2645C13.1732 34.2645 13.7465 34.1978 14.3439 33.9109ZM33.4407 33.9161C35.5353 32.9645 36.6726 29.9193 34.7767 27.7871C34.3034 27.2554 33.8207 26.7314 33.33 26.2168C30.9928 23.77 28.6355 21.3446 26.3182 18.8805C24.7076 17.1675 22.429 17.1581 21.0597 17.9925C19.5464 18.918 18.5851 21.0274 19.4477 22.9528C19.8651 23.8872 20.5557 24.547 21.2317 25.247C23.7316 27.8349 26.2342 30.4203 28.7422 33.0015C29.5355 33.8176 30.4395 34.4014 31.5114 34.2681C32.2674 34.2552 32.8381 34.191 33.4407 33.9161ZM35.386 14.5206C36.11 12.8193 35.7246 11.3594 34.4993 10.0581C33.5287 9.02741 32.5581 7.99809 31.5781 6.97678C29.7741 5.09416 27.9702 3.21156 26.1529 1.3396C24.5356 -0.325687 22.0063 -0.443027 20.3997 1.0996C18.7677 2.6649 18.6131 5.09417 20.3077 6.86212C23.1436 9.82071 25.9862 12.7726 28.8408 15.7126C29.6048 16.4979 30.5101 17.0072 31.5154 16.8445C33.4554 16.8445 34.75 16.0126 35.386 14.5206ZM12.4692 16.8445C11.3373 16.9565 10.4013 16.4326 9.58131 15.5806C6.86671 12.7593 4.12812 9.96072 1.41619 7.13812C0.538874 6.22615 -0.0784467 5.18617 0.013551 3.83954C0.117548 2.33958 0.836208 1.21159 2.12418 0.511612C3.50014 -0.237701 4.90142 -0.156364 6.23739 0.699612C7.37736 1.43026 8.11869 2.56624 9.05066 3.50622C11.1879 5.66083 13.2692 7.8701 15.3798 10.0514C17.3678 12.1033 16.8864 15.1859 14.3612 16.5232C13.7865 16.8272 13.6865 16.8445 12.4692 16.8445Z" fill="#3CAB96"/>
</svg>
