<svg width="19" height="30" viewBox="0 0 19 30" fill="none" xmlns="http://www.w3.org/2000/svg">
<path id="Vector" d="M15.2163 0.94381C17.3349 1.78912 18.8722 3.09442 18.7975 5.60903C18.7669 6.629 18.4362 7.55429 17.6749 8.28761C15.4243 10.4556 13.3563 12.8115 10.8857 14.8328C12.727 17.1767 14.823 19.27 16.9669 21.3086C18.4082 22.6806 18.8855 24.3499 18.4215 26.1645C17.9682 27.9391 16.5736 28.8884 14.783 29.2364C13.6523 29.4564 12.5524 29.2631 11.7457 28.5018C8.0378 24.9979 4.53922 21.282 1.0793 17.5367C0.545983 16.9607 0.368669 16.0554 0.0273438 15.3034V14.4741C0.439333 12.7262 1.64463 11.5395 2.8886 10.3609C5.24454 8.13028 7.60449 5.90235 9.8991 3.60908C10.9911 2.51844 12.0924 1.49446 13.559 0.94381H15.2163Z" fill="#294494"/>
</svg>
