<svg width="33" height="33" viewBox="0 0 33 33" fill="none" xmlns="http://www.w3.org/2000/svg">
<path id="Vector" d="M24.3032 16.426C24.3625 12.1047 20.9767 8.55949 16.7258 8.3675C12.1384 8.16217 8.44158 11.8261 8.41038 16.246C8.38011 20.5125 11.7358 24.0525 15.9821 24.2471C20.5407 24.4551 24.2402 20.8365 24.3032 16.426ZM16.9075 32.1589H16.1222C15.881 32.1602 15.6419 32.1283 15.4023 32.1149C14.4638 32.0629 13.5389 31.9242 12.6264 31.7002C10.1447 31.0949 7.93852 29.951 6.00524 28.283C4.80114 27.2444 3.77769 26.0484 2.93238 24.7004C2.07094 23.3271 1.43509 21.8565 1.0267 20.2872C0.73657 19.1726 0.575107 18.0379 0.532442 16.886C0.491776 15.7847 0.564175 14.6913 0.75177 13.606C1.0699 11.7608 1.69908 10.0275 2.63599 8.40617C3.58183 6.77021 4.78233 5.34624 6.23337 4.13694C7.61146 2.98897 9.14009 2.09832 10.8202 1.46767C12.3576 0.89035 13.9482 0.566378 15.5873 0.487713C16.1643 0.459715 16.7435 0.465027 17.3216 0.499693C17.9377 0.535692 18.5492 0.607706 19.156 0.715702C20.6955 0.993029 22.1626 1.48634 23.5543 2.20098C25.3121 3.10496 26.8526 4.2916 28.1667 5.7689C30.0844 7.92484 31.329 10.4181 31.8967 13.2501C32.0801 14.162 32.1666 15.086 32.1869 16.0153V16.5726C32.1989 16.7126 32.1681 16.85 32.1671 16.9886C32.1639 17.366 32.1311 17.7393 32.0895 18.1126C31.9806 19.0899 31.7795 20.0472 31.4879 20.9845C30.7901 23.2298 29.6453 25.2204 28.0662 26.9604C27.1104 28.0137 26.0297 28.9217 24.8282 29.6843C23.3683 30.611 21.8002 31.2816 20.1205 31.6936C19.2002 31.9189 18.2669 32.0603 17.3206 32.1163C17.1831 32.1243 17.0419 32.1162 16.9075 32.1589Z" fill="#F03B28"/>
</svg>
 