<svg width="19" height="29" viewBox="0 0 19 29" fill="none" xmlns="http://www.w3.org/2000/svg">
<path id="Vector" d="M15.1876 9.91821e-05C17.3076 0.845411 18.8449 2.15204 18.7702 4.66665C18.7395 5.68662 18.4076 6.61195 17.6462 7.34526C15.397 9.51321 13.3277 11.8678 10.8571 13.8891C12.6997 16.233 14.7943 18.3276 16.9382 20.3663C18.3809 21.7369 18.8582 23.4075 18.3942 25.2221C17.9409 26.9968 16.5462 27.9461 14.7556 28.2941C13.6236 28.5141 12.5237 28.3207 11.7184 27.5581C8.01045 24.0542 4.5119 20.3396 1.05066 16.5944C0.518671 16.0184 0.341325 15.1131 0 14.3597V13.5318C0.410656 11.7825 1.61729 10.5958 2.85992 9.41853C5.21586 7.18792 7.57715 4.95997 9.87176 2.66536C10.9624 1.57472 12.065 0.552084 13.5317 9.91821e-05H15.1876Z" fill="#3CAB96"/>
</svg>
