<svg width="19" height="30" viewBox="0 0 19 30" fill="none" xmlns="http://www.w3.org/2000/svg">
<path id="Vector" d="M14.7891 0.372524C14.8118 0.400524 14.8438 0.399187 14.8771 0.401854C15.5758 0.449852 16.2131 0.681835 16.7998 1.05783C17.4744 1.48981 17.9877 2.06983 18.3397 2.78715C18.565 3.24713 18.6997 3.73378 18.7517 4.24577C18.825 4.95908 18.7237 5.64306 18.4557 6.30304C18.281 6.73236 18.041 7.12303 17.7397 7.47769C17.3371 7.95101 16.8518 8.31233 16.2918 8.57499C15.8184 8.79765 15.3198 8.9243 14.7958 8.96564C14.4851 8.99097 14.1758 8.98565 13.8652 8.98565C12.3959 8.98965 10.9279 8.98699 9.4586 8.98699C9.24261 8.98832 9.25594 8.96832 9.25594 9.18432V21.0827V21.116C9.2586 21.272 9.2586 21.2733 9.41726 21.2733H14.2745C14.4238 21.2733 14.5745 21.2693 14.7238 21.276C15.2265 21.2973 15.7078 21.4173 16.1691 21.6133C16.7851 21.876 17.3117 22.268 17.7464 22.776C18.2144 23.3226 18.5264 23.9506 18.6784 24.6559C18.7544 25.0079 18.7917 25.3639 18.7744 25.7225C18.7304 26.6585 18.433 27.5038 17.845 28.2398C17.4064 28.7891 16.8678 29.2131 16.2251 29.4998C15.8371 29.6731 15.4318 29.7838 15.0091 29.8371C14.7731 29.8665 14.5385 29.8664 14.3038 29.8664C11.2159 29.8678 8.12928 29.8651 5.04136 29.8691C4.53871 29.8705 4.05072 29.8105 3.57473 29.6465C2.81742 29.3865 2.18145 28.9518 1.6628 28.3398C1.30148 27.9132 1.03615 27.4332 0.861486 26.9052C0.734822 26.5225 0.660159 26.1292 0.662825 25.7239C0.662825 25.6279 0.661491 25.5306 0.661491 25.4346C0.661491 18.5574 0.66149 11.6816 0.660156 4.80441C0.660156 4.40176 0.680145 4.00311 0.782809 3.61111C0.960138 2.93513 1.27746 2.33782 1.74278 1.8165C2.2521 1.24318 2.8721 0.837835 3.59742 0.59384C3.91208 0.48851 4.23474 0.409851 4.5694 0.400518C4.6014 0.399185 4.63339 0.399191 4.65739 0.372524H14.7891Z" fill="#049796"/>
</svg>
