<svg width="20" height="29" viewBox="0 0 20 29" fill="none" xmlns="http://www.w3.org/2000/svg">
<path id="Vector" d="M15.7467 0.452354C17.866 1.29767 19.4033 2.6043 19.3287 5.11757C19.298 6.13888 18.966 7.06284 18.2047 7.79748C15.9551 9.9641 13.8864 12.32 11.4166 14.3413C13.2583 16.6853 15.3536 18.7786 17.4967 20.8172C18.9393 22.1891 19.4167 23.8584 18.9527 25.6744C18.4993 27.4477 17.1051 28.397 15.314 28.745C14.1828 28.965 13.0828 28.7716 12.2766 28.0103C8.5688 24.5064 5.07048 20.7905 1.60963 17.0453C1.07685 16.4693 0.899785 15.564 0.558594 14.812V13.9827C0.97005 12.2347 2.17575 11.0481 3.41892 9.87077C5.77513 7.63883 8.13548 5.4109 10.4297 3.11762C11.5214 2.02698 12.6234 1.00301 14.09 0.452354H15.7467Z" fill="#294494"/>
</svg>
