<svg width="20" height="30" viewBox="0 0 20 30" fill="none" xmlns="http://www.w3.org/2000/svg">
<path id="Vector" d="M18.7557 12.7984C15.3691 9.18247 11.9959 5.55058 8.51861 2.02133C6.87198 0.350708 3.95738 0.504036 2.37475 2.12C0.712124 3.81862 0.693455 6.24788 2.22142 8.1425C4.0467 10.4051 6.21066 12.3317 8.24794 14.3824C8.86126 14.9983 8.84792 15.3263 8.22794 15.897C6.23599 17.7316 4.29471 19.6222 2.33209 21.4888C1.35878 22.4141 0.786798 23.6088 0.866796 24.8861C0.98146 26.7154 1.9681 28.162 3.71606 28.8553C5.48001 29.5553 7.07597 29.1326 8.4586 27.802C11.6665 24.7141 14.9078 21.6608 18.117 18.5742C19.0263 17.6996 19.5157 16.5969 19.6237 15.2956C19.5143 14.417 19.397 13.4824 18.7557 12.7984Z" fill="#294494"/>
</svg>
