<svg width="32" height="32" viewBox="0 0 32 32" fill="none" xmlns="http://www.w3.org/2000/svg">
<path id="Vector" d="M23.7817 15.9565C23.841 11.6352 20.4552 8.09001 16.2043 7.89801C11.6169 7.69269 7.92009 11.3566 7.88889 15.7765C7.85863 20.0431 11.2143 23.583 15.4606 23.7776C20.0193 23.9856 23.7188 20.367 23.7817 15.9565ZM16.386 31.6894H15.6007C15.3595 31.6907 15.1204 31.6588 14.8809 31.6454C13.9423 31.5934 13.0174 31.4548 12.1049 31.2308C9.62325 30.6254 7.41704 29.4815 5.48376 27.8135C4.27965 26.7749 3.25621 25.5789 2.4109 24.2309C1.54945 22.8576 0.913601 21.387 0.505212 19.8177C0.215086 18.7031 0.0536228 17.5685 0.0109572 16.4165C-0.0297084 15.3152 0.0426904 14.2219 0.230286 13.1366C0.548411 11.2913 1.1776 9.55798 2.11451 7.93669C3.06035 6.30073 4.26085 4.87676 5.71188 3.66746C7.08998 2.51949 8.61861 1.62884 10.2987 0.998186C11.8361 0.420868 13.4268 0.0968952 15.0658 0.0182304C15.6428 -0.00976753 16.222 -0.00445557 16.8001 0.0302105C17.4163 0.0662098 18.0277 0.138224 18.6345 0.24622C20.1741 0.523546 21.6411 1.01685 23.0328 1.7315C24.7906 2.63548 26.3311 3.82212 27.6452 5.29941C29.5629 7.45536 30.8075 9.94865 31.3752 12.7806C31.5586 13.6926 31.6451 14.6165 31.6654 15.5458V16.1031C31.6774 16.2431 31.6466 16.3805 31.6456 16.5192C31.6424 16.8965 31.6096 17.2698 31.568 17.6431C31.4591 18.6204 31.258 19.5777 30.9664 20.515C30.2686 22.7603 29.1238 24.7509 27.5447 26.4909C26.589 27.5442 25.5082 28.4522 24.3067 29.2148C22.8468 30.1415 21.2787 30.8121 19.599 31.2241C18.6788 31.4494 17.7454 31.5908 16.7991 31.6468C16.6616 31.6548 16.5204 31.6467 16.386 31.6894Z" fill="#F03B28"/>
</svg>
