<svg width="20" height="29" viewBox="0 0 20 29" fill="none" xmlns="http://www.w3.org/2000/svg">
<path id="Vector" d="M18.2281 12.2898C14.8415 8.6739 11.4683 5.04202 7.99105 1.51277C6.34576 -0.157852 3.42982 -0.00452614 1.84853 1.6101C0.184567 3.31006 0.165912 5.73932 1.69387 7.63394C3.51916 9.89655 5.6831 11.8232 7.72172 13.8725C8.3337 14.4898 8.32038 14.8177 7.7004 15.3884C5.70845 17.2217 3.76713 19.1123 1.80585 20.9803C0.832541 21.9056 0.260556 23.0989 0.33922 24.3775C0.453884 26.2068 1.44187 27.6534 3.1885 28.3468C4.95379 29.0467 6.54842 28.6241 7.93106 27.2935C11.139 24.2055 14.3802 21.1523 17.5895 18.0657C18.4988 17.191 18.9881 16.0871 19.0961 14.7871C18.9868 13.9084 18.8694 12.9738 18.2281 12.2898Z" fill="#294494"/>
</svg>
